# This file uses centimeters as units for non-parametric coordinates.

mtllib ClownMask.mtl
g default
v 0.374780 0.019703 0.001462
v 0.375990 0.019702 0.009103
v 0.379502 0.019702 0.031694
v 0.384972 0.019702 0.037164
v 0.391865 0.019702 0.040676
v 0.399506 0.019702 0.041886
v 0.407146 0.019702 0.040676
v 0.414039 0.019702 0.037164
v 0.419509 0.019702 0.031694
v 0.423021 0.019702 0.024802
v 0.424231 0.019703 0.000352
v 0.350664 0.028150 0.001462
v 0.353054 0.028150 0.032254
v 0.359992 0.028150 0.045870
v 0.370797 0.028150 0.056675
v 0.384413 0.028150 0.063612
v 0.399505 0.028150 0.066003
v 0.414598 0.028150 0.063612
v 0.428214 0.028150 0.056675
v 0.439019 0.028150 0.045870
v 0.445957 0.028150 0.032254
v 0.448347 0.028150 0.000352
v 0.319228 0.041998 0.000106
v 0.323157 0.041998 0.039335
v 0.334560 0.041998 0.059338
v 0.352320 0.041998 0.075213
v 0.374698 0.041998 0.085405
v 0.399505 0.041998 0.088917
v 0.424313 0.041998 0.085405
v 0.446691 0.041998 0.075213
v 0.464451 0.041998 0.059338
v 0.475854 0.041998 0.039335
v 0.479783 0.041998 0.000352
v 0.286778 0.070850 -0.002095
v 0.292295 0.070850 0.045159
v 0.308307 0.070850 0.073625
v 0.333246 0.070850 0.096216
v 0.364671 0.070850 0.110720
v 0.399505 0.070850 0.115718
v 0.434340 0.070850 0.110720
v 0.465765 0.070850 0.096216
v 0.490704 0.070850 0.073625
v 0.506716 0.070850 0.045159
v 0.512233 0.070850 -0.003206
v 0.263502 0.100471 -0.002437
v 0.270158 0.100471 0.051489
v 0.289476 0.100471 0.085905
v 0.319564 0.100471 0.113217
v 0.357478 0.100471 0.130753
v 0.399505 0.100471 0.136795
v 0.441533 0.100471 0.130753
v 0.479447 0.100471 0.113217
v 0.509535 0.100471 0.085905
v 0.528853 0.100471 0.051489
v 0.535509 0.100471 -0.003553
v 0.225274 0.151835 -0.000000
v 0.233801 0.151835 0.053051
v 0.258549 0.151835 0.100909
v 0.297095 0.151835 0.138890
v 0.345665 0.151835 0.163275
v 0.399505 0.151835 0.171677
v 0.453346 0.151835 0.163275
v 0.501917 0.151835 0.138890
v 0.540462 0.151835 0.100909
v 0.565210 0.151835 0.053051
v 0.573737 0.151835 0.000000
v 0.210430 0.180226 0.000000
v 0.219684 0.180226 0.058428
v 0.246540 0.180226 0.111136
v 0.288370 0.180226 0.152965
v 0.341078 0.180226 0.179821
v 0.399506 0.180226 0.189076
v 0.457933 0.180226 0.179821
v 0.510641 0.180226 0.152965
v 0.552471 0.180226 0.111136
v 0.579327 0.180226 0.058428
v 0.588581 0.180226 0.000000
v 0.197687 0.210991 0.000000
v 0.207565 0.210991 0.062365
v 0.236231 0.210991 0.118626
v 0.280880 0.210991 0.163275
v 0.354880 0.203054 0.186792
v 0.399506 0.196940 0.195223
v 0.445929 0.203669 0.191941
v 0.518131 0.210991 0.163275
v 0.562780 0.210991 0.118626
v 0.591446 0.210991 0.062365
v 0.601324 0.210991 0.000000
v 0.189914 0.243369 0.000000
v 0.200172 0.243369 0.064767
v 0.229942 0.243369 0.123195
v 0.276311 0.243369 0.169563
v 0.331052 0.243369 0.187015
v 0.466098 0.243363 0.190006
v 0.522701 0.243369 0.169563
v 0.569069 0.243369 0.123195
v 0.598839 0.243369 0.064767
v 0.609097 0.243369 0.000000
v 0.196766 0.276565 0.000000
v 0.206689 0.276565 0.065575
v 0.235486 0.276565 0.124731
v 0.280338 0.276565 0.171677
v 0.344571 0.286662 0.201818
v 0.399506 0.296861 0.209365
v 0.447061 0.286104 0.202608
v 0.518673 0.276565 0.171677
v 0.563525 0.276565 0.124731
v 0.592322 0.276565 0.065575
v 0.602245 0.276565 0.000000
v 0.208644 0.309761 0.000000
v 0.217986 0.309761 0.064767
v 0.245096 0.309761 0.123195
v 0.287320 0.309761 0.169563
v 0.340526 0.309761 0.199334
v 0.399505 0.309761 0.209592
v 0.458484 0.309761 0.199334
v 0.511691 0.309761 0.169563
v 0.553916 0.309761 0.123195
v 0.581025 0.309761 0.064767
v 0.590366 0.309761 0.000000
v 0.215723 0.342140 0.000000
v 0.224718 0.342140 0.062365
v 0.250822 0.342140 0.118626
v 0.291481 0.342140 0.163275
v 0.342714 0.342140 0.191941
v 0.399505 0.342140 0.201818
v 0.456297 0.342140 0.191941
v 0.507530 0.342140 0.163275
v 0.548189 0.342140 0.118626
v 0.574293 0.342140 0.062365
v 0.583288 0.342140 0.000000
v 0.227327 0.372904 0.000000
v 0.235754 0.372904 0.058428
v 0.260210 0.372904 0.111136
v 0.298302 0.372904 0.152965
v 0.346300 0.372904 0.179821
v 0.399505 0.372904 0.189076
v 0.452712 0.372904 0.179821
v 0.500709 0.372904 0.152965
v 0.538801 0.372904 0.111136
v 0.563257 0.372904 0.058428
v 0.571684 0.372904 0.000000
v 0.243171 0.401296 0.000000
v 0.250822 0.401296 0.053051
v 0.273028 0.401296 0.100909
v 0.307614 0.401296 0.138890
v 0.351195 0.401296 0.163275
v 0.399506 0.401296 0.171677
v 0.447816 0.401296 0.163275
v 0.491397 0.401296 0.138890
v 0.525983 0.401296 0.100909
v 0.548189 0.401296 0.053051
v 0.555840 0.401296 0.000000
v 0.262864 0.426616 0.000000
v 0.269552 0.426616 0.046368
v 0.288960 0.426616 0.088198
v 0.319190 0.426616 0.121394
v 0.357281 0.426616 0.142707
v 0.399505 0.426616 0.150051
v 0.441730 0.426616 0.142707
v 0.479821 0.426616 0.121394
v 0.510051 0.426616 0.088198
v 0.529459 0.426616 0.046368
v 0.536147 0.426616 0.000000
v 0.285922 0.448242 0.000000
v 0.291481 0.448242 0.038544
v 0.307614 0.448242 0.073315
v 0.332743 0.448242 0.100909
v 0.364406 0.448242 0.118626
v 0.399506 0.448242 0.124731
v 0.434605 0.448242 0.118626
v 0.466268 0.448242 0.100909
v 0.491397 0.448242 0.073315
v 0.507530 0.448242 0.038544
v 0.513089 0.448242 0.000000
v 0.311776 0.465641 0.000000
v 0.316070 0.465641 0.029770
v 0.328531 0.465641 0.056627
v 0.347939 0.465641 0.077940
v 0.372396 0.465641 0.091624
v 0.399505 0.465641 0.096339
v 0.426615 0.465641 0.091624
v 0.451071 0.465641 0.077940
v 0.470480 0.465641 0.056627
v 0.482941 0.465641 0.029770
v 0.487235 0.465641 0.000000
v 0.339791 0.478384 0.000000
v 0.342714 0.478384 0.020264
v 0.351196 0.478384 0.038544
v 0.364406 0.478384 0.053051
v 0.381053 0.478384 0.062365
v 0.399506 0.478384 0.065575
v 0.417958 0.478384 0.062365
v 0.434605 0.478384 0.053051
v 0.447816 0.478384 0.038544
v 0.456297 0.478384 0.020264
v 0.459220 0.478384 0.000000
v 0.369276 0.486157 0.000000
v 0.370756 0.486157 0.010258
v 0.375049 0.486157 0.019512
v 0.381737 0.486157 0.026856
v 0.390164 0.486157 0.031571
v 0.399506 0.486157 0.033196
v 0.408847 0.486157 0.031571
v 0.417274 0.486157 0.026856
v 0.423962 0.486157 0.019512
v 0.428255 0.486157 0.010258
v 0.429735 0.486157 0.000000
v 0.399506 0.016863 0.001462
v 0.399506 0.488770 0.000000
v 0.364973 0.216971 0.183060
v 0.399506 0.209353 0.187209
v 0.399506 0.243369 0.185273
v 0.357602 0.243369 0.183726
v 0.438303 0.218008 0.183060
v 0.437798 0.243369 0.190453
v 0.399506 0.276074 0.201525
v 0.362525 0.261086 0.192938
v 0.433271 0.261968 0.192938
v 0.374201 0.014237 -0.000919
v 0.375439 0.014237 0.006901
v 0.351965 0.022883 0.030595
v 0.349519 0.022883 -0.000919
v 0.379033 0.014237 0.030022
v 0.359065 0.022883 0.044530
v 0.384632 0.014237 0.035620
v 0.370124 0.022883 0.055588
v 0.391686 0.014237 0.039215
v 0.384059 0.022883 0.062688
v 0.399506 0.014237 0.040453
v 0.399505 0.022883 0.065135
v 0.407325 0.014237 0.039215
v 0.414952 0.022883 0.062688
v 0.414379 0.014237 0.035620
v 0.428887 0.022883 0.055588
v 0.419978 0.014237 0.030022
v 0.439946 0.022883 0.044530
v 0.423572 0.014237 0.022968
v 0.447046 0.022883 0.030595
v 0.424810 0.014237 -0.002055
v 0.449492 0.022883 -0.002055
v 0.321367 0.037055 0.037842
v 0.317346 0.037055 -0.002307
v 0.333037 0.037055 0.058314
v 0.351213 0.037055 0.074561
v 0.374117 0.037055 0.084992
v 0.399505 0.037055 0.088586
v 0.424894 0.037055 0.084992
v 0.447798 0.037055 0.074561
v 0.465974 0.037055 0.058314
v 0.477644 0.037055 0.037842
v 0.481665 0.037055 -0.002055
v 0.289781 0.066584 0.043802
v 0.284135 0.066584 -0.004560
v 0.306168 0.066584 0.072936
v 0.331692 0.066584 0.096057
v 0.363854 0.066584 0.110901
v 0.399505 0.066584 0.116016
v 0.435157 0.066584 0.110901
v 0.467319 0.066584 0.096057
v 0.492842 0.066584 0.072936
v 0.509230 0.066584 0.043802
v 0.514876 0.066584 -0.005696
v 0.267125 0.096899 0.050281
v 0.260313 0.096899 -0.004910
v 0.286896 0.096899 0.085504
v 0.317690 0.096899 0.113457
v 0.356493 0.096899 0.131403
v 0.399505 0.096899 0.137587
v 0.442518 0.096899 0.131403
v 0.481321 0.096899 0.113457
v 0.512115 0.096899 0.085504
v 0.531886 0.096899 0.050281
v 0.538698 0.096899 -0.006052
v 0.229916 0.149467 0.051880
v 0.221189 0.149467 -0.002415
v 0.255244 0.149467 0.100860
v 0.294694 0.149467 0.139731
v 0.344403 0.149467 0.164687
v 0.399505 0.149467 0.173287
v 0.454608 0.149467 0.164687
v 0.504318 0.149467 0.139731
v 0.543767 0.149467 0.100860
v 0.569095 0.149467 0.051880
v 0.577822 0.149467 -0.002415
v 0.215468 0.178524 0.057382
v 0.205997 0.178524 -0.002415
v 0.242954 0.178524 0.111326
v 0.285764 0.178524 0.154136
v 0.339708 0.178524 0.181622
v 0.399506 0.178524 0.191093
v 0.459303 0.178524 0.181622
v 0.513247 0.178524 0.154136
v 0.556057 0.178524 0.111326
v 0.583543 0.178524 0.057382
v 0.593014 0.178524 -0.002415
v 0.203065 0.210010 0.061412
v 0.192955 0.210010 -0.002415
v 0.232403 0.210010 0.118992
v 0.278098 0.210010 0.164687
v 0.353834 0.201887 0.193597
v 0.399506 0.191093 0.197384
v 0.447018 0.202517 0.197651
v 0.520913 0.210010 0.164687
v 0.566608 0.210010 0.118992
v 0.595946 0.210010 0.061412
v 0.606056 0.210010 -0.002415
v 0.195498 0.243148 0.063871
v 0.184999 0.243148 -0.002415
v 0.225967 0.243148 0.123668
v 0.273422 0.243148 0.171124
v 0.330157 0.243978 0.192628
v 0.525589 0.243148 0.171124
v 0.467180 0.243899 0.194226
v 0.573045 0.243148 0.123668
v 0.603513 0.243148 0.063871
v 0.614012 0.243148 -0.002415
v 0.202168 0.277122 0.064697
v 0.192013 0.277122 -0.002415
v 0.231640 0.277122 0.125240
v 0.277544 0.277122 0.173287
v 0.343283 0.287456 0.209504
v 0.521467 0.277122 0.173287
v 0.447171 0.286884 0.209388
v 0.567371 0.277122 0.125240
v 0.596843 0.277122 0.064697
v 0.606998 0.277122 -0.002415
v 0.213730 0.311096 0.063871
v 0.204169 0.311096 -0.002415
v 0.241475 0.311096 0.123668
v 0.284690 0.311096 0.171124
v 0.339143 0.311096 0.201592
v 0.399506 0.302896 0.215277
v 0.399505 0.311096 0.212091
v 0.459867 0.311096 0.201592
v 0.514321 0.311096 0.171124
v 0.557536 0.311096 0.123668
v 0.585281 0.311096 0.063871
v 0.594841 0.311096 -0.002415
v 0.220620 0.344234 0.061412
v 0.211414 0.344234 -0.002415
v 0.247336 0.344234 0.118992
v 0.288948 0.344234 0.164687
v 0.341382 0.344234 0.194026
v 0.399505 0.344234 0.204135
v 0.457629 0.344234 0.194026
v 0.510063 0.344234 0.164687
v 0.551675 0.344234 0.118992
v 0.578391 0.344234 0.061412
v 0.587597 0.344234 -0.002415
v 0.231915 0.375720 0.057382
v 0.223290 0.375720 -0.002415
v 0.256944 0.375720 0.111326
v 0.295929 0.375720 0.154136
v 0.345052 0.375720 0.181622
v 0.399505 0.375720 0.191093
v 0.453959 0.375720 0.181622
v 0.503082 0.375720 0.154136
v 0.542067 0.375720 0.111326
v 0.567096 0.375720 0.057382
v 0.575721 0.375720 -0.002415
v 0.247336 0.404777 0.051880
v 0.239505 0.404777 -0.002415
v 0.270063 0.404777 0.100860
v 0.305460 0.404777 0.139731
v 0.350063 0.404777 0.164687
v 0.399506 0.404777 0.173287
v 0.448948 0.404777 0.164687
v 0.493551 0.404777 0.139731
v 0.528949 0.404777 0.100860
v 0.551675 0.404777 0.051880
v 0.559506 0.404777 -0.002415
v 0.266505 0.430691 0.045040
v 0.259660 0.430691 -0.002415
v 0.286368 0.430691 0.087850
v 0.317307 0.430691 0.121825
v 0.356291 0.430691 0.143638
v 0.399505 0.430691 0.151154
v 0.442720 0.430691 0.143638
v 0.481704 0.430691 0.121825
v 0.512643 0.430691 0.087850
v 0.532506 0.430691 0.045040
v 0.539350 0.430691 -0.002415
v 0.288948 0.452824 0.037032
v 0.283258 0.452824 -0.002415
v 0.305460 0.452824 0.072618
v 0.331177 0.452824 0.100860
v 0.363583 0.452824 0.118992
v 0.399506 0.452824 0.125240
v 0.435428 0.452824 0.118992
v 0.467834 0.452824 0.100860
v 0.493551 0.452824 0.072618
v 0.510063 0.452824 0.037032
v 0.515752 0.452824 -0.002415
v 0.314114 0.470631 0.028053
v 0.309719 0.470631 -0.002415
v 0.326867 0.470631 0.055539
v 0.346730 0.470631 0.077352
v 0.371760 0.470631 0.091356
v 0.399505 0.470631 0.096182
v 0.427251 0.470631 0.091356
v 0.452280 0.470631 0.077352
v 0.472144 0.470631 0.055539
v 0.484897 0.470631 0.028053
v 0.489292 0.470631 -0.002415
v 0.341382 0.483672 0.018323
v 0.338391 0.483672 -0.002415
v 0.350063 0.483672 0.037032
v 0.363583 0.483672 0.051880
v 0.380620 0.483672 0.061412
v 0.399506 0.483672 0.064697
v 0.418391 0.483672 0.061412
v 0.435428 0.483672 0.051880
v 0.448948 0.483672 0.037032
v 0.457629 0.483672 0.018323
v 0.460620 0.483672 -0.002415
v 0.370082 0.491628 0.008083
v 0.368567 0.491628 -0.002415
v 0.374476 0.491628 0.017554
v 0.381320 0.491628 0.025070
v 0.389945 0.491628 0.029896
v 0.399506 0.491628 0.031559
v 0.409066 0.491628 0.029896
v 0.417690 0.491628 0.025070
v 0.424535 0.491628 0.017554
v 0.428929 0.491628 0.008083
v 0.430444 0.491628 -0.002415
v 0.399506 0.011331 -0.000919
v 0.399506 0.494302 -0.002415
v 0.396690 0.242832 0.190921
v 0.398335 0.275003 0.204247
v 0.440722 0.243103 0.191806
v 0.398532 0.211952 0.195767
v 0.355425 0.243050 0.190402
v 0.430018 0.222563 0.194224
v 0.428857 0.267216 0.197862
v 0.365367 0.267445 0.197498
v 0.371947 0.222279 0.193800
v 0.395131 0.014237 0.039760
v 0.390864 0.022883 0.063766
v 0.385301 0.037055 0.086575
v 0.379560 0.066584 0.113154
v 0.375441 0.096899 0.134128
v 0.368677 0.149467 0.168476
v 0.366051 0.178524 0.185795
v 0.377917 0.193080 0.192557
v 0.383659 0.217729 0.194667
v 0.373604 0.242954 0.190630
v 0.379890 0.270775 0.200471
v 0.370963 0.300985 0.212642
v 0.365735 0.311096 0.206217
v 0.366987 0.344234 0.198479
v 0.369041 0.375720 0.185795
v 0.371844 0.404777 0.168476
v 0.375328 0.430691 0.146949
v 0.379408 0.452824 0.121744
v 0.383983 0.470631 0.093482
v 0.388940 0.483672 0.062859
v 0.394157 0.491628 0.030629
v 0.403582 0.014237 0.039807
v 0.407557 0.022883 0.063860
v 0.412739 0.037055 0.086712
v 0.418089 0.066584 0.113350
v 0.421926 0.096899 0.134364
v 0.428228 0.149467 0.168804
v 0.430675 0.178524 0.186157
v 0.423551 0.193845 0.195634
v 0.414944 0.217483 0.194963
v 0.419642 0.242973 0.191382
v 0.414245 0.270944 0.200919
v 0.424875 0.297412 0.211611
v 0.430969 0.311096 0.206618
v 0.429802 0.344234 0.198865
v 0.427889 0.375720 0.186157
v 0.425277 0.404777 0.168804
v 0.422031 0.430691 0.147236
v 0.418230 0.452824 0.121983
v 0.413968 0.470631 0.093667
v 0.409349 0.483672 0.062985
v 0.404489 0.491628 0.030692
v 0.193649 0.261463 0.000000
v 0.203724 0.261463 0.065207
v 0.232964 0.261463 0.124032
v 0.278506 0.261463 0.170715
v 0.338421 0.266967 0.195084
v 0.360285 0.253026 0.188747
v 0.399506 0.261196 0.194132
v 0.435330 0.253507 0.191807
v 0.455722 0.266660 0.196875
v 0.520505 0.261463 0.170715
v 0.566047 0.261463 0.124032
v 0.595287 0.261463 0.065207
v 0.605362 0.261463 0.000000
v 0.610189 0.261666 -0.002415
v 0.599877 0.261666 0.064321
v 0.569952 0.261666 0.124525
v 0.523342 0.261666 0.172303
v 0.462568 0.258388 0.199027
v 0.434255 0.256246 0.195107
v 0.416700 0.258220 0.196580
v 0.397587 0.260368 0.198185
v 0.377030 0.258118 0.195994
v 0.360844 0.256347 0.194270
v 0.330451 0.258929 0.198217
v 0.275669 0.261666 0.172303
v 0.229059 0.261666 0.124525
v 0.199134 0.261666 0.064321
v 0.188822 0.261666 -0.002415
v 0.194362 0.224840 0.000000
v 0.204403 0.224840 0.063393
v 0.233541 0.224840 0.120580
v 0.278925 0.224840 0.165964
v 0.344689 0.220298 0.186887
v 0.361820 0.228262 0.183345
v 0.399506 0.223903 0.186381
v 0.438087 0.228855 0.186222
v 0.454556 0.220647 0.191113
v 0.520086 0.224840 0.165964
v 0.565470 0.224840 0.120580
v 0.594608 0.224840 0.063393
v 0.604649 0.224840 0.000000
v 0.609459 0.224184 -0.002415
v 0.599183 0.224184 0.062464
v 0.569361 0.224184 0.120992
v 0.522913 0.224184 0.167440
v 0.455642 0.219946 0.194329
v 0.434596 0.231348 0.193190
v 0.416953 0.228386 0.193431
v 0.397744 0.225160 0.193694
v 0.379358 0.228518 0.192940
v 0.364880 0.231163 0.192347
v 0.343707 0.219550 0.190043
v 0.276098 0.224184 0.167440
v 0.229650 0.224184 0.120992
v 0.199828 0.224184 0.062464
v 0.189552 0.224184 -0.002415
vt 0.825642 0.775652
vt 0.187840 0.027824
vt 0.192354 0.044805
vt 0.176338 0.034948
vt 0.199316 0.030254
vt 0.202156 0.045364
vt 0.203275 0.028229
vt 0.212161 0.042286
vt 0.206401 0.024833
vt 0.221259 0.035382
vt 0.207171 0.022926
vt 0.224246 0.030792
vt 0.208050 0.020429
vt 0.513420 0.034256
vt 0.495529 0.040863
vt 0.228058 0.024334
vt 0.514136 0.036410
vt 0.517091 0.040044
vt 0.507176 0.053644
vt 0.498475 0.046102
vt 0.520978 0.042376
vt 0.517033 0.057427
vt 0.525214 0.043234
vt 0.526933 0.057580
vt 0.536793 0.039767
vt 0.799891 0.654333
vt 0.184378 0.065520
vt 0.159984 0.051033
vt 0.200539 0.067124
vt 0.217574 0.063268
vt 0.234655 0.053576
vt 0.241534 0.046778
vt 0.476802 0.055587
vt 0.250862 0.037213
vt 0.500319 0.074329
vt 0.483839 0.063499
vt 0.517113 0.079340
vt 0.533377 0.078838
vt 0.786193 0.624154
vt 0.172411 0.094911
vt 0.138235 0.078087
vt 0.197472 0.098102
vt 0.223846 0.094583
vt 0.251181 0.083930
vt 0.262991 0.075999
vt 0.453000 0.083363
vt 0.278903 0.064885
vt 0.491958 0.105251
vt 0.465321 0.092828
vt 0.518064 0.110522
vt 0.543278 0.109051
vt 0.767012 0.590760
vt 0.163848 0.123651
vt 0.121490 0.106366
vt 0.195575 0.127527
vt 0.228801 0.124577
vt 0.263803 0.114447
vt 0.279510 0.106641
vt 0.434205 0.112974
vt 0.300588 0.096182
vt 0.485047 0.134888
vt 0.450756 0.122537
vt 0.517993 0.140015
vt 0.549858 0.138285
vt 0.749106 0.565873
vt 0.144172 0.172376
vt 0.099256 0.158861
vt 0.188251 0.177596
vt 0.232633 0.176627
vt 0.279392 0.169204
vt 0.300765 0.161927
vt 0.409022 0.166818
vt 0.329537 0.151506
vt 0.477872 0.186536
vt 0.431774 0.176174
vt 0.522010 0.190376
vt 0.566218 0.188057
vt 0.717510 0.527599
vt 0.140040 0.199124
vt 0.089110 0.187309
vt 0.188037 0.203661
vt 0.235477 0.203534
vt 0.285984 0.198829
vt 0.309809 0.193504
vt 0.397855 0.197768
vt 0.343482 0.184369
vt 0.473305 0.213153
vt 0.423430 0.205302
vt 0.520535 0.216348
vt 0.568596 0.214929
vt 0.702338 0.511220
vt 0.136330 0.226916
vt 0.081110 0.217960
vt 0.187053 0.229837
vt 0.236283 0.230265
vt 0.303017 0.218814
vt 0.325450 0.206299
vt 0.385433 0.212683
vt 0.349271 0.199507
vt 0.470748 0.239702
vt 0.405516 0.225821
vt 0.519828 0.242488
vt 0.570509 0.242822
vt 0.689817 0.495642
vt 0.135171 0.238839
vt 0.685978 0.966262
vt 0.186770 0.240806
vt 0.236373 0.241464
vt 0.294669 0.235181
vt 0.469944 0.250874
vt 0.411557 0.241866
vt 0.519407 0.253441
vt 0.570906 0.254761
vt 0.627574 0.250902
vt 0.680184 0.974117
vt 0.134024 0.254910
vt 0.082932 0.296484
vt 0.372084 0.969899
vt 0.186551 0.255309
vt 0.145892 0.289336
vt 0.236314 0.256142
vt 0.210485 0.285874
vt 0.284397 0.256541
vt 0.273674 0.285235
vt 0.419534 0.262730
vt 0.469061 0.265545
vt 0.486774 0.289311
vt 0.417328 0.284850
vt 0.518700 0.267920
vt 0.550767 0.293200
vt 0.571033 0.270829
vt 0.613255 0.297452
vt 0.629136 0.268531
vt 0.679258 0.308815
vt 0.366528 0.965191
vt 0.086090 0.311258
vt 0.093854 0.344984
vt 0.027935 0.359771
vt 0.149120 0.303878
vt 0.155844 0.336677
vt 0.212889 0.301192
vt 0.216795 0.334993
vt 0.288080 0.316146
vt 0.279041 0.339980
vt 0.315836 0.332640
vt 0.307452 0.344115
vt 0.347917 0.338563
vt 0.377307 0.329403
vt 0.386658 0.344217
vt 0.346704 0.349340
vt 0.400508 0.316149
vt 0.484301 0.306808
vt 0.480066 0.335237
vt 0.417620 0.339857
vt 0.547516 0.309890
vt 0.540718 0.337215
vt 0.610097 0.312127
vt 0.602335 0.345651
vt 0.676375 0.324515
vt 0.351466 0.509092
vt 0.099616 0.377008
vt 0.037193 0.394040
vt 0.157898 0.368205
vt 0.215080 0.367331
vt 0.273661 0.374410
vt 0.300661 0.380848
vt 0.393515 0.381315
vt 0.338429 0.389730
vt 0.481581 0.367522
vt 0.422957 0.374358
vt 0.538553 0.368611
vt 0.596547 0.377517
vt 0.335806 0.518637
vt 0.106277 0.408019
vt 0.049686 0.427263
vt 0.159583 0.398799
vt 0.211977 0.398710
vt 0.265464 0.407969
vt 0.289686 0.416559
vt 0.404679 0.417268
vt 0.323404 0.428896
vt 0.484547 0.398857
vt 0.431087 0.407946
vt 0.536784 0.399098
vt 0.589865 0.408395
vt 0.315632 0.529572
vt 0.113942 0.437834
vt 0.065157 0.458411
vt 0.160978 0.428478
vt 0.207439 0.429120
vt 0.254348 0.440132
vt 0.274789 0.450143
vt 0.419848 0.450979
vt 0.302888 0.464616
vt 0.488972 0.429224
vt 0.442124 0.440111
vt 0.535312 0.428691
vt 0.582182 0.438101
vt 0.293746 0.543959
vt 0.122608 0.466163
vt 0.083110 0.486612
vt 0.162151 0.457146
vt 0.201518 0.458388
vt 0.240487 0.470281
vt 0.256539 0.480657
vt 0.438410 0.481512
vt 0.278201 0.495584
vt 0.494809 0.458452
vt 0.455887 0.470245
vt 0.534079 0.457290
vt 0.573502 0.466343
vt 0.271953 0.562251
vt 0.132106 0.492591
vt 0.102717 0.511100
vt 0.163116 0.484544
vt 0.194310 0.486169
vt 0.224336 0.497727
vt 0.235804 0.507288
vt 0.459471 0.508054
vt 0.250884 0.520903
vt 0.501926 0.486198
vt 0.471945 0.497674
vt 0.533057 0.484632
vt 0.563999 0.492705
vt 0.251694 0.584433
vt 0.142114 0.516541
vt 0.122873 0.531204
vt 0.163890 0.510180
vt 0.186078 0.511874
vt 0.206649 0.521694
vt 0.213784 0.529323
vt 0.481780 0.529917
vt 0.222821 0.540052
vt 0.510085 0.511879
vt 0.489532 0.521630
vt 0.532237 0.510230
vt 0.553986 0.516613
vt 0.234058 0.610206
vt 0.151979 0.537142
vt 0.141945 0.546328
vt 0.164418 0.533142
vt 0.177281 0.534536
vt 0.188638 0.541244
vt 0.192105 0.546100
vt 0.503681 0.546471
vt 0.196261 0.552809
vt 0.518802 0.534535
vt 0.507445 0.541203
vt 0.531661 0.533174
vt 0.544104 0.537191
vt 0.219957 0.639079
vt 0.160316 0.553086
vt 0.157292 0.556158
vt 0.164524 0.551778
vt 0.168920 0.552527
vt 0.172514 0.555254
vt 0.173409 0.557072
vt 0.522528 0.557243
vt 0.174355 0.559463
vt 0.527110 0.552554
vt 0.523505 0.555266
vt 0.531516 0.551815
vt 0.535741 0.553131
vt 0.210215 0.670263
vt 0.809735 0.704380
vt 0.532875 0.564732
vt 0.819512 0.774690
vt 0.810713 0.799186
vt 0.784755 0.786173
vt 0.812353 0.771481
vt 0.775269 0.776712
vt 0.792481 0.762789
vt 0.768755 0.765473
vt 0.788614 0.756909
vt 0.765422 0.753182
vt 0.786553 0.750262
vt 0.765356 0.740606
vt 0.765790 0.708927
vt 0.746127 0.697568
vt 0.766438 0.702112
vt 0.750240 0.685945
vt 0.768932 0.695718
vt 0.757314 0.675515
vt 0.773116 0.690216
vt 0.767105 0.666953
vt 0.778751 0.686036
vt 0.794126 0.655520
vt 0.801221 0.679870
vt 0.796780 0.829658
vt 0.767520 0.809766
vt 0.755687 0.794762
vt 0.747687 0.777192
vt 0.743722 0.757811
vt 0.744017 0.737569
vt 0.725681 0.691477
vt 0.730826 0.673201
vt 0.739664 0.656853
vt 0.751961 0.643148
vt 0.781034 0.625688
vt 0.775113 0.862967
vt 0.744604 0.837073
vt 0.728978 0.815577
vt 0.717885 0.790621
vt 0.712126 0.762921
vt 0.712363 0.733824
vt 0.695976 0.684455
vt 0.703209 0.658427
vt 0.715373 0.635284
vt 0.731605 0.615724
vt 0.762765 0.592377
vt 0.755055 0.887758
vt 0.722629 0.858254
vt 0.703796 0.832392
vt 0.689684 0.801842
vt 0.681992 0.767279
vt 0.682041 0.730564
vt 0.667610 0.678461
vt 0.676998 0.645968
vt 0.692385 0.617656
vt 0.712013 0.594189
vt 0.745413 0.567778
vt 0.720753 0.925584
vt 0.691816 0.897449
vt 0.664122 0.864473
vt 0.641122 0.823769
vt 0.627751 0.776270
vt 0.626816 0.726161
vt 0.616374 0.666948
vt 0.631832 0.622076
vt 0.656530 0.584384
vt 0.685320 0.554786
vt 0.714640 0.530233
vt 0.704184 0.942283
vt 0.674755 0.914340
vt 0.641844 0.880097
vt 0.613086 0.835048
vt 0.596318 0.780527
vt 0.594895 0.723705
vt 0.586374 0.661441
vt 0.605446 0.609561
vt 0.636183 0.567798
vt 0.670369 0.537363
vt 0.700171 0.513561
vt 0.689745 0.958099
vt 0.659703 0.932888
vt 0.619928 0.898962
vt 0.583560 0.849390
vt 0.570339 0.769002
vt 0.577488 0.722348
vt 0.559034 0.670829
vt 0.577614 0.593926
vt 0.616332 0.547935
vt 0.657619 0.518255
vt 0.688145 0.497748
vt 0.684723 0.964306
vt 0.654304 0.941226
vt 0.610635 0.908001
vt 0.570258 0.856230
vt 0.553413 0.782860
vt 0.554269 0.759655
vt 0.541421 0.763910
vt 0.547444 0.722544
vt 0.552444 0.716309
vt 0.530197 0.676469
vt 0.542238 0.677515
vt 0.543122 0.658206
vt 0.565007 0.586507
vt 0.607958 0.538431
vt 0.653254 0.509647
vt 0.684215 0.491480
vt 0.680053 0.972783
vt 0.372851 0.967957
vt 0.397446 0.943450
vt 0.648222 0.952951
vt 0.436423 0.907868
vt 0.598179 0.921282
vt 0.472713 0.853910
vt 0.551883 0.866553
vt 0.486178 0.786107
vt 0.529813 0.803818
vt 0.522824 0.769735
vt 0.507535 0.763631
vt 0.496493 0.722050
vt 0.526653 0.728885
vt 0.508792 0.684154
vt 0.521582 0.680516
vt 0.520790 0.638512
vt 0.489376 0.663189
vt 0.472438 0.593419
vt 0.547567 0.575368
vt 0.433766 0.543629
vt 0.596787 0.524482
vt 0.393239 0.513156
vt 0.648621 0.497533
vt 0.368352 0.494128
vt 0.681036 0.482882
vt 0.367633 0.962859
vt 0.353260 0.951010
vt 0.376367 0.918217
vt 0.391952 0.935337
vt 0.405839 0.878843
vt 0.427270 0.898100
vt 0.430908 0.830608
vt 0.459300 0.845845
vt 0.444166 0.776415
vt 0.466886 0.775021
vt 0.444167 0.721678
vt 0.459897 0.719680
vt 0.448276 0.668773
vt 0.471605 0.676065
vt 0.433512 0.617714
vt 0.459924 0.601771
vt 0.406826 0.573511
vt 0.425773 0.553688
vt 0.376181 0.538790
vt 0.389012 0.521401
vt 0.352778 0.511089
vt 0.364372 0.499252
vt 0.335354 0.940947
vt 0.357719 0.904686
vt 0.382987 0.865698
vt 0.403725 0.821399
vt 0.414776 0.773156
vt 0.414570 0.723666
vt 0.420883 0.672650
vt 0.408335 0.627860
vt 0.386197 0.587395
vt 0.359985 0.552702
vt 0.337464 0.521163
vt 0.313565 0.929295
vt 0.337383 0.891770
vt 0.360249 0.854139
vt 0.378027 0.813614
vt 0.387378 0.770569
vt 0.386876 0.726423
vt 0.395607 0.676184
vt 0.384672 0.636569
vt 0.365614 0.599643
vt 0.341973 0.565928
vt 0.318169 0.532633
vt 0.290261 0.914445
vt 0.315910 0.878487
vt 0.337406 0.843336
vt 0.353130 0.806717
vt 0.361179 0.768571
vt 0.360459 0.729743
vt 0.371545 0.679433
vt 0.361805 0.644460
vt 0.344863 0.611124
vt 0.322707 0.579467
vt 0.297146 0.547179
vt 0.267173 0.895918
vt 0.293825 0.864073
vt 0.314304 0.832611
vt 0.328476 0.800271
vt 0.335519 0.767017
vt 0.334737 0.733492
vt 0.347949 0.682532
vt 0.339152 0.652021
vt 0.323804 0.622556
vt 0.302742 0.594120
vt 0.276161 0.565375
vt 0.245593 0.873708
vt 0.271627 0.847918
vt 0.290805 0.821345
vt 0.303594 0.793856
vt 0.309807 0.765720
vt 0.309126 0.737577
vt 0.324146 0.685654
vt 0.316230 0.659710
vt 0.302333 0.634601
vt 0.282608 0.610530
vt 0.256618 0.587268
vt 0.226612 0.848086
vt 0.249816 0.829520
vt 0.266839 0.808914
vt 0.278044 0.787006
vt 0.283465 0.764444
vt 0.283013 0.741968
vt 0.299475 0.689008
vt 0.292557 0.668018
vt 0.280358 0.647917
vt 0.262817 0.629238
vt 0.239590 0.612605
vt 0.211076 0.819576
vt 0.228933 0.808453
vt 0.242414 0.794633
vt 0.251395 0.779168
vt 0.255814 0.762904
vt 0.255658 0.746631
vt 0.273223 0.692845
vt 0.267637 0.677518
vt 0.257846 0.663230
vt 0.243931 0.650715
vt 0.225972 0.640918
vt 0.199664 0.788958
vt 0.209661 0.784418
vt 0.217629 0.777745
vt 0.223155 0.769625
vt 0.225998 0.760721
vt 0.226062 0.751670
vt 0.244422 0.697484
vt 0.240928 0.688940
vt 0.234915 0.681351
vt 0.226654 0.675316
vt 0.216558 0.671452
vt 0.803439 0.704380
vt 0.193077 0.757775
vt 0.480217 0.720510
vt 0.496800 0.760299
vt 0.498733 0.686873
vt 0.322091 0.237716
vt 0.314853 0.246465
vt 0.311575 0.292868
vt 0.327004 0.297785
vt 0.372087 0.236398
vt 0.354124 0.227676
vt 0.385990 0.280889
vt 0.392451 0.266057
vt 0.352392 0.270748
vt 0.376604 0.264454
vt 0.367173 0.283634
vt 0.346377 0.286546
vt 0.373576 0.248628
vt 0.350293 0.242241
vt 0.329639 0.244557
vt 0.334432 0.232649
vt 0.322419 0.259466
vt 0.324089 0.283226
vt 0.306829 0.280625
vt 0.305151 0.257142
vt 0.387264 0.242996
vt 0.391458 0.251835
vt 0.347165 0.304170
vt 0.364667 0.298334
vt 0.380345 0.292978
vt 0.685528 0.489959
vt 0.371706 0.486893
vt 0.367538 0.492616
vt 0.363214 0.497347
vt 0.538783 0.556213
vt 0.807319 0.679306
vt 0.554154 0.546385
vt 0.573219 0.531266
vt 0.593339 0.511190
vt 0.612894 0.486759
vt 0.630795 0.458646
vt 0.646217 0.427614
vt 0.658674 0.394533
vt 0.667903 0.360426
vt 0.625984 0.237408
vt 0.619974 0.206430
vt 0.611721 0.177541
vt 0.594034 0.123643
vt 0.579358 0.094270
vt 0.558552 0.066118
vt 0.544152 0.048697
vt 0.078659 0.231377
vt 0.013666 0.289253
vt 0.016519 0.307871
vt 0.019421 0.323664
vt 0.186591 0.758562
vt 0.193310 0.790522
vt 0.187205 0.017807
vt 0.184676 0.026851
vt 0.205017 0.821782
vt 0.220997 0.850837
vt 0.240563 0.876895
vt 0.262852 0.899393
vt 0.286738 0.918026
vt 0.310907 0.932743
vt 0.333602 0.943888
vt 0.351930 0.953426
vt 0.691373 0.960615
vt 0.706350 0.944994
vt 0.723580 0.928539
vt 0.758795 0.889998
vt 0.779509 0.864955
vt 0.802060 0.831467
vt 0.816527 0.800641
vt 0.521658 0.559471
vt 0.163188 0.564659
vt 0.534006 0.030406
vt 0.512733 0.031848
vt 0.499821 0.552716
vt 0.473378 0.539905
vt 0.445428 0.520750
vt 0.418207 0.495446
vt 0.393608 0.464504
vt 0.373141 0.428805
vt 0.358129 0.389632
vt 0.349783 0.349207
vt 0.366779 0.187581
vt 0.382781 0.155458
vt 0.415141 0.102013
vt 0.438780 0.072021
vt 0.468637 0.046068
vt 0.492348 0.034567
vt 0.271835 0.268138
vt 0.348485 0.338492
vt 0.423426 0.268642
vt 0.360504 0.202685
vt 0.616764 0.279811
vt 0.682092 0.290314
vt 0.554800 0.275861
vt 0.490273 0.270816
vt 0.207025 0.267249
vt 0.141868 0.271844
vt 0.079417 0.278717
vt 0.075976 0.248938
vt 0.301369 0.265579
vt 0.397410 0.262980
vt 0.352010 0.245002
vt 0.351296 0.225092
vt 0.535741 0.553131
vt 0.532875 0.564732
vt 0.532875 0.564732
vt 0.532875 0.564732
vt 0.532875 0.564732
vt 0.531516 0.551815
vt 0.527110 0.552554
vt 0.523505 0.555266
vt 0.172514 0.555254
vt 0.163188 0.564659
vt 0.163188 0.564659
vt 0.163188 0.564659
vt 0.163188 0.564659
vt 0.168920 0.552527
vt 0.164524 0.551778
vt 0.160316 0.553086
vt 0.187205 0.017807
vt 0.187205 0.017807
vt 0.187205 0.017807
vt 0.187205 0.017807
vt 0.206401 0.024833
vt 0.203275 0.028229
vt 0.199316 0.030254
vt 0.187840 0.027824
vt 0.534006 0.030406
vt 0.534006 0.030406
vt 0.534006 0.030406
vt 0.534006 0.030406
vt 0.525214 0.043234
vt 0.520978 0.042376
vt 0.517091 0.040044
vt 0.514136 0.036410
vt 0.478453 0.721264
vt 0.371350 0.487710
vt 0.681242 0.482026
vt 0.377359 0.974370
vt 0.377715 0.975669
vt 0.456310 0.721256
vt 0.512697 0.644365
vt 0.511829 0.802333
vt 0.562694 0.722867
vt 0.566584 0.716097
vt 0.245254 0.706409
vt 0.786420 0.743335
vt 0.274548 0.708550
vt 0.301087 0.710304
vt 0.325898 0.711884
vt 0.349706 0.713387
vt 0.373204 0.714908
vt 0.397061 0.716453
vt 0.422034 0.717952
vt 0.448940 0.719175
vt 0.582993 0.715532
vt 0.613099 0.714485
vt 0.665589 0.713233
vt 0.694370 0.712020
vt 0.724478 0.710758
vt 0.745053 0.709682
vt 0.396914 0.502706
vt 0.442999 0.530249
vt 0.487901 0.581999
vt 0.489327 0.864964
vt 0.447123 0.920838
vt 0.402711 0.953729
vt 0.211900 0.702766
vt 0.205360 0.702344
vt 0.823954 0.750335
vt 0.830233 0.750743
vn -0.296851 -0.954489 0.028806
vn -0.261261 -0.964457 0.039558
vn -0.371160 -0.924376 0.088149
vn -0.385829 -0.921901 0.035124
vn -0.236547 -0.964851 0.114491
vn -0.322141 -0.918763 0.228254
vn -0.151336 -0.966069 0.209305
vn -0.242294 -0.901428 0.358778
vn -0.084614 -0.971804 0.220084
vn -0.154965 -0.893772 0.420901
vn -0.031347 -0.979718 0.197914
vn -0.067990 -0.889719 0.451418
vn -0.001031 -0.976440 0.215785
vn 0.031335 -0.979733 0.197839
vn 0.067962 -0.889828 0.451207
vn -0.002448 -0.887814 0.460196
vn 0.084090 -0.971432 0.221923
vn 0.151336 -0.966069 0.209305
vn 0.242295 -0.901428 0.358778
vn 0.152687 -0.893645 0.422001
vn 0.213564 -0.964349 0.156274
vn 0.323040 -0.912186 0.252115
vn 0.277972 -0.959262 0.050479
vn 0.376095 -0.922656 0.085190
vn 0.274417 -0.961459 0.017066
vn 0.382487 -0.923436 0.031128
vn -0.573053 -0.804663 0.155331
vn -0.584512 -0.809082 0.061092
vn -0.487395 -0.779009 0.394451
vn -0.356539 -0.759033 0.544747
vn -0.223390 -0.746670 0.626563
vn -0.096090 -0.738353 0.667534
vn 0.096049 -0.738642 0.667220
vn -0.003443 -0.736381 0.676559
vn 0.356540 -0.759032 0.544747
vn 0.220167 -0.746373 0.628056
vn 0.487394 -0.779009 0.394452
vn 0.573202 -0.804748 0.154340
vn 0.584174 -0.809378 0.060400
vn -0.712915 -0.672464 0.198856
vn -0.735020 -0.672694 0.085016
vn -0.591931 -0.652334 0.473368
vn -0.423777 -0.638010 0.642928
vn -0.261532 -0.629083 0.732021
vn -0.110918 -0.622868 0.774424
vn 0.110906 -0.622974 0.774340
vn -0.003960 -0.624120 0.781318
vn 0.423777 -0.638011 0.642927
vn 0.257722 -0.629005 0.733438
vn 0.591930 -0.652334 0.473370
vn 0.713824 -0.672044 0.197008
vn 0.736460 -0.671272 0.083793
vn -0.772081 -0.586363 0.245089
vn -0.796384 -0.595205 0.107260
vn -0.648882 -0.565323 0.509276
vn -0.463521 -0.562398 0.684732
vn -0.286044 -0.562435 0.775787
vn -0.121543 -0.561186 0.818717
vn 0.121538 -0.561197 0.818710
vn -0.004334 -0.565947 0.824430
vn 0.463521 -0.562399 0.684730
vn 0.281793 -0.562590 0.777229
vn 0.648883 -0.565323 0.509275
vn 0.772294 -0.586866 0.243207
vn 0.796090 -0.595884 0.105656
vn -0.807033 -0.536436 0.246847
vn -0.831213 -0.542041 0.123600
vn -0.685654 -0.523223 0.506079
vn -0.491149 -0.530275 0.691073
vn -0.302468 -0.536724 0.787681
vn -0.127535 -0.539766 0.832099
vn 0.127531 -0.539782 0.832089
vn -0.004552 -0.544424 0.838798
vn 0.491150 -0.530275 0.691072
vn 0.298090 -0.536992 0.789165
vn 0.685654 -0.523223 0.506079
vn 0.806941 -0.537020 0.245878
vn 0.830559 -0.543252 0.122674
vn -0.861305 -0.422811 0.281754
vn -0.898198 -0.415783 0.142704
vn -0.728761 -0.429844 0.533049
vn -0.521975 -0.421345 0.741627
vn -0.343631 -0.406862 0.846393
vn -0.134099 -0.466110 0.874505
vn 0.130307 -0.505732 0.852792
vn -0.009695 -0.491084 0.871058
vn 0.524896 -0.434661 0.731816
vn 0.348381 -0.442725 0.826211
vn 0.728761 -0.429845 0.533049
vn 0.861304 -0.422813 0.281755
vn 0.898198 -0.415784 0.142705
vn -0.895895 -0.335614 0.291094
vn -0.931687 -0.331940 0.147565
vn -0.762094 -0.335614 0.553693
vn -0.529603 -0.283629 0.799422
vn -0.321552 -0.275080 0.906055
vn -0.154806 -0.365697 0.917770
vn 0.126505 -0.481004 0.867543
vn -0.016608 -0.420735 0.907032
vn 0.543054 -0.302708 0.783237
vn 0.348092 -0.336172 0.875112
vn 0.762093 -0.335617 0.553693
vn 0.895895 -0.335614 0.291094
vn 0.931687 -0.331939 0.147567
vn -0.924779 -0.233446 0.300479
vn -0.961039 -0.230726 0.152214
vn -0.786664 -0.233444 0.571545
vn -0.509107 -0.216683 0.832982
vn -0.340120 -0.163719 0.926021
vn 0.530189 -0.198354 0.824352
vn 0.384968 -0.148308 0.910936
vn 0.786663 -0.233450 0.571543
vn 0.924779 -0.233447 0.300478
vn 0.961039 -0.230725 0.152215
vn -0.987623 -0.020761 0.155469
vn -0.952352 -0.032933 0.303217
vn -0.938723 0.171422 0.299022
vn -0.969559 0.193415 0.150152
vn -0.812927 -0.064937 0.578734
vn -0.809927 0.106274 0.576823
vn -0.551772 -0.147849 0.820785
vn -0.574153 -0.033533 0.818061
vn -0.352939 -0.217078 0.910116
vn -0.430883 -0.115839 0.894942
vn 0.375561 -0.150718 0.914461
vn 0.558573 -0.117177 0.821137
vn 0.557905 -0.012012 0.829818
vn 0.408987 -0.074269 0.909513
vn 0.812928 -0.064939 0.578732
vn 0.809928 0.106276 0.576821
vn 0.952353 -0.032934 0.303215
vn 0.938723 0.171425 0.299019
vn 0.987623 -0.020761 0.155469
vn 0.969559 0.193418 0.150152
vn -0.947717 0.285953 0.141644
vn -0.921821 0.267793 0.280238
vn -0.922321 0.265955 0.280342
vn -0.951600 0.274093 0.139031
vn -0.808787 0.209441 0.549544
vn -0.803382 0.236909 0.546307
vn -0.604955 0.106846 0.789058
vn -0.606270 0.211057 0.766741
vn -0.445443 0.125649 0.886450
vn -0.417026 0.215946 0.882868
vn -0.179406 0.375616 0.909245
vn -0.176000 0.269465 0.946791
vn 0.032623 0.366399 0.929886
vn 0.181671 0.260180 0.948316
vn 0.171700 0.236255 0.956401
vn 0.002018 0.266710 0.963775
vn 0.400709 0.079078 0.912786
vn 0.584969 0.093427 0.805657
vn 0.598893 0.192131 0.777440
vn 0.408625 0.173449 0.896070
vn 0.808788 0.209443 0.549542
vn 0.803382 0.236911 0.546306
vn 0.921821 0.267795 0.280236
vn 0.922322 0.265954 0.280340
vn 0.947717 0.285954 0.141644
vn 0.951601 0.274091 0.139030
vn -0.919851 0.282216 0.272447
vn -0.950892 0.277481 0.137148
vn -0.798425 0.287908 0.528797
vn -0.595444 0.295431 0.747106
vn -0.378797 0.300069 0.875484
vn -0.163301 0.302999 0.938895
vn 0.163301 0.302993 0.938897
vn -0.005859 0.304560 0.952475
vn 0.595443 0.295432 0.747106
vn 0.373453 0.300293 0.877700
vn 0.798425 0.287909 0.528796
vn 0.919852 0.282216 0.272446
vn 0.950892 0.277480 0.137147
vn -0.870906 0.418377 0.257846
vn -0.901820 0.412071 0.130070
vn -0.754424 0.425908 0.499447
vn -0.561116 0.435792 0.703728
vn -0.356336 0.441819 0.823299
vn -0.153381 0.445865 0.881861
vn 0.153381 0.445855 0.881866
vn -0.005500 0.447680 0.894177
vn 0.561116 0.435791 0.703729
vn 0.351284 0.442112 0.825310
vn 0.754425 0.425906 0.499447
vn 0.870906 0.418376 0.257845
vn 0.901819 0.412072 0.130071
vn -0.802083 0.548032 0.237325
vn -0.832403 0.541010 0.120058
vn -0.693004 0.556348 0.458499
vn -0.513661 0.567167 0.643796
vn -0.325481 0.573664 0.751646
vn -0.139780 0.578436 0.803663
vn 0.139781 0.578426 0.803669
vn -0.005010 0.580033 0.814577
vn 0.513661 0.567168 0.643796
vn 0.320837 0.573987 0.753395
vn 0.693005 0.556349 0.458498
vn 0.802083 0.548033 0.237323
vn 0.832402 0.541011 0.120058
vn -0.713502 0.668150 0.210930
vn -0.742387 0.661360 0.107076
vn -0.614653 0.676109 0.406298
vn -0.453826 0.686362 0.568286
vn -0.286869 0.692399 0.662035
vn -0.122803 0.697430 0.706053
vn 0.122805 0.697419 0.706064
vn -0.004403 0.698405 0.715689
vn 0.453825 0.686364 0.568284
vn 0.282746 0.692706 0.663486
vn 0.614650 0.676112 0.406297
vn 0.713501 0.668151 0.210928
vn 0.742386 0.661361 0.107073
vn -0.605950 0.775124 0.178908
vn -0.632186 0.769433 0.091182
vn -0.520445 0.781719 0.343587
vn -0.382787 0.790130 0.478717
vn -0.241397 0.794954 0.556575
vn -0.102872 0.799744 0.591462
vn 0.102875 0.799733 0.591475
vn -0.003691 0.799889 0.600137
vn 0.382787 0.790129 0.478717
vn 0.237903 0.795210 0.557713
vn 0.520445 0.781719 0.343588
vn 0.605951 0.775123 0.178908
vn 0.632187 0.769432 0.091180
vn -0.481461 0.864907 0.141885
vn -0.503566 0.860899 0.072631
vn -0.412449 0.869496 0.271778
vn -0.302349 0.875298 0.377412
vn -0.190307 0.878508 0.438187
vn -0.080567 0.882572 0.463224
vn 0.080570 0.882563 0.463239
vn -0.002900 0.881960 0.471316
vn 0.302348 0.875297 0.377412
vn 0.187534 0.878692 0.439013
vn 0.412450 0.869495 0.271779
vn 0.481463 0.864906 0.141883
vn 0.503566 0.860899 0.072630
vn -0.344538 0.933300 0.101216
vn -0.361044 0.931094 0.052073
vn -0.294664 0.935792 0.193564
vn -0.215552 0.938927 0.268243
vn -0.135534 0.940569 0.311385
vn -0.056787 0.943490 0.326500
vn 0.056791 0.943483 0.326520
vn -0.002055 0.942504 0.334187
vn 0.215551 0.938927 0.268243
vn 0.133550 0.940675 0.311920
vn 0.294664 0.935792 0.193564
vn 0.344539 0.933300 0.101214
vn 0.361045 0.931094 0.052073
vn -0.208331 0.976165 0.060827
vn -0.218498 0.975328 0.031514
vn -0.178174 0.977098 0.116335
vn -0.130329 0.978274 0.161226
vn -0.076575 0.980879 0.178921
vn -0.029836 0.984725 0.171542
vn 0.029838 0.984722 0.171555
vn -0.000959 0.983254 0.182238
vn 0.130328 0.978274 0.161227
vn 0.075922 0.980747 0.179921
vn 0.178174 0.977098 0.116336
vn 0.208332 0.976165 0.060827
vn 0.218498 0.975328 0.031514
vn 0.008602 -0.999619 0.026221
vn 0.000000 0.998782 0.049333
vn 0.296853 0.954489 -0.028806
vn 0.385831 0.921901 -0.035124
vn 0.371162 0.924375 -0.088149
vn 0.261263 0.964457 -0.039558
vn 0.322142 0.918762 -0.228255
vn 0.236549 0.964850 -0.114492
vn 0.242295 0.901427 -0.358780
vn 0.151337 0.966068 -0.209307
vn 0.130522 0.891982 -0.432819
vn 0.078333 0.967100 -0.242035
vn -0.000000 0.888210 -0.459437
vn -0.000000 0.967444 -0.253087
vn -0.130522 0.891982 -0.432819
vn -0.078333 0.967100 -0.242036
vn -0.242296 0.901427 -0.358780
vn -0.151338 0.966068 -0.209307
vn -0.323041 0.912185 -0.252116
vn -0.213566 0.964348 -0.156276
vn -0.376097 0.922656 -0.085191
vn -0.277973 0.959261 -0.050480
vn -0.382489 0.923436 -0.031129
vn -0.274419 0.961459 -0.017066
vn 0.584511 0.809082 -0.061091
vn 0.573053 0.804663 -0.155331
vn 0.487394 0.779010 -0.394451
vn 0.356539 0.759033 -0.544747
vn 0.188352 0.742889 -0.642370
vn -0.000000 0.736633 -0.676293
vn -0.188353 0.742889 -0.642370
vn -0.356540 0.759033 -0.544746
vn -0.487394 0.779009 -0.394452
vn -0.573201 0.804748 -0.154340
vn -0.584174 0.809378 -0.060400
vn 0.735021 0.672694 -0.085015
vn 0.712916 0.672464 -0.198856
vn 0.591931 0.652334 -0.473368
vn 0.423776 0.638010 -0.642928
vn 0.219988 0.627721 -0.746707
vn -0.000000 0.624015 -0.781412
vn -0.219988 0.627721 -0.746707
vn -0.423777 0.638011 -0.642927
vn -0.591930 0.652334 -0.473370
vn -0.713824 0.672044 -0.197008
vn -0.736459 0.671272 -0.083794
vn 0.796384 0.595204 -0.107260
vn 0.772081 0.586363 -0.245089
vn 0.648882 0.565323 -0.509276
vn 0.463521 0.562398 -0.684731
vn 0.239863 0.563837 -0.790287
vn 0.000000 0.564912 -0.825151
vn -0.239862 0.563837 -0.790287
vn -0.463521 0.562400 -0.684730
vn -0.648883 0.565323 -0.509275
vn -0.772294 0.586867 -0.243207
vn -0.796090 0.595884 -0.105656
vn 0.831212 0.542042 -0.123600
vn 0.807033 0.536437 -0.246847
vn 0.685654 0.523224 -0.506079
vn 0.491149 0.530275 -0.691073
vn 0.254492 0.539384 -0.802682
vn 0.000000 0.543279 -0.839553
vn -0.254492 0.539384 -0.802683
vn -0.491151 0.530275 -0.691072
vn -0.685655 0.523223 -0.506079
vn -0.806941 0.537020 -0.245878
vn -0.830559 0.543252 -0.122674
vn 0.898198 0.415784 -0.142703
vn 0.861304 0.422812 -0.281753
vn 0.728760 0.429845 -0.533049
vn 0.518889 0.407226 -0.751612
vn 0.298640 0.390035 -0.871026
vn 0.006812 0.445008 -0.895501
vn -0.303085 0.428839 -0.851021
vn -0.522778 0.424483 -0.739268
vn -0.728761 0.429845 -0.533049
vn -0.861304 0.422811 -0.281755
vn -0.898198 0.415782 -0.142705
vn 0.931687 0.331939 -0.147564
vn 0.895895 0.335613 -0.291094
vn 0.762094 0.335613 -0.553694
vn 0.517294 0.285997 -0.806606
vn 0.281603 0.241349 -0.928682
vn 0.014838 0.322694 -0.946387
vn -0.290592 0.318149 -0.902407
vn -0.534142 0.302575 -0.789392
vn -0.762093 0.335617 -0.553693
vn -0.895894 0.335615 -0.291094
vn -0.931687 0.331939 -0.147567
vn 0.961040 0.230725 -0.152213
vn 0.924779 0.233444 -0.300479
vn 0.786664 0.233443 -0.571545
vn 0.497340 0.221862 -0.838707
vn 0.309948 0.204268 -0.928551
vn 0.097509 -0.009024 -0.995194
vn 0.068539 -0.012610 -0.997569
vn 0.036099 0.040150 -0.998541
vn 0.010057 0.042888 -0.999029
vn 0.007172 0.091584 -0.995772
vn -0.071240 0.090694 -0.993328
vn -0.362946 0.179808 -0.914297
vn -0.521544 0.206845 -0.827772
vn -0.786664 0.233449 -0.571543
vn -0.924779 0.233447 -0.300478
vn -0.961039 0.230726 -0.152215
vn 0.987623 0.020762 -0.155468
vn 0.969559 -0.193416 -0.150151
vn 0.938723 -0.171423 -0.299021
vn 0.952352 0.032934 -0.303217
vn 0.809927 -0.106274 -0.576823
vn 0.812927 0.064938 -0.578734
vn 0.538926 0.035907 -0.841587
vn 0.528809 0.126755 -0.839222
vn 0.367780 0.119586 -0.922192
vn 0.318572 0.168140 -0.932867
vn 0.045868 0.212353 -0.976116
vn 0.030145 0.448253 -0.893398
vn 0.022748 0.400017 -0.916225
vn 0.055248 0.210241 -0.976087
vn 0.038593 0.345800 -0.937514
vn 0.065077 0.201448 -0.977335
vn -0.352620 0.124587 -0.927436
vn -0.371086 0.066780 -0.926194
vn -0.536888 0.008404 -0.843611
vn -0.540392 0.105506 -0.834773
vn -0.809928 -0.106275 -0.576821
vn -0.812928 0.064939 -0.578732
vn -0.938723 -0.171425 -0.299019
vn -0.952353 0.032933 -0.303216
vn -0.969558 -0.193419 -0.150153
vn -0.987622 0.020760 -0.155470
vn 0.947718 -0.285952 -0.141643
vn 0.951601 -0.274093 -0.139031
vn 0.922321 -0.265955 -0.280342
vn 0.921821 -0.267792 -0.280238
vn 0.803382 -0.236909 -0.546307
vn 0.808787 -0.209441 -0.549544
vn 0.601291 -0.191643 -0.775708
vn 0.593408 -0.092407 -0.799580
vn 0.346810 -0.165583 -0.923204
vn 0.360542 -0.037456 -0.931991
vn 0.000396 -0.165677 -0.986180
vn -0.000629 -0.038577 -0.999255
vn -0.353175 -0.146800 -0.923968
vn -0.336183 -0.019694 -0.941591
vn -0.595383 -0.178165 -0.783439
vn -0.581206 -0.089176 -0.808856
vn -0.803383 -0.236910 -0.546306
vn -0.808788 -0.209442 -0.549542
vn -0.922322 -0.265953 -0.280340
vn -0.921821 -0.267794 -0.280236
vn -0.951602 -0.274089 -0.139030
vn -0.947717 -0.285953 -0.141644
vn 0.950892 -0.277481 -0.137147
vn 0.919851 -0.282217 -0.272447
vn 0.798425 -0.287909 -0.528797
vn 0.595444 -0.295432 -0.747105
vn 0.320065 -0.301959 -0.897986
vn 0.000000 -0.304566 -0.952491
vn -0.320064 -0.301959 -0.897987
vn -0.595443 -0.295432 -0.747106
vn -0.798425 -0.287909 -0.528797
vn -0.919852 -0.282216 -0.272446
vn -0.950892 -0.277481 -0.137147
vn 0.901820 -0.412071 -0.130070
vn 0.870906 -0.418376 -0.257846
vn 0.754424 -0.425908 -0.499447
vn 0.561116 -0.435792 -0.703728
vn 0.300899 -0.444304 -0.843833
vn -0.000000 -0.447686 -0.894191
vn -0.300898 -0.444303 -0.843834
vn -0.561116 -0.435791 -0.703729
vn -0.754425 -0.425907 -0.499446
vn -0.870906 -0.418377 -0.257845
vn -0.901819 -0.412073 -0.130071
vn 0.832402 -0.541011 -0.120058
vn 0.802083 -0.548033 -0.237326
vn 0.693004 -0.556349 -0.458499
vn 0.513661 -0.567167 -0.643796
vn 0.274626 -0.576395 -0.769643
vn -0.000001 -0.580040 -0.814588
vn -0.274626 -0.576396 -0.769642
vn -0.513661 -0.567168 -0.643796
vn -0.693004 -0.556350 -0.458498
vn -0.802083 -0.548033 -0.237323
vn -0.832402 -0.541011 -0.120058
vn 0.742386 -0.661361 -0.107076
vn 0.713501 -0.668150 -0.210930
vn 0.614652 -0.676110 -0.406297
vn 0.453826 -0.686363 -0.568285
vn 0.241829 -0.695017 -0.677105
vn 0.000001 -0.698412 -0.715696
vn -0.241829 -0.695017 -0.677104
vn -0.453825 -0.686365 -0.568284
vn -0.614651 -0.676112 -0.406297
vn -0.713501 -0.668151 -0.210928
vn -0.742386 -0.661361 -0.107072
vn 0.632185 -0.769433 -0.091182
vn 0.605950 -0.775124 -0.178909
vn 0.520445 -0.781719 -0.343587
vn 0.382787 -0.790130 -0.478716
vn 0.203306 -0.797156 -0.568515
vn -0.000001 -0.799894 -0.600141
vn -0.203307 -0.797155 -0.568515
vn -0.382787 -0.790129 -0.478717
vn -0.520445 -0.781719 -0.343588
vn -0.605950 -0.775124 -0.178908
vn -0.632187 -0.769433 -0.091179
vn 0.503565 -0.860899 -0.072631
vn 0.481461 -0.864907 -0.141884
vn 0.412448 -0.869496 -0.271778
vn 0.302348 -0.875298 -0.377411
vn 0.160137 -0.880102 -0.446963
vn 0.000000 -0.881964 -0.471316
vn -0.160137 -0.880102 -0.446964
vn -0.302348 -0.875298 -0.377412
vn -0.412449 -0.869495 -0.271778
vn -0.481461 -0.864907 -0.141883
vn -0.503565 -0.860899 -0.072630
vn 0.361045 -0.931093 -0.052073
vn 0.344539 -0.933300 -0.101216
vn 0.294665 -0.935791 -0.193565
vn 0.215552 -0.938927 -0.268243
vn 0.113966 -0.941509 -0.317132
vn -0.000000 -0.942506 -0.334189
vn -0.113966 -0.941509 -0.317133
vn -0.215551 -0.938927 -0.268244
vn -0.294665 -0.935791 -0.193564
vn -0.344540 -0.933300 -0.101214
vn -0.361045 -0.931093 -0.052073
vn 0.218500 -0.975328 -0.031513
vn 0.208333 -0.976165 -0.060827
vn 0.178175 -0.977097 -0.116337
vn 0.130330 -0.978274 -0.161228
vn 0.068901 -0.979245 -0.190611
vn -0.000000 -0.979620 -0.200861
vn -0.068902 -0.979244 -0.190612
vn -0.130329 -0.978274 -0.161229
vn -0.178174 -0.977098 -0.116336
vn -0.208333 -0.976165 -0.060826
vn -0.218500 -0.975328 -0.031515
vn -0.008603 0.999619 -0.026221
vn -0.000000 -0.998783 -0.049331
vn 0.068880 -0.428322 -0.900997
vn 0.068880 -0.428322 -0.900997
vn 0.068880 -0.428322 -0.900997
vn 0.068880 -0.428322 -0.900997
vn -0.162884 -0.063053 -0.984629
vn -0.162011 -0.062642 -0.984799
vn -0.197364 -0.079277 -0.977120
vn -0.197364 -0.079277 -0.977120
vn 0.021625 -0.529430 -0.848078
vn 0.021625 -0.529430 -0.848078
vn 0.021625 -0.529430 -0.848078
vn 0.021625 -0.529430 -0.848078
vn 0.451152 -0.061668 -0.890314
vn 0.451152 -0.061668 -0.890314
vn 0.197385 0.022564 -0.980066
vn 0.233137 0.011114 -0.972381
vn 0.064531 0.360564 -0.930500
vn 0.064531 0.360564 -0.930500
vn 0.064531 0.360564 -0.930500
vn 0.064531 0.360564 -0.930500
vn -0.029170 0.373742 -0.927074
vn -0.046166 0.377937 -0.924680
vn -0.072396 0.384187 -0.920412
vn -0.072396 0.384187 -0.920412
vn 0.024984 0.247806 -0.968487
vn 0.024984 0.247806 -0.968487
vn 0.052631 0.257529 -0.964836
vn 0.067045 0.262516 -0.962596
vn -0.058717 0.378140 -0.923884
vn -0.058717 0.378140 -0.923884
vn -0.058717 0.378140 -0.923884
vn -0.058717 0.378140 -0.923884
vn 0.134423 0.383753 -0.913600
vn 0.134423 0.383753 -0.913600
vn 0.134423 0.383753 -0.913600
vn 0.134423 0.383753 -0.913600
vn -0.135647 0.387246 -0.911943
vn -0.135647 0.387246 -0.911943
vn -0.135647 0.387246 -0.911943
vn -0.135647 0.387246 -0.911943
vn 0.200843 0.366920 -0.908313
vn 0.200843 0.366920 -0.908313
vn 0.200843 0.366920 -0.908313
vn 0.200843 0.366920 -0.908313
vn -0.167172 0.379487 -0.909969
vn -0.167172 0.379487 -0.909969
vn -0.167172 0.379487 -0.909969
vn -0.167172 0.379487 -0.909969
vn 0.334018 0.307720 -0.890921
vn 0.334018 0.307720 -0.890921
vn 0.334018 0.307720 -0.890921
vn 0.334018 0.307720 -0.890921
vn -0.359012 0.294584 -0.885625
vn -0.359012 0.294584 -0.885625
vn -0.359012 0.294584 -0.885625
vn -0.359012 0.294584 -0.885625
vn 0.371046 0.281344 -0.884969
vn 0.371046 0.281344 -0.884969
vn 0.371046 0.281344 -0.884969
vn 0.371046 0.281344 -0.884969
vn -0.374144 0.283637 -0.882930
vn -0.374144 0.283637 -0.882930
vn -0.374144 0.283637 -0.882930
vn -0.374144 0.283637 -0.882930
vn 0.349348 0.302095 -0.886958
vn 0.349348 0.302095 -0.886958
vn 0.349348 0.302095 -0.886958
vn 0.349348 0.302095 -0.886958
vn -0.341044 0.315097 -0.885665
vn -0.341044 0.315097 -0.885665
vn -0.341044 0.315097 -0.885665
vn -0.341044 0.315097 -0.885665
vn 0.403902 0.211171 -0.890095
vn 0.403902 0.211171 -0.890095
vn 0.403902 0.211171 -0.890095
vn 0.403902 0.211171 -0.890095
vn -0.403901 0.211172 -0.890096
vn -0.403901 0.211172 -0.890096
vn -0.403901 0.211172 -0.890096
vn -0.403901 0.211172 -0.890096
vn 0.418978 0.173546 -0.891257
vn 0.418978 0.173546 -0.891257
vn 0.418978 0.173546 -0.891257
vn 0.418978 0.173546 -0.891257
vn -0.418981 0.173546 -0.891256
vn -0.418981 0.173546 -0.891256
vn -0.418981 0.173546 -0.891256
vn -0.418981 0.173546 -0.891256
vn 0.434910 0.104413 -0.894400
vn 0.434910 0.104413 -0.894400
vn 0.434910 0.104412 -0.894400
vn 0.434910 0.104412 -0.894400
vn -0.434911 0.104414 -0.894399
vn -0.434913 0.104414 -0.894398
vn -0.434913 0.104415 -0.894398
vn -0.434911 0.104414 -0.894399
vn 0.442582 -0.091360 -0.892062
vn 0.442582 -0.091360 -0.892062
vn 0.442583 -0.091361 -0.892061
vn 0.442583 -0.091361 -0.892061
vn -0.442587 -0.091362 -0.892059
vn -0.442586 -0.091361 -0.892060
vn -0.442587 -0.091361 -0.892060
vn -0.442587 -0.091362 -0.892059
vn 0.433047 -0.154954 -0.887953
vn 0.433047 -0.154954 -0.887953
vn 0.433047 -0.154954 -0.887953
vn 0.433047 -0.154954 -0.887953
vn -0.433048 -0.154957 -0.887952
vn -0.433048 -0.154957 -0.887952
vn -0.433048 -0.154957 -0.887952
vn -0.433048 -0.154957 -0.887952
vn 0.449803 -0.098337 -0.887698
vn 0.449803 -0.098337 -0.887698
vn 0.449803 -0.098337 -0.887698
vn 0.449803 -0.098337 -0.887698
vn -0.449805 -0.098333 -0.887697
vn -0.449805 -0.098333 -0.887697
vn -0.449805 -0.098333 -0.887697
vn -0.449805 -0.098333 -0.887697
vn 0.422629 -0.159415 -0.892173
vn 0.422629 -0.159415 -0.892173
vn 0.422629 -0.159415 -0.892173
vn 0.422629 -0.159415 -0.892173
vn -0.422628 -0.159417 -0.892173
vn -0.422628 -0.159417 -0.892173
vn -0.422628 -0.159417 -0.892173
vn -0.422628 -0.159417 -0.892173
vn 0.386272 -0.215552 -0.896845
vn 0.386272 -0.215552 -0.896845
vn 0.386272 -0.215552 -0.896845
vn 0.386272 -0.215552 -0.896845
vn -0.386271 -0.215550 -0.896846
vn -0.386272 -0.215550 -0.896846
vn -0.386272 -0.215550 -0.896846
vn -0.386272 -0.215550 -0.896846
vn 0.341664 -0.265732 -0.901472
vn 0.341664 -0.265732 -0.901472
vn 0.341664 -0.265732 -0.901472
vn 0.341664 -0.265732 -0.901472
vn -0.341657 -0.265733 -0.901475
vn -0.341656 -0.265733 -0.901475
vn -0.341656 -0.265733 -0.901475
vn -0.341656 -0.265733 -0.901475
vn 0.289846 -0.309036 -0.905807
vn 0.289846 -0.309036 -0.905807
vn 0.289846 -0.309036 -0.905807
vn 0.289846 -0.309036 -0.905807
vn -0.289849 -0.309034 -0.905807
vn -0.289849 -0.309034 -0.905807
vn -0.289849 -0.309034 -0.905807
vn -0.289849 -0.309034 -0.905807
vn 0.231953 -0.344688 -0.909609
vn 0.231953 -0.344688 -0.909609
vn 0.231953 -0.344688 -0.909609
vn 0.231953 -0.344688 -0.909609
vn -0.231952 -0.344687 -0.909609
vn -0.231952 -0.344687 -0.909609
vn -0.231952 -0.344687 -0.909609
vn -0.231952 -0.344687 -0.909609
vn 0.169220 -0.372025 -0.912667
vn 0.169220 -0.372025 -0.912667
vn 0.169220 -0.372025 -0.912667
vn 0.169220 -0.372025 -0.912667
vn -0.169221 -0.372026 -0.912667
vn -0.169221 -0.372026 -0.912667
vn -0.169221 -0.372026 -0.912667
vn -0.169221 -0.372026 -0.912667
vn 0.102964 -0.390545 -0.914808
vn 0.102964 -0.390545 -0.914808
vn 0.102964 -0.390545 -0.914808
vn 0.102964 -0.390545 -0.914808
vn -0.102964 -0.390546 -0.914807
vn -0.102964 -0.390546 -0.914807
vn -0.102964 -0.390546 -0.914807
vn -0.102964 -0.390546 -0.914807
vn 0.045353 0.394942 -0.917586
vn 0.045353 0.394942 -0.917586
vn 0.045353 0.394942 -0.917586
vn 0.045353 0.394942 -0.917586
vn -0.086329 0.393873 -0.915102
vn -0.086329 0.393873 -0.915102
vn -0.086329 0.393873 -0.915102
vn -0.086329 0.393873 -0.915102
vn 0.034560 -0.399893 -0.915910
vn 0.034560 -0.399893 -0.915910
vn 0.034560 -0.399893 -0.915910
vn 0.034560 -0.399893 -0.915910
vn -0.034560 -0.399894 -0.915910
vn -0.034560 -0.399894 -0.915910
vn -0.034560 -0.399893 -0.915910
vn -0.034560 -0.399894 -0.915910
vn -0.072226 0.020511 0.997177
vn -0.059476 0.035869 0.997585
vn -0.053821 0.074250 0.995786
vn -0.062312 0.033988 0.997478
vn 0.070722 -0.402066 0.912875
vn 0.050612 -0.387333 0.920549
vn -0.038186 -0.381611 0.923534
vn -0.022322 -0.397517 0.917323
vn 0.050248 0.062062 0.996807
vn -0.008596 0.061706 0.998057
vn -0.004227 0.084824 0.996387
vn 0.036465 0.083010 0.995881
vn -0.111700 -0.345018 0.931926
vn -0.071382 -0.332106 0.940537
vn -0.056773 -0.102044 0.993159
vn -0.077623 -0.129447 0.988544
vn -0.003731 -0.115401 0.993312
vn -0.002202 -0.102768 0.994703
vn 0.037301 -0.320008 0.946680
vn 0.035007 -0.353225 0.934883
vn -0.011907 0.142144 0.989774
vn -0.012461 0.148472 0.988838
vn -0.012350 0.153365 0.988093
vn -0.058603 0.024560 0.997979
vn -0.026821 -0.114063 0.993111
vn -0.059095 -0.328845 0.942533
vn 0.058169 -0.347790 0.935766
vn 0.023306 -0.147054 0.988854
vn -0.022822 0.106545 0.994046
vn -0.028262 0.099985 0.994588
vn -0.027309 0.109660 0.993594
vn -0.023243 0.116716 0.992893
vn 0.067993 -0.375768 0.924216
vn 0.036611 -0.379386 0.924514
vn 0.020098 -0.400092 0.916255
vn 0.067593 -0.382831 0.921342
vn 0.049956 -0.202106 0.978089
vn 0.100627 -0.362983 0.926346
vn -0.080818 -0.021290 0.996501
vn -0.159228 0.005993 0.987224
vn -0.130179 0.035895 0.990841
vn -0.012362 0.153813 0.988023
vn -0.059425 -0.352766 0.933823
vn -0.025432 -0.121023 0.992324
vn -0.078042 -0.372805 0.924622
vn -0.076396 -0.378524 0.922433
vn -0.056684 -0.375312 0.925164
vn -0.078999 -0.396871 0.914469
vn 0.006067 0.364680 -0.931113
vn 0.006067 0.364680 -0.931113
vn 0.027510 0.448493 -0.893363
vn -0.004414 0.398682 -0.917079
vn -0.040998 0.339573 -0.939686
vn 0.109548 0.276887 -0.954638
vn 0.109548 0.276887 -0.954638
vn -0.442586 -0.091361 -0.892060
vn -0.442586 -0.091361 -0.892060
vn 0.442582 -0.091359 -0.892062
vn 0.442582 -0.091359 -0.892062
vn -0.144610 -0.054462 -0.987989
vn -0.144610 -0.054462 -0.987989
vn 0.107846 0.050703 -0.992874
vn 0.107846 0.050703 -0.992874
vn -0.434914 0.104415 -0.894398
vn -0.434914 0.104415 -0.894398
vn 0.434910 0.104415 -0.894400
vn 0.434910 0.104415 -0.894400
s 1
g ClownHead
usemtl aiStandardSurface1SG
f 220/565/1 221/2/2 222/3/3 223/4/4
f 221/638/2 224/5/5 225/6/6 222/3/3
f 224/637/5 226/7/7 227/8/8 225/6/6
f 226/636/7 228/9/9 229/10/10 227/8/8
f 228/635/9 439/11/11 440/12/12 229/10/10
f 230/584/13 460/14/14 461/15/15 231/598/16
f 232/646/17 234/18/18 235/19/19 233/20/20
f 234/645/18 236/21/21 237/22/22 235/19/19
f 236/644/21 238/23/23 239/24/24 237/22/22
f 238/643/23 240/25/25 241/557/26 239/24/24
f 223/4/4 222/3/3 242/27/27 243/28/28
f 222/3/3 225/6/6 244/29/29 242/27/27
f 225/6/6 227/8/8 245/30/30 244/29/29
f 227/8/8 229/10/10 246/31/31 245/30/30
f 229/10/10 440/12/12 441/32/32 246/31/31
f 231/598/16 461/15/15 462/33/33 247/597/34
f 233/20/20 235/19/19 249/35/35 248/36/36
f 235/19/19 237/22/22 250/37/37 249/35/35
f 237/22/22 239/24/24 251/38/38 250/37/37
f 239/24/24 241/557/26 252/556/39 251/38/38
f 243/28/28 242/27/27 253/40/40 254/41/41
f 242/27/27 244/29/29 255/42/42 253/40/40
f 244/29/29 245/30/30 256/43/43 255/42/42
f 245/30/30 246/31/31 257/44/44 256/43/43
f 246/31/31 441/32/32 442/45/45 257/44/44
f 247/597/34 462/33/33 463/46/46 258/596/47
f 248/36/36 249/35/35 260/48/48 259/49/49
f 249/35/35 250/37/37 261/50/50 260/48/48
f 250/37/37 251/38/38 262/51/51 261/50/50
f 251/38/38 252/556/39 263/555/52 262/51/51
f 254/41/41 253/40/40 264/53/53 265/54/54
f 253/40/40 255/42/42 266/55/55 264/53/53
f 255/42/42 256/43/43 267/56/56 266/55/55
f 256/43/43 257/44/44 268/57/57 267/56/56
f 257/44/44 442/45/45 443/58/58 268/57/57
f 258/596/47 463/46/46 464/59/59 269/595/60
f 259/49/49 260/48/48 271/61/61 270/62/62
f 260/48/48 261/50/50 272/63/63 271/61/61
f 261/50/50 262/51/51 273/64/64 272/63/63
f 262/51/51 263/555/52 274/554/65 273/64/64
f 265/54/54 264/53/53 275/66/66 276/67/67
f 264/53/53 266/55/55 277/68/68 275/66/66
f 266/55/55 267/56/56 278/69/69 277/68/68
f 267/56/56 268/57/57 279/70/70 278/69/69
f 268/57/57 443/58/58 444/71/71 279/70/70
f 269/595/60 464/59/59 465/72/72 280/594/73
f 270/62/62 271/61/61 282/74/74 281/75/75
f 271/61/61 272/63/63 283/76/76 282/74/74
f 272/63/63 273/64/64 284/77/77 283/76/76
f 273/64/64 274/554/65 285/553/78 284/77/77
f 276/67/67 275/66/66 286/79/79 287/80/80
f 275/66/66 277/68/68 288/81/81 286/79/79
f 277/68/68 278/69/69 289/82/82 288/81/81
f 278/69/69 279/70/70 290/83/83 289/82/82
f 279/70/70 444/71/71 445/84/84 290/83/83
f 280/594/73 465/72/72 466/85/85 291/593/86
f 281/75/75 282/74/74 293/87/87 292/88/88
f 282/74/74 283/76/76 294/89/89 293/87/87
f 283/76/76 284/77/77 295/90/90 294/89/89
f 284/77/77 285/553/78 296/552/91 295/90/90
f 287/80/80 286/79/79 297/92/92 298/93/93
f 286/79/79 288/81/81 299/94/94 297/92/92
f 288/81/81 289/82/82 300/95/95 299/94/94
f 289/82/82 290/83/83 301/96/96 300/95/95
f 290/83/83 445/84/84 446/97/97 301/96/96
f 291/593/86 466/85/85 467/98/98 302/602/99
f 292/88/88 293/87/87 304/100/100 303/101/101
f 293/87/87 294/89/89 305/102/102 304/100/100
f 294/89/89 295/90/90 306/103/103 305/102/102
f 295/90/90 296/552/91 307/551/104 306/103/103
f 298/93/93 297/92/92 535/105/105 536/558/106
f 297/92/92 299/94/94 534/107/107 535/105/105
f 299/94/94 300/95/95 533/108/108 534/107/107
f 300/95/95 301/96/96 532/109/109 533/108/108
f 303/101/101 304/100/100 525/110/110 526/111/111
f 304/100/100 305/102/102 524/112/112 525/110/110
f 305/102/102 306/103/103 523/113/113 524/112/112
f 306/103/103 307/551/104 522/114/114 523/113/113
f 309/559/115 308/609/116 507/117/117 508/560/118
f 308/609/116 310/608/119 506/120/120 507/117/117
f 310/608/119 311/607/121 505/122/122 506/120/120
f 311/607/121 312/599/123 504/124/124 505/122/122
f 314/601/125 313/606/126 497/127/127 498/128/128
f 313/606/126 315/605/129 496/130/130 497/127/127
f 315/605/129 316/603/131 495/132/132 496/130/130
f 316/603/131 317/604/133 494/134/134 495/132/132
f 319/561/135 318/136/136 328/137/137 329/138/138
f 318/136/136 320/139/139 330/140/140 328/137/137
f 320/139/139 321/141/141 331/142/142 330/140/140
f 321/141/141 322/143/143 332/144/144 331/142/142
f 322/143/143 450/145/145 451/146/146 332/144/144
f 333/600/147 471/148/148 472/149/149 334/592/150
f 324/151/151 323/152/152 336/153/153 335/154/154
f 323/152/152 325/155/155 337/156/156 336/153/153
f 325/155/155 326/157/157 338/158/158 337/156/156
f 326/157/157 327/159/159 339/550/160 338/158/158
f 329/138/138 328/137/137 340/161/161 341/162/162
f 328/137/137 330/140/140 342/163/163 340/161/161
f 330/140/140 331/142/142 343/164/164 342/163/163
f 331/142/142 332/144/144 344/165/165 343/164/164
f 332/144/144 451/146/146 452/166/166 344/165/165
f 334/592/150 472/149/149 473/167/167 345/591/168
f 335/154/154 336/153/153 347/169/169 346/170/170
f 336/153/153 337/156/156 348/171/171 347/169/169
f 337/156/156 338/158/158 349/172/172 348/171/171
f 338/158/158 339/550/160 350/549/173 349/172/172
f 341/162/162 340/161/161 351/174/174 352/175/175
f 340/161/161 342/163/163 353/176/176 351/174/174
f 342/163/163 343/164/164 354/177/177 353/176/176
f 343/164/164 344/165/165 355/178/178 354/177/177
f 344/165/165 452/166/166 453/179/179 355/178/178
f 345/591/168 473/167/167 474/180/180 356/590/181
f 346/170/170 347/169/169 358/182/182 357/183/183
f 347/169/169 348/171/171 359/184/184 358/182/182
f 348/171/171 349/172/172 360/185/185 359/184/184
f 349/172/172 350/549/173 361/548/186 360/185/185
f 352/175/175 351/174/174 362/187/187 363/188/188
f 351/174/174 353/176/176 364/189/189 362/187/187
f 353/176/176 354/177/177 365/190/190 364/189/189
f 354/177/177 355/178/178 366/191/191 365/190/190
f 355/178/178 453/179/179 454/192/192 366/191/191
f 356/590/181 474/180/180 475/193/193 367/589/194
f 357/183/183 358/182/182 369/195/195 368/196/196
f 358/182/182 359/184/184 370/197/197 369/195/195
f 359/184/184 360/185/185 371/198/198 370/197/197
f 360/185/185 361/548/186 372/547/199 371/198/198
f 363/188/188 362/187/187 373/200/200 374/201/201
f 362/187/187 364/189/189 375/202/202 373/200/200
f 364/189/189 365/190/190 376/203/203 375/202/202
f 365/190/190 366/191/191 377/204/204 376/203/203
f 366/191/191 454/192/192 455/205/205 377/204/204
f 367/589/194 475/193/193 476/206/206 378/588/207
f 368/196/196 369/195/195 380/208/208 379/209/209
f 369/195/195 370/197/197 381/210/210 380/208/208
f 370/197/197 371/198/198 382/211/211 381/210/210
f 371/198/198 372/547/199 383/546/212 382/211/211
f 374/201/201 373/200/200 384/213/213 385/214/214
f 373/200/200 375/202/202 386/215/215 384/213/213
f 375/202/202 376/203/203 387/216/216 386/215/215
f 376/203/203 377/204/204 388/217/217 387/216/216
f 377/204/204 455/205/205 456/218/218 388/217/217
f 378/588/207 476/206/206 477/219/219 389/587/220
f 379/209/209 380/208/208 391/221/221 390/222/222
f 380/208/208 381/210/210 392/223/223 391/221/221
f 381/210/210 382/211/211 393/224/224 392/223/223
f 382/211/211 383/546/212 394/545/225 393/224/224
f 385/214/214 384/213/213 395/226/226 396/227/227
f 384/213/213 386/215/215 397/228/228 395/226/226
f 386/215/215 387/216/216 398/229/229 397/228/228
f 387/216/216 388/217/217 399/230/230 398/229/229
f 388/217/217 456/218/218 457/231/231 399/230/230
f 389/587/220 477/219/219 478/232/232 400/586/233
f 390/222/222 391/221/221 402/234/234 401/235/235
f 391/221/221 392/223/223 403/236/236 402/234/234
f 392/223/223 393/224/224 404/237/237 403/236/236
f 393/224/224 394/545/225 405/544/238 404/237/237
f 396/227/227 395/226/226 406/239/239 407/240/240
f 395/226/226 397/228/228 408/241/241 406/239/239
f 397/228/228 398/229/229 409/242/242 408/241/241
f 398/229/229 399/230/230 410/243/243 409/242/242
f 399/230/230 457/231/231 458/244/244 410/243/243
f 400/586/233 478/232/232 479/245/245 411/585/246
f 401/235/235 402/234/234 413/247/247 412/248/248
f 402/234/234 403/236/236 414/249/249 413/247/247
f 403/236/236 404/237/237 415/250/250 414/249/249
f 404/237/237 405/544/238 416/543/251 415/250/250
f 407/240/240 406/239/239 417/630/252 418/253/253
f 406/239/239 408/241/241 419/629/254 417/252/252
f 408/241/241 409/242/242 420/628/255 419/254/254
f 409/242/242 410/243/243 421/623/256 420/255/255
f 410/243/243 458/244/244 459/257/257 421/256/256
f 411/585/246 479/245/245 480/258/258 422/581/259
f 412/248/248 413/247/247 424/621/260 423/622/261
f 413/247/247 414/249/249 425/620/262 424/260/260
f 414/249/249 415/250/250 426/615/263 425/262/262
f 415/250/250 416/543/251 427/541/264 426/263/263
f 221/2/2 220/565/1 428/564/265
f 224/5/5 221/638/2 428/631/265
f 226/7/7 224/637/5 428/632/265
f 228/9/9 226/636/7 428/633/265
f 230/13/13 439/11/11 228/635/9 428/634/265
f 232/17/17 460/14/14 230/584/13 428/583/265
f 234/18/18 232/646/17 428/639/265
f 236/21/21 234/645/18 428/640/265
f 238/23/23 236/644/21 428/641/265
f 240/25/25 238/643/23 428/642/265
f 418/253/253 417/630/252 429/627/266
f 417/252/252 419/629/254 429/626/266
f 419/254/254 420/628/255 429/625/266
f 420/255/255 421/623/256 429/624/266
f 421/256/256 459/257/257 422/259/259 429/582/266
f 422/581/259 480/258/258 423/261/261 429/619/266
f 423/622/261 424/621/260 429/618/266
f 424/260/260 425/620/262 429/617/266
f 425/262/262 426/615/263 429/616/266
f 426/263/263 427/541/264 429/266/266
s 5
f 1/267/267 12/268/268 13/269/269 2/270/270
f 2/270/270 13/269/269 14/271/271 3/272/272
f 3/272/272 14/271/271 15/273/273 4/274/274
f 4/274/274 15/273/273 16/275/275 5/276/276
f 5/276/276 16/275/275 17/277/277 6/658/278
f 6/278/278 17/672/277 18/279/279 7/280/280
f 7/280/280 18/279/279 19/281/281 8/282/282
f 8/282/282 19/281/281 20/283/283 9/284/284
f 9/284/284 20/283/283 21/285/285 10/286/286
f 10/286/286 21/285/285 22/287/287 11/288/288
f 12/268/268 23/289/289 24/290/290 13/269/269
f 13/269/269 24/290/290 25/291/291 14/271/271
f 14/271/271 25/291/291 26/292/292 15/273/273
f 15/273/273 26/292/292 27/293/293 16/275/275
f 16/275/275 27/293/293 28/294/294 17/277/277
f 17/672/277 28/671/294 29/295/295 18/279/279
f 18/279/279 29/295/295 30/296/296 19/281/281
f 19/281/281 30/296/296 31/297/297 20/283/283
f 20/283/283 31/297/297 32/298/298 21/285/285
f 21/285/285 32/298/298 33/299/299 22/287/287
f 23/289/289 34/300/300 35/301/301 24/290/290
f 24/290/290 35/301/301 36/302/302 25/291/291
f 25/291/291 36/302/302 37/303/303 26/292/292
f 26/292/292 37/303/303 38/304/304 27/293/293
f 27/293/293 38/304/304 39/305/305 28/294/294
f 28/671/294 39/670/305 40/306/306 29/295/295
f 29/295/295 40/306/306 41/307/307 30/296/296
f 30/296/296 41/307/307 42/308/308 31/297/297
f 31/297/297 42/308/308 43/309/309 32/298/298
f 32/298/298 43/309/309 44/310/310 33/299/299
f 34/300/300 45/311/311 46/312/312 35/301/301
f 35/301/301 46/312/312 47/313/313 36/302/302
f 36/302/302 47/313/313 48/314/314 37/303/303
f 37/303/303 48/314/314 49/315/315 38/304/304
f 38/304/304 49/315/315 50/316/316 39/305/305
f 39/670/305 50/669/316 51/317/317 40/306/306
f 40/306/306 51/317/317 52/318/318 41/307/307
f 41/307/307 52/318/318 53/319/319 42/308/308
f 42/308/308 53/319/319 54/320/320 43/309/309
f 43/309/309 54/320/320 55/321/321 44/310/310
f 45/311/311 56/322/322 57/323/323 46/312/312
f 46/312/312 57/323/323 58/324/324 47/313/313
f 47/313/313 58/324/324 59/325/325 48/314/314
f 48/314/314 59/325/325 60/326/326 49/315/315
f 49/315/315 60/326/326 61/327/327 50/316/316
f 50/669/316 61/668/327 62/328/328 51/317/317
f 51/317/317 62/328/328 63/329/329 52/318/318
f 52/318/318 63/329/329 64/330/330 53/319/319
f 53/319/319 64/330/330 65/331/331 54/320/320
f 54/320/320 65/331/331 66/332/332 55/321/321
f 56/322/322 67/333/333 68/334/334 57/323/323
f 57/323/323 68/334/334 69/335/335 58/324/324
f 58/324/324 69/335/335 70/336/336 59/325/325
f 59/325/325 70/336/336 71/337/337 60/326/326
f 60/326/326 71/337/337 72/338/338 61/327/327
f 61/668/327 72/667/338 73/339/339 62/328/328
f 62/328/328 73/339/339 74/340/340 63/329/329
f 63/329/329 74/340/340 75/341/341 64/330/330
f 64/330/330 75/341/341 76/342/342 65/331/331
f 65/331/331 76/342/342 77/343/343 66/332/332
f 67/333/333 78/344/344 79/345/345 68/334/334
f 68/334/334 79/345/345 80/346/346 69/335/335
f 69/335/335 80/346/346 81/347/347 70/336/336
f 70/336/336 81/347/347 82/348/348 71/337/337
f 71/337/337 82/348/348 83/349/349 72/338/338
f 72/667/338 83/656/349 84/350/350 73/339/339
f 73/339/339 84/350/350 85/351/351 74/340/340
f 74/340/340 85/351/351 86/352/352 75/341/341
f 75/341/341 86/352/352 87/353/353 76/342/342
f 76/342/342 87/353/353 88/354/354 77/343/343
f 78/344/344 509/355/355 510/356/356 79/345/345
f 79/345/345 510/356/356 511/357/357 80/346/346
f 80/346/346 511/357/357 512/358/358 81/347/347
f 81/347/347 512/358/358 513/359/359 82/348/348
s 6
f 211/360/360 514/361/361 515/362/362 212/655/363
f 212/363/363 515/362/362 516/364/364 215/365/365
s 5
f 84/350/350 517/366/366 518/367/367 85/351/351
f 85/351/351 518/367/367 519/368/368 86/352/352
f 86/352/352 519/368/368 520/369/369 87/353/353
f 87/353/353 520/369/369 521/370/370 88/354/354
f 89/650/371 481/372/372 482/373/373 90/678/374
f 90/678/374 482/373/373 483/375/375 91/677/376
f 91/677/376 483/375/375 484/377/377 92/676/378
f 92/676/378 484/377/377 485/379/379 93/654/380
s 6
f 214/381/381 486/382/382 487/383/383 213/384/384
f 213/384/384 487/383/383 488/385/385 216/386/386
s 5
f 94/653/387 489/388/388 490/389/389 95/675/390
f 95/675/390 490/389/389 491/391/391 96/674/392
f 96/674/392 491/391/391 492/393/393 97/673/394
f 97/673/394 492/393/393 493/395/395 98/648/396
f 99/397/397 110/398/398 111/399/399 100/400/400
f 100/400/400 111/399/399 112/401/401 101/402/402
f 101/402/402 112/401/401 113/403/403 102/404/404
f 102/404/404 113/403/403 114/405/405 103/406/406
f 103/406/406 114/405/405 115/407/407 104/652/408
f 104/408/408 115/666/407 116/409/409 105/410/410
f 105/410/410 116/409/409 117/411/411 106/412/412
f 106/412/412 117/411/411 118/413/413 107/414/414
f 107/414/414 118/413/413 119/415/415 108/416/416
f 108/416/416 119/415/415 120/417/417 109/418/418
f 110/398/398 121/419/419 122/420/420 111/399/399
f 111/399/399 122/420/420 123/421/421 112/401/401
f 112/401/401 123/421/421 124/422/422 113/403/403
f 113/403/403 124/422/422 125/423/423 114/405/405
f 114/405/405 125/423/423 126/424/424 115/407/407
f 115/666/407 126/665/424 127/425/425 116/409/409
f 116/409/409 127/425/425 128/426/426 117/411/411
f 117/411/411 128/426/426 129/427/427 118/413/413
f 118/413/413 129/427/427 130/428/428 119/415/415
f 119/415/415 130/428/428 131/429/429 120/417/417
f 121/419/419 132/430/430 133/431/431 122/420/420
f 122/420/420 133/431/431 134/432/432 123/421/421
f 123/421/421 134/432/432 135/433/433 124/422/422
f 124/422/422 135/433/433 136/434/434 125/423/423
f 125/423/423 136/434/434 137/435/435 126/424/424
f 126/665/424 137/664/435 138/436/436 127/425/425
f 127/425/425 138/436/436 139/437/437 128/426/426
f 128/426/426 139/437/437 140/438/438 129/427/427
f 129/427/427 140/438/438 141/439/439 130/428/428
f 130/428/428 141/439/439 142/440/440 131/429/429
f 132/430/430 143/441/441 144/442/442 133/431/431
f 133/431/431 144/442/442 145/443/443 134/432/432
f 134/432/432 145/443/443 146/444/444 135/433/433
f 135/433/433 146/444/444 147/445/445 136/434/434
f 136/434/434 147/445/445 148/446/446 137/435/435
f 137/664/435 148/663/446 149/447/447 138/436/436
f 138/436/436 149/447/447 150/448/448 139/437/437
f 139/437/437 150/448/448 151/449/449 140/438/438
f 140/438/438 151/449/449 152/450/450 141/439/439
f 141/439/439 152/450/450 153/451/451 142/440/440
f 143/441/441 154/452/452 155/453/453 144/442/442
f 144/442/442 155/453/453 156/454/454 145/443/443
f 145/443/443 156/454/454 157/455/455 146/444/444
f 146/444/444 157/455/455 158/456/456 147/445/445
f 147/445/445 158/456/456 159/457/457 148/446/446
f 148/663/446 159/662/457 160/458/458 149/447/447
f 149/447/447 160/458/458 161/459/459 150/448/448
f 150/448/448 161/459/459 162/460/460 151/449/449
f 151/449/449 162/460/460 163/461/461 152/450/450
f 152/450/450 163/461/461 164/462/462 153/451/451
f 154/452/452 165/463/463 166/464/464 155/453/453
f 155/453/453 166/464/464 167/465/465 156/454/454
f 156/454/454 167/465/465 168/466/466 157/455/455
f 157/455/455 168/466/466 169/467/467 158/456/456
f 158/456/456 169/467/467 170/468/468 159/457/457
f 159/662/457 170/661/468 171/469/469 160/458/458
f 160/458/458 171/469/469 172/470/470 161/459/459
f 161/459/459 172/470/470 173/471/471 162/460/460
f 162/460/460 173/471/471 174/472/472 163/461/461
f 163/461/461 174/472/472 175/473/473 164/462/462
f 165/463/463 176/474/474 177/475/475 166/464/464
f 166/464/464 177/475/475 178/476/476 167/465/465
f 167/465/465 178/476/476 179/477/477 168/466/466
f 168/466/466 179/477/477 180/478/478 169/467/467
f 169/467/467 180/478/478 181/479/479 170/468/468
f 170/661/468 181/660/479 182/480/480 171/469/469
f 171/469/469 182/480/480 183/481/481 172/470/470
f 172/470/470 183/481/481 184/482/482 173/471/471
f 173/471/471 184/482/482 185/483/483 174/472/472
f 174/472/472 185/483/483 186/484/484 175/473/473
f 176/474/474 187/485/485 188/486/486 177/475/475
f 177/475/475 188/486/486 189/487/487 178/476/476
f 178/476/476 189/487/487 190/488/488 179/477/477
f 179/477/477 190/488/488 191/489/489 180/478/478
f 180/478/478 191/489/489 192/490/490 181/479/479
f 181/660/479 192/659/490 193/491/491 182/480/480
f 182/480/480 193/491/491 194/492/492 183/481/481
f 183/481/481 194/492/492 195/493/493 184/482/482
f 184/482/482 195/493/493 196/494/494 185/483/483
f 185/483/483 196/494/494 197/495/495 186/484/484
f 187/485/485 198/496/496 199/497/497 188/486/486
f 188/486/486 199/497/497 200/498/498 189/487/487
f 189/487/487 200/498/498 201/499/499 190/488/488
f 190/488/488 201/499/499 202/500/500 191/489/489
f 191/489/489 202/500/500 203/501/501 192/490/490
f 192/659/490 203/657/501 204/502/502 193/491/491
f 193/491/491 204/502/502 205/503/503 194/492/492
f 194/492/492 205/503/503 206/504/504 195/493/493
f 195/493/493 206/504/504 207/505/505 196/494/494
f 196/494/494 207/505/505 208/506/506 197/495/495
f 2/270/270 209/681/507 1/267/267
f 3/272/272 209/681/507 2/270/270
f 4/274/274 209/681/507 3/272/272
f 5/276/276 209/681/507 4/274/274
f 6/658/278 209/681/507 5/276/276
f 7/280/280 209/507/507 6/278/278
f 8/282/282 209/507/507 7/280/280
f 9/284/284 209/507/507 8/282/282
f 10/286/286 209/507/507 9/284/284
f 11/288/288 209/507/507 10/286/286
f 198/496/496 210/508/508 199/497/497
f 199/497/497 210/508/508 200/498/498
f 200/498/498 210/508/508 201/499/499
f 201/499/499 210/508/508 202/500/500
f 202/500/500 210/508/508 203/501/501
f 203/657/501 210/679/508 204/502/502
f 204/502/502 210/679/508 205/503/503
f 205/503/503 210/679/508 206/504/504
f 206/504/504 210/679/508 207/505/505
f 207/505/505 210/679/508 208/506/506
s off
f 82/348/509 211/360/510 212/655/511 83/349/512
s 11
f 513/359/513 514/361/514 211/360/515 82/348/516
s off
f 83/656/517 212/363/518 215/365/519 84/350/520
s 12
f 84/350/521 215/365/522 516/364/523 517/366/524
s off
f 104/652/525 217/647/526 218/510/527 103/406/528
s 13
f 485/379/529 486/382/530 214/381/531 93/654/532
s 14
f 94/653/533 216/386/534 488/385/535 489/388/536
s off
f 105/410/537 219/511/538 217/509/539 104/408/540
f 12/268/541 1/267/542 220/1/543 223/580/544
f 11/288/545 22/287/546 241/26/547 240/542/548
f 23/289/549 12/268/550 223/580/551 243/579/552
f 22/287/553 33/299/554 252/39/555 241/26/556
f 34/300/557 23/289/558 243/579/559 254/578/560
f 33/299/561 44/310/562 263/52/563 252/39/564
f 45/311/565 34/300/566 254/578/567 265/577/568
f 44/310/569 55/321/570 274/65/571 263/52/572
f 56/322/573 45/311/574 265/577/575 276/576/576
f 55/321/577 66/332/578 285/78/579 274/65/580
f 67/333/581 56/322/582 276/576/583 287/575/584
f 66/332/585 77/343/586 296/91/587 285/78/588
f 78/344/589 67/333/590 287/575/591 298/574/592
f 77/343/593 88/354/594 307/104/595 296/91/596
s 15
f 536/106/597 509/355/598 78/344/599 298/574/600
s 16
f 88/354/601 521/370/602 522/537/603 307/104/604
s 17
f 508/118/605 481/372/606 89/650/607 309/651/608
s 18
f 98/648/609 493/395/610 494/539/611 317/538/612
s off
f 110/398/613 99/397/614 319/135/615 329/573/616
f 109/418/617 120/417/618 339/160/619 327/540/620
f 121/419/621 110/398/622 329/573/623 341/572/624
f 120/417/625 131/429/626 350/173/627 339/160/628
f 132/430/629 121/419/630 341/572/631 352/571/632
f 131/429/633 142/440/634 361/186/635 350/173/636
f 143/441/637 132/430/638 352/571/639 363/570/640
f 142/440/641 153/451/642 372/199/643 361/186/644
f 154/452/645 143/441/646 363/570/647 374/569/648
f 153/451/649 164/462/650 383/212/651 372/199/652
f 165/463/653 154/452/654 374/569/655 385/568/656
f 164/462/657 175/473/658 394/225/659 383/212/660
f 176/474/661 165/463/662 385/568/663 396/567/664
f 175/473/665 186/484/666 405/238/667 394/225/668
f 187/485/669 176/474/670 396/567/671 407/566/672
f 186/484/673 197/495/674 416/251/675 405/238/676
f 198/496/677 187/485/678 407/566/679 418/563/680
f 197/495/681 208/506/682 427/264/683 416/251/684
f 1/267/685 209/681/686 428/682/687 220/1/688
f 209/507/689 11/288/690 240/542/691 428/265/692
f 210/508/693 198/496/694 418/563/695 429/562/696
f 208/506/697 210/679/698 429/680/699 427/264/700
s 19
f 301/96/701 438/512/702 531/513/703 532/109/704
f 322/143/705 437/514/706 449/515/707 450/145/708
s 21
f 302/602/709 467/98/710 468/516/711 433/517/712
f 498/128/713 499/518/714 432/519/715 314/601/716
f 430/520/717 469/521/718 500/522/719 501/523/720
f 433/517/712 468/516/711 528/524/721 529/613/722
s 19
f 530/526/723 531/513/703 438/512/702 447/527/724
f 448/528/725 502/529/726 503/530/727 434/611/728
s 21
f 435/532/729 303/101/730 526/111/731 527/533/732
f 431/534/733 470/535/734 471/148/735 333/600/736
s 19
f 312/599/737 434/611/728 503/530/727 504/124/738
f 301/96/701 446/97/739 447/527/724 438/512/702
s 1
f 440/12/12 439/11/11 230/13/13 231/16/16
f 441/32/32 440/12/12 231/16/16 247/34/34
f 442/45/45 441/32/32 247/34/34 258/47/47
f 443/58/58 442/45/45 258/47/47 269/60/60
f 444/71/71 443/58/58 269/60/60 280/73/73
f 445/84/84 444/71/71 280/73/73 291/86/86
f 446/97/97 445/84/84 291/86/86 302/99/99
s 19
f 447/527/724 446/97/739 302/99/740 433/614/741
f 529/525/742 530/526/723 447/527/724 433/614/741
f 501/523/743 502/529/726 448/528/725 430/520/744
f 450/145/708 449/515/707 431/534/745 333/147/746
s 1
f 451/146/146 450/145/145 333/147/147 334/150/150
f 452/166/166 451/146/146 334/150/150 345/168/168
f 453/179/179 452/166/166 345/168/168 356/181/181
f 454/192/192 453/179/179 356/181/181 367/194/194
f 455/205/205 454/192/192 367/194/194 378/207/207
f 456/218/218 455/205/205 378/207/207 389/220/220
f 457/231/231 456/218/218 389/220/220 400/233/233
f 458/244/244 457/231/231 400/233/233 411/246/246
f 459/257/257 458/244/244 411/246/246 422/259/259
f 461/15/15 460/14/14 232/17/17 233/20/20
f 462/33/33 461/15/15 233/20/20 248/36/36
f 463/46/46 462/33/33 248/36/36 259/49/49
f 464/59/59 463/46/46 259/49/49 270/62/62
f 465/72/72 464/59/59 270/62/62 281/75/75
f 466/85/85 465/72/72 281/75/75 292/88/88
f 467/98/98 466/85/85 292/88/88 303/101/101
s 21
f 468/516/711 467/98/710 303/101/730 435/532/729
f 527/533/732 528/524/721 468/516/711 435/532/729
f 499/518/714 500/522/719 469/521/718 432/519/715
f 471/148/735 470/535/734 436/536/747 324/151/748
s 1
f 472/149/149 471/148/148 324/151/151 335/154/154
f 473/167/167 472/149/149 335/154/154 346/170/170
f 474/180/180 473/167/167 346/170/170 357/183/183
f 475/193/193 474/180/180 357/183/183 368/196/196
f 476/206/206 475/193/193 368/196/196 379/209/209
f 477/219/219 476/206/206 379/209/209 390/222/222
f 478/232/232 477/219/219 390/222/222 401/235/235
f 479/245/245 478/232/232 401/235/235 412/248/248
f 480/258/258 479/245/245 412/248/248 423/261/261
s 5
f 482/373/373 481/372/372 99/397/397 100/400/400
f 483/375/375 482/373/373 100/400/400 101/402/402
f 484/377/377 483/375/375 101/402/402 102/404/404
f 485/379/379 484/377/377 102/404/404 103/406/406
s 13
f 103/406/749 218/510/750 486/382/530 485/379/529
s 6
f 487/383/383 486/382/382 218/510/751 217/647/752
f 488/385/385 487/383/383 217/509/752 219/511/753
s 14
f 489/388/536 488/385/535 219/511/754 105/410/755
s 5
f 490/389/389 489/388/388 105/410/410 106/412/412
f 491/391/391 490/389/389 106/412/412 107/414/414
f 492/393/393 491/391/391 107/414/414 108/416/416
f 493/395/395 492/393/393 108/416/416 109/418/418
s 18
f 494/539/611 493/395/610 109/418/756 327/540/757
s 1
f 495/132/132 494/134/134 327/159/159 326/157/157
f 496/130/130 495/132/132 326/157/157 325/155/155
f 497/127/127 496/130/130 325/155/155 323/152/152
f 498/128/128 497/127/127 323/152/152 324/151/151
s 21
f 324/151/748 436/536/747 499/518/714 498/128/713
f 470/535/734 500/522/719 499/518/714 436/536/747
f 501/523/720 500/522/719 470/535/734 431/534/733
s 19
f 431/534/745 449/515/707 502/529/726 501/523/743
f 503/530/727 502/529/726 449/515/707 437/514/706
f 504/124/738 503/530/727 437/514/706 322/143/705
s 1
f 505/122/122 504/124/124 322/143/143 321/141/141
f 506/120/120 505/122/122 321/141/141 320/139/139
f 507/117/117 506/120/120 320/139/139 318/136/136
f 508/560/118 507/117/117 318/136/136 319/561/135
s 17
f 99/397/758 481/372/606 508/118/605 319/135/759
s 5
f 510/356/356 509/355/355 89/371/371 90/374/374
f 511/357/357 510/356/356 90/374/374 91/376/376
f 512/358/358 511/357/357 91/376/376 92/378/378
f 513/359/359 512/358/358 92/378/378 93/380/380
s 11
f 93/380/760 214/381/761 514/361/514 513/359/513
s 6
f 515/362/362 514/361/361 214/381/381 213/384/384
f 516/364/364 515/362/362 213/384/384 216/386/386
s 12
f 517/366/524 516/364/523 216/386/762 94/387/763
s 5
f 518/367/367 517/366/366 94/387/387 95/390/390
f 519/368/368 518/367/367 95/390/390 96/392/392
f 520/369/369 519/368/368 96/392/392 97/394/394
f 521/370/370 520/369/369 97/394/394 98/396/396
s 16
f 522/537/603 521/370/602 98/396/764 317/649/765
s 1
f 523/113/113 522/114/114 317/133/133 316/131/131
f 524/112/112 523/113/113 316/131/131 315/129/129
f 525/110/110 524/112/112 315/129/129 313/126/126
f 526/111/111 525/110/110 313/126/126 314/125/125
s 21
f 527/533/732 526/111/731 314/125/716 432/612/715
f 469/521/718 528/524/721 527/533/732 432/612/715
f 529/613/722 528/524/721 469/521/718 430/520/717
s 19
f 448/528/725 530/526/723 529/525/742 430/520/744
f 434/531/728 531/513/703 530/526/723 448/528/725
f 532/109/704 531/513/703 434/531/728 312/123/737
s 1
f 533/108/108 532/109/109 312/123/123 311/121/121
f 534/107/107 533/108/108 311/121/121 310/119/119
f 535/105/105 534/107/107 310/119/119 308/116/116
f 536/558/106 535/105/105 308/116/116 309/610/115
s 15
f 89/371/766 509/355/598 536/106/597 309/115/767
