# This file uses centimeters as units for non-parametric coordinates.

mtllib ClownNoseFruit.mtl
g default
v 0.353834 0.201887 0.191456
v 0.399479 0.191037 0.196681
v 0.447018 0.202517 0.196726
v 0.330209 0.243730 0.190288
v 0.465515 0.243550 0.193189
v 0.343283 0.287456 0.206835
v 0.448177 0.286884 0.207643
v 0.399479 0.302487 0.212455
v 0.364698 0.216549 0.279326
v 0.399452 0.205472 0.287594
v 0.399480 0.242823 0.301546
v 0.357273 0.243137 0.286956
v 0.438559 0.217592 0.281143
v 0.440421 0.243137 0.289455
v 0.399452 0.278711 0.303310
v 0.362233 0.260982 0.289275
v 0.433490 0.261871 0.294150
v 0.355385 0.203444 0.264344
v 0.399444 0.192970 0.275790
v 0.331844 0.243273 0.264565
v 0.445337 0.204051 0.269431
v 0.465263 0.243267 0.267519
v 0.345200 0.286044 0.279190
v 0.399444 0.300554 0.291018
v 0.446456 0.285493 0.279970
v 0.346175 0.194202 0.220314
v 0.317611 0.242529 0.220582
v 0.333817 0.294425 0.238327
v 0.399657 0.312031 0.248218
v 0.456676 0.293756 0.239274
v 0.479495 0.242521 0.224167
v 0.455319 0.194939 0.226487
v 0.399657 0.181493 0.229742
v 0.349081 0.197118 0.243858
v 0.322103 0.242763 0.244112
v 0.337409 0.291781 0.260872
v 0.399590 0.308409 0.272241
v 0.453450 0.291149 0.261766
v 0.475004 0.242757 0.247497
v 0.452169 0.197815 0.249688
v 0.399590 0.185115 0.254790
v 0.400148 0.246762 0.172899
v 0.399749 0.279993 0.190749
v 0.364551 0.245219 0.181660
v 0.399740 0.212730 0.181229
v 0.434297 0.245146 0.183217
v 0.368371 0.268329 0.187317
v 0.371415 0.223474 0.183920
v 0.425200 0.222457 0.184497
v 0.433041 0.266990 0.188326
v 0.377234 0.193042 0.191282
v 0.373343 0.183827 0.224365
v 0.374820 0.187324 0.250304
v 0.378022 0.194907 0.272440
v 0.382876 0.208559 0.286688
v 0.379025 0.242803 0.297189
v 0.381592 0.271695 0.300451
v 0.372719 0.296675 0.288486
v 0.368742 0.303952 0.268694
v 0.366909 0.307307 0.243835
v 0.371740 0.298465 0.207905
v 0.382743 0.276221 0.187087
v 0.383179 0.246039 0.175147
v 0.386530 0.216130 0.180291
v 0.423627 0.193880 0.194187
v 0.428159 0.184810 0.227482
v 0.426439 0.188252 0.253057
v 0.422709 0.195716 0.274655
v 0.419090 0.209530 0.287123
v 0.418832 0.242826 0.300426
v 0.416379 0.271712 0.302341
v 0.423307 0.295827 0.288296
v 0.427124 0.302981 0.268690
v 0.428884 0.306280 0.244034
v 0.424246 0.297587 0.208318
v 0.416589 0.275123 0.189194
v 0.417176 0.245972 0.175533
v 0.412098 0.215947 0.181258
v 0.331808 0.258772 0.193823
v 0.364461 0.253347 0.181147
v 0.382431 0.256594 0.176487
v 0.400125 0.258380 0.176144
v 0.417805 0.256176 0.177472
v 0.435418 0.252842 0.182584
v 0.462505 0.258452 0.196137
v 0.475217 0.260054 0.228638
v 0.470966 0.259337 0.252664
v 0.461745 0.257783 0.272911
v 0.438210 0.249696 0.293144
v 0.418899 0.252809 0.302236
v 0.399554 0.255175 0.304127
v 0.379119 0.252786 0.300718
v 0.357263 0.249395 0.288916
v 0.333607 0.257973 0.270569
v 0.324117 0.259556 0.249980
v 0.319741 0.260286 0.225795
v 0.340666 0.220450 0.188879
v 0.367027 0.233301 0.180503
v 0.384463 0.229565 0.175338
v 0.400030 0.228001 0.174787
v 0.415149 0.229430 0.176067
v 0.430729 0.232694 0.181574
v 0.457974 0.220718 0.193234
v 0.469348 0.215964 0.224829
v 0.465422 0.217694 0.249067
v 0.456908 0.221445 0.269773
v 0.440040 0.228995 0.286882
v 0.419874 0.224313 0.294554
v 0.399548 0.222030 0.295885
v 0.380415 0.223756 0.293710
v 0.359759 0.228408 0.284102
v 0.342322 0.221106 0.265495
v 0.334104 0.217305 0.244165
v 0.330315 0.215553 0.219639
vt 0.697767 0.399484
vt 0.863065 0.670370
vt 0.890422 0.666565
vt 0.705596 0.384016
vt 0.850996 0.644139
vt 0.850013 0.616423
vt 0.876285 0.603040
vt 0.881203 0.636380
vt 0.711450 0.368903
vt 0.921846 0.662048
vt 0.938411 0.657222
vt 0.713156 0.362049
vt 0.915549 0.628267
vt 0.907822 0.597466
vt 0.923942 0.593403
vt 0.935580 0.623347
vt 0.711809 0.417613
vt 0.687375 0.427060
vt 0.726981 0.400716
vt 0.666718 0.435250
vt 0.629366 0.126900
vt 0.652264 0.129257
vt 0.672794 0.141369
vt 0.870826 0.566470
vt 0.851506 0.580205
vt 0.968474 0.648002
vt 0.738996 0.303509
vt 0.745558 0.334515
vt 0.713508 0.339483
vt 0.744364 0.366819
vt 0.743298 0.382472
vt 0.700333 0.156066
vt 0.708824 0.175013
vt 0.907954 0.560785
vt 0.894386 0.559056
vt 0.962921 0.599779
vt 0.727786 0.244284
vt 0.732680 0.274981
vt 0.974771 0.614872
vt 0.913292 0.463100
vt 0.924317 0.433764
vt 0.718455 0.467598
vt 0.945273 0.487951
vt 0.917136 0.512489
vt 0.893449 0.479515
vt 0.937864 0.404226
vt 0.942301 0.368461
vt 0.637360 0.085251
vt 0.989905 0.415141
vt 0.948469 0.334925
vt 0.935835 0.311086
vt 0.700275 0.088414
vt 0.992836 0.324841
vt 0.756646 0.531490
vt 0.786084 0.487199
vt 0.818957 0.509220
vt 0.804938 0.551746
vt 0.859035 0.542884
vt 0.856824 0.500665
vt 0.871834 0.495645
vt 0.883186 0.533095
vt 0.920186 0.286940
vt 0.906501 0.275495
vt 0.756233 0.132213
vt 0.951168 0.253216
vt 0.826510 0.201483
vt 0.834053 0.255918
vt 0.752291 0.463794
vt 0.713840 0.504618
vt 0.745525 0.415496
vt 0.728184 0.434101
vt 0.765562 0.376037
vt 0.763339 0.393527
vt 0.760396 0.305445
vt 0.766371 0.339524
vt 0.750568 0.235609
vt 0.755289 0.270261
vt 0.730158 0.155171
vt 0.718982 0.134156
vt 0.687198 0.117921
vt 0.661302 0.108205
vt 0.635350 0.107697
vt 0.614280 0.106699
vt 0.702079 0.445931
vt 0.905156 0.345062
vt 0.899239 0.329767
vt 0.936762 0.829810
vt 0.939353 0.804650
vt 0.839430 0.805292
vt 0.882344 0.443402
vt 0.887579 0.763410
vt 0.859741 0.457693
vt 0.896004 0.788746
vt 0.881748 0.792698
vt 0.859183 0.772391
vt 0.859493 0.799096
vt 0.861869 0.821029
vt 0.868519 0.841454
vt 0.847137 0.843141
vt 0.893074 0.395120
vt 0.903332 0.812180
vt 0.905937 0.836694
vt 0.891654 0.838806
vt 0.887327 0.815576
vt 0.926967 0.781773
vt 0.830755 0.463112
vt 0.891989 0.314999
vt 0.885974 0.307584
vt 0.726478 0.212770
vt 0.934486 0.579517
vt 0.747945 0.200931
vt 0.874982 0.203810
vt 0.870178 0.251628
vt 0.871070 0.294271
vt 0.878071 0.863824
vt 0.897483 0.865151
vt 0.871581 0.451225
vt 0.844399 0.780204
vt 0.908892 0.863099
vt 0.930140 0.855465
vt 0.850933 0.459922
vt 0.875653 0.765027
vt 0.897396 0.370776
vt 0.860321 0.861317
vt 0.844328 0.298412
vt 0.817690 0.303979
vt 0.886156 0.418311
vt 0.838215 0.825957
vt 0.811609 0.449070
vt 0.911973 0.762980
vt 0.901745 0.703302
vt 0.927927 0.701873
vt 0.652864 0.170715
vt 0.667365 0.190057
vt 0.939009 0.698768
vt 0.957402 0.688223
vt 0.672321 0.202574
vt 0.689877 0.213646
vt 0.692662 0.250595
vt 0.623649 0.142319
vt 0.644673 0.149771
vt 0.709575 0.304352
vt 0.703779 0.278309
vt 0.675271 0.410324
vt 0.609779 0.138525
vt 0.879170 0.701741
vt 0.789270 0.433578
vt 0.796362 0.261220
vt 0.779295 0.206555
vt 0.765238 0.431863
vt 0.783855 0.406328
vt 0.977012 0.288390
vt 0.666352 0.082337
vt 0.788478 0.386451
vt 0.789464 0.344925
vt 0.929072 0.233180
vt 0.738975 0.107185
vt 0.777943 0.227603
vt 0.775238 0.188374
vt 0.994199 0.370187
vt 0.692227 0.478361
vt 0.786384 0.306714
vt 0.779744 0.265229
vt 0.970269 0.452473
vt 0.745289 0.451944
vt 0.677996 0.455923
vt 0.610977 0.124346
vt 0.616736 0.088605
vt 0.659903 0.418782
vn -0.476901 -0.457668 0.750404
vn -0.277970 -0.453721 0.846682
vn -0.309534 -0.327860 0.892579
vn -0.452984 -0.300155 0.839472
vn -0.007633 -0.446902 0.894550
vn 0.235361 -0.449168 0.861889
vn 0.255543 -0.344483 0.903343
vn -0.027580 -0.346585 0.937613
vn -0.428481 -0.239115 0.871337
vn -0.300162 -0.241811 0.922730
vn -0.329583 -0.050189 0.942792
vn -0.475077 -0.089377 0.875394
vn -0.050023 -0.245412 0.968127
vn 0.233482 -0.242886 0.941537
vn 0.254439 -0.051815 0.965700
vn -0.049848 -0.057180 0.997119
vn -0.478492 -0.519791 0.707717
vn -0.374381 -0.584468 0.719886
vn -0.332919 -0.606938 0.721659
vn -0.478492 -0.519791 0.707717
vn -0.609956 -0.332916 0.719111
vn -0.604553 -0.343302 0.718790
vn -0.531887 -0.466277 0.706882
vn -0.531887 -0.466277 0.706882
vn 0.132627 -0.662115 0.737573
vn 0.287180 -0.586912 0.757009
vn 0.272251 -0.595147 0.756095
vn 0.132627 -0.662115 0.737573
vn 0.541842 -0.401515 0.738372
vn 0.621381 -0.252414 0.741737
vn 0.633576 -0.225355 0.740133
vn 0.541842 -0.401515 0.738372
vn -0.351052 0.274229 0.895300
vn -0.366605 0.256774 0.894242
vn -0.453035 0.152500 0.878352
vn -0.453035 0.152500 0.878352
vn -0.590110 -0.054567 0.805476
vn -0.593779 -0.064016 0.802077
vn -0.645673 -0.223451 0.730189
vn -0.645673 -0.223452 0.730189
vn 0.664011 -0.136290 0.735197
vn 0.637937 0.029226 0.769533
vn 0.630027 0.064156 0.773919
vn 0.664011 -0.136290 0.735197
vn 0.369761 0.368107 0.853097
vn 0.373573 0.365600 0.852514
vn 0.210752 0.461967 0.861493
vn 0.210752 0.461967 0.861493
vn -0.317966 -0.897945 -0.304289
vn -0.182867 -0.938317 -0.293463
vn -0.216853 -0.970813 -0.102455
vn -0.351862 -0.928318 -0.120078
vn -0.856416 -0.499576 -0.130288
vn -0.808470 -0.469634 -0.354713
vn -0.745319 -0.570205 -0.345495
vn -0.793422 -0.597795 -0.114552
vn 0.087205 -0.957541 -0.274792
vn 0.207852 -0.933838 -0.291110
vn 0.234322 -0.966680 -0.103068
vn 0.106930 -0.990725 -0.083847
vn 0.767228 -0.535110 -0.353578
vn 0.829890 -0.416063 -0.371718
vn 0.884780 -0.444400 -0.140259
vn 0.822638 -0.557084 -0.113681
vn -0.248345 0.964085 -0.094154
vn -0.216653 0.938455 -0.269006
vn -0.321181 0.904601 -0.280249
vn -0.353904 0.927813 -0.117965
vn -0.929077 0.340324 -0.144897
vn -0.862140 0.364595 -0.351831
vn -0.910591 0.200001 -0.361696
vn -0.971723 0.156317 -0.176972
vn 0.882959 0.283924 -0.373858
vn 0.826731 0.441587 -0.348594
vn 0.891864 0.428908 -0.143588
vn 0.948433 0.258362 -0.183640
vn 0.294115 0.951098 -0.094384
vn 0.263169 0.926931 -0.267471
vn 0.149384 0.955632 -0.253876
vn 0.180917 0.980804 -0.072750
vn -0.827573 -0.489897 0.274087
vn -0.771151 -0.577825 0.267290
vn -0.937198 0.195888 0.288598
vn -0.963085 0.021142 0.268366
vn -0.293433 0.918911 0.263630
vn -0.403265 0.883467 0.238462
vn 0.339291 0.903876 0.260556
vn 0.217840 0.942954 0.251762
vn 0.904474 0.320414 0.281535
vn 0.952413 0.148385 0.266254
vn 0.859399 -0.422441 0.288059
vn 0.800954 -0.527083 0.284000
vn 0.249945 -0.936162 0.247240
vn 0.127331 -0.963308 0.236272
vn -0.272307 -0.930685 0.244285
vn -0.396422 -0.889610 0.226811
vn -0.788498 -0.470802 0.395748
vn -0.732795 -0.557894 0.389572
vn -0.888620 0.155470 0.431490
vn -0.904863 -0.050791 0.422663
vn -0.283304 0.875087 0.392380
vn -0.430579 0.805137 0.407869
vn 0.330473 0.859731 0.389423
vn 0.223520 0.899715 0.374901
vn 0.859773 0.284936 0.423795
vn 0.901475 0.074269 0.426411
vn 0.816291 -0.399524 0.417193
vn 0.759658 -0.502853 0.412380
vn 0.239071 -0.900798 0.362503
vn 0.128902 -0.929354 0.345956
vn -0.265821 -0.895833 0.356122
vn -0.423827 -0.828925 0.365039
vn 0.249900 -0.330197 -0.910230
vn 0.277616 -0.345909 -0.896257
vn 0.316002 -0.176479 -0.932201
vn 0.285279 -0.195575 -0.938278
vn 0.147799 0.625950 -0.765730
vn 0.155201 0.589366 -0.792818
vn 0.070632 0.630666 -0.772834
vn 0.054718 0.666350 -0.743628
vn -0.098808 -0.392096 -0.914603
vn -0.088151 -0.381279 -0.920248
vn -0.168649 -0.272786 -0.947178
vn -0.203843 -0.298475 -0.932395
vn -0.281549 0.369868 -0.885397
vn -0.285934 0.334471 -0.897982
vn -0.283247 0.030370 -0.958566
vn -0.277979 0.051400 -0.959211
vn -0.151151 0.372475 -0.915650
vn -0.192475 0.027973 -0.980903
vn -0.247047 -0.128365 -0.960464
vn -0.203296 -0.198299 -0.958826
vn 0.117438 -0.216789 -0.969129
vn 0.245093 -0.211451 -0.946159
vn 0.164983 -0.429222 -0.888003
vn 0.050845 -0.502548 -0.863053
vn 0.114485 0.455689 -0.882746
vn 0.199946 0.396124 -0.896163
vn 0.241563 0.023468 -0.970101
vn 0.126623 0.050643 -0.990657
vn -0.123801 0.628802 -0.767646
vn -0.107730 0.592691 -0.798193
vn -0.260015 0.500653 -0.825675
vn -0.254477 0.513939 -0.819212
vn -0.206855 -0.136247 -0.968838
vn 0.182226 -0.413460 -0.892101
vn 0.032406 -0.537955 -0.842351
vn 0.346951 0.011242 -0.937816
vn 0.350325 -0.001092 -0.936628
vn 0.344248 0.325052 -0.880815
vn 0.360307 0.355153 -0.862580
vn -0.025078 -0.961386 -0.274057
vn -0.071762 -0.995172 -0.066953
vn -0.128548 -0.961900 0.241295
vn -0.141481 -0.928821 0.342454
vn -0.169819 -0.679452 0.713798
vn -0.169819 -0.679452 0.713797
vn -0.209074 0.418279 0.883930
vn -0.209074 0.418279 0.883930
vn -0.165885 0.953719 0.250803
vn -0.171497 0.911218 0.374527
vn -0.130423 0.988712 -0.073739
vn -0.101687 0.962025 -0.253313
vn 0.008383 0.645065 -0.764082
vn 0.012460 0.690532 -0.723195
vn -0.087963 0.047369 -0.994997
vn -0.027868 0.430568 -0.902128
vn 0.041901 -0.483420 -0.874385
vn -0.071793 -0.205824 -0.975952
vn 0.073206 -0.518633 -0.851857
vn 0.339692 -0.890016 -0.304107
vn 0.356265 -0.928496 -0.104735
vn 0.367016 -0.899278 0.237906
vn 0.379677 -0.844820 0.376995
vn 0.402232 -0.515767 0.756435
vn 0.402232 -0.515767 0.756435
vn 0.420585 -0.308740 0.853105
vn 0.415339 -0.437140 0.797748
vn 0.434231 -0.107059 0.894417
vn 0.418260 -0.224077 0.880255
vn 0.483326 0.287490 0.826889
vn 0.483326 0.287490 0.826889
vn 0.450184 0.860775 0.237488
vn 0.474669 0.783431 0.401154
vn 0.402339 0.907907 -0.117593
vn 0.369246 0.887079 -0.277034
vn 0.286970 0.533405 -0.795693
vn 0.297315 0.506315 -0.809474
vn 0.781437 0.530476 -0.328558
vn 0.863480 0.498700 -0.075508
vn 0.868568 0.394287 0.300212
vn 0.838514 0.348389 0.418950
vn 0.607832 0.147173 0.780308
vn 0.607832 0.147173 0.780308
vn 0.182333 0.035726 0.982588
vn 0.448526 0.072641 0.890813
vn -0.049232 0.028818 0.998372
vn -0.274578 0.061380 0.959604
vn -0.515075 0.123148 0.848252
vn -0.549562 0.040561 0.834468
vn -0.549562 0.040561 0.834468
vn -0.909826 0.271087 0.314210
vn -0.874974 0.221836 0.430359
vn -0.912276 0.404792 -0.062421
vn -0.815130 0.469490 -0.339325
vn 0.868605 -0.316547 -0.381213
vn 0.928234 -0.342191 -0.145900
vn 0.903568 -0.326951 0.276891
vn 0.859994 -0.295060 0.416353
vn 0.657953 -0.166363 0.734453
vn 0.657953 -0.166363 0.734453
vn -0.643375 -0.263523 0.718766
vn -0.643375 -0.263523 0.718766
vn -0.872112 -0.409435 0.267926
vn -0.832880 -0.384916 0.397682
vn -0.903059 -0.412536 -0.119579
vn -0.854044 -0.376811 -0.358638
s 1
g ClownNoseFruit
usemtl aiStandardSurface2SG
f 9/146/1 55/2/2 110/3/3 111/131/4
f 10/5/5 69/6/6 108/7/7 109/8/8
f 12/132/9 56/10/10 92/11/11 93/135/12
f 11/13/13 70/14/14 90/15/15 91/16/16
s 3
f 18/17/17 54/18/18 55/144/19 9/1/20
s 4
f 111/4/21 112/19/22 18/17/23 9/1/24
s 5
f 19/167/25 68/21/26 69/140/27 10/145/28
s 6
f 21/22/29 106/23/30 107/133/31 13/141/32
s 7
f 57/142/33 58/27/34 23/28/35 16/29/36
s 8
f 93/12/37 94/30/38 20/31/39 12/9/40
s 9
f 22/32/41 88/33/42 89/137/43 14/134/44
s 10
f 71/139/45 72/37/46 24/38/47 15/143/48
s 11
f 1/40/49 51/41/50 52/164/51 26/43/52
s 12
f 114/44/53 97/45/54 1/40/55 26/43/56
s 13
f 2/46/57 65/47/58 66/160/59 33/49/60
s 14
f 3/50/61 103/51/62 104/152/63 32/53/64
s 15
f 60/54/65 61/55/66 6/56/67 28/57/68
s 16
f 96/58/69 79/59/70 4/60/71 27/61/72
s 17
f 5/62/73 85/63/74 86/156/75 31/65/76
s 18
f 74/66/77 75/67/78 8/148/79 29/149/80
s 12
f 113/70/81 114/150/53 26/165/56 34/71/82
s 16
f 95/72/83 96/154/69 27/151/72 35/73/84
s 15
f 59/74/85 60/162/65 28/155/68 36/75/86
s 18
f 73/76/87 74/158/77 29/163/80 37/77/88
s 17
f 31/157/76 86/64/75 87/78/89 39/79/90
s 14
f 32/153/64 104/52/63 105/80/91 40/81/92
s 13
f 33/168/60 66/48/59 67/82/93 41/83/94
s 11
f 26/165/52 52/42/51 53/84/95 34/71/96
s 12
f 112/19/97 113/70/81 34/71/82 18/17/98
s 16
f 94/30/99 95/72/83 35/73/84 20/31/100
s 15
f 58/27/101 59/74/85 36/75/86 23/28/102
s 18
f 72/37/103 73/76/87 37/77/88 24/38/104
s 17
f 39/79/90 87/78/89 88/33/105 22/32/106
s 14
f 40/81/92 105/80/91 106/23/107 21/22/108
s 13
f 41/83/94 67/82/93 68/21/109 19/167/110
s 11
f 34/71/96 53/84/95 54/18/111 18/17/112
s 19
f 3/50/113 49/85/114 102/86/115 103/51/116
f 75/67/117 76/125/118 43/126/119 8/148/120
s 21
f 64/127/121 51/41/122 1/40/123 48/90/124
f 79/59/125 80/121/126 44/92/127 4/60/128
f 80/91/126 81/93/129 63/94/130 44/122/127
f 98/95/131 99/96/132 64/89/121 48/118/124
s 19
f 100/97/133 101/98/134 78/99/135 45/128/136
f 82/101/137 83/102/138 77/103/139 42/104/140
s 21
f 61/55/141 62/129/142 47/106/143 6/56/144
f 48/90/124 1/40/123 97/45/145 98/117/131
s 19
f 78/123/135 65/47/146 2/46/147 45/100/136
f 5/62/148 46/107/149 84/108/150 85/63/151
s 11
f 52/164/51 51/41/50 2/46/152 33/49/153
f 53/84/95 52/42/51 33/161/153 41/166/154
f 54/18/111 53/84/95 41/166/154 19/20/155
s 3
f 55/144/19 54/18/18 19/20/156 10/169/157
s 1
f 109/8/8 110/3/3 55/2/2 10/5/5
f 91/16/16 92/11/11 56/10/10 11/13/13
s 7
f 24/38/158 58/27/34 57/142/33 15/143/159
s 15
f 37/77/160 59/74/85 58/27/101 24/38/161
f 29/163/162 60/162/65 59/74/85 37/77/160
f 8/68/163 61/55/66 60/54/65 29/69/162
s 21
f 43/147/164 62/129/142 61/55/141 8/68/165
f 42/104/166 63/94/130 81/93/129 82/101/167
f 45/128/168 64/89/121 99/96/132 100/97/169
f 2/46/170 51/41/122 64/127/121 45/100/168
s 13
f 66/160/59 65/47/58 3/50/171 32/53/172
f 67/82/93 66/48/59 32/153/172 40/81/173
f 68/21/109 67/82/93 40/81/173 21/22/174
s 5
f 69/140/27 68/21/26 21/22/175 13/141/176
s 1
f 107/24/177 108/7/7 69/6/6 13/25/178
f 89/34/179 90/15/15 70/14/14 14/35/180
s 10
f 25/109/181 72/37/46 71/139/45 17/138/182
s 18
f 38/111/183 73/76/87 72/37/103 25/109/184
f 30/159/185 74/158/77 73/76/87 38/111/183
f 7/113/186 75/67/78 74/66/77 30/112/185
s 19
f 7/113/187 50/114/188 76/125/118 75/67/117
f 77/103/139 83/102/138 84/119/150 46/116/149
f 101/98/134 102/115/115 49/124/114 78/99/135
f 3/50/113 65/47/146 78/123/135 49/85/114
s 21
f 6/56/144 47/106/143 80/121/126 79/59/125
f 62/105/142 81/93/129 80/91/126 47/130/143
f 82/101/167 81/93/129 62/105/142 43/88/164
s 19
f 43/88/119 76/87/118 83/102/138 82/101/137
f 84/119/150 83/102/138 76/87/118 50/120/188
f 85/63/151 84/108/150 50/114/188 7/113/187
s 17
f 86/156/75 85/63/74 7/113/189 30/112/190
f 87/78/89 86/64/75 30/159/190 38/111/191
f 88/33/105 87/78/89 38/111/191 25/109/192
s 9
f 89/137/43 88/33/42 25/109/193 17/138/194
s 1
f 71/36/195 90/15/15 89/34/179 17/110/196
f 91/16/16 90/15/15 71/36/195 15/39/197
f 57/26/198 92/11/11 91/16/16 15/39/197
f 93/135/12 92/11/11 57/26/198 16/136/199
s 8
f 23/28/200 94/30/38 93/12/37 16/29/201
s 16
f 36/75/202 95/72/83 94/30/99 23/28/203
f 28/155/204 96/154/69 95/72/83 36/75/202
f 6/56/205 79/59/70 96/58/69 28/57/204
s 21
f 98/117/131 97/45/145 4/60/128 44/92/127
f 63/94/130 99/96/132 98/95/131 44/122/127
f 100/97/169 99/96/132 63/94/130 42/104/166
s 19
f 77/103/139 101/98/134 100/97/133 42/104/140
f 46/116/149 102/115/115 101/98/134 77/103/139
f 103/51/116 102/86/115 46/107/149 5/62/148
s 14
f 104/152/63 103/51/62 5/62/206 31/65/207
f 105/80/91 104/52/63 31/157/207 39/79/208
f 106/23/107 105/80/91 39/79/208 22/32/209
s 6
f 107/133/31 106/23/30 22/32/210 14/134/211
s 1
f 70/14/14 108/7/7 107/24/177 14/35/180
f 109/8/8 108/7/7 70/14/14 11/13/13
f 56/10/10 110/3/3 109/8/8 11/13/13
f 111/131/4 110/3/3 56/10/10 12/132/9
s 4
f 20/31/212 112/19/22 111/4/21 12/9/213
s 12
f 35/73/214 113/70/81 112/19/97 20/31/215
f 27/151/216 114/150/53 113/70/81 35/73/214
f 4/60/217 97/45/54 114/44/53 27/61/216
