# This file uses centimeters as units for non-parametric coordinates.

mtllib ClownTree.mtl
g default
v 0.082575 -0.000000 -0.164860
v -0.197709 -0.000000 -0.164860
v 0.082575 0.000000 0.115425
v -0.197709 0.000000 0.115425
v 0.034945 0.417058 -0.110435
v -0.171579 0.403679 -0.110435
v 0.034945 0.417058 0.096522
v -0.171579 0.403679 0.096522
v -0.057567 -0.000000 -0.228293
v -0.057567 0.000000 0.178859
v -0.068317 0.410368 -0.157273
v -0.068317 0.410368 0.143360
v 0.146009 -0.000000 -0.024717
v -0.261143 -0.000000 -0.024717
v 0.081686 0.420086 -0.006957
v -0.218320 0.400651 -0.006956
v -0.261157 1.779566 0.138668
v -0.057567 -0.000000 -0.024717
v -0.198295 1.792547 0.153362
v -0.170980 1.832280 0.026309
v -0.147421 1.847810 0.071219
v -0.161920 1.832689 0.115786
v -0.209177 1.792547 -0.001832
v -0.268781 1.779566 0.018368
v -0.289795 1.773756 0.079796
v -0.403918 2.137764 0.077739
v -0.376331 2.147093 0.106884
v -0.390553 2.147093 0.079223
v -0.411092 2.128105 0.089164
v -0.408522 2.123620 0.105948
v -0.382900 2.137764 0.118618
v -0.396367 2.128105 0.117804
v -0.379041 2.151211 0.090791
v 0.011571 1.621964 -0.078781
v 0.013316 1.433703 -0.088424
v 0.062150 1.420968 -0.024718
v 0.038721 1.642353 -0.026145
v -0.032758 1.566669 0.072051
v 0.013316 1.433702 0.038989
v 0.014964 1.622781 0.021109
v -0.047265 1.492102 -0.123251
v -0.032758 1.566669 -0.121486
v -0.047265 1.492103 0.073816
v 0.144060 1.608325 -0.138231
v 0.167564 1.493116 -0.159726
v 0.192815 1.482531 -0.121634
v 0.161624 1.615642 -0.102650
v 0.212213 1.493254 -0.080592
v 0.180035 1.599852 -0.079935
v 0.151738 1.528502 -0.167083
v 0.142640 1.570145 -0.161005
v 0.200020 1.570155 -0.059912
v 0.209911 1.529842 -0.064246
v 0.365918 1.769125 -0.366934
v 0.374761 1.720138 -0.381457
v 0.390130 1.714383 -0.369126
v 0.375589 1.773456 -0.354006
v 0.403035 1.719329 -0.354646
v 0.386927 1.765553 -0.348409
v 0.367463 1.735032 -0.381474
v 0.363557 1.753032 -0.376770
v 0.398805 1.753032 -0.342872
v 0.403354 1.735032 -0.346959
v -0.161591 1.565733 -0.024718
v -0.125665 1.565732 0.054651
v -0.125665 1.565732 -0.104086
v -0.125489 0.944367 0.043356
v -0.112561 0.942703 -0.126744
v -0.161835 0.938542 -0.039231
v 0.397737 1.771725 -0.371002
v 0.401317 1.755793 -0.375603
v -0.393554 2.137629 0.098250
v 0.212356 2.033406 -0.273464
v 0.414053 1.671885 0.228743
v -0.117247 1.597324 0.070805
v -0.461012 2.152486 -0.228243
v 0.123876 2.492430 -0.189064
v 0.704362 2.237759 0.276708
v -0.121434 1.550306 0.554187
v -0.466620 1.790170 0.118630
v -0.401215 2.412377 0.158340
v 0.212933 2.446740 0.397016
v 0.530330 1.897662 0.635516
v -0.225320 2.034635 0.625885
v -0.558405 1.947105 0.328332
v -0.512748 2.389868 0.097595
v -1.054297 1.937080 0.071799
v -0.805163 1.394672 0.147978
v -0.177925 1.535305 0.202518
v -0.099550 2.158417 0.112865
v -0.833237 2.078035 -0.253198
v -0.996833 1.513087 -0.317974
v -0.423827 1.250185 -0.211259
v -0.035253 1.715002 -0.141648
v -0.204701 2.193126 -0.188986
v -0.490387 1.697198 -0.594398
v 0.298790 1.729977 -0.026062
v 0.124548 1.521306 -0.268015
v 0.482724 1.567659 -0.223226
v 0.591465 1.803420 -0.061034
v 0.293181 2.046007 0.003714
v 0.088618 1.897749 -0.183542
v 0.333544 1.518774 -0.491571
v 0.682319 1.716752 -0.396305
v 0.466272 2.081053 -0.276393
v 0.173376 2.096344 -0.343653
v 0.110181 1.692234 -0.423578
v 0.392245 1.943542 -0.569275
v -0.140976 1.227101 -0.121434
v -0.361013 1.204013 -0.271976
v 0.015185 1.039422 -0.457766
v 0.170111 1.226572 -0.317855
v 0.072488 1.596937 -0.173440
v -0.246473 1.543085 -0.102959
v -0.137723 1.175512 -0.778041
v 0.168380 1.196085 -0.730066
v 0.305571 1.519811 -0.558028
v -0.023668 1.703028 -0.451569
v -0.319194 1.475995 -0.460757
v -0.019913 1.511266 -0.782751
v 0.326428 1.448495 0.148019
v 0.083948 1.378559 0.263963
v 0.180266 1.159098 0.101883
v 0.348856 1.228034 -0.073392
v 0.316839 1.531586 -0.096112
v 0.186996 1.555640 0.155267
v -0.045681 1.185636 0.061265
v 0.139971 1.106762 -0.167367
v 0.209089 1.353596 -0.318047
v 0.098995 1.583558 -0.180240
v -0.014129 1.447811 0.085531
v -0.030462 1.346450 -0.216189
v -0.123642 1.472290 -0.104906
v -0.123556 1.472312 0.055259
v -0.157474 1.463513 -0.024718
v 0.028986 0.931998 0.035406
v 0.016817 0.932366 -0.119922
v 0.072987 0.927356 -0.039231
v -0.046327 0.932699 -0.151480
v -0.045283 0.957604 0.072754
v 0.049242 1.050479 0.036317
v 0.088511 1.059438 -0.035125
v 0.020439 1.054926 -0.134783
v -0.031768 1.060964 0.072956
v -0.032201 1.073810 -0.145219
v -0.097918 1.059587 0.045951
v -0.092499 1.020513 -0.110060
v -0.133893 1.059586 -0.035887
v -0.039026 1.265195 -0.395638
v -0.041778 1.228891 -0.437033
v -0.017276 1.238056 -0.428345
v -0.064903 1.237878 -0.425023
v -0.015900 1.256208 -0.407647
v -0.063527 1.256030 -0.404325
v -0.044980 1.012189 -0.326574
v 0.006944 1.020310 -0.299201
v -0.034086 1.101388 -0.271928
v -0.077296 1.089257 -0.271053
v -0.096152 1.027862 -0.300189
v 0.003183 1.086805 -0.280604
vt 0.182221 0.272597
vt 0.608740 0.803756
vt 0.876140 0.364533
vt 0.835388 0.366799
vt 0.799395 0.372115
vt 0.649751 0.844483
vt 0.898906 0.471608
vt 0.870649 0.466964
vt 0.608995 0.745644
vt 0.568916 0.763101
vt 0.252918 0.374483
vt 0.151892 0.350788
vt 0.285498 0.180057
vt 0.076099 0.283938
vt 0.150564 0.206213
vt 0.238205 0.435506
vt 0.167176 0.397128
vt 0.094577 0.358340
vt 0.039250 0.460691
vt 0.216464 0.533044
vt 0.139068 0.445223
vt 0.406009 0.451034
vt 0.552684 0.546310
vt 0.675012 0.542633
vt 0.494371 0.485266
vt 0.357310 0.351045
vt 0.525060 0.350618
vt 0.543470 0.479257
vt 0.624128 0.509429
vt 0.693805 0.463946
vt 0.431377 0.287178
vt 0.535110 0.406983
vt 0.786605 0.469368
vt 0.619342 0.426482
vt 0.759331 0.475139
vt 0.842345 0.464811
vt 0.506513 0.637783
vt 0.814237 0.465414
vt 0.667664 0.803188
vt 0.723158 0.547795
vt 0.648923 0.763434
vt 0.732391 0.481693
vt 0.927068 0.477346
vt 0.557767 0.593446
vt 0.459170 0.656021
vt 0.549090 0.665084
vt 0.491160 0.680392
vt 0.708779 0.613751
vt 0.640072 0.570695
vt 0.592968 0.635596
vt 0.604151 0.718480
vt 0.666470 0.737494
vt 0.650291 0.663542
vt 0.301272 0.554806
vt 0.230876 0.774148
vt 0.320463 0.787988
vt 0.291424 0.614465
vt 0.386836 0.744357
vt 0.342493 0.617861
vt 0.289414 0.662536
vt 0.307554 0.745624
vt 0.341456 0.742018
vt 0.367795 0.700881
vt 0.334292 0.659271
vt 0.318387 0.702727
vt 0.463843 0.323815
vt 0.666106 0.261835
vt 0.532938 0.221090
vt 0.667653 0.297462
vt 0.698435 0.822800
vt 0.739633 0.727622
vt 0.742713 0.730829
vt 0.713346 0.832552
vt 0.766454 0.727208
vt 0.813534 0.815367
vt 0.788499 0.832012
vt 0.801655 0.822383
vt 0.833640 0.885619
vt 0.823117 0.901083
vt 0.795678 0.608519
vt 0.834652 0.750565
vt 0.771205 0.830664
vt 0.754975 0.732533
vt 0.758453 0.730644
vt 0.508425 0.273231
vt 0.560754 0.340616
vt 0.725442 0.898635
vt 0.638132 0.269044
vt 0.670797 0.900055
vt 0.733926 0.831752
vt 0.889256 0.604492
vt 0.865942 0.608838
vt 0.753930 0.828864
vt 0.746418 0.732847
vt 0.751103 0.733687
vt 0.651086 0.885214
vt 0.841682 0.876455
vt 0.776948 0.894161
vt 0.800163 0.897932
vt 0.761927 0.728515
vt 0.601550 0.900968
vt 0.602855 0.891770
vt 0.623630 0.229488
vt 0.547407 0.255809
vt 0.917817 0.734646
vt 0.559338 0.293609
vt 0.932726 0.751515
vt 0.865598 0.907810
vt 0.868702 0.915688
vt 0.912202 0.606851
vt 0.603749 0.884336
vt 0.861687 0.745725
vt 0.698979 0.926675
vt 0.846187 0.637948
vt 0.864945 0.638799
vt 0.898244 0.729077
vt 0.600328 0.314975
vt 0.586835 0.267240
vt 0.873292 0.924422
vt 0.880020 0.749973
vt 0.598642 0.910148
vt 0.594842 0.918552
vt 0.525728 0.861376
vt 0.527608 0.857946
vt 0.529433 0.854096
vt 0.929515 0.865268
vt 0.530954 0.850298
vt 0.878413 0.731405
vt 0.858839 0.890518
vt 0.862377 0.899039
vt 0.532525 0.847242
vt 0.921444 0.852181
vt 0.923158 0.855702
vt 0.924888 0.859170
vt 0.926510 0.862147
vt 0.802055 0.739953
vt 0.907501 0.641112
vt 0.867337 0.766883
vt 0.776081 0.923287
vt 0.822517 0.637614
vt 0.863431 0.771556
vt 0.843281 0.604826
vt 0.820355 0.604402
vt 0.928950 0.848909
vt 0.931457 0.853206
vt 0.751340 0.729626
vt 0.858212 0.760319
vt 0.887766 0.637338
vt 0.853258 0.789384
vt 0.839182 0.784166
vt 0.826956 0.786300
vt 0.886830 0.783832
vt 0.854917 0.840089
vt 0.861414 0.840859
vt 0.881418 0.842011
vt 0.847849 0.839784
vt 0.867960 0.840996
vt 0.875015 0.841050
vt 0.863732 0.791643
vt 0.873395 0.790637
vt 0.769063 0.378566
vt 0.549844 0.802713
vt 0.956085 0.373907
vt 0.917529 0.367166
vt 0.992098 0.385113
vt 0.741366 0.384188
vt 0.608521 0.863606
vt 0.567435 0.844162
vt 0.774849 0.607608
vt 0.756886 0.610219
vt 0.954761 0.483300
vt 0.936630 0.611812
vt 0.710020 0.391420
vt 0.822915 0.738566
vt 0.799686 0.922381
vt 0.843193 0.741024
vt 0.820033 0.918398
vt 0.674865 0.921107
vt 0.654970 0.936953
vt 0.633129 0.942823
vt 0.835097 0.934196
vt 0.549844 0.802713
vt 0.847309 0.751270
vt 0.800857 0.628074
vt 0.936577 0.643264
vt 0.948411 0.650261
vt 0.898622 0.787491
vt 0.843035 0.848162
vt 0.892176 0.750947
vt 0.782849 0.640325
vt 0.782714 0.743884
vt 0.879576 0.849292
vt 0.841528 0.840878
vt 0.859530 0.848320
vt 0.863217 0.849131
vt 0.522358 0.864460
vt 0.521574 0.852065
vt 0.524241 0.847867
vt 0.919536 0.849204
vt 0.854729 0.884666
vt 0.587115 0.926042
vt 0.846235 0.947737
vt 0.637568 0.878683
vt 0.736005 0.724516
vt 0.752177 0.720972
vt 0.686275 0.816945
vt 0.751414 0.921102
vt 0.010191 0.300342
vt 0.050162 0.190789
vt 0.080300 0.117119
vt 0.097671 0.559472
vt 0.205571 0.107497
vt 0.292683 0.271345
vt 0.294595 0.472929
vt 0.226578 0.356880
vt 0.397350 0.188103
vt 0.600490 0.352545
vt 0.259583 0.355647
vt 0.319956 0.264819
vt 0.470609 0.377248
vt 0.309837 0.450643
vt 0.423768 0.534423
vt 0.658479 0.561830
vt 0.400436 0.536791
vt 0.469334 0.740382
vt 0.416977 0.610922
vt 0.522869 0.732140
vt 0.523528 0.524785
vt 0.466670 0.575180
vt 0.444001 0.694123
vt 0.420989 0.707839
vt 0.709735 0.706480
vt 0.567230 0.220943
vt 0.690202 0.345323
vt 0.674992 0.222685
vt 0.702044 0.294851
vt 0.640024 0.228718
vt 0.520543 0.329884
vt 0.645054 0.345339
vt 0.706142 0.237883
vt 0.452755 0.254122
vt 0.512510 0.236724
vt 0.371616 0.550156
vt 0.251004 0.550102
vt 0.295770 0.476786
vt 0.217409 0.606520
vt 0.245485 0.719919
vt 0.421710 0.601293
vt 0.356556 0.498238
vt 0.384437 0.660142
vt 0.368109 0.798934
vt 0.305162 0.799683
vn 0.000000 -1.000000 0.000000
vn 0.000000 -1.000000 0.000000
vn 0.000000 -1.000000 0.000000
vn 0.000000 -1.000000 0.000000
vn 0.004661 0.086323 0.996256
vn 0.708915 0.112667 0.696237
vn 0.691126 0.098782 0.715952
vn 0.001221 0.106863 0.994273
vn 0.002460 0.170606 -0.985336
vn -0.694777 0.139580 -0.705551
vn -0.705302 0.097837 -0.702124
vn -0.000942 0.092241 -0.995736
vn -0.994291 0.106152 -0.010803
vn -0.708003 0.078530 0.701829
vn -0.700869 0.104342 0.705617
vn -0.994321 0.106396 0.002400
vn 0.988284 0.152267 -0.010458
vn 0.693184 0.171010 -0.700180
vn 0.695220 0.085432 -0.713702
vn 0.995571 0.093842 0.005707
vn 0.672669 0.383717 0.632675
vn 0.687158 0.490033 0.536360
vn 0.222619 0.216970 0.950455
vn 0.202164 -0.025104 0.979030
vn 0.771653 0.600456 -0.209773
vn 0.687158 0.490033 0.536360
vn 0.672669 0.383717 0.632675
vn 0.777967 0.627217 -0.036953
vn -0.093535 0.333626 -0.938054
vn 0.388834 0.541965 -0.745038
vn 0.077145 0.740971 -0.667091
vn -0.168868 0.295574 -0.940277
vn -0.825103 -0.027541 -0.564311
vn -0.016369 -0.575985 -0.817296
vn -0.000942 0.092241 -0.995736
vn -0.705302 0.097837 -0.702124
vn -0.729724 -0.148824 -0.667349
vn -0.713737 -0.157997 -0.682361
vn -0.079863 0.183243 -0.979818
vn -0.093535 0.333626 -0.938054
vn 0.693184 0.171010 -0.700180
vn 0.002460 0.170606 -0.985336
vn -0.000942 0.092241 -0.995736
vn 0.695220 0.085432 -0.713702
vn -0.708003 0.078530 0.701829
vn 0.004661 0.086323 0.996256
vn 0.001221 0.106863 0.994273
vn -0.700869 0.104342 0.705617
vn 0.000000 -1.000000 0.000000
vn 0.000000 -1.000000 0.000000
vn 0.000000 -1.000000 0.000000
vn 0.000000 -1.000000 0.000000
vn 0.000000 -1.000000 0.000000
vn 0.000000 -1.000000 0.000000
vn 0.000000 -1.000000 0.000000
vn 0.000000 -1.000000 0.000000
vn -0.550928 -0.317533 0.771784
vn 0.292102 0.020998 0.956157
vn 0.202164 -0.025104 0.979030
vn -0.514289 -0.356782 0.779881
vn 0.686088 -0.004111 0.727507
vn 0.016222 0.053185 0.998453
vn 0.001221 0.106863 0.994273
vn 0.691126 0.098782 0.715952
vn -0.892749 -0.437097 0.109301
vn -0.514289 -0.356782 0.779881
vn -0.530972 -0.160513 0.832048
vn -0.937300 -0.327897 0.118118
vn 0.708915 0.112667 0.696237
vn 0.988284 0.152267 -0.010458
vn 0.995571 0.093842 0.005707
vn 0.691126 0.098782 0.715952
vn -0.694777 0.139580 -0.705551
vn -0.994291 0.106152 -0.010803
vn -0.994321 0.106396 0.002400
vn -0.705302 0.097837 -0.702124
vn 0.000000 -1.000000 0.000000
vn 0.000000 -1.000000 0.000000
vn 0.000000 -1.000000 0.000000
vn 0.000000 -1.000000 0.000000
vn 0.777967 0.627217 -0.036953
vn 0.672669 0.383717 0.632675
vn 0.599293 0.444469 0.665804
vn 0.484051 0.873612 0.049975
vn -0.956777 -0.287067 -0.046591
vn -0.550928 -0.317533 0.771784
vn -0.514289 -0.356782 0.779881
vn -0.892749 -0.437097 0.109301
vn 0.202164 -0.025104 0.979030
vn 0.222619 0.216970 0.950455
vn -0.530972 -0.160513 0.832048
vn -0.514289 -0.356782 0.779881
vn 0.672669 0.383717 0.632675
vn 0.202164 -0.025104 0.979030
vn 0.292102 0.020998 0.956157
vn 0.599293 0.444469 0.665804
vn -0.168868 0.295574 -0.940277
vn -0.571674 0.066243 -0.817802
vn -0.729724 -0.148824 -0.667349
vn -0.093535 0.333626 -0.938054
vn -0.729724 -0.148824 -0.667349
vn -0.892749 -0.437097 0.109301
vn -0.937300 -0.327897 0.118118
vn -0.713737 -0.157997 -0.682361
vn 0.437441 0.440268 -0.784098
vn 0.771653 0.600456 -0.209773
vn 0.777967 0.627217 -0.036953
vn 0.388834 0.541965 -0.745038
vn 0.599293 0.444469 0.665804
vn 0.292102 0.020998 0.956157
vn 0.574717 0.260763 0.775695
vn 0.353322 0.682001 0.640342
vn 0.382511 -0.331541 -0.862418
vn -0.158787 -0.049942 -0.986049
vn -0.390274 -0.238613 -0.889241
vn 0.021961 -0.740606 -0.671581
vn 0.997840 -0.045728 -0.047159
vn 0.686088 -0.004111 0.727507
vn 0.691126 0.098782 0.715952
vn 0.995571 0.093842 0.005707
vn 0.484051 0.873612 0.049975
vn 0.599293 0.444469 0.665804
vn 0.353322 0.682001 0.640342
vn 0.035991 0.966413 0.254461
vn 0.100821 -0.018244 0.994737
vn -0.654185 -0.026432 0.755872
vn -0.660989 0.042919 0.749168
vn 0.078968 -0.004012 0.996869
vn 0.813820 -0.579239 0.046670
vn 0.382511 -0.331541 -0.862418
vn 0.021961 -0.740606 -0.671581
vn 0.451640 -0.874243 -0.178101
vn 0.771735 -0.182714 -0.609132
vn 0.997840 -0.045728 -0.047159
vn 0.995571 0.093842 0.005707
vn 0.695220 0.085432 -0.713702
vn 0.685370 -0.074876 0.724335
vn 0.719347 -0.532646 0.445901
vn 0.921936 -0.383597 -0.053736
vn 0.975501 -0.022879 0.218802
vn 0.574717 0.260763 0.775695
vn 0.685370 -0.074876 0.724335
vn 0.975501 -0.022879 0.218802
vn 0.748213 0.448465 0.488934
vn 0.719347 -0.532646 0.445901
vn 0.451640 -0.874243 -0.178101
vn 0.615922 -0.561579 -0.552512
vn 0.921936 -0.383597 -0.053736
vn 0.353322 0.682001 0.640342
vn 0.574717 0.260763 0.775695
vn 0.748213 0.448465 0.488934
vn 0.341416 0.769663 0.539494
vn 0.592557 -0.093941 0.800032
vn 0.813820 -0.579239 0.046670
vn 0.451640 -0.874243 -0.178101
vn 0.719347 -0.532646 0.445901
vn 0.292102 0.020998 0.956157
vn 0.100821 -0.018244 0.994737
vn 0.685370 -0.074876 0.724335
vn 0.574717 0.260763 0.775695
vn 0.100821 -0.018244 0.994737
vn 0.592557 -0.093941 0.800032
vn 0.719347 -0.532646 0.445901
vn 0.685370 -0.074876 0.724335
vn 0.077145 0.740971 -0.667091
vn 0.484051 0.873612 0.049975
vn 0.035991 0.966413 0.254461
vn -0.439195 0.795164 -0.418117
vn -0.158787 -0.049942 -0.986049
vn -0.168868 0.295574 -0.940277
vn -0.518816 0.257787 -0.815093
vn -0.390274 -0.238613 -0.889241
vn -0.168868 0.295574 -0.940277
vn 0.077145 0.740971 -0.667091
vn -0.439195 0.795164 -0.418117
vn -0.518816 0.257787 -0.815093
vn -0.571674 0.066243 -0.817802
vn -0.956777 -0.287067 -0.046591
vn -0.892749 -0.437097 0.109301
vn -0.729724 -0.148824 -0.667349
vn -0.439195 0.795164 -0.418117
vn 0.035991 0.966413 0.254461
vn -0.083684 0.989055 0.121524
vn -0.479125 0.766122 -0.428364
vn -0.390274 -0.238613 -0.889241
vn -0.518816 0.257787 -0.815093
vn -0.465355 0.349641 -0.813140
vn -0.241619 -0.073138 -0.967611
vn -0.518816 0.257787 -0.815093
vn -0.439195 0.795164 -0.418117
vn -0.479125 0.766122 -0.428364
vn -0.465355 0.349641 -0.813140
vn 0.451640 -0.874243 -0.178101
vn 0.021961 -0.740606 -0.671581
vn 0.080486 -0.439306 -0.894725
vn 0.615922 -0.561579 -0.552512
vn 0.035991 0.966413 0.254461
vn 0.353322 0.682001 0.640342
vn 0.341416 0.769663 0.539494
vn -0.083684 0.989055 0.121524
vn 0.021961 -0.740606 -0.671581
vn -0.390274 -0.238613 -0.889241
vn -0.241619 -0.073138 -0.967611
vn 0.080486 -0.439306 -0.894725
vn 0.484051 0.873612 0.049975
vn 0.077145 0.740971 -0.667091
vn 0.388834 0.541965 -0.745038
vn 0.777967 0.627217 -0.036953
vn -0.571674 0.066243 -0.817802
vn -0.168868 0.295574 -0.940277
vn -0.158787 -0.049942 -0.986049
vn -0.666379 -0.010807 -0.745535
vn 0.382511 -0.331541 -0.862418
vn 0.813820 -0.579239 0.046670
vn 0.999393 -0.017184 -0.030290
vn 0.867363 0.200987 -0.455286
vn -0.654185 -0.026432 0.755872
vn -0.998865 -0.047353 -0.005040
vn -0.996265 0.076162 -0.040685
vn -0.660989 0.042919 0.749168
vn -0.158787 -0.049942 -0.986049
vn 0.382511 -0.331541 -0.862418
vn 0.867363 0.200987 -0.455286
vn -0.064247 0.787293 -0.613223
vn -0.708162 0.142959 0.691426
vn -0.983100 0.173910 -0.057191
vn -0.994321 0.106396 0.002400
vn -0.700869 0.104342 0.705617
vn -0.016369 -0.575985 -0.817296
vn 0.771735 -0.182714 -0.609132
vn 0.695220 0.085432 -0.713702
vn -0.000942 0.092241 -0.995736
vn 0.341416 0.769663 0.539494
vn 0.748213 0.448465 0.488934
vn 0.543133 0.734800 -0.406295
vn -0.083684 0.989055 0.121524
vn 0.748213 0.448465 0.488934
vn 0.975501 -0.022879 0.218802
vn 0.724509 0.161736 -0.670022
vn 0.543133 0.734800 -0.406295
vn 0.975501 -0.022879 0.218802
vn 0.921936 -0.383597 -0.053736
vn 0.615922 -0.561579 -0.552512
vn 0.724509 0.161736 -0.670022
vn -0.083684 0.989055 0.121524
vn 0.543133 0.734800 -0.406295
vn -0.465355 0.349641 -0.813140
vn -0.479125 0.766122 -0.428364
vn 0.543133 0.734800 -0.406295
vn 0.724509 0.161736 -0.670022
vn -0.241619 -0.073138 -0.967611
vn -0.465355 0.349641 -0.813140
vn 0.724509 0.161736 -0.670022
vn 0.615922 -0.561579 -0.552512
vn 0.080486 -0.439306 -0.894725
vn -0.241619 -0.073138 -0.967611
vn -0.568947 0.768592 0.292517
vn -0.568945 0.768592 0.292519
vn -0.568944 0.768592 0.292522
vn -0.568951 0.768588 0.292520
vn -0.568945 0.768592 0.292519
vn -0.568943 0.768593 0.292521
vn -0.568938 0.768596 0.292524
vn -0.568944 0.768592 0.292522
vn -0.568943 0.768595 0.292514
vn -0.568946 0.768593 0.292516
vn -0.568945 0.768592 0.292519
vn -0.568947 0.768592 0.292517
vn -0.568946 0.768593 0.292516
vn -0.568948 0.768591 0.292517
vn -0.568943 0.768593 0.292521
vn -0.568945 0.768592 0.292519
vn -0.983100 0.173910 -0.057191
vn -0.825103 -0.027541 -0.564311
vn -0.705302 0.097837 -0.702124
vn -0.994321 0.106396 0.002400
vn 0.288967 -0.718166 -0.633037
vn 0.288967 -0.718166 -0.633037
vn 0.288967 -0.718166 -0.633037
vn 0.759904 -0.343050 -0.552143
vn 0.759904 -0.343050 -0.552143
vn 0.759904 -0.343050 -0.552143
vn -0.151057 -0.539669 -0.828215
vn -0.151057 -0.539669 -0.828215
vn -0.151057 -0.539669 -0.828215
vn -0.035293 0.174140 -0.984088
vn -0.035293 0.174140 -0.984088
vn -0.035293 0.174140 -0.984088
vn 0.670905 0.257204 -0.695509
vn 0.670905 0.257204 -0.695509
vn 0.670905 0.257204 -0.695509
vn 0.889778 -0.456393 -0.001027
vn 0.889778 -0.456393 -0.001027
vn 0.889778 -0.456393 -0.001027
vn 0.165724 -0.981677 -0.094051
vn 0.165724 -0.981677 -0.094051
vn 0.165724 -0.981677 -0.094051
vn -0.431969 -0.620199 -0.654794
vn -0.431969 -0.620199 -0.654794
vn -0.431969 -0.620199 -0.654794
vn -0.423090 0.780906 -0.459543
vn -0.423090 0.780906 -0.459543
vn -0.423090 0.780906 -0.459543
vn 0.393757 0.919138 0.011821
vn 0.393757 0.919138 0.011821
vn 0.393757 0.919138 0.011821
vn 0.405573 -0.843472 0.352229
vn 0.405573 -0.843472 0.352229
vn 0.405573 -0.843472 0.352229
vn -0.490612 -0.866865 -0.088569
vn -0.490612 -0.866865 -0.088569
vn -0.490612 -0.866865 -0.088569
vn -0.991310 0.098651 0.087016
vn -0.991310 0.098651 0.087016
vn -0.991310 0.098651 0.087016
vn -0.090899 0.991683 0.091122
vn -0.090899 0.991683 0.091122
vn -0.090899 0.991683 0.091122
vn 0.412374 0.552881 0.724065
vn 0.412374 0.552881 0.724065
vn 0.412374 0.552881 0.724065
vn -0.040649 -0.154847 0.987102
vn -0.040649 -0.154847 0.987102
vn -0.040649 -0.154847 0.987102
vn -0.821176 -0.251941 0.512051
vn -0.821176 -0.251941 0.512051
vn -0.821176 -0.251941 0.512051
vn -0.913536 0.070462 0.400609
vn -0.913536 0.070462 0.400609
vn -0.913536 0.070462 0.400609
vn -0.296851 0.685117 0.665203
vn -0.296851 0.685117 0.665203
vn -0.296851 0.685117 0.665203
vn 0.066387 0.429560 0.900595
vn 0.066387 0.429560 0.900595
vn 0.066387 0.429560 0.900595
vn -0.416719 0.453527 0.787819
vn -0.416719 0.453527 0.787819
vn -0.416719 0.453527 0.787819
vn 0.211041 0.434531 0.875583
vn 0.211041 0.434531 0.875583
vn 0.211041 0.434531 0.875583
vn -0.456441 -0.085261 0.885659
vn -0.456441 -0.085261 0.885659
vn -0.456441 -0.085261 0.885659
vn -0.014557 -0.304436 0.952421
vn -0.014557 -0.304436 0.952421
vn -0.014557 -0.304436 0.952421
vn 0.392223 0.082482 0.916165
vn 0.392223 0.082482 0.916165
vn 0.392223 0.082482 0.916165
vn 0.489465 0.869163 -0.070563
vn 0.489465 0.869163 -0.070563
vn 0.489465 0.869163 -0.070563
vn -0.635401 0.765665 -0.100116
vn -0.635401 0.765665 -0.100116
vn -0.635401 0.765665 -0.100116
vn -0.888498 -0.369972 0.271462
vn -0.888498 -0.369972 0.271462
vn -0.888498 -0.369972 0.271462
vn 0.147824 -0.853257 0.500101
vn 0.147824 -0.853257 0.500101
vn 0.147824 -0.853257 0.500101
vn 0.933561 -0.066757 0.352148
vn 0.933561 -0.066757 0.352148
vn 0.933561 -0.066757 0.352148
vn -0.079396 0.779948 -0.620787
vn -0.079396 0.779948 -0.620787
vn -0.079396 0.779948 -0.620787
vn -0.844631 0.295752 -0.446240
vn -0.844631 0.295752 -0.446240
vn -0.844631 0.295752 -0.446240
vn -0.406185 -0.911507 -0.064560
vn -0.406185 -0.911507 -0.064560
vn -0.406185 -0.911507 -0.064560
vn 0.768281 -0.639922 -0.015630
vn 0.768281 -0.639922 -0.015630
vn 0.768281 -0.639922 -0.015630
vn 0.912292 0.295214 -0.283853
vn 0.912292 0.295214 -0.283853
vn 0.912292 0.295214 -0.283853
vn -0.040489 0.646271 -0.762033
vn -0.040489 0.646271 -0.762033
vn -0.040489 0.646271 -0.762033
vn -0.531878 0.246897 -0.810030
vn -0.531878 0.246897 -0.810030
vn -0.531878 0.246897 -0.810030
vn -0.163722 -0.655937 -0.736846
vn -0.163722 -0.655937 -0.736846
vn -0.163722 -0.655937 -0.736846
vn 0.641214 -0.442107 -0.627204
vn 0.641214 -0.442107 -0.627204
vn 0.641214 -0.442107 -0.627204
vn 0.690858 0.175398 -0.701392
vn 0.690858 0.175398 -0.701392
vn 0.690858 0.175398 -0.701392
vn 0.018099 -0.763555 0.645490
vn 0.018099 -0.763555 0.645490
vn 0.018099 -0.763555 0.645490
vn -0.691437 -0.220381 0.688002
vn -0.691437 -0.220381 0.688002
vn -0.691437 -0.220381 0.688002
vn 0.245199 -0.623698 0.742212
vn 0.245199 -0.623698 0.742212
vn 0.245199 -0.623698 0.742212
vn 0.140499 -0.090400 0.985945
vn 0.140499 -0.090400 0.985945
vn 0.140499 -0.090400 0.985945
vn -0.639317 -0.083368 0.764411
vn -0.639317 -0.083368 0.764411
vn -0.639317 -0.083368 0.764411
vn -0.995636 -0.092786 -0.010002
vn -0.995636 -0.092786 -0.010002
vn -0.995636 -0.092786 -0.010002
vn 0.113076 -0.986687 0.116886
vn 0.113076 -0.986687 0.116886
vn 0.113076 -0.986687 0.116886
vn 0.736048 -0.579821 0.349344
vn 0.736048 -0.579821 0.349344
vn 0.736048 -0.579821 0.349344
vn 0.617895 0.636591 0.461474
vn 0.617895 0.636591 0.461474
vn 0.617895 0.636591 0.461474
vn -0.735403 0.586918 0.338687
vn -0.735403 0.586918 0.338687
vn -0.735403 0.586918 0.338687
vn -0.607372 -0.562027 -0.561450
vn -0.607372 -0.562027 -0.561450
vn -0.607372 -0.562027 -0.561450
vn 0.516497 -0.845891 -0.133036
vn 0.516497 -0.845891 -0.133036
vn 0.516497 -0.845891 -0.133036
vn 0.870447 0.479360 0.111963
vn 0.870447 0.479360 0.111963
vn 0.870447 0.479360 0.111963
vn 0.020359 0.990431 0.136501
vn 0.020359 0.990431 0.136501
vn 0.020359 0.990431 0.136501
vn -0.946394 0.198410 -0.254896
vn -0.946394 0.198410 -0.254896
vn -0.946394 0.198410 -0.254896
vn -0.371372 -0.117171 -0.921061
vn -0.371372 -0.117171 -0.921061
vn -0.371372 -0.117171 -0.921061
vn 0.369649 -0.216388 -0.903624
vn 0.369649 -0.216388 -0.903624
vn 0.369649 -0.216388 -0.903624
vn 0.701084 0.560762 -0.440484
vn 0.701084 0.560762 -0.440484
vn 0.701084 0.560762 -0.440484
vn 0.149487 0.879952 -0.450931
vn 0.149487 0.879952 -0.450931
vn 0.149487 0.879952 -0.450931
vn -0.607993 0.244474 -0.755365
vn -0.607993 0.244474 -0.755365
vn -0.607993 0.244474 -0.755365
vn -0.187462 -0.892228 0.410838
vn -0.187462 -0.892228 0.410838
vn -0.187462 -0.892228 0.410838
vn -0.533812 -0.225868 0.814880
vn -0.533812 -0.225868 0.814880
vn -0.533812 -0.225868 0.814880
vn 0.362993 -0.731750 0.576869
vn 0.362993 -0.731750 0.576869
vn 0.362993 -0.731750 0.576869
vn 0.524363 -0.185804 0.830975
vn 0.524363 -0.185804 0.830975
vn 0.524363 -0.185804 0.830975
vn 0.213465 0.014154 0.976848
vn 0.213465 0.014154 0.976848
vn 0.213465 0.014154 0.976848
vn -0.957005 0.249658 0.147693
vn -0.957005 0.249658 0.147693
vn -0.957005 0.249658 0.147693
vn -0.458568 -0.875384 -0.153031
vn -0.458568 -0.875384 -0.153031
vn -0.458568 -0.875384 -0.153031
vn 0.752567 -0.656947 0.045429
vn 0.752567 -0.656947 0.045429
vn 0.752567 -0.656947 0.045429
vn 0.857169 0.025356 0.514411
vn 0.857169 0.025356 0.514411
vn 0.857169 0.025356 0.514411
vn -0.072518 0.923268 0.377250
vn -0.072518 0.923268 0.377250
vn -0.072518 0.923268 0.377250
vn -0.909469 -0.133475 -0.393764
vn -0.909469 -0.133475 -0.393764
vn -0.909469 -0.133475 -0.393764
vn 0.128595 -0.889137 -0.439202
vn 0.128595 -0.889137 -0.439202
vn 0.128595 -0.889137 -0.439202
vn 0.915412 -0.401686 0.025865
vn 0.915412 -0.401686 0.025865
vn 0.915412 -0.401686 0.025865
vn 0.516268 0.844307 0.143573
vn 0.516268 0.844307 0.143573
vn 0.516268 0.844307 0.143573
vn -0.608534 0.793133 -0.025037
vn -0.608534 0.793133 -0.025037
vn -0.608534 0.793133 -0.025037
vn -0.723410 0.244777 -0.645571
vn -0.723410 0.244777 -0.645571
vn -0.723410 0.244777 -0.645571
vn 0.159030 -0.069613 -0.984816
vn 0.159030 -0.069613 -0.984816
vn 0.159030 -0.069613 -0.984816
vn 0.553719 0.195496 -0.809430
vn 0.553719 0.195496 -0.809430
vn 0.553719 0.195496 -0.809430
vn 0.305911 0.825410 -0.474465
vn 0.305911 0.825410 -0.474465
vn 0.305911 0.825410 -0.474465
vn -0.542993 0.724023 -0.425383
vn -0.542993 0.724023 -0.425383
vn -0.542993 0.724023 -0.425383
vn 0.485536 -0.371390 0.791407
vn 0.485536 -0.371390 0.791407
vn 0.485536 -0.371390 0.791407
vn 0.318158 0.354556 0.879241
vn 0.318158 0.354556 0.879241
vn 0.318158 0.354556 0.879241
vn 0.725547 -0.449512 0.521076
vn 0.725547 -0.449512 0.521076
vn 0.725547 -0.449512 0.521076
vn 0.994505 0.104637 -0.003451
vn 0.994505 0.104637 -0.003451
vn 0.994505 0.104637 -0.003451
vn 0.599714 0.764431 0.236619
vn 0.599714 0.764431 0.236619
vn 0.599714 0.764431 0.236619
vn -0.535070 0.645737 0.544724
vn -0.535070 0.645737 0.544724
vn -0.535070 0.645737 0.544724
vn -0.208186 -0.638545 0.740891
vn -0.208186 -0.638545 0.740891
vn -0.208186 -0.638545 0.740891
vn 0.465005 -0.879487 0.101362
vn 0.465005 -0.879487 0.101362
vn 0.465005 -0.879487 0.101362
vn 0.879262 0.057347 -0.472874
vn 0.879262 0.057347 -0.472874
vn 0.879262 0.057347 -0.472874
vn 0.223819 0.974374 0.022372
vn 0.223819 0.974374 0.022372
vn 0.223819 0.974374 0.022372
vn -0.865188 0.058024 0.498079
vn -0.865188 0.058024 0.498079
vn -0.865188 0.058024 0.498079
vn -0.151259 -0.965848 0.210377
vn -0.151259 -0.965848 0.210377
vn -0.151259 -0.965848 0.210377
vn 0.584961 -0.535599 -0.609060
vn 0.584961 -0.535599 -0.609060
vn 0.584961 -0.535599 -0.609060
vn 0.408310 0.605073 -0.683498
vn 0.408310 0.605073 -0.683498
vn 0.408310 0.605073 -0.683498
vn -0.516683 0.831346 0.204701
vn -0.516683 0.831346 0.204701
vn -0.516683 0.831346 0.204701
vn -0.992891 0.118194 0.014044
vn -0.992891 0.118194 0.014044
vn -0.992891 0.118194 0.014044
vn -0.715931 -0.586290 -0.379088
vn -0.715931 -0.586290 -0.379088
vn -0.715931 -0.586290 -0.379088
vn -0.345146 -0.416719 -0.840964
vn -0.345146 -0.416719 -0.840964
vn -0.345146 -0.416719 -0.840964
vn -0.376945 0.336636 -0.862895
vn -0.376945 0.336636 -0.862895
vn -0.376945 0.336636 -0.862895
vn -0.863986 0.489567 -0.117695
vn -0.863986 0.489567 -0.117695
vn -0.863986 0.489567 -0.117695
vn 0.016222 0.053185 0.998453
vn -0.708162 0.142959 0.691426
vn -0.700869 0.104342 0.705617
vn 0.001221 0.106863 0.994273
vn -0.998865 -0.047353 -0.005040
vn -0.654185 -0.026432 0.755872
vn -0.550928 -0.317533 0.771784
vn -0.956777 -0.287067 -0.046591
vn -0.998865 -0.047353 -0.005040
vn -0.666379 -0.010807 -0.745535
vn -0.883325 0.284583 -0.372492
vn -0.996265 0.076162 -0.040685
vn -0.666379 -0.010807 -0.745535
vn -0.998865 -0.047353 -0.005040
vn -0.956777 -0.287067 -0.046591
vn -0.571674 0.066243 -0.817802
vn -0.654185 -0.026432 0.755872
vn 0.100821 -0.018244 0.994737
vn 0.292102 0.020998 0.956157
vn -0.550928 -0.317533 0.771784
vn 0.813820 -0.579239 0.046670
vn 0.592557 -0.093941 0.800032
vn 0.686309 -0.035896 0.726423
vn 0.999393 -0.017184 -0.030290
vn 0.592557 -0.093941 0.800032
vn 0.100821 -0.018244 0.994737
vn 0.078968 -0.004012 0.996869
vn 0.686309 -0.035896 0.726423
vn -0.666379 -0.010807 -0.745535
vn -0.158787 -0.049942 -0.986049
vn -0.064247 0.787293 -0.613223
vn -0.883325 0.284583 -0.372492
vn 0.999393 -0.017184 -0.030290
vn 0.686309 -0.035896 0.726423
vn 0.686088 -0.004111 0.727507
vn 0.997840 -0.045728 -0.047159
vn 0.867363 0.200987 -0.455286
vn 0.999393 -0.017184 -0.030290
vn 0.997840 -0.045728 -0.047159
vn 0.771735 -0.182714 -0.609132
vn -0.799014 0.526835 0.289866
vn -0.858200 -0.340417 -0.384199
vn -0.825103 -0.027541 -0.564311
vn -0.883325 0.284583 -0.372492
vn 0.078968 -0.004012 0.996869
vn -0.660989 0.042919 0.749168
vn -0.708162 0.142959 0.691426
vn 0.016222 0.053185 0.998453
vn -0.660989 0.042919 0.749168
vn -0.996265 0.076162 -0.040685
vn -0.983100 0.173910 -0.057191
vn -0.708162 0.142959 0.691426
vn -0.036038 -0.692602 -0.720419
vn 0.772623 -0.461336 -0.436146
vn 0.771735 -0.182714 -0.609132
vn -0.016369 -0.575985 -0.817296
vn 0.686309 -0.035896 0.726423
vn 0.078968 -0.004012 0.996869
vn 0.016222 0.053185 0.998453
vn 0.686088 -0.004111 0.727507
vn -0.996265 0.076162 -0.040685
vn -0.883325 0.284583 -0.372492
vn -0.825103 -0.027541 -0.564311
vn -0.983100 0.173910 -0.057191
vn -0.048624 0.752532 -0.656759
vn -0.048624 0.752531 -0.656759
vn -0.048624 0.752531 -0.656759
vn -0.048624 0.752532 -0.656759
vn -0.048624 0.752531 -0.656759
vn -0.048624 0.752531 -0.656759
vn -0.048624 0.752531 -0.656759
vn -0.048624 0.752531 -0.656759
vn 0.035640 0.830928 0.555237
vn -0.799014 0.526835 0.289866
vn -0.883325 0.284583 -0.372492
vn -0.064247 0.787293 -0.613223
vn 0.035640 0.830928 0.555237
vn 0.894673 0.416180 0.162343
vn 0.840632 0.378305 0.387585
vn 0.101866 0.618211 0.779384
vn 0.894673 0.416180 0.162343
vn 0.772623 -0.461336 -0.436146
vn 0.863826 -0.183120 -0.469331
vn 0.840632 0.378305 0.387585
vn -0.858200 -0.340417 -0.384199
vn -0.036038 -0.692602 -0.720419
vn -0.016369 -0.575985 -0.817296
vn -0.825103 -0.027541 -0.564311
vn -0.858200 -0.340417 -0.384199
vn -0.799014 0.526835 0.289866
vn -0.711839 0.469948 0.521953
vn -0.918958 -0.103312 -0.380583
vn 0.894673 0.416180 0.162343
vn 0.035640 0.830928 0.555237
vn -0.064247 0.787293 -0.613223
vn 0.867363 0.200987 -0.455286
vn 0.772623 -0.461336 -0.436146
vn -0.036038 -0.692602 -0.720419
vn -0.019112 -0.454368 -0.890609
vn 0.863826 -0.183120 -0.469331
vn -0.799014 0.526835 0.289866
vn 0.035640 0.830928 0.555237
vn 0.101866 0.618211 0.779384
vn -0.711839 0.469948 0.521953
vn -0.036038 -0.692602 -0.720419
vn -0.858200 -0.340417 -0.384199
vn -0.918958 -0.103312 -0.380583
vn -0.019112 -0.454368 -0.890609
vn 0.772623 -0.461336 -0.436146
vn 0.894673 0.416180 0.162343
vn 0.867363 0.200987 -0.455286
vn 0.771735 -0.182714 -0.609132
vn 0.437441 0.440268 -0.784098
vn 0.388834 0.541965 -0.745038
vn -0.093535 0.333626 -0.938054
vn -0.079863 0.183243 -0.979818
s off
g ClownTree
usemtl aiStandardSurface3SG
f 18/2/1 10/167/2 4/168/3 14/162/4
f 10/3/5 3/164/6 7/7/7 12/8/8
f 9/166/9 2/161/10 6/33/11 11/35/12
f 14/5/13 4/4/14 8/36/15 16/38/16
f 13/163/17 1/165/18 5/171/19 15/43/20
f 22/70/21 27/71/22 31/72/23 19/73/24
f 33/204/25 27/71/26 22/70/27 21/206/28
f 23/76/29 20/77/30 34/78/31 42/79/32
f 68/80/33 139/169/34 11/35/35 6/33/36
f 24/82/37 29/83/38 26/84/39 23/76/40
f 1/173/41 9/166/42 11/35/43 5/42/44
f 4/4/45 10/3/46 12/8/47 8/36/48
f 13/39/49 3/6/50 10/167/51 18/2/52
f 1/41/53 13/39/54 18/2/55 9/9/56
f 65/87/57 38/89/58 19/73/59 17/90/60
f 136/91/61 140/92/62 12/8/63 7/7/64
f 25/93/65 17/90/66 32/94/67 30/95/68
f 3/164/69 13/163/70 15/43/71 7/7/72
f 2/161/73 14/5/74 16/38/75 6/33/76
f 9/9/77 18/2/78 14/182/79 2/10/80
f 21/206/81 22/70/82 40/96/83 37/203/84
f 64/98/85 65/87/86 17/90/87 25/93/88
f 19/73/89 31/72/90 32/94/91 17/90/92
f 22/70/93 19/73/94 38/89/95 40/96/96
f 42/79/97 66/99/98 24/82/99 23/76/100
f 24/82/101 25/93/102 30/95/103 29/83/104
f 28/100/105 33/74/106 21/75/107 20/77/108
f 40/96/109 38/89/110 52/101/111 49/102/112
f 35/181/113 41/177/114 50/108/115 45/109/116
f 138/110/117 136/91/118 7/7/119 15/43/120
f 37/203/121 40/96/122 49/102/123 47/111/124
f 43/112/125 134/176/126 146/114/127 144/115/128
f 36/202/129 35/181/130 45/109/131 46/119/132
f 137/172/133 138/110/134 15/43/135 5/171/136
f 53/121/137 48/122/138 58/123/139 63/124/140
f 52/101/141 53/121/142 63/124/143 62/125/144
f 48/122/145 46/201/146 56/196/147 58/123/148
f 49/102/149 52/101/150 62/125/151 59/127/152
f 39/179/153 36/180/154 46/201/155 48/122/156
f 38/89/157 43/178/158 53/121/159 52/101/160
f 43/178/161 39/179/162 48/122/163 53/121/164
f 34/78/165 37/97/166 47/200/167 44/129/168
f 41/177/169 42/79/170 51/130/171 50/108/172
f 42/79/173 34/78/174 44/129/175 51/130/176
f 66/99/177 64/98/178 25/93/179 24/82/180
f 44/129/181 47/200/182 57/199/183 54/132/184
f 50/108/185 51/130/186 61/133/187 60/134/188
f 51/130/189 44/129/190 54/132/191 61/133/192
f 46/119/193 45/109/194 55/135/195 56/126/196
f 47/111/197 49/102/198 59/127/199 57/131/200
f 45/109/201 50/108/202 60/134/203 55/135/204
f 37/97/205 34/78/206 20/77/207 21/75/208
f 66/99/209 42/79/210 41/177/211 133/175/212
f 35/105/213 36/116/214 142/137/215 143/185/216
f 134/176/217 135/174/218 148/140/219 146/114/220
f 41/107/221 35/105/222 143/185/223 145/186/224
f 67/142/225 69/143/226 16/38/227 8/36/228
f 139/169/229 137/170/230 5/42/231 11/35/232
f 59/127/233 62/125/234 70/198/235 57/131/236
f 62/125/237 63/124/238 71/197/239 70/198/240
f 63/124/241 58/123/242 56/196/243 71/197/244
f 57/199/245 70/144/246 61/133/247 54/132/248
f 70/144/249 71/145/250 60/134/251 61/133/252
f 71/145/253 56/126/254 55/135/255 60/134/256
f 32/94/257 72/146/258 29/83/259 30/95/260
f 72/146/261 28/100/262 26/84/263 29/83/264
f 31/72/265 27/71/266 72/146/267 32/94/268
f 27/71/269 33/205/270 28/100/271 72/146/272
f 69/143/273 68/80/274 6/33/275 16/38/276
usemtl aiStandardSurface4SG
f 73/1/277 74/215/278 75/12/279
f 74/215/280 73/1/281 78/213/282
f 73/1/283 75/12/284 76/14/285
f 73/1/286 76/14/287 77/15/288
f 73/1/289 77/15/290 78/13/291
f 74/11/292 78/214/293 83/16/294
f 75/12/295 74/215/296 79/17/297
f 76/14/298 75/12/299 80/18/300
f 77/15/301 76/14/302 81/209/303
f 78/13/304 77/15/305 82/212/306
f 74/11/307 83/16/308 79/17/309
f 75/12/310 79/17/311 80/18/312
f 76/14/313 80/18/314 81/208/315
f 77/15/316 81/210/317 82/212/318
f 78/214/319 82/20/320 83/16/321
f 79/17/322 83/16/323 84/21/324
f 80/18/325 79/17/326 84/21/327
f 81/19/328 80/18/329 84/21/330
f 82/20/331 81/211/332 84/21/333
f 83/16/334 82/20/335 84/21/336
f 85/22/337 86/224/338 87/221/339
f 86/222/340 85/22/341 90/25/342
f 85/22/343 87/221/344 88/26/345
f 85/22/346 88/26/347 89/220/348
f 85/22/349 89/220/350 90/25/351
f 86/23/352 90/25/353 95/28/354
f 87/223/355 86/23/356 91/29/357
f 88/26/358 87/221/359 92/218/360
f 89/220/361 88/26/362 93/31/363
f 90/25/364 89/220/365 94/32/366
f 86/23/367 95/28/368 91/29/369
f 87/24/370 91/29/371 92/30/372
f 88/26/373 92/219/374 93/31/375
f 89/27/376 93/217/377 94/32/378
f 90/25/379 94/32/380 95/28/381
f 91/29/382 95/28/383 96/34/384
f 92/30/385 91/29/386 96/34/387
f 93/31/388 92/219/389 96/216/390
f 94/32/391 93/217/392 96/34/393
f 95/28/394 94/32/395 96/34/396
f 97/37/397 98/229/398 99/44/399
f 98/229/400 97/37/401 102/45/402
f 97/37/403 99/44/404 100/46/405
f 97/37/406 100/46/407 101/47/408
f 97/37/409 101/47/410 102/45/411
f 98/229/412 102/45/413 107/226/414
f 99/44/415 98/229/416 103/228/417
f 100/46/418 99/44/419 104/50/420
f 101/47/421 100/46/422 105/227/423
f 102/45/424 101/47/425 106/230/426
f 98/40/427 107/48/428 103/49/429
f 99/44/430 103/49/431 104/50/432
f 100/46/433 104/50/434 105/51/435
f 101/47/436 105/227/437 106/225/438
f 102/45/439 106/231/440 107/226/441
f 103/49/442 107/48/443 108/53/444
f 104/50/445 103/49/446 108/53/447
f 105/51/448 104/50/449 108/53/450
f 106/52/451 105/51/452 108/53/453
f 107/48/454 106/232/455 108/53/456
f 109/54/457 110/244/458 111/245/459
f 110/244/460 109/54/461 114/57/462
f 109/54/463 111/249/464 112/243/465
f 109/54/466 112/243/467 113/59/468
f 109/54/469 113/59/470 114/57/471
f 110/244/472 114/57/473 119/246/474
f 111/252/475 110/55/476 115/61/477
f 112/251/478 111/56/479 116/62/480
f 113/59/481 112/243/482 117/248/483
f 114/57/484 113/59/485 118/64/486
f 110/55/487 119/247/488 115/61/489
f 111/56/490 115/61/491 116/62/492
f 112/58/493 116/62/494 117/63/495
f 113/59/496 117/250/497 118/64/498
f 114/57/499 118/64/500 119/60/501
f 115/61/502 119/247/503 120/65/504
f 116/62/505 115/61/506 120/65/507
f 117/63/508 116/62/509 120/65/510
f 118/64/511 117/63/512 120/65/513
f 119/60/514 118/64/515 120/65/516
f 121/236/517 122/67/518 123/240/519
f 122/67/520 121/236/521 126/69/522
f 121/66/523 123/241/524 124/85/525
f 121/66/526 124/85/527 125/238/528
f 121/236/529 125/234/530 126/69/531
f 122/67/532 126/69/533 131/88/534
f 123/235/535 122/67/536 127/237/537
f 124/85/538 123/242/539 128/104/540
f 125/238/541 124/85/542 129/106/543
f 126/69/544 125/239/545 130/117/546
f 122/67/547 131/88/548 127/237/549
f 123/68/550 127/233/551 128/104/552
f 124/85/553 128/104/554 129/106/555
f 125/86/556 129/106/557 130/117/558
f 126/69/559 130/117/560 131/88/561
f 127/103/562 131/88/563 132/118/564
f 128/104/565 127/233/566 132/118/567
f 129/106/568 128/104/569 132/118/570
f 130/117/571 129/106/572 132/118/573
f 131/88/574 130/117/575 132/118/576
usemtl aiStandardSurface3SG
f 140/92/577 67/142/578 8/36/579 12/8/580
f 135/139/581 134/207/582 65/87/583 64/98/584
f 135/174/585 133/136/586 147/184/587 148/140/588
f 133/175/589 135/139/590 64/98/591 66/99/592
f 134/113/593 43/178/594 38/89/595 65/87/596
f 36/116/597 39/128/598 141/148/599 142/137/600
f 39/128/601 43/112/602 144/115/603 141/148/604
f 133/136/605 41/191/606 145/190/607 147/184/608
f 142/137/609 141/148/610 136/91/611 138/110/612
f 143/185/613 142/137/614 138/110/615 137/172/616
f 158/149/617 159/150/618 68/183/619 147/147/620
f 144/115/621 146/114/622 67/142/623 140/92/624
f 146/114/625 148/140/626 69/143/627 67/142/628
f 155/187/629 156/152/630 137/120/631 139/189/632
f 141/148/633 144/115/634 140/92/635 136/91/636
f 148/140/637 147/184/638 68/80/639 69/143/640
f 154/153/641 149/194/642 150/188/643 152/156/644
f 149/195/645 153/157/646 151/158/647 150/192/648
f 157/159/649 158/149/650 147/147/651 145/141/652
f 157/159/653 160/160/654 153/157/655 149/154/656
f 160/160/657 156/152/658 151/158/659 153/157/660
f 159/150/661 155/151/662 139/81/663 68/183/664
f 159/150/665 158/149/666 154/153/667 152/156/668
f 160/160/669 157/159/670 145/141/671 143/138/672
f 156/152/673 155/187/674 150/155/675 151/158/676
f 158/149/677 157/159/678 149/154/679 154/153/680
f 155/151/681 159/150/682 152/156/683 150/193/684
f 156/152/685 160/160/686 143/138/687 137/120/688
f 28/100/689 20/77/690 23/76/691 26/84/692
