# This file uses centimeters as units for non-parametric coordinates.

mtllib KitchenFridge.mtl
g default
v -0.032305 0.068862 0.150102
v -0.018714 0.068862 0.150102
v -0.032305 0.402964 0.150102
v -0.018714 0.402964 0.150102
v -0.032305 0.402964 0.133935
v -0.018714 0.402964 0.133935
v -0.032305 0.068862 0.133935
v -0.018714 0.068862 0.133935
v -0.032305 0.383985 0.150102
v -0.032305 0.383985 0.133935
v -0.018714 0.383985 0.133935
v -0.018714 0.383985 0.150102
v -0.032305 0.088805 0.150102
v -0.032305 0.088805 0.133935
v -0.018714 0.088805 0.133935
v -0.018714 0.088805 0.150102
v -0.032305 0.088805 0.120681
v -0.018714 0.088805 0.120681
v -0.018714 0.068862 0.120681
v -0.032305 0.068862 0.120681
v -0.032305 0.402964 0.120681
v -0.018714 0.402964 0.120681
v -0.018714 0.383985 0.120681
v -0.032305 0.383985 0.120681
v 0.012226 0.068862 0.150102
v 0.025817 0.068862 0.150102
v 0.012226 0.402964 0.150102
v 0.025817 0.402964 0.150102
v 0.012226 0.402964 0.133935
v 0.025817 0.402964 0.133935
v 0.012226 0.068862 0.133935
v 0.025817 0.068862 0.133935
v 0.012226 0.383985 0.150102
v 0.012226 0.383985 0.133935
v 0.025817 0.383985 0.133935
v 0.025817 0.383985 0.150102
v 0.012226 0.088805 0.150102
v 0.012226 0.088805 0.133935
v 0.025817 0.088805 0.133935
v 0.025817 0.088805 0.150102
v 0.012226 0.088805 0.120681
v 0.025817 0.088805 0.120681
v 0.025817 0.068862 0.120681
v 0.012226 0.068862 0.120681
v 0.012226 0.402964 0.120681
v 0.025817 0.402964 0.120681
v 0.025817 0.383985 0.120681
v 0.012226 0.383985 0.120681
v -0.146516 0.001870 0.121280
v 0.146516 0.001870 0.121280
v -0.146516 0.469988 0.121280
v 0.146516 0.469988 0.121280
v -0.146516 0.469988 0.101331
v 0.146516 0.469988 0.101331
v -0.146516 0.001870 0.101331
v 0.146516 0.001870 0.101331
v -0.004668 0.001870 0.121280
v -0.004668 0.469988 0.121280
v -0.004668 0.469988 0.101331
v -0.004668 0.001870 0.101331
v -0.002491 0.001870 0.121280
v -0.002491 0.469988 0.121280
v -0.002491 0.469988 0.101331
v -0.002491 0.001870 0.101331
vt 0.146806 0.049161
vt 0.175587 0.049126
vt 0.183412 0.103642
vt 0.139031 0.103634
vt 0.136081 0.963086
vt 0.186253 0.963104
vt 0.243380 0.960503
vt 0.302372 0.054221
vt 0.303250 0.915226
vt 0.277816 0.110266
vt 0.171009 0.018888
vt 0.033229 0.056109
vt 0.078015 0.047463
vt 0.172175 0.027330
vt 0.237130 0.103653
vt 0.302736 0.877531
vt 0.084094 0.908063
vt 0.138295 0.908418
vt 0.302872 0.092714
vt 0.288182 0.956041
vt 0.342262 0.137461
vt 0.039602 0.903612
vt 0.184085 0.908426
vt 0.342136 0.175932
vt 0.034248 0.955990
vt 0.302909 0.137388
vt 0.302712 0.175916
vt 0.342339 0.092603
vt 0.282825 0.903616
vt 0.238293 0.908081
vt 0.342388 0.053987
vt 0.079004 0.960458
vt 0.044682 0.110245
vt 0.341872 0.915136
vt 0.342097 0.877515
vt 0.085322 0.103648
vt 0.342272 0.005924
vt 0.301826 0.006143
vt 0.149076 0.027330
vt 0.150222 0.018905
vt 0.244439 0.047421
vt 0.289277 0.056075
vt 0.146806 0.049161
vt 0.175587 0.049126
vt 0.183412 0.103642
vt 0.139031 0.103634
vt 0.301826 0.006143
vt 0.342272 0.005924
vt 0.342388 0.053987
vt 0.302372 0.054221
vt 0.149076 0.027330
vt 0.172175 0.027330
vt 0.244439 0.047421
vt 0.237130 0.103653
vt 0.078015 0.047463
vt 0.085322 0.103648
vt 0.084094 0.908063
vt 0.138295 0.908418
vt 0.136081 0.963086
vt 0.079004 0.960458
vt 0.184085 0.908426
vt 0.238293 0.908081
vt 0.243380 0.960503
vt 0.186253 0.963104
vt 0.302712 0.175916
vt 0.342136 0.175932
vt 0.342097 0.877515
vt 0.302736 0.877531
vt 0.341872 0.915136
vt 0.303250 0.915226
vt 0.289277 0.056075
vt 0.277816 0.110266
vt 0.150222 0.018905
vt 0.171009 0.018888
vt 0.044682 0.110245
vt 0.033229 0.056109
vt 0.342339 0.092603
vt 0.302872 0.092714
vt 0.282825 0.903616
vt 0.288182 0.956041
vt 0.302909 0.137388
vt 0.342262 0.137461
vt 0.034248 0.955990
vt 0.039602 0.903612
vt 0.068658 0.353671
vt 0.320675 0.353671
vt 0.320675 0.942109
vt 0.068658 0.942109
vt 0.320675 0.983053
vt 0.068658 0.983053
vt 0.354234 0.363339
vt 0.606251 0.363339
vt 0.606251 0.937714
vt 0.354234 0.937714
vt 0.068658 0.312728
vt 0.320675 0.312728
vt 0.925383 0.299893
vt 0.925297 0.321873
vt 0.341388 0.319581
vt 0.341475 0.297601
vt 0.046644 0.353671
vt 0.046644 0.942109
vt 0.342499 0.036578
vt 0.926408 0.038870
vt 0.302300 0.036420
vt 0.301275 0.297443
vt 0.634385 0.936761
vt 0.631672 0.356699
vt 0.892694 0.355478
vt 0.895408 0.935540
vt 0.966611 0.039028
vt 0.965587 0.300051
vt 0.341700 0.942109
vt 0.341700 0.353671
vt 0.342582 0.015499
vt 0.926491 0.017791
vn 0.000000 0.000000 1.000000
vn 0.000000 0.000000 1.000000
vn 0.000000 0.000000 1.000000
vn 0.000000 0.000000 1.000000
vn 0.000000 1.000000 0.000000
vn 0.000000 1.000000 0.000000
vn 0.000000 1.000000 0.000000
vn 0.000000 1.000000 0.000000
vn 0.000000 -1.000000 0.000000
vn 0.000000 -1.000000 0.000000
vn 0.000000 -1.000000 0.000000
vn 0.000000 -1.000000 0.000000
vn 1.000000 0.000000 0.000000
vn 1.000000 0.000000 0.000000
vn 1.000000 0.000000 0.000000
vn 1.000000 0.000000 0.000000
vn -1.000000 0.000000 0.000000
vn -1.000000 0.000000 0.000000
vn -1.000000 0.000000 0.000000
vn -1.000000 0.000000 0.000000
vn -1.000000 0.000000 0.000000
vn -1.000000 0.000000 0.000000
vn -1.000000 0.000000 0.000000
vn -1.000000 0.000000 0.000000
vn 1.000000 0.000000 0.000000
vn 1.000000 0.000000 0.000000
vn 1.000000 0.000000 0.000000
vn 1.000000 0.000000 0.000000
vn 0.000000 0.000000 1.000000
vn 0.000000 0.000000 1.000000
vn 0.000000 0.000000 1.000000
vn 0.000000 0.000000 1.000000
vn 0.000000 0.000000 -1.000000
vn 0.000000 0.000000 -1.000000
vn 0.000000 0.000000 -1.000000
vn 0.000000 0.000000 -1.000000
vn 0.000000 1.000000 0.000000
vn 0.000000 1.000000 0.000000
vn 0.000000 1.000000 0.000000
vn 0.000000 1.000000 0.000000
vn 1.000000 0.000000 0.000000
vn 1.000000 0.000000 0.000000
vn 1.000000 0.000000 0.000000
vn 1.000000 0.000000 0.000000
vn 0.000000 -1.000000 0.000000
vn 0.000000 -1.000000 0.000000
vn 0.000000 -1.000000 0.000000
vn 0.000000 -1.000000 0.000000
vn -1.000000 0.000000 0.000000
vn -1.000000 0.000000 0.000000
vn -1.000000 0.000000 0.000000
vn -1.000000 0.000000 0.000000
vn 0.000000 1.000000 0.000000
vn 0.000000 1.000000 0.000000
vn 0.000000 1.000000 0.000000
vn 0.000000 1.000000 0.000000
vn 1.000000 0.000000 0.000000
vn 1.000000 0.000000 0.000000
vn 1.000000 0.000000 0.000000
vn 1.000000 0.000000 0.000000
vn 0.000000 -1.000000 0.000000
vn 0.000000 -1.000000 0.000000
vn 0.000000 -1.000000 0.000000
vn 0.000000 -1.000000 0.000000
vn -1.000000 0.000000 0.000000
vn -1.000000 0.000000 0.000000
vn -1.000000 0.000000 0.000000
vn -1.000000 0.000000 0.000000
vn 0.000000 0.000000 1.000000
vn 0.000000 0.000000 1.000000
vn 0.000000 0.000000 1.000000
vn 0.000000 0.000000 1.000000
vn 0.000000 1.000000 0.000000
vn 0.000000 1.000000 0.000000
vn 0.000000 1.000000 0.000000
vn 0.000000 1.000000 0.000000
vn 0.000000 -1.000000 0.000000
vn 0.000000 -1.000000 0.000000
vn 0.000000 -1.000000 0.000000
vn 0.000000 -1.000000 0.000000
vn 1.000000 0.000000 0.000000
vn 1.000000 0.000000 0.000000
vn 1.000000 0.000000 0.000000
vn 1.000000 0.000000 0.000000
vn -1.000000 0.000000 0.000000
vn -1.000000 0.000000 0.000000
vn -1.000000 0.000000 0.000000
vn -1.000000 0.000000 0.000000
vn -1.000000 0.000000 0.000000
vn -1.000000 0.000000 0.000000
vn -1.000000 0.000000 0.000000
vn -1.000000 0.000000 0.000000
vn 1.000000 0.000000 0.000000
vn 1.000000 0.000000 0.000000
vn 1.000000 0.000000 0.000000
vn 1.000000 0.000000 0.000000
vn 0.000000 0.000000 1.000000
vn 0.000000 0.000000 1.000000
vn 0.000000 0.000000 1.000000
vn 0.000000 0.000000 1.000000
vn 0.000000 0.000000 -1.000000
vn 0.000000 0.000000 -1.000000
vn 0.000000 0.000000 -1.000000
vn 0.000000 0.000000 -1.000000
vn 0.000000 1.000000 0.000000
vn 0.000000 1.000000 0.000000
vn 0.000000 1.000000 0.000000
vn 0.000000 1.000000 0.000000
vn 1.000000 0.000000 0.000000
vn 1.000000 0.000000 0.000000
vn 1.000000 0.000000 0.000000
vn 1.000000 0.000000 0.000000
vn 0.000000 -1.000000 0.000000
vn 0.000000 -1.000000 0.000000
vn 0.000000 -1.000000 0.000000
vn 0.000000 -1.000000 0.000000
vn -1.000000 0.000000 0.000000
vn -1.000000 0.000000 0.000000
vn -1.000000 0.000000 0.000000
vn -1.000000 0.000000 0.000000
vn 0.000000 1.000000 0.000000
vn 0.000000 1.000000 0.000000
vn 0.000000 1.000000 0.000000
vn 0.000000 1.000000 0.000000
vn 1.000000 0.000000 0.000000
vn 1.000000 0.000000 0.000000
vn 1.000000 0.000000 0.000000
vn 1.000000 0.000000 0.000000
vn 0.000000 -1.000000 0.000000
vn 0.000000 -1.000000 0.000000
vn 0.000000 -1.000000 0.000000
vn 0.000000 -1.000000 0.000000
vn -1.000000 0.000000 0.000000
vn -1.000000 0.000000 0.000000
vn -1.000000 0.000000 0.000000
vn -1.000000 0.000000 0.000000
vn 0.000000 0.000000 1.000000
vn 0.000000 0.000000 1.000000
vn 0.000000 0.000000 1.000000
vn 0.000000 0.000000 1.000000
vn 0.000000 1.000000 0.000000
vn 0.000000 1.000000 0.000000
vn 0.000000 1.000000 0.000000
vn 0.000000 1.000000 0.000000
vn 0.000000 0.000000 -1.000000
vn 0.000000 0.000000 -1.000000
vn 0.000000 0.000000 -1.000000
vn 0.000000 0.000000 -1.000000
vn 0.000000 -1.000000 0.000000
vn 0.000000 -1.000000 0.000000
vn 0.000000 -1.000000 0.000000
vn 0.000000 -1.000000 0.000000
vn 1.000000 0.000000 0.000000
vn 1.000000 0.000000 0.000000
vn 1.000000 0.000000 0.000000
vn 1.000000 0.000000 0.000000
vn -1.000000 0.000000 0.000000
vn -1.000000 0.000000 0.000000
vn -1.000000 0.000000 0.000000
vn -1.000000 0.000000 0.000000
vn 0.000000 0.000000 1.000000
vn 0.000000 0.000000 1.000000
vn 0.000000 0.000000 1.000000
vn 0.000000 0.000000 1.000000
vn 0.000000 1.000000 0.000000
vn 0.000000 1.000000 0.000000
vn 0.000000 1.000000 0.000000
vn 0.000000 1.000000 0.000000
vn 0.000000 0.000000 -1.000000
vn 0.000000 0.000000 -1.000000
vn 0.000000 0.000000 -1.000000
vn 0.000000 0.000000 -1.000000
vn 0.000000 -1.000000 0.000000
vn 0.000000 -1.000000 0.000000
vn 0.000000 -1.000000 0.000000
vn 0.000000 -1.000000 0.000000
vn 1.000000 0.000000 0.000000
vn 1.000000 0.000000 0.000000
vn 1.000000 0.000000 0.000000
vn 1.000000 0.000000 0.000000
vn -1.000000 0.000000 0.000000
vn -1.000000 0.000000 0.000000
vn -1.000000 0.000000 0.000000
vn -1.000000 0.000000 0.000000
s 1
g Fridge_Doors
usemtl aiStandardSurface2SG
f 1/1/1 2/2/2 16/3/3 13/4/4
s off
f 3/38/5 4/37/6 6/31/7 5/8/8
f 7/39/9 8/14/10 2/2/11 1/1/12
s 2
f 2/2/13 8/41/14 15/15/15 16/3/16
s 3
f 7/13/17 1/1/18 13/4/19 14/36/20
f 10/17/21 9/18/22 3/5/23 5/32/24
s 2
f 12/23/25 11/30/26 6/7/27 4/6/28
s 1
f 9/18/29 12/23/30 4/6/31 3/5/32
s 3
f 14/36/20 13/4/19 9/18/22 10/17/21
s off
f 10/27/33 11/24/34 15/35/35 14/16/36
s 2
f 16/3/16 15/15/15 11/30/26 12/23/25
s 1
f 13/4/4 16/3/3 12/23/30 9/18/29
s off
f 14/16/37 15/35/38 18/34/39 17/9/40
f 15/15/41 8/41/42 19/42/43 18/10/44
f 8/14/45 7/39/46 20/40/47 19/11/48
f 7/13/49 14/36/50 17/33/51 20/12/52
f 5/8/53 6/31/54 22/28/55 21/19/56
f 6/7/57 11/30/58 23/29/59 22/20/60
f 11/24/61 10/27/62 24/26/63 23/21/64
f 10/17/65 5/32/66 21/25/67 24/22/68
s 4
f 25/43/69 26/44/70 40/45/71 37/46/72
s off
f 27/47/73 28/48/74 30/49/75 29/50/76
f 31/51/77 32/52/78 26/44/79 25/43/80
s 5
f 26/44/81 32/53/82 39/54/83 40/45/84
s 6
f 31/55/85 25/43/86 37/46/87 38/56/88
f 34/57/89 33/58/90 27/59/91 29/60/92
s 5
f 36/61/93 35/62/94 30/63/95 28/64/96
s 4
f 33/58/97 36/61/98 28/64/99 27/59/100
s 6
f 38/56/88 37/46/87 33/58/90 34/57/89
s off
f 34/65/101 35/66/102 39/67/103 38/68/104
s 5
f 40/45/84 39/54/83 35/62/94 36/61/93
s 4
f 37/46/72 40/45/71 36/61/98 33/58/97
s off
f 38/68/105 39/67/106 42/69/107 41/70/108
f 39/54/109 32/53/110 43/71/111 42/72/112
f 32/52/113 31/51/114 44/73/115 43/74/116
f 31/55/117 38/56/118 41/75/119 44/76/120
f 29/50/121 30/49/122 46/77/123 45/78/124
f 30/63/125 35/62/126 47/79/127 46/80/128
f 35/66/129 34/65/130 48/81/131 47/82/132
f 34/57/133 29/60/134 45/83/135 48/84/136
f 49/85/137 57/86/138 58/87/139 51/88/140
f 51/88/141 58/87/142 59/89/143 53/90/144
f 53/91/145 59/92/146 60/93/147 55/94/148
f 55/95/149 60/96/150 57/86/151 49/85/152
f 50/97/153 56/98/154 54/99/155 52/100/156
f 55/101/157 49/85/158 51/88/159 53/102/160
f 62/103/161 61/104/162 50/97/163 52/100/164
f 63/105/165 62/103/166 52/100/167 54/106/168
f 64/107/169 63/108/170 54/109/171 56/110/172
f 61/104/173 64/111/174 56/112/175 50/97/176
f 59/113/177 58/87/178 57/86/179 60/114/180
f 62/103/181 63/115/182 64/116/183 61/104/184
g default
v -0.142284 0.465103 -0.123958
v 0.142284 0.465103 -0.123958
v -0.142284 0.008530 -0.123958
v 0.142284 0.008530 -0.123958
v -0.142284 0.465103 0.100783
v -0.142284 0.008530 0.100783
v 0.142284 0.008530 0.100783
v 0.142284 0.465103 0.100783
v 0.142284 0.465103 0.100783
v -0.142284 0.465103 0.100783
v -0.142284 0.008530 0.100783
v 0.142284 0.008530 0.100783
v 0.141194 0.463354 0.105867
v -0.141194 0.463354 0.105867
v -0.141194 0.010279 0.105867
v 0.141194 0.010279 0.105867
v -0.147432 0.473362 -0.128025
v 0.147432 0.473362 -0.128025
v 0.147432 0.000271 -0.128025
v -0.147432 0.000271 -0.128025
v -0.147432 0.000271 0.104847
v -0.147432 0.473362 0.104847
v 0.147432 0.000271 0.104847
v 0.147432 0.473362 0.104847
v -0.147432 0.473362 0.104847
v 0.147432 0.473362 0.104847
v 0.147432 0.000271 0.104847
v -0.147432 0.000271 0.104847
v -0.146302 0.471550 0.109935
v 0.146302 0.471550 0.109935
v 0.146302 0.002084 0.109935
v -0.146302 0.002084 0.109935
vt 0.733617 0.895007
vt 0.609341 0.895007
vt 0.609341 0.540672
vt 0.733617 0.540672
vt 0.476917 0.437265
vt 0.476917 0.095602
vt 0.595561 0.095602
vt 0.595561 0.437265
vt 0.609341 0.988663
vt 0.979785 0.895007
vt 0.310969 0.540672
vt 0.733617 0.443536
vt 0.882471 0.437265
vt 0.476917 0.527137
vt 0.595562 0.002364
vt 0.237696 0.095602
vt 0.595562 0.527137
vt 0.237696 0.437265
vt 0.882471 0.095602
vt 0.476917 0.002364
vt 0.310969 0.895007
vt 0.609341 0.443536
vt 0.733617 0.988663
vt 0.979785 0.540672
vt 0.065628 0.351766
vt 0.065628 0.980138
vt 0.053183 0.977731
vt 0.053183 0.354174
vt 0.069941 0.980138
vt 0.069941 0.351766
vt 0.082385 0.354174
vt 0.082385 0.977731
vt 0.140321 0.360329
vt 0.152757 0.362652
vt 0.152757 0.964437
vt 0.140321 0.966761
vt 0.162706 0.351766
vt 0.162706 0.975323
vt 0.189518 0.966761
vt 0.177081 0.964437
vt 0.177081 0.362652
vt 0.189517 0.360329
vt 0.167133 0.975323
vt 0.167133 0.351766
vt 0.032001 0.351766
vt 0.032001 0.980138
vt 0.019557 0.977731
vt 0.019557 0.354173
vt 0.036426 0.980138
vt 0.036426 0.351766
vt 0.048870 0.354173
vt 0.048870 0.977731
vt 0.086698 0.360329
vt 0.099134 0.362652
vt 0.099134 0.964437
vt 0.086698 0.966761
vt 0.109083 0.351766
vt 0.109083 0.975323
vt 0.135894 0.966761
vt 0.123458 0.964437
vt 0.123458 0.362652
vt 0.135894 0.360329
vt 0.113510 0.975323
vt 0.113510 0.351766
vn 0.000000 0.000000 -1.000000
vn 0.000000 0.000000 -1.000000
vn 0.000000 0.000000 -1.000000
vn 0.000000 0.000000 -1.000000
vn -1.000000 0.000000 0.000000
vn -1.000000 0.000000 0.000000
vn -1.000000 0.000000 0.000000
vn -1.000000 0.000000 0.000000
vn 0.000000 -1.000000 0.000000
vn 0.000000 -1.000000 0.000000
vn 0.000000 -1.000000 0.000000
vn 0.000000 -1.000000 0.000000
vn 1.000000 0.000000 0.000000
vn 1.000000 0.000000 0.000000
vn 1.000000 0.000000 0.000000
vn 1.000000 0.000000 0.000000
vn 0.000000 1.000000 0.000000
vn 0.000000 1.000000 0.000000
vn 0.000000 1.000000 0.000000
vn 0.000000 1.000000 0.000000
vn 0.000000 0.000000 0.000000
vn 0.000000 0.000000 0.000000
vn 0.000000 0.000000 0.000000
vn 0.000000 0.000000 0.000000
vn 0.000000 0.000000 0.000000
vn 0.000000 0.000000 0.000000
vn 0.000000 0.000000 0.000000
vn 0.000000 0.000000 0.000000
vn 0.000000 0.000000 0.000000
vn 0.000000 0.000000 0.000000
vn 0.000000 0.000000 0.000000
vn 0.000000 0.000000 0.000000
vn 0.000000 0.000000 0.000000
vn 0.000000 0.000000 0.000000
vn 0.000000 0.000000 0.000000
vn 0.000000 0.000000 0.000000
vn 0.000000 0.942008 0.335591
vn 0.000000 0.942008 0.335591
vn 0.000000 0.942008 0.335591
vn 0.000000 0.942008 0.335591
vn 0.000000 -0.942006 0.335595
vn 0.000000 -0.942006 0.335595
vn 0.000000 -0.942006 0.335595
vn 0.000000 -0.942006 0.335595
vn 0.976224 0.000000 0.216764
vn 0.976224 0.000000 0.216764
vn 0.976224 0.000000 0.216764
vn 0.976224 0.000000 0.216764
vn -0.976224 0.000000 0.216764
vn -0.976224 0.000000 0.216764
vn -0.976224 0.000000 0.216764
vn -0.976224 0.000000 0.216764
vn 0.000000 0.000000 1.000000
vn 0.000000 0.000000 1.000000
vn 0.000000 0.000000 1.000000
vn 0.000000 0.000000 1.000000
vn 1.000000 0.000000 0.000000
vn 1.000000 0.000000 0.000000
vn 1.000000 0.000000 0.000000
vn 1.000000 0.000000 0.000000
vn 0.000000 1.000000 0.000000
vn 0.000000 1.000000 0.000000
vn 0.000000 1.000000 0.000000
vn 0.000000 1.000000 0.000000
vn -1.000000 0.000000 0.000000
vn -1.000000 0.000000 0.000000
vn -1.000000 0.000000 0.000000
vn -1.000000 0.000000 0.000000
vn 0.000000 -1.000000 0.000000
vn 0.000000 -1.000000 0.000000
vn 0.000000 -1.000000 0.000000
vn 0.000000 -1.000000 0.000000
vn 0.000000 0.000000 0.000000
vn 0.000000 0.000000 0.000000
vn 0.000000 0.000000 0.000000
vn 0.000000 0.000000 0.000000
vn 0.000000 0.000000 0.000000
vn 0.000000 0.000000 0.000000
vn 0.000000 0.000000 0.000000
vn 0.000000 0.000000 0.000000
vn 0.000000 0.000000 0.000000
vn 0.000000 0.000000 0.000000
vn 0.000000 0.000000 0.000000
vn 0.000000 0.000000 0.000000
vn 0.000000 0.000000 0.000000
vn 0.000000 0.000000 0.000000
vn 0.000000 0.000000 0.000000
vn 0.000000 0.000000 0.000000
vn 0.000000 -0.945604 -0.325319
vn 0.000000 -0.945604 -0.325319
vn 0.000000 -0.945604 -0.325319
vn 0.000000 -0.945604 -0.325319
vn 0.000000 0.945603 -0.325324
vn 0.000000 0.945603 -0.325324
vn 0.000000 0.945603 -0.325324
vn 0.000000 0.945603 -0.325324
vn -0.977774 0.000000 -0.209664
vn -0.977773 0.000000 -0.209664
vn -0.977773 0.000000 -0.209664
vn -0.977773 0.000000 -0.209664
vn 0.977774 0.000000 -0.209664
vn 0.977773 0.000000 -0.209664
vn 0.977773 0.000000 -0.209664
vn 0.977773 0.000000 -0.209664
vn 0.000000 -0.444516 0.895771
vn 0.000000 -0.444516 0.895771
vn 0.000000 -0.444516 0.895771
vn 0.000000 -0.444516 0.895771
vn 0.000000 0.444516 0.895771
vn 0.000000 0.444516 0.895771
vn 0.000000 0.444516 0.895771
vn 0.000000 0.444516 0.895771
vn -0.622874 0.000000 0.782322
vn -0.622874 0.000000 0.782322
vn -0.622874 0.000000 0.782322
vn -0.622874 0.000000 0.782322
vn 0.622874 0.000000 0.782323
vn 0.622873 0.000000 0.782323
vn 0.622874 0.000000 0.782323
vn 0.622873 0.000000 0.782323
s off
g Fridge
usemtl aiStandardSurface1SG
f 81/117/185 82/118/186 83/119/187 84/120/188
f 84/120/189 85/140/190 86/126/191 81/117/192
f 84/120/193 83/119/194 87/138/195 85/128/196
f 88/137/197 87/127/198 83/119/199 82/118/200
f 86/139/201 88/125/202 82/118/203 81/117/204
f 88//205 86//206 89//207 90//208
f 85//209 87//210 91//211 92//212
f 87//213 88//214 90//215 91//216
f 86//217 85//218 92//219 89//220
f 90/161/221 89/162/222 93/163/223 94/164/224
f 92/165/225 91/166/226 95/167/227 96/168/228
f 91/141/229 90/142/230 94/143/231 95/144/232
f 89/145/233 92/146/234 96/147/235 93/148/236
f 65/121/237 67/122/238 68/123/239 66/124/240
f 67/122/241 65/121/242 69/134/243 70/132/244
f 67/122/245 70/136/246 71/131/247 68/123/248
f 72/129/249 66/124/250 68/123/251 71/135/252
f 69/130/253 65/121/254 66/124/255 72/133/256
f 72//257 73//258 74//259 69//260
f 70//261 75//262 76//263 71//264
f 71//265 76//266 73//267 72//268
f 69//269 74//270 75//271 70//272
f 73/169/273 77/170/274 78/171/275 74/172/276
f 75/175/277 79/176/278 80/177/279 76/178/280
f 76/149/281 80/150/282 77/151/283 73/152/284
f 74/155/285 78/156/286 79/157/287 75/158/288
f 78/171/289 77/170/290 94/173/291 93/174/292
f 80/177/293 79/176/294 96/179/295 95/180/296
f 77/151/297 80/150/298 95/153/299 94/154/300
f 79/157/301 78/156/302 93/159/303 96/160/304
