# This file uses centimeters as units for non-parametric coordinates.

mtllib Bagel.mtl
g default
v 0.302737 0.039184 0.219951
v 0.355889 0.039184 0.115635
v 0.219951 0.039184 0.302737
v 0.374203 0.039184 -0.000000
v 0.288166 0.074533 0.209365
v 0.338759 0.074533 0.110070
v 0.115635 0.039184 0.355889
v 0.209365 0.074533 0.288166
v 0.355889 0.039184 -0.115635
v 0.356192 0.074533 -0.000000
v 0.265471 0.102586 0.192876
v 0.312079 0.102586 0.101401
v 0.000000 0.039184 0.374204
v 0.110070 0.074533 0.338759
v 0.192876 0.102586 0.265471
v 0.302737 0.039184 -0.219951
v 0.338759 0.074533 -0.110069
v 0.328139 0.102586 -0.000000
v 0.236873 0.120597 0.172098
v 0.278461 0.120597 0.090477
v -0.115635 0.039184 0.355889
v 0.000000 0.074533 0.356193
v 0.101401 0.102586 0.312079
v 0.172098 0.120597 0.236873
v 0.219951 0.039184 -0.302737
v 0.288166 0.074533 -0.209365
v 0.312079 0.102586 -0.101401
v 0.292791 0.120597 -0.000000
v 0.205172 0.128875 0.149066
v 0.241194 0.128875 0.078369
v -0.219951 0.039184 0.302737
v -0.110070 0.074533 0.338759
v 0.000000 0.102586 0.328140
v 0.090477 0.120597 0.278461
v 0.149066 0.128875 0.205172
v 0.115635 0.039184 -0.355889
v 0.209365 0.074533 -0.288166
v 0.265470 0.102586 -0.192876
v 0.278461 0.120597 -0.090477
v 0.253606 0.128875 -0.000000
v 0.170135 0.127258 0.123951
v 0.200147 0.127258 0.065165
v -0.302737 0.039184 0.219951
v -0.209365 0.074533 0.288166
v -0.101401 0.102586 0.312079
v 0.000000 0.120597 0.292791
v 0.078369 0.128875 0.241194
v 0.123390 0.127258 0.170603
v -0.000000 0.039184 -0.374203
v 0.110069 0.074533 -0.338759
v 0.192876 0.102586 -0.265470
v 0.236873 0.120597 -0.172098
v 0.241194 0.128875 -0.078369
v 0.210488 0.127258 -0.000000
v 0.087991 0.109275 0.067982
v 0.105550 0.109275 0.035740
v -0.355889 0.039184 0.115635
v -0.288166 0.074533 0.209365
v -0.192876 0.102586 0.265470
v -0.090477 0.120597 0.278461
v 0.000000 0.128875 0.253606
v 0.064489 0.127258 0.200557
v 0.060643 0.109275 0.093569
v -0.115635 0.039184 -0.355889
v -0.000000 0.074533 -0.356192
v 0.101401 0.102586 -0.312079
v 0.172098 0.120597 -0.236873
v 0.205172 0.128875 -0.149066
v 0.200147 0.127258 -0.065165
v 0.111600 0.109275 -0.000000
v 0.044597 0.074533 0.033911
v 0.054896 0.074533 0.017828
v -0.374204 0.039184 -0.000000
v -0.338759 0.074533 0.110070
v -0.265470 0.102586 0.192876
v -0.172098 0.120597 0.236873
v -0.078369 0.128875 0.241194
v 0.000000 0.127258 0.210878
v 0.026183 0.109275 0.109996
v 0.028556 0.074533 0.046675
v -0.219951 0.039184 -0.302737
v -0.110070 0.074533 -0.338759
v -0.000000 0.102586 -0.328139
v 0.090477 0.120597 -0.278461
v 0.149066 0.128875 -0.205172
v 0.170135 0.127258 -0.123951
v 0.105550 0.109275 -0.035740
v 0.058444 0.074533 0.000000
v 0.037601 0.039184 0.029867
v 0.046672 0.039184 0.015702
v -0.355889 0.039184 -0.115635
v -0.356192 0.074533 -0.000000
v -0.312079 0.102586 0.101401
v -0.236873 0.120597 0.172098
v -0.149066 0.128875 0.205172
v -0.064489 0.127258 0.200557
v 0.000000 0.109275 0.115657
v 0.008344 0.074533 0.054870
v 0.023473 0.039184 0.041108
v -0.302737 0.039184 -0.219951
v -0.209365 0.074533 -0.288166
v -0.101401 0.102586 -0.312079
v -0.000000 0.120597 -0.292791
v 0.078369 0.128875 -0.241194
v 0.123390 0.127258 -0.170603
v 0.087991 0.109275 -0.067981
v 0.054896 0.074533 -0.017828
v 0.049797 0.039184 0.000000
v -0.338759 0.074533 -0.110070
v -0.328140 0.102586 -0.000000
v -0.278461 0.120597 0.090477
v -0.205172 0.128875 0.149066
v -0.123390 0.127258 0.170603
v -0.026183 0.109275 0.109996
v 0.000000 0.074533 0.057693
v 0.005671 0.039184 0.048326
v -0.288166 0.074533 -0.209365
v -0.192876 0.102586 -0.265470
v -0.090477 0.120597 -0.278461
v -0.000000 0.128875 -0.253606
v 0.064489 0.127258 -0.200557
v 0.060643 0.109275 -0.093569
v 0.044597 0.074533 -0.033911
v 0.046672 0.039184 -0.015702
v -0.312079 0.102586 -0.101401
v -0.292791 0.120597 -0.000000
v -0.241194 0.128875 0.078369
v -0.170135 0.127258 0.123951
v -0.060643 0.109275 0.093568
v -0.008344 0.074533 0.054870
v 0.000000 0.039184 0.050813
v -0.265470 0.102586 -0.192876
v -0.172098 0.120597 -0.236873
v -0.078369 0.128875 -0.241194
v -0.000000 0.127258 -0.210878
v 0.026183 0.109275 -0.109996
v 0.028556 0.074533 -0.046675
v 0.037601 0.039184 -0.029867
v -0.278461 0.120597 -0.090477
v -0.253606 0.128875 -0.000000
v -0.200147 0.127258 0.065165
v -0.087991 0.109275 0.067981
v -0.028556 0.074533 0.046675
v -0.005671 0.039184 0.048326
v -0.236873 0.120597 -0.172098
v -0.149066 0.128875 -0.205172
v -0.064489 0.127258 -0.200557
v -0.000000 0.109275 -0.115657
v 0.008344 0.074533 -0.054869
v 0.023473 0.039184 -0.041108
v -0.241194 0.128875 -0.078369
v -0.210488 0.127258 -0.000000
v -0.105549 0.109275 0.035740
v -0.044597 0.074533 0.033911
v -0.023473 0.039184 0.041108
v -0.205172 0.128875 -0.149066
v -0.123390 0.127258 -0.170603
v -0.026183 0.109275 -0.109996
v -0.000000 0.074533 -0.057693
v 0.005671 0.039184 -0.048326
v -0.200147 0.127258 -0.065165
v -0.111600 0.109275 -0.000000
v -0.054896 0.074533 0.017828
v -0.037601 0.039184 0.029867
v -0.170135 0.127258 -0.123951
v -0.060643 0.109275 -0.093568
v -0.008344 0.074533 -0.054869
v -0.000000 0.039184 -0.050813
v -0.105549 0.109275 -0.035740
v -0.058444 0.074533 0.000000
v -0.046672 0.039184 0.015702
v -0.087991 0.109275 -0.067981
v -0.028556 0.074533 -0.046675
v -0.005671 0.039184 -0.048326
v -0.054896 0.074533 -0.017828
v -0.049797 0.039184 0.000000
v -0.044597 0.074533 -0.033911
v -0.023473 0.039184 -0.041108
v -0.046672 0.039184 -0.015702
v -0.037601 0.039184 -0.029867
v 0.000000 0.000821 0.253477
v 0.078329 0.000821 0.241070
v 0.148990 0.000821 0.205067
v 0.205067 0.000821 0.148990
v 0.241070 0.000821 0.078329
v 0.253477 0.000821 -0.000000
v 0.241070 0.000821 -0.078329
v 0.205067 0.000821 -0.148990
v 0.148990 0.000821 -0.205067
v 0.078329 0.000821 -0.241070
v -0.000000 0.000821 -0.253476
v -0.078329 0.000821 -0.241070
v -0.148990 0.000821 -0.205067
v -0.205067 0.000821 -0.148990
v -0.241070 0.000821 -0.078329
v -0.253477 0.000821 -0.000000
v -0.241070 0.000821 0.078329
v -0.205067 0.000821 0.148990
v -0.148990 0.000821 0.205067
v -0.078329 0.000821 0.241070
v 0.304662 0.023837 0.221350
v 0.300897 0.007792 0.218614
v 0.288476 0.000821 0.209590
v 0.358151 0.023837 0.116370
v 0.353725 0.007792 0.114932
v 0.339124 0.000821 0.110188
v 0.221350 0.023837 0.304662
v 0.218614 0.007792 0.300897
v 0.209590 0.000821 0.288476
v 0.376582 0.023837 -0.000000
v 0.371928 0.007792 0.000000
v 0.356575 0.000821 0.000000
v 0.116370 0.023837 0.358151
v 0.114932 0.007792 0.353725
v 0.110188 0.000821 0.339123
v 0.358151 0.023837 -0.116370
v 0.353725 0.007792 -0.114932
v 0.339123 0.000821 -0.110188
v 0.000000 0.023837 0.376582
v 0.000000 0.007792 0.371929
v 0.000000 0.000821 0.356576
v 0.304661 0.023837 -0.221350
v 0.300896 0.007792 -0.218614
v 0.288476 0.000821 -0.209590
v -0.116370 0.023837 0.358151
v -0.114932 0.007792 0.353725
v -0.110188 0.000821 0.339123
v 0.221349 0.023837 -0.304661
v 0.218614 0.007792 -0.300896
v 0.209590 0.000821 -0.288476
v -0.221350 0.023837 0.304662
v -0.218614 0.007792 0.300896
v -0.209590 0.000821 0.288476
v 0.116370 0.023837 -0.358151
v 0.114932 0.007792 -0.353725
v 0.110188 0.000821 -0.339123
v -0.304662 0.023837 0.221350
v -0.300896 0.007792 0.218614
v -0.288476 0.000821 0.209590
v -0.000000 0.023837 -0.376582
v -0.000000 0.007792 -0.371928
v -0.000000 0.000821 -0.356575
v -0.358151 0.023837 0.116370
v -0.353725 0.007792 0.114932
v -0.339123 0.000821 0.110188
v -0.116370 0.023837 -0.358151
v -0.114932 0.007792 -0.353725
v -0.110188 0.000821 -0.339123
v -0.376582 0.023837 -0.000000
v -0.371928 0.007792 -0.000000
v -0.356575 0.000821 -0.000000
v -0.221350 0.023837 -0.304662
v -0.218614 0.007792 -0.300896
v -0.209590 0.000821 -0.288476
v -0.358151 0.023837 -0.116370
v -0.353725 0.007792 -0.114932
v -0.339123 0.000821 -0.110188
v -0.304662 0.023837 -0.221350
v -0.300896 0.007792 -0.218614
v -0.288476 0.000821 -0.209590
v 0.045538 0.023837 0.015409
v 0.047622 0.007803 0.015948
v 0.060482 0.000821 0.020297
v 0.036637 0.023837 0.029309
v 0.038410 0.007803 0.030335
v 0.049345 0.000821 0.038606
v 0.048605 0.023837 0.000000
v 0.050797 0.007803 0.000000
v 0.064319 0.000821 -0.000000
v 0.022773 0.023837 0.040341
v 0.024061 0.007803 0.041752
v 0.031999 0.000821 0.053137
v 0.005303 0.023837 0.047424
v 0.005981 0.007803 0.049082
v 0.010141 0.000821 0.062466
v 0.045538 0.023837 -0.015409
v 0.047622 0.007803 -0.015948
v 0.060482 0.000821 -0.020297
v 0.000000 0.023837 0.049864
v -0.000000 0.007803 0.051608
v -0.000000 0.000821 0.065681
v 0.036637 0.023837 -0.029309
v 0.038410 0.007803 -0.030334
v 0.049345 0.000821 -0.038606
v -0.005303 0.023837 0.047424
v -0.005981 0.007803 0.049082
v -0.010141 0.000821 0.062466
v -0.022773 0.023837 0.040341
v -0.024061 0.007803 0.041752
v -0.031999 0.000821 0.053137
v 0.005303 0.023837 -0.047424
v 0.005981 0.007803 -0.049082
v 0.010141 0.000821 -0.062466
v 0.022773 0.023837 -0.040341
v 0.024061 0.007803 -0.041752
v 0.031999 0.000821 -0.053137
v -0.000000 0.023837 -0.049864
v -0.000000 0.007803 -0.051608
v -0.000000 0.000821 -0.065681
v -0.036637 0.023837 0.029309
v -0.038410 0.007803 0.030335
v -0.049345 0.000821 0.038606
v -0.045538 0.023837 0.015409
v -0.047622 0.007803 0.015948
v -0.060482 0.000821 0.020297
v -0.005303 0.023837 -0.047424
v -0.005981 0.007803 -0.049082
v -0.010141 0.000821 -0.062466
v -0.048605 0.023837 0.000000
v -0.050797 0.007803 0.000000
v -0.064319 0.000821 0.000000
v -0.022773 0.023837 -0.040341
v -0.024061 0.007803 -0.041752
v -0.031999 0.000821 -0.053137
v -0.045538 0.023837 -0.015409
v -0.047622 0.007803 -0.015948
v -0.060482 0.000821 -0.020297
v -0.036637 0.023837 -0.029309
v -0.038410 0.007803 -0.030334
v -0.049345 0.000821 -0.038606
vt 0.434790 0.137289
vt 0.523530 0.164239
vt 0.505814 0.187360
vt 0.419586 0.164890
vt 0.305980 0.185749
vt 0.287499 0.156188
vt 0.592184 0.208426
vt 0.573039 0.227590
vt 0.491942 0.212129
vt 0.413053 0.194479
vt 0.237330 0.284393
vt 0.205609 0.283331
vt 0.323701 0.215027
vt 0.648466 0.261645
vt 0.628046 0.277874
vt 0.555890 0.247976
vt 0.481641 0.238158
vt 0.412199 0.224846
vt 0.220324 0.373567
vt 0.191879 0.379605
vt 0.266622 0.291991
vt 0.341305 0.243972
vt 0.694997 0.321588
vt 0.673209 0.335402
vt 0.608588 0.294626
vt 0.540789 0.269359
vt 0.474538 0.265385
vt 0.415253 0.255707
vt 0.229860 0.453230
vt 0.204527 0.463199
vt 0.248718 0.371471
vt 0.294170 0.304102
vt 0.359173 0.272798
vt 0.732314 0.387701
vt 0.708878 0.399203
vt 0.651712 0.348931
vt 0.590183 0.311768
vt 0.527692 0.291809
vt 0.469948 0.295208
vt 0.421930 0.289096
vt 0.255475 0.524793
vt 0.232548 0.537642
vt 0.255594 0.445558
vt 0.276801 0.372843
vt 0.320653 0.319588
vt 0.378292 0.303598
vt 0.759337 0.460430
vt 0.733756 0.469262
vt 0.685277 0.409485
vt 0.630625 0.362092
vt 0.572743 0.329406
vt 0.515399 0.316680
vt 0.469583 0.365822
vt 0.443212 0.364670
vt 0.293073 0.588718
vt 0.272117 0.604032
vt 0.278609 0.513099
vt 0.281483 0.440095
vt 0.304688 0.377302
vt 0.347719 0.339202
vt 0.420147 0.374462
vt 0.772475 0.541028
vt 0.743993 0.546127
vt 0.707799 0.475712
vt 0.661676 0.418512
vt 0.609853 0.374986
vt 0.555373 0.348787
vt 0.496085 0.376882
vt 0.475278 0.407036
vt 0.460738 0.407594
vt 0.341238 0.644813
vt 0.322143 0.662577
vt 0.313761 0.573666
vt 0.301774 0.502582
vt 0.307606 0.436782
vt 0.333740 0.385509
vt 0.403517 0.394549
vt 0.447747 0.414478
vt 0.760597 0.632465
vt 0.729247 0.630646
vt 0.715467 0.547209
vt 0.681697 0.479860
vt 0.637970 0.426374
vt 0.588262 0.388622
vt 0.520846 0.395748
vt 0.489745 0.412273
vt 0.892847 0.142033
vt 0.896697 0.130469
vt 0.400042 0.692010
vt 0.383014 0.712574
vt 0.359373 0.626569
vt 0.334053 0.558953
vt 0.325090 0.493210
vt 0.335279 0.435091
vt 0.396758 0.412750
vt 0.438253 0.427394
vt 0.906470 0.121900
vt 0.687122 0.745093
vt 0.667186 0.717686
vt 0.699611 0.622244
vt 0.687167 0.544770
vt 0.655374 0.481834
vt 0.612845 0.433803
vt 0.541607 0.420630
vt 0.503361 0.422132
vt 0.894195 0.155561
vt 0.471153 0.727463
vt 0.457005 0.751700
vt 0.415078 0.670354
vt 0.376460 0.607978
vt 0.354075 0.544527
vt 0.349823 0.484250
vt 0.397305 0.433985
vt 0.435662 0.433707
vt 0.921372 0.117315
vt 0.551560 0.772625
vt 0.558605 0.742762
vt 0.647142 0.690605
vt 0.671444 0.609544
vt 0.659012 0.539278
vt 0.627408 0.482113
vt 0.556792 0.449676
vt 0.514887 0.436268
vt 0.899296 0.170135
vt 0.481622 0.701806
vt 0.428117 0.647834
vt 0.392624 0.588975
vt 0.374973 0.529382
vt 0.405041 0.465305
vt 0.435446 0.441342
vt 0.926327 0.116354
vt 0.559866 0.712919
vt 0.627254 0.663612
vt 0.644247 0.593736
vt 0.629525 0.530033
vt 0.564857 0.480658
vt 0.523228 0.453588
vt 0.908169 0.184569
vt 0.488839 0.675189
vt 0.439301 0.624417
vt 0.408806 0.568259
vt 0.420197 0.494404
vt 0.438427 0.460384
vt 0.931652 0.118155
vt 0.557053 0.683186
vt 0.607452 0.636427
vt 0.616329 0.573947
vt 0.565677 0.501598
vt 0.527085 0.472848
vt 0.920694 0.197516
vt 0.493277 0.647690
vt 0.449713 0.598602
vt 0.441131 0.518924
vt 0.446356 0.477782
vt 0.948500 0.125826
vt 0.551199 0.653277
vt 0.586562 0.607200
vt 0.558966 0.519322
vt 0.527100 0.480606
vt 0.933571 0.210360
vt 0.495558 0.617656
vt 0.466067 0.537084
vt 0.457836 0.491769
vt 0.962155 0.137122
vt 0.543201 0.621544
vt 0.542257 0.538789
vt 0.524705 0.487134
vt 0.937302 0.214648
vt 0.492739 0.547461
vt 0.471466 0.501342
vt 0.970982 0.150952
vt 0.519171 0.548322
vt 0.514186 0.500104
vt 0.510981 0.476862
vt 0.486005 0.506375
vt 0.974481 0.165872
vt 0.500645 0.505928
vt 0.503640 0.486048
vt 0.973326 0.180421
vt 0.967393 0.193046
vt 0.443464 0.126241
vt 0.531525 0.155754
vt 0.308035 0.130373
vt 0.600232 0.201357
vt 0.192262 0.286144
vt 0.656725 0.255510
vt 0.180881 0.383168
vt 0.703599 0.316166
vt 0.194815 0.467788
vt 0.741427 0.382926
vt 0.223701 0.543022
vt 0.769214 0.456385
vt 0.263905 0.610115
vt 0.783586 0.537993
vt 0.314470 0.669405
vt 0.773580 0.630979
vt 0.375873 0.720317
vt 0.695106 0.755691
vt 0.450473 0.760766
vt 0.546103 0.783914
vt 0.806768 0.529013
vt 0.789642 0.446434
vt 0.844246 0.404636
vt 0.869797 0.475181
vt 0.760428 0.372216
vt 0.812370 0.336950
vt 0.721837 0.304722
vt 0.774572 0.273191
vt 0.674698 0.243136
vt 0.731032 0.213551
vt 0.618472 0.187601
vt 0.682053 0.157985
vt 0.551021 0.139524
vt 0.629285 0.105242
vt 0.466638 0.103525
vt 0.576779 0.054652
vt 0.194872 0.191885
vt 0.035882 0.314397
vt 0.162480 0.297086
vt 0.071764 0.378585
vt 0.158090 0.393622
vt 0.096662 0.452128
vt 0.174904 0.479083
vt 0.122622 0.525638
vt 0.205418 0.555158
vt 0.155897 0.595228
vt 0.246630 0.623103
vt 0.196746 0.659605
vt 0.297875 0.683427
vt 0.245394 0.718301
vt 0.359703 0.735772
vt 0.301930 0.771173
vt 0.434287 0.778617
vt 0.364416 0.819314
vt 0.528315 0.806731
vt 0.429543 0.863252
vt 0.761218 0.730291
vt 0.929922 0.609904
vt 0.802677 0.623049
vt 0.894893 0.546625
vt 0.454269 0.114534
vt 0.540943 0.147278
vt 0.609245 0.194225
vt 0.225775 0.177428
vt 0.665730 0.249181
vt 0.177439 0.290763
vt 0.712821 0.310414
vt 0.169276 0.387884
vt 0.751092 0.377666
vt 0.184636 0.473173
vt 0.779637 0.451665
vt 0.214380 0.548992
vt 0.795378 0.533999
vt 0.255153 0.616637
vt 0.788003 0.627894
vt 0.306147 0.676552
vt 0.674989 0.783005
vt 0.367894 0.728283
vt 0.538026 0.795528
vt 0.442725 0.770023
vt 0.879084 0.136152
vt 0.882895 0.120731
vt 0.881456 0.153748
vt 0.895182 0.109588
vt 0.917124 0.105114
vt 0.889380 0.172417
vt 0.924355 0.104845
vt 0.900847 0.191012
vt 0.931664 0.106270
vt 0.953843 0.114590
vt 0.931721 0.222372
vt 0.915225 0.208182
vt 0.936994 0.225240
vt 0.971182 0.129080
vt 0.982342 0.147306
vt 0.943185 0.224956
vt 0.987182 0.167312
vt 0.501091 0.478413
vt 0.984197 0.187509
vt 0.496741 0.479409
vt 0.033158 0.663528
vt 0.023128 0.655854
vt 0.850078 0.082098
vt 0.843141 0.101562
vt 0.845782 0.124155
vt 0.855649 0.148335
vt 0.868910 0.174868
vt 0.885740 0.202057
vt 0.905313 0.229015
vt 0.926935 0.254098
vt 0.936880 0.265000
vt 0.946706 0.269537
vt 0.170928 0.874413
vt 0.167575 0.852814
vt 0.154057 0.828817
vt 0.134350 0.803105
vt 0.113201 0.773903
vt 0.090198 0.742603
vt 0.066559 0.709878
vt 0.043283 0.677399
vt 0.863042 0.129749
vt 0.864922 0.110659
vt 0.000268 0.661910
vt 0.868932 0.150978
vt 0.020023 0.672791
vt 0.027690 0.678659
vt 0.879136 0.173825
vt 0.034567 0.689089
vt 0.893305 0.196959
vt 0.056318 0.718946
vt 0.078880 0.749905
vt 0.930381 0.238287
vt 0.910554 0.219104
vt 0.937897 0.243682
vt 0.100995 0.779903
vt 0.121209 0.807956
vt 0.945396 0.245130
vt 0.139630 0.832309
vt 0.966182 0.241095
vt 0.151661 0.853909
vt 0.154379 0.872446
vt 0.984891 0.217838
vt 0.996782 0.193460
vt 1.000000 0.168196
vt 0.995430 0.143395
vt 0.982109 0.120617
vt 0.960662 0.102443
vt 0.932829 0.091761
vt 0.922468 0.090604
vt 0.911815 0.090396
vt 0.879034 0.096082
vt 0.970360 0.276012
vt 0.481537 0.909707
vt 0.000000 0.643047
vt 0.540779 0.000000
vt 0.974690 0.206890
vt 0.490671 0.484958
vt 0.938577 0.219473
vt 0.504699 0.476119
vt 0.960295 0.217859
vt 0.652546 0.809402
vt 0.356690 0.079789
vt 0.257244 0.165620
vt 0.728411 0.744292
vt 0.331215 0.104298
vt 0.482024 0.487287
vt 0.473066 0.485197
vt 0.465000 0.478848
vt 0.511404 0.472290
vt 0.458515 0.469794
vt 0.510287 0.467580
vt 0.454363 0.458786
vt 0.507998 0.455092
vt 0.453224 0.446970
vt 0.502109 0.443606
vt 0.452771 0.443040
vt 0.495397 0.434398
vt 0.454769 0.440184
vt 0.487105 0.427937
vt 0.460662 0.431947
vt 0.477780 0.425623
vt 0.468659 0.426932
vn 0.752335 0.367718 0.546604
vn 0.884423 0.367718 0.287366
vn 0.777401 0.576061 0.252592
vn 0.661296 0.576061 0.480460
vn 0.480460 0.576061 0.661296
vn 0.546603 0.367718 0.752335
vn 0.929937 0.367718 -0.000001
vn 0.817407 0.576060 -0.000001
vn 0.574571 0.796879 0.186689
vn 0.488759 0.796879 0.355104
vn 0.252593 0.576061 0.777400
vn 0.287366 0.367718 0.884423
vn 0.355104 0.796879 0.488759
vn 0.884423 0.367718 -0.287366
vn 0.777400 0.576060 -0.252593
vn 0.604139 0.796879 -0.000001
vn 0.334892 0.935953 0.108813
vn 0.284876 0.935953 0.206974
vn -0.000000 0.576060 0.817407
vn -0.000000 0.367718 0.929937
vn 0.186689 0.796879 0.574570
vn 0.206974 0.935953 0.284876
vn 0.752335 0.367718 -0.546604
vn 0.661296 0.576060 -0.480460
vn 0.574571 0.796879 -0.186689
vn 0.352126 0.935953 -0.000000
vn 0.097699 0.994710 0.031745
vn 0.083107 0.994709 0.060387
vn -0.252593 0.576060 0.777400
vn -0.287367 0.367718 0.884423
vn -0.000000 0.796879 0.604139
vn 0.108813 0.935953 0.334892
vn 0.060397 0.994705 0.083151
vn 0.546603 0.367718 -0.752335
vn 0.480460 0.576060 -0.661296
vn 0.488759 0.796878 -0.355104
vn 0.334892 0.935953 -0.108813
vn 0.102730 0.994709 -0.000000
vn -0.112645 0.992936 -0.037263
vn -0.095568 0.992920 -0.070554
vn -0.480460 0.576061 0.661296
vn -0.546604 0.367718 0.752335
vn -0.186690 0.796879 0.574571
vn -0.000000 0.935953 0.352126
vn 0.031818 0.994673 0.098046
vn -0.069633 0.992854 -0.096914
vn 0.287367 0.367718 -0.884423
vn 0.252593 0.576060 -0.777400
vn 0.355104 0.796878 -0.488759
vn 0.284876 0.935953 -0.206974
vn 0.097699 0.994710 -0.031745
vn -0.118637 0.992938 -0.000000
vn -0.246767 0.965194 -0.086644
vn -0.206177 0.965012 -0.161998
vn -0.661296 0.576060 0.480460
vn -0.752335 0.367718 0.546603
vn -0.355104 0.796879 0.488759
vn -0.108813 0.935953 0.334892
vn -0.000000 0.994644 0.103365
vn -0.038835 0.992885 -0.112569
vn -0.147009 0.964530 -0.219248
vn 0.000000 0.367718 -0.929937
vn 0.000000 0.576060 -0.817407
vn 0.186689 0.796879 -0.574571
vn 0.206975 0.935952 -0.284876
vn 0.083107 0.994709 -0.060387
vn -0.112645 0.992936 0.037263
vn -0.261379 0.965236 0.000000
vn -0.635479 0.732669 -0.243645
vn -0.515610 0.733825 -0.442320
vn -0.777400 0.576060 0.252593
vn -0.884423 0.367718 0.287366
vn -0.488759 0.796879 0.355104
vn -0.206975 0.935953 0.284876
vn -0.031818 0.994673 0.098046
vn 0.000000 0.993100 -0.117267
vn -0.085969 0.965420 -0.246115
vn -0.354884 0.735316 -0.577381
vn -0.287366 0.367718 -0.884423
vn -0.252593 0.576060 -0.777401
vn 0.000000 0.796879 -0.604139
vn 0.108813 0.935953 -0.334892
vn 0.060397 0.994705 -0.083151
vn -0.095568 0.992919 0.070554
vn -0.246767 0.965194 0.086644
vn -0.680982 0.732300 0.000000
vn -0.908273 0.189110 -0.373198
vn -0.724781 0.177476 -0.665728
vn -0.817407 0.576060 0.000000
vn -0.929937 0.367718 -0.000000
vn -0.574571 0.796879 0.186689
vn -0.284876 0.935953 0.206974
vn -0.060397 0.994705 0.083151
vn 0.038835 0.992885 -0.112569
vn 0.000000 0.970393 -0.241530
vn -0.239188 0.742852 -0.625269
vn -0.491484 0.165764 -0.854965
vn -0.546603 0.367718 -0.752335
vn -0.480460 0.576060 -0.661296
vn -0.186689 0.796879 -0.574571
vn 0.000000 0.935953 -0.352126
vn 0.031818 0.994673 -0.098046
vn -0.069633 0.992854 0.096914
vn -0.206177 0.965012 0.161998
vn -0.635479 0.732669 0.243645
vn -0.980957 0.194226 0.000001
vn -0.777400 0.576060 -0.252593
vn -0.884423 0.367718 -0.287366
vn -0.604139 0.796879 -0.000000
vn -0.334891 0.935953 0.108813
vn -0.083107 0.994709 0.060387
vn 0.069633 0.992854 -0.096914
vn 0.085969 0.965420 -0.246115
vn 0.000001 0.796187 -0.605051
vn -0.369242 0.157793 -0.915839
vn -0.752335 0.367718 -0.546604
vn -0.661296 0.576060 -0.480460
vn -0.355104 0.796879 -0.488759
vn -0.108813 0.935953 -0.334892
vn 0.000000 0.994644 -0.103365
vn -0.038835 0.992885 0.112569
vn -0.147009 0.964530 0.219249
vn -0.515611 0.733825 0.442320
vn -0.908273 0.189110 0.373199
vn -0.574571 0.796879 -0.186689
vn -0.352126 0.935953 0.000000
vn -0.097699 0.994710 0.031745
vn 0.095568 0.992920 -0.070554
vn 0.147009 0.964530 -0.219248
vn 0.239189 0.742851 -0.625269
vn 0.000000 0.168268 -0.985741
vn -0.488759 0.796879 -0.355104
vn -0.206975 0.935953 -0.284876
vn -0.031818 0.994673 -0.098046
vn 0.000000 0.993100 0.117267
vn -0.085969 0.965421 0.246115
vn -0.354884 0.735316 0.577381
vn -0.724782 0.177476 0.665728
vn -0.334892 0.935953 -0.108813
vn -0.102730 0.994709 0.000000
vn 0.112645 0.992936 -0.037263
vn 0.206177 0.965012 -0.161998
vn 0.354884 0.735315 -0.577381
vn 0.369243 0.157793 -0.915839
vn -0.284876 0.935953 -0.206975
vn -0.060397 0.994705 -0.083151
vn 0.038835 0.992885 0.112569
vn 0.000000 0.970393 0.241530
vn -0.239187 0.742852 0.625269
vn -0.491484 0.165764 0.854965
vn -0.097699 0.994710 -0.031745
vn 0.118636 0.992938 -0.000000
vn 0.246767 0.965194 -0.086644
vn 0.515611 0.733824 -0.442320
vn 0.491484 0.165765 -0.854965
vn -0.083107 0.994709 -0.060387
vn 0.069633 0.992854 0.096914
vn 0.085969 0.965420 0.246115
vn 0.000001 0.796187 0.605051
vn -0.369241 0.157793 0.915840
vn 0.112645 0.992936 0.037263
vn 0.261379 0.965236 -0.000000
vn 0.635480 0.732668 -0.243646
vn 0.724781 0.177477 -0.665728
vn 0.095568 0.992920 0.070554
vn 0.147009 0.964530 0.219249
vn 0.239188 0.742851 0.625269
vn 0.000000 0.168268 0.985741
vn 0.246767 0.965194 0.086644
vn 0.680983 0.732300 -0.000001
vn 0.908273 0.189110 -0.373199
vn 0.206177 0.965012 0.161998
vn 0.354884 0.735315 0.577381
vn 0.369241 0.157793 0.915840
vn 0.635480 0.732668 0.243646
vn 0.980957 0.194226 -0.000001
vn 0.515611 0.733824 0.442321
vn 0.491484 0.165764 0.854965
vn 0.908273 0.189110 0.373199
vn 0.724782 0.177476 0.665728
vn 0.807002 -0.070537 0.586321
vn 0.948688 -0.070537 0.308246
vn 0.586321 -0.070537 0.807002
vn 0.997509 -0.070537 -0.000001
vn 0.308247 -0.070537 0.948688
vn 0.948688 -0.070537 -0.308247
vn -0.000000 -0.070537 0.997509
vn 0.807002 -0.070536 -0.586321
vn -0.308247 -0.070537 0.948688
vn 0.586321 -0.070537 -0.807002
vn -0.586321 -0.070537 0.807002
vn 0.308247 -0.070537 -0.948688
vn -0.807002 -0.070537 0.586321
vn -0.000000 -0.070536 -0.997509
vn -0.948688 -0.070536 0.308247
vn -0.308247 -0.070536 -0.948688
vn -0.997509 -0.070535 -0.000000
vn -0.586321 -0.070537 -0.807002
vn -0.948688 -0.070536 -0.308247
vn -0.807002 -0.070537 -0.586321
vn -0.000000 -0.996773 -0.080267
vn 0.024804 -0.996773 -0.076338
vn 0.000000 -1.000000 -0.000000
vn 0.000000 -1.000000 -0.000000
vn 0.047180 -0.996773 -0.064937
vn 0.000000 -1.000000 0.000000
vn 0.064937 -0.996773 -0.047180
vn 0.000000 -1.000000 0.000000
vn 0.076338 -0.996773 -0.024804
vn -0.000000 -1.000000 0.000000
vn 0.080267 -0.996773 -0.000000
vn -0.000000 -1.000000 0.000000
vn 0.076338 -0.996773 0.024804
vn -0.000000 -1.000000 0.000000
vn 0.064937 -0.996773 0.047180
vn -0.000000 -1.000000 -0.000000
vn 0.047180 -0.996773 0.064937
vn 0.000000 -1.000000 0.000000
vn 0.024804 -0.996773 0.076338
vn 0.000000 -1.000000 -0.000000
vn -0.000000 -0.996773 0.080267
vn -0.000000 -1.000000 -0.000000
vn -0.024804 -0.996773 0.076338
vn -0.000000 -1.000000 -0.000000
vn -0.047180 -0.996773 0.064937
vn 0.000000 -1.000000 0.000000
vn -0.064937 -0.996773 0.047180
vn 0.000000 -1.000000 0.000000
vn -0.076338 -0.996773 0.024804
vn 0.000000 -1.000000 0.000000
vn -0.080267 -0.996773 0.000000
vn 0.000000 -1.000000 0.000000
vn -0.076338 -0.996773 -0.024804
vn 0.000000 -1.000000 0.000000
vn -0.064937 -0.996773 -0.047180
vn 0.000000 -1.000000 -0.000000
vn -0.047180 -0.996773 -0.064937
vn 0.000000 -1.000000 -0.000000
vn -0.024804 -0.996773 -0.076338
vn 0.000000 -1.000000 -0.000000
vn 0.776990 -0.278580 0.564517
vn 0.913408 -0.278579 0.296783
vn 0.334491 -0.910525 0.243022
vn 0.393218 -0.910525 0.127764
vn 0.960413 -0.278580 -0.000001
vn 0.413455 -0.910525 -0.000000
vn 0.243022 -0.910525 0.334491
vn 0.564516 -0.278580 0.776991
vn 0.913407 -0.278580 -0.296784
vn 0.393219 -0.910525 -0.127765
vn 0.127764 -0.910525 0.393218
vn 0.296784 -0.278580 0.913407
vn 0.776991 -0.278579 -0.564517
vn 0.334492 -0.910525 -0.243023
vn -0.000000 -0.910525 0.413454
vn 0.000000 -0.278580 0.960413
vn 0.564517 -0.278581 -0.776990
vn 0.243023 -0.910525 -0.334492
vn -0.127764 -0.910525 0.393218
vn -0.296784 -0.278580 0.913407
vn 0.296784 -0.278581 -0.913407
vn 0.127764 -0.910525 -0.393219
vn -0.243022 -0.910525 0.334491
vn -0.564517 -0.278581 0.776990
vn 0.000000 -0.278580 -0.960413
vn -0.000000 -0.910525 -0.413454
vn -0.334491 -0.910526 0.243022
vn -0.776990 -0.278581 0.564516
vn -0.296784 -0.278580 -0.913407
vn -0.127764 -0.910525 -0.393219
vn -0.393218 -0.910525 0.127764
vn -0.913407 -0.278579 0.296784
vn -0.564516 -0.278582 -0.776990
vn -0.243023 -0.910525 -0.334492
vn -0.413454 -0.910525 0.000000
vn -0.960414 -0.278578 -0.000000
vn -0.776990 -0.278581 -0.564517
vn -0.334492 -0.910524 -0.243023
vn -0.393219 -0.910525 -0.127764
vn -0.913407 -0.278579 -0.296784
vn -0.924720 -0.031746 -0.379321
vn -0.736690 -0.029706 -0.675578
vn -0.999467 -0.032649 0.000001
vn -0.498769 -0.027670 -0.866293
vn -0.382964 -0.026195 -0.923392
vn -0.924720 -0.031746 0.379321
vn 0.000000 -0.028638 -0.999590
vn -0.736690 -0.029706 0.675577
vn 0.382966 -0.026195 -0.923391
vn 0.498768 -0.027670 -0.866294
vn -0.382964 -0.026195 0.923392
vn -0.498769 -0.027670 0.866293
vn 0.000000 -0.028638 0.999590
vn 0.736689 -0.029705 -0.675579
vn 0.924720 -0.031745 -0.379322
vn 0.382964 -0.026195 0.923392
vn 0.999467 -0.032649 -0.000002
vn 0.498769 -0.027670 0.866293
vn 0.924720 -0.031746 0.379321
vn 0.736690 -0.029706 0.675578
vn 0.000000 -0.999990 -0.004599
vn -0.003929 -0.999944 -0.009852
vn -0.006326 -0.999925 -0.010508
vn -0.008647 -0.999934 -0.007575
vn -0.010102 -0.999941 -0.003954
vn -0.010591 -0.999944 0.000000
vn -0.010102 -0.999941 0.003954
vn -0.008647 -0.999934 0.007575
vn -0.006326 -0.999925 0.010508
vn -0.003929 -0.999944 0.009852
vn 0.000000 -0.999989 0.004599
vn 0.003929 -0.999944 0.009852
vn 0.006326 -0.999925 0.010508
vn 0.008647 -0.999934 0.007575
vn 0.010102 -0.999941 0.003954
vn 0.010591 -0.999944 -0.000000
vn 0.010102 -0.999941 -0.003954
vn 0.008647 -0.999934 -0.007575
vn 0.006326 -0.999925 -0.010508
vn 0.003929 -0.999944 -0.009852
vn -0.918469 -0.131933 -0.372837
vn -0.734642 -0.123883 -0.667048
vn -0.422916 -0.889988 -0.170478
vn -0.337438 -0.890927 -0.303949
vn -0.499096 -0.115669 -0.858792
vn -0.228109 -0.892583 -0.388924
vn -0.456412 -0.889768 0.000000
vn -0.990786 -0.135435 0.000001
vn -0.380052 -0.109597 -0.918449
vn -0.168666 -0.891351 -0.420767
vn 0.000000 -0.114648 -0.993406
vn 0.000001 -0.900624 -0.434600
vn -0.422916 -0.889988 0.170479
vn -0.918469 -0.131933 0.372838
vn 0.380054 -0.109598 -0.918449
vn 0.168666 -0.891351 -0.420768
vn -0.337438 -0.890927 0.303949
vn -0.734643 -0.123883 0.667048
vn 0.499096 -0.115671 -0.858792
vn 0.228110 -0.892583 -0.388925
vn 0.734642 -0.123884 -0.667049
vn 0.337439 -0.890926 -0.303950
vn -0.380052 -0.109597 0.918449
vn -0.499096 -0.115669 0.858792
vn -0.168666 -0.891351 0.420767
vn -0.228109 -0.892583 0.388924
vn 0.000001 -0.900624 0.434600
vn 0.000000 -0.114648 0.993406
vn 0.918469 -0.131933 -0.372838
vn 0.422916 -0.889988 -0.170480
vn 0.990786 -0.135435 -0.000002
vn 0.456413 -0.889768 -0.000001
vn 0.168666 -0.891351 0.420768
vn 0.380052 -0.109597 0.918449
vn 0.918469 -0.131934 0.372838
vn 0.422917 -0.889988 0.170479
vn 0.228109 -0.892583 0.388925
vn 0.499096 -0.115669 0.858792
vn 0.734643 -0.123883 0.667048
vn 0.337439 -0.890926 0.303950
s 1
g polySurface3
usemtl initialShadingGroup
f 1/1/1 2/2/2 6/3/3 5/4/4
f 1/1/1 5/4/4 8/5/5 3/6/6
f 2/2/2 4/7/7 10/8/8 6/3/3
f 5/4/4 6/3/3 12/9/9 11/10/10
f 3/6/6 8/5/5 14/11/11 7/12/12
f 5/4/4 11/10/10 15/13/13 8/5/5
f 4/7/7 9/14/14 17/15/15 10/8/8
f 6/3/3 10/8/8 18/16/16 12/9/9
f 11/10/10 12/9/9 20/17/17 19/18/18
f 7/12/12 14/11/11 22/19/19 13/20/20
f 8/5/5 15/13/13 23/21/21 14/11/11
f 11/10/10 19/18/18 24/22/22 15/13/13
f 9/14/14 16/23/23 26/24/24 17/15/15
f 10/8/8 17/15/15 27/25/25 18/16/16
f 12/9/9 18/16/16 28/26/26 20/17/17
f 19/18/18 20/17/17 30/27/27 29/28/28
f 13/20/20 22/19/19 32/29/29 21/30/30
f 14/11/11 23/21/21 33/31/31 22/19/19
f 15/13/13 24/22/22 34/32/32 23/21/21
f 19/18/18 29/28/28 35/33/33 24/22/22
f 16/23/23 25/34/34 37/35/35 26/24/24
f 17/15/15 26/24/24 38/36/36 27/25/25
f 18/16/16 27/25/25 39/37/37 28/26/26
f 20/17/17 28/26/26 40/38/38 30/27/27
f 29/28/28 30/27/27 42/39/39 41/40/40
f 21/30/30 32/29/29 44/41/41 31/42/42
f 22/19/19 33/31/31 45/43/43 32/29/29
f 23/21/21 34/32/32 46/44/44 33/31/31
f 24/22/22 35/33/33 47/45/45 34/32/32
f 29/28/28 41/40/40 48/46/46 35/33/33
f 25/34/34 36/47/47 50/48/48 37/35/35
f 26/24/24 37/35/35 51/49/49 38/36/36
f 27/25/25 38/36/36 52/50/50 39/37/37
f 28/26/26 39/37/37 53/51/51 40/38/38
f 30/27/27 40/38/38 54/52/52 42/39/39
f 41/40/40 42/39/39 56/53/53 55/54/54
f 31/42/42 44/41/41 58/55/55 43/56/56
f 32/29/29 45/43/43 59/57/57 44/41/41
f 33/31/31 46/44/44 60/58/58 45/43/43
f 34/32/32 47/45/45 61/59/59 46/44/44
f 35/33/33 48/46/46 62/60/60 47/45/45
f 41/40/40 55/54/54 63/61/61 48/46/46
f 36/47/47 49/62/62 65/63/63 50/48/48
f 37/35/35 50/48/48 66/64/64 51/49/49
f 38/36/36 51/49/49 67/65/65 52/50/50
f 39/37/37 52/50/50 68/66/66 53/51/51
f 40/38/38 53/51/51 69/67/67 54/52/52
f 42/39/39 54/52/52 70/68/68 56/53/53
f 55/54/54 56/53/53 72/69/69 71/70/70
f 43/56/56 58/55/55 74/71/71 57/72/72
f 44/41/41 59/57/57 75/73/73 58/55/55
f 45/43/43 60/58/58 76/74/74 59/57/57
f 46/44/44 61/59/59 77/75/75 60/58/58
f 47/45/45 62/60/60 78/76/76 61/59/59
f 48/46/46 63/61/61 79/77/77 62/60/60
f 55/54/54 71/70/70 80/78/78 63/61/61
f 49/62/62 64/79/79 82/80/80 65/63/63
f 50/48/48 65/63/63 83/81/81 66/64/64
f 51/49/49 66/64/64 84/82/82 67/65/65
f 52/50/50 67/65/65 85/83/83 68/66/66
f 53/51/51 68/66/66 86/84/84 69/67/67
f 54/52/52 69/67/67 87/85/85 70/68/68
f 56/53/53 70/68/68 88/86/86 72/69/69
f 71/70/70 72/69/69 90/361/87 89/362/88
f 57/72/72 74/71/71 92/89/89 73/90/90
f 58/55/55 75/73/73 93/91/91 74/71/71
f 59/57/57 76/74/74 94/92/92 75/73/73
f 60/58/58 77/75/75 95/93/93 76/74/74
f 61/59/59 78/76/76 96/94/94 77/75/75
f 62/60/60 79/77/77 97/95/95 78/76/76
f 63/61/61 80/78/78 98/96/96 79/77/77
f 71/70/70 89/362/88 99/360/97 80/78/78
f 64/79/79 81/98/98 101/99/99 82/80/80
f 65/63/63 82/80/80 102/100/100 83/81/81
f 66/64/64 83/81/81 103/101/101 84/82/82
f 67/65/65 84/82/82 104/102/102 85/83/83
f 68/66/66 85/83/83 105/103/103 86/84/84
f 69/67/67 86/84/84 106/104/104 87/85/85
f 70/68/68 87/85/85 107/105/105 88/86/86
f 72/69/69 88/86/86 108/359/106 90/361/87
f 73/90/90 92/89/89 109/107/107 91/108/108
f 74/71/71 93/91/91 110/109/109 92/89/89
f 75/73/73 94/92/92 111/110/110 93/91/91
f 76/74/74 95/93/93 112/111/111 94/92/92
f 77/75/75 96/94/94 113/112/112 95/93/93
f 78/76/76 97/95/95 114/113/113 96/94/94
f 79/77/77 98/96/96 115/114/114 97/95/95
f 80/78/78 99/360/97 116/358/115 98/96/96
f 81/98/98 100/116/116 117/117/117 101/99/99
f 82/80/80 101/99/99 118/118/118 102/100/100
f 83/81/81 102/100/100 119/119/119 103/101/101
f 84/82/82 103/101/101 120/120/120 104/102/102
f 85/83/83 104/102/102 121/121/121 105/103/103
f 86/84/84 105/103/103 122/122/122 106/104/104
f 87/85/85 106/104/104 123/123/123 107/105/105
f 88/86/86 107/105/105 124/357/124 108/359/106
f 91/108/108 109/107/107 117/117/117 100/116/116
f 92/89/89 110/109/109 125/125/125 109/107/107
f 93/91/91 111/110/110 126/126/126 110/109/109
f 94/92/92 112/111/111 127/127/127 111/110/110
f 95/93/93 113/112/112 128/128/128 112/111/111
f 96/94/94 114/113/113 129/129/129 113/112/112
f 97/95/95 115/114/114 130/130/130 114/113/113
f 98/96/96 116/358/115 131/356/131 115/114/114
f 101/99/99 117/117/117 132/132/132 118/118/118
f 102/100/100 118/118/118 133/133/133 119/119/119
f 103/101/101 119/119/119 134/134/134 120/120/120
f 104/102/102 120/120/120 135/135/135 121/121/121
f 105/103/103 121/121/121 136/136/136 122/122/122
f 106/104/104 122/122/122 137/137/137 123/123/123
f 107/105/105 123/123/123 138/355/138 124/357/124
f 109/107/107 125/125/125 132/132/132 117/117/117
f 110/109/109 126/126/126 139/139/139 125/125/125
f 111/110/110 127/127/127 140/140/140 126/126/126
f 112/111/111 128/128/128 141/141/141 127/127/127
f 113/112/112 129/129/129 142/142/142 128/128/128
f 114/113/113 130/130/130 143/143/143 129/129/129
f 115/114/114 131/356/131 144/354/144 130/130/130
f 118/118/118 132/132/132 145/145/145 133/133/133
f 119/119/119 133/133/133 146/146/146 134/134/134
f 120/120/120 134/134/134 147/147/147 135/135/135
f 121/121/121 135/135/135 148/148/148 136/136/136
f 122/122/122 136/136/136 149/149/149 137/137/137
f 123/123/123 137/137/137 150/353/150 138/355/138
f 125/125/125 139/139/139 145/145/145 132/132/132
f 126/126/126 140/140/140 151/151/151 139/139/139
f 127/127/127 141/141/141 152/152/152 140/140/140
f 128/128/128 142/142/142 153/153/153 141/141/141
f 129/129/129 143/143/143 154/154/154 142/142/142
f 130/130/130 144/354/144 155/352/155 143/143/143
f 133/133/133 145/145/145 156/156/156 146/146/146
f 134/134/134 146/146/146 157/157/157 147/147/147
f 135/135/135 147/147/147 158/158/158 148/148/148
f 136/136/136 148/148/148 159/159/159 149/149/149
f 137/137/137 149/149/149 160/351/160 150/353/150
f 139/139/139 151/151/151 156/156/156 145/145/145
f 140/140/140 152/152/152 161/161/161 151/151/151
f 141/141/141 153/153/153 162/162/162 152/152/152
f 142/142/142 154/154/154 163/163/163 153/153/153
f 143/143/143 155/352/155 164/350/164 154/154/154
f 146/146/146 156/156/156 165/165/165 157/157/157
f 147/147/147 157/157/157 166/166/166 158/158/158
f 148/148/148 158/158/158 167/167/167 159/159/159
f 149/149/149 159/159/159 168/349/168 160/351/160
f 151/151/151 161/161/161 165/165/165 156/156/156
f 152/152/152 162/162/162 169/169/169 161/161/161
f 153/153/153 163/163/163 170/170/170 162/162/162
f 154/154/154 164/350/164 171/348/171 163/163/163
f 157/157/157 165/165/165 172/172/172 166/166/166
f 158/158/158 166/166/166 173/173/173 167/167/167
f 159/159/159 167/167/167 174/174/174 168/349/168
f 161/161/161 169/169/169 172/172/172 165/165/165
f 162/162/162 170/170/170 175/175/175 169/169/169
f 163/163/163 171/348/171 176/347/176 170/170/170
f 166/166/166 172/172/172 177/177/177 173/173/173
f 167/167/167 173/173/173 178/178/178 174/174/174
f 169/169/169 175/175/175 177/177/177 172/172/172
f 170/170/170 176/347/176 179/346/179 175/175/175
f 173/173/173 177/177/177 180/337/180 178/178/178
f 175/175/175 179/346/179 180/337/180 177/177/177
f 201/181/181 204/182/182 2/2/2 1/1/1
f 201/181/181 1/1/1 3/6/6 207/183/183
f 204/182/182 210/184/184 4/7/7 2/2/2
f 207/343/183 3/6/6 7/12/12 213/185/185
f 210/184/184 216/186/186 9/14/14 4/7/7
f 213/185/185 7/12/12 13/20/20 219/187/187
f 216/186/186 222/188/188 16/23/23 9/14/14
f 219/187/187 13/20/20 21/30/30 225/189/189
f 222/188/188 228/190/190 25/34/34 16/23/23
f 225/189/189 21/30/30 31/42/42 231/191/191
f 228/190/190 234/192/192 36/47/47 25/34/34
f 231/191/191 31/42/42 43/56/56 237/193/193
f 234/192/192 240/194/194 49/62/62 36/47/47
f 237/193/193 43/56/56 57/72/72 243/195/195
f 240/194/194 246/196/196 64/79/79 49/62/62
f 243/195/195 57/72/72 73/90/90 249/197/197
f 246/196/196 252/198/198 81/98/98 64/79/79
f 249/197/197 73/90/90 91/108/108 255/199/199
f 252/198/198 258/200/200 100/116/116 81/98/98
f 255/199/199 91/108/108 100/116/116 258/200/200
s 2
f 242/201/201 236/202/202 190/203/203 191/204/204
f 236/202/202 230/205/205 189/206/206 190/203/203
f 230/205/205 224/207/207 188/208/208 189/206/206
f 224/207/207 218/209/209 187/210/210 188/208/208
f 218/209/209 212/211/211 186/212/212 187/210/210
f 212/211/211 206/213/213 185/214/214 186/212/212
f 206/213/213 203/215/215 184/216/216 185/214/214
f 203/215/215 209/342/217 183/335/218 184/216/216
f 209/217/217 215/219/219 182/220/220 183/218/218
f 215/219/219 221/221/221 181/222/222 182/220/220
f 221/221/221 227/223/223 200/224/224 181/222/222
f 227/223/223 233/225/225 199/226/226 200/224/224
f 233/225/225 239/227/227 198/228/228 199/226/226
f 239/227/227 245/229/229 197/230/230 198/228/228
f 245/229/229 251/231/231 196/232/232 197/230/230
f 251/231/231 257/233/233 195/234/234 196/232/232
f 257/233/233 260/235/235 194/236/236 195/234/234
f 260/235/235 254/341/237 193/333/238 194/236/236
f 254/237/237 248/239/239 192/240/240 193/238/238
f 248/239/239 242/201/201 191/204/204 192/240/240
s 1
f 201/181/181 202/241/241 205/242/242 204/182/182
s 2
f 202/241/243 203/215/215 206/213/213 205/242/244
s 1
f 204/182/182 205/242/242 211/243/245 210/184/184
s 2
f 205/242/244 206/213/213 212/211/211 211/243/246
f 203/215/215 202/241/243 208/345/247 209/342/217
s 1
f 202/241/241 201/181/181 207/183/183 208/345/248
f 210/184/184 211/243/245 217/245/249 216/186/186
s 2
f 211/243/246 212/211/211 218/209/209 217/245/250
f 209/217/217 208/244/247 214/246/251 215/219/219
s 1
f 208/244/248 207/343/183 213/185/185 214/246/252
f 216/186/186 217/245/249 223/247/253 222/188/188
s 2
f 217/245/250 218/209/209 224/207/207 223/247/254
f 215/219/219 214/246/251 220/248/255 221/221/221
s 1
f 214/246/252 213/185/185 219/187/187 220/248/256
f 222/188/188 223/247/253 229/249/257 228/190/190
s 2
f 223/247/254 224/207/207 230/205/205 229/249/258
f 221/221/221 220/248/255 226/250/259 227/223/223
s 1
f 220/248/256 219/187/187 225/189/189 226/250/260
f 228/190/190 229/249/257 235/251/261 234/192/192
s 2
f 229/249/258 230/205/205 236/202/202 235/251/262
f 227/223/223 226/250/259 232/252/263 233/225/225
s 1
f 226/250/260 225/189/189 231/191/191 232/252/264
f 234/192/192 235/251/261 241/253/265 240/194/194
s 2
f 235/251/262 236/202/202 242/201/201 241/253/266
f 233/225/225 232/252/263 238/254/267 239/227/227
s 1
f 232/252/264 231/191/191 237/193/193 238/254/268
f 240/194/194 241/253/265 247/255/269 246/196/196
s 2
f 241/253/266 242/201/201 248/239/239 247/255/270
f 239/227/227 238/254/267 244/256/271 245/229/229
s 1
f 238/254/268 237/193/193 243/195/195 244/256/272
f 246/196/196 247/255/269 253/344/273 252/198/198
s 2
f 247/255/270 248/239/239 254/237/237 253/344/274
f 245/229/229 244/256/271 250/258/275 251/231/231
s 1
f 244/256/272 243/195/195 249/197/197 250/258/276
f 252/198/198 253/257/273 259/259/277 258/200/200
s 2
f 253/257/274 254/341/237 260/235/235 259/259/278
f 251/231/231 250/258/275 256/260/279 257/233/233
s 1
f 250/258/276 249/197/197 255/199/199 256/260/280
s 2
f 257/233/233 256/260/279 259/259/278 260/235/235
s 1
f 256/260/280 255/199/199 258/200/200 259/259/277
f 261/261/281 264/262/282 89/88/88 90/87/87
f 267/263/283 261/261/281 90/87/87 108/106/106
f 270/264/284 273/265/285 116/115/115 99/97/97
f 276/266/286 267/263/283 108/106/106 124/124/124
f 279/267/287 131/131/131 116/115/115 273/265/285
f 282/268/288 276/266/286 124/124/124 138/138/138
f 279/267/287 285/269/289 144/144/144 131/131/131
f 285/269/289 288/270/290 155/155/155 144/144/144
f 291/271/291 294/272/292 150/150/150 160/160/160
f 297/273/293 291/271/291 160/160/160 168/168/168
f 300/274/294 303/275/295 171/171/171 164/164/164
f 306/276/296 297/273/293 168/168/168 174/338/174
f 309/277/297 176/176/176 171/171/171 303/275/295
f 312/278/298 306/339/296 174/174/174 178/178/178
f 309/277/297 315/279/299 179/179/179 176/176/176
f 315/279/299 318/336/300 180/180/180 179/179/179
f 138/138/138 150/150/150 294/272/292 282/268/288
f 178/178/178 180/337/180 318/280/300 312/278/298
f 99/97/97 89/88/88 264/262/282 270/264/284
f 164/164/164 155/155/155 288/270/290 300/274/294
s 2
f 182/220/220 181/222/222 281/281/301 275/282/302
f 183/218/218 182/220/220 275/282/302 272/334/303
f 184/216/216 183/335/218 272/283/303 266/284/304
f 185/214/214 184/216/216 266/284/304 263/285/305
f 186/212/212 185/214/214 263/285/305 269/286/306
f 187/210/210 186/212/212 269/286/306 278/287/307
f 188/208/208 187/210/210 278/287/307 284/288/308
f 189/206/206 188/208/208 284/288/308 296/289/309
f 190/203/203 189/206/206 296/289/309 293/290/310
f 191/204/204 190/203/203 293/290/310 299/291/311
f 192/240/240 191/204/204 299/291/311 308/292/312
f 193/238/238 192/240/240 308/292/312 314/332/313
f 194/236/236 193/333/238 314/293/313 320/294/314
f 195/234/234 194/236/236 320/294/314 317/295/315
f 196/232/232 195/234/234 317/295/315 311/296/316
f 197/230/230 196/232/232 311/296/316 305/297/317
f 198/228/228 197/230/230 305/297/317 302/298/318
f 199/226/226 198/228/228 302/298/318 290/299/319
f 200/224/224 199/226/226 290/299/319 287/300/320
f 181/222/222 200/224/224 287/300/320 281/281/301
s 1
f 261/261/281 262/301/321 265/302/322 264/262/282
s 2
f 262/301/323 263/285/305 266/284/304 265/302/324
s 1
f 264/262/282 265/302/322 271/331/325 270/264/284
s 2
f 265/302/324 266/284/304 272/283/303 271/331/326
f 263/285/305 262/301/323 268/304/327 269/286/306
s 1
f 262/301/321 261/261/281 267/263/283 268/304/328
f 270/264/284 271/331/325 274/330/329 273/265/285
s 2
f 271/303/326 272/334/303 275/282/302 274/305/330
s 1
f 273/265/285 274/330/329 280/329/331 279/267/287
s 2
f 274/305/330 275/282/302 281/281/301 280/306/332
f 269/286/306 268/304/327 277/307/333 278/287/307
s 1
f 268/304/328 267/263/283 276/266/286 277/307/334
f 279/267/287 280/329/331 286/328/335 285/269/289
s 2
f 280/306/332 281/281/301 287/300/320 286/308/336
f 278/287/307 277/307/333 283/309/337 284/288/308
s 1
f 277/307/334 276/266/286 282/268/288 283/309/338
f 285/269/289 286/328/335 289/327/339 288/270/290
s 2
f 286/308/336 287/300/320 290/299/319 289/310/340
s 1
f 288/270/290 289/327/339 301/326/341 300/274/294
s 2
f 289/310/340 290/299/319 302/298/318 301/311/342
s 1
f 291/271/291 292/312/343 295/313/344 294/272/292
s 2
f 292/312/345 293/290/310 296/289/309 295/313/346
f 284/288/308 283/309/337 295/313/346 296/289/309
s 1
f 283/309/338 282/268/288 294/272/292 295/313/344
s 2
f 293/290/310 292/312/345 298/314/347 299/291/311
s 1
f 292/312/343 291/271/291 297/273/293 298/314/348
f 300/274/294 301/326/341 304/325/349 303/275/295
s 2
f 301/311/342 302/298/318 305/297/317 304/315/350
s 1
f 303/275/295 304/325/349 310/324/351 309/277/297
s 2
f 304/315/350 305/297/317 311/296/316 310/316/352
f 299/291/311 298/314/347 307/317/353 308/292/312
s 1
f 298/314/348 297/273/293 306/276/296 307/317/354
f 309/277/297 310/324/351 316/323/355 315/279/299
s 2
f 310/316/352 311/296/316 317/295/315 316/318/356
f 308/292/312 307/317/353 313/319/357 314/332/313
s 1
f 307/317/354 306/276/296 312/340/298 313/319/358
f 315/279/299 316/323/355 319/322/359 318/336/300
s 2
f 316/318/356 317/295/315 320/294/314 319/320/360
f 314/293/313 313/321/357 319/320/360 320/294/314
s 1
f 313/319/358 312/340/298 318/336/300 319/322/359
