# This file uses centimeters as units for non-parametric coordinates.

mtllib BagelCounter.mtl
g default
v -2.462990 -0.605655 0.569299
v -1.231495 -0.605655 0.569299
v 0.000000 -0.605655 0.569299
v 1.231495 -0.605655 0.569299
v 2.462990 -0.605655 0.569299
v -2.462990 0.643000 0.569299
v -1.231495 0.643000 0.569299
v 0.000000 0.643000 0.569299
v 1.231495 0.643000 0.569299
v 2.462990 0.643000 0.569299
v -2.462990 0.643000 -0.531327
v -1.231495 0.643000 -0.531327
v 0.000000 0.643000 -0.531327
v 1.231495 0.643000 -0.531327
v 2.462990 0.643000 -0.531327
v -2.462990 -0.605655 -0.531327
v -1.231495 -0.605655 -0.531327
v 0.000000 -0.605655 -0.531327
v 1.231495 -0.605655 -0.531327
v 2.462990 -0.605655 -0.531327
v 2.351181 -0.605655 0.569299
v 2.351181 0.643000 0.569299
v 2.351181 0.643000 -0.531327
v 2.351181 -0.605655 -0.531327
v -2.351182 -0.605655 0.569299
v -2.351182 0.643000 0.569299
v -2.351182 0.643000 -0.531327
v -2.351182 -0.605655 -0.531327
v -0.053467 -0.605655 0.569299
v -0.053467 0.643000 0.569299
v -0.053467 0.643000 -0.531327
v -0.053467 -0.605655 -0.531327
v 0.053467 -0.605655 0.569299
v 0.053467 0.643000 0.569299
v 0.053467 0.643000 -0.531327
v 0.053467 -0.605655 -0.531327
v -2.462990 -0.567087 0.569299
v -2.462990 -0.567087 -0.531327
v -2.351182 -0.567087 -0.531327
v -1.231495 -0.567087 -0.531327
v -0.053467 -0.567087 -0.531327
v 0.000000 -0.567087 -0.531327
v 0.053467 -0.567087 -0.531327
v 1.231495 -0.567087 -0.531327
v 2.351181 -0.567087 -0.531327
v 2.462990 -0.567087 -0.531327
v 2.462990 -0.567087 0.569299
v 2.351181 -0.567087 0.569299
v 1.231495 -0.567087 0.569299
v 0.053467 -0.567087 0.569299
v 0.000000 -0.567087 0.569299
v -0.053467 -0.567087 0.569299
v -1.231495 -0.567087 0.569299
v -2.351182 -0.567087 0.569299
v -2.462990 0.606871 -0.531327
v -2.462990 0.606870 0.569299
v -2.351182 0.606870 0.569299
v -1.231495 0.606870 0.569299
v -0.053467 0.606870 0.569299
v 0.000000 0.606870 0.569299
v 0.053467 0.606870 0.569299
v 1.231495 0.606870 0.569299
v 2.351181 0.606870 0.569299
v 2.462990 0.606870 0.569299
v 2.462990 0.606871 -0.531327
v 2.351181 0.606871 -0.531327
v 1.231495 0.606871 -0.531327
v 0.053467 0.606871 -0.531327
v 0.000000 0.606871 -0.531327
v -0.053467 0.606871 -0.531327
v -1.231495 0.606871 -0.531327
v -2.351182 0.606871 -0.531327
v -2.462990 0.643000 0.538322
v -2.462990 0.606870 0.538322
v -2.462990 -0.567087 0.538322
v -2.462990 -0.605655 0.538322
v -2.351182 -0.605655 0.538322
v -1.231495 -0.605655 0.538322
v -0.053467 -0.605655 0.538322
v 0.000000 -0.605655 0.538322
v 0.053467 -0.605655 0.538322
v 1.231495 -0.605655 0.538322
v 2.351181 -0.605655 0.538322
v 2.462990 -0.605655 0.538322
v 2.462990 -0.567087 0.538322
v 2.462990 0.606870 0.538322
v 2.462990 0.643000 0.538322
v 2.351181 0.643000 0.538322
v 1.231495 0.643000 0.538322
v 0.053467 0.643000 0.538322
v 0.000000 0.643000 0.538322
v -0.053467 0.643000 0.538322
v -1.231495 0.643000 0.538322
v -2.351182 0.643000 0.538322
v -2.462990 -0.605655 -0.476255
v -2.462990 -0.567087 -0.476255
v -2.462990 0.606871 -0.476255
v -2.462990 0.643000 -0.476255
v -2.351182 0.643000 -0.476255
v -1.231495 0.643000 -0.476255
v -0.053467 0.643000 -0.476255
v 0.000000 0.643000 -0.476255
v 0.053467 0.643000 -0.476255
v 1.231495 0.643000 -0.476255
v 2.351181 0.643000 -0.476255
v 2.462990 0.643000 -0.476255
v 2.462990 0.606871 -0.476255
v 2.462990 -0.567087 -0.476255
v 2.462990 -0.605655 -0.476255
v 2.351181 -0.605655 -0.476255
v 1.231495 -0.605655 -0.476255
v 0.053467 -0.605655 -0.476255
v 0.000000 -0.605655 -0.476255
v -0.053467 -0.605655 -0.476255
v -1.231495 -0.605655 -0.476255
v -2.351182 -0.605655 -0.476255
v -2.478992 -0.620763 0.583791
v -2.351182 -0.624159 0.587048
v -2.351182 -0.567087 0.594400
v -2.482589 -0.567087 0.587048
v -1.231495 -0.624159 0.587048
v -0.053467 -0.624159 0.587048
v -0.053467 -0.567087 0.594400
v -1.231495 -0.567087 0.594400
v 0.000000 -0.624159 0.587048
v 0.053467 -0.624159 0.587048
v 0.053467 -0.567087 0.594400
v 0.000000 -0.567087 0.594400
v 1.231495 -0.624159 0.587048
v 2.351181 -0.624159 0.587048
v 2.351181 -0.567087 0.594400
v 1.231495 -0.567087 0.594400
v -2.478992 0.658109 0.583791
v -2.351182 0.661505 0.587048
v -2.351182 0.669169 0.538322
v -2.482589 0.661505 0.538322
v -1.231495 0.661505 0.587048
v -0.053467 0.661505 0.587048
v -0.053467 0.669169 0.538322
v -1.231495 0.669169 0.538322
v 0.000000 0.661505 0.587048
v 0.053467 0.661505 0.587048
v 0.053467 0.669169 0.538322
v 0.000000 0.669169 0.538322
v 1.231495 0.661505 0.587048
v 2.351181 0.661505 0.587048
v 2.351181 0.669169 0.538322
v 1.231495 0.669169 0.538322
v -2.482589 -0.567087 -0.549076
v -2.351182 -0.567087 -0.556428
v -2.351182 -0.624159 -0.549076
v -2.478992 -0.620763 -0.545819
v -1.231495 -0.567087 -0.556428
v -0.053467 -0.567087 -0.556428
v -0.053467 -0.624159 -0.549076
v -1.231495 -0.624159 -0.549076
v 0.000000 -0.567087 -0.556428
v 0.053467 -0.567087 -0.556428
v 0.053467 -0.624159 -0.549076
v 0.000000 -0.624159 -0.549076
v 1.231495 -0.567087 -0.556428
v 2.351181 -0.567087 -0.556428
v 2.351181 -0.624159 -0.549076
v 1.231495 -0.624159 -0.549076
v -2.482589 -0.624159 0.538322
v -2.351182 -0.631824 0.538322
v -1.231495 -0.631824 0.538322
v -0.053467 -0.631824 0.538322
v 0.000000 -0.631824 0.538322
v 0.053467 -0.631824 0.538322
v 1.231495 -0.631824 0.538322
v 2.351181 -0.631824 0.538322
v 2.482589 -0.624159 0.538322
v 2.478992 -0.620763 0.583791
v 2.490707 -0.567087 0.538322
v 2.482589 -0.567087 0.587048
v -2.490707 -0.567087 0.538322
v 2.482589 0.661505 0.538322
v 2.478992 0.658109 0.583791
v 2.482589 -0.567087 -0.549076
v 2.478992 -0.620763 -0.545819
v -2.490707 0.606870 0.538322
v -2.482589 0.606870 0.587048
v -2.478992 0.658109 -0.545819
v -2.351182 0.661505 -0.549076
v -2.351182 0.606871 -0.556428
v -2.482589 0.606871 -0.549076
v -1.231495 0.606871 -0.556428
v -1.231495 0.661505 -0.549076
v -0.053467 0.661505 -0.549076
v -0.053467 0.606871 -0.556428
v 0.000000 0.606871 -0.556428
v 0.000000 0.661505 -0.549076
v 0.053467 0.661505 -0.549076
v 0.053467 0.606871 -0.556428
v 1.231495 0.606871 -0.556428
v 1.231495 0.661505 -0.549076
v 2.351181 0.661505 -0.549076
v 2.351181 0.606871 -0.556428
v 2.482589 0.606871 -0.549076
v 2.478992 0.658109 -0.545819
v 2.482589 0.606870 0.587048
v 2.490707 0.606870 0.538322
v 2.351181 0.606870 0.594400
v 1.231495 0.606870 0.594400
v 0.053467 0.606870 0.594400
v 0.000000 0.606870 0.594400
v -0.053467 0.606870 0.594400
v -1.231495 0.606870 0.594400
v -2.351182 0.606870 0.594400
v -2.490707 0.606871 -0.476255
v -2.482589 0.661505 -0.476255
v -2.490707 -0.567087 -0.476255
v -2.482589 -0.624159 -0.476255
v -2.351182 -0.631824 -0.476255
v -1.231495 -0.631824 -0.476255
v -0.053467 -0.631824 -0.476255
v 0.000000 -0.631824 -0.476255
v 0.053467 -0.631824 -0.476255
v 1.231495 -0.631824 -0.476255
v 2.351181 -0.631824 -0.476255
v 2.482589 -0.624159 -0.476255
v 2.490707 -0.567087 -0.476255
v 2.490707 0.606871 -0.476255
v 2.482589 0.661505 -0.476255
v 2.351181 0.669169 -0.476255
v 1.231495 0.669169 -0.476255
v 0.053467 0.669169 -0.476255
v 0.000000 0.669169 -0.476255
v -0.053467 0.669169 -0.476255
v -1.231495 0.669169 -0.476255
v -2.351182 0.669169 -0.476255
vt 0.825537 0.004716
vt 0.825537 0.004716
vt 0.825537 0.004716
vt 0.825537 0.004716
vt 0.825537 0.004716
vt 0.730203 0.041652
vt 0.729962 0.041772
vt 0.825537 0.004716
vt 0.730260 0.041685
vt 0.704751 0.319450
vt 0.729917 0.041839
vt 0.730031 0.041777
vt 0.704622 0.319359
vt 0.679411 0.296566
vt 0.961405 0.272490
vt 0.704724 0.319412
vt 0.825537 0.004716
vt 0.825537 0.004716
vt 0.825537 0.004716
vt 0.825537 0.004716
vt 0.825537 0.004716
vt 0.825537 0.004716
vt 0.825537 0.004716
vt 0.825537 0.004716
vt 0.825537 0.004717
vt 0.825537 0.004717
vt 0.825535 0.004718
vt 0.825536 0.004717
vt 0.729866 0.041837
vt 0.729866 0.041837
vt 0.960043 0.273354
vt 0.729866 0.041837
vt 0.825537 0.004716
vt 0.825537 0.004716
vt 0.825537 0.004716
vt 0.825537 0.004716
vt 0.825537 0.004716
vt 0.829817 0.000000
vt 0.792074 0.015312
vt 0.757534 0.007388
vt 0.811571 0.010789
vt 0.810827 0.015095
vt 0.780028 0.025973
vt 0.791400 0.018337
vt 0.854683 0.072677
vt 0.866323 0.221321
vt 0.797470 0.258073
vt 0.797971 0.097475
vt 0.825537 0.004716
vt 0.825537 0.004716
vt 0.825537 0.004716
vt 0.730386 0.041510
vt 0.730921 0.041496
vt 0.730141 0.041814
vt 0.704728 0.319447
vt 0.677159 0.294030
vt 0.689737 0.307065
vt 0.695623 0.309971
vt 0.702575 0.316019
vt 0.961377 0.272564
vt 0.825537 0.004716
vt 0.955637 0.281447
vt 0.957232 0.279205
vt 0.797482 0.327022
vt 0.775663 0.351495
vt 0.825537 0.004716
vt 0.825537 0.004716
vt 0.825537 0.004716
vt 0.825537 0.004716
vt 0.825537 0.004716
vt 0.825537 0.004716
vt 0.825581 0.004663
vt 0.825537 0.004716
vt 0.825512 0.004700
vt 0.825574 0.004635
vt 0.825248 0.004842
vt 0.825432 0.004759
vt 0.825314 0.004864
vt 0.825113 0.005065
vt 0.825417 0.004851
vt 0.825413 0.004850
vt 0.825423 0.004845
vt 0.930829 0.278156
vt 0.894065 0.323702
vt 0.894351 0.334612
vt 0.959457 0.275738
vt 0.953298 0.284605
vt 0.960701 0.273114
vt 0.729866 0.041837
vt 0.729867 0.041837
vt 0.729868 0.041836
vt 0.729865 0.041835
vt 0.825537 0.004716
vt 0.825537 0.004716
vt 0.825537 0.004716
vt 0.825537 0.004716
vt 0.825537 0.004716
vt 0.825537 0.004716
vt 0.825537 0.004716
vt 0.754439 0.008402
vt 0.749453 0.031575
vt 0.760337 0.031056
vt 0.740052 0.041722
vt 0.725285 0.123457
vt 0.727018 0.270640
vt 0.773280 0.350990
vt 0.768592 0.349896
vt 0.900692 0.331106
vt 0.897477 0.332926
vt 0.941281 0.270529
vt 0.825426 0.004839
vt 0.825475 0.004763
vt 0.825485 0.004741
vt 0.825529 0.004709
vt 0.825537 0.004716
vt 0.825537 0.004716
vt 0.825537 0.004716
vt 0.825537 0.004716
vt 0.825537 0.004716
vt 0.825537 0.004716
vt 0.729831 0.041760
vt 0.825537 0.004716
vt 0.729736 0.041848
vt 0.729532 0.041881
vt 0.729500 0.041948
vt 0.729714 0.041888
vt 0.729855 0.041860
vt 0.704753 0.319452
vt 0.704853 0.319529
vt 0.704845 0.319500
vt 0.707759 0.321316
vt 0.674484 0.290887
vt 0.825537 0.004716
vt 0.825537 0.004716
vt 0.825537 0.004716
vt 0.825537 0.004716
vt 0.825537 0.004716
vt 0.825537 0.004716
vt 0.825538 0.004716
vt 0.825538 0.004716
vt 0.825538 0.004716
vt 0.825539 0.004716
vt 0.825537 0.004717
vt 0.729866 0.041837
vt 0.729866 0.041837
vt 0.729866 0.041837
vt 0.729866 0.041837
vt 0.960993 0.272299
vt 0.825537 0.004716
vt 0.825537 0.004716
vt 0.825537 0.004716
vt 0.825537 0.004716
vt 0.748088 0.010681
vt 0.750406 0.009818
vt 0.833549 0.000428
vt 0.830926 0.000119
vt 0.832286 0.002719
vt 0.837004 0.000896
vt 0.840476 0.001435
vt 0.827712 0.007662
vt 0.878542 0.057719
vt 0.917515 0.034126
vt 0.976143 0.109583
vt 0.923994 0.163511
vt 0.825537 0.004716
vt 0.825537 0.004716
vt 0.729826 0.041760
vt 0.729372 0.041876
vt 0.728949 0.042146
vt 0.704754 0.319453
vt 0.704793 0.319492
vt 0.675595 0.292210
vt 0.717472 0.328326
vt 0.961487 0.272388
vt 0.961452 0.272453
vt 0.718948 0.329233
vt 0.825537 0.004716
vt 0.965892 0.265560
vt 0.948651 0.290477
vt 0.790865 0.353930
vt 0.794021 0.354268
vt 0.825537 0.004716
vt 0.825537 0.004716
vt 0.825537 0.004716
vt 0.825537 0.004716
vt 0.825537 0.004716
vt 0.825537 0.004716
vt 0.825537 0.004716
vt 0.825583 0.004663
vt 0.825710 0.004565
vt 0.825651 0.004629
vt 0.825731 0.004641
vt 0.825637 0.004669
vt 0.825484 0.004877
vt 0.825579 0.004751
vt 0.825424 0.004847
vt 0.825432 0.004840
vt 0.825423 0.004845
vt 0.951745 0.254631
vt 0.878719 0.341899
vt 0.880961 0.340965
vt 0.950313 0.288436
vt 0.951549 0.286875
vt 0.961513 0.271900
vt 0.729866 0.041837
vt 0.729867 0.041837
vt 0.825537 0.004716
vt 0.729861 0.041837
vt 0.825537 0.004716
vt 0.825537 0.004716
vt 0.825537 0.004716
vt 0.825537 0.004716
vt 0.825537 0.004716
vt 0.825537 0.004716
vt 0.825537 0.004716
vt 0.825537 0.004716
vt 0.717093 0.042222
vt 0.701728 0.049508
vt 0.715638 0.049516
vt 0.697470 0.129621
vt 0.685936 0.250791
vt 0.643688 0.236836
vt 0.765933 0.349215
vt 0.885610 0.338913
vt 0.883386 0.339915
vt 0.954457 0.253442
vt 0.825430 0.004837
vt 0.825541 0.004734
vt 0.825584 0.004697
vt 0.825581 0.004684
vt 0.825582 0.004665
vt 0.825537 0.004716
vt 0.825581 0.004665
vt 0.825580 0.004665
vt 0.825537 0.004716
vt 0.825423 0.004845
vt 0.932661 0.278596
vt 0.825423 0.004845
vt 0.891192 0.336235
vt 0.887872 0.337857
vt 0.902843 0.329839
vt 0.782793 0.352805
vt 0.778052 0.351968
vt 0.785505 0.353225
vt 0.825537 0.004716
vt 0.825537 0.004716
vt 0.752837 0.008951
vt 0.825537 0.004716
vt 0.825537 0.004716
vt 0.825537 0.004716
vt 0.825537 0.004716
vt 0.825537 0.004716
vt 0.825537 0.004716
vt 0.825537 0.004716
vt 0.825537 0.004716
vt 0.825537 0.004716
vt 0.825537 0.004716
vt 0.825537 0.004716
vt 0.825537 0.004716
vt 0.825537 0.004716
vt 0.825537 0.004717
vt 0.825538 0.004716
vt 0.825537 0.004717
vt 0.729866 0.041837
vt 0.729866 0.041837
vt 0.960360 0.273357
vt 0.729866 0.041837
vt 0.960961 0.273662
vt 0.958793 0.276940
vt 0.962497 0.271242
vt 0.825423 0.004845
vt 0.945015 0.260224
vt 0.825537 0.004716
vt 0.825583 0.004662
vt 0.825537 0.004716
vt 0.825537 0.004716
vt 0.825537 0.004716
vt 0.825537 0.004716
vt 0.760923 0.006350
vt 0.747000 0.011100
vt 0.825537 0.004716
vt 0.700895 0.316675
vt 0.701332 0.315515
vt 0.705114 0.319147
vt 0.825537 0.004716
vt 0.825537 0.004716
vt 0.961405 0.272539
vt 0.709802 0.321765
vt 0.703574 0.318754
vt 0.705494 0.320195
vt 0.704752 0.319451
vt 0.730012 0.041813
vt 0.729710 0.041980
vt 0.729833 0.041757
vt 0.729843 0.041755
vt 0.825537 0.004716
vt 0.688590 0.048181
vt 0.687785 0.048953
vt 0.825537 0.004716
vt 0.825537 0.004716
vt 0.729866 0.041837
vt 0.961162 0.271372
vt 0.729866 0.041837
vt 0.729866 0.041837
vt 0.825537 0.004716
vt 0.961415 0.272469
vt 0.704752 0.319450
vt 0.704754 0.319452
vt 0.729840 0.041759
vt 0.729833 0.041762
vt 0.788667 0.353661
vt 0.762854 0.348372
vt 0.985738 0.213173
vt 0.904927 0.328572
vt 0.825537 0.004716
vt 0.825537 0.004716
vt 0.825537 0.004716
vt 0.825537 0.004716
vt 0.665687 0.279382
vt 0.986254 0.210581
vt 0.825423 0.004845
vt 0.825537 0.004716
vt 0.825537 0.004716
vt 0.825537 0.004716
vt 0.825537 0.004716
vt 0.825537 0.004716
vt 0.825537 0.004716
vt 0.947371 0.292009
vt 0.713180 0.324827
vt 0.666689 0.280795
vt 0.706887 0.321215
vt 0.729861 0.041874
vt 0.825537 0.004716
vt 0.825537 0.004716
vt 0.963540 0.269547
vt 0.729865 0.041837
vt 0.825537 0.004717
vt 0.986695 0.208192
vt 0.980954 0.122789
vt 0.964891 0.267287
vt 0.729866 0.041837
vt 0.825537 0.004717
vt 0.825537 0.004716
vt 0.825537 0.004716
vt 0.825537 0.004716
vt 0.825537 0.004716
vt 0.825537 0.004716
vt 0.642958 0.234745
vt 0.979959 0.119774
vt 0.685897 0.050801
vt 0.825537 0.004716
vt 0.825537 0.004716
vt 0.681031 0.055832
vt 0.640035 0.128790
vt 0.683449 0.053282
vt 0.639750 0.224346
vt 0.825537 0.004716
vn -0.041963 -0.096621 0.994436
vn -0.004170 -0.124682 0.992188
vn -0.039581 -0.039552 0.998433
vn -0.055274 -0.004145 0.998463
vn 0.000000 -0.127760 0.991805
vn 0.000000 -0.127760 0.991805
vn 0.000000 -0.067890 0.997693
vn 0.000000 -0.127760 0.991805
vn 0.000000 -0.127761 0.991805
vn 0.000000 -0.127760 0.991805
vn 0.000000 -0.067889 0.997693
vn 0.000000 -0.005972 0.999982
vn 0.000000 -0.127760 0.991805
vn 0.004170 -0.124682 0.992188
vn 0.039581 -0.039552 0.998433
vn 0.000000 -0.127760 0.991805
vn -0.043812 0.992028 0.118156
vn -0.004338 0.988413 0.151727
vn -0.041394 0.997995 0.047878
vn -0.057639 0.998325 0.004968
vn 0.000000 0.987853 0.155391
vn 0.000000 0.987853 0.155391
vn 0.000000 0.996605 0.082335
vn 0.000000 0.987853 0.155391
vn 0.000000 0.987853 0.155390
vn 0.000000 0.987853 0.155391
vn 0.000000 0.996605 0.082335
vn 0.000000 0.999974 0.007208
vn 0.000000 0.987853 0.155391
vn 0.004338 0.988413 0.151728
vn 0.041393 0.997995 0.047878
vn 0.000000 0.987853 0.155391
vn -0.055274 -0.004145 -0.998463
vn -0.039581 -0.039553 -0.998433
vn -0.004170 -0.124683 -0.992188
vn -0.041964 -0.096623 -0.994436
vn 0.000000 -0.127761 -0.991805
vn 0.000000 -0.067890 -0.997693
vn 0.000000 -0.127761 -0.991805
vn 0.000000 -0.127761 -0.991805
vn 0.000000 -0.005972 -0.999982
vn 0.000000 -0.067890 -0.997693
vn 0.000000 -0.127761 -0.991805
vn 0.000000 -0.127761 -0.991805
vn 0.000000 -0.127761 -0.991805
vn 0.039581 -0.039552 -0.998433
vn 0.004170 -0.124683 -0.992188
vn 0.000000 -0.127761 -0.991805
vn -0.057639 -0.998325 0.004968
vn -0.041394 -0.997995 0.047878
vn -0.004338 -0.988413 0.151727
vn -0.043813 -0.992028 0.118158
vn 0.000000 -0.987853 0.155391
vn -0.000001 -0.996605 0.082335
vn -0.000000 -0.987853 0.155391
vn 0.000000 -0.987853 0.155391
vn 0.000000 -0.999974 0.007208
vn 0.000001 -0.996605 0.082335
vn 0.000000 -0.987853 0.155391
vn 0.000000 -0.987853 0.155392
vn 0.000000 -0.987853 0.155391
vn 0.041394 -0.997995 0.047878
vn 0.004338 -0.988413 0.151727
vn 0.000000 -0.987853 0.155391
vn 0.986063 -0.108026 0.126533
vn 0.990206 -0.139513 0.005262
vn 0.993925 -0.071946 0.083283
vn 0.986650 -0.004569 0.162793
vn -0.993925 -0.071946 0.083283
vn -0.990206 -0.139513 0.005262
vn -0.986063 -0.108023 0.126533
vn -0.986650 -0.004569 0.162793
vn 0.055274 -0.004145 0.998463
vn 0.041963 -0.096621 0.994436
vn 0.057639 0.998325 0.004968
vn 0.043812 0.992028 0.118156
vn 0.055274 -0.004145 -0.998463
vn 0.041963 -0.096622 -0.994436
vn 0.057639 -0.998325 0.004968
vn 0.043812 -0.992028 0.118158
vn -0.989326 0.145621 0.005260
vn -0.993662 0.073546 0.085010
vn -0.986637 0.004571 0.162868
vn -0.985498 0.112942 0.126640
vn -0.042003 0.101029 -0.993996
vn -0.004168 0.130171 -0.991483
vn -0.040064 0.040092 -0.998393
vn -0.055302 0.004145 -0.998461
vn 0.000000 0.133363 -0.991067
vn 0.000000 0.133363 -0.991067
vn 0.000000 0.133363 -0.991067
vn 0.000000 0.069450 -0.997585
vn 0.000000 0.005984 -0.999982
vn 0.000000 0.133363 -0.991067
vn 0.000000 0.133363 -0.991067
vn 0.000000 0.069449 -0.997585
vn 0.000000 0.133363 -0.991067
vn 0.000000 0.133363 -0.991067
vn 0.004168 0.130171 -0.991483
vn 0.040064 0.040092 -0.998393
vn 0.055302 0.004145 -0.998461
vn 0.042003 0.101029 -0.993996
vn 0.986637 0.004570 0.162868
vn 0.993662 0.073545 0.085010
vn 0.989327 0.145621 0.005260
vn 0.985498 0.112939 0.126640
vn 0.004168 0.130170 0.991483
vn 0.040064 0.040092 0.998392
vn 0.055302 0.004145 0.998461
vn 0.042003 0.101028 0.993997
vn 0.000000 0.133362 0.991067
vn 0.000000 0.133362 0.991067
vn 0.000000 0.133362 0.991067
vn 0.000000 0.069449 0.997585
vn 0.000000 0.005984 0.999982
vn 0.000000 0.133362 0.991067
vn 0.000000 0.133362 0.991067
vn 0.000000 0.069449 0.997585
vn 0.000000 0.133362 0.991067
vn 0.000000 0.133362 0.991067
vn -0.004168 0.130170 0.991483
vn -0.040064 0.040092 0.998393
vn -0.055303 0.004145 0.998461
vn -0.042003 0.101028 0.993997
vn -0.993950 0.004590 -0.109736
vn -0.995916 0.059619 -0.067801
vn -0.989439 0.144859 -0.005219
vn -0.990123 0.112146 -0.084140
vn -0.993956 -0.004589 -0.109682
vn -0.996054 -0.058555 -0.066688
vn -0.990670 -0.107264 -0.084069
vn -0.990310 -0.138777 -0.005222
vn -0.043482 -0.995968 -0.078465
vn -0.004357 -0.994769 -0.102061
vn -0.036443 -0.998475 -0.041472
vn -0.057311 -0.998344 -0.004942
vn 0.000000 -0.994506 -0.104675
vn 0.000000 -0.994506 -0.104675
vn -0.000000 -0.994506 -0.104676
vn -0.000001 -0.997856 -0.065443
vn 0.000000 -0.999975 -0.007049
vn 0.000000 -0.994506 -0.104677
vn 0.000000 -0.994506 -0.104676
vn 0.000001 -0.997856 -0.065442
vn 0.000000 -0.994507 -0.104676
vn 0.000000 -0.994507 -0.104676
vn 0.004357 -0.994769 -0.102061
vn 0.036443 -0.998475 -0.041472
vn 0.057311 -0.998344 -0.004942
vn 0.043482 -0.995968 -0.078465
vn 0.996054 -0.058555 -0.066688
vn 0.990310 -0.138778 -0.005222
vn 0.990670 -0.107266 -0.084069
vn 0.993956 -0.004589 -0.109682
vn 0.995916 0.059619 -0.067801
vn 0.993950 0.004590 -0.109736
vn 0.989439 0.144859 -0.005219
vn 0.990123 0.112147 -0.084140
vn 0.004357 0.994769 -0.102061
vn 0.036443 0.998475 -0.041472
vn 0.057310 0.998344 -0.004942
vn 0.043481 0.995968 -0.078464
vn 0.000000 0.994507 -0.104675
vn 0.000000 0.994507 -0.104675
vn 0.000000 0.994506 -0.104675
vn 0.000000 0.997856 -0.065442
vn 0.000000 0.999975 -0.007048
vn 0.000000 0.994506 -0.104675
vn 0.000000 0.994507 -0.104675
vn 0.000000 0.997856 -0.065442
vn 0.000000 0.994507 -0.104675
vn 0.000000 0.994507 -0.104675
vn -0.004357 0.994769 -0.102060
vn -0.036443 0.998475 -0.041472
vn -0.057310 0.998344 -0.004942
vn -0.043482 0.995968 -0.078464
vn 0.000000 0.000000 -1.000000
vn 0.000000 0.000000 -1.000000
vn 0.000000 0.000000 -1.000000
vn 0.000000 0.000000 -1.000000
vn 0.000000 0.000000 -1.000000
vn 0.000000 0.000000 -1.000000
vn 0.000000 0.000000 -1.000000
vn 0.000000 0.000000 -1.000000
vn 0.000000 0.000000 -1.000000
vn 0.000000 0.000000 -1.000000
vn 0.000000 0.000000 -1.000000
vn 0.000000 0.000000 -1.000000
vn 0.000000 0.000000 -1.000000
vn 0.000000 0.000000 -1.000000
vn 0.000000 0.000000 -1.000000
vn 0.000000 0.000000 -1.000000
vn 0.000000 -1.000000 0.000000
vn 0.000000 -1.000000 0.000000
vn 0.000000 -1.000000 0.000000
vn 0.000000 -1.000000 0.000000
vn 0.000000 -1.000000 0.000000
vn 0.000000 -1.000000 0.000000
vn 0.000000 -1.000000 0.000000
vn 0.000000 -1.000000 0.000000
vn 0.000000 -1.000000 0.000001
vn 0.000000 -1.000000 0.000000
vn 0.000000 -1.000000 -0.000000
vn 0.000000 -1.000000 0.000000
vn 0.000000 -1.000000 0.000000
vn 0.000000 -1.000000 0.000000
vn 0.000000 -1.000000 0.000000
vn 0.000000 -1.000000 0.000000
vn 0.000000 0.000000 1.000000
vn 0.000000 0.000000 1.000000
vn 0.000000 0.000000 1.000000
vn 0.000000 0.000000 1.000000
vn 0.000000 0.000000 1.000000
vn 0.000000 0.000000 1.000000
vn 0.000000 0.000000 1.000000
vn 0.000000 0.000000 1.000000
vn 0.000000 0.000000 1.000000
vn 0.000000 0.000000 1.000000
vn 0.000000 0.000000 1.000000
vn 0.000000 0.000000 1.000000
vn 0.000000 0.000000 1.000000
vn 0.000000 0.000000 1.000000
vn 0.000000 0.000000 1.000000
vn 0.000000 0.000000 1.000000
vn 0.000000 1.000000 0.000000
vn 0.000000 1.000000 0.000000
vn 0.000000 1.000000 0.000000
vn 0.000000 1.000000 0.000000
vn 0.000000 1.000000 0.000000
vn 0.000000 1.000000 0.000000
vn 0.000000 1.000000 0.000000
vn 0.000000 1.000000 0.000000
vn 0.000000 1.000000 0.000000
vn 0.000000 1.000000 0.000000
vn 0.000000 1.000000 0.000000
vn 0.000000 1.000000 0.000000
vn 0.000000 1.000000 0.000000
vn 0.000000 1.000000 0.000000
vn 0.000000 1.000000 0.000000
vn 0.000000 1.000000 0.000000
vn -1.000000 0.000000 0.000000
vn -1.000000 0.000000 0.000000
vn -1.000000 0.000000 0.000000
vn -1.000000 0.000000 0.000000
vn 1.000000 -0.000003 0.000000
vn 1.000000 0.000000 0.000000
vn 1.000000 0.000003 0.000000
vn 1.000000 -0.000006 0.000000
vn 0.000000 0.000000 -1.000000
vn 0.000000 0.000000 -1.000000
vn 0.000000 -1.000000 0.000000
vn 0.000000 -1.000000 0.000000
vn 0.000000 0.000000 1.000000
vn 0.000000 0.000000 1.000000
vn 0.000000 1.000000 0.000000
vn 0.000000 1.000000 0.000000
vn 1.000000 -0.000006 0.000000
vn 1.000000 0.000003 0.000000
vn 1.000000 -0.000000 0.000000
vn 1.000000 -0.000003 0.000000
vn 0.000000 0.000000 1.000000
vn 0.000000 0.000000 1.000000
vn 0.000000 0.000000 1.000000
vn 0.000000 0.000000 1.000000
vn 0.000000 0.000000 1.000000
vn 0.000000 0.000000 1.000000
vn 0.000000 0.000000 1.000000
vn 0.000000 0.000000 1.000000
vn 0.000000 0.000000 1.000000
vn 0.000000 0.000000 1.000000
vn 0.000000 0.000000 1.000000
vn 0.000000 0.000000 1.000000
vn 0.000000 0.000000 1.000000
vn 0.000000 0.000000 1.000000
vn 0.000000 0.000000 1.000000
vn 0.000000 0.000000 1.000000
vn 0.000000 0.000000 1.000000
vn 0.000000 0.000000 1.000000
vn -1.000000 0.000000 0.000000
vn -1.000000 0.000000 0.000000
vn -1.000000 0.000000 0.000000
vn -1.000000 0.000000 0.000000
vn 0.000000 0.000000 -1.000000
vn 0.000000 0.000000 -1.000000
vn 0.000000 0.000000 -1.000000
vn 0.000000 0.000000 -1.000000
vn 0.000000 0.000000 -1.000000
vn 0.000000 0.000000 -1.000000
vn 0.000000 0.000000 -1.000000
vn 0.000000 0.000000 -1.000000
vn 0.000000 0.000000 -1.000000
vn 0.000000 0.000000 -1.000000
vn 0.000000 0.000000 -1.000000
vn 0.000000 0.000000 -1.000000
vn 0.000000 0.000000 -1.000000
vn 0.000000 0.000000 -1.000000
vn 0.000000 0.000000 -1.000000
vn 0.000000 0.000000 -1.000000
vn 0.000000 0.000000 -1.000000
vn 0.000000 0.000000 -1.000000
vn 1.000000 0.000000 0.000000
vn 1.000000 0.000000 0.000000
vn 1.000000 -0.000006 0.000000
vn 1.000000 -0.000002 0.000000
vn 1.000000 0.000000 0.000000
vn 1.000000 -0.000002 0.000000
vn 1.000000 0.000000 0.000000
vn 1.000000 -0.000006 0.000000
vn 0.000000 1.000000 0.000000
vn 0.000000 1.000000 0.000000
vn 0.000000 1.000000 0.000000
vn 0.000000 1.000000 0.000000
vn 0.000000 1.000000 0.000000
vn 0.000000 1.000000 0.000000
vn 0.000000 1.000000 0.000000
vn 0.000000 1.000000 0.000000
vn 0.000000 1.000000 0.000000
vn 0.000000 1.000000 0.000000
vn 0.000000 1.000000 0.000000
vn 0.000000 1.000000 0.000000
vn 0.000000 1.000000 0.000000
vn 0.000000 1.000000 0.000000
vn 0.000000 1.000000 0.000000
vn 0.000000 1.000000 0.000000
vn 0.000000 1.000000 0.000000
vn 0.000000 1.000000 0.000000
vn -1.000000 0.000000 0.000000
vn -1.000000 0.000000 0.000000
vn -1.000000 0.000000 0.000000
vn -1.000000 0.000000 0.000000
vn -1.000000 0.000000 0.000000
vn -1.000000 0.000000 0.000000
vn -1.000000 0.000000 0.000000
vn -1.000000 0.000000 0.000000
vn 0.000000 -1.000000 0.000000
vn 0.000000 -1.000000 0.000000
vn 0.000000 -1.000000 0.000000
vn 0.000000 -1.000000 0.000000
vn 0.000000 -1.000000 0.000000
vn 0.000000 -1.000000 0.000000
vn 0.000000 -1.000000 0.000000
vn 0.000000 -1.000000 -0.000000
vn 0.000000 -1.000000 -0.000000
vn 0.000000 -1.000000 0.000000
vn 0.000000 -1.000000 0.000000
vn 0.000000 -1.000000 0.000000
vn 0.000000 -1.000000 0.000000
vn 0.000000 -1.000000 0.000000
vn 0.000000 -1.000000 0.000000
vn 0.000000 -1.000000 0.000000
vn 0.000000 -1.000000 0.000000
vn 0.000000 -1.000000 0.000000
vn 0.000000 1.000000 0.000000
vn 0.000000 1.000000 0.000000
vn 0.000000 1.000000 0.000000
vn 0.000000 1.000000 0.000000
vn 0.000000 1.000000 0.000000
vn 0.000000 1.000000 0.000000
vn 0.000000 1.000000 0.000000
vn 0.000000 1.000000 0.000000
vn 0.000000 0.000000 -1.000000
vn 0.000000 0.000000 -1.000000
vn 0.000000 0.000000 -1.000000
vn 0.000000 0.000000 -1.000000
vn 0.000000 0.000000 -1.000000
vn 0.000000 0.000000 -1.000000
vn 0.000000 0.000000 -1.000000
vn 0.000000 0.000000 -1.000000
vn 0.000000 1.000000 0.000000
vn 0.000000 1.000000 0.000000
vn 0.000000 1.000000 0.000000
vn 0.000000 1.000000 0.000000
vn 0.000000 1.000000 0.000000
vn 0.000000 1.000000 0.000000
vn 0.000000 1.000000 0.000000
vn 0.000000 1.000000 0.000000
vn 0.000000 0.000000 -1.000000
vn 0.000000 0.000000 -1.000000
vn 0.000000 0.000000 -1.000000
vn 0.000000 0.000000 -1.000000
vn 0.000000 0.000000 -1.000000
vn 0.000000 0.000000 -1.000000
vn 0.000000 0.000000 -1.000000
vn 0.000000 0.000000 -1.000000
vn 0.000000 1.000000 0.000000
vn 0.000000 1.000000 0.000000
vn 0.000000 0.000000 -1.000000
vn 0.000000 0.000000 -1.000000
vn 0.000000 1.000000 0.000000
vn 0.000000 1.000000 0.000000
vn 0.000000 0.000000 -1.000000
vn 0.000000 0.000000 -1.000000
vn 0.000000 1.000000 0.000000
vn 0.000000 1.000000 0.000000
vn 0.000000 0.000000 -1.000000
vn 0.000000 0.000000 -1.000000
vn 0.000000 1.000000 0.000000
vn 0.000000 1.000000 0.000000
vn 0.000000 0.000000 -1.000000
vn 0.000000 0.000000 -1.000000
vn 0.000000 -1.000000 0.000000
vn 0.000000 -1.000000 0.000000
vn 0.000000 -1.000000 0.000000
vn 0.000000 -1.000000 0.000000
vn 0.000000 -1.000000 0.000000
vn 0.000000 -1.000000 0.000000
vn 0.000000 -1.000000 0.000000
vn 0.000000 -1.000000 0.000000
vn 0.000000 -1.000000 0.000000
vn 0.000000 -1.000000 0.000000
vn 0.000000 -1.000000 0.000000
vn 0.000000 -1.000000 0.000000
vn 0.000000 -1.000000 0.000000
vn 0.000000 -1.000000 0.000000
vn 0.000000 -1.000000 0.000000
vn 0.000000 -1.000000 0.000000
vn 0.000000 -1.000000 0.000000
vn 0.000000 -1.000000 0.000000
vn 0.000000 -1.000000 0.000000
vn 0.000000 -1.000000 0.000000
vn 0.000000 -1.000000 0.000000
vn 0.000000 -1.000000 0.000000
vn 0.000000 -1.000000 0.000000
vn 0.000000 -1.000000 0.000000
vn -0.000002 -0.000000 -1.000000
vn -0.000002 -0.000000 -1.000000
vn -0.000002 -0.000000 -1.000000
vn -0.000002 -0.000000 -1.000000
vn 1.000000 0.000000 0.000000
vn 1.000000 0.000000 0.000000
vn 1.000000 0.000000 0.000000
vn 1.000000 0.000000 0.000000
vn -1.000000 0.000000 0.000000
vn -1.000000 0.000000 0.000000
vn -1.000000 0.000000 0.000000
vn -1.000000 0.000000 0.000000
vn 1.000000 0.000000 0.000000
vn 1.000000 0.000000 0.000000
vn 1.000000 0.000000 0.000000
vn 1.000000 0.000000 0.000000
vn -1.000000 0.000000 0.000000
vn -1.000000 0.000000 0.000000
vn -1.000000 0.000000 0.000000
vn -1.000000 0.000000 0.000000
vn 0.000000 0.000000 -1.000000
vn 0.000000 0.000000 -1.000000
vn 0.000000 0.000000 -1.000000
vn 0.000000 0.000000 -1.000000
vn -1.000000 0.000000 0.000000
vn -1.000000 0.000000 0.000000
vn -1.000000 0.000000 0.000000
vn -1.000000 0.000000 0.000000
vn 1.000000 0.000000 0.000000
vn 1.000000 0.000000 0.000000
vn 1.000000 0.000000 0.000000
vn 1.000000 0.000000 0.000000
vn -1.000000 0.000000 0.000000
vn -1.000000 0.000000 0.000000
vn -1.000000 0.000000 0.000000
vn -1.000000 0.000000 0.000000
vn 1.000000 0.000000 0.000000
vn 1.000000 0.000000 0.000000
vn 1.000000 0.000000 0.000000
vn 1.000000 0.000000 0.000000
vn -0.000001 0.000000 1.000000
vn -0.000001 0.000000 1.000000
vn -0.000001 0.000000 1.000000
vn -0.000001 0.000000 1.000000
vn 0.000000 0.000000 1.000000
vn 0.000000 0.000000 1.000000
vn 0.000000 0.000000 1.000000
vn 0.000000 0.000000 1.000000
vn 0.000000 0.000000 1.000000
vn 0.000000 0.000000 1.000000
vn 0.000000 0.000000 1.000000
vn 0.000000 0.000000 1.000000
vn 0.000000 0.000000 1.000000
vn 0.000000 0.000000 1.000000
vn 0.000000 0.000000 1.000000
vn 0.000000 0.000000 1.000000
vn 0.000000 0.000000 1.000000
vn 0.000000 0.000000 1.000000
vn 0.000000 0.000000 1.000000
vn 0.000000 0.000000 1.000000
vn 0.000000 0.000000 1.000000
vn 0.000000 0.000000 1.000000
vn 0.000000 0.000000 1.000000
vn 0.000000 0.000000 1.000000
vn 0.000000 0.000000 1.000000
vn 0.000000 0.000000 1.000000
vn 0.000000 0.000000 1.000000
vn 0.000000 0.000000 1.000000
vn 0.000000 0.000000 1.000000
vn 0.000000 0.000000 1.000000
vn 0.000000 0.000000 1.000000
vn 0.000000 0.000000 1.000000
vn 0.000004 1.000000 -0.000000
vn 0.000004 1.000000 -0.000000
vn 0.000004 1.000000 -0.000000
vn 0.000004 1.000000 -0.000000
vn 0.000000 -1.000000 -0.000000
vn 0.000000 -1.000000 -0.000000
vn 0.000000 -1.000000 -0.000000
vn 0.000000 -1.000000 -0.000000
vn 1.000000 0.000000 0.000000
vn 1.000000 0.000000 0.000000
vn 1.000000 0.000000 0.000000
vn 1.000000 0.000000 0.000000
vn -1.000000 0.000000 -0.000000
vn -1.000000 0.000000 -0.000000
vn -1.000000 0.000000 -0.000000
vn -1.000000 0.000000 -0.000000
vn 1.000000 0.000000 -0.000000
vn 1.000000 0.000000 -0.000000
vn 1.000000 0.000000 -0.000000
vn 1.000000 0.000000 -0.000000
vn -1.000000 0.000000 0.000000
vn -1.000000 0.000000 0.000000
vn -1.000000 0.000000 0.000000
vn -1.000000 0.000000 0.000000
vn 0.000000 -1.000000 -0.000000
vn 0.000000 -1.000000 -0.000000
vn 0.000000 -1.000000 -0.000000
vn 0.000000 -1.000000 -0.000000
vn 0.000000 1.000000 -0.000000
vn 0.000000 1.000000 -0.000000
vn 0.000000 1.000000 -0.000000
vn 0.000000 1.000000 -0.000000
vn -1.000000 0.000000 0.000000
vn -1.000000 0.000000 0.000000
vn -1.000000 0.000000 0.000000
vn -1.000000 0.000000 0.000000
vn 1.000000 0.000000 0.000000
vn 1.000000 0.000000 0.000000
vn 1.000000 0.000000 0.000000
vn 1.000000 0.000000 0.000000
vn -1.000000 0.000000 0.000000
vn -1.000000 0.000000 0.000000
vn -1.000000 0.000000 0.000000
vn -1.000000 0.000000 0.000000
vn 1.000000 0.000000 0.000000
vn 1.000000 0.000000 0.000000
vn 1.000000 0.000000 0.000000
vn 1.000000 0.000000 0.000000
s 1
g pCube6 group1
usemtl initialShadingGroup
f 117/1/1 118/2/2 119/3/3 120/4/4
f 121/295/5 122/6/6 123/7/7 124/309/8
f 125/9/9 126/292/10 127/11/11 128/12/12
f 129/13/13 130/282/14 131/284/15 132/16/16
s 5
f 133/17/17 134/18/18 135/305/19 136/275/20
f 137/21/21 138/22/22 139/23/23 140/24/24
f 141/25/25 142/26/26 143/27/27 144/28/28
f 145/29/29 146/30/30 147/301/31 148/32/32
s 9
f 149/33/33 150/34/34 151/35/35 152/36/36
f 153/279/37 154/38/38 155/39/39 156/40/40
f 157/41/41 158/42/42 159/43/43 160/44/44
f 161/45/45 162/46/46 163/47/47 164/48/48
s 13
f 165/49/49 166/50/50 118/2/51 117/1/52
f 167/294/53 168/52/54 122/6/55 121/295/56
f 169/53/57 170/54/58 126/292/59 125/9/60
f 171/55/61 172/289/62 130/282/63 129/13/64
s 17
f 174/57/65 173/58/66 175/59/67 176/283/68
s 18
f 177/61/69 165/49/70 117/1/71 120/254/72
s 1
f 176/283/73 131/284/15 130/282/14 174/57/74
s 5
f 178/62/75 147/31/31 146/266/30 179/63/76
s 9
f 163/47/47 162/46/46 180/64/77 181/65/78
s 13
f 130/14/63 172/56/62 173/58/79 174/57/80
s 1
f 124/8/8 119/3/3 118/2/2 121/5/5
s 5
f 140/24/24 135/19/19 134/258/18 137/21/21
s 9
f 151/35/35 150/34/34 153/37/37 156/245/40
s 13
f 118/2/51 166/50/50 167/51/53 121/5/56
s 1
f 128/12/12 123/7/7 122/6/6 125/9/9
s 5
f 144/28/28 139/23/23 138/22/22 141/25/25
s 9
f 155/39/39 154/38/38 157/41/41 160/44/44
s 13
f 122/6/55 168/52/54 169/53/57 125/9/60
s 1
f 132/16/16 127/307/11 126/10/10 129/13/13
s 5
f 148/32/32 143/303/27 142/264/26 145/29/29
s 9
f 159/43/43 158/42/42 161/45/45 164/48/48
s 13
f 126/10/59 170/291/58 171/55/61 129/13/64
s 18
f 136/275/81 182/276/82 183/67/83 133/17/84
s 9
f 184/68/85 185/69/86 186/70/87 187/71/88
f 188/273/89 186/70/87 185/69/86 189/73/90
f 189/234/90 190/74/91 191/75/92 188/72/89
f 192/76/93 191/75/92 190/74/91 193/77/94
f 193/77/94 194/78/95 195/79/96 192/76/93
f 196/80/97 195/79/96 194/78/95 197/81/98
f 197/81/98 198/82/99 199/271/100 196/80/97
f 200/84/101 199/83/100 198/237/99 201/85/102
s 17
f 202/86/103 203/268/104 178/269/105 179/63/106
s 1
f 146/266/107 204/88/108 202/86/109 179/63/110
f 205/89/111 204/265/108 146/30/107 145/29/112
f 142/264/113 206/90/114 205/89/111 145/29/112
f 207/261/115 206/263/114 142/26/113 141/25/116
f 138/22/117 208/260/118 207/261/115 141/25/116
f 209/93/119 208/260/118 138/22/117 137/21/120
f 134/258/121 210/257/122 209/93/119 137/21/120
f 183/256/123 210/94/122 134/18/121 133/17/124
s 18
f 182/276/82 177/285/69 120/255/72 183/67/83
s 1
f 120/4/4 119/3/3 210/94/122 183/256/123
f 207/91/115 208/92/118 123/7/7 128/12/12
f 128/12/12 127/11/11 206/90/114 207/91/115
f 202/86/109 204/88/108 131/15/15 176/60/73
s 17
f 176/60/68 175/287/67 203/268/104 202/86/103
s 9
f 180/64/77 162/46/46 199/83/100 200/84/101
f 192/76/93 195/79/96 158/42/42 157/41/41
f 157/41/41 154/38/38 191/75/92 192/76/93
f 187/71/88 186/70/87 150/34/34 149/33/33
s 18
f 187/71/125 211/252/126 212/251/127 184/68/128
f 149/33/129 213/249/130 211/252/126 187/71/125
f 152/36/131 214/248/132 213/249/130 149/33/129
s 13
f 152/36/133 151/35/134 215/99/135 214/98/136
f 216/246/137 215/99/135 151/35/134 156/245/138
f 156/40/138 155/39/139 217/101/140 216/100/137
f 218/102/141 217/101/140 155/39/139 160/44/142
f 160/44/142 159/43/143 219/103/144 218/102/141
f 220/104/145 219/103/144 159/43/143 164/48/146
f 164/48/146 163/47/147 221/105/148 220/104/145
f 222/106/149 221/105/148 163/47/147 181/65/150
s 17
f 223/242/151 222/243/152 181/65/153 180/64/154
f 224/240/155 223/242/151 180/64/154 200/84/156
f 225/239/157 224/240/155 200/84/156 201/85/158
s 5
f 198/237/159 226/110/160 225/109/161 201/85/162
f 227/111/163 226/236/160 198/82/159 197/81/164
f 194/78/165 228/112/166 227/111/163 197/81/164
f 229/113/167 228/112/166 194/78/165 193/77/168
f 190/74/169 230/114/170 229/113/167 193/77/168
f 231/233/171 230/114/170 190/74/169 189/234/172
f 185/69/173 232/116/174 231/115/171 189/73/172
f 212/96/175 232/116/174 185/69/173 184/68/176
s 18
f 213/97/130 214/98/132 165/49/70 177/61/69
f 212/96/127 211/95/126 182/66/82 136/20/81
s 5
f 136/20/20 135/19/19 232/116/174 212/96/175
f 229/113/167 230/114/170 139/23/23 144/28/28
f 144/28/28 143/27/27 228/112/166 229/113/167
f 225/109/161 226/110/160 147/31/31 178/62/75
s 17
f 178/62/105 203/87/104 224/108/155 225/109/157
f 175/59/67 173/58/66 222/106/152 223/107/151
s 13
f 173/58/79 172/56/62 221/105/148 222/106/149
f 218/102/141 219/103/144 170/54/58 169/53/57
f 169/53/57 168/52/54 217/101/140 218/102/141
f 214/98/136 215/99/135 166/50/50 165/49/49
s 25
f 1/117/177 37/118/178 54/119/179 25/120/180
f 2/121/181 53/310/182 52/123/183 29/124/184
f 3/125/185 51/126/186 50/127/187 33/332/188
f 4/129/189 49/130/190 48/131/191 21/331/192
s 26
f 6/133/193 73/327/194 94/324/195 26/343/196
f 7/137/197 93/138/198 92/139/199 30/140/200
f 8/141/201 91/142/202 90/143/203 34/342/204
f 9/145/205 89/146/206 88/147/207 22/341/208
s 27
f 38/149/209 16/150/210 28/352/211 39/300/212
f 40/153/213 17/154/214 32/350/215 41/298/216
f 42/157/217 18/158/218 36/159/219 43/160/220
f 44/161/221 19/162/222 24/163/223 45/164/224
s 28
f 76/165/225 1/117/226 25/120/227 77/166/228
f 78/167/229 2/121/230 29/124/231 79/168/232
f 80/169/233 3/125/234 33/332/235 81/293/236
f 82/171/237 4/129/238 21/331/239 83/290/240
s 29
f 5/173/241 47/329/242 85/288/243 84/176/244
s 30
f 75/177/245 37/347/246 1/334/247 76/323/248
s 25
f 47/329/249 5/173/250 21/331/192 48/131/191
s 26
f 87/178/251 10/340/252 22/148/208 88/302/207
s 27
f 24/163/223 20/349/253 46/339/254 45/164/224
s 28
f 21/132/239 5/330/255 84/319/256 83/172/240
s 25
f 53/122/182 2/333/181 25/120/180 54/119/179
s 26
f 93/138/198 7/137/197 26/136/196 94/135/195
s 27
f 28/151/211 17/351/214 40/299/213 39/152/212
s 28
f 25/120/227 2/333/230 78/296/229 77/166/228
s 25
f 51/126/186 3/125/185 29/124/184 52/123/183
s 26
f 91/142/202 8/141/201 30/140/200 92/139/199
s 27
f 32/155/215 18/158/218 42/157/217 41/156/216
s 28
f 29/124/231 3/125/234 80/169/233 79/168/232
s 25
f 49/130/190 4/129/189 33/128/188 50/308/187
s 26
f 89/146/206 9/145/205 34/144/204 90/304/203
s 27
f 36/159/219 19/162/222 44/161/221 43/160/220
s 28
f 33/128/235 4/129/238 82/171/237 81/170/236
s 30
f 73/326/257 6/345/258 56/182/259 74/183/260
s 27
f 11/184/261 55/185/262 72/186/263 27/187/264
f 71/188/265 12/322/266 27/187/264 72/186/263
f 12/189/266 71/274/265 70/190/267 31/191/268
f 69/192/269 13/193/270 31/191/268 70/190/267
f 13/193/270 69/192/269 68/194/271 35/195/272
f 67/196/273 14/197/274 35/195/272 68/194/271
f 14/197/274 67/196/273 66/198/275 23/321/276
f 65/338/277 15/320/278 23/199/276 66/272/275
s 29
f 64/202/279 10/179/280 87/328/281 86/203/282
s 25
f 22/148/283 10/340/284 64/335/285 63/204/286
f 62/205/287 9/145/288 22/341/283 63/267/286
f 34/144/289 9/145/288 62/205/287 61/206/290
f 60/207/291 8/141/292 34/342/289 61/337/290
f 30/140/293 8/141/292 60/207/291 59/262/294
f 58/209/295 7/137/296 30/140/293 59/262/294
f 26/136/297 7/137/296 58/209/295 57/210/298
f 56/344/299 6/133/300 26/343/297 57/259/298
s 30
f 74/183/260 56/182/259 37/346/246 75/286/245
s 25
f 37/118/178 56/344/299 57/259/298 54/119/179
f 60/336/291 51/126/186 52/123/183 59/208/294
f 51/126/186 60/336/291 61/206/290 50/127/187
f 64/335/285 47/174/249 48/306/191 63/204/286
s 29
f 47/174/242 64/335/279 86/270/282 85/175/243
s 27
f 46/339/254 65/338/277 66/272/275 45/164/224
f 69/192/269 42/157/217 43/160/220 68/194/271
f 42/157/217 69/192/269 70/190/267 41/156/216
f 55/185/262 38/149/209 39/300/212 72/186/263
s 30
f 55/185/301 11/184/302 98/315/303 97/253/304
f 38/149/305 55/185/301 97/253/304 96/213/306
f 16/150/307 38/149/305 96/213/306 95/318/308
s 28
f 16/357/309 95/214/310 116/215/311 28/151/312
f 115/216/313 17/351/314 28/151/312 116/215/311
f 17/154/314 115/247/313 114/217/315 32/350/316
f 113/218/317 18/355/318 32/350/316 114/217/315
f 18/355/318 113/218/317 112/219/319 36/353/320
f 111/220/321 19/354/322 36/353/320 112/219/319
f 19/354/322 111/220/321 110/221/323 24/356/324
f 109/222/325 20/348/326 24/356/324 110/221/323
s 29
f 108/244/327 46/181/328 20/180/329 109/311/330
f 107/224/331 65/200/332 46/181/328 108/244/327
f 106/225/333 15/201/334 65/200/332 107/224/331
s 26
f 23/199/335 15/320/336 106/313/337 105/226/338
f 104/227/339 14/197/340 23/321/335 105/238/338
f 35/195/341 14/197/340 104/227/339 103/228/342
f 102/229/343 13/193/344 35/195/341 103/228/342
f 31/191/345 13/193/344 102/229/343 101/230/346
f 100/231/347 12/189/348 31/191/345 101/230/346
f 27/187/349 12/322/348 100/235/347 99/232/350
f 98/211/351 11/184/352 27/187/349 99/232/350
s 30
f 96/250/306 75/177/245 76/323/248 95/317/308
f 98/316/303 73/325/257 74/277/260 97/212/304
s 26
f 73/134/194 98/211/351 99/232/350 94/135/195
f 102/229/343 91/142/202 92/139/199 101/230/346
f 91/142/202 102/229/343 103/228/342 90/143/203
f 106/313/337 87/178/251 88/302/207 105/226/338
s 29
f 87/328/281 106/314/333 107/241/331 86/203/282
f 85/288/243 108/223/327 109/312/330 84/176/244
s 28
f 84/319/256 109/222/325 110/221/323 83/172/240
f 113/218/317 80/169/233 81/293/236 112/219/319
f 80/169/233 113/218/317 114/217/315 79/168/232
f 95/214/310 76/165/225 77/166/228 116/215/311
s 33
f 52/123/353 53/310/354 124/309/355 123/7/356
s 34
f 48/131/357 49/130/358 132/16/359 131/284/360
s 35
f 92/139/361 93/138/362 140/24/363 139/23/364
s 36
f 88/147/365 89/146/366 148/32/367 147/301/368
s 37
f 40/153/369 41/298/370 154/297/371 153/280/372
s 38
f 44/161/373 45/164/374 162/46/375 161/45/376
s 39
f 78/167/377 79/168/378 168/52/379 167/294/380
s 40
f 82/171/381 83/290/382 172/289/383 171/55/384
s 33
f 53/122/354 54/119/385 119/3/386 124/8/355
s 35
f 93/138/362 94/135/387 135/19/388 140/24/363
s 37
f 39/152/389 40/299/369 153/281/372 150/278/390
s 39
f 77/166/391 78/296/377 167/51/380 166/50/392
s 34
f 49/130/358 50/308/393 127/307/394 132/16/359
s 36
f 89/146/366 90/304/395 143/303/396 148/32/367
s 38
f 43/160/397 44/161/373 161/45/376 158/42/398
s 40
f 81/170/399 82/171/381 171/55/384 170/291/400
s 41
f 71/188/401 72/186/402 186/70/403 188/273/404
f 70/190/405 71/274/401 188/72/404 191/75/406
s 42
f 67/196/407 68/194/408 195/79/409 196/80/410
f 66/198/411 67/196/407 196/80/410 199/271/412
s 43
f 62/205/413 63/267/414 204/265/415 205/89/416
f 61/206/417 62/205/413 205/89/416 206/90/418
s 44
f 58/209/419 59/262/420 208/260/421 209/93/422
f 57/210/423 58/209/419 209/93/422 210/257/424
s off
f 74/183/425 75/286/426 177/285/427 182/276/428
f 54/119/429 57/259/430 210/94/431 119/3/432
f 59/208/433 52/123/434 123/7/435 208/92/436
f 50/127/437 61/206/438 206/90/439 127/11/440
f 63/204/441 48/306/442 131/15/443 204/88/444
f 85/175/445 86/270/446 203/268/447 175/287/448
f 45/164/449 66/272/450 199/83/451 162/46/452
f 68/194/453 43/160/454 158/42/455 195/79/456
f 41/156/457 70/190/458 191/75/459 154/38/460
f 72/186/461 39/300/462 150/34/463 186/70/464
f 96/213/465 97/253/466 211/252/467 213/249/468
s 45
f 115/216/469 116/215/470 215/99/471 216/246/472
f 114/217/473 115/247/469 216/100/472 217/101/474
s 46
f 111/220/475 112/219/476 219/103/477 220/104/478
f 110/221/479 111/220/475 220/104/478 221/105/480
s off
f 107/224/481 108/244/482 223/242/483 224/240/484
s 47
f 104/227/485 105/238/486 226/236/487 227/111/488
f 103/228/489 104/227/485 227/111/488 228/112/490
s 48
f 100/231/491 101/230/492 230/114/493 231/233/494
f 99/232/495 100/235/491 231/115/494 232/116/496
s off
f 75/177/497 96/250/498 213/97/499 177/61/500
f 97/212/501 74/277/502 182/66/503 211/95/504
f 94/135/505 99/232/506 232/116/507 135/19/508
f 101/230/509 92/139/510 139/23/511 230/114/512
f 90/143/513 103/228/514 228/112/515 143/27/516
f 105/226/517 88/302/518 147/31/519 226/110/520
f 86/203/521 107/241/522 224/108/523 203/87/524
f 108/223/525 85/288/526 175/59/527 223/107/528
f 83/172/529 110/221/530 221/105/531 172/56/532
f 112/219/533 81/293/534 170/54/535 219/103/536
f 79/168/537 114/217/538 217/101/539 168/52/540
f 116/215/541 77/166/542 166/50/543 215/99/544
g default
v -2.361502 0.238863 0.451772
v 2.361502 0.238863 0.451772
v -2.361502 0.301021 0.476646
v 2.361502 0.301021 0.476646
v -2.361502 0.672556 -0.451772
v 2.361502 0.672556 -0.451772
v -2.361502 0.610399 -0.476646
v 2.361502 0.610399 -0.476646
vt 0.861639 0.892362
vt 0.496623 0.521642
vt 0.482130 0.517257
vt 0.854573 0.888301
vt 0.560821 0.554622
vt 0.930502 0.801601
vt 0.561648 0.552096
vt 0.936874 0.796368
vt 0.997573 0.680476
vt 1.000000 0.672920
vn 0.000000 -0.371536 0.928419
vn 0.000000 -0.371536 0.928419
vn 0.000000 -0.371536 0.928419
vn 0.000000 -0.371536 0.928419
vn 0.000000 0.928419 0.371536
vn 0.000000 0.928419 0.371536
vn 0.000000 0.928419 0.371536
vn 0.000000 0.928419 0.371536
vn 0.000000 0.371536 -0.928419
vn 0.000000 0.371536 -0.928419
vn 0.000000 0.371536 -0.928419
vn 0.000000 0.371536 -0.928419
vn 0.000000 -0.928419 -0.371536
vn 0.000000 -0.928419 -0.371536
vn 0.000000 -0.928419 -0.371536
vn 0.000000 -0.928419 -0.371536
vn 1.000000 -0.000001 0.000000
vn 1.000000 -0.000001 0.000000
vn 1.000000 -0.000001 0.000000
vn 1.000000 -0.000001 0.000000
vn -1.000000 0.000001 0.000000
vn -1.000000 0.000001 0.000000
vn -1.000000 0.000001 0.000000
vn -1.000000 0.000001 0.000000
s off
g group1 pCube7
usemtl initialShadingGroup
f 233/366/545 234/359/546 236/360/547 235/367/548
f 235/361/549 236/360/550 238/362/551 237/363/552
f 237/363/553 238/362/554 240/364/555 239/365/556
f 239/365/557 240/364/558 234/359/559 233/366/560
f 234/359/561 240/364/562 238/362/563 236/360/564
f 239/365/565 233/358/566 235/361/567 237/363/568
g default
v -2.361502 -0.325396 0.451772
v 2.361502 -0.325396 0.451772
v -2.361502 -0.263238 0.476646
v 2.361502 -0.263238 0.476646
v -2.361502 0.108297 -0.451772
v 2.361502 0.108297 -0.451772
v -2.361502 0.046140 -0.476646
v 2.361502 0.046140 -0.476646
vt 0.374710 0.890810
vt 0.014393 0.516854
vt 0.000000 0.512368
vt 0.367672 0.886666
vt 0.078632 0.550622
vt 0.444579 0.800497
vt 0.079490 0.548088
vt 0.451010 0.795307
vt 0.512460 0.679458
vt 0.514911 0.671890
vn 0.000000 -0.371536 0.928419
vn 0.000000 -0.371536 0.928419
vn 0.000000 -0.371536 0.928419
vn 0.000000 -0.371536 0.928419
vn 0.000000 0.928419 0.371536
vn 0.000000 0.928419 0.371536
vn 0.000000 0.928419 0.371536
vn 0.000000 0.928419 0.371536
vn 0.000000 0.371535 -0.928419
vn 0.000000 0.371535 -0.928419
vn 0.000000 0.371535 -0.928419
vn 0.000000 0.371535 -0.928419
vn 0.000000 -0.928419 -0.371536
vn 0.000000 -0.928419 -0.371536
vn 0.000000 -0.928419 -0.371536
vn 0.000000 -0.928419 -0.371536
vn 1.000000 0.000002 0.000000
vn 1.000000 0.000002 0.000000
vn 1.000000 0.000002 0.000000
vn 1.000000 0.000002 0.000000
vn -1.000000 0.000002 0.000000
vn -1.000000 0.000002 0.000000
vn -1.000000 0.000002 0.000000
vn -1.000000 0.000002 0.000000
s off
g group1 pCube8
usemtl initialShadingGroup
f 241/376/569 242/369/570 244/370/571 243/377/572
f 243/371/573 244/370/574 246/372/575 245/373/576
f 245/373/577 246/372/578 248/374/579 247/375/580
f 247/375/581 248/374/582 242/369/583 241/376/584
f 242/369/585 248/374/586 246/372/587 244/370/588
f 247/375/589 241/368/590 243/371/591 245/373/592
g default
v 2.352180 -0.560497 -0.454813
v -2.352180 -0.560497 -0.454813
v 2.352180 0.619633 -0.454813
v -2.352180 0.619633 -0.454813
v 2.352180 0.619633 0.545187
v -2.352180 0.619633 0.545187
v 2.352180 -0.560497 0.545187
v -2.352180 -0.560497 0.545187
v 2.414614 -0.622931 -0.517247
v -2.414614 -0.622931 -0.517247
v -2.414614 0.682068 -0.517247
v 2.414614 0.682068 -0.517247
v -2.406250 0.673703 0.545187
v 2.406250 0.673703 0.545187
v 2.406250 -0.614567 0.545187
v -2.406250 -0.614567 0.545187
vt 0.168873 0.175363
vt 0.498685 0.471798
vt 0.330753 0.514792
vt 0.131580 0.204648
vt 0.242156 0.586420
vt 0.000000 0.000000
vt 0.139438 0.118799
vt 0.591314 0.347883
vt 0.165011 0.093258
vt 0.143191 0.028981
vt 0.584294 0.121829
vt 0.555712 0.230938
vt 0.013733 0.001701
vt 0.641458 0.061523
vt 0.139584 0.118201
vt 0.587541 0.337481
vt 0.650184 0.054898
vt 0.443893 0.622616
vn 0.000000 0.000000 -1.000000
vn 0.000000 0.000000 -1.000000
vn 0.000000 0.000000 -1.000000
vn 0.000000 0.000000 -1.000000
vn 0.000000 0.999969 0.007873
vn 0.000000 0.999969 0.007873
vn 0.000000 0.999969 0.007873
vn 0.000000 0.999969 0.007873
vn 0.000000 -0.999969 0.007873
vn 0.000000 -0.999969 0.007873
vn 0.000000 -0.999969 0.007873
vn 0.000000 -0.999969 0.007873
vn -0.999969 0.000000 0.007873
vn -0.999969 0.000000 0.007873
vn -0.999969 0.000000 0.007873
vn -0.999969 0.000000 0.007873
vn 0.999969 0.000000 0.007873
vn 0.999969 0.000000 0.007873
vn 0.999969 0.000000 0.007873
vn 0.999969 0.000000 0.007873
vn 0.000000 0.000000 1.000000
vn 0.000000 0.000000 1.000000
vn 0.000000 0.000000 1.000000
vn 0.000000 0.000000 1.000000
vn 0.000000 -1.000000 0.000000
vn 0.000000 -1.000000 0.000000
vn 0.000000 -1.000000 0.000000
vn 0.000000 -1.000000 0.000000
vn 0.000000 1.000000 0.000000
vn 0.000000 1.000000 0.000000
vn 0.000000 1.000000 0.000000
vn 0.000000 1.000000 0.000000
vn 1.000000 0.000000 0.000000
vn 1.000000 0.000000 0.000000
vn 1.000000 0.000000 0.000000
vn 1.000000 0.000000 0.000000
vn -1.000000 0.000000 0.000000
vn -1.000000 0.000000 0.000000
vn -1.000000 0.000000 0.000000
vn -1.000000 0.000000 0.000000
vn 0.000000 0.000000 1.000000
vn -0.000000 0.000000 1.000000
vn -0.000000 0.000000 1.000000
vn 0.000000 0.000000 1.000000
vn -0.000000 0.000000 1.000000
vn 0.000000 0.000000 1.000000
vn 0.000000 0.000000 1.000000
vn -0.000000 0.000000 1.000000
s off
g pCube5
usemtl initialShadingGroup
f 257/378/593 258/379/594 259/380/595 260/381/596
f 260/381/597 259/380/598 261/382/599 262/383/600
f 263/384/601 264/385/602 258/379/603 257/378/604
f 258/379/605 264/395/606 261/382/607 259/380/608
f 263/384/609 257/378/610 260/381/611 262/383/612
f 249/386/613 251/387/614 252/388/615 250/389/616
f 251/387/617 253/390/618 254/391/619 252/388/620
f 255/392/621 249/386/622 250/389/623 256/393/624
f 250/389/625 252/388/626 254/391/627 256/393/628
f 255/392/629 253/390/630 251/387/631 249/386/632
s 1
f 254/391/633 253/390/634 262/383/635 261/394/636
f 255/392/637 256/393/638 264/385/639 263/384/640
f 256/393/638 254/391/633 261/394/636 264/385/639
f 253/390/634 255/392/637 263/384/640 262/383/635
