# Blender 4.5.1 LTS
# www.blender.org
mtllib Cauldron.mtl
o Cauldron
v 0.000000 0.023148 -1.698593
v 0.000000 -0.275593 -1.334576
v 1.384832 1.253100 -1.906058
v 1.304483 0.802469 -1.795467
v 1.174004 0.387165 -1.615878
v 0.998408 0.023148 -1.374191
v 0.784444 -0.275593 -1.079695
v 0.540335 -0.497578 -0.743707
v 0.275460 -0.634276 -0.379138
v 2.240705 1.253100 -0.728049
v 2.110698 0.802469 -0.685807
v 1.899578 0.387165 -0.617210
v 1.615458 0.023148 -0.524894
v 1.269258 -0.275593 -0.412407
v 0.874280 -0.497578 -0.284071
v 0.445704 -0.634276 -0.144818
v 2.240705 1.253100 0.728049
v 2.110698 0.802469 0.685807
v 1.899578 0.387165 0.617210
v 1.615458 0.023148 0.524894
v 1.269258 -0.275593 0.412407
v 0.874280 -0.497578 0.284071
v 0.445704 -0.634276 0.144818
v 1.384832 1.253100 1.906057
v 1.304483 0.802469 1.795467
v 1.174004 0.387165 1.615878
v 0.998408 0.023148 1.374191
v 0.784444 -0.275593 1.079695
v 0.540335 -0.497578 0.743707
v 0.275460 -0.634276 0.379138
v 0.000000 1.253100 2.356017
v 0.000000 0.802469 2.219319
v 0.000000 0.387165 1.997334
v 0.000000 0.023148 1.698593
v 0.000000 -0.275593 1.334576
v 0.000000 -0.497578 0.919272
v 0.000000 -0.634276 0.468641
v 0.000000 -0.680433 0.000000
v 0.000000 1.253100 -2.356017
v 0.000000 0.802469 -2.219319
v 0.000000 0.387165 -1.997334
v 0.000000 -0.497578 -0.919272
v 0.000000 -0.634276 -0.468641
v 2.196490 1.253100 -0.696863
v 1.377279 1.253100 -1.824410
v 2.196490 1.253100 0.696863
v 1.377279 1.253100 1.824410
v 0.000000 1.253100 2.255095
v 0.000000 1.253100 -2.255095
v 1.980028 0.884491 -0.612812
v 1.337222 0.884491 -1.604362
v 1.980028 0.884491 0.612812
v 1.337222 0.884491 1.604362
v 0.000000 0.884491 1.983100
v 0.000000 0.884491 -1.983100
v 1.759909 0.274247 -0.458522
v 1.278944 0.274247 -1.200427
v 1.759909 0.274247 0.458522
v 1.278944 0.274247 1.200427
v 0.000000 0.274247 1.483809
v 0.000000 0.274247 -1.483809
v 0.983525 0.019266 -0.196192
v 0.904656 0.019266 -0.513636
v 0.983525 0.019266 0.196191
v 0.904656 0.019266 0.513636
v 0.000000 0.019266 0.634889
v 0.000000 0.019266 -0.634889
v 1.954255 1.284449 -2.075052
v 1.873907 0.833818 -1.964462
v 2.810128 1.284449 -0.897044
v 2.680121 0.833818 -0.854802
v 2.810128 1.284449 0.559054
v 2.680121 0.833818 0.516812
v 2.252601 1.143216 -0.717412
v 2.635983 1.164323 -0.831193
v 1.676357 1.143216 -1.510543
v 2.165070 0.839814 -0.688971
v 1.622260 0.839814 -1.436085
v 2.252601 1.143216 0.262953
v 2.165070 0.839814 0.234512
v 2.059740 1.164323 -1.624325
v 2.548452 0.860921 -0.802752
v 2.005642 0.860921 -1.549866
v 2.635983 1.164323 0.149172
v 2.548452 0.860921 0.120731
v -1.384832 1.253100 -1.906058
v -1.304483 0.802469 -1.795467
v -1.174004 0.387165 -1.615878
v -0.998408 0.023148 -1.374191
v -0.784444 -0.275593 -1.079695
v -0.540335 -0.497578 -0.743707
v -0.275460 -0.634276 -0.379138
v -2.240705 1.253100 -0.728049
v -2.110698 0.802469 -0.685807
v -1.899578 0.387165 -0.617210
v -1.615458 0.023148 -0.524894
v -1.269258 -0.275593 -0.412407
v -0.874280 -0.497578 -0.284071
v -0.445704 -0.634276 -0.144818
v -2.240705 1.253100 0.728049
v -2.110698 0.802469 0.685807
v -1.899578 0.387165 0.617210
v -1.615458 0.023148 0.524894
v -1.269258 -0.275593 0.412407
v -0.874280 -0.497578 0.284071
v -0.445704 -0.634276 0.144818
v -1.384832 1.253100 1.906057
v -1.304483 0.802469 1.795467
v -1.174004 0.387165 1.615878
v -0.998408 0.023148 1.374191
v -0.784444 -0.275593 1.079695
v -0.540335 -0.497578 0.743707
v -0.275460 -0.634276 0.379138
v -2.196490 1.253100 -0.696863
v -1.377279 1.253100 -1.824410
v -2.196490 1.253100 0.696863
v -1.377279 1.253100 1.824410
v -1.980028 0.884491 -0.612812
v -1.337222 0.884491 -1.604362
v -1.980028 0.884491 0.612812
v -1.337222 0.884491 1.604362
v -1.759909 0.274247 -0.458522
v -1.278944 0.274247 -1.200427
v -1.759909 0.274247 0.458522
v -1.278944 0.274247 1.200427
v -0.983525 0.019266 -0.196192
v -0.904656 0.019266 -0.513636
v -0.983525 0.019266 0.196191
v -0.904656 0.019266 0.513636
v -1.954255 1.284449 -2.075052
v -1.873907 0.833818 -1.964462
v -2.810128 1.284449 -0.897044
v -2.680121 0.833818 -0.854802
v -2.810128 1.284449 0.559054
v -2.680121 0.833818 0.516812
v -2.252601 1.143216 -0.717412
v -2.635983 1.164323 -0.831193
v -1.676357 1.143216 -1.510543
v -2.165070 0.839814 -0.688971
v -1.622260 0.839814 -1.436085
v -2.252601 1.143216 0.262953
v -2.165070 0.839814 0.234512
v -2.059740 1.164323 -1.624325
v -2.548452 0.860921 -0.802752
v -2.005642 0.860921 -1.549866
v -2.635983 1.164323 0.149172
v -2.548452 0.860921 0.120731
vn 0.1514 -0.8718 -0.4660
vn 0.0939 -0.9527 -0.2890
vn 0.0318 -0.9947 -0.0980
vn 0.2969 -0.2772 -0.9138
vn 0.2755 -0.4532 -0.8478
vn 0.2436 -0.6153 -0.7497
vn 0.2019 -0.7571 -0.6213
vn 0.5285 -0.7571 -0.3840
vn 0.3964 -0.8718 -0.2880
vn 0.2458 -0.9527 -0.1786
vn 0.0833 -0.9947 -0.0605
vn -0.4498 0.8312 0.3268
vn 0.7212 -0.4532 -0.5240
vn 0.6378 -0.6153 -0.4634
vn -0.5678 0.8232 -0.0000
vn 0.8914 -0.4532 -0.0000
vn 0.7883 -0.6153 -0.0000
vn 0.6533 -0.7571 -0.0000
vn 0.4899 -0.8718 -0.0000
vn 0.3039 -0.9527 -0.0000
vn 0.1030 -0.9947 -0.0000
vn 0.5285 -0.7571 0.3840
vn 0.3964 -0.8718 0.2880
vn 0.2458 -0.9527 0.1786
vn 0.0833 -0.9947 0.0605
vn 0.7773 -0.2772 0.5648
vn 0.7212 -0.4532 0.5240
vn 0.6378 -0.6153 0.4634
vn 0.2969 -0.2772 0.9138
vn 0.2755 -0.4532 0.8478
vn 0.2436 -0.6153 0.7497
vn 0.2019 -0.7571 0.6213
vn 0.1514 -0.8718 0.4660
vn 0.0939 -0.9527 0.2890
vn 0.0318 -0.9947 0.0980
vn -0.0000 1.0000 -0.0000
vn -0.2390 0.5480 0.8016
vn -0.1982 0.5892 0.7833
vn -0.7301 0.4618 -0.5037
vn -0.7301 0.4618 0.5037
vn -0.2390 0.5480 -0.8016
vn -0.8623 0.5064 -0.0000
vn -0.0560 0.9516 0.3023
vn -0.7680 0.4029 -0.4979
vn -0.7680 0.4029 0.4979
vn -0.1982 0.5892 -0.7833
vn -0.9407 0.3393 -0.0000
vn -0.2914 0.9441 -0.1540
vn -0.2914 0.9441 0.1540
vn -0.0560 0.9516 -0.3023
vn -0.3120 0.9501 -0.0000
vn 0.7773 -0.2772 -0.5648
vn 0.9608 -0.2772 -0.0000
vn 0.2890 -0.1717 0.9418
vn 0.9942 0.1076 -0.0000
vn -0.1217 0.9653 -0.2312
vn -0.2704 -0.1837 -0.9451
vn 0.2704 0.1837 0.9451
vn -0.2890 0.1717 -0.9418
vn 0.0315 -0.9964 -0.0787
vn 0.5662 -0.8243 -0.0000
vn 0.8086 0.0307 -0.5875
vn -0.2016 -0.9795 -0.0000
vn -0.1569 -0.9810 0.1140
vn 0.0678 -0.9967 0.0436
vn 0.5109 -0.7753 -0.3712
vn 0.0217 0.9673 0.2527
vn -0.7773 0.2772 0.5648
vn -0.9608 0.2772 -0.0000
vn -0.1514 -0.8718 -0.4660
vn -0.0939 -0.9527 -0.2890
vn -0.0318 -0.9947 -0.0980
vn -0.2969 -0.2772 -0.9138
vn -0.2755 -0.4532 -0.8478
vn -0.2436 -0.6153 -0.7497
vn -0.2019 -0.7571 -0.6213
vn -0.5285 -0.7571 -0.3840
vn -0.3964 -0.8718 -0.2880
vn -0.2458 -0.9527 -0.1786
vn -0.0833 -0.9947 -0.0605
vn 0.4498 0.8312 0.3268
vn -0.7212 -0.4532 -0.5240
vn -0.6378 -0.6153 -0.4634
vn 0.5678 0.8232 -0.0000
vn -0.8914 -0.4532 -0.0000
vn -0.7883 -0.6153 -0.0000
vn -0.6533 -0.7571 -0.0000
vn -0.4899 -0.8718 -0.0000
vn -0.3039 -0.9527 -0.0000
vn -0.1030 -0.9947 -0.0000
vn -0.5285 -0.7571 0.3840
vn -0.3964 -0.8718 0.2880
vn -0.2458 -0.9527 0.1786
vn -0.0833 -0.9947 0.0605
vn -0.7773 -0.2772 0.5648
vn -0.7212 -0.4532 0.5240
vn -0.6378 -0.6153 0.4634
vn -0.2969 -0.2772 0.9138
vn -0.2755 -0.4532 0.8478
vn -0.2436 -0.6153 0.7497
vn -0.2019 -0.7571 0.6213
vn -0.1514 -0.8718 0.4660
vn -0.0939 -0.9527 0.2890
vn -0.0318 -0.9947 0.0980
vn 0.2390 0.5480 0.8016
vn 0.1982 0.5892 0.7833
vn 0.7301 0.4618 -0.5037
vn 0.7301 0.4618 0.5037
vn 0.2390 0.5480 -0.8016
vn 0.8623 0.5064 -0.0000
vn 0.0560 0.9516 0.3023
vn 0.7680 0.4029 -0.4979
vn 0.7680 0.4029 0.4979
vn 0.1982 0.5892 -0.7833
vn 0.9407 0.3393 -0.0000
vn 0.2914 0.9441 -0.1540
vn 0.2914 0.9441 0.1540
vn 0.0560 0.9516 -0.3023
vn 0.3120 0.9501 -0.0000
vn -0.7773 -0.2772 -0.5648
vn -0.9608 -0.2772 -0.0000
vn -0.2890 -0.1717 0.9418
vn -0.9942 0.1076 -0.0000
vn 0.1217 0.9653 -0.2312
vn 0.2704 -0.1837 -0.9451
vn -0.2704 0.1837 0.9451
vn 0.2890 0.1717 -0.9418
vn -0.0315 -0.9964 -0.0787
vn -0.5662 -0.8243 -0.0000
vn -0.8086 0.0307 -0.5875
vn 0.2016 -0.9795 -0.0000
vn 0.1569 -0.9810 0.1140
vn -0.0678 -0.9967 0.0436
vn -0.5109 -0.7753 -0.3712
vn -0.0217 0.9673 0.2527
vn 0.7773 0.2772 0.5648
vn 0.9608 0.2772 -0.0000
vt 0.700000 0.125000
vt 0.700000 0.187500
vt 0.600000 0.187500
vt 0.600000 0.125000
vt 0.700000 0.062500
vt 0.600000 0.062500
vt 0.650000 0.000000
vt 0.700000 0.375000
vt 0.700000 0.437500
vt 0.600000 0.437500
vt 0.600000 0.375000
vt 0.700000 0.312500
vt 0.600000 0.312500
vt 0.700000 0.250000
vt 0.600000 0.250000
vt 0.500000 0.250000
vt 0.500000 0.187500
vt 0.500000 0.125000
vt 0.500000 0.062500
vt 0.550000 0.000000
vt 0.500000 0.437500
vt 0.500000 0.375000
vt 0.500000 0.312500
vt 0.400000 0.437500
vt 0.400000 0.375000
vt 0.400000 0.312500
vt 0.400000 0.250000
vt 0.400000 0.187500
vt 0.400000 0.125000
vt 0.400000 0.062500
vt 0.450000 0.000000
vt 0.300000 0.250000
vt 0.300000 0.187500
vt 0.300000 0.125000
vt 0.300000 0.062500
vt 0.350000 0.000000
vt 0.300000 0.437500
vt 0.300000 0.375000
vt 0.300000 0.312500
vt 0.200000 0.437500
vt 0.200000 0.375000
vt 0.200000 0.312500
vt 0.200000 0.250000
vt 0.200000 0.187500
vt 0.200000 0.125000
vt 0.200000 0.062500
vt 0.250000 0.000000
s 0
f 42/1/1 2/2/1 7/3/1 8/4/1
f 43/5/2 42/1/2 8/4/2 9/6/2
f 38/7/3 43/5/3 9/6/3
f 40/8/4 39/9/4 3/10/4 4/11/4
f 41/12/5 40/8/5 4/11/5 5/13/5
f 1/14/6 41/12/6 5/13/6 6/15/6
f 2/2/7 1/14/7 6/15/7 7/3/7
f 7/3/8 6/15/8 13/16/8 14/17/8
f 8/4/9 7/3/9 14/17/9 15/18/9
f 9/6/10 8/4/10 15/18/10 16/19/10
f 38/20/11 9/6/11 16/19/11
f 70/21/12 68/10/12 81/10/12 75/21/12
f 5/13/13 4/11/13 11/22/13 12/23/13
f 6/15/14 5/13/14 12/23/14 13/16/14
f 72/24/15 70/21/15 75/21/15 84/24/15
f 12/23/16 11/22/16 18/25/16 19/26/16
f 13/16/17 12/23/17 19/26/17 20/27/17
f 14/17/18 13/16/18 20/27/18 21/28/18
f 15/18/19 14/17/19 21/28/19 22/29/19
f 16/19/20 15/18/20 22/29/20 23/30/20
f 38/31/21 16/19/21 23/30/21
f 21/28/22 20/27/22 27/32/22 28/33/22
f 22/29/23 21/28/23 28/33/23 29/34/23
f 23/30/24 22/29/24 29/34/24 30/35/24
f 38/36/25 23/30/25 30/35/25
f 18/25/26 17/24/26 24/37/26 25/38/26
f 19/26/27 18/25/27 25/38/27 26/39/27
f 20/27/28 19/26/28 26/39/28 27/32/28
f 25/38/29 24/37/29 31/40/29 32/41/29
f 26/39/30 25/38/30 32/41/30 33/42/30
f 27/32/31 26/39/31 33/42/31 34/43/31
f 28/33/32 27/32/32 34/43/32 35/44/32
f 29/34/33 28/33/33 35/44/33 36/45/33
f 30/35/34 29/34/34 36/45/34 37/46/34
f 38/47/35 30/35/35 37/46/35
f 24/37/36 17/24/36 46/24/36 47/37/36
f 45/10/37 49/9/37 55/9/37 51/10/37
f 10/21/36 3/10/36 45/10/36 44/21/36
f 17/24/36 10/21/36 44/21/36 46/24/36
f 3/10/36 39/9/36 49/9/36 45/10/36
f 31/40/36 24/37/36 47/37/36 48/40/36
f 51/10/38 55/9/38 61/9/38 57/10/38
f 47/37/39 46/24/39 52/24/39 53/37/39
f 44/21/40 45/10/40 51/10/40 50/21/40
f 48/40/41 47/37/41 53/37/41 54/40/41
f 46/24/42 44/21/42 50/21/42 52/24/42
f 57/10/43 61/9/43 67/9/43 63/10/43
f 53/37/44 52/24/44 58/24/44 59/37/44
f 50/21/45 51/10/45 57/10/45 56/21/45
f 54/40/46 53/37/46 59/37/46 60/40/46
f 52/24/47 50/21/47 56/21/47 58/24/47
f 65/37/36 64/24/36 62/21/36 63/10/36 67/9/36 66/40/36
f 59/37/48 58/24/48 64/24/48 65/37/48
f 56/21/49 57/10/49 63/10/49 62/21/49
f 60/40/50 59/37/50 65/37/50 66/40/50
f 58/24/51 56/21/51 62/21/51 64/24/51
f 69/11/52 68/10/52 70/21/52 71/22/52
f 71/22/53 70/21/53 72/24/53 73/25/53
f 17/24/54 18/25/54 73/25/54 72/24/54
f 10/21/55 17/24/55 79/24/55 74/21/55
f 17/24/56 72/24/56 84/24/56 79/24/56
f 4/11/57 3/10/57 68/10/57 69/11/57
f 81/10/58 76/10/58 78/11/58 83/11/58
f 76/10/52 74/21/52 77/22/52 78/11/52
f 74/21/53 79/24/53 80/25/53 77/22/53
f 85/25/59 80/25/59 79/24/59 84/24/59
f 73/25/60 18/25/60 80/25/60 85/25/60
f 18/25/61 11/22/61 77/22/61 80/25/61
f 3/10/62 10/21/62 74/21/62 76/10/62
f 71/22/63 73/25/63 85/25/63 82/22/63
f 69/11/64 71/22/64 82/22/64 83/11/64
f 4/11/65 69/11/65 83/11/65 78/11/65
f 11/22/66 4/11/66 78/11/66 77/22/66
f 68/10/67 3/10/67 76/10/67 81/10/67
f 81/10/68 83/11/68 82/22/68 75/21/68
f 85/25/69 84/24/69 75/21/69 82/22/69
f 42/1/70 91/4/70 90/3/70 2/2/70
f 43/5/71 92/6/71 91/4/71 42/1/71
f 38/7/72 92/6/72 43/5/72
f 40/8/73 87/11/73 86/10/73 39/9/73
f 41/12/74 88/13/74 87/11/74 40/8/74
f 1/14/75 89/15/75 88/13/75 41/12/75
f 2/2/76 90/3/76 89/15/76 1/14/76
f 90/3/77 97/17/77 96/16/77 89/15/77
f 91/4/78 98/18/78 97/17/78 90/3/78
f 92/6/79 99/19/79 98/18/79 91/4/79
f 38/20/80 99/19/80 92/6/80
f 132/21/81 137/21/81 143/10/81 130/10/81
f 88/13/82 95/23/82 94/22/82 87/11/82
f 89/15/83 96/16/83 95/23/83 88/13/83
f 134/24/84 146/24/84 137/21/84 132/21/84
f 95/23/85 102/26/85 101/25/85 94/22/85
f 96/16/86 103/27/86 102/26/86 95/23/86
f 97/17/87 104/28/87 103/27/87 96/16/87
f 98/18/88 105/29/88 104/28/88 97/17/88
f 99/19/89 106/30/89 105/29/89 98/18/89
f 38/31/90 106/30/90 99/19/90
f 104/28/91 111/33/91 110/32/91 103/27/91
f 105/29/92 112/34/92 111/33/92 104/28/92
f 106/30/93 113/35/93 112/34/93 105/29/93
f 38/36/94 113/35/94 106/30/94
f 101/25/95 108/38/95 107/37/95 100/24/95
f 102/26/96 109/39/96 108/38/96 101/25/96
f 103/27/97 110/32/97 109/39/97 102/26/97
f 108/38/98 32/41/98 31/40/98 107/37/98
f 109/39/99 33/42/99 32/41/99 108/38/99
f 110/32/100 34/43/100 33/42/100 109/39/100
f 111/33/101 35/44/101 34/43/101 110/32/101
f 112/34/102 36/45/102 35/44/102 111/33/102
f 113/35/103 37/46/103 36/45/103 112/34/103
f 38/47/104 37/46/104 113/35/104
f 107/37/36 117/37/36 116/24/36 100/24/36
f 115/10/105 119/10/105 55/9/105 49/9/105
f 93/21/36 114/21/36 115/10/36 86/10/36
f 100/24/36 116/24/36 114/21/36 93/21/36
f 86/10/36 115/10/36 49/9/36 39/9/36
f 31/40/36 48/40/36 117/37/36 107/37/36
f 119/10/106 123/10/106 61/9/106 55/9/106
f 117/37/107 121/37/107 120/24/107 116/24/107
f 114/21/108 118/21/108 119/10/108 115/10/108
f 48/40/109 54/40/109 121/37/109 117/37/109
f 116/24/110 120/24/110 118/21/110 114/21/110
f 123/10/111 127/10/111 67/9/111 61/9/111
f 121/37/112 125/37/112 124/24/112 120/24/112
f 118/21/113 122/21/113 123/10/113 119/10/113
f 54/40/114 60/40/114 125/37/114 121/37/114
f 120/24/115 124/24/115 122/21/115 118/21/115
f 129/37/36 66/40/36 67/9/36 127/10/36 126/21/36 128/24/36
f 125/37/116 129/37/116 128/24/116 124/24/116
f 122/21/117 126/21/117 127/10/117 123/10/117
f 60/40/118 66/40/118 129/37/118 125/37/118
f 124/24/119 128/24/119 126/21/119 122/21/119
f 131/11/120 133/22/120 132/21/120 130/10/120
f 133/22/121 135/25/121 134/24/121 132/21/121
f 100/24/122 134/24/122 135/25/122 101/25/122
f 93/21/123 136/21/123 141/24/123 100/24/123
f 100/24/124 141/24/124 146/24/124 134/24/124
f 87/11/125 131/11/125 130/10/125 86/10/125
f 143/10/126 145/11/126 140/11/126 138/10/126
f 138/10/120 140/11/120 139/22/120 136/21/120
f 136/21/121 139/22/121 142/25/121 141/24/121
f 147/25/127 146/24/127 141/24/127 142/25/127
f 135/25/128 147/25/128 142/25/128 101/25/128
f 101/25/129 142/25/129 139/22/129 94/22/129
f 86/10/130 138/10/130 136/21/130 93/21/130
f 133/22/131 144/22/131 147/25/131 135/25/131
f 131/11/132 145/11/132 144/22/132 133/22/132
f 87/11/133 140/11/133 145/11/133 131/11/133
f 94/22/134 139/22/134 140/11/134 87/11/134
f 130/10/135 143/10/135 138/10/135 86/10/135
f 143/10/136 137/21/136 144/22/136 145/11/136
f 147/25/137 144/22/137 137/21/137 146/24/137
