# This file uses centimeters as units for non-parametric coordinates.

mtllib clownbush.mtl
g default
v -0.523570 0.659723 0.524749
v -0.172389 0.831535 0.524749
v 0.166667 0.803719 0.500000
v 0.500000 0.662400 0.500000
v -0.523570 0.757353 0.173568
v -0.166667 0.951524 0.166667
v 0.166667 0.951524 0.166667
v 0.465356 0.833041 0.201946
v -0.523570 0.814453 -0.177612
v -0.166667 0.944825 -0.166667
v 0.166667 0.951524 -0.166667
v 0.529972 0.814453 -0.177612
v -0.523570 0.650916 -0.528793
v -0.172389 0.814453 -0.528793
v 0.186257 0.814453 -0.503097
v 0.529972 0.646304 -0.528793
vt 0.000000 0.000000
vt 0.333333 0.000000
vt 0.666667 0.000000
vt 1.000000 0.000000
vt 0.000000 0.333333
vt 0.333333 0.333333
vt 0.666667 0.333333
vt 1.000000 0.333333
vt 0.000000 0.666667
vt 0.333333 0.666667
vt 0.666667 0.666667
vt 1.000000 0.666667
vt 0.000000 1.000000
vt 0.333333 1.000000
vt 0.666667 1.000000
vt 1.000000 1.000000
vn -0.441372 0.858845 0.259954
vn -0.237854 0.919375 0.313330
vn -0.222803 0.958034 0.180361
vn -0.431112 0.885070 0.175478
vn 0.192043 0.900383 0.390422
vn 0.190039 0.963568 0.188207
vn 0.326828 0.850922 0.411237
vn 0.350092 0.909570 0.223870
vn -0.211507 0.961820 -0.173686
vn -0.390027 0.905919 -0.164891
vn 0.185727 0.963167 -0.194461
vn 0.361687 0.906274 -0.218749
vn -0.201989 0.910276 -0.361383
vn -0.353884 0.865755 -0.353885
vn 0.202100 0.906332 -0.371103
vn 0.351703 0.859282 -0.371402
s 1
g pPlane1
usemtl aiStandardSurface2SG
f 1/1/1 2/2/2 6/6/3 5/5/4
f 2/2/2 3/3/5 7/7/6 6/6/3
f 3/3/5 4/4/7 8/8/8 7/7/6
f 5/5/4 6/6/3 10/10/9 9/9/10
f 6/6/3 7/7/6 11/11/11 10/10/9
f 7/7/6 8/8/8 12/12/12 11/11/11
f 9/9/10 10/10/9 14/14/13 13/13/14
f 10/10/9 11/11/11 15/15/15 14/14/13
f 11/11/11 12/12/12 16/16/16 15/15/15
g default
v -0.496689 0.184500 0.528830
v -0.167261 0.271342 0.683291
v 0.183738 0.258511 0.667338
v 0.503317 0.182988 0.524749
v -0.519661 0.493142 0.402618
v -0.166446 0.628909 0.562075
v 0.184718 0.627118 0.559155
v 0.498236 0.516472 0.485323
v -0.519632 0.798007 0.219191
v -0.167035 0.892305 0.329696
v 0.184197 0.895076 0.332161
v 0.533860 0.792636 0.210431
v -0.498253 0.942117 -0.123921
v -0.163440 1.040749 -0.008258
v 0.177000 1.020403 0.004677
v 0.501657 0.934190 -0.135575
vt 0.000000 0.000000
vt 0.333333 0.000000
vt 0.666667 0.000000
vt 1.000000 0.000000
vt 0.000000 0.333333
vt 0.333333 0.333333
vt 0.666667 0.333333
vt 1.000000 0.333333
vt 0.000000 0.666667
vt 0.333333 0.666667
vt 0.666667 0.666667
vt 1.000000 0.666667
vt 0.000000 1.000000
vt 0.333333 1.000000
vt 0.666667 1.000000
vt 1.000000 1.000000
vn -0.476564 0.292109 0.829192
vn -0.240835 0.307064 0.920712
vn -0.234358 0.464736 0.853872
vn -0.467069 0.406664 0.785156
vn 0.200929 0.251876 0.946671
vn 0.205496 0.473294 0.856601
vn 0.367799 0.193380 0.909576
vn 0.393301 0.403261 0.826253
vn -0.217722 0.777076 0.590551
vn -0.416626 0.719827 0.555222
vn 0.207673 0.795923 0.568664
vn 0.392668 0.768456 0.505259
vn -0.197668 0.906066 0.374129
vn -0.359466 0.862110 0.357141
vn 0.211076 0.910586 0.355360
vn 0.369421 0.871106 0.323577
s 1
g pPlane2
usemtl aiStandardSurface2SG
f 17/17/17 18/18/18 22/22/19 21/21/20
f 18/18/18 19/19/21 23/23/22 22/22/19
f 19/19/21 20/20/23 24/24/24 23/23/22
f 21/21/20 22/22/19 26/26/25 25/25/26
f 22/22/19 23/23/22 27/27/27 26/26/25
f 23/23/22 24/24/24 28/28/28 27/27/27
f 25/25/26 26/26/25 30/30/29 29/29/30
f 26/26/25 27/27/27 31/31/31 30/30/29
f 27/27/27 28/28/28 32/32/32 31/31/31
g default
v -0.553720 0.136881 -0.264294
v -0.569346 0.212950 0.046607
v -0.462148 0.205387 0.314010
v -0.269247 0.139468 0.551063
v -0.492635 0.412665 -0.311465
v -0.611804 0.551708 0.029499
v -0.494571 0.551708 0.360535
v -0.276070 0.426698 0.543554
v -0.426695 0.763136 -0.408607
v -0.427394 0.843436 -0.035808
v -0.315760 0.847249 0.297211
v -0.074997 0.763136 0.584499
v -0.115185 0.951684 -0.489636
v -0.127050 1.035530 -0.131816
v -0.025829 1.015004 0.193474
v 0.222111 0.949319 0.451770
vt 0.000000 0.000000
vt 0.333333 0.000000
vt 0.666667 0.000000
vt 1.000000 0.000000
vt 0.000000 0.333333
vt 0.333333 0.333333
vt 0.666667 0.333333
vt 1.000000 0.333333
vt 0.000000 0.666667
vt 0.333333 0.666667
vt 0.666667 0.666667
vt 1.000000 0.666667
vt 0.000000 1.000000
vt 0.333333 1.000000
vt 0.666667 1.000000
vt 1.000000 1.000000
vn -0.978708 0.008213 -0.205091
vn -0.995675 -0.056434 0.073800
vn -0.971000 0.233876 0.049604
vn -0.959578 0.163008 -0.229431
vn -0.851911 -0.104513 0.513152
vn -0.806817 0.248514 0.535992
vn -0.731207 -0.086961 0.676590
vn -0.669773 0.159003 0.725343
vn -0.742363 0.669979 -0.005032
vn -0.766976 0.599642 -0.228423
vn -0.572056 0.689648 0.444002
vn -0.435990 0.652810 0.619476
vn -0.527849 0.848827 -0.029481
vn -0.557767 0.807708 -0.191058
vn -0.381176 0.854678 0.352463
vn -0.296461 0.819439 0.490541
s 1
g pPlane3
usemtl aiStandardSurface2SG
f 33/33/33 34/34/34 38/38/35 37/37/36
f 34/34/34 35/35/37 39/39/38 38/38/35
f 35/35/37 36/36/39 40/40/40 39/39/38
f 37/37/36 38/38/35 42/42/41 41/41/42
f 38/38/35 39/39/38 43/43/43 42/42/41
f 39/39/38 40/40/40 44/44/44 43/43/43
f 41/41/42 42/42/41 46/46/45 45/45/46
f 42/42/41 43/43/43 47/47/47 46/46/45
f 43/43/43 44/44/44 48/48/48 47/47/47
g default
v -0.067175 0.125992 -0.597893
v -0.340779 0.198979 -0.447881
v -0.510843 0.191722 -0.215332
v -0.608659 0.128476 0.074809
v -0.001051 0.403489 -0.578901
v -0.352174 0.536423 -0.509863
v -0.571078 0.536423 -0.235256
v -0.612328 0.415421 0.056986
v 0.113185 0.756056 -0.588008
v -0.205135 0.833102 -0.392650
v -0.428758 0.836760 -0.121805
v -0.543525 0.756056 0.235814
v 0.343288 0.952913 -0.365771
v 0.031703 1.033362 -0.187869
v -0.190377 1.012503 0.070444
v -0.277121 0.950645 0.418517
vt 0.000000 0.000000
vt 0.333333 0.000000
vt 0.666667 0.000000
vt 1.000000 0.000000
vt 0.000000 0.333333
vt 0.333333 0.333333
vt 0.666667 0.333333
vt 1.000000 0.333333
vt 0.000000 0.666667
vt 0.333333 0.666667
vt 0.666667 0.666667
vt 1.000000 0.666667
vt 0.000000 1.000000
vt 0.333333 1.000000
vt 0.666667 1.000000
vt 1.000000 1.000000
vn -0.341024 -0.035322 -0.939391
vn -0.590358 -0.100174 -0.800901
vn -0.558620 0.200819 -0.804745
vn -0.312726 0.126110 -0.941434
vn -0.884194 -0.136768 -0.446649
vn -0.885923 0.221426 -0.407567
vn -0.957814 -0.112699 -0.264370
vn -0.972016 0.137657 -0.190358
vn -0.399541 0.653113 -0.643281
vn -0.219633 0.584790 -0.780886
vn -0.691548 0.673338 -0.261491
vn -0.768965 0.637004 -0.054022
vn -0.268822 0.838801 -0.473442
vn -0.145949 0.798953 -0.583415
vn -0.516845 0.843007 -0.149031
vn -0.589110 0.808038 -0.004983
s 1
g pPlane4
usemtl aiStandardSurface2SG
f 49/49/49 50/50/50 54/54/51 53/53/52
f 50/50/50 51/51/53 55/55/54 54/54/51
f 51/51/53 52/52/55 56/56/56 55/55/54
f 53/53/52 54/54/51 58/58/57 57/57/58
f 54/54/51 55/55/54 59/59/59 58/58/57
f 55/55/54 56/56/56 60/60/60 59/59/59
f 57/57/58 58/58/57 62/62/61 61/61/62
f 58/58/57 59/59/59 63/63/63 62/62/61
f 59/59/59 60/60/60 64/64/64 63/63/63
g default
v 0.459763 0.090380 -0.350058
v 0.185752 0.152571 -0.504136
v -0.101935 0.146388 -0.519975
v -0.399166 0.092496 -0.439357
v 0.481843 0.372241 -0.312826
v 0.237573 0.483923 -0.587491
v -0.111901 0.483923 -0.622067
v -0.384048 0.377000 -0.481245
v 0.558023 0.730239 -0.259552
v 0.221681 0.795888 -0.426860
v -0.127170 0.799005 -0.467737
v -0.490400 0.730239 -0.363279
v 0.498420 0.954305 0.040639
v 0.180419 1.022854 -0.130774
v -0.157286 1.000970 -0.175008
v -0.497108 0.952372 -0.053909
vt 0.000000 0.000000
vt 0.333333 0.000000
vt 0.666667 0.000000
vt 1.000000 0.000000
vt 0.000000 0.333333
vt 0.333333 0.333333
vt 0.666667 0.333333
vt 1.000000 0.333333
vt 0.000000 0.666667
vt 0.333333 0.666667
vt 0.666667 0.666667
vt 1.000000 0.666667
vt 0.000000 1.000000
vt 0.333333 1.000000
vt 0.666667 1.000000
vt 1.000000 1.000000
vn 0.605172 -0.131982 -0.785078
vn 0.350861 -0.211768 -0.912168
vn 0.376150 0.102522 -0.920869
vn 0.626417 0.035223 -0.778692
vn -0.109495 -0.247020 -0.962804
vn -0.139090 0.123318 -0.982571
vn -0.301430 -0.212644 -0.929474
vn -0.371281 0.045446 -0.927408
vn 0.329767 0.589936 -0.737041
vn 0.544272 0.524953 -0.654364
vn -0.152384 0.611487 -0.776443
vn -0.369580 0.579606 -0.726270
vn 0.257465 0.795292 -0.548837
vn 0.415736 0.757804 -0.502887
vn -0.148379 0.800579 -0.580567
vn -0.308121 0.768802 -0.560362
s 1
g pPlane5
usemtl aiStandardSurface2SG
f 65/65/65 66/66/66 70/70/67 69/69/68
f 66/66/66 67/67/69 71/71/70 70/70/67
f 67/67/69 68/68/71 72/72/72 71/71/70
f 69/69/68 70/70/67 74/74/73 73/73/74
f 70/70/67 71/71/70 75/75/75 74/74/73
f 71/71/70 72/72/72 76/76/76 75/75/75
f 73/73/74 74/74/73 78/78/77 77/77/78
f 74/74/73 75/75/75 79/79/79 78/78/77
f 75/75/75 76/76/76 80/80/80 79/79/79
g default
v 0.397316 0.108111 0.433884
v 0.521732 0.175819 0.146437
v 0.510390 0.169087 -0.141451
v 0.404319 0.110414 -0.429646
v 0.349912 0.388046 0.454860
v 0.603216 0.510564 0.175516
v 0.604356 0.510564 -0.175663
v 0.434820 0.396436 -0.423135
v 0.296695 0.743625 0.525704
v 0.428186 0.815099 0.174948
v 0.435514 0.818492 -0.176211
v 0.300113 0.743625 -0.527832
v -0.017791 0.954138 0.499945
v 0.119398 1.028769 0.167055
v 0.132230 1.007382 -0.173325
v -0.018384 0.952034 -0.500062
vt 0.000000 0.000000
vt 0.333333 0.000000
vt 0.666667 0.000000
vt 1.000000 0.000000
vt 0.000000 0.333333
vt 0.333333 0.333333
vt 0.666667 0.333333
vt 1.000000 0.333333
vt 0.000000 0.666667
vt 0.333333 0.666667
vt 0.666667 0.666667
vt 1.000000 0.666667
vt 0.000000 1.000000
vt 0.333333 1.000000
vt 0.666667 1.000000
vt 1.000000 1.000000
vn 0.842441 -0.089966 0.531225
vn 0.945583 -0.177803 0.272505
vn 0.948557 0.137085 0.285391
vn 0.831185 0.072321 0.551273
vn 0.952486 -0.229065 -0.200745
vn 0.959386 0.150261 -0.238749
vn 0.896286 -0.195356 -0.398129
vn 0.880617 0.062471 -0.469693
vn 0.739851 0.621073 0.258631
vn 0.683151 0.549001 0.481563
vn 0.730906 0.642619 -0.229820
vn 0.659753 0.606802 -0.443302
vn 0.536975 0.818136 0.205698
vn 0.509832 0.778212 0.366685
vn 0.525608 0.826547 -0.201386
vn 0.489900 0.794408 -0.359047
s 1
g pPlane6
usemtl aiStandardSurface2SG
f 81/81/81 82/82/82 86/86/83 85/85/84
f 82/82/82 83/83/85 87/87/86 86/86/83
f 83/83/85 84/84/87 88/88/88 87/87/86
f 85/85/84 86/86/83 90/90/89 89/89/90
f 86/86/83 87/87/86 91/91/91 90/90/89
f 87/87/86 88/88/88 92/92/92 91/91/91
f 89/89/90 90/90/89 94/94/93 93/93/94
f 90/90/89 91/91/91 95/95/95 94/94/93
f 91/91/91 92/92/92 96/96/96 95/95/95
g default
v -0.655840 0.690978 0.455463
v -0.285406 0.875131 0.522255
v 0.085028 0.856823 0.589048
v 0.455463 0.697243 0.655840
v -0.589048 0.795621 0.085028
v -0.218613 1.023728 0.151821
v 0.151821 1.023728 0.218614
v 0.476686 0.889934 0.317670
v -0.522255 0.856823 -0.285406
v -0.151821 1.016163 -0.218614
v 0.218614 1.023728 -0.151821
v 0.589048 0.856823 -0.085028
v -0.455463 0.681537 -0.655840
v -0.085028 0.856823 -0.589048
v 0.288394 0.856823 -0.493730
v 0.655840 0.676594 -0.455463
vt 0.000000 0.000000
vt 0.333333 0.000000
vt 0.666667 0.000000
vt 1.000000 0.000000
vt 0.000000 0.333333
vt 0.333333 0.333333
vt 0.666667 0.333333
vt 1.000000 0.333333
vt 0.000000 0.666667
vt 0.333333 0.666667
vt 0.666667 0.666667
vt 1.000000 0.666667
vt 0.000000 1.000000
vt 0.333333 1.000000
vt 0.666667 1.000000
vt 1.000000 1.000000
vn -0.503589 0.841242 0.196748
vn -0.305036 0.906677 0.291359
vn -0.270403 0.951781 0.144898
vn -0.487245 0.867527 0.099949
vn 0.108205 0.896157 0.430341
vn 0.153818 0.963338 0.219817
vn 0.248668 0.850922 0.462706
vn 0.319174 0.904895 0.281589
vn -0.189033 0.954935 -0.228834
vn -0.387738 0.888477 -0.245496
vn 0.234046 0.955688 -0.178557
vn 0.424213 0.891098 -0.161210
vn -0.138303 0.892140 -0.430069
vn -0.303572 0.846619 -0.437127
vn 0.281888 0.886943 -0.365883
vn 0.440116 0.837541 -0.323763
s 1
g pPlane7
usemtl aiStandardSurface2SG
f 97/97/97 98/98/98 102/102/99 101/101/100
f 98/98/98 99/99/101 103/103/102 102/102/99
f 99/99/101 100/100/103 104/104/104 103/103/102
f 101/101/100 102/102/99 106/106/105 105/105/106
f 102/102/99 103/103/102 107/107/107 106/106/105
f 103/103/102 104/104/104 108/108/108 107/107/107
f 105/105/106 106/106/105 110/110/109 109/109/110
f 106/106/105 107/107/107 111/111/111 110/110/109
f 107/107/107 108/108/108 112/112/112 111/111/111
g default
v -0.523456 0.173971 0.426450
v -0.231870 0.257532 0.631311
v 0.107731 0.245020 0.676737
v 0.436920 0.172497 0.595571
v -0.521490 0.473819 0.300982
v -0.233046 0.660879 0.595877
v 0.157788 0.658857 0.662998
v 0.441039 0.496569 0.556483
v -0.556837 0.851829 0.144059
v -0.187138 0.958312 0.337516
v 0.202694 0.961442 0.410635
v 0.615667 0.845765 0.345421
v -0.466885 1.013106 -0.232797
v -0.117981 1.124483 -0.037171
v 0.257758 1.101508 0.045420
v 0.646654 1.004154 -0.045388
vt 0.000000 0.000000
vt 0.333333 0.000000
vt 0.666667 0.000000
vt 1.000000 0.000000
vt 0.000000 0.333333
vt 0.333333 0.333333
vt 0.666667 0.333333
vt 1.000000 0.333333
vt 0.000000 0.666667
vt 0.333333 0.666667
vt 0.666667 0.666667
vt 1.000000 0.666667
vt 0.000000 1.000000
vt 0.333333 1.000000
vt 0.666667 1.000000
vt 1.000000 1.000000
vn -0.686545 0.162910 0.708602
vn -0.442821 0.122007 0.888270
vn -0.422902 0.366154 0.828906
vn -0.675484 0.288497 0.678595
vn 0.056493 0.059650 0.996620
vn 0.095104 0.368572 0.924722
vn 0.308558 0.045366 0.950123
vn 0.353356 0.260972 0.898350
vn -0.346996 0.756959 0.553722
vn -0.557735 0.678102 0.478653
vn 0.132362 0.772575 0.620974
vn 0.353279 0.725775 0.590292
vn -0.261216 0.906519 0.331646
vn -0.417024 0.862260 0.287399
vn 0.144288 0.912215 0.383464
vn 0.305820 0.873180 0.379514
s 1
g pPlane8
usemtl aiStandardSurface2SG
f 113/113/113 114/114/114 118/118/115 117/117/116
f 114/114/114 115/115/117 119/119/118 118/118/115
f 115/115/117 116/116/119 120/120/120 119/119/118
f 117/117/116 118/118/115 122/122/121 121/121/122
f 118/118/115 119/119/118 123/123/123 122/122/121
f 119/119/118 120/120/120 124/124/124 123/123/123
f 121/121/122 122/122/121 126/126/125 125/125/126
f 122/122/121 123/123/123 127/127/127 126/126/125
f 123/123/123 124/124/124 128/128/128 127/127/127
g default
v -0.546533 0.105843 -0.345621
v -0.626196 0.191742 -0.003248
v -0.560648 0.183202 0.315399
v -0.393778 0.108766 0.617490
v -0.469110 0.418830 -0.383058
v -0.668617 0.573702 -0.020245
v -0.604668 0.573702 0.371127
v -0.399767 0.434677 0.610522
v -0.375118 0.812451 -0.470022
v -0.450595 0.903128 -0.055869
v -0.393265 0.907434 0.336584
v -0.183271 0.812451 0.704093
v -0.012850 1.023908 -0.500790
v -0.097735 1.118590 -0.105521
v -0.050428 1.095411 0.276257
v 0.173351 1.021238 0.612983
vt 0.000000 0.000000
vt 0.333333 0.000000
vt 0.666667 0.000000
vt 1.000000 0.000000
vt 0.000000 0.333333
vt 0.333333 0.333333
vt 0.666667 0.333333
vt 1.000000 0.333333
vt 0.000000 0.666667
vt 0.333333 0.666667
vt 0.666667 0.666667
vt 1.000000 0.666667
vt 0.000000 1.000000
vt 0.333333 1.000000
vt 0.666667 1.000000
vt 1.000000 1.000000
vn -0.927591 0.017490 -0.373187
vn -0.992825 -0.051125 -0.108097
vn -0.964220 0.236298 -0.120183
vn -0.903660 0.170982 -0.392636
vn -0.929729 -0.109495 0.351589
vn -0.889165 0.245628 0.386074
vn -0.837757 -0.095076 0.537702
vn -0.786921 0.153042 0.597774
vn -0.728478 0.671592 -0.135221
vn -0.714095 0.601111 -0.358795
vn -0.640028 0.691155 0.335664
vn -0.535125 0.656054 0.532197
vn -0.512657 0.849648 -0.123618
vn -0.514615 0.807968 -0.286981
vn -0.433722 0.857315 0.277301
vn -0.374032 0.822746 0.428006
s 1
g pPlane9
usemtl aiStandardSurface2SG
f 129/129/129 130/130/130 134/134/131 133/133/132
f 130/130/130 131/131/133 135/135/134 134/134/131
f 131/131/133 132/132/135 136/136/136 135/135/134
f 133/133/132 134/134/131 138/138/137 137/137/138
f 134/134/131 135/135/134 139/139/139 138/138/137
f 135/135/134 136/136/136 140/140/140 139/139/139
f 137/137/138 138/138/137 142/142/141 141/141/142
f 138/138/137 139/139/139 143/143/143 142/142/141
f 139/139/139 140/140/140 144/144/144 143/143/143
g default
v 0.004739 0.093548 -0.632688
v -0.329377 0.175966 -0.520805
v -0.564967 0.167772 -0.296449
v -0.731809 0.096352 0.006384
v 0.071491 0.408469 -0.596331
v -0.340666 0.556443 -0.584491
v -0.638959 0.556443 -0.323182
v -0.735242 0.421942 -0.012153
v 0.192148 0.804456 -0.578085
v -0.200747 0.891459 -0.424768
v -0.503532 0.895590 -0.168586
v -0.702733 0.804456 0.205840
v 0.406668 1.025297 -0.287288
v 0.024755 1.116141 -0.152020
v -0.273803 1.092586 0.090544
v -0.439947 1.022735 0.459977
vt 0.000000 0.000000
vt 0.333333 0.000000
vt 0.666667 0.000000
vt 1.000000 0.000000
vt 0.000000 0.333333
vt 0.333333 0.333333
vt 0.666667 0.333333
vt 1.000000 0.333333
vt 0.000000 0.666667
vt 0.333333 0.666667
vt 0.666667 0.666667
vt 1.000000 0.666667
vt 0.000000 1.000000
vt 0.333333 1.000000
vt 0.666667 1.000000
vt 1.000000 1.000000
vn -0.171030 -0.025066 -0.984947
vn -0.433990 -0.095989 -0.895789
vn -0.410119 0.202376 -0.889296
vn -0.143594 0.134509 -0.980453
vn -0.788658 -0.145418 -0.597388
vn -0.801908 0.216351 -0.556899
vn -0.896256 -0.124139 -0.425811
vn -0.925601 0.128617 -0.355978
vn -0.279793 0.654515 -0.702372
vn -0.079513 0.585400 -0.806836
vn -0.633897 0.674690 -0.378112
vn -0.745558 0.640067 -0.185628
vn -0.178869 0.839462 -0.513137
vn -0.040177 0.798855 -0.600180
vn -0.478018 0.846064 -0.235956
vn -0.573971 0.811962 -0.106181
s 1
g pPlane10
usemtl aiStandardSurface2SG
f 145/145/145 146/146/146 150/150/147 149/149/148
f 146/146/146 147/147/149 151/151/150 150/150/147
f 147/147/149 148/148/151 152/152/152 151/151/150
f 149/149/148 150/150/147 154/154/153 153/153/154
f 150/150/147 151/151/150 155/155/155 154/154/153
f 151/151/150 152/152/152 156/156/156 155/155/155
f 153/153/154 154/154/153 158/158/157 157/157/158
f 154/154/153 155/155/155 159/159/159 158/158/157
f 155/155/155 156/156/156 160/160/160 159/159/159
g default
v 0.520197 0.053334 -0.307000
v 0.246562 0.123560 -0.533134
v -0.069973 0.116578 -0.608381
v -0.416440 0.055723 -0.578348
v 0.533254 0.373183 -0.262157
v 0.254778 0.464829 -0.534908
v -0.074617 0.464829 -0.628561
v -0.395266 0.378556 -0.622827
v 0.595710 0.775303 -0.191423
v 0.255456 0.849436 -0.444748
v -0.124032 0.852956 -0.560078
v -0.548622 0.775303 -0.516776
v 0.473928 1.026868 0.131384
v 0.154879 1.104275 -0.122828
v -0.211550 1.079564 -0.239655
v -0.613460 1.024685 -0.173169
vt 0.000000 0.000000
vt 0.333333 0.000000
vt 0.666667 0.000000
vt 1.000000 0.000000
vt 0.000000 0.333333
vt 0.333333 0.333333
vt 0.666667 0.333333
vt 1.000000 0.333333
vt 0.000000 0.666667
vt 0.333333 0.666667
vt 0.666667 0.666667
vt 1.000000 0.666667
vt 0.000000 1.000000
vt 0.333333 1.000000
vt 0.666667 1.000000
vt 1.000000 1.000000
vn 0.674448 0.026365 -0.737851
vn 0.495391 -0.000521 -0.868670
vn 0.486526 0.091159 -0.868897
vn 0.666802 0.067009 -0.742216
vn 0.106720 -0.065355 -0.992139
vn 0.096000 0.100358 -0.990309
vn -0.032377 -0.095065 -0.994945
vn -0.074059 0.063859 -0.995207
vn 0.443799 0.524197 -0.726816
vn 0.617325 0.491384 -0.614371
vn 0.028224 0.550271 -0.834509
vn -0.172830 0.559361 -0.810707
vn 0.351864 0.795260 -0.493714
vn 0.499014 0.756744 -0.422283
vn -0.042430 0.803639 -0.593603
vn -0.203759 0.772972 -0.600830
s 1
g pPlane11
usemtl aiStandardSurface2SG
f 161/161/161 162/162/162 166/166/163 165/165/164
f 162/162/162 163/163/165 167/167/166 166/166/163
f 163/163/165 164/164/167 168/168/168 167/167/166
f 165/165/164 166/166/163 170/170/169 169/169/170
f 166/166/163 167/167/166 171/171/171 170/170/169
f 167/167/166 168/168/168 172/172/172 171/171/171
f 169/169/170 170/170/169 174/174/173 173/173/174
f 170/170/169 171/171/171 175/175/175 174/174/173
f 171/171/171 172/172/172 176/176/176 175/175/175
g default
v 0.361435 0.073355 0.502034
v 0.557297 0.149813 0.207523
v 0.602378 0.142212 -0.114680
v 0.542250 0.075957 -0.456206
v 0.304155 0.391030 0.512230
v 0.544991 0.490807 0.208284
v 0.606850 0.490807 -0.128532
v 0.574445 0.400504 -0.446475
v 0.230566 0.790419 0.568297
v 0.446976 0.871129 0.204849
v 0.525483 0.874961 -0.183927
v 0.445470 0.790419 -0.601817
v -0.113353 1.026680 0.480880
v 0.105809 1.110955 0.138428
v 0.188273 1.086804 -0.237266
v 0.086367 1.024303 -0.630550
vt 0.000000 0.000000
vt 0.333333 0.000000
vt 0.666667 0.000000
vt 1.000000 0.000000
vt 0.000000 0.333333
vt 0.333333 0.333333
vt 0.666667 0.333333
vt 1.000000 0.333333
vt 0.000000 0.666667
vt 0.333333 0.666667
vt 0.666667 0.666667
vt 1.000000 0.666667
vt 0.000000 1.000000
vt 0.333333 1.000000
vt 0.666667 1.000000
vt 1.000000 1.000000
vn 0.795086 0.073984 0.601967
vn 0.909724 0.048140 0.412415
vn 0.906375 0.130118 0.401938
vn 0.797998 0.108343 0.592841
vn 0.999683 -0.021424 0.013196
vn 0.991315 0.131478 0.002976
vn 0.990520 -0.054727 -0.125993
vn 0.981680 0.092632 -0.166505
vn 0.745726 0.556815 0.365854
vn 0.651325 0.519761 0.552833
vn 0.813456 0.578780 -0.057470
vn 0.769348 0.586558 -0.253087
vn 0.492110 0.817595 0.298942
vn 0.438349 0.776853 0.452050
vn 0.550139 0.828563 -0.104063
vn 0.541748 0.797332 -0.266030
s 1
g pPlane12
usemtl aiStandardSurface2SG
f 177/177/177 178/178/178 182/182/179 181/181/180
f 178/178/178 179/179/181 183/183/182 182/182/179
f 179/179/181 180/180/183 184/184/184 183/183/182
f 181/181/180 182/182/179 186/186/185 185/185/186
f 182/182/179 183/183/182 187/187/187 186/186/185
f 183/183/182 184/184/184 188/188/188 187/187/187
f 185/185/186 186/186/185 190/190/189 189/189/190
f 186/186/185 187/187/187 191/191/191 190/190/189
f 187/187/187 188/188/188 192/192/192 191/191/191
g default
v 0.083010 0.000000 -0.026972
v 0.070613 0.000000 -0.051303
v 0.051303 0.000000 -0.070613
v 0.026972 0.000000 -0.083010
v 0.000000 0.000000 -0.087282
v -0.026972 0.000000 -0.083010
v -0.051303 0.000000 -0.070613
v -0.070613 0.000000 -0.051303
v -0.083010 0.000000 -0.026972
v -0.087282 0.000000 0.000000
v -0.083010 0.000000 0.026972
v -0.070613 0.000000 0.051303
v -0.051303 0.000000 0.070613
v -0.026972 0.000000 0.083010
v -0.000000 0.000000 0.087282
v 0.026972 0.000000 0.083010
v 0.051303 0.000000 0.070613
v 0.070613 0.000000 0.051303
v 0.083010 0.000000 0.026972
v 0.087282 0.000000 0.000000
v 0.083010 0.174564 -0.026972
v 0.070613 0.174564 -0.051303
v 0.051303 0.174564 -0.070613
v 0.026972 0.174564 -0.083010
v 0.000000 0.174564 -0.087282
v -0.026972 0.174564 -0.083010
v -0.051303 0.174564 -0.070613
v -0.070613 0.174564 -0.051303
v -0.083010 0.174564 -0.026972
v -0.087282 0.174564 0.000000
v -0.083010 0.174564 0.026972
v -0.070613 0.174564 0.051303
v -0.051303 0.174564 0.070613
v -0.026972 0.174564 0.083010
v -0.000000 0.174564 0.087282
v 0.026972 0.174564 0.083010
v 0.051303 0.174564 0.070613
v 0.070613 0.174564 0.051303
v 0.083010 0.174564 0.026972
v 0.087282 0.174564 0.000000
v 0.000000 0.000000 0.000000
v 0.035148 0.901041 -0.011421
v 0.029899 0.901041 -0.021723
v -0.000000 0.901041 -0.000000
v 0.021723 0.901041 -0.029899
v 0.011420 0.901041 -0.035149
v -0.000000 0.901041 -0.036957
v -0.011420 0.901041 -0.035148
v -0.021723 0.901041 -0.029899
v -0.029899 0.901041 -0.021723
v -0.035149 0.901041 -0.011421
v -0.036957 0.901041 0.000000
v -0.035149 0.901041 0.011421
v -0.029899 0.901041 0.021723
v -0.021723 0.901041 0.029899
v -0.011420 0.901041 0.035149
v -0.000000 0.901041 0.036957
v 0.011420 0.901041 0.035148
v 0.021723 0.901041 0.029899
v 0.029899 0.901041 0.021723
v 0.035148 0.901041 0.011420
v 0.036957 0.901041 -0.000000
v 0.083010 0.174564 -0.026972
v 0.070613 0.174564 -0.051303
v 0.051303 0.174564 -0.070613
v 0.026972 0.174564 -0.083010
v 0.000000 0.174564 -0.087282
v -0.026972 0.174564 -0.083010
v -0.051303 0.174564 -0.070613
v -0.070613 0.174564 -0.051303
v -0.083010 0.174564 -0.026972
v -0.087282 0.174564 0.000000
v -0.083010 0.174564 0.026972
v -0.070613 0.174564 0.051303
v -0.051303 0.174564 0.070613
v -0.026972 0.174564 0.083010
v -0.000000 0.174564 0.087282
v 0.026972 0.174564 0.083010
v 0.051303 0.174564 0.070613
v 0.070613 0.174564 0.051303
v 0.083010 0.174564 0.026972
v 0.087282 0.174564 0.000000
v 0.370237 0.834136 0.060719
v 0.365317 0.835965 0.050417
v 0.337293 0.846388 0.072140
v 0.357654 0.838815 0.042241
v 0.347997 0.842407 0.036991
v 0.337293 0.846388 0.035183
v 0.326589 0.850368 0.036992
v 0.316933 0.853960 0.042241
v 0.309269 0.856810 0.050417
v 0.304350 0.858640 0.060719
v 0.302654 0.859270 0.072140
v 0.304350 0.858640 0.083561
v 0.309269 0.856810 0.093863
v 0.316933 0.853960 0.102039
v 0.326589 0.850368 0.107289
v 0.337293 0.846388 0.109097
v 0.347997 0.842407 0.107289
v 0.357653 0.838815 0.102039
v 0.365317 0.835965 0.093863
v 0.370237 0.834136 0.083560
v 0.371932 0.833505 0.072140
v 0.003030 0.127796 0.087230
v 0.029837 0.127796 0.082024
v 0.053724 0.127796 0.068789
v 0.072351 0.127796 0.048821
v 0.083897 0.127796 0.024074
v 0.087230 0.127796 -0.003030
v 0.082024 0.127796 -0.029837
v 0.068789 0.127796 -0.053724
v 0.048821 0.127796 -0.072351
v 0.024074 0.127796 -0.083897
v -0.003030 0.127796 -0.087230
v -0.029837 0.127796 -0.082024
v -0.053724 0.127796 -0.068789
v -0.072351 0.127796 -0.048821
v -0.083897 0.127796 -0.024074
v -0.087230 0.127796 0.003030
v -0.082024 0.127796 0.029837
v -0.068789 0.127796 0.053724
v -0.048821 0.127796 0.072351
v -0.024074 0.127796 0.083897
v -0.160480 0.610659 0.339129
v -0.149220 0.611999 0.337241
v -0.162371 0.619629 0.304313
v -0.139248 0.614086 0.332130
v -0.131539 0.616715 0.324296
v -0.126848 0.619629 0.314506
v -0.125634 0.622543 0.303718
v -0.128016 0.625173 0.292989
v -0.133762 0.627259 0.283368
v -0.142307 0.628598 0.275797
v -0.152818 0.629060 0.271017
v -0.164263 0.628598 0.269497
v -0.175522 0.627259 0.271385
v -0.185495 0.625172 0.276496
v -0.193204 0.622543 0.284329
v -0.197895 0.619629 0.294119
v -0.199109 0.616715 0.304907
v -0.196726 0.614086 0.315637
v -0.190981 0.611999 0.325258
v -0.182435 0.610659 0.332829
v -0.171925 0.610198 0.337608
v -0.044317 0.093039 -0.041787
v -0.054902 0.093039 -0.025876
v -0.060112 0.093039 -0.007433
v -0.059439 0.093039 0.011738
v -0.052947 0.093039 0.029760
v -0.041273 0.093039 0.044869
v -0.025558 0.093039 0.055585
v -0.007342 0.093039 0.060861
v 0.011593 0.093039 0.060179
v 0.029394 0.093039 0.053607
v 0.044317 0.093039 0.041787
v 0.054902 0.093039 0.025876
v 0.060112 0.093039 0.007433
v 0.059439 0.093039 -0.011738
v 0.052947 0.093039 -0.029760
v 0.041273 0.093039 -0.044869
v 0.025558 0.093039 -0.055585
v 0.007342 0.093039 -0.060861
v -0.011593 0.093039 -0.060179
v -0.029394 0.093039 -0.053607
v -0.087849 0.444578 -0.248094
v -0.092442 0.445553 -0.241559
v -0.069827 0.451108 -0.231755
v -0.094821 0.447072 -0.234065
v -0.094753 0.448987 -0.226344
v -0.092246 0.451108 -0.219153
v -0.087544 0.453230 -0.213196
v -0.081108 0.455144 -0.209055
v -0.073567 0.456663 -0.207136
v -0.065661 0.457638 -0.207628
v -0.058161 0.457974 -0.210480
v -0.051804 0.457638 -0.215415
v -0.047212 0.456663 -0.221950
v -0.044833 0.455144 -0.229444
v -0.044900 0.453230 -0.237164
v -0.047408 0.451108 -0.244355
v -0.052110 0.448987 -0.250313
v -0.058546 0.447072 -0.254454
v -0.066087 0.445553 -0.256373
v -0.073993 0.444578 -0.255882
v -0.081492 0.444242 -0.253029
vt 0.161962 0.101525
vt 0.166112 0.087483
vt 0.290946 0.133272
vt 0.278901 0.151224
vt 0.169081 0.072462
vt 0.302901 0.115255
vt 0.170694 0.056360
vt 0.314905 0.097257
vt 0.170718 0.039047
vt 0.327145 0.079385
vt 0.168846 0.020349
vt 0.339867 0.061786
vt 0.164640 0.000000
vt 0.086518 0.385284
vt 0.019711 0.210009
vt 0.100284 0.368214
vt 0.037588 0.207548
vt 0.114518 0.351719
vt 0.053908 0.203694
vt 0.129018 0.335569
vt 0.068852 0.198622
vt 0.143628 0.319582
vt 0.082554 0.192489
vt 0.158224 0.303615
vt 0.095125 0.185423
vt 0.172707 0.287562
vt 0.106654 0.177520
vt 0.187003 0.271346
vt 0.117214 0.168849
vt 0.201052 0.254916
vt 0.126863 0.159453
vt 0.214814 0.238241
vt 0.135638 0.149350
vt 0.228260 0.221309
vt 0.143554 0.138536
vt 0.241378 0.204121
vt 0.150606 0.126989
vt 0.254173 0.186692
vt 0.156762 0.114670
vt 0.266666 0.169047
vt 0.077560 0.102801
vt 0.697107 0.546152
vt 0.703941 0.541276
vt 0.699353 0.589705
vt 0.711171 0.536822
vt 0.718798 0.532821
vt 0.726813 0.529296
vt 0.735202 0.526252
vt 0.645924 0.649256
vt 0.646212 0.639968
vt 0.647120 0.630931
vt 0.648625 0.622161
vt 0.650715 0.613680
vt 0.653360 0.605503
vt 0.656521 0.597636
vt 0.660162 0.590085
vt 0.664249 0.582849
vt 0.668754 0.575925
vt 0.673656 0.569314
vt 0.678944 0.563019
vt 0.684613 0.557049
vt 0.690666 0.551419
vt 0.743954 0.523692
vt 0.353392 0.044666
vt 0.000000 0.210864
vt 0.534960 0.965191
vt 0.536154 0.956951
vt 0.578211 0.939405
vt 0.537864 0.948970
vt 0.540122 0.941278
vt 0.542957 0.933897
vt 0.546389 0.926850
vt 0.550430 0.920164
vt 0.555083 0.913871
vt 0.560337 0.908002
vt 0.566205 0.902634
vt 0.572616 0.897736
vt 0.579538 0.893312
vt 0.586940 0.889361
vt 0.594779 0.885876
vt 0.603001 0.882839
vt 0.611527 0.880196
vt 0.620267 0.877865
vt 0.534294 1.000000
vt 0.533983 0.991093
vt 0.533924 0.982261
vt 0.534239 0.973647
vt 0.039771 0.706742
vt 0.044044 0.685278
vt 0.046643 0.663528
vt 0.048413 0.641677
vt 0.050387 0.619821
vt 0.053622 0.598089
vt 0.059011 0.576769
vt 0.067146 0.556335
vt 0.078260 0.537369
vt 0.092248 0.520410
vt 0.108706 0.505870
vt 0.127054 0.493873
vt 0.146659 0.484197
vt 0.166955 0.476264
vt 0.187495 0.469210
vt 0.207919 0.462045
vt 0.227860 0.453858
vt 0.000000 0.782886
vt 0.013141 0.765918
vt 0.024341 0.747470
vt 0.033276 0.727601
vt 0.797054 0.525178
vt 0.800097 0.516696
vt 0.836471 0.518759
vt 0.804265 0.509302
vt 0.809167 0.503023
vt 0.814633 0.497791
vt 0.820634 0.493591
vt 0.827167 0.490483
vt 0.834175 0.488571
vt 0.841536 0.487964
vt 0.849028 0.488822
vt 0.856456 0.491135
vt 0.863608 0.494963
vt 0.870255 0.500383
vt 0.876082 0.507509
vt 0.880582 0.516396
vt 0.883002 0.526809
vt 0.855035 0.537372
vt 0.825507 0.542960
vt 0.795175 0.543475
vt 0.795474 0.534337
vt 0.640172 0.113160
vt 0.657249 0.098614
vt 0.672821 0.082433
vt 0.687582 0.065473
vt 0.702606 0.048626
vt 0.718957 0.032858
vt 0.737287 0.019216
vt 0.757668 0.008712
vt 0.779649 0.002147
vt 0.802486 0.000012
vt 0.825228 0.002287
vt 0.847056 0.008550
vt 0.867476 0.018007
vt 0.886490 0.029624
vt 0.904616 0.042242
vt 0.922647 0.054649
vt 0.535520 0.142626
vt 0.557865 0.142657
vt 0.777594 0.549591
vt 0.768614 0.551638
vt 0.579933 0.140108
vt 0.786480 0.546907
vt 0.601214 0.134438
vt 0.621435 0.125351
vt 0.649132 0.827527
vt 0.655419 0.826996
vt 0.664970 0.850963
vt 0.661368 0.827510
vt 0.666831 0.828839
vt 0.671783 0.830844
vt 0.676215 0.833482
vt 0.680089 0.836752
vt 0.683335 0.840643
vt 0.685859 0.845119
vt 0.687510 0.850101
vt 0.688242 0.855479
vt 0.687954 0.861147
vt 0.686520 0.866986
vt 0.683764 0.872816
vt 0.679508 0.878308
vt 0.673718 0.882921
vt 0.658601 0.868074
vt 0.646271 0.850847
vt 0.636972 0.831685
vt 0.642859 0.829187
vt 0.872347 0.600545
vt 0.886534 0.607270
vt 0.901355 0.612650
vt 0.916448 0.617339
vt 0.931524 0.622215
vt 0.946252 0.628176
vt 0.960163 0.635917
vt 0.972667 0.645787
vt 0.983161 0.657764
vt 0.991155 0.671561
vt 0.996413 0.686611
vt 0.998979 0.702303
vt 0.999206 0.718105
vt 0.997733 0.733701
vt 0.995406 0.749028
vt 0.993186 0.764178
vt 0.823160 0.543003
vt 0.829745 0.557116
vt 0.627911 0.822448
vt 0.623906 0.817418
vt 0.837817 0.570275
vt 0.632250 0.827229
vt 0.847590 0.582037
vt 0.859198 0.592176
vn 0.951057 0.000000 -0.309016
vn 0.809017 0.000000 -0.587785
vn 0.807938 0.051628 -0.587001
vn 0.949789 0.051628 -0.308603
vn 0.587785 0.000000 -0.809017
vn 0.587000 0.051628 -0.807939
vn 0.309017 0.000000 -0.951057
vn 0.308604 0.051628 -0.949789
vn -0.000000 0.000000 -1.000000
vn -0.000001 0.051629 -0.998666
vn -0.309017 0.000000 -0.951056
vn -0.308605 0.051629 -0.949788
vn -0.587785 0.000000 -0.809017
vn -0.587001 0.051628 -0.807938
vn -0.809017 0.000000 -0.587785
vn -0.807938 0.051628 -0.587002
vn -0.951057 0.000000 -0.309017
vn -0.949789 0.051629 -0.308603
vn -1.000000 0.000000 0.000000
vn -0.998666 0.051629 -0.000001
vn -0.951057 0.000000 0.309017
vn -0.949788 0.051628 0.308605
vn -0.809017 0.000000 0.587785
vn -0.807937 0.051628 0.587003
vn -0.587785 0.000000 0.809017
vn -0.587002 0.051629 0.807938
vn -0.309017 0.000000 0.951057
vn -0.308604 0.051628 0.949788
vn 0.000000 0.000000 1.000000
vn 0.000001 0.051629 0.998666
vn 0.309017 0.000000 0.951057
vn 0.308605 0.051629 0.949788
vn 0.587785 0.000000 0.809017
vn 0.587002 0.051629 0.807938
vn 0.809017 0.000000 0.587785
vn 0.807938 0.051629 0.587002
vn 0.951057 0.000000 0.309017
vn 0.949788 0.051629 0.308605
vn 1.000000 0.000000 0.000001
vn 0.998666 0.051629 0.000000
vn 0.000000 -1.000000 0.000000
vn 0.000000 -1.000000 0.000000
vn 0.000000 -1.000000 0.000000
vn 0.000000 -1.000000 0.000000
vn 0.000000 -1.000000 0.000000
vn 0.000000 -1.000000 0.000000
vn 0.000000 -1.000000 0.000000
vn 0.000000 -1.000000 0.000000
vn 0.000000 -1.000000 0.000000
vn 0.000000 -1.000000 0.000000
vn 0.000000 -1.000000 0.000000
vn 0.000000 -1.000000 0.000000
vn 0.000000 -1.000000 0.000000
vn 0.000000 -1.000000 0.000000
vn 0.000000 -1.000000 0.000000
vn 0.000000 -1.000000 0.000000
vn 0.000000 -1.000000 0.000000
vn 0.000000 -1.000000 0.000000
vn 0.000000 -1.000000 0.000000
vn 0.000000 -1.000000 0.000000
vn 0.000000 -1.000000 0.000000
vn 0.000000 1.000000 -0.000009
vn 0.000000 1.000000 -0.000004
vn 0.000000 1.000000 0.000001
vn 0.000000 1.000000 -0.000000
vn 0.000000 1.000000 0.000004
vn 0.000000 1.000000 0.000000
vn 0.000000 1.000000 0.000002
vn 0.000000 1.000000 0.000002
vn 0.000000 1.000000 0.000004
vn 0.000000 1.000000 0.000004
vn 0.000000 1.000000 0.000000
vn 0.000000 1.000000 -0.000009
vn 0.000000 1.000000 -0.000004
vn 0.000000 1.000000 0.000004
vn 0.000000 1.000000 0.000002
vn 0.000000 1.000000 0.000000
vn 0.000000 1.000000 -0.000002
vn 0.000000 1.000000 0.000000
vn 0.000000 1.000000 0.000004
vn 0.000000 1.000000 0.000013
vn 0.000000 1.000000 -0.000000
vn 0.807083 0.069107 -0.586380
vn 0.948784 0.069107 -0.308276
vn 0.586378 0.069107 -0.807085
vn 0.308277 0.069107 -0.948783
vn -0.000001 0.069107 -0.997609
vn -0.308278 0.069107 -0.948783
vn -0.586380 0.069107 -0.807083
vn -0.807083 0.069107 -0.586380
vn -0.948783 0.069107 -0.308276
vn -0.997609 0.069107 -0.000001
vn -0.948783 0.069107 0.308278
vn -0.807081 0.069107 0.586383
vn -0.586381 0.069107 0.807082
vn -0.308278 0.069107 0.948783
vn 0.000001 0.069107 0.997609
vn 0.308279 0.069107 0.948783
vn 0.586380 0.069107 0.807083
vn 0.807082 0.069107 0.586381
vn 0.948783 0.069107 0.308278
vn 0.997609 0.069107 0.000000
vn 0.348581 0.937279 0.000004
vn 0.348575 0.937281 -0.000004
vn 0.348581 0.937279 -0.000001
vn 0.348580 0.937279 -0.000004
vn 0.348585 0.937277 0.000000
vn 0.348579 0.937280 0.000000
vn 0.348581 0.937279 -0.000002
vn 0.348582 0.937278 0.000002
vn 0.348582 0.937278 0.000000
vn 0.348584 0.937278 -0.000004
vn 0.348581 0.937279 0.000000
vn 0.348582 0.937278 -0.000004
vn 0.348582 0.937278 -0.000000
vn 0.348583 0.937278 0.000004
vn 0.348582 0.937278 0.000000
vn 0.348581 0.937279 0.000000
vn 0.348580 0.937279 0.000002
vn 0.348577 0.937280 0.000002
vn 0.348579 0.937280 -0.000004
vn 0.348580 0.937279 -0.000009
vn 0.348581 0.937279 0.000000
vn 0.884304 -0.342836 -0.316971
vn 0.759473 -0.245748 -0.602336
vn 0.784406 -0.263202 -0.561633
vn 0.892501 -0.350927 -0.283360
vn 0.547607 -0.111812 -0.829231
vn 0.591531 -0.138016 -0.794382
vn 0.271782 0.041801 -0.961451
vn 0.327714 0.012022 -0.944700
vn -0.026789 0.191871 -0.981054
vn 0.027491 0.165740 -0.985786
vn -0.305827 0.318933 -0.897080
vn -0.265016 0.301236 -0.915982
vn -0.537673 0.413319 -0.734899
vn -0.514502 0.404500 -0.756087
vn -0.710556 0.473322 -0.520649
vn -0.702288 0.470797 -0.533987
vn -0.821304 0.500392 -0.273984
vn -0.821497 0.500419 -0.273356
vn -0.868446 0.495708 -0.008670
vn -0.869210 0.494377 0.008093
vn -0.848582 0.458818 0.263429
vn -0.841723 0.452433 0.294630
vn -0.755973 0.387953 0.527254
vn -0.734340 0.373618 0.566704
vn -0.585887 0.282175 0.759680
vn -0.546217 0.259157 0.796546
vn -0.342531 0.145594 0.928157
vn -0.289117 0.116957 0.950123
vn -0.048413 -0.008293 0.998793
vn 0.006655 -0.036005 0.999329
vn 0.255679 -0.157596 0.953830
vn 0.299131 -0.178033 0.937457
vn 0.526301 -0.280604 0.802664
vn 0.551615 -0.291419 0.781534
vn 0.734246 -0.363885 0.573123
vn 0.743273 -0.367080 0.559283
vn 0.866673 -0.402531 0.294697
vn 0.866347 -0.402475 0.295730
vn 0.918387 -0.395579 -0.009059
vn 0.917647 -0.397284 0.009443
vn -0.072461 0.964876 0.252514
vn -0.072460 0.964877 0.252512
vn -0.072458 0.964877 0.252514
vn -0.072458 0.964876 0.252517
vn -0.072457 0.964877 0.252512
vn -0.072456 0.964878 0.252509
vn -0.072457 0.964874 0.252522
vn -0.072463 0.964876 0.252514
vn -0.072459 0.964878 0.252507
vn -0.072454 0.964877 0.252514
vn -0.072459 0.964877 0.252512
vn -0.072462 0.964877 0.252511
vn -0.072453 0.964878 0.252511
vn -0.072452 0.964876 0.252519
vn -0.072460 0.964876 0.252516
vn -0.072457 0.964878 0.252509
vn -0.072456 0.964875 0.252520
vn -0.072458 0.964875 0.252521
vn -0.072457 0.964877 0.252513
vn -0.072455 0.964878 0.252511
vn -0.072457 0.964878 0.252510
vn 0.063609 -0.444444 0.893545
vn 0.369083 -0.322836 0.871524
vn 0.299262 -0.356060 0.885248
vn 0.015788 -0.458210 0.888704
vn 0.652186 -0.144378 0.744183
vn 0.578623 -0.198954 0.790957
vn 0.854903 0.066126 0.514557
vn 0.805310 0.001586 0.592852
vn 0.936576 0.265778 0.228445
vn 0.925471 0.210493 0.314955
vn 0.904686 0.422560 -0.054654
vn 0.921788 0.387406 0.014941
vn 0.793860 0.529284 -0.299408
vn 0.819367 0.512682 -0.256506
vn 0.634442 0.592419 -0.496511
vn 0.653171 0.587519 -0.477691
vn 0.443250 0.619684 -0.647705
vn 0.446328 0.619515 -0.645749
vn 0.226969 0.615030 -0.755131
vn 0.209231 0.613347 -0.761596
vn -0.012489 0.577527 -0.816276
vn -0.053740 0.567965 -0.821297
vn -0.272164 0.501529 -0.821216
vn -0.335222 0.477191 -0.812352
vn -0.539564 0.378707 -0.751965
vn -0.613035 0.334489 -0.715755
vn -0.781355 0.205547 -0.589267
vn -0.841500 0.144760 -0.520502
vn -0.942519 -0.002498 -0.334143
vn -0.966691 -0.064066 -0.247798
vn -0.978049 -0.206480 -0.028028
vn -0.966685 -0.251362 0.048343
vn -0.890520 -0.367491 0.268186
vn -0.864108 -0.390549 0.317474
vn -0.716686 -0.469715 0.515489
vn -0.695708 -0.476793 0.537270
vn -0.490038 -0.514839 0.703423
vn -0.486843 -0.515070 0.705469
vn -0.227393 -0.506821 0.831520
vn -0.248469 -0.509294 0.823943
vn -0.133437 0.962209 -0.237377
vn -0.133440 0.962207 -0.237383
vn -0.133424 0.962210 -0.237383
vn -0.133434 0.962204 -0.237401
vn -0.133431 0.962206 -0.237395
vn -0.133425 0.962213 -0.237371
vn -0.133430 0.962210 -0.237377
vn -0.133424 0.962210 -0.237383
vn -0.133416 0.962213 -0.237374
vn -0.133426 0.962211 -0.237375
vn -0.133416 0.962211 -0.237380
vn -0.133414 0.962213 -0.237376
vn -0.133423 0.962214 -0.237367
vn -0.133422 0.962210 -0.237382
vn -0.133419 0.962211 -0.237380
vn -0.133423 0.962210 -0.237381
vn -0.133427 0.962206 -0.237396
vn -0.133424 0.962208 -0.237391
vn -0.133416 0.962210 -0.237388
vn -0.133415 0.962209 -0.237390
vn -0.133424 0.962209 -0.237385
vn -0.686186 -0.429407 -0.587162
vn -0.882687 -0.310047 -0.353178
vn -0.845535 -0.341351 -0.410550
vn -0.650035 -0.442845 -0.617530
vn -0.988230 -0.138561 -0.064832
vn -0.971161 -0.188715 -0.145715
vn -0.969480 0.062027 0.237194
vn -0.988436 0.003133 0.151607
vn -0.829578 0.254027 0.497263
vn -0.879301 0.202929 0.430870
vn -0.609964 0.407873 0.679399
vn -0.668265 0.374669 0.642686
vn -0.357017 0.514662 0.779527
vn -0.403755 0.498748 0.766963
vn -0.099838 0.578502 0.809548
vn -0.125361 0.573861 0.809301
vn 0.148554 0.605828 0.781604
vn 0.145982 0.605714 0.782176
vn 0.382844 0.600276 0.702210
vn 0.400680 0.598446 0.693771
vn 0.598229 0.561273 0.571922
vn 0.630656 0.551602 0.545901
vn 0.784435 0.484245 0.387516
vn 0.820942 0.460658 0.337413
vn 0.920138 0.362777 0.147439
vn 0.944118 0.321413 0.073043
vn 0.971148 0.195299 -0.136860
vn 0.964752 0.139724 -0.223003
vn 0.903739 -0.003466 -0.428071
vn 0.862665 -0.059535 -0.502259
vn 0.715180 -0.199063 -0.669993
vn 0.656903 -0.240408 -0.714620
vn 0.444889 -0.355812 -0.821871
vn 0.393978 -0.377316 -0.838101
vn 0.143684 -0.456762 -0.877908
vn 0.115033 -0.463311 -0.878698
vn -0.155234 -0.501247 -0.851266
vn -0.157882 -0.501402 -0.850688
vn -0.436049 -0.492265 -0.753350
vn -0.415461 -0.494826 -0.763243
s 1
g pCylinder6
usemtl initialShadingGroup
f 193/193/193 194/194/194 214/195/195 213/196/196
f 194/194/194 195/197/197 215/198/198 214/195/195
f 195/197/197 196/199/199 216/200/200 215/198/198
f 196/199/199 197/201/201 217/202/202 216/200/200
f 197/201/201 198/203/203 218/204/204 217/202/202
f 198/203/203 199/205/205 219/256/206 218/204/204
f 199/257/205 200/207/207 220/208/208 219/206/206
f 200/207/207 201/209/209 221/210/210 220/208/208
f 201/209/209 202/211/211 222/212/212 221/210/210
f 202/211/211 203/213/213 223/214/214 222/212/212
f 203/213/213 204/215/215 224/216/216 223/214/214
f 204/215/215 205/217/217 225/218/218 224/216/216
f 205/217/217 206/219/219 226/220/220 225/218/218
f 206/219/219 207/221/221 227/222/222 226/220/220
f 207/221/221 208/223/223 228/224/224 227/222/222
f 208/223/223 209/225/225 229/226/226 228/224/224
f 209/225/225 210/227/227 230/228/228 229/226/226
f 210/227/227 211/229/229 231/230/230 230/228/228
f 211/229/229 212/231/231 232/232/232 231/230/230
f 212/231/231 193/193/193 213/196/196 232/232/232
s 2
f 194/194/233 193/193/234 233/233/235
f 195/197/236 194/194/233 233/233/235
f 196/199/237 195/197/236 233/233/235
f 197/201/238 196/199/237 233/233/235
f 198/203/239 197/201/238 233/233/235
f 199/205/240 198/203/239 233/233/235
f 200/207/241 199/257/240 233/233/235
f 201/209/242 200/207/241 233/233/235
f 202/211/243 201/209/242 233/233/235
f 203/213/244 202/211/243 233/233/235
f 204/215/245 203/213/244 233/233/235
f 205/217/246 204/215/245 233/233/235
f 206/219/247 205/217/246 233/233/235
f 207/221/248 206/219/247 233/233/235
f 208/223/249 207/221/248 233/233/235
f 209/225/250 208/223/249 233/233/235
f 210/227/251 209/225/250 233/233/235
f 211/229/252 210/227/251 233/233/235
f 212/231/253 211/229/252 233/233/235
f 193/193/234 212/231/253 233/233/235
s 3
f 234/234/254 235/235/255 236/236/256
f 235/235/255 237/237/257 236/236/256
f 237/237/257 238/238/258 236/236/256
f 238/238/258 239/239/259 236/236/256
f 239/239/259 240/240/260 236/236/256
f 240/240/260 241/255/261 236/236/256
f 241/241/261 242/242/262 236/236/256
f 242/242/262 243/243/263 236/236/256
f 243/243/263 244/244/264 236/236/256
f 244/244/264 245/245/265 236/236/256
f 245/245/265 246/246/266 236/236/256
f 246/246/266 247/247/267 236/236/256
f 247/247/267 248/248/268 236/236/256
f 248/248/268 249/249/269 236/236/256
f 249/249/269 250/250/270 236/236/256
f 250/250/270 251/251/271 236/236/256
f 251/251/271 252/252/272 236/236/256
f 252/252/272 253/253/273 236/236/256
f 253/253/273 254/254/274 236/236/256
f 254/254/274 234/234/254 236/236/256
s 1
f 213/196/196 214/195/195 235/235/275 234/234/276
f 214/195/195 215/198/198 237/237/277 235/235/275
f 215/198/198 216/200/200 238/238/278 237/237/277
f 216/200/200 217/202/202 239/239/279 238/238/278
f 217/202/202 218/204/204 240/240/280 239/239/279
f 218/204/204 219/256/206 241/255/281 240/240/280
f 219/206/206 220/208/208 242/242/282 241/241/281
f 220/208/208 221/210/210 243/243/283 242/242/282
f 221/210/210 222/212/212 244/244/284 243/243/283
f 222/212/212 223/214/214 245/245/285 244/244/284
f 223/214/214 224/216/216 246/246/286 245/245/285
f 224/216/216 225/218/218 247/247/287 246/246/286
f 225/218/218 226/220/220 248/248/288 247/247/287
f 226/220/220 227/222/222 249/249/289 248/248/288
f 227/222/222 228/224/224 250/250/290 249/249/289
f 228/224/224 229/226/226 251/251/291 250/250/290
f 229/226/226 230/228/228 252/252/292 251/251/291
f 230/228/228 231/230/230 253/253/293 252/252/292
f 231/230/230 232/232/232 254/254/294 253/253/293
f 232/232/232 213/196/196 234/234/276 254/254/294
s 4
f 275/258/295 276/259/296 277/260/297
f 276/259/296 278/261/298 277/260/297
f 278/261/298 279/262/299 277/260/297
f 279/262/299 280/263/300 277/260/297
f 280/263/300 281/264/301 277/260/297
f 281/264/301 282/265/302 277/260/297
f 282/265/302 283/266/303 277/260/297
f 283/266/303 284/267/304 277/260/297
f 284/267/304 285/268/305 277/260/297
f 285/268/305 286/269/306 277/260/297
f 286/269/306 287/270/307 277/260/297
f 287/270/307 288/271/308 277/260/297
f 288/271/308 289/272/309 277/260/297
f 289/272/309 290/273/310 277/260/297
f 290/273/310 291/274/311 277/260/297
f 291/274/311 292/275/312 277/260/297
f 292/276/312 293/277/313 277/260/297
f 293/277/313 294/278/314 277/260/297
f 294/278/314 295/279/315 277/260/297
f 295/279/315 275/258/295 277/260/297
s 5
f 255/280/316 256/281/317 276/259/318 275/258/319
f 256/281/317 257/282/320 278/261/321 276/259/318
f 257/282/320 258/283/322 279/262/323 278/261/321
f 258/283/322 259/284/324 280/263/325 279/262/323
f 259/284/324 260/285/326 281/264/327 280/263/325
f 260/285/326 261/286/328 282/265/329 281/264/327
f 261/286/328 262/287/330 283/266/331 282/265/329
f 262/287/330 263/288/332 284/267/333 283/266/331
f 263/288/332 264/289/334 285/268/335 284/267/333
f 264/289/334 265/290/336 286/269/337 285/268/335
f 265/290/336 266/291/338 287/270/339 286/269/337
f 266/291/338 267/292/340 288/271/341 287/270/339
f 267/292/340 268/293/342 289/272/343 288/271/341
f 268/293/342 269/294/344 290/273/345 289/272/343
f 269/294/344 270/295/346 291/274/347 290/273/345
f 270/295/346 271/296/348 292/275/349 291/274/347
f 271/297/348 272/298/350 293/277/351 292/276/349
f 272/298/350 273/299/352 294/278/353 293/277/351
f 273/299/352 274/300/354 295/279/355 294/278/353
f 274/300/354 255/280/316 275/258/319 295/279/355
s 6
f 316/301/356 317/302/357 318/303/358
f 317/302/357 319/304/359 318/303/358
f 319/304/359 320/305/360 318/303/358
f 320/305/360 321/306/361 318/303/358
f 321/306/361 322/307/362 318/303/358
f 322/307/362 323/308/363 318/303/358
f 323/308/363 324/309/364 318/303/358
f 324/309/364 325/310/365 318/303/358
f 325/310/365 326/311/366 318/303/358
f 326/311/366 327/312/367 318/303/358
f 327/312/367 328/313/368 318/303/358
f 328/313/368 329/314/369 318/303/358
f 329/314/369 330/315/370 318/303/358
f 330/315/370 331/316/371 318/303/358
f 331/316/371 332/317/372 318/303/358
f 332/317/372 333/318/373 318/303/358
f 333/318/373 334/319/374 318/303/358
f 334/319/374 335/320/375 318/303/358
f 335/320/375 336/321/376 318/303/358
f 336/321/376 316/301/356 318/303/358
s 7
f 296/322/377 297/323/378 317/302/379 316/301/380
f 297/323/378 298/324/381 319/304/382 317/302/379
f 298/324/381 299/325/383 320/305/384 319/304/382
f 299/325/383 300/326/385 321/306/386 320/305/384
f 300/326/385 301/327/387 322/307/388 321/306/386
f 301/327/387 302/328/389 323/308/390 322/307/388
f 302/328/389 303/329/391 324/309/392 323/308/390
f 303/329/391 304/330/393 325/310/394 324/309/392
f 304/330/393 305/331/395 326/311/396 325/310/394
f 305/331/395 306/332/397 327/312/398 326/311/396
f 306/332/397 307/333/399 328/313/400 327/312/398
f 307/333/399 308/334/401 329/314/402 328/313/400
f 308/334/401 309/335/403 330/315/404 329/314/402
f 309/335/403 310/336/405 331/316/406 330/315/404
f 310/336/405 311/337/407 332/317/408 331/316/406
f 311/338/407 312/339/409 333/340/410 332/341/408
f 312/339/409 313/342/411 334/343/412 333/340/410
f 313/342/411 314/344/413 335/320/414 334/343/412
f 314/344/413 315/345/415 336/321/416 335/320/414
f 315/345/415 296/322/377 316/301/380 336/321/416
s 8
f 357/346/417 358/347/418 359/348/419
f 358/347/418 360/349/420 359/348/419
f 360/349/420 361/350/421 359/348/419
f 361/350/421 362/351/422 359/348/419
f 362/351/422 363/352/423 359/348/419
f 363/352/423 364/353/424 359/348/419
f 364/353/424 365/354/425 359/348/419
f 365/354/425 366/355/426 359/348/419
f 366/355/426 367/356/427 359/348/419
f 367/356/427 368/357/428 359/348/419
f 368/357/428 369/358/429 359/348/419
f 369/358/429 370/359/430 359/348/419
f 370/359/430 371/360/431 359/348/419
f 371/360/431 372/361/432 359/348/419
f 372/361/432 373/362/433 359/348/419
f 373/362/433 374/363/434 359/348/419
f 374/363/434 375/364/435 359/348/419
f 375/364/435 376/365/436 359/348/419
f 376/365/436 377/366/437 359/348/419
f 377/366/437 357/346/417 359/348/419
s 9
f 337/367/438 338/368/439 358/347/440 357/346/441
f 338/368/439 339/369/442 360/349/443 358/347/440
f 339/369/442 340/370/444 361/350/445 360/349/443
f 340/370/444 341/371/446 362/351/447 361/350/445
f 341/371/446 342/372/448 363/352/449 362/351/447
f 342/372/448 343/373/450 364/353/451 363/352/449
f 343/373/450 344/374/452 365/354/453 364/353/451
f 344/374/452 345/375/454 366/355/455 365/354/453
f 345/375/454 346/376/456 367/356/457 366/355/455
f 346/376/456 347/377/458 368/357/459 367/356/457
f 347/377/458 348/378/460 369/358/461 368/357/459
f 348/378/460 349/379/462 370/359/463 369/358/461
f 349/379/462 350/380/464 371/360/465 370/359/463
f 350/380/464 351/381/466 372/361/467 371/360/465
f 351/381/466 352/382/468 373/362/469 372/361/467
f 352/383/468 353/384/470 374/385/471 373/386/469
f 353/384/470 354/387/472 375/388/473 374/385/471
f 354/387/472 355/389/474 376/365/475 375/388/473
f 355/389/474 356/390/476 377/366/477 376/365/475
f 356/390/476 337/367/438 357/346/441 377/366/477
