# This file uses centimeters as units for non-parametric coordinates.

mtllib cookbookitem.mtl
g default
v -0.332096 -0.126191 0.500000
v 0.332096 -0.126191 0.500000
v -0.332096 0.126191 0.500000
v 0.332096 0.126191 0.500000
v -0.332096 0.126191 -0.500000
v 0.332096 0.126191 -0.500000
v -0.332096 -0.126191 -0.500000
v 0.332096 -0.126191 -0.500000
v -0.349339 0.000000 0.500000
v -0.349339 0.000000 -0.500000
v 0.332096 0.000000 -0.500000
v 0.332096 0.000000 0.500000
v -0.338923 0.063096 -0.500000
v -0.338923 0.063096 0.500000
v 0.332096 0.063096 0.500000
v 0.332096 0.063096 -0.500000
v -0.338923 -0.063096 0.500000
v -0.338923 -0.063096 -0.500000
v 0.332096 -0.063096 -0.500000
v 0.332096 -0.063096 0.500000
v -0.332096 0.094643 -0.500000
v -0.332096 0.094643 0.500000
v 0.332096 0.094643 0.500000
v 0.332096 0.094643 -0.500000
v -0.332096 -0.094643 0.500000
v -0.332096 -0.094643 -0.500000
v 0.332096 -0.094643 -0.500000
v 0.332096 -0.094643 0.500000
v -0.332096 -0.126191 0.550000
v 0.365305 -0.126191 0.550000
v 0.365305 -0.094643 0.550000
v -0.332096 -0.094643 0.550000
v -0.332096 -0.094643 -0.550000
v 0.365305 -0.094643 -0.550000
v 0.365305 -0.126191 -0.550000
v -0.332096 -0.126191 -0.550000
v -0.332096 0.126191 -0.550000
v 0.365305 0.126191 -0.550000
v 0.365305 0.094643 -0.550000
v -0.332096 0.094643 -0.550000
v 0.365305 0.094643 0.550000
v 0.365305 0.126191 0.550000
v -0.332096 0.094643 0.550000
v -0.332096 0.126191 0.550000
v -0.365305 -0.126191 -0.500000
v -0.365305 -0.126191 0.500000
v -0.381743 -0.094643 0.500000
v -0.381743 -0.094643 -0.500000
v -0.381743 0.094643 -0.500000
v -0.381743 0.094643 0.500000
v -0.365305 0.126191 0.500000
v -0.365305 0.126191 -0.500000
v -0.392781 0.000000 0.500000
v -0.392781 0.000000 -0.500000
v -0.392781 0.063096 0.500000
v -0.392781 0.063096 -0.500000
v -0.392781 -0.063096 0.500000
v -0.392781 -0.063096 -0.500000
v -0.381743 -0.094643 0.550000
v -0.365305 -0.126191 0.550000
v -0.365305 0.126191 0.550000
v -0.381743 0.094643 0.550000
v -0.362946 0.000000 0.550000
v -0.348460 0.063096 0.550000
v -0.392781 0.063096 0.550000
v -0.392781 0.000000 0.550000
v -0.348460 -0.063096 0.550000
v -0.392781 -0.063096 0.550000
v -0.365305 -0.126191 -0.550000
v -0.381743 -0.094643 -0.550000
v -0.381743 0.094643 -0.550000
v -0.365305 0.126191 -0.550000
v -0.348460 0.063096 -0.550000
v -0.362946 0.000000 -0.550000
v -0.392781 0.000000 -0.550000
v -0.392781 0.063096 -0.550000
v -0.348460 -0.063096 -0.550000
v -0.392781 -0.063096 -0.550000
vt 0.034361 0.031161
vt 0.526017 0.001215
vt 0.512885 0.012556
vt 0.050484 0.035582
vt 0.120908 0.125627
vt 0.400122 0.121352
vt 0.447114 0.456904
vt 0.239073 0.558827
vt 0.230149 0.680943
vt 0.601145 0.518227
vt 0.617904 0.523647
vt 0.221228 0.694140
vt 0.197237 0.714880
vt 0.633774 0.519827
vt 0.542007 0.000008
vt 0.000000 0.029856
vt 0.196519 0.693580
vt 0.011461 0.047376
vt 0.022380 0.063307
vt 0.196355 0.674025
vt 0.223114 0.576284
vt 0.098721 0.118527
vt 0.110085 0.122708
vt 0.230629 0.566575
vt 0.245915 0.576085
vt 0.466098 0.468545
vt 0.479761 0.470887
vt 0.247368 0.588387
vt 0.422170 0.094878
vt 0.413473 0.104402
vt 0.111121 0.098065
vt 0.116758 0.108158
vt 0.207159 0.605429
vt 0.052668 0.096026
vt 0.088341 0.114420
vt 0.216714 0.585746
vt 0.081370 0.064675
vt 0.459572 0.065671
vt 0.440274 0.085336
vt 0.105282 0.078150
vt 0.531620 0.484891
vt 0.504341 0.473033
vt 0.251665 0.611902
vt 0.239192 0.636701
vt 0.197093 0.657123
vt 0.032234 0.076731
vt 0.559811 0.493950
vt 0.241875 0.656298
vt 0.481623 0.048815
vt 0.073155 0.048744
vt 0.430543 0.094770
vt 0.115616 0.085882
vt 0.490839 0.467624
vt 0.256476 0.599389
vt 0.574587 0.498778
vt 0.245153 0.663528
vt 0.493621 0.039890
vt 0.073400 0.042091
vt 0.033285 0.047791
vt 0.026826 0.036959
vt 0.214101 0.685794
vt 0.214261 0.672762
vt 0.106640 0.106718
vt 0.094963 0.100082
vt 0.233368 0.591856
vt 0.238516 0.579801
vt 0.056150 0.076259
vt 0.092314 0.086597
vt 0.082603 0.094577
vt 0.045859 0.070744
vt 0.237407 0.608702
vt 0.209847 0.639610
vt 0.210586 0.642398
vt 0.227250 0.603173
vt 0.051684 0.050762
vt 0.039461 0.057928
vt 0.225328 0.663716
vt 0.215915 0.660682
vt 0.213457 0.622656
vt 0.201162 0.628185
vt 0.062415 0.087947
vt 0.069533 0.113919
vt 0.562213 0.784805
vt 0.669482 0.419682
vt 0.804725 0.856052
vt 0.911993 0.490929
vt 0.774974 0.000000
vt 1.000000 0.306895
vt 0.571137 0.149460
vt 0.796163 0.456355
vn 0.000000 0.000000 1.000000
vn 0.000000 0.000000 1.000000
vn 0.000000 0.000000 1.000000
vn 0.000000 0.000000 1.000000
vn 0.000000 1.000000 0.000000
vn 0.000000 1.000000 0.000000
vn 0.000000 1.000000 -0.000000
vn 0.000000 1.000000 -0.000000
vn 0.000000 0.000000 -1.000000
vn 0.000000 0.000000 -1.000000
vn 0.000000 0.000000 -1.000000
vn 0.000000 0.000000 -1.000000
vn 0.000000 -1.000000 -0.000000
vn 0.000000 -1.000000 -0.000000
vn 0.000000 -1.000000 0.000000
vn 0.000000 -1.000000 0.000000
vn 1.000000 0.000000 0.000000
vn 1.000000 0.000000 0.000000
vn 1.000000 0.000000 0.000000
vn 1.000000 0.000000 0.000000
vn -0.886835 -0.462086 0.000000
vn -0.886835 -0.462086 0.000000
vn -0.916839 -0.399256 0.000000
vn -0.916839 -0.399256 0.000000
vn -0.916839 0.399256 0.000000
vn -0.916839 0.399256 0.000000
vn -0.886835 0.462086 0.000000
vn -0.886835 0.462086 0.000000
vn 0.000000 0.000000 -1.000000
vn 0.000000 0.000000 -1.000000
vn 0.000000 0.000000 -1.000000
vn 0.000000 0.000000 -1.000000
vn 1.000000 0.000000 0.000000
vn 1.000000 0.000000 0.000000
vn 1.000000 0.000000 0.000000
vn 1.000000 0.000000 0.000000
vn 0.000000 0.000000 1.000000
vn 0.000000 0.000000 1.000000
vn 0.000000 0.000000 1.000000
vn 0.000000 0.000000 1.000000
vn -1.000000 0.000000 0.000000
vn -1.000000 0.000000 0.000000
vn -0.993267 0.115845 0.000000
vn -0.993267 0.115845 0.000000
vn 0.000000 0.000000 1.000000
vn 0.000000 0.000000 1.000000
vn 0.000000 0.000000 1.000000
vn 0.000000 0.000000 1.000000
vn 1.000000 0.000000 0.000000
vn 1.000000 0.000000 0.000000
vn 1.000000 0.000000 0.000000
vn 1.000000 0.000000 0.000000
vn 0.000000 0.000000 -1.000000
vn 0.000000 0.000000 -1.000000
vn 0.000000 0.000000 -1.000000
vn 0.000000 0.000000 -1.000000
vn -0.993267 -0.115845 0.000000
vn -0.993267 -0.115845 0.000000
vn 0.000000 0.000000 -1.000000
vn 0.000000 0.000000 -1.000000
vn 1.000000 0.000000 0.000000
vn 1.000000 0.000000 0.000000
vn 0.000000 0.000000 1.000000
vn 0.000000 0.000000 1.000000
vn 0.000000 0.000000 1.000000
vn 0.000000 0.000000 1.000000
vn 1.000000 0.000000 0.000000
vn 1.000000 0.000000 0.000000
vn 0.000000 0.000000 -1.000000
vn 0.000000 0.000000 -1.000000
vn 0.000000 0.000000 -1.000000
vn 0.000000 0.000000 -1.000000
vn 1.000000 0.000000 0.000000
vn 1.000000 0.000000 0.000000
vn 0.000000 0.000000 1.000000
vn 0.000000 0.000000 1.000000
vn 0.000000 -1.000000 0.000000
vn 0.000000 -1.000000 0.000000
vn 0.000000 1.000000 0.000000
vn 0.000000 1.000000 0.000000
vn 0.000000 1.000000 0.000000
vn 0.000000 1.000000 0.000000
vn 0.000000 1.000000 0.000000
vn 0.000000 1.000000 0.000000
vn 0.000000 1.000000 0.000000
vn 0.000000 1.000000 0.000000
vn 0.000000 -1.000000 -0.000000
vn 0.000000 -1.000000 -0.000000
vn 0.000000 1.000000 -0.000000
vn 0.000000 1.000000 -0.000000
vn 0.000000 -1.000000 -0.000000
vn 0.000000 -1.000000 -0.000000
vn 0.000000 -1.000000 -0.000000
vn 0.000000 -1.000000 -0.000000
vn 0.000000 -1.000000 0.000000
vn 0.000000 -1.000000 0.000000
vn 0.000000 1.000000 0.000000
vn 0.000000 -1.000000 0.000000
vn 0.000000 -1.000000 0.000000
vn 0.000000 1.000000 0.000000
vn 0.000000 -1.000000 0.000000
vn 0.000000 -1.000000 0.000000
vn 0.000000 0.000000 1.000000
vn 0.000000 0.000000 1.000000
vn 0.000000 0.000000 1.000000
vn 0.000000 0.000000 1.000000
vn 0.000000 0.000000 -1.000000
vn 0.000000 0.000000 -1.000000
vn 0.000000 0.000000 -1.000000
vn 0.000000 0.000000 -1.000000
vn 0.000000 0.000000 1.000000
vn 0.000000 0.000000 1.000000
vn 0.000000 0.000000 1.000000
vn 0.000000 0.000000 1.000000
vn 0.000000 1.000000 0.000000
vn 0.000000 1.000000 0.000000
vn 0.000000 0.000000 -1.000000
vn 0.000000 0.000000 -1.000000
vn 0.000000 0.000000 -1.000000
vn 0.000000 0.000000 -1.000000
vn 0.000000 0.000000 1.000000
vn 0.000000 0.000000 1.000000
vn 0.000000 0.000000 1.000000
vn 0.000000 0.000000 1.000000
vn 0.000000 0.000000 -1.000000
vn 0.000000 0.000000 -1.000000
vn 0.000000 0.000000 -1.000000
vn 0.000000 0.000000 -1.000000
vn 0.000000 0.000000 1.000000
vn 0.000000 0.000000 1.000000
vn 0.000000 0.000000 -1.000000
vn 0.000000 0.000000 -1.000000
vn -0.886835 -0.462087 0.000000
vn -0.916839 -0.399256 0.000000
vn 0.000000 -1.000000 0.000000
vn 0.000000 -1.000000 0.000000
vn 0.000000 1.000000 0.000000
vn 0.000000 1.000000 0.000000
vn -0.916839 0.399256 0.000000
vn -0.886835 0.462087 0.000000
vn 0.974248 0.000000 0.225482
vn 0.953659 -0.243927 0.176167
vn 0.954092 -0.239468 0.179900
vn 0.974247 0.000000 0.225482
vn -1.000000 0.000000 0.000000
vn -0.993267 0.115844 0.000000
vn 0.953659 0.243927 0.176167
vn 0.954092 0.239468 0.179900
vn -0.993267 -0.115844 0.000000
vn 0.934868 -0.343616 0.089158
vn 0.934868 -0.343616 0.089158
vn 0.934868 0.343616 0.089158
vn 0.934868 0.343616 0.089158
vn 0.000000 -1.000000 0.000000
vn 0.000000 -1.000000 0.000000
vn -0.916839 -0.399256 0.000000
vn -0.886835 -0.462087 0.000000
vn -0.886835 0.462087 0.000000
vn -0.916839 0.399256 0.000000
vn 0.000000 1.000000 0.000000
vn 0.000000 1.000000 0.000000
vn 0.953659 -0.243927 -0.176167
vn 0.974248 0.000000 -0.225482
vn 0.974247 0.000000 -0.225482
vn 0.954092 -0.239468 -0.179900
vn -0.993267 0.115844 0.000000
vn -1.000000 0.000000 0.000000
vn 0.953659 0.243927 -0.176167
vn 0.954092 0.239468 -0.179900
vn -0.993267 -0.115844 0.000000
vn 0.934868 -0.343616 -0.089158
vn 0.934868 -0.343616 -0.089158
vn 0.934868 0.343616 -0.089158
vn 0.934868 0.343616 -0.089158
s off
g pCube1
usemtl initialShadingGroup
f 29/1/1 30/2/2 31/3/3 32/4/4
s 1
f 3/89/5 4/87/6 6/88/7 5/90/8
s off
f 33/9/9 34/10/10 35/11/11 36/12/12
s 2
f 7/85/13 8/83/14 2/84/15 1/86/16
s off
f 30/2/17 35/11/18 34/10/19 31/3/20
s 3
f 45/17/21 46/18/22 47/19/23 48/20/24
f 49/21/25 50/22/26 51/23/27 52/24/28
s off
f 37/25/29 38/26/30 39/27/31 40/28/32
f 41/29/33 39/27/34 38/26/35 42/30/36
f 43/31/37 41/29/38 42/30/39 44/32/40
s 3
f 54/33/41 53/82/42 55/35/43 56/36/44
s 6
f 9/37/45 12/38/46 15/39/47 14/40/48
s 7
f 12/38/49 11/41/50 16/42/51 15/39/52
s 8
f 13/43/53 16/42/54 11/41/55 10/44/56
s 3
f 58/45/57 57/46/58 53/34/42 54/80/41
s 8
f 10/44/56 11/41/55 19/47/59 18/48/60
s 7
f 20/49/61 19/47/62 11/41/50 12/38/49
s 6
f 17/50/63 20/49/64 12/38/46 9/37/45
s 3
f 56/36/44 55/35/43 50/22/26 49/21/25
s 6
f 14/40/48 15/39/47 23/51/65 22/52/66
s 7
f 15/39/52 16/42/51 24/53/67 23/51/68
s 8
f 21/54/69 24/53/70 16/42/54 13/43/53
s 3
f 48/20/24 47/19/23 57/46/58 58/45/57
s 8
f 18/48/60 19/47/59 27/55/71 26/56/72
s 7
f 28/57/73 27/55/74 19/47/62 20/49/61
s 6
f 25/58/75 28/57/76 20/49/64 17/50/63
s 2
f 1/16/16 2/15/15 30/2/77 29/1/78
s 9
f 28/57/79 25/58/80 32/4/81 31/3/82
f 26/56/83 27/55/84 34/10/85 33/9/86
s 2
f 8/14/14 7/13/13 36/12/87 35/11/88
f 2/15/15 8/14/14 35/11/88 30/2/77
s 9
f 27/55/84 28/57/79 31/3/82 34/10/85
s 1
f 5/8/8 6/7/7 38/26/89 37/25/90
s 10
f 24/53/91 21/54/92 40/28/93 39/27/94
f 23/51/95 24/53/91 39/27/94 41/29/96
s 1
f 6/7/7 4/6/6 42/30/97 38/26/89
s 10
f 22/52/98 23/51/95 41/29/96 43/31/99
s 1
f 4/6/6 3/5/5 44/32/100 42/30/97
s 2
f 7/13/13 1/16/16 46/18/101 45/17/102
s 11
f 29/1/103 32/4/104 59/59/105 60/60/106
s 12
f 33/9/107 36/12/108 69/61/109 70/62/110
s 11
f 43/31/111 44/32/112 61/63/113 62/64/114
s 1
f 3/5/5 5/8/8 52/24/115 51/23/116
s 12
f 37/25/117 40/28/118 71/65/119 72/66/120
s 11
f 63/67/121 64/68/122 65/69/123 66/81/124
s 12
f 73/71/125 74/72/126 75/79/127 76/74/128
s 11
f 67/75/129 63/67/121 66/70/124 68/76/130
s 12
f 74/72/126 77/77/131 78/78/132 75/73/127
s 11
f 64/68/122 43/31/111 62/64/114 65/69/123
s 12
f 40/28/118 73/71/125 76/74/128 71/65/119
s 11
f 32/4/104 67/75/129 68/76/130 59/59/105
s 12
f 77/77/131 33/9/107 70/62/110 78/78/132
s 3
f 47/19/23 46/18/22 60/60/133 59/59/134
s 2
f 46/18/101 1/16/16 29/1/135 60/60/136
s 1
f 3/5/5 51/23/116 61/63/137 44/32/138
s 3
f 51/23/27 50/22/26 62/64/139 61/63/140
s 16
f 9/37/141 14/40/142 64/68/143 63/67/144
s 3
f 55/35/43 53/82/42 66/81/145 65/69/146
s 16
f 17/50/147 9/37/141 63/67/144 67/75/148
s 3
f 53/34/42 57/46/58 68/76/149 66/70/145
s 16
f 14/40/142 22/52/150 43/31/151 64/68/143
s 3
f 50/22/26 55/35/43 65/69/146 62/64/139
s 16
f 25/58/152 17/50/147 67/75/148 32/4/153
s 3
f 57/46/58 47/19/23 59/59/134 68/76/149
s 2
f 7/13/13 45/17/102 69/61/154 36/12/155
s 3
f 45/17/21 48/20/24 70/62/156 69/61/157
f 49/21/25 52/24/28 72/66/158 71/65/159
s 1
f 52/24/115 5/8/8 37/25/160 72/66/161
s 17
f 13/43/162 10/44/163 74/72/164 73/71/165
s 3
f 54/33/41 56/36/44 76/74/166 75/79/167
s 17
f 10/44/163 18/48/168 77/77/169 74/72/164
s 3
f 58/45/57 54/80/41 75/73/167 78/78/170
s 17
f 21/54/171 13/43/162 73/71/165 40/28/172
s 3
f 56/36/44 49/21/25 71/65/159 76/74/166
s 17
f 18/48/168 26/56/173 33/9/174 77/77/169
s 3
f 48/20/24 58/45/57 78/78/170 70/62/156
