# Blender 5.2.1 LTS
# www.blender.org
mtllib KitchenFridgeBlender.mtl
o Fridge
v -2.256671 0.012022 0.902198
v -2.256671 6.378534 0.902198
v -2.256671 0.012022 -1.097802
v -2.256671 6.378534 -1.097802
v 2.240780 0.012022 0.902198
v 2.240780 6.378534 0.902198
v 2.240780 0.012022 -1.097802
v 2.240780 6.378534 -1.097802
v -2.256671 5.247291 0.902198
v -2.256671 5.247291 -1.097802
v 2.240780 5.247291 -1.097802
v 2.240780 5.247291 0.902198
v -2.256671 1.209707 -1.097802
v 2.240780 1.209707 -1.097802
v 2.240780 1.209707 0.902198
v -2.256671 1.209707 0.902198
v -2.165975 1.291129 0.902198
v -2.165975 5.165868 0.902198
v 2.150084 5.165868 0.902198
v 2.150084 1.291129 0.902198
v -2.165975 1.291129 -0.838253
v -2.165975 5.165868 -0.838253
v 2.150084 5.165868 -0.838253
v 2.150084 1.291129 -0.838253
vn -1.0000 -0.0000 -0.0000
vn -0.0000 -0.0000 -1.0000
vn 1.0000 -0.0000 -0.0000
vn -0.0000 -1.0000 -0.0000
vn -0.0000 1.0000 -0.0000
vn -0.0000 -0.0000 1.0000
vt 0.346680 0.385742
vt 0.346680 0.323242
vt 0.459961 0.323242
vt 0.459961 0.385742
vt 0.522461 0.323242
vt 0.459961 0.073242
vt 0.522461 0.073242
vt 0.459961 0.010742
vt 0.346680 0.073242
vt 0.346680 0.010742
vt 0.081055 0.331055
vt 0.081055 0.081055
vt 0.194336 0.081055
vt 0.194336 0.331055
vt 0.260742 0.331055
vt 0.260742 0.081055
vt 0.286133 0.321289
vt 0.284180 0.074219
vt 0.541992 0.311523
vt 0.729492 0.311523
vt 0.729492 0.405273
vt 0.541992 0.405273
vt 0.541992 0.108398
vt 0.729492 0.108398
vt 0.541992 0.014648
vt 0.729492 0.014648
vt 0.194336 0.397461
vt 0.081055 0.397461
vt 0.014648 0.331055
vt 0.014648 0.081055
vt 0.081055 0.014648
vt 0.194336 0.014648
vt 0.729492 0.409180
vt 0.541992 0.409180
vt 0.521484 0.704102
vt 0.372070 0.704102
vt 0.372070 0.634766
vt 0.521484 0.634766
vt 0.268555 0.321289
vt 0.268555 0.074219
vt 0.641602 0.462891
vt 0.641602 0.634766
vt 0.589844 0.634766
vt 0.589844 0.462891
vt 0.541992 0.010742
vt 0.729492 0.010742
vt 0.372070 0.462891
vt 0.521484 0.462891
vt 0.372070 0.393555
vt 0.521484 0.393555
vt 0.303711 0.634766
vt 0.303711 0.462891
s 0
usemtl Material
f 9/1/1 2/2/1 4/3/1 10/4/1
f 10/5/2 4/3/2 8/6/2 11/7/2
f 11/8/3 8/6/3 6/9/3 12/10/3
f 3/11/4 7/12/4 5/13/4 1/14/4
f 8/6/5 4/3/5 2/2/5 6/9/5
f 16/15/6 1/14/6 5/13/6 15/16/6
f 2/2/6 9/17/6 12/18/6 6/9/6
f 14/19/3 11/20/3 12/21/3 15/22/3
f 13/23/2 10/24/2 11/20/2 14/19/2
f 16/25/1 9/26/1 10/24/1 13/23/1
f 1/14/1 16/27/1 13/28/1 3/11/1
f 3/11/2 13/29/2 14/30/2 7/12/2
f 7/12/3 14/31/3 15/32/3 5/13/3
f 15/22/6 12/21/6 19/33/6 20/34/6
f 20/35/1 19/36/1 23/37/1 24/38/1
f 12/18/6 9/17/6 18/39/6 19/40/6
f 16/41/6 15/42/6 20/43/6 17/44/6
f 9/26/6 16/25/6 17/45/6 18/46/6
f 22/47/6 21/48/6 24/38/6 23/37/6
f 18/49/3 17/50/3 21/48/3 22/47/3
f 17/44/5 20/43/5 24/38/5 21/48/5
f 19/51/4 18/52/4 22/47/4 23/37/4
o FridgeDoor
v -2.166794 1.283806 0.902155
v -2.166794 5.167977 0.902155
v -2.166794 1.283806 1.047172
v -2.166794 5.167977 1.047172
v 2.154692 1.283806 0.902155
v 2.154692 5.167977 0.902155
v 2.154692 1.283806 1.047172
v 2.154692 5.167977 1.047172
v 0.015325 1.283806 1.047172
v 0.015325 5.167977 1.047172
v 0.015325 1.283806 0.902155
v 0.015325 5.167977 0.902155
v 0.000088 1.283806 1.047172
v 0.000088 5.167977 0.902155
v 0.000088 5.167977 1.047172
v 0.000088 1.283806 0.902155
v -2.120928 1.324900 0.891996
v -2.120928 5.126884 0.891996
v 2.109117 5.126884 0.891996
v 2.109117 1.324900 0.891996
v 0.015018 1.324900 0.891996
v 0.000104 5.126884 0.891996
v 0.015018 5.126884 0.891996
v 0.000104 1.324900 0.891996
v -2.120928 1.324900 0.766226
v -2.120928 5.126884 0.766226
v 2.109117 5.126884 0.766226
v 2.109117 1.324900 0.766226
v 0.015018 1.324900 0.766226
v 0.000104 5.126884 0.766226
v 0.015018 5.126884 0.766226
v 0.000104 1.324900 0.766226
vn 1.0000 -0.0000 -0.0000
vn -0.0000 -0.0000 -1.0000
vn -1.0000 -0.0000 -0.0000
vn 0.2163 -0.0000 0.9763
vn -0.0000 1.0000 -0.0000
vn -0.0000 -1.0000 -0.0000
vn -1.0000 -0.0000 -0.0015
vn -0.0000 0.2400 0.9708
vn -0.0000 -0.2400 0.9708
vn -0.2176 -0.0000 0.9760
vn 0.9995 -0.0000 -0.0302
vn -0.0000 -0.0000 1.0000
vt 0.710938 0.587891
vt 0.710938 0.956055
vt 0.693359 0.956055
vt 0.697266 0.587891
vt 0.568359 0.650391
vt 0.568359 0.853516
vt 0.679688 0.853516
vt 0.679688 0.650391
vt 0.834961 0.406250
vt 0.834961 0.956055
vt 0.812500 0.956055
vt 0.812500 0.406250
vt 0.719727 0.587891
vt 0.719727 0.956055
vt 0.994141 0.660156
vt 0.994141 0.960938
vt 0.976562 0.960938
vt 0.976562 0.660156
vt 0.777344 0.756836
vt 0.777344 0.956055
vt 0.763672 0.956055
vt 0.763672 0.756836
vt 0.892578 0.655273
vt 0.892578 0.957031
vt 0.866211 0.957031
vt 0.866211 0.655273
vt 0.759766 0.397461
vt 0.754883 0.756836
vt 0.754883 0.397461
vt 0.464844 0.986328
vt 0.668945 0.985352
vt 0.667969 0.870117
vt 0.463867 0.871094
vt 0.697266 0.406250
vt 0.710938 0.406250
vt 0.777344 0.397461
vt 0.918945 0.960938
vt 0.901367 0.960938
vt 0.901367 0.411133
vt 0.918945 0.411133
vt 0.732422 0.587891
vt 0.732422 0.956055
vt 0.972656 0.660156
vt 0.972656 0.960938
vt 0.954102 0.960938
vt 0.954102 0.660156
vt 0.719727 0.406250
vt 0.861328 0.957031
vt 0.861328 0.655273
vt 0.754883 0.956055
vt 0.803711 0.956055
vt 0.803711 0.406250
vt 0.923828 0.411133
vt 0.923828 0.960938
vt 0.849609 0.200195
vt 0.849609 0.394531
vt 0.743164 0.394531
vt 0.743164 0.200195
vt 0.969727 0.204102
vt 0.969727 0.394531
vt 0.858398 0.394531
vt 0.858398 0.204102
vt 0.742188 0.756836
vt 0.742188 0.397461
vt 0.945312 0.411133
vt 0.945312 0.960938
vt 0.742188 0.956055
vt 0.790039 0.956055
vt 0.790039 0.406250
vt 0.732422 0.406250
vt 0.843750 0.957031
vt 0.843750 0.655273
s 0
usemtl Material.002
f 25/53/7 26/54/7 28/55/7 27/56/7
f 33/57/8 34/58/8 32/59/8 31/60/8
f 31/61/9 32/62/9 30/63/9 29/64/9
f 26/54/10 25/53/10 41/65/10 42/66/10
f 33/67/11 31/68/11 29/69/11 35/70/11
f 39/71/12 28/72/12 26/73/12 38/74/12
f 32/75/12 34/76/12 36/77/12 30/78/12
f 40/79/13 38/74/13 46/80/13 48/81/13
f 27/82/8 28/83/8 39/84/8 37/85/8
f 27/56/11 37/86/11 40/87/11 25/53/11
f 37/88/9 39/71/9 38/74/9 40/79/9
f 36/89/7 34/90/7 33/91/7 35/92/7
f 42/66/7 41/65/7 49/93/7 50/94/7
f 45/95/11 44/96/11 52/97/11 53/98/11
f 35/70/14 29/69/14 44/96/14 45/95/14
f 25/53/14 40/87/14 48/99/14 41/65/14
f 30/78/15 36/77/15 47/100/15 43/101/15
f 38/74/15 26/73/15 42/102/15 46/80/15
f 29/64/16 30/63/16 43/103/16 44/104/16
f 36/89/17 35/92/17 45/105/17 47/106/17
f 56/107/18 54/108/18 50/109/18 49/110/18
f 52/111/18 51/112/18 55/113/18 53/114/18
f 48/81/9 46/80/9 54/115/9 56/116/9
f 47/106/7 45/105/7 53/117/7 55/118/7
f 46/80/12 42/102/12 50/119/12 54/115/12
f 44/104/9 43/103/9 51/120/9 52/121/9
f 41/65/11 48/99/11 56/122/11 49/93/11
f 43/101/12 47/100/12 55/123/12 51/124/12
o DoorHandles
v -0.420383 4.984599 1.316197
v -0.420383 4.984599 1.236134
v -0.310508 4.984599 1.316197
v -0.310508 4.984599 1.236134
v -0.420383 4.877046 1.316197
v -0.420383 4.877046 1.236134
v -0.310508 4.877046 1.236134
v -0.310508 4.877046 1.316197
v -0.420383 1.677869 1.236134
v -0.310508 1.677869 1.236134
v -0.310508 1.677869 1.316197
v -0.420383 1.677869 1.316197
v -0.420383 4.984599 1.043654
v -0.310508 4.984599 1.043654
v -0.420383 4.877046 1.043654
v -0.310508 4.877046 1.043654
v -0.420383 1.677869 1.316197
v -0.310508 1.677869 1.316197
v -0.310508 1.677869 1.236134
v -0.420383 1.677869 1.236134
v -0.420383 1.578967 1.316197
v -0.420383 1.578967 1.236134
v -0.310508 1.578967 1.316197
v -0.310508 1.578967 1.236134
v -0.420383 1.677869 1.236134
v -0.310508 1.677869 1.236134
v -0.310508 1.677869 1.316197
v -0.420383 1.677869 1.316197
v -0.420383 1.677869 1.043654
v -0.420383 1.578967 1.043654
v -0.310508 1.578967 1.043654
v -0.310508 1.677869 1.043654
v 0.289403 4.984599 1.316197
v 0.289403 4.984599 1.236134
v 0.399278 4.984599 1.316197
v 0.399278 4.984599 1.236134
v 0.289403 4.877046 1.316197
v 0.289403 4.877046 1.236134
v 0.399278 4.877046 1.236134
v 0.399278 4.877046 1.316197
v 0.289403 1.677869 1.236134
v 0.399278 1.677869 1.236134
v 0.399278 1.677869 1.316197
v 0.289403 1.677869 1.316197
v 0.289403 4.984599 1.043654
v 0.399278 4.984599 1.043654
v 0.289403 4.877046 1.043654
v 0.399278 4.877046 1.043654
v 0.289403 1.677869 1.316197
v 0.399278 1.677869 1.316197
v 0.399278 1.677869 1.236134
v 0.289403 1.677869 1.236134
v 0.289403 1.578967 1.316197
v 0.289403 1.578967 1.236134
v 0.399278 1.578967 1.316197
v 0.399278 1.578967 1.236134
v 0.289403 1.677869 1.236134
v 0.399278 1.677869 1.236134
v 0.399278 1.677869 1.316197
v 0.289403 1.677869 1.316197
v 0.289403 1.677869 1.043654
v 0.289403 1.578967 1.043654
v 0.399278 1.578967 1.043654
v 0.399278 1.677869 1.043654
vn -1.0000 -0.0000 -0.0000
vn 1.0000 -0.0000 -0.0000
vn -0.0000 -0.0000 1.0000
vn -0.0000 1.0000 -0.0000
vn -0.0000 -0.0000 -1.0000
vn -0.0000 -1.0000 -0.0000
vt 0.179688 0.786133
vt 0.179688 0.756836
vt 0.202148 0.756836
vt 0.201172 0.786133
vt 0.202148 0.698242
vt 0.202148 0.727539
vt 0.180664 0.727539
vt 0.180664 0.698242
vt 0.151367 0.727539
vt 0.151367 0.756836
vt 0.125977 0.441406
vt 0.125977 0.855469
vt 0.112305 0.855469
vt 0.112305 0.441406
vt 0.087891 0.441406
vt 0.087891 0.855469
vt 0.077148 0.855469
vt 0.077148 0.441406
vt 0.101562 0.441406
vt 0.101562 0.855469
vt 0.253906 0.757812
vt 0.253906 0.787109
vt 0.202148 0.665039
vt 0.254883 0.665039
vt 0.254883 0.699219
vt 0.253906 0.727539
vt 0.197266 0.855469
vt 0.197266 0.823242
vt 0.254883 0.823242
vt 0.254883 0.855469
vt 0.173828 0.855469
vt 0.173828 0.823242
vt 0.173828 0.793945
vt 0.197266 0.793945
vt 0.197266 0.884766
vt 0.254883 0.884766
vt 0.173828 0.884766
vt 0.144531 0.855469
vt 0.144531 0.823242
vt 0.197266 0.917969
vt 0.254883 0.917969
vt 0.254883 0.793945
vt 0.334961 0.661133
vt 0.334961 0.690430
vt 0.312500 0.690430
vt 0.313477 0.661133
vt 0.312500 0.749023
vt 0.312500 0.719727
vt 0.333984 0.719727
vt 0.333984 0.749023
vt 0.363281 0.720703
vt 0.363281 0.690430
vt 0.071289 0.440430
vt 0.071289 0.855469
vt 0.056641 0.855469
vt 0.056641 0.440430
vt 0.032227 0.440430
vt 0.032227 0.855469
vt 0.022461 0.855469
vt 0.022461 0.440430
vt 0.046875 0.440430
vt 0.046875 0.855469
vt 0.260742 0.689453
vt 0.260742 0.660156
vt 0.311523 0.782227
vt 0.259766 0.782227
vt 0.259766 0.748047
vt 0.260742 0.719727
vt 0.319336 0.853516
vt 0.319336 0.885742
vt 0.262695 0.885742
vt 0.262695 0.852539
vt 0.343750 0.853516
vt 0.343750 0.885742
vt 0.343750 0.915039
vt 0.319336 0.915039
vt 0.320312 0.824219
vt 0.262695 0.823242
vt 0.343750 0.824219
vt 0.373047 0.853516
vt 0.373047 0.885742
vt 0.320312 0.791016
vt 0.262695 0.791016
vt 0.262695 0.915039
s 0
usemtl Material.001
f 61/125/19 57/126/19 58/127/19 62/128/19
f 63/129/20 60/130/20 59/131/20 64/132/20
f 64/133/21 59/131/21 57/126/21 61/134/21
f 60/130/22 58/127/22 57/126/22 59/131/22
f 67/135/21 64/136/21 61/137/21 68/138/21
f 66/139/20 63/140/20 64/141/20 67/142/20
f 65/143/23 62/144/23 63/140/23 66/139/23
f 68/138/19 61/137/19 62/144/19 65/143/19
f 62/128/19 58/127/19 69/145/19 71/146/19
f 63/129/24 62/147/24 71/148/24 72/149/24
f 58/127/22 60/130/22 70/150/22 69/145/22
f 60/130/20 63/129/20 72/149/20 70/150/20
f 80/151/24 78/152/24 86/153/24 87/154/24
f 78/152/24 80/151/24 79/155/24 77/156/24
f 77/156/19 84/157/19 81/158/19 78/152/19
f 82/159/20 80/151/20 87/154/20 88/160/20
f 80/151/20 82/159/20 83/161/20 79/155/20
f 79/155/21 83/162/21 84/163/21 77/156/21
f 81/164/22 82/159/22 88/160/22 85/165/22
f 78/152/19 81/158/19 85/166/19 86/153/19
f 93/167/19 89/168/19 90/169/19 94/170/19
f 95/171/20 92/172/20 91/173/20 96/174/20
f 96/175/21 91/173/21 89/168/21 93/176/21
f 92/172/22 90/169/22 89/168/22 91/173/22
f 99/177/21 96/178/21 93/179/21 100/180/21
f 98/181/20 95/182/20 96/183/20 99/184/20
f 97/185/23 94/186/23 95/182/23 98/181/23
f 100/180/19 93/179/19 94/186/19 97/185/19
f 94/170/19 90/169/19 101/187/19 103/188/19
f 95/171/24 94/189/24 103/190/24 104/191/24
f 90/169/22 92/172/22 102/192/22 101/187/22
f 92/172/20 95/171/20 104/191/20 102/192/20
f 112/193/24 110/194/24 118/195/24 119/196/24
f 110/194/24 112/193/24 111/197/24 109/198/24
f 109/198/19 116/199/19 113/200/19 110/194/19
f 114/201/20 112/193/20 119/196/20 120/202/20
f 112/193/20 114/201/20 115/203/20 111/197/20
f 111/197/21 115/204/21 116/205/21 109/198/21
f 113/206/22 114/201/22 120/202/22 117/207/22
f 110/194/19 113/200/19 117/208/19 118/195/19
l 74 73
l 75 74
l 76 75
l 73 76
l 106 105
l 107 106
l 108 107
l 105 108
