# This file uses centimeters as units for non-parametric coordinates.

mtllib KitchenSink.mtl
g default
v 0.012015 0.235386 -0.100510
v 0.010000 0.235386 -0.104465
v 0.006861 0.235386 -0.107604
v 0.002906 0.235386 -0.109619
v -0.001479 0.235386 -0.110314
v -0.005863 0.235386 -0.109619
v -0.009819 0.235386 -0.107604
v -0.012958 0.235386 -0.104465
v -0.014973 0.235386 -0.100510
v -0.015668 0.235386 -0.096125
v -0.014973 0.235386 -0.091741
v -0.012958 0.235386 -0.087785
v -0.009819 0.235386 -0.084646
v -0.005863 0.235386 -0.082631
v -0.001479 0.235386 -0.081937
v 0.002906 0.235386 -0.082631
v 0.006861 0.235386 -0.084646
v 0.010000 0.235386 -0.087785
v 0.012015 0.235386 -0.091741
v 0.012710 0.235386 -0.096125
v 0.007089 0.297778 -0.081902
v 0.005809 0.299644 -0.083583
v 0.003816 0.301124 -0.084917
v 0.001305 0.302075 -0.085773
v -0.001479 0.302403 -0.086068
v -0.004263 0.302075 -0.085773
v -0.006774 0.301124 -0.084917
v -0.008767 0.299644 -0.083583
v -0.010047 0.297778 -0.081902
v -0.010487 0.295709 -0.080039
v -0.010047 0.293641 -0.078176
v -0.008767 0.291775 -0.076496
v -0.006774 0.290294 -0.075162
v -0.004263 0.289343 -0.074305
v -0.001479 0.289016 -0.074010
v 0.001305 0.289343 -0.074305
v 0.003816 0.290294 -0.075162
v 0.005809 0.291775 -0.076496
v 0.007089 0.293641 -0.078176
v 0.007530 0.295709 -0.080039
v -0.001479 0.235386 -0.096125
v 0.009655 0.266752 -0.099429
v 0.010170 0.265804 -0.095947
v 0.009544 0.264860 -0.092483
v 0.007839 0.264011 -0.089375
v 0.005222 0.263340 -0.086928
v 0.001950 0.262914 -0.085381
v -0.001659 0.262773 -0.084886
v -0.005250 0.262932 -0.085491
v -0.008471 0.263375 -0.087137
v -0.011009 0.264059 -0.089663
v -0.012613 0.264917 -0.092822
v -0.013128 0.265864 -0.096304
v -0.012502 0.266809 -0.099768
v -0.010797 0.267658 -0.102876
v -0.008180 0.268328 -0.105323
v -0.004908 0.268755 -0.106870
v -0.001299 0.268895 -0.107365
v 0.002292 0.268736 -0.106759
v 0.005514 0.268293 -0.105113
v 0.008051 0.267609 -0.102587
v 0.009053 0.273690 -0.098352
v 0.009595 0.272746 -0.095062
v 0.009053 0.271801 -0.091773
v 0.007480 0.270950 -0.088806
v 0.005030 0.270274 -0.086451
v 0.001943 0.269840 -0.084939
v -0.001479 0.269690 -0.084418
v -0.004901 0.269840 -0.084939
v -0.007988 0.270274 -0.086451
v -0.010438 0.270950 -0.088806
v -0.012011 0.271801 -0.091773
v -0.012553 0.272746 -0.095062
v -0.012011 0.273690 -0.098352
v -0.010438 0.274542 -0.101319
v -0.007988 0.275217 -0.103674
v -0.004901 0.275651 -0.105185
v -0.001479 0.275801 -0.105706
v 0.001943 0.275651 -0.105185
v 0.005030 0.275217 -0.103674
v 0.007480 0.274542 -0.101319
v 0.008540 0.280497 -0.096115
v 0.009055 0.279585 -0.092991
v 0.008540 0.278673 -0.089866
v 0.007043 0.277850 -0.087047
v 0.004713 0.277197 -0.084810
v 0.001776 0.276778 -0.083373
v -0.001479 0.276633 -0.082878
v -0.004734 0.276778 -0.083373
v -0.007671 0.277197 -0.084810
v -0.010001 0.277850 -0.087047
v -0.011498 0.278673 -0.089866
v -0.012013 0.279585 -0.092991
v -0.011498 0.280497 -0.096115
v -0.010001 0.281320 -0.098934
v -0.007671 0.281973 -0.101172
v -0.004734 0.282392 -0.102608
v -0.001479 0.282537 -0.103103
v 0.001776 0.282392 -0.102608
v 0.004713 0.281973 -0.101172
v 0.007043 0.281320 -0.098934
v 0.007997 0.287086 -0.092744
v 0.008485 0.285350 -0.090202
v 0.007997 0.283613 -0.087659
v 0.006582 0.282047 -0.085365
v 0.004378 0.280804 -0.083544
v 0.001600 0.280006 -0.082376
v -0.001479 0.279731 -0.081973
v -0.004558 0.280006 -0.082376
v -0.007336 0.280804 -0.083544
v -0.009540 0.282047 -0.085365
v -0.010955 0.283613 -0.087659
v -0.011443 0.285350 -0.090202
v -0.010955 0.287086 -0.092744
v -0.009540 0.288652 -0.095038
v -0.007336 0.289895 -0.096859
v -0.004558 0.290693 -0.098027
v -0.001479 0.290969 -0.098430
v 0.001600 0.290693 -0.098027
v 0.004378 0.289895 -0.096859
v 0.006582 0.288652 -0.095038
v 0.007568 0.293844 -0.086502
v 0.008034 0.291660 -0.084535
v 0.007568 0.289476 -0.082568
v 0.006217 0.287505 -0.080793
v 0.004113 0.285941 -0.079384
v 0.001461 0.284937 -0.078480
v -0.001479 0.284592 -0.078168
v -0.004419 0.284937 -0.078480
v -0.007070 0.285941 -0.079384
v -0.009175 0.287505 -0.080793
v -0.010526 0.289476 -0.082568
v -0.010992 0.291660 -0.084535
v -0.010526 0.293844 -0.086502
v -0.009175 0.295815 -0.088277
v -0.007070 0.297378 -0.089686
v -0.004419 0.298382 -0.090590
v -0.001479 0.298728 -0.090902
v 0.001461 0.298382 -0.090590
v 0.004113 0.297378 -0.089686
v 0.006217 0.295815 -0.088277
v 0.007089 0.301579 -0.072550
v 0.005809 0.304081 -0.072759
v 0.003816 0.306067 -0.072925
v 0.001305 0.307343 -0.073031
v -0.001479 0.307782 -0.073068
v -0.004263 0.307343 -0.073031
v -0.006774 0.306067 -0.072925
v -0.008767 0.304081 -0.072759
v -0.010047 0.301579 -0.072550
v -0.010487 0.298805 -0.072319
v -0.010047 0.296031 -0.072087
v -0.008767 0.293528 -0.071878
v -0.006774 0.291542 -0.071713
v -0.004263 0.290267 -0.071606
v -0.001479 0.289827 -0.071570
v 0.001305 0.290267 -0.071606
v 0.003816 0.291542 -0.071713
v 0.005809 0.293528 -0.071878
v 0.007089 0.296031 -0.072087
v 0.007530 0.298805 -0.072319
v 0.006777 0.301933 -0.061530
v 0.005540 0.304042 -0.060350
v 0.003617 0.305714 -0.059415
v 0.001199 0.306786 -0.058816
v -0.001479 0.307156 -0.058609
v -0.004157 0.306786 -0.058816
v -0.006575 0.305714 -0.059415
v -0.008497 0.304042 -0.060350
v -0.009735 0.301933 -0.061530
v -0.010167 0.299592 -0.062839
v -0.009747 0.297247 -0.064150
v -0.008517 0.295129 -0.065334
v -0.006594 0.293446 -0.066275
v -0.004169 0.292365 -0.066880
v -0.001479 0.291993 -0.067088
v 0.001211 0.292365 -0.066880
v 0.003637 0.293446 -0.066275
v 0.005559 0.295129 -0.065334
v 0.006789 0.297247 -0.064150
v 0.007209 0.299592 -0.062839
v 0.006777 0.295343 -0.051503
v 0.005540 0.296501 -0.049381
v 0.003617 0.297418 -0.047700
v 0.001199 0.298007 -0.046622
v -0.001479 0.298209 -0.046250
v -0.004157 0.298007 -0.046622
v -0.006575 0.297418 -0.047700
v -0.008497 0.296501 -0.049381
v -0.009735 0.295343 -0.051503
v -0.010167 0.294058 -0.053858
v -0.009747 0.292771 -0.056216
v -0.008517 0.291609 -0.058346
v -0.006594 0.290685 -0.060038
v -0.004169 0.290092 -0.061125
v -0.001479 0.289888 -0.061500
v 0.001211 0.290092 -0.061125
v 0.003637 0.290685 -0.060038
v 0.005559 0.291609 -0.058346
v 0.006789 0.292771 -0.056216
v 0.007209 0.294058 -0.053858
v 0.006434 0.286252 -0.046671
v 0.005242 0.287360 -0.044641
v -0.001479 0.285534 -0.048595
v 0.003398 0.288236 -0.043035
v 0.001083 0.288798 -0.042006
v -0.001479 0.288991 -0.041652
v -0.004041 0.288798 -0.042006
v -0.006356 0.288236 -0.043035
v -0.008200 0.287360 -0.044641
v -0.009392 0.286252 -0.046670
v -0.009812 0.285020 -0.048927
v -0.009417 0.283785 -0.051191
v -0.008240 0.282667 -0.053239
v -0.006396 0.281778 -0.054868
v -0.004066 0.281206 -0.055916
v -0.001479 0.281009 -0.056277
v 0.001108 0.281206 -0.055916
v 0.003439 0.281778 -0.054868
v 0.005282 0.282667 -0.053239
v 0.006459 0.283785 -0.051191
v 0.006855 0.285020 -0.048927
v -0.220857 0.212527 0.128837
v -0.208031 0.212527 0.128837
v -0.208031 0.235305 0.128837
v -0.220857 0.235305 0.128837
v -0.220857 0.212527 -0.128837
v -0.220857 0.235305 -0.128837
v -0.220857 0.043467 0.128837
v -0.208031 0.043467 0.128837
v 0.209147 0.212527 0.128837
v 0.209147 0.235305 0.128837
v -0.208030 0.235305 -0.128837
v -0.220103 0.235305 -0.157952
v -0.220103 0.212527 -0.157952
v -0.220857 0.043467 -0.128837
v -0.208031 0.212527 -0.128837
v -0.208031 0.043467 -0.128837
v -0.220857 0.033211 0.128837
v -0.208031 0.033211 0.128837
v -0.117723 0.235305 -0.081592
v 0.108470 0.235305 -0.081592
v 0.108470 0.235305 0.074485
v -0.117723 0.235305 0.074485
v 0.209147 0.235305 -0.128837
v -0.117723 0.212527 -0.081592
v -0.117723 0.212527 0.074485
v 0.108470 0.212527 0.074485
v 0.108470 0.212527 -0.081592
v 0.209147 0.212527 -0.128837
v 0.223282 0.212527 0.128837
v 0.223282 0.235305 0.128837
v -0.220103 0.277862 -0.134366
v -0.203974 0.212527 -0.157751
v -0.203974 0.235305 -0.157751
v -0.220857 0.033211 -0.128837
v 0.209147 0.041393 0.128837
v 0.209147 0.041393 -0.128837
v 0.209147 0.031305 0.128837
v -0.220857 0.000667 0.128837
v -0.208031 0.000667 0.128837
v -0.206851 0.277862 -0.134165
v 0.223282 0.235305 -0.129904
v 0.209173 0.212527 -0.152599
v 0.223282 0.041393 0.128837
v 0.234627 0.212527 0.128837
v 0.234627 0.235305 0.128837
v -0.220103 0.277862 -0.157952
v -0.206851 0.277862 -0.157751
v 0.209173 0.235305 -0.152599
v -0.208031 0.033211 -0.128837
v -0.220857 0.000667 -0.128837
v 0.209147 0.031305 -0.128837
v 0.223282 0.031305 0.128837
v -0.208031 0.000667 -0.128837
v 0.209173 0.277862 -0.129013
v 0.223282 0.277862 0.128837
v 0.223282 0.277862 -0.128837
v 0.223282 0.212527 -0.152423
v 0.223282 0.215185 -0.128837
v 0.223282 0.041393 -0.128837
v 0.234627 0.277862 0.128837
v 0.234627 0.212527 -0.128837
v 0.234627 0.235305 -0.128837
v 0.209173 0.277862 -0.152599
v 0.223282 0.235305 -0.152423
v 0.223282 0.031305 -0.128837
v 0.209147 0.000667 -0.128837
v 0.209147 0.000667 0.128837
v 0.223282 0.000667 0.128837
v 0.234627 0.277862 -0.128837
v 0.234627 0.212527 -0.152423
v 0.234627 0.235305 -0.152423
v 0.223282 0.277862 -0.152423
v 0.223282 0.000667 -0.128837
v 0.234627 0.277862 -0.152423
v -0.118192 0.128428 0.074485
v 0.108001 0.128428 0.074485
v -0.118192 0.237429 0.074485
v 0.108001 0.237429 0.074485
v -0.118192 0.237429 -0.081592
v 0.108001 0.237429 -0.081592
v -0.118192 0.128428 -0.081592
v 0.108001 0.128428 -0.081592
v -0.104374 0.237429 0.064950
v 0.094182 0.237429 0.064950
v 0.094182 0.237429 -0.072057
v -0.104374 0.237429 -0.072057
v -0.104374 0.141620 0.064950
v 0.094182 0.141620 0.064950
v 0.094182 0.141620 -0.072057
v -0.104374 0.141620 -0.072057
vt 0.191932 0.068223
vt 0.176999 0.054381
vt 0.124316 0.779684
vt 0.114668 0.778476
vt 0.158547 0.045789
vt 0.133755 0.780622
vt 0.138351 0.043254
vt 0.143095 0.781215
vt 0.118341 0.047010
vt 0.152392 0.781420
vt 0.100437 0.056721
vt 0.161716 0.781228
vt 0.086372 0.071481
vt 0.171137 0.780658
vt 0.077531 0.089910
vt 0.180723 0.779773
vt 0.074811 0.110228
vt 0.190589 0.778666
vt 0.078524 0.130470
vt 0.200825 0.777477
vt 0.088343 0.148615
vt 0.211551 0.776393
vt 0.103323 0.162846
vt 0.222816 0.775613
vt 0.121994 0.171710
vt 0.234624 0.775357
vt 0.142493 0.174311
vt 0.246874 0.775771
vt 0.162777 0.170371
vt 0.047873 0.774908
vt 0.180821 0.160319
vt 0.060046 0.774165
vt 0.194838 0.145166
vt 0.071917 0.774186
vt 0.203462 0.126469
vt 0.083339 0.774828
vt 0.205877 0.106082
vt 0.094245 0.775891
vt 0.201890 0.086023
vt 0.104665 0.777172
vt 0.140383 0.108469
vt 0.084977 0.196785
vt 0.408225 0.698969
vt 0.049698 0.177956
vt 0.400356 0.699808
vt 0.393119 0.699721
vt 0.386107 0.698619
vt 0.378910 0.696529
vt 0.371142 0.693583
vt 0.362450 0.690004
vt 0.352547 0.686111
vt 0.341246 0.682261
vt 0.328487 0.678845
vt 0.314376 0.676261
vt 0.299210 0.674841
vt 0.517386 0.692851
vt 0.500330 0.690552
vt 0.483445 0.689644
vt 0.467308 0.689979
vt 0.452401 0.691276
vt 0.439029 0.693188
vt 0.427289 0.695354
vt 0.116220 0.797846
vt 0.106331 0.797442
vt 0.096013 0.797077
vt 0.085276 0.796857
vt 0.074155 0.796902
vt 0.062758 0.797351
vt 0.051286 0.798348
vt 0.242943 0.799997
vt 0.231714 0.798658
vt 0.220663 0.797995
vt 0.209933 0.797793
vt 0.199607 0.797874
vt 0.189685 0.798094
vt 0.180129 0.798351
vt 0.170875 0.798574
vt 0.161835 0.798719
vt 0.152900 0.798763
vt 0.143963 0.798699
vt 0.134935 0.798515
vt 0.125724 0.798222
vt 0.116291 0.818305
vt 0.106463 0.818833
vt 0.096266 0.819374
vt 0.085775 0.819900
vt 0.075099 0.820414
vt 0.064415 0.820987
vt 0.053901 0.821771
vt 0.239299 0.823103
vt 0.229137 0.821674
vt 0.218960 0.820630
vt 0.208861 0.819775
vt 0.198947 0.819034
vt 0.189316 0.818391
vt 0.179952 0.817861
vt 0.170818 0.817463
vt 0.161844 0.817219
vt 0.152942 0.817140
vt 0.144022 0.817224
vt 0.134998 0.817463
vt 0.125784 0.817836
vt 0.114937 0.840673
vt 0.105006 0.838932
vt 0.094893 0.836973
vt 0.084667 0.834994
vt 0.074437 0.833281
vt 0.064397 0.832161
vt 0.054793 0.831904
vt 0.237608 0.832962
vt 0.228866 0.833684
vt 0.219463 0.835054
vt 0.209837 0.836793
vt 0.200193 0.838621
vt 0.190616 0.840323
vt 0.181134 0.841760
vt 0.171741 0.842850
vt 0.162403 0.843544
vt 0.153081 0.843823
vt 0.143722 0.843669
vt 0.134267 0.843087
vt 0.124684 0.842078
vt 0.106729 0.871568
vt 0.096297 0.866995
vt 0.086577 0.862183
vt 0.077547 0.857587
vt 0.069147 0.853658
vt 0.061296 0.850765
vt 0.053924 0.849102
vt 0.240698 0.849383
vt 0.233751 0.852402
vt 0.226151 0.856215
vt 0.217907 0.860657
vt 0.208947 0.865399
vt 0.199216 0.870043
vt 0.188720 0.874198
vt 0.177530 0.877517
vt 0.165791 0.879729
vt 0.153718 0.880658
vt 0.141542 0.880227
vt 0.129502 0.878463
vt 0.117834 0.875499
vt 0.433833 0.879660
vt 0.449633 0.866455
vt 0.463520 0.850914
vt 0.474531 0.834166
vt 0.481642 0.819169
vt 0.489166 0.811887
vt 0.492089 0.809431
vt 0.494783 0.810512
vt 0.265247 0.792693
vt 0.269311 0.809088
vt 0.276126 0.826741
vt 0.285428 0.844321
vt 0.296977 0.860675
vt 0.310584 0.874933
vt 0.326044 0.886451
vt 0.343054 0.894703
vt 0.361169 0.899292
vt 0.379849 0.899999
vt 0.398525 0.896815
vt 0.416665 0.889924
vt 0.406539 0.824455
vt 0.419246 0.823607
vt 0.394357 0.824520
vt 0.382572 0.823946
vt 0.371042 0.822793
vt 0.359606 0.821084
vt 0.348114 0.818766
vt 0.336449 0.815772
vt 0.324533 0.811938
vt 0.312412 0.807091
vt 0.300384 0.801093
vt 0.289168 0.794022
vt 0.279975 0.786373
vt 0.497052 0.802302
vt 0.489320 0.803393
vt 0.482396 0.806468
vt 0.470722 0.809877
vt 0.459224 0.814490
vt 0.446059 0.818719
vt 0.432498 0.821764
vt 0.402847 0.776466
vt 0.412379 0.778427
vt 0.393915 0.774826
vt 0.385330 0.773487
vt 0.376908 0.772416
vt 0.368452 0.771584
vt 0.359813 0.771003
vt 0.350777 0.770664
vt 0.341135 0.770555
vt 0.330649 0.770585
vt 0.319156 0.770528
vt 0.306739 0.770065
vt 0.294026 0.769042
vt 0.498435 0.790287
vt 0.487256 0.788246
vt 0.474527 0.787165
vt 0.460952 0.786295
vt 0.447241 0.784955
vt 0.434383 0.782962
vt 0.422795 0.780663
vt 0.405678 0.732368
vt 0.414315 0.735117
vt 0.397566 0.730135
vt 0.389730 0.728407
vt 0.381964 0.727168
vt 0.374089 0.726429
vt 0.365936 0.726211
vt 0.357322 0.726547
vt 0.348047 0.727461
vt 0.337868 0.728932
vt 0.326525 0.730870
vt 0.313806 0.733059
vt 0.299732 0.735244
vt 0.507913 0.760080
vt 0.491799 0.756898
vt 0.475821 0.753606
vt 0.460557 0.749985
vt 0.446671 0.746060
vt 0.434455 0.742097
vt 0.423786 0.738383
vt 0.089958 0.185066
vt 0.417097 0.697394
vt 0.091090 0.172406
vt 0.088164 0.160029
vt 0.081557 0.149134
vt 0.071782 0.140797
vt 0.059987 0.135840
vt 0.047240 0.134738
vt 0.034894 0.137620
vt 0.024152 0.144186
vt 0.015965 0.153785
vt 0.011045 0.165508
vt 0.009957 0.178213
vt 0.012799 0.190636
vt 0.019323 0.201546
vt 0.028833 0.209875
vt 0.040466 0.214812
vt 0.053066 0.215886
vt 0.065493 0.213001
vt 0.076520 0.206420
vt 0.105587 0.696625
vt 0.115335 0.697519
vt 0.095077 0.695491
vt 0.083677 0.694274
vt 0.071326 0.693185
vt 0.058037 0.692472
vt 0.043896 0.692386
vt 0.258326 0.693268
vt 0.243394 0.692059
vt 0.229009 0.691718
vt 0.215347 0.692041
vt 0.202530 0.692817
vt 0.190616 0.693845
vt 0.179594 0.694964
vt 0.169386 0.696038
vt 0.159855 0.696969
vt 0.150823 0.697681
vt 0.142083 0.698123
vt 0.133410 0.698252
vt 0.124567 0.698050
vt 0.284658 0.737259
vt 0.283469 0.674791
vt 0.282155 0.768120
vt 0.273236 0.778602
vt 0.248133 0.863113
vt 0.047052 0.848613
vt 0.046075 0.832574
vt 0.043598 0.823032
vt 0.039931 0.799997
vt 0.035603 0.776496
vt 0.029070 0.693120
vt 0.083704 0.888377
vt 0.095136 0.895315
vt 0.074178 0.881196
vt 0.066499 0.874458
vt 0.060420 0.868806
vt 0.055436 0.864725
vt 0.050822 0.862371
vt 0.045530 0.861303
vt 0.263269 0.779093
vt 0.242458 0.866951
vt 0.236739 0.871943
vt 0.230018 0.878122
vt 0.221712 0.885055
vt 0.211519 0.892109
vt 0.199435 0.898606
vt 0.185660 0.903927
vt 0.170561 0.907555
vt 0.154688 0.909158
vt 0.138635 0.908594
vt 0.123002 0.905906
vt 0.108348 0.901342
vt 0.669747 0.399521
vt 0.680735 0.396209
vt 0.680118 0.416609
vt 0.668460 0.419216
vt 0.650064 0.420747
vt 0.672956 0.599437
vt 0.653416 0.600311
vt 0.594785 0.186826
vt 0.588109 0.067766
vt 0.597960 0.067205
vt 0.604563 0.186390
vt 0.976249 0.396215
vt 0.979318 0.415692
vt 0.685565 0.597346
vt 0.871523 0.926966
vt 0.871641 0.945908
vt 0.847343 0.945921
vt 0.849205 0.922377
vt 0.412172 0.192788
vt 0.411175 0.075435
vt 0.220393 0.186660
vt 0.227676 0.068924
vt 0.404134 0.075432
vt 0.403082 0.192787
vt 0.583214 0.057205
vt 0.593988 0.057164
vt 0.597560 0.067268
vt 0.990556 0.398685
vt 0.989376 0.417087
vt 0.854642 0.893132
vt 0.835895 0.921584
vt 0.843802 0.891841
vt 0.834038 0.945894
vt 0.413845 0.065785
vt 0.331151 0.210003
vt 0.621736 0.209054
vt 0.622020 0.389036
vt 0.331574 0.389210
vt 0.330863 0.582627
vt 0.330929 0.574779
vt 0.622467 0.575447
vt 0.622434 0.583160
vt 0.577244 0.032479
vt 0.590083 0.031340
vt 0.985086 0.598463
vt 0.975270 0.596164
vt 0.494588 0.922400
vt 0.492982 0.898004
vt 0.988825 0.187234
vt 0.806574 0.193308
vt 0.804793 0.076062
vt 0.981175 0.068596
vt 0.610758 0.181969
vt 0.620371 0.065607
vt 0.631105 0.066515
vt 0.621509 0.182669
vt 0.024195 0.954987
vt 0.213557 0.947801
vt 0.208434 0.959015
vt 0.016317 0.972345
vt 0.847332 0.981029
vt 0.836420 0.981032
vt 0.492787 0.945960
vt 0.402770 0.075971
vt 0.402625 0.069843
vt 0.417968 0.041991
vt 0.622066 0.395425
vt 0.331604 0.395607
vt 0.621645 0.058203
vt 0.632468 0.059796
vt 0.183764 0.035001
vt 0.188401 0.007357
vt 0.406849 0.040399
vt 0.417567 0.034108
vt 0.576082 0.024466
vt 0.959387 0.599615
vt 0.962272 0.650196
vt 0.678416 0.695912
vt 0.668303 0.628996
vt 0.796773 0.194750
vt 0.796281 0.074112
vt 0.975354 0.600299
vt 0.965292 0.662064
vt 0.451918 0.922875
vt 0.451782 0.945440
vt 0.273417 0.637186
vt 0.287126 0.641295
vt 0.285225 0.663152
vt 0.271114 0.666347
vt 0.492835 0.981240
vt 0.481057 0.945830
vt 0.482905 0.923094
vt 0.796751 0.067858
vt 0.805459 0.068225
vt 0.987434 0.042815
vt 0.807523 0.068386
vt 0.804776 0.047363
vt 0.984059 0.021463
vt 0.625548 0.037027
vt 0.637191 0.039689
vt 0.652585 0.672401
vt 0.651360 0.691817
vt 0.678092 0.708733
vt 0.452658 0.984266
vt 0.212529 0.987840
vt 0.473516 0.923804
vt 0.471585 0.945729
vt 0.481287 0.981717
vt 0.797775 0.048687
vt 0.798968 0.043994
vt 0.639342 0.030852
vt 0.664179 0.697037
vt 0.667017 0.700865
vt 0.472046 0.982303
vt 0.290152 0.602981
vt 0.279091 0.595150
vt 0.249472 0.639959
vt 0.248889 0.594256
vt 0.652739 0.635384
vt 0.481160 0.899976
vt 0.451717 0.911515
vt 0.211599 0.914369
vt 0.471691 0.902104
vt 0.748058 0.564120
vt 0.905338 0.563585
vt 0.907176 0.453844
vt 0.745125 0.454241
vt 0.682106 0.212436
vt 0.973705 0.213488
vt 0.745182 0.245651
vt 0.744818 0.355570
vt 0.902807 0.355958
vt 0.903178 0.246110
vt 0.085916 0.585395
vt 0.224568 0.585143
vt 0.224689 0.651959
vt 0.086037 0.652210
vt 0.092807 0.266869
vt 0.214438 0.265872
vt 0.215127 0.349800
vt 0.093495 0.350797
vt 0.085622 0.422907
vt 0.224273 0.422655
vt 0.224394 0.489471
vt 0.085743 0.489722
vt 0.291210 0.489350
vt 0.291383 0.585022
vt 0.019101 0.585516
vt 0.018927 0.489844
vt 0.216229 0.657819
vt 0.094519 0.658040
vt 0.299691 0.495179
vt 0.299844 0.579162
vt 0.094082 0.417046
vt 0.215792 0.416826
vt 0.010619 0.579686
vt 0.010467 0.495704
vt 0.092325 0.208178
vt 0.213957 0.207181
vt 0.273129 0.265390
vt 0.273818 0.349318
vt 0.215608 0.408491
vt 0.093976 0.409488
vt 0.034804 0.351279
vt 0.034116 0.267351
vn 0.950350 0.082168 -0.300139
vn 0.808701 0.083050 -0.582328
vn 0.801469 0.096878 -0.590137
vn 0.945514 0.089035 -0.313170
vn 0.587916 0.085009 -0.804443
vn 0.581443 0.104079 -0.806903
vn 0.311519 0.086809 -0.946267
vn 0.308336 0.109133 -0.944997
vn 0.006438 0.087524 -0.996142
vn 0.007858 0.111014 -0.993788
vn -0.299252 0.086815 -0.950216
vn -0.293319 0.109341 -0.949741
vn -0.577430 0.085019 -0.812001
vn -0.568486 0.104453 -0.816035
vn -0.801056 0.083055 -0.592800
vn -0.791835 0.097350 -0.602927
vn -0.946363 0.082162 -0.312483
vn -0.940256 0.089516 -0.328489
vn -0.996513 0.083435 0.000807
vn -0.996411 0.082569 -0.018663
vn -0.945558 0.087308 0.313524
vn -0.952419 0.077765 0.294704
vn -0.800400 0.093196 0.592178
vn -0.812374 0.075544 0.578223
vn -0.578987 0.099563 0.809235
vn -0.591894 0.075378 0.802483
vn -0.305581 0.104465 0.946418
vn -0.314684 0.076073 0.946143
vn -0.006109 0.106311 0.994314
vn -0.008221 0.076467 0.997038
vn 0.293875 0.104488 0.950116
vn 0.299017 0.076057 0.951212
vn 0.568839 0.099602 0.816396
vn 0.578531 0.075311 0.812176
vn 0.792834 0.093240 0.602263
vn 0.802690 0.075381 0.591614
vn 0.941453 0.087347 0.325635
vn 0.947438 0.077473 0.310417
vn 0.996417 0.083458 0.013723
vn 0.996617 0.082157 -0.002296
vn 0.000000 -1.000000 0.000000
vn 0.000000 -1.000000 0.000000
vn 0.000000 -1.000000 0.000001
vn 0.000000 -1.000000 0.000000
vn 0.000000 -1.000000 -0.000000
vn 0.000000 -1.000000 -0.000000
vn 0.000000 -1.000000 0.000000
vn 0.000000 -1.000000 0.000000
vn 0.000000 -1.000000 0.000000
vn 0.000000 -1.000000 0.000000
vn 0.000000 -1.000000 0.000000
vn 0.000000 -1.000000 0.000000
vn 0.000000 -1.000000 0.000000
vn 0.000000 -1.000000 0.000004
vn 0.000000 -1.000000 0.000003
vn 0.000000 -1.000000 -0.000001
vn 0.000000 -1.000000 0.000004
vn 0.000000 -1.000000 0.000004
vn 0.000000 -1.000000 0.000000
vn 0.000000 -1.000000 0.000000
vn 0.000000 -1.000000 0.000000
vn -0.034115 -0.882443 0.469181
vn -0.029629 -0.887420 0.460008
vn -0.000000 -0.878303 0.478104
vn -0.021899 -0.891531 0.452430
vn -0.011651 -0.894236 0.447444
vn 0.000002 -0.895184 0.445698
vn 0.011653 -0.894230 0.447456
vn 0.021898 -0.891527 0.452438
vn 0.029630 -0.887420 0.460009
vn 0.034115 -0.882449 0.469170
vn 0.035060 -0.877176 0.478888
vn 0.032616 -0.872124 0.488196
vn 0.027210 -0.867753 0.496251
vn 0.019476 -0.864396 0.502435
vn 0.010136 -0.862295 0.506305
vn -0.000010 -0.861579 0.507624
vn -0.010140 -0.862294 0.506307
vn -0.019469 -0.864394 0.502438
vn -0.027212 -0.867748 0.496259
vn -0.032619 -0.872122 0.488200
vn -0.035061 -0.877173 0.478893
vn 0.947924 0.144689 -0.283733
vn 0.996885 0.077014 0.017017
vn 0.947997 0.009510 0.318139
vn 0.805884 -0.051192 0.589856
vn 0.584545 -0.099191 0.805276
vn 0.305840 -0.129896 0.943180
vn -0.002832 -0.140403 0.990090
vn -0.311224 -0.129734 0.941440
vn -0.589114 -0.098872 0.801978
vn -0.809196 -0.050730 0.585345
vn -0.949742 0.010089 0.312870
vn -0.996913 0.077661 0.011514
vn -0.946251 0.145342 -0.288937
vn -0.803083 0.206429 -0.558967
vn -0.581801 0.254885 -0.772361
vn -0.304212 0.285938 -0.908677
vn 0.002730 0.296556 -0.955011
vn 0.309397 0.285700 -0.907000
vn 0.586208 0.254446 -0.769167
vn 0.806283 0.205846 -0.554559
vn 0.943848 0.187646 -0.271919
vn 0.996551 0.081242 0.016908
vn 0.950818 -0.022461 0.308935
vn 0.810547 -0.112610 0.574745
vn 0.589617 -0.181033 0.787133
vn 0.310159 -0.223125 0.924130
vn 0.000000 -0.237242 0.971451
vn -0.310159 -0.223125 0.924130
vn -0.589616 -0.181033 0.787134
vn -0.810547 -0.112610 0.574745
vn -0.950818 -0.022461 0.308935
vn -0.996551 0.081242 0.016908
vn -0.943848 0.187646 -0.271918
vn -0.799179 0.285042 -0.529210
vn -0.578147 0.362807 -0.730833
vn -0.303034 0.412794 -0.858936
vn -0.000000 0.430018 -0.902820
vn 0.303033 0.412794 -0.858936
vn 0.578147 0.362807 -0.730833
vn 0.799179 0.285042 -0.529211
vn 0.941783 0.236931 -0.238554
vn 0.997386 0.070279 0.016768
vn 0.956283 -0.100234 0.274730
vn 0.820409 -0.258463 0.510025
vn 0.600822 -0.388096 0.698852
vn 0.317740 -0.473850 0.821284
vn -0.000000 -0.503960 0.863727
vn -0.317740 -0.473850 0.821284
vn -0.600822 -0.388095 0.698853
vn -0.820409 -0.258463 0.510026
vn -0.956283 -0.100234 0.274730
vn -0.997386 0.070280 0.016767
vn -0.941783 0.236931 -0.238554
vn -0.796372 0.384615 -0.466759
vn -0.576007 0.500290 -0.646472
vn -0.301993 0.573907 -0.761203
vn 0.000000 0.599172 -0.800621
vn 0.301991 0.573908 -0.761204
vn 0.576006 0.500291 -0.646472
vn 0.796371 0.384615 -0.466759
vn 0.945999 0.266031 -0.185242
vn 0.997868 0.053103 0.037931
vn 0.951529 -0.161932 0.261479
vn 0.811000 -0.357588 0.463043
vn 0.590003 -0.513954 0.622694
vn 0.310419 -0.614862 0.724973
vn -0.000000 -0.649732 0.760164
vn -0.310419 -0.614862 0.724973
vn -0.590003 -0.513954 0.622694
vn -0.811000 -0.357588 0.463044
vn -0.951529 -0.161932 0.261479
vn -0.997868 0.053104 0.037930
vn -0.945998 0.266031 -0.185242
vn -0.801961 0.456096 -0.385791
vn -0.580842 0.605422 -0.544139
vn -0.304710 0.700514 -0.645316
vn -0.000000 0.733139 -0.680079
vn 0.304708 0.700514 -0.645316
vn 0.580841 0.605422 -0.544140
vn 0.801961 0.456097 -0.385791
vn 0.947769 0.284418 -0.144365
vn 0.996543 0.055601 0.061736
vn 0.947769 -0.173207 0.267830
vn 0.806222 -0.379626 0.453752
vn 0.585752 -0.543447 0.601299
vn 0.307950 -0.648621 0.696029
vn 0.000000 -0.684863 0.728672
vn -0.307950 -0.648621 0.696030
vn -0.585752 -0.543447 0.601299
vn -0.806222 -0.379626 0.453751
vn -0.947769 -0.173207 0.267831
vn -0.996543 0.055602 0.061736
vn -0.947768 0.284418 -0.144365
vn -0.806220 0.490834 -0.330290
vn -0.585742 0.654655 -0.477843
vn -0.307946 0.759824 -0.572570
vn -0.000001 0.796066 -0.605210
vn 0.307946 0.759825 -0.572569
vn 0.585742 0.654655 -0.477842
vn 0.806220 0.490834 -0.330290
vn 0.880716 0.438496 -0.179056
vn 0.880716 0.438496 -0.179056
vn 0.784007 0.611039 -0.109386
vn 0.938451 0.340456 -0.058316
vn 0.687799 0.671374 -0.276025
vn 0.687799 0.671374 -0.276025
vn 0.560149 0.815730 -0.144284
vn 0.434759 0.832411 -0.343624
vn 0.434759 0.832410 -0.343624
vn 0.291133 0.942425 -0.164551
vn 0.148438 0.913848 -0.377953
vn 0.148438 0.913848 -0.377953
vn 0.000000 0.985238 -0.171192
vn -0.148438 0.913848 -0.377952
vn -0.148438 0.913848 -0.377952
vn -0.291133 0.942425 -0.164551
vn -0.434759 0.832410 -0.343624
vn -0.434759 0.832410 -0.343624
vn -0.560150 0.815729 -0.144284
vn -0.687799 0.671373 -0.276026
vn -0.687799 0.671373 -0.276026
vn -0.784007 0.611038 -0.109387
vn -0.880716 0.438496 -0.179056
vn -0.880716 0.438496 -0.179057
vn -0.938450 0.340457 -0.058317
vn -0.986312 0.152885 -0.061760
vn -0.986312 0.152885 -0.061760
vn -0.999613 0.025810 0.010354
vn -0.986306 -0.153274 0.060882
vn -0.986306 -0.153274 0.060882
vn -0.949759 -0.297818 0.096244
vn -0.880624 -0.441885 0.170994
vn -0.880624 -0.441885 0.170994
vn -0.788801 -0.583293 0.193809
vn -0.687361 -0.680729 0.253265
vn -0.687361 -0.680729 0.253265
vn -0.546093 -0.786436 0.288618
vn -0.433975 -0.849495 0.300041
vn -0.433975 -0.849495 0.300041
vn -0.271941 -0.892935 0.358769
vn -0.147939 -0.937025 0.316384
vn -0.147939 -0.937025 0.316384
vn -0.000000 -0.923051 0.384677
vn 0.147938 -0.937025 0.316384
vn 0.147938 -0.937025 0.316384
vn 0.271941 -0.892935 0.358771
vn 0.433974 -0.849493 0.300047
vn 0.433973 -0.849493 0.300047
vn 0.546093 -0.786436 0.288621
vn 0.687361 -0.680729 0.253265
vn 0.687361 -0.680729 0.253265
vn 0.788801 -0.583293 0.193810
vn 0.880624 -0.441886 0.170994
vn 0.880624 -0.441886 0.170994
vn 0.949759 -0.297818 0.096244
vn 0.986307 -0.153274 0.060882
vn 0.986306 -0.153274 0.060882
vn 0.999613 0.025810 0.010355
vn 0.986313 0.152884 -0.061760
vn 0.986313 0.152884 -0.061760
vn 0.758877 0.650897 0.020938
vn 0.921850 0.387157 0.017356
vn 0.535586 0.843932 0.030451
vn 0.276098 0.960352 0.038644
vn 0.000000 0.999128 0.041755
vn -0.276098 0.960352 0.038644
vn -0.535586 0.843931 0.030450
vn -0.758877 0.650897 0.020936
vn -0.921850 0.387158 0.017355
vn -0.997096 0.069481 0.031168
vn -0.960281 -0.268291 0.076681
vn -0.803183 -0.572882 0.163411
vn -0.552508 -0.785338 0.279248
vn -0.270179 -0.884188 0.381070
vn -0.000000 -0.906972 0.421191
vn 0.270180 -0.884188 0.381070
vn 0.552508 -0.785337 0.279252
vn 0.803182 -0.572883 0.163413
vn 0.960281 -0.268291 0.076682
vn 0.997096 0.069480 0.031169
vn 0.878521 0.396298 0.266739
vn 0.878521 0.396298 0.266739
vn 0.792930 0.412871 0.448107
vn 0.941343 0.225884 0.250700
vn 0.685603 0.596891 0.416737
vn 0.685603 0.596891 0.416737
vn 0.571088 0.558026 0.602051
vn 0.433564 0.733311 0.523715
vn 0.433564 0.733311 0.523715
vn 0.298398 0.649550 0.699316
vn 0.148059 0.801851 0.578890
vn 0.148059 0.801851 0.578890
vn -0.000001 0.680754 0.732512
vn -0.148059 0.801851 0.578890
vn -0.148059 0.801851 0.578890
vn -0.298400 0.649549 0.699316
vn -0.433564 0.733311 0.523715
vn -0.433564 0.733311 0.523715
vn -0.571085 0.558028 0.602053
vn -0.685603 0.596891 0.416737
vn -0.685603 0.596891 0.416737
vn -0.792928 0.412873 0.448108
vn -0.878520 0.396298 0.266740
vn -0.878520 0.396298 0.266740
vn -0.941342 0.225886 0.250700
vn -0.985604 0.142547 0.090918
vn -0.985604 0.142547 0.090918
vn -0.999490 0.013918 0.028730
vn -0.986187 -0.142551 -0.084351
vn -0.986187 -0.142551 -0.084351
vn -0.959540 -0.202821 -0.195314
vn -0.875397 -0.426096 -0.228305
vn -0.875397 -0.426096 -0.228305
vn -0.823802 -0.403033 -0.398642
vn -0.671501 -0.669355 -0.317884
vn -0.671501 -0.669355 -0.317884
vn -0.629042 -0.505894 -0.590235
vn -0.412873 -0.839790 -0.352546
vn -0.412873 -0.839790 -0.352546
vn -0.412873 -0.839790 -0.352546
vn -0.412873 -0.839790 -0.352546
vn -0.137752 -0.924016 -0.356677
vn -0.137752 -0.924016 -0.356677
vn -0.137752 -0.924016 -0.356677
vn -0.137752 -0.924016 -0.356677
vn 0.137752 -0.924016 -0.356677
vn 0.137752 -0.924016 -0.356677
vn 0.137752 -0.924016 -0.356677
vn 0.137752 -0.924016 -0.356677
vn 0.412874 -0.839789 -0.352547
vn 0.412874 -0.839789 -0.352547
vn 0.412874 -0.839789 -0.352547
vn 0.412874 -0.839789 -0.352547
vn 0.671501 -0.669355 -0.317884
vn 0.671501 -0.669355 -0.317884
vn 0.823800 -0.403034 -0.398643
vn 0.629053 -0.505887 -0.590230
vn 0.875395 -0.426099 -0.228305
vn 0.875395 -0.426099 -0.228305
vn 0.959538 -0.202824 -0.195317
vn 0.986187 -0.142551 -0.084351
vn 0.986187 -0.142551 -0.084351
vn 0.999490 0.013918 0.028730
vn 0.985604 0.142545 0.090918
vn 0.985604 0.142545 0.090918
vn 0.806710 0.251182 0.534909
vn 0.949401 0.118705 0.290768
vn 0.585572 0.356070 0.728230
vn 0.307659 0.423299 0.852153
vn -0.000004 0.446440 0.894814
vn -0.307664 0.423296 0.852153
vn -0.585565 0.356072 0.728236
vn -0.806705 0.251187 0.534913
vn -0.949401 0.118709 0.290769
vn -0.999403 -0.028504 0.019529
vn -0.951496 -0.176067 -0.252301
vn -0.810113 -0.309444 -0.497957
vn -0.588971 -0.415460 -0.693185
vn -0.309774 -0.483598 -0.818641
vn -0.309771 -0.483599 -0.818642
vn -0.000013 -0.507086 -0.861895
vn -0.000012 -0.507086 -0.861895
vn 0.309771 -0.483592 -0.818646
vn 0.309768 -0.483592 -0.818647
vn 0.588985 -0.415452 -0.693178
vn 0.810112 -0.309445 -0.497957
vn 0.951494 -0.176071 -0.252307
vn 0.999403 -0.028506 0.019528
vn 0.000000 0.000000 1.000000
vn 0.000000 0.000000 1.000000
vn 0.000000 0.000000 1.000000
vn 0.000000 0.000000 1.000000
vn -1.000000 0.000000 0.000000
vn -1.000000 0.000000 0.000000
vn -1.000000 0.000000 0.000000
vn -1.000000 0.000000 0.000000
vn 0.000000 0.000000 1.000000
vn 0.000000 0.000000 1.000000
vn 0.000000 0.000000 1.000000
vn 0.000000 0.000000 1.000000
vn 0.000000 0.000000 1.000000
vn 0.000000 0.000000 1.000000
vn 0.000000 1.000000 -0.000000
vn 0.000000 1.000000 -0.000000
vn 0.000000 1.000000 0.000000
vn 0.000000 1.000000 0.000000
vn -0.999665 0.000000 -0.025866
vn -0.999665 0.000000 -0.025866
vn -0.999665 0.000000 -0.025866
vn -0.999665 0.000000 -0.025866
vn -1.000000 0.000000 0.000000
vn -1.000000 0.000000 0.000000
vn -1.000000 0.000000 0.000000
vn -1.000000 0.000000 0.000000
vn 1.000000 0.000000 0.000000
vn 1.000000 0.000000 0.000000
vn 1.000000 0.000000 0.000000
vn 1.000000 0.000000 0.000000
vn 0.000000 0.000000 1.000000
vn 0.000000 0.000000 1.000000
vn 0.000000 0.000000 1.000000
vn 0.000000 0.000000 1.000000
vn 0.000000 -1.000000 0.000000
vn 0.000000 -1.000000 0.000000
vn 0.000000 -1.000000 0.000000
vn 0.000000 -1.000000 0.000000
vn 0.012471 0.000000 -0.999922
vn 0.012470 0.000000 -0.999922
vn 0.012470 0.000000 -0.999922
vn 0.012471 0.000000 -0.999922
vn 0.000000 0.000000 -1.000000
vn 0.000000 0.000000 -1.000000
vn 0.000000 0.000000 -1.000000
vn 0.000000 0.000000 -1.000000
vn -1.000000 0.000000 0.000000
vn -1.000000 0.000000 0.000000
vn 0.004970 0.999988 0.000000
vn 0.004970 0.999988 0.000000
vn 0.004970 0.999988 0.000000
vn 0.004970 0.999988 0.000000
vn 0.000000 0.000000 1.000000
vn 0.000000 0.000000 1.000000
vn 0.000000 0.000000 1.000000
vn 0.000000 0.000000 1.000000
vn 0.000000 0.000000 1.000000
vn 0.000000 0.000000 1.000000
vn 0.000000 1.000000 -0.000000
vn 0.000000 1.000000 0.000000
vn 0.000000 1.000000 0.000000
vn 0.000000 1.000000 -0.000000
vn 0.002741 -0.999995 0.001642
vn 0.002776 -0.999995 0.001663
vn -1.000000 0.000000 0.000000
vn -1.000000 0.000000 0.000000
vn -1.000000 0.000000 0.000000
vn -1.000000 0.000000 0.000000
vn 0.000000 0.000000 1.000000
vn 0.000000 0.000000 1.000000
vn 0.000000 0.000000 1.000000
vn 0.000000 0.000000 1.000000
vn 0.000000 0.000000 1.000000
vn 0.000000 0.000000 1.000000
vn 0.000000 0.000000 1.000000
vn 0.000000 0.000000 1.000000
vn 0.013692 0.000463 -0.999906
vn 0.013692 0.000463 -0.999906
vn 0.012474 0.000422 -0.999922
vn 0.012467 0.000422 -0.999922
vn 0.012470 0.000000 -0.999922
vn 0.012470 0.000000 -0.999922
vn 0.000000 0.000000 -1.000000
vn 0.000000 0.000000 -1.000000
vn -1.000000 0.000000 0.000000
vn -1.000000 0.000000 0.000000
vn 0.000000 0.000000 -1.000000
vn 0.000000 0.000000 -1.000000
vn 0.000000 0.000000 -1.000000
vn 0.000000 0.000000 -1.000000
vn -0.004569 -0.999990 0.000000
vn -0.004569 -0.999990 0.000000
vn -0.004569 -0.999990 0.000000
vn -0.004569 -0.999990 0.000000
vn 0.000000 0.000000 1.000000
vn 0.000000 0.000000 1.000000
vn 1.000000 0.000000 0.000000
vn 1.000000 0.000000 0.000000
vn 1.000000 0.000000 0.000000
vn 1.000000 0.000000 0.000000
vn 0.000000 -1.000000 0.000000
vn 0.000000 -1.000000 0.000000
vn 0.000000 -1.000000 0.000000
vn 0.000000 -1.000000 0.000000
vn -1.000000 0.000000 0.000000
vn -1.000000 0.000000 0.000000
vn -1.000000 0.000000 0.000000
vn -1.000000 0.000000 0.000000
vn 0.000000 0.000000 -1.000000
vn 0.000000 0.000000 -1.000000
vn 0.000000 0.000000 -1.000000
vn 0.000000 0.000000 -1.000000
vn 1.000000 0.000000 0.000000
vn 1.000000 0.000000 0.000000
vn 1.000000 0.000000 0.000000
vn 1.000000 0.000000 0.000000
vn 0.000000 0.000000 1.000000
vn 0.000000 0.000000 1.000000
vn 0.000000 0.000000 1.000000
vn 0.000000 0.000000 1.000000
vn 1.000000 0.000000 0.000000
vn 1.000000 0.000000 0.000000
vn 1.000000 0.000000 0.000000
vn 1.000000 0.000000 0.000000
vn 0.000000 1.000000 0.000000
vn 0.000000 1.000000 0.000000
vn 0.000000 1.000000 0.000000
vn 0.000000 1.000000 0.000000
vn 0.012428 0.000406 -0.999923
vn 0.012428 0.000406 -0.999923
vn 0.012471 0.000000 -0.999922
vn 0.012471 0.000000 -0.999922
vn 0.000000 0.000000 -1.000000
vn 0.000000 0.000000 -1.000000
vn 0.000000 0.000000 -1.000000
vn 0.000000 0.000000 -1.000000
vn -1.000000 0.000000 0.000000
vn -1.000000 0.000000 0.000000
vn -1.000000 0.000000 0.000000
vn -1.000000 0.000000 0.000000
vn 1.000000 0.000000 0.000000
vn 1.000000 0.000000 0.000000
vn 0.000000 0.000000 1.000000
vn 0.000000 0.000000 1.000000
vn 0.000000 1.000000 0.000000
vn 0.000000 1.000000 0.000000
vn 0.000000 1.000000 0.000000
vn 0.000000 1.000000 0.000000
vn 0.000000 1.000000 0.000000
vn 0.000000 1.000000 0.000000
vn 1.000000 0.000000 0.000000
vn 1.000000 0.000000 0.000000
vn 1.000000 0.000000 0.000000
vn 1.000000 0.000000 0.000000
vn 1.000000 0.000000 0.000000
vn 1.000000 0.000000 0.000000
vn 1.000000 0.000000 0.000000
vn 1.000000 0.000000 0.000000
vn 0.012471 0.000000 -0.999922
vn 0.012471 0.000000 -0.999922
vn 0.000000 0.000000 -1.000000
vn 0.000000 0.000000 -1.000000
vn 0.000000 0.000000 -1.000000
vn 0.000000 0.000000 -1.000000
vn 0.000000 0.000000 -1.000000
vn 0.000000 0.000000 -1.000000
vn 0.000000 -1.000000 0.000000
vn 0.000000 -1.000000 0.000000
vn 0.000000 -1.000000 0.000000
vn 0.000000 -1.000000 0.000000
vn 1.000000 0.000000 0.000000
vn 1.000000 0.000000 0.000000
vn 0.000000 1.000000 0.000000
vn 0.000000 1.000000 0.000000
vn 0.000000 1.000000 0.000000
vn 0.000000 1.000000 0.000000
vn 0.000000 1.000000 0.000000
vn 0.000000 1.000000 0.000000
vn 1.000000 0.000000 0.000000
vn 1.000000 0.000000 0.000000
vn 1.000000 0.000000 0.000000
vn 1.000000 0.000000 0.000000
vn 0.000000 0.000000 -1.000000
vn 0.000000 0.000000 -1.000000
vn 0.000000 0.000000 -1.000000
vn 0.000000 0.000000 -1.000000
vn -0.006218 0.066585 0.997761
vn -0.006215 0.066460 0.997770
vn -0.007650 0.126709 0.991910
vn -0.007650 0.126709 0.991910
vn -0.999867 0.007922 -0.014293
vn -0.999866 0.007922 -0.014293
vn -0.999867 0.007922 -0.014293
vn -0.999866 0.007922 -0.014293
vn -0.004938 0.062171 0.998053
vn -0.004936 0.062167 0.998054
vn 0.093180 -0.994082 0.055841
vn 0.093180 -0.994082 0.055841
vn -0.116313 -0.993199 -0.005121
vn -0.116313 -0.993199 -0.005121
vn -0.116313 -0.993199 -0.005121
vn -0.116313 -0.993199 -0.005121
vn 0.031544 -0.010477 0.999447
vn 0.031544 -0.010477 0.999447
vn -0.116133 -0.991662 0.055861
vn -0.116133 -0.991662 0.055861
vn -0.116133 -0.991662 0.055861
vn -0.116133 -0.991662 0.055861
vn 0.000000 1.000000 0.000000
vn 0.000000 1.000000 0.000000
vn 0.000000 1.000000 0.000000
vn 0.000000 1.000000 0.000000
vn 0.000000 -1.000000 0.000000
vn 0.000000 -1.000000 0.000000
vn 0.000000 -1.000000 0.000000
vn 0.000000 -1.000000 0.000000
vn 0.000000 -1.000000 0.000000
vn 0.000000 -1.000000 0.000000
vn 0.000000 -1.000000 0.000000
vn 0.000000 -1.000000 0.000000
vn 0.000000 0.000000 1.000000
vn 0.000000 0.000000 1.000000
vn 0.000000 0.000000 1.000000
vn 0.000000 0.000000 1.000000
vn 0.000000 1.000000 0.000000
vn 0.000000 1.000000 0.000000
vn 0.000000 1.000000 0.000000
vn 0.000000 1.000000 0.000000
vn 0.000000 0.000000 -1.000000
vn 0.000000 0.000000 -1.000000
vn 0.000000 0.000000 -1.000000
vn 0.000000 0.000000 -1.000000
vn 0.000000 -1.000000 0.000000
vn 0.000000 -1.000000 0.000000
vn 0.000000 -1.000000 0.000000
vn 0.000000 -1.000000 0.000000
vn 1.000000 0.000000 0.000000
vn 1.000000 0.000000 0.000000
vn 1.000000 0.000000 0.000000
vn 1.000000 0.000000 0.000000
vn -1.000000 0.000000 0.000000
vn -1.000000 0.000000 0.000000
vn -1.000000 0.000000 0.000000
vn -1.000000 0.000000 0.000000
vn 0.000000 1.000000 0.000003
vn 0.000000 1.000000 0.000003
vn 0.000000 1.000000 0.000003
vn 0.000000 1.000000 0.000003
vn 0.000000 1.000000 0.000000
vn 0.000000 1.000000 0.000000
vn 0.000000 1.000000 0.000000
vn 0.000000 1.000000 0.000000
vn 0.000000 1.000000 -0.000003
vn 0.000000 1.000000 -0.000003
vn 0.000000 1.000000 -0.000003
vn 0.000000 1.000000 -0.000003
vn 0.000000 1.000000 0.000000
vn 0.000000 1.000000 0.000000
vn 0.000000 1.000000 0.000000
vn 0.000000 1.000000 0.000000
vn 0.000000 0.000000 -1.000000
vn 0.000000 0.000000 -1.000000
vn 0.000000 0.000000 -1.000000
vn 0.000000 0.000000 -1.000000
vn -1.000000 0.000000 0.000000
vn -1.000000 0.000000 0.000000
vn -1.000000 0.000000 0.000000
vn -1.000000 0.000000 0.000000
vn 0.000000 0.000000 1.000000
vn 0.000000 0.000000 1.000000
vn 0.000000 0.000000 1.000000
vn 0.000000 0.000000 1.000000
vn 1.000000 0.000000 0.000000
vn 1.000000 0.000000 0.000000
vn 1.000000 0.000000 0.000000
vn 1.000000 0.000000 0.000000
s 1
g KitchenSink
usemtl initialShadingGroup
f 1/244/1 2/262/2 61/3/3 42/4/4
f 2/262/2 3/261/5 60/6/6 61/3/3
f 3/261/5 4/260/7 59/8/8 60/6/6
f 4/260/7 5/259/9 58/10/10 59/8/8
f 5/259/9 6/258/11 57/12/12 58/10/10
f 6/258/11 7/257/13 56/14/14 57/12/12
f 7/257/13 8/256/15 55/16/16 56/14/14
f 8/256/15 9/255/17 54/18/18 55/16/16
f 9/255/17 10/254/19 53/20/20 54/18/18
f 10/254/19 11/253/21 52/22/22 53/20/20
f 11/253/21 12/252/23 51/24/24 52/22/22
f 12/252/23 13/251/25 50/26/26 51/24/24
f 13/251/25 14/250/27 49/28/28 50/26/26
f 14/273/27 15/249/29 48/30/30 49/272/28
f 15/249/29 16/248/31 47/32/32 48/30/30
f 16/248/31 17/247/33 46/34/34 47/32/32
f 17/247/33 18/246/35 45/36/36 46/34/34
f 18/246/35 19/245/37 44/38/38 45/36/36
f 19/245/37 20/243/39 43/40/40 44/38/38
f 20/243/39 1/244/1 42/4/4 43/40/40
s 2
f 2/2/41 1/1/42 41/41/43
f 3/5/44 2/2/41 41/41/43
f 4/7/45 3/5/44 41/41/43
f 5/9/46 4/7/45 41/41/43
f 6/11/47 5/9/46 41/41/43
f 7/13/48 6/11/47 41/41/43
f 8/15/49 7/13/48 41/41/43
f 9/17/50 8/15/49 41/41/43
f 10/19/51 9/17/50 41/41/43
f 11/21/52 10/19/51 41/41/43
f 12/23/53 11/21/52 41/41/43
f 13/25/54 12/23/53 41/41/43
f 14/27/55 13/25/54 41/41/43
f 15/29/56 14/27/55 41/41/43
f 16/31/57 15/29/56 41/41/43
f 17/33/58 16/31/57 41/41/43
f 18/35/59 17/33/58 41/41/43
f 19/37/60 18/35/59 41/41/43
f 20/39/61 19/37/60 41/41/43
f 1/1/42 20/39/61 41/41/43
s 3
f 202/42/62 203/242/63 204/44/64
f 203/242/63 205/241/65 204/44/64
f 205/241/65 206/240/66 204/44/64
f 206/240/66 207/239/67 204/44/64
f 207/239/67 208/238/68 204/44/64
f 208/238/68 209/237/69 204/44/64
f 209/237/69 210/236/70 204/44/64
f 210/236/70 211/235/71 204/44/64
f 211/235/71 212/234/72 204/44/64
f 212/234/72 213/233/73 204/44/64
f 213/233/73 214/232/74 204/44/64
f 214/232/74 215/231/75 204/44/64
f 215/231/75 216/230/76 204/44/64
f 216/230/76 217/229/77 204/44/64
f 217/229/77 218/228/78 204/44/64
f 218/228/78 219/227/79 204/44/64
f 219/227/79 220/226/80 204/44/64
f 220/226/80 221/225/81 204/44/64
f 221/225/81 222/223/82 204/44/64
f 222/223/82 202/42/62 204/44/64
s 1
f 43/40/40 42/4/4 62/63/83 63/64/84
f 44/38/38 43/40/40 63/64/84 64/65/85
f 45/36/36 44/38/38 64/65/85 65/66/86
f 46/34/34 45/36/36 65/66/86 66/67/87
f 47/32/32 46/34/34 66/67/87 67/68/88
f 48/30/30 47/32/32 67/68/88 68/69/89
f 49/272/28 48/30/30 68/69/89 69/271/90
f 50/26/26 49/28/28 69/70/90 70/71/91
f 51/24/24 50/26/26 70/71/91 71/72/92
f 52/22/22 51/24/24 71/72/92 72/73/93
f 53/20/20 52/22/22 72/73/93 73/74/94
f 54/18/18 53/20/20 73/74/94 74/75/95
f 55/16/16 54/18/18 74/75/95 75/76/96
f 56/14/14 55/16/16 75/76/96 76/77/97
f 57/12/12 56/14/14 76/77/97 77/78/98
f 58/10/10 57/12/12 77/78/98 78/79/99
f 59/8/8 58/10/10 78/79/99 79/80/100
f 60/6/6 59/8/8 79/80/100 80/81/101
f 61/3/3 60/6/6 80/81/101 81/82/102
f 42/4/4 61/3/3 81/82/102 62/63/83
f 63/64/84 62/63/83 82/83/103 83/84/104
f 64/65/85 63/64/84 83/84/104 84/85/105
f 65/66/86 64/65/85 84/85/105 85/86/106
f 66/67/87 65/66/86 85/86/106 86/87/107
f 67/68/88 66/67/87 86/87/107 87/88/108
f 68/69/89 67/68/88 87/88/108 88/89/109
f 69/271/90 68/69/89 88/89/109 89/270/110
f 70/71/91 69/70/90 89/90/110 90/91/111
f 71/72/92 70/71/91 90/91/111 91/92/112
f 72/73/93 71/72/92 91/92/112 92/93/113
f 73/74/94 72/73/93 92/93/113 93/94/114
f 74/75/95 73/74/94 93/94/114 94/95/115
f 75/76/96 74/75/95 94/95/115 95/96/116
f 76/77/97 75/76/96 95/96/116 96/97/117
f 77/78/98 76/77/97 96/97/117 97/98/118
f 78/79/99 77/78/98 97/98/118 98/99/119
f 79/80/100 78/79/99 98/99/119 99/100/120
f 80/81/101 79/80/100 99/100/120 100/101/121
f 81/82/102 80/81/101 100/101/121 101/102/122
f 62/63/83 81/82/102 101/102/122 82/83/103
f 83/84/104 82/83/103 102/103/123 103/104/124
f 84/85/105 83/84/104 103/104/124 104/105/125
f 85/86/106 84/85/105 104/105/125 105/106/126
f 86/87/107 85/86/106 105/106/126 106/107/127
f 87/88/108 86/87/107 106/107/127 107/108/128
f 88/89/109 87/88/108 107/108/128 108/109/129
f 89/270/110 88/89/109 108/109/129 109/269/130
f 90/91/111 89/90/110 109/110/130 110/111/131
f 91/92/112 90/91/111 110/111/131 111/112/132
f 92/93/113 91/92/112 111/112/132 112/113/133
f 93/94/114 92/93/113 112/113/133 113/114/134
f 94/95/115 93/94/114 113/114/134 114/115/135
f 95/96/116 94/95/115 114/115/135 115/116/136
f 96/97/117 95/96/116 115/116/136 116/117/137
f 97/98/118 96/97/117 116/117/137 117/118/138
f 98/99/119 97/98/118 117/118/138 118/119/139
f 99/100/120 98/99/119 118/119/139 119/120/140
f 100/101/121 99/100/120 119/120/140 120/121/141
f 101/102/122 100/101/121 120/121/141 121/122/142
f 82/83/103 101/102/122 121/122/142 102/103/123
f 103/104/124 102/103/123 122/123/143 123/124/144
f 104/105/125 103/104/124 123/124/144 124/125/145
f 105/106/126 104/105/125 124/125/145 125/126/146
f 106/107/127 105/106/126 125/126/146 126/127/147
f 107/108/128 106/107/127 126/127/147 127/128/148
f 108/109/129 107/108/128 127/128/148 128/129/149
f 109/269/130 108/109/129 128/129/149 129/268/150
f 110/111/131 109/110/130 129/130/150 130/131/151
f 111/112/132 110/111/131 130/131/151 131/132/152
f 112/113/133 111/112/132 131/132/152 132/133/153
f 113/114/134 112/113/133 132/133/153 133/134/154
f 114/115/135 113/114/134 133/134/154 134/135/155
f 115/116/136 114/115/135 134/135/155 135/136/156
f 116/117/137 115/116/136 135/136/156 136/137/157
f 117/118/138 116/117/137 136/137/157 137/138/158
f 118/119/139 117/118/138 137/138/158 138/139/159
f 119/120/140 118/119/139 138/139/159 139/140/160
f 120/121/141 119/120/140 139/140/160 140/141/161
f 121/122/142 120/121/141 140/141/161 141/142/162
f 102/103/123 121/122/142 141/142/162 122/123/143
f 123/124/144 122/123/143 21/275/163 40/274/164
f 124/125/145 123/124/144 40/274/164 39/276/165
f 125/126/146 124/125/145 39/276/165 38/277/166
f 126/127/147 125/126/146 38/277/166 37/278/167
f 127/128/148 126/127/147 37/278/167 36/279/168
f 128/129/149 127/128/148 36/279/168 35/280/169
f 129/268/150 128/129/149 35/280/169 34/281/170
f 130/131/151 129/130/150 34/267/170 33/283/171
f 131/132/152 130/131/151 33/283/171 32/284/172
f 132/133/153 131/132/152 32/284/172 31/285/173
f 133/134/154 132/133/153 31/285/173 30/286/174
f 134/135/155 133/134/154 30/286/174 29/287/175
f 135/136/156 134/135/155 29/287/175 28/288/176
f 136/137/157 135/136/156 28/288/176 27/289/177
f 137/138/158 136/137/157 27/289/177 26/290/178
f 138/139/159 137/138/158 26/290/178 25/291/179
f 139/140/160 138/139/159 25/291/179 24/292/180
f 140/141/161 139/140/160 24/292/180 23/293/181
f 141/142/162 140/141/161 23/293/181 22/294/182
f 122/123/143 141/142/162 22/294/182 21/275/163
s 4
f 21/143/183 22/162/184 143/163/185 142/164/186
f 22/162/187 23/161/188 144/165/189 143/163/185
f 23/161/190 24/160/191 145/166/192 144/165/189
f 24/160/193 25/159/194 146/167/195 145/166/192
f 25/159/196 26/158/197 147/168/198 146/167/195
f 26/158/199 27/157/200 148/169/201 147/168/198
f 27/157/202 28/156/203 149/170/204 148/169/201
f 28/156/205 29/155/206 150/171/207 149/170/204
f 29/155/208 30/154/209 151/172/210 150/171/207
f 30/154/211 31/153/212 152/173/213 151/172/210
f 31/153/214 32/152/215 153/174/216 152/173/213
f 32/152/217 33/151/218 154/175/219 153/174/216
f 33/151/220 34/282/221 155/266/222 154/175/219
f 34/150/223 35/149/224 156/177/225 155/176/222
f 35/149/226 36/148/227 157/178/228 156/177/225
f 36/148/229 37/147/230 158/179/231 157/178/228
f 37/147/232 38/146/233 159/180/234 158/179/231
f 38/146/235 39/145/236 160/181/237 159/180/234
f 39/145/238 40/144/239 161/182/240 160/181/237
f 40/144/241 21/143/242 142/164/186 161/182/240
f 142/164/186 143/163/185 163/183/243 162/184/244
f 143/163/185 144/165/189 164/185/245 163/183/243
f 144/165/189 145/166/192 165/186/246 164/185/245
f 145/166/192 146/167/195 166/187/247 165/186/246
f 146/167/195 147/168/198 167/188/248 166/187/247
f 147/168/198 148/169/201 168/189/249 167/188/248
f 148/169/201 149/170/204 169/190/250 168/189/249
f 149/170/204 150/171/207 170/191/251 169/190/250
f 150/171/207 151/172/210 171/192/252 170/191/251
f 151/172/210 152/173/213 172/193/253 171/192/252
f 152/173/213 153/174/216 173/194/254 172/193/253
f 153/174/216 154/175/219 174/195/255 173/194/254
f 154/175/219 155/266/222 175/265/256 174/195/255
f 155/176/222 156/177/225 176/197/257 175/196/256
f 156/177/225 157/178/228 177/198/258 176/197/257
f 157/178/228 158/179/231 178/199/259 177/198/258
f 158/179/231 159/180/234 179/200/260 178/199/259
f 159/180/234 160/181/237 180/201/261 179/200/260
f 160/181/237 161/182/240 181/202/262 180/201/261
f 161/182/240 142/164/186 162/184/244 181/202/262
s 24
f 162/184/263 163/183/264 183/203/265 182/204/266
f 163/183/267 164/185/268 184/205/269 183/203/265
f 164/185/270 165/186/271 185/206/272 184/205/269
f 165/186/273 166/187/274 186/207/275 185/206/272
f 166/187/276 167/188/277 187/208/278 186/207/275
f 167/188/279 168/189/280 188/209/281 187/208/278
f 168/189/282 169/190/283 189/210/284 188/209/281
f 169/190/285 170/191/286 190/211/287 189/210/284
f 170/191/288 171/192/289 191/212/290 190/211/287
f 171/192/291 172/193/292 192/213/293 191/212/290
f 172/193/294 173/194/295 193/214/296 192/213/293
f 173/194/297 174/195/298 194/215/299 193/214/296
s off
f 174/195/300 175/265/301 195/263/302 194/215/303
f 175/196/304 176/197/305 196/217/306 195/216/307
f 176/197/308 177/198/309 197/218/310 196/217/311
f 177/198/312 178/199/313 198/219/314 197/218/315
s 24
f 178/199/316 179/200/317 199/220/318 198/219/319
f 179/200/320 180/201/321 200/221/322 199/220/318
f 180/201/323 181/202/324 201/222/325 200/221/322
f 181/202/326 162/184/327 182/204/266 201/222/325
f 182/204/266 183/203/265 203/43/328 202/224/329
f 183/203/265 184/205/269 205/45/330 203/43/328
f 184/205/269 185/206/272 206/46/331 205/45/330
f 185/206/272 186/207/275 207/47/332 206/46/331
f 186/207/275 187/208/278 208/48/333 207/47/332
f 187/208/278 188/209/281 209/49/334 208/48/333
f 188/209/281 189/210/284 210/50/335 209/49/334
f 189/210/284 190/211/287 211/51/336 210/50/335
f 190/211/287 191/212/290 212/52/337 211/51/336
f 191/212/290 192/213/293 213/53/338 212/52/337
f 192/213/293 193/214/296 214/54/339 213/53/338
f 193/214/296 194/215/299 215/55/340 214/54/339
f 194/215/299 195/263/341 216/264/342 215/55/340
f 195/216/341 196/217/343 217/57/344 216/56/342
f 196/217/343 197/218/345 218/58/346 217/57/344
f 197/218/345 198/219/319 219/59/347 218/58/346
f 198/219/319 199/220/318 220/60/348 219/59/347
f 199/220/318 200/221/322 221/61/349 220/60/348
f 200/221/322 201/222/325 222/62/350 221/61/349
f 201/222/325 182/204/266 202/224/329 222/62/350
s 40
f 223/295/351 224/296/352 225/297/353 226/298/354
s off
f 223/299/355 226/298/356 228/300/357 227/301/358
s 41
f 223/302/359 229/303/360 230/304/361 224/305/362
s 40
f 224/296/352 231/306/363 232/307/364 225/297/353
s off
f 225/297/365 233/308/366 228/300/367 226/298/368
f 227/309/369 228/310/370 234/311/371 235/312/372
s 42
f 223/302/373 227/313/374 236/314/375 229/303/376
s off
f 224/315/377 230/316/378 238/317/379 237/318/380
s 41
f 229/303/360 239/319/381 240/320/382 230/321/361
s 40
f 231/306/363 251/322/383 252/323/384 232/307/364
s 43
f 227/324/385 235/312/386 254/325/387 237/326/388
s 44
f 234/311/389 255/327/390 254/325/391 235/312/392
s 45
f 227/313/393 237/318/394 238/317/395 236/314/396
s 42
f 229/303/376 236/314/375 256/328/397 239/319/398
s off
f 230/329/399 257/330/400 258/331/401 238/332/402
f 230/333/403 240/334/404 259/335/405 257/336/406
s 41
f 239/319/381 260/337/407 261/338/408 240/320/382
s 46
f 232/307/409 252/323/410 263/339/411 245/340/412
s 43
f 237/326/388 254/325/387 264/341/413 250/342/414
s off
f 231/343/415 250/344/416 258/345/417 257/346/418
s 47
f 231/347/419 257/348/420 265/349/421 251/350/422
s off
f 251/351/423 266/352/424 267/353/425 252/354/426
s 48
f 234/311/427 268/355/428 269/356/429 255/327/430
s 44
f 254/325/391 255/327/390 270/357/431 264/341/432
s 45
f 236/314/396 238/358/395 271/359/433 256/328/434
s 42
f 239/319/398 256/328/397 272/360/435 260/337/436
s off
f 238/332/437 258/331/438 273/361/439 271/362/440
f 240/334/441 271/362/442 273/361/443 259/335/444
s 47
f 257/348/420 259/363/445 274/364/446 265/349/421
s off
f 240/365/447 261/366/448 275/367/449 271/359/450
f 260/337/451 272/360/452 275/368/453 261/369/454
f 252/370/455 277/371/456 278/372/457 263/373/458
s 49
f 250/344/459 280/374/460 281/375/461 258/345/462
s 50
f 251/350/463 265/349/464 281/375/465 280/374/466
s off
f 252/370/467 267/376/468 282/377/469 277/371/470
f 266/352/471 283/378/472 284/379/473 267/353/474
s 51
f 253/380/475 262/381/476 269/382/477 268/383/478
s 48
f 255/327/430 269/356/429 285/384/479 270/357/480
s 44
f 264/341/432 270/357/431 286/385/481 279/386/482
s 45
f 256/328/434 271/359/433 275/367/483 272/360/484
s 49
f 258/345/462 281/375/461 287/387/485 273/388/486
s off
f 259/389/487 273/390/488 288/391/489 289/392/490
s 50
f 265/349/464 274/364/491 287/387/492 281/375/465
s 47
f 259/363/445 289/393/493 290/394/494 274/364/446
s 51
f 262/381/476 276/395/495 285/396/496 269/382/477
s off
f 277/371/497 282/377/498 291/397/499 278/372/500
f 267/353/501 284/379/502 291/398/503 282/399/504
f 283/378/505 292/400/506 293/401/507 284/379/508
s 48
f 270/357/480 285/384/479 294/402/509 286/385/510
s off
f 279/386/511 286/385/512 293/401/513 292/400/514
s 49
f 273/390/486 287/387/485 295/403/515 288/391/516
s off
f 288/404/517 295/403/518 290/394/519 289/405/520
s 50
f 274/364/491 290/394/521 295/403/522 287/387/492
s 51
f 276/395/495 278/372/523 294/406/524 285/396/496
s off
f 278/372/525 291/397/526 296/407/527 294/406/528
f 284/379/529 293/401/530 296/408/531 291/398/532
f 286/385/533 294/402/534 296/408/535 293/401/536
s 52
f 233/409/537 262/381/538 253/380/539 228/410/540
s off
f 228/410/541 253/380/542 268/411/543 234/412/544
s 52
f 245/413/545 276/395/546 262/381/538 233/409/537
s 43
f 264/341/413 279/386/547 280/414/548 250/342/414
s off
f 280/415/549 283/378/550 266/352/551 251/416/552
s 52
f 263/373/553 278/372/554 276/395/546 245/413/545
s off
f 292/400/555 283/417/556 280/414/557 279/386/558
s 46
f 225/297/365 232/307/409 245/340/412 233/308/366 241/418/559 242/419/560 243/420/561 244/421/562
s off
f 237/422/563 250/423/564 231/306/565 224/296/566 246/424/567 247/425/568 248/426/569 249/427/570
f 297/428/571 298/429/572 300/430/573 299/431/574
f 309/432/575 310/433/576 311/434/577 312/435/578
f 301/436/579 302/437/580 304/438/581 303/439/582
f 303/439/583 304/438/584 298/429/585 297/428/586
f 298/429/587 304/438/588 302/440/589 300/441/590
f 303/439/591 297/428/592 299/442/593 301/443/594
f 299/431/595 300/430/596 306/444/597 305/445/598
f 300/441/599 302/440/600 307/446/601 306/447/602
f 302/437/603 301/436/604 308/448/605 307/449/606
f 301/443/607 299/442/608 305/450/609 308/451/610
f 305/452/611 306/453/612 310/433/613 309/432/614
f 306/454/615 307/455/616 311/434/617 310/433/618
f 307/456/619 308/457/620 312/435/621 311/434/622
f 308/458/623 305/459/624 309/432/625 312/435/626
