# This file uses centimeters as units for non-parametric coordinates.

mtllib KitchenStove.mtl
g default
v -0.091763 0.185997 0.147797
v 0.091763 0.185997 0.147797
v -0.091763 0.203859 0.147797
v 0.091763 0.203859 0.147797
v -0.091763 0.203859 0.134412
v 0.091763 0.203859 0.134412
v -0.091763 0.185997 0.134412
v 0.091763 0.185997 0.134412
v 0.084057 0.185997 0.147797
v 0.084057 0.203859 0.147797
v 0.084057 0.203859 0.134412
v 0.084057 0.185997 0.134412
v -0.081897 0.185997 0.147797
v -0.081897 0.203859 0.147797
v -0.081897 0.203859 0.134412
v -0.081897 0.185997 0.134412
v -0.091763 0.203859 0.120743
v -0.081897 0.203859 0.120743
v -0.081897 0.185997 0.120743
v -0.091763 0.185997 0.120743
v 0.084057 0.203859 0.120743
v 0.084057 0.185997 0.120743
v 0.091763 0.203859 0.120743
v 0.091763 0.185997 0.120743
v -0.047329 0.238856 0.131443
v -0.049038 0.242210 0.131443
v -0.051699 0.244871 0.131443
v -0.055052 0.246579 0.131443
v -0.058769 0.247168 0.131443
v -0.062486 0.246579 0.131443
v -0.065839 0.244871 0.131443
v -0.068500 0.242210 0.131443
v -0.070209 0.238856 0.131443
v -0.070798 0.235139 0.131443
v -0.070209 0.231422 0.131443
v -0.068500 0.228069 0.131443
v -0.065839 0.225408 0.131443
v -0.062486 0.223700 0.131443
v -0.058769 0.223111 0.131443
v -0.055052 0.223700 0.131443
v -0.051699 0.225408 0.131443
v -0.049038 0.228069 0.131443
v -0.047329 0.231422 0.131443
v -0.046741 0.235139 0.131443
v -0.047329 0.238856 0.136104
v -0.049038 0.242210 0.136104
v -0.051699 0.244871 0.136104
v -0.055052 0.246579 0.136104
v -0.058769 0.247168 0.136104
v -0.062486 0.246579 0.136104
v -0.065839 0.244871 0.136104
v -0.068500 0.242210 0.136104
v -0.070209 0.238856 0.136104
v -0.070798 0.235139 0.136104
v -0.070209 0.231422 0.136104
v -0.068500 0.228069 0.136104
v -0.065839 0.225408 0.136104
v -0.062486 0.223700 0.136104
v -0.058769 0.223111 0.136104
v -0.055052 0.223700 0.136104
v -0.051699 0.225408 0.136104
v -0.049038 0.228069 0.136104
v -0.047329 0.231422 0.136104
v -0.046741 0.235139 0.136104
v -0.058769 0.235139 0.131443
v -0.058769 0.235139 0.136104
v -0.126302 0.001098 0.126302
v 0.126302 0.001098 0.126302
v -0.126302 0.253702 0.126302
v 0.126302 0.253702 0.126302
v -0.126302 0.253702 -0.126302
v 0.126302 0.253702 -0.126302
v -0.126302 0.001098 -0.126302
v 0.126302 0.001098 -0.126302
v -0.126302 0.253702 -0.103362
v -0.126302 0.001098 -0.103362
v 0.126302 0.001098 -0.103362
v 0.126302 0.253702 -0.103362
v -0.126302 0.001098 0.126302
v 0.126302 0.001098 0.126302
v 0.126302 0.253702 0.126302
v -0.126302 0.253702 0.126302
v -0.104132 0.059273 0.126302
v 0.104132 0.059273 0.126302
v 0.104132 0.213687 0.126302
v -0.104132 0.213687 0.126302
v -0.104132 0.059273 0.126302
v 0.104132 0.059273 0.126302
v 0.104132 0.213687 0.126302
v -0.104132 0.213687 0.126302
v -0.104132 0.059273 0.120689
v 0.104132 0.059273 0.120689
v 0.104132 0.213687 0.120689
v -0.104132 0.213687 0.120689
v 0.126302 0.438983 -0.103362
v -0.126302 0.438983 -0.103362
v 0.126302 0.438983 -0.126302
v -0.126302 0.438983 -0.126302
v 0.126302 0.403199 -0.103362
v -0.126302 0.403199 -0.103362
v -0.126302 0.403199 -0.126302
v 0.126302 0.403199 -0.126302
v 0.126302 0.403199 -0.103362
v -0.126302 0.403199 -0.103362
v 0.126302 0.438983 -0.103362
v -0.126302 0.438983 -0.103362
v 0.126302 0.403199 -0.007287
v -0.126302 0.403199 -0.007287
v 0.126302 0.438983 -0.007287
v -0.126302 0.438983 -0.007287
v -0.126302 0.253702 0.126302
v 0.126302 0.253702 0.126302
v 0.126302 0.253702 -0.103362
v -0.126302 0.253702 -0.103362
v -0.113937 0.253702 0.115060
v 0.113937 0.253702 0.115060
v 0.113937 0.253702 -0.092121
v -0.113937 0.253702 -0.092121
v -0.113937 0.251177 0.115060
v 0.113937 0.251177 0.115060
v 0.113937 0.251177 -0.092121
v -0.113937 0.251177 -0.092121
v 0.027745 0.238856 0.131443
v 0.026037 0.242210 0.131443
v 0.023376 0.244871 0.131443
v 0.020023 0.246579 0.131443
v 0.016306 0.247168 0.131443
v 0.012589 0.246579 0.131443
v 0.009235 0.244871 0.131443
v 0.006574 0.242210 0.131443
v 0.004866 0.238856 0.131443
v 0.004277 0.235139 0.131443
v 0.004866 0.231422 0.131443
v 0.006574 0.228069 0.131443
v 0.009235 0.225408 0.131443
v 0.012589 0.223700 0.131443
v 0.016306 0.223111 0.131443
v 0.020023 0.223700 0.131443
v 0.023376 0.225408 0.131443
v 0.026037 0.228069 0.131443
v 0.027745 0.231422 0.131443
v 0.028334 0.235139 0.131443
v 0.027745 0.238856 0.136104
v 0.026037 0.242210 0.136104
v 0.023376 0.244871 0.136104
v 0.020023 0.246579 0.136104
v 0.016306 0.247168 0.136104
v 0.012589 0.246579 0.136104
v 0.009235 0.244871 0.136104
v 0.006574 0.242210 0.136104
v 0.004866 0.238856 0.136104
v 0.004277 0.235139 0.136104
v 0.004866 0.231422 0.136104
v 0.006574 0.228069 0.136104
v 0.009235 0.225408 0.136104
v 0.012589 0.223700 0.136104
v 0.016306 0.223111 0.136104
v 0.020023 0.223700 0.136104
v 0.023376 0.225408 0.136104
v 0.026037 0.228069 0.136104
v 0.027745 0.231422 0.136104
v 0.028334 0.235139 0.136104
v 0.016306 0.235139 0.131443
v 0.016306 0.235139 0.136104
v -0.007402 0.238856 0.131443
v -0.009111 0.242210 0.131443
v -0.011772 0.244871 0.131443
v -0.015125 0.246579 0.131443
v -0.018842 0.247168 0.131443
v -0.022559 0.246579 0.131443
v -0.025912 0.244871 0.131443
v -0.028573 0.242210 0.131443
v -0.030282 0.238856 0.131443
v -0.030870 0.235139 0.131443
v -0.030282 0.231422 0.131443
v -0.028573 0.228069 0.131443
v -0.025912 0.225408 0.131443
v -0.022559 0.223700 0.131443
v -0.018842 0.223111 0.131443
v -0.015125 0.223700 0.131443
v -0.011772 0.225408 0.131443
v -0.009111 0.228069 0.131443
v -0.007402 0.231422 0.131443
v -0.006813 0.235139 0.131443
v -0.007402 0.238856 0.136104
v -0.009111 0.242210 0.136104
v -0.011772 0.244871 0.136104
v -0.015125 0.246579 0.136104
v -0.018842 0.247168 0.136104
v -0.022559 0.246579 0.136104
v -0.025912 0.244871 0.136104
v -0.028573 0.242210 0.136104
v -0.030282 0.238856 0.136104
v -0.030870 0.235139 0.136104
v -0.030282 0.231422 0.136104
v -0.028573 0.228069 0.136104
v -0.025912 0.225408 0.136104
v -0.022559 0.223700 0.136104
v -0.018842 0.223111 0.136104
v -0.015125 0.223700 0.136104
v -0.011772 0.225408 0.136104
v -0.009111 0.228069 0.136104
v -0.007402 0.231422 0.136104
v -0.006813 0.235139 0.136104
v -0.018842 0.235139 0.131443
v -0.018842 0.235139 0.136104
v 0.060046 0.238856 0.131443
v 0.058338 0.242210 0.131443
v 0.055677 0.244871 0.131443
v 0.052323 0.246579 0.131443
v 0.048606 0.247168 0.131443
v 0.044889 0.246579 0.131443
v 0.041536 0.244871 0.131443
v 0.038875 0.242210 0.131443
v 0.037167 0.238856 0.131443
v 0.036578 0.235139 0.131443
v 0.037167 0.231422 0.131443
v 0.038875 0.228069 0.131443
v 0.041536 0.225408 0.131443
v 0.044889 0.223700 0.131443
v 0.048606 0.223111 0.131443
v 0.052323 0.223700 0.131443
v 0.055677 0.225408 0.131443
v 0.058338 0.228069 0.131443
v 0.060046 0.231422 0.131443
v 0.060635 0.235139 0.131443
v 0.060046 0.238856 0.136104
v 0.058338 0.242210 0.136104
v 0.055677 0.244871 0.136104
v 0.052323 0.246579 0.136104
v 0.048606 0.247168 0.136104
v 0.044889 0.246579 0.136104
v 0.041536 0.244871 0.136104
v 0.038875 0.242210 0.136104
v 0.037167 0.238856 0.136104
v 0.036578 0.235139 0.136104
v 0.037167 0.231422 0.136104
v 0.038875 0.228069 0.136104
v 0.041536 0.225408 0.136104
v 0.044889 0.223700 0.136104
v 0.048606 0.223111 0.136104
v 0.052323 0.223700 0.136104
v 0.055677 0.225408 0.136104
v 0.058338 0.228069 0.136104
v 0.060046 0.231422 0.136104
v 0.060635 0.235139 0.136104
v 0.048606 0.235139 0.131443
v 0.048606 0.235139 0.136104
vt 0.384235 0.854441
vt 0.410931 0.854690
vt 0.410483 0.903231
vt 0.383704 0.902821
vt 0.958811 0.745019
vt 0.383673 0.938551
vt 0.381038 0.975204
vt 0.995489 0.745328
vt 0.411543 0.781044
vt 0.311037 0.852587
vt 0.348105 0.853521
vt 0.411880 0.818321
vt 0.883264 0.859500
vt 0.883106 0.823831
vt 0.918641 0.908750
vt 0.882947 0.908625
vt 0.861736 0.907619
vt 0.862091 0.859039
vt 0.860820 0.943989
vt 0.470313 0.696881
vt 0.861441 0.981271
vt 0.955681 0.909666
vt 0.886161 0.787085
vt 0.507631 0.696479
vt 0.862003 0.822580
vt 0.865303 0.785314
vt 0.507771 0.745018
vt 0.471094 0.745328
vt 0.958952 0.696479
vt 0.996270 0.696881
vt 0.410494 0.939670
vt 0.407696 0.977103
vt 0.919777 0.860203
vt 0.956995 0.861264
vt 0.881623 0.944015
vt 0.882328 0.981006
vt 0.384976 0.818165
vt 0.384731 0.781158
vt 0.346975 0.902126
vt 0.309783 0.901092
vt 0.882429 0.907766
vt 0.882588 0.859011
vt 0.383571 0.902791
vt 0.384366 0.853705
vt 0.093859 0.451529
vt 0.086409 0.443308
vt 0.096348 0.431731
vt 0.105803 0.442068
vt 0.076968 0.437345
vt 0.084265 0.423970
vt 0.065829 0.433877
vt 0.071507 0.418761
vt 0.052781 0.433302
vt 0.058265 0.415012
vt 0.041739 0.440265
vt 0.029331 0.429958
vt 0.038964 0.420154
vt 0.033784 0.448789
vt 0.020833 0.440791
vt 0.028536 0.458639
vt 0.014184 0.453508
vt 0.026133 0.469462
vt 0.011095 0.467155
vt 0.026657 0.480992
vt 0.010997 0.480087
vt 0.031858 0.491606
vt 0.019362 0.501644
vt 0.012145 0.489920
vt 0.039456 0.499931
vt 0.029547 0.512021
vt 0.049038 0.505813
vt 0.042118 0.519583
vt 0.060190 0.509058
vt 0.055402 0.524285
vt 0.072930 0.509358
vt 0.068882 0.527155
vt 0.083846 0.502793
vt 0.095529 0.513647
vt 0.085247 0.522800
vt 0.091929 0.494457
vt 0.104746 0.502998
vt 0.097347 0.484606
vt 0.111933 0.490209
vt 0.099833 0.473615
vt 0.115650 0.476155
vt 0.099108 0.461820
vt 0.116121 0.462406
vt 0.112302 0.453278
vt 0.062914 0.471536
vt 0.095126 0.538540
vt 0.097912 0.527264
vt 0.132121 0.541747
vt 0.104065 0.517400
vt 0.112981 0.509920
vt 0.123781 0.505563
vt 0.135398 0.504757
vt 0.146683 0.507583
vt 0.156525 0.513759
vt 0.163960 0.522674
vt 0.168267 0.533449
vt 0.169035 0.545027
vt 0.166200 0.556273
vt 0.160046 0.566091
vt 0.151175 0.573527
vt 0.140450 0.577860
vt 0.128910 0.578667
vt 0.117673 0.575872
vt 0.107833 0.569741
vt 0.100352 0.560869
vt 0.095970 0.550120
vt 0.374550 0.094811
vt 0.584521 0.094547
vt 0.581878 0.246909
vt 0.380284 0.244295
vt 0.296793 0.030087
vt 0.296793 0.244147
vt 0.102096 0.244147
vt 0.102096 0.030087
vt 0.644329 0.023954
vt 0.785462 0.012198
vt 0.804330 0.155419
vt 0.653649 0.175114
vt 0.656297 0.188619
vt 0.805515 0.168675
vt 0.822341 0.303083
vt 0.678767 0.322092
vt 0.943016 0.274632
vt 0.986538 0.406304
vt 0.849565 0.455381
vt 0.546437 0.460974
vt 0.555191 0.324596
vt 0.691588 0.472437
vt 0.641558 0.169186
vt 0.630842 0.025396
vt 0.798800 0.010143
vt 0.816058 0.148694
vt 0.066100 0.745299
vt 0.283076 0.749126
vt 0.280325 0.770020
vt 0.066063 0.765312
vt 0.822340 0.303086
vt 0.678772 0.322098
vt 0.849561 0.455373
vt 0.691592 0.472430
vt 0.359718 0.031450
vt 0.602131 0.036116
vt 0.587649 0.090559
vt 0.370886 0.091187
vt 0.610605 0.042055
vt 0.604397 0.285713
vt 0.585224 0.250735
vt 0.597443 0.291470
vt 0.362349 0.285832
vt 0.377484 0.248542
vt 0.359261 0.283721
vt 0.346924 0.045069
vt 0.587639 0.090567
vt 0.370890 0.091190
vt 0.585214 0.250727
vt 0.377490 0.248537
vt 0.084629 0.276964
vt 0.306036 0.276702
vt 0.306114 0.406455
vt 0.084551 0.406717
vt 0.327045 0.275991
vt 0.327202 0.404084
vt 0.281021 0.926542
vt 0.064112 0.924957
vt 0.065913 0.794871
vt 0.280117 0.797172
vt 0.063909 0.276514
vt 0.063753 0.404608
vt 0.286594 0.705275
vt 0.286594 0.421576
vt 0.337530 0.415984
vt 0.337051 0.708028
vt 0.046500 0.795958
vt 0.046500 0.762618
vt 0.304958 0.799194
vt 0.304958 0.768211
vt 0.173446 0.705275
vt 0.173446 0.421576
vt 0.444368 0.369756
vt 0.446902 0.416208
vt 0.336467 0.369756
vt 0.446423 0.708252
vt 0.443411 0.750522
vt 0.335509 0.750522
vt 0.849559 0.455397
vt 0.691591 0.472441
vt 0.834335 0.611946
vt 0.834336 0.611940
vt 0.696564 0.603341
vt 0.696566 0.603337
vt 0.841458 0.463455
vt 0.699679 0.478001
vt 0.828148 0.603934
vt 0.703554 0.596744
vt 0.299165 0.030100
vt 0.299165 0.244134
vt 0.296793 0.246562
vt 0.102095 0.246562
vt 0.099724 0.244134
vt 0.099723 0.030100
vt 0.102095 0.027672
vt 0.296793 0.027672
vt 0.890428 0.598743
vt 0.895495 0.608612
vt 0.882900 0.617223
vt 0.876442 0.604790
vt 0.903072 0.616816
vt 0.892561 0.627846
vt 0.912933 0.623048
vt 0.903537 0.636180
vt 0.925388 0.626981
vt 0.915357 0.643228
vt 0.937856 0.623113
vt 0.947174 0.636280
vt 0.935331 0.643257
vt 0.947746 0.616938
vt 0.958186 0.628016
vt 0.955365 0.608782
vt 0.967900 0.617453
vt 0.960487 0.598951
vt 0.974415 0.605070
vt 0.962966 0.587677
vt 0.977857 0.592605
vt 0.960688 0.576079
vt 0.975357 0.569617
vt 0.979293 0.582809
vt 0.955504 0.566070
vt 0.968205 0.556957
vt 0.947771 0.557909
vt 0.958019 0.546400
vt 0.937839 0.551888
vt 0.946405 0.538419
vt 0.925610 0.548301
vt 0.934127 0.532159
vt 0.913368 0.551818
vt 0.904892 0.538309
vt 0.917192 0.532129
vt 0.903403 0.557778
vt 0.893233 0.546211
vt 0.895620 0.565890
vt 0.882981 0.556703
vt 0.890373 0.575864
vt 0.875753 0.569317
vt 0.888021 0.587444
vt 0.871739 0.582475
vt 0.873066 0.592280
vt 0.925497 0.587428
vt 0.954702 0.493994
vt 0.949091 0.504165
vt 0.919797 0.481321
vt 0.940596 0.512100
vt 0.930047 0.517018
vt 0.918487 0.518432
vt 0.907058 0.516203
vt 0.896889 0.510553
vt 0.888981 0.502040
vt 0.884107 0.491504
vt 0.882736 0.479981
vt 0.884990 0.468600
vt 0.890639 0.458471
vt 0.899125 0.450580
vt 0.909617 0.445693
vt 0.921098 0.444283
vt 0.932454 0.446491
vt 0.942585 0.452099
vt 0.950503 0.460567
vt 0.955433 0.471073
vt 0.956883 0.482590
vt 0.027784 0.697335
vt 0.032852 0.707204
vt 0.020256 0.715815
vt 0.013799 0.703382
vt 0.040429 0.715408
vt 0.029918 0.726438
vt 0.050290 0.721640
vt 0.040894 0.734772
vt 0.062744 0.725572
vt 0.052714 0.741820
vt 0.075213 0.721705
vt 0.084530 0.734872
vt 0.072688 0.741849
vt 0.085103 0.715530
vt 0.095543 0.726608
vt 0.092721 0.707374
vt 0.105256 0.716045
vt 0.097844 0.697542
vt 0.111772 0.703662
vt 0.100322 0.686269
vt 0.115214 0.691196
vt 0.098045 0.674671
vt 0.112714 0.668209
vt 0.116650 0.681401
vt 0.092861 0.664662
vt 0.105561 0.655549
vt 0.085127 0.656501
vt 0.095376 0.644992
vt 0.075195 0.650480
vt 0.083762 0.637011
vt 0.062967 0.646893
vt 0.071483 0.630750
vt 0.050724 0.650410
vt 0.042248 0.636901
vt 0.054549 0.630721
vt 0.040759 0.656370
vt 0.030590 0.644802
vt 0.032976 0.664482
vt 0.020338 0.655295
vt 0.027730 0.674456
vt 0.013110 0.667908
vt 0.025377 0.686036
vt 0.009096 0.681066
vt 0.010423 0.690872
vt 0.062853 0.686019
vt 0.092059 0.592586
vt 0.086448 0.602757
vt 0.057154 0.579913
vt 0.077952 0.610692
vt 0.067404 0.615610
vt 0.055844 0.617023
vt 0.044415 0.614795
vt 0.034246 0.609144
vt 0.026338 0.600631
vt 0.021464 0.590096
vt 0.020092 0.578573
vt 0.022346 0.567192
vt 0.027996 0.557062
vt 0.036481 0.549171
vt 0.046974 0.544284
vt 0.058455 0.542875
vt 0.069811 0.545082
vt 0.079941 0.550691
vt 0.087859 0.559159
vt 0.092789 0.569665
vt 0.094240 0.581182
vt 0.474737 0.550563
vt 0.479805 0.560432
vt 0.467209 0.569043
vt 0.460752 0.556610
vt 0.487382 0.568636
vt 0.476871 0.579667
vt 0.497243 0.574868
vt 0.487847 0.588000
vt 0.509697 0.578801
vt 0.499667 0.595048
vt 0.522166 0.574933
vt 0.531483 0.588100
vt 0.519641 0.595077
vt 0.532056 0.568758
vt 0.542496 0.579836
vt 0.539674 0.560602
vt 0.552209 0.569273
vt 0.544797 0.550771
vt 0.558725 0.556891
vt 0.547275 0.539498
vt 0.562167 0.544425
vt 0.544998 0.527899
vt 0.559667 0.521437
vt 0.563603 0.534630
vt 0.539814 0.517891
vt 0.552514 0.508777
vt 0.532080 0.509730
vt 0.542329 0.498220
vt 0.522148 0.503709
vt 0.530715 0.490240
vt 0.509920 0.500122
vt 0.518436 0.483979
vt 0.497677 0.503638
vt 0.489202 0.490130
vt 0.501502 0.483950
vt 0.487712 0.509598
vt 0.477543 0.498031
vt 0.479929 0.517710
vt 0.467291 0.508523
vt 0.474683 0.527684
vt 0.460063 0.521137
vt 0.472330 0.539264
vt 0.456049 0.534295
vt 0.457376 0.544100
vt 0.509806 0.539248
vt 0.539012 0.445815
vt 0.533401 0.455985
vt 0.504107 0.433142
vt 0.524905 0.463920
vt 0.514357 0.468838
vt 0.502797 0.470252
vt 0.491368 0.468023
vt 0.481199 0.462373
vt 0.473291 0.453860
vt 0.468417 0.443324
vt 0.467045 0.431801
vt 0.469299 0.420420
vt 0.474949 0.410291
vt 0.483434 0.402400
vt 0.493927 0.397513
vt 0.505408 0.396104
vt 0.516764 0.398311
vt 0.526894 0.403920
vt 0.534812 0.412388
vt 0.539742 0.422893
vt 0.541193 0.434411
vn 0.000000 0.000000 1.000000
vn 0.000000 0.000000 1.000000
vn 0.000000 0.000000 1.000000
vn 0.000000 0.000000 1.000000
vn 0.000000 1.000000 0.000000
vn 0.000000 1.000000 0.000000
vn 0.000000 1.000000 0.000000
vn 0.000000 1.000000 0.000000
vn 0.000000 -1.000000 0.000000
vn 0.000000 -1.000000 0.000000
vn 0.000000 -1.000000 0.000000
vn 0.000000 -1.000000 0.000000
vn 1.000000 0.000000 0.000000
vn 1.000000 0.000000 0.000000
vn 1.000000 0.000000 0.000000
vn 1.000000 0.000000 0.000000
vn -1.000000 0.000000 0.000000
vn -1.000000 0.000000 0.000000
vn -1.000000 0.000000 0.000000
vn -1.000000 0.000000 0.000000
vn 0.000000 0.000000 1.000000
vn 0.000000 0.000000 1.000000
vn 0.000000 0.000000 1.000000
vn 0.000000 0.000000 1.000000
vn 0.000000 1.000000 0.000000
vn 0.000000 1.000000 0.000000
vn 0.000000 1.000000 0.000000
vn 0.000000 1.000000 0.000000
vn 0.000000 -1.000000 0.000000
vn 0.000000 -1.000000 0.000000
vn 0.000000 -1.000000 0.000000
vn 0.000000 -1.000000 0.000000
vn 0.000000 0.000000 -1.000000
vn 0.000000 0.000000 -1.000000
vn 0.000000 0.000000 -1.000000
vn 0.000000 0.000000 -1.000000
vn 0.000000 1.000000 0.000000
vn 0.000000 1.000000 0.000000
vn 0.000000 1.000000 0.000000
vn 0.000000 1.000000 0.000000
vn 1.000000 0.000000 0.000000
vn 1.000000 0.000000 0.000000
vn 1.000000 0.000000 0.000000
vn 1.000000 0.000000 0.000000
vn 0.000000 -1.000000 0.000000
vn 0.000000 -1.000000 0.000000
vn 0.000000 -1.000000 0.000000
vn 0.000000 -1.000000 0.000000
vn -1.000000 0.000000 0.000000
vn -1.000000 0.000000 0.000000
vn -1.000000 0.000000 0.000000
vn -1.000000 0.000000 0.000000
vn -1.000000 0.000000 0.000000
vn -1.000000 0.000000 0.000000
vn -1.000000 0.000000 0.000000
vn -1.000000 0.000000 0.000000
vn 0.000000 1.000000 0.000000
vn 0.000000 1.000000 0.000000
vn 0.000000 1.000000 0.000000
vn 0.000000 1.000000 0.000000
vn 1.000000 0.000000 0.000000
vn 1.000000 0.000000 0.000000
vn 1.000000 0.000000 0.000000
vn 1.000000 0.000000 0.000000
vn 0.000000 -1.000000 0.000000
vn 0.000000 -1.000000 0.000000
vn 0.000000 -1.000000 0.000000
vn 0.000000 -1.000000 0.000000
vn 0.951056 0.309017 0.000000
vn 0.809019 0.587783 0.000000
vn 0.809019 0.587783 0.000000
vn 0.951056 0.309017 0.000000
vn 0.587788 0.809015 0.000000
vn 0.587788 0.809015 0.000000
vn 0.309017 0.951057 0.000000
vn 0.309017 0.951057 0.000000
vn 0.000000 1.000000 0.000000
vn 0.000000 1.000000 0.000000
vn -0.309017 0.951057 0.000000
vn -0.309017 0.951057 0.000000
vn -0.587788 0.809015 0.000000
vn -0.587788 0.809015 0.000000
vn -0.809018 0.587784 0.000000
vn -0.809018 0.587784 0.000000
vn -0.951056 0.309018 0.000000
vn -0.951056 0.309018 0.000000
vn -1.000000 0.000000 0.000000
vn -1.000000 0.000000 0.000000
vn -0.951057 -0.309016 0.000000
vn -0.951057 -0.309016 0.000000
vn -0.809017 -0.587786 0.000000
vn -0.809017 -0.587786 0.000000
vn -0.587785 -0.809017 0.000000
vn -0.587785 -0.809017 0.000000
vn -0.309017 -0.951057 0.000000
vn -0.309017 -0.951057 0.000000
vn 0.000000 -1.000000 0.000000
vn 0.000000 -1.000000 0.000000
vn 0.309017 -0.951057 0.000000
vn 0.309017 -0.951057 0.000000
vn 0.587784 -0.809018 0.000000
vn 0.587784 -0.809018 0.000000
vn 0.809017 -0.587785 0.000000
vn 0.809017 -0.587785 0.000000
vn 0.951057 -0.309016 0.000000
vn 0.951057 -0.309016 0.000000
vn 1.000000 0.000000 0.000000
vn 1.000000 0.000000 0.000000
vn -0.000001 0.000000 -1.000000
vn -0.000001 0.000000 -1.000000
vn -0.000000 0.000000 -1.000000
vn 0.000000 0.000000 -1.000000
vn 0.000003 0.000000 -1.000000
vn -0.000000 0.000000 -1.000000
vn -0.000003 0.000000 -1.000000
vn 0.000000 0.000000 -1.000000
vn 0.000001 0.000000 -1.000000
vn 0.000001 0.000000 -1.000000
vn 0.000000 0.000000 -1.000000
vn 0.000000 0.000000 -1.000000
vn 0.000000 0.000000 -1.000000
vn 0.000000 0.000000 -1.000000
vn -0.000003 0.000000 -1.000000
vn -0.000000 0.000000 -1.000000
vn 0.000003 0.000000 -1.000000
vn 0.000000 0.000000 -1.000000
vn 0.000000 0.000000 -1.000000
vn 0.000000 0.000000 -1.000000
vn 0.000000 0.000000 -1.000000
vn 0.000000 0.000000 1.000000
vn -0.000001 0.000000 1.000000
vn -0.000000 0.000000 1.000000
vn -0.000001 0.000000 1.000000
vn 0.000000 0.000000 1.000000
vn 0.000000 0.000000 1.000000
vn 0.000000 0.000000 1.000000
vn 0.000000 0.000000 1.000000
vn 0.000000 0.000000 1.000000
vn 0.000000 0.000000 1.000000
vn 0.000000 0.000000 1.000000
vn 0.000000 0.000000 1.000000
vn -0.000001 0.000000 1.000000
vn 0.000001 0.000000 1.000000
vn 0.000003 0.000000 1.000000
vn 0.000000 0.000000 1.000000
vn -0.000003 0.000000 1.000000
vn -0.000003 0.000000 1.000000
vn 0.000000 0.000000 1.000000
vn 0.000000 0.000000 1.000000
vn 0.000000 0.000000 1.000000
vn 0.000000 0.000000 1.000000
vn 0.000000 0.000000 1.000000
vn 0.000000 0.000000 1.000000
vn 0.000000 0.000000 1.000000
vn 0.000000 1.000000 0.000000
vn 0.000000 1.000000 0.000000
vn 0.000000 1.000000 0.000000
vn 0.000000 1.000000 0.000000
vn 0.000000 0.000000 -1.000000
vn 0.000000 0.000000 -1.000000
vn 0.000000 0.000000 -1.000000
vn 0.000000 0.000000 -1.000000
vn 0.000000 -1.000000 0.000000
vn 0.000000 -1.000000 0.000000
vn 0.000000 -1.000000 0.000000
vn 0.000000 -1.000000 0.000000
vn 1.000000 0.000000 0.000000
vn 1.000000 0.000000 0.000000
vn 1.000000 0.000000 0.000000
vn 1.000000 0.000000 0.000000
vn -1.000000 0.000000 0.000000
vn -1.000000 0.000000 0.000000
vn -1.000000 0.000000 0.000000
vn -1.000000 0.000000 0.000000
vn -1.000000 0.000000 0.000000
vn -1.000000 0.000000 0.000000
vn 0.000000 -1.000000 0.000000
vn 0.000000 -1.000000 0.000000
vn 1.000000 0.000000 0.000000
vn 1.000000 0.000000 0.000000
vn 0.000000 1.000000 0.000000
vn 0.000000 1.000000 0.000000
vn 0.000000 1.000000 0.000000
vn 0.000000 1.000000 0.000000
vn 0.000000 0.000000 0.000000
vn 0.000000 0.000000 0.000000
vn 0.000000 0.000000 0.000000
vn 0.000000 0.000000 0.000000
vn 0.000000 0.000000 0.000000
vn 0.000000 0.000000 0.000000
vn 0.000000 0.000000 0.000000
vn 0.000000 0.000000 0.000000
vn 0.000000 0.000000 0.000000
vn 0.000000 0.000000 0.000000
vn 0.000000 0.000000 0.000000
vn 0.000000 0.000000 0.000000
vn 0.000000 0.000000 0.000000
vn 0.000000 0.000000 0.000000
vn 0.000000 0.000000 0.000000
vn 0.000000 0.000000 0.000000
vn 0.000000 0.000000 1.000000
vn 0.000000 0.000000 1.000000
vn 0.000000 0.000000 1.000000
vn 0.000000 0.000000 1.000000
vn 0.000000 0.000000 1.000000
vn 0.000000 0.000000 1.000000
vn 0.000000 0.000000 1.000000
vn 0.000000 0.000000 1.000000
vn 0.000000 0.000000 1.000000
vn 0.000000 0.000000 1.000000
vn 0.000000 0.000000 1.000000
vn 0.000000 0.000000 1.000000
vn -0.000000 0.000000 1.000000
vn -0.000000 0.000000 1.000000
vn -0.000000 0.000000 1.000000
vn -0.000000 0.000000 1.000000
vn 0.000000 0.000000 0.000000
vn 0.000000 0.000000 0.000000
vn 0.000000 0.000000 0.000000
vn 0.000000 0.000000 0.000000
vn 0.000000 0.000000 0.000000
vn 0.000000 0.000000 0.000000
vn 0.000000 0.000000 0.000000
vn 0.000000 0.000000 0.000000
vn 0.000000 0.000000 0.000000
vn 0.000000 0.000000 0.000000
vn 0.000000 0.000000 0.000000
vn 0.000000 0.000000 0.000000
vn 0.000000 0.000000 0.000000
vn 0.000000 0.000000 0.000000
vn 0.000000 0.000000 0.000000
vn 0.000000 0.000000 0.000000
vn 0.000000 1.000000 0.000000
vn 0.000000 1.000000 0.000000
vn 0.000000 1.000000 0.000000
vn 0.000000 1.000000 0.000000
vn -1.000000 0.000000 0.000000
vn -1.000000 0.000000 0.000000
vn -1.000000 0.000000 0.000000
vn -1.000000 0.000000 0.000000
vn 0.000000 -1.000000 0.000000
vn 0.000000 -1.000000 0.000000
vn 0.000000 -1.000000 0.000000
vn 0.000000 -1.000000 0.000000
vn 1.000000 0.000000 0.000000
vn 1.000000 0.000000 0.000000
vn 1.000000 0.000000 0.000000
vn 1.000000 0.000000 0.000000
vn 0.000000 0.000000 1.000000
vn 0.000000 0.000000 1.000000
vn 0.000000 0.000000 1.000000
vn 0.000000 0.000000 1.000000
vn 1.000000 0.000000 0.000000
vn 1.000000 0.000000 0.000000
vn 1.000000 -0.000000 0.000000
vn 1.000000 -0.000000 0.000000
vn 0.000000 0.000000 -1.000000
vn 0.000000 0.000000 -1.000000
vn 0.000000 0.000000 -1.000000
vn 0.000000 0.000000 -1.000000
vn -1.000000 0.000000 0.000000
vn -1.000000 0.000000 0.000000
vn -1.000000 0.000000 0.000000
vn -1.000000 0.000000 0.000000
vn 0.000000 0.000000 1.000000
vn 0.000000 0.000000 1.000000
vn 0.000000 0.000000 1.000000
vn 0.000000 0.000000 1.000000
vn -1.000000 0.000000 0.000000
vn -1.000000 0.000000 0.000000
vn 0.000000 0.000000 -1.000000
vn 0.000000 0.000000 -1.000000
vn 1.000000 -0.000000 0.000000
vn 1.000000 -0.000000 0.000000
vn 0.000000 0.000000 0.000000
vn 0.000000 0.000000 0.000000
vn 0.000000 0.000000 0.000000
vn 0.000000 0.000000 0.000000
vn 0.000000 0.000000 0.000000
vn 0.000000 0.000000 0.000000
vn 0.000000 0.000000 0.000000
vn 0.000000 0.000000 0.000000
vn 0.000000 0.000000 0.000000
vn 0.000000 0.000000 0.000000
vn 0.000000 0.000000 0.000000
vn 0.000000 0.000000 0.000000
vn 0.000000 0.000000 0.000000
vn 0.000000 0.000000 0.000000
vn 0.000000 0.000000 0.000000
vn 0.000000 0.000000 0.000000
vn 0.000000 -1.000000 0.000000
vn 0.000000 -1.000000 0.000000
vn 0.000000 -1.000000 0.000000
vn 0.000000 -1.000000 0.000000
vn 1.000000 -0.000000 0.000000
vn 1.000000 -0.000000 0.000000
vn 1.000000 -0.000000 0.000000
vn 1.000000 -0.000000 0.000000
vn 0.000000 1.000000 0.000000
vn 0.000000 1.000000 0.000000
vn 0.000000 1.000000 0.000000
vn 0.000000 1.000000 0.000000
vn -1.000000 -0.000000 0.000000
vn -1.000000 -0.000000 0.000000
vn -1.000000 -0.000000 0.000000
vn -1.000000 -0.000000 0.000000
vn 0.000000 0.000000 0.000000
vn 0.000000 0.000000 0.000000
vn 0.000000 0.000000 0.000000
vn 0.000000 0.000000 0.000000
vn 0.000000 -0.000000 0.000000
vn 0.000000 -0.000000 0.000000
vn 0.000000 -1.000000 0.000000
vn 0.000000 -0.000000 0.000000
vn 0.000000 1.000000 0.000000
vn 0.000000 1.000000 0.000000
vn 0.000000 1.000000 0.000000
vn 0.000000 1.000000 0.000000
vn 0.000000 -0.000000 0.000000
vn 0.000000 -0.000000 0.000000
vn 0.000000 -0.000000 0.000000
vn 0.000000 -1.000000 0.000000
vn 0.000000 1.000000 0.000001
vn 0.000000 1.000000 0.000001
vn 0.000000 1.000000 0.000001
vn 0.000000 1.000000 0.000001
vn 0.000000 1.000000 0.000000
vn 0.000000 1.000000 0.000000
vn 0.000000 1.000000 0.000000
vn 0.000000 1.000000 0.000000
vn 0.000000 1.000000 -0.000001
vn 0.000000 1.000000 -0.000001
vn 0.000000 1.000000 -0.000001
vn 0.000000 1.000000 -0.000001
vn 0.000000 1.000000 0.000000
vn 0.000000 1.000000 0.000000
vn 0.000000 1.000000 0.000000
vn 0.000000 1.000000 0.000000
vn 0.000000 0.000000 -1.000000
vn 0.000000 0.000000 -1.000000
vn 0.000000 0.000000 -1.000000
vn 0.000000 0.000000 -1.000000
vn -1.000000 0.000000 0.000000
vn -1.000000 0.000000 0.000000
vn -1.000000 0.000000 0.000000
vn -1.000000 0.000000 0.000000
vn 0.000000 0.000000 1.000000
vn 0.000000 0.000000 1.000000
vn 0.000000 0.000000 1.000000
vn 0.000000 0.000000 1.000000
vn 1.000000 0.000000 0.000000
vn 1.000000 0.000000 0.000000
vn 1.000000 0.000000 0.000000
vn 1.000000 0.000000 0.000000
vn 0.951056 0.309018 0.000000
vn 0.809019 0.587783 0.000000
vn 0.809019 0.587783 0.000000
vn 0.951056 0.309018 0.000000
vn 0.587788 0.809015 0.000000
vn 0.587788 0.809015 0.000000
vn 0.309017 0.951057 0.000000
vn 0.309017 0.951057 0.000000
vn 0.000000 1.000000 0.000000
vn 0.000000 1.000000 0.000000
vn -0.309017 0.951057 0.000000
vn -0.309017 0.951057 0.000000
vn -0.587788 0.809015 0.000000
vn -0.587788 0.809015 0.000000
vn -0.809018 0.587784 0.000000
vn -0.809018 0.587784 0.000000
vn -0.951056 0.309018 0.000000
vn -0.951056 0.309018 0.000000
vn -1.000000 0.000000 0.000000
vn -1.000000 0.000000 0.000000
vn -0.951057 -0.309017 0.000000
vn -0.951057 -0.309017 0.000000
vn -0.809017 -0.587786 0.000000
vn -0.809017 -0.587786 0.000000
vn -0.587785 -0.809017 0.000000
vn -0.587785 -0.809017 0.000000
vn -0.309017 -0.951057 0.000000
vn -0.309017 -0.951057 0.000000
vn 0.000000 -1.000000 0.000000
vn 0.000000 -1.000000 0.000000
vn 0.309017 -0.951057 0.000000
vn 0.309017 -0.951057 0.000000
vn 0.587784 -0.809018 0.000000
vn 0.587784 -0.809018 0.000000
vn 0.809017 -0.587785 0.000000
vn 0.809017 -0.587785 0.000000
vn 0.951057 -0.309016 0.000000
vn 0.951057 -0.309016 0.000000
vn 1.000000 0.000000 0.000000
vn 1.000000 0.000000 0.000000
vn -0.000001 0.000000 -1.000000
vn -0.000001 0.000000 -1.000000
vn -0.000000 0.000000 -1.000000
vn 0.000000 0.000000 -1.000000
vn 0.000003 0.000000 -1.000000
vn -0.000000 0.000000 -1.000000
vn -0.000003 0.000000 -1.000000
vn 0.000000 0.000000 -1.000000
vn 0.000001 0.000000 -1.000000
vn 0.000001 0.000000 -1.000000
vn 0.000000 0.000000 -1.000000
vn 0.000000 0.000000 -1.000000
vn 0.000000 0.000000 -1.000000
vn 0.000000 0.000000 -1.000000
vn -0.000003 0.000000 -1.000000
vn -0.000000 0.000000 -1.000000
vn 0.000003 0.000000 -1.000000
vn 0.000000 0.000000 -1.000000
vn 0.000000 0.000000 -1.000000
vn 0.000000 0.000000 -1.000000
vn 0.000000 0.000000 -1.000000
vn 0.000000 0.000000 1.000000
vn -0.000001 0.000000 1.000000
vn -0.000000 0.000000 1.000000
vn -0.000001 0.000000 1.000000
vn 0.000000 0.000000 1.000000
vn 0.000000 0.000000 1.000000
vn 0.000000 0.000000 1.000000
vn 0.000000 0.000000 1.000000
vn 0.000000 0.000000 1.000000
vn 0.000000 0.000000 1.000000
vn 0.000000 0.000000 1.000000
vn 0.000000 0.000000 1.000000
vn -0.000001 0.000000 1.000000
vn 0.000001 0.000000 1.000000
vn 0.000003 0.000000 1.000000
vn 0.000000 0.000000 1.000000
vn -0.000003 0.000000 1.000000
vn -0.000003 0.000000 1.000000
vn 0.000000 0.000000 1.000000
vn 0.000000 0.000000 1.000000
vn 0.000000 0.000000 1.000000
vn 0.951056 0.309017 0.000000
vn 0.809019 0.587783 0.000000
vn 0.809019 0.587783 0.000000
vn 0.951056 0.309017 0.000000
vn 0.587787 0.809015 0.000000
vn 0.587787 0.809015 0.000000
vn 0.309017 0.951057 0.000000
vn 0.309017 0.951057 0.000000
vn 0.000000 1.000000 0.000000
vn 0.000000 1.000000 0.000000
vn -0.309017 0.951057 0.000000
vn -0.309017 0.951057 0.000000
vn -0.587788 0.809015 0.000000
vn -0.587788 0.809015 0.000000
vn -0.809018 0.587784 0.000000
vn -0.809018 0.587784 0.000000
vn -0.951056 0.309018 0.000000
vn -0.951056 0.309018 0.000000
vn -1.000000 0.000000 0.000000
vn -1.000000 0.000000 0.000000
vn -0.951057 -0.309017 0.000000
vn -0.951057 -0.309017 0.000000
vn -0.809017 -0.587786 0.000000
vn -0.809017 -0.587786 0.000000
vn -0.587785 -0.809017 0.000000
vn -0.587785 -0.809017 0.000000
vn -0.309017 -0.951057 0.000000
vn -0.309017 -0.951057 0.000000
vn 0.000000 -1.000000 0.000000
vn 0.000000 -1.000000 0.000000
vn 0.309017 -0.951057 0.000000
vn 0.309017 -0.951057 0.000000
vn 0.587784 -0.809018 0.000000
vn 0.587784 -0.809018 0.000000
vn 0.809017 -0.587785 0.000000
vn 0.809017 -0.587785 0.000000
vn 0.951057 -0.309016 0.000000
vn 0.951057 -0.309016 0.000000
vn 1.000000 0.000000 0.000000
vn 1.000000 0.000000 0.000000
vn -0.000001 0.000000 -1.000000
vn -0.000001 0.000000 -1.000000
vn -0.000000 0.000000 -1.000000
vn 0.000000 0.000000 -1.000000
vn 0.000003 0.000000 -1.000000
vn -0.000000 0.000000 -1.000000
vn -0.000003 0.000000 -1.000000
vn 0.000000 0.000000 -1.000000
vn 0.000001 0.000000 -1.000000
vn 0.000001 0.000000 -1.000000
vn 0.000000 0.000000 -1.000000
vn 0.000000 0.000000 -1.000000
vn 0.000000 0.000000 -1.000000
vn 0.000000 0.000000 -1.000000
vn -0.000003 0.000000 -1.000000
vn -0.000000 0.000000 -1.000000
vn 0.000003 0.000000 -1.000000
vn 0.000000 0.000000 -1.000000
vn 0.000000 0.000000 -1.000000
vn 0.000000 0.000000 -1.000000
vn 0.000000 0.000000 -1.000000
vn 0.000000 0.000000 1.000000
vn -0.000001 0.000000 1.000000
vn -0.000000 0.000000 1.000000
vn -0.000001 0.000000 1.000000
vn 0.000000 0.000000 1.000000
vn 0.000000 0.000000 1.000000
vn 0.000000 0.000000 1.000000
vn 0.000000 0.000000 1.000000
vn 0.000000 0.000000 1.000000
vn 0.000000 0.000000 1.000000
vn 0.000000 0.000000 1.000000
vn 0.000000 0.000000 1.000000
vn -0.000001 0.000000 1.000000
vn 0.000001 0.000000 1.000000
vn 0.000003 0.000000 1.000000
vn 0.000000 0.000000 1.000000
vn -0.000003 0.000000 1.000000
vn -0.000003 0.000000 1.000000
vn 0.000000 0.000000 1.000000
vn 0.000000 0.000000 1.000000
vn 0.000000 0.000000 1.000000
vn 0.951056 0.309018 0.000000
vn 0.809019 0.587783 0.000000
vn 0.809019 0.587783 0.000000
vn 0.951056 0.309018 0.000000
vn 0.587788 0.809015 0.000000
vn 0.587788 0.809015 0.000000
vn 0.309017 0.951057 0.000000
vn 0.309017 0.951057 0.000000
vn 0.000000 1.000000 0.000000
vn 0.000000 1.000000 0.000000
vn -0.309017 0.951057 0.000000
vn -0.309017 0.951057 0.000000
vn -0.587788 0.809015 0.000000
vn -0.587788 0.809015 0.000000
vn -0.809018 0.587784 0.000000
vn -0.809018 0.587784 0.000000
vn -0.951056 0.309018 0.000000
vn -0.951056 0.309018 0.000000
vn -1.000000 0.000000 0.000000
vn -1.000000 0.000000 0.000000
vn -0.951057 -0.309017 0.000000
vn -0.951057 -0.309017 0.000000
vn -0.809017 -0.587786 0.000000
vn -0.809017 -0.587786 0.000000
vn -0.587785 -0.809018 0.000000
vn -0.587785 -0.809018 0.000000
vn -0.309017 -0.951057 0.000000
vn -0.309017 -0.951057 0.000000
vn -0.000000 -1.000000 0.000000
vn -0.000000 -1.000000 0.000000
vn 0.309017 -0.951057 0.000000
vn 0.309017 -0.951057 0.000000
vn 0.587784 -0.809018 0.000000
vn 0.587784 -0.809018 0.000000
vn 0.809017 -0.587785 0.000000
vn 0.809017 -0.587785 0.000000
vn 0.951057 -0.309016 0.000000
vn 0.951057 -0.309016 0.000000
vn 1.000000 0.000000 0.000000
vn 1.000000 0.000000 0.000000
vn -0.000001 0.000000 -1.000000
vn -0.000001 0.000000 -1.000000
vn -0.000000 0.000000 -1.000000
vn 0.000000 0.000000 -1.000000
vn 0.000003 0.000000 -1.000000
vn -0.000000 0.000000 -1.000000
vn -0.000003 0.000000 -1.000000
vn 0.000000 0.000000 -1.000000
vn 0.000001 0.000000 -1.000000
vn 0.000001 0.000000 -1.000000
vn 0.000000 0.000000 -1.000000
vn 0.000000 0.000000 -1.000000
vn 0.000000 0.000000 -1.000000
vn 0.000000 0.000000 -1.000000
vn -0.000003 0.000000 -1.000000
vn -0.000000 0.000000 -1.000000
vn 0.000003 0.000000 -1.000000
vn 0.000000 0.000000 -1.000000
vn 0.000000 0.000000 -1.000000
vn 0.000000 0.000000 -1.000000
vn 0.000000 0.000000 -1.000000
vn 0.000000 0.000000 1.000000
vn -0.000001 0.000000 1.000000
vn -0.000000 0.000000 1.000000
vn -0.000001 0.000000 1.000000
vn 0.000000 0.000000 1.000000
vn 0.000000 0.000000 1.000000
vn 0.000000 0.000000 1.000000
vn 0.000000 0.000000 1.000000
vn 0.000000 0.000000 1.000000
vn 0.000000 0.000000 1.000000
vn 0.000000 0.000000 1.000000
vn 0.000000 0.000000 1.000000
vn -0.000001 0.000000 1.000000
vn 0.000001 0.000000 1.000000
vn 0.000003 0.000000 1.000000
vn 0.000000 0.000000 1.000000
vn -0.000003 0.000000 1.000000
vn -0.000003 0.000000 1.000000
vn 0.000000 0.000000 1.000000
vn 0.000000 0.000000 1.000000
vn 0.000000 0.000000 1.000000
s 1
g KitchenStove
usemtl initialShadingGroup
f 1/1/1 13/2/2 14/3/3 3/43/4
s 2
f 3/4/5 14/3/6 15/31/7 5/6/8
s 3
f 7/37/9 16/12/10 13/2/11 1/44/12
s off
f 2/13/13 8/33/14 6/15/15 4/41/16
f 7/11/17 1/1/18 3/43/19 5/39/20
s 1
f 10/17/21 9/18/22 2/13/23 4/41/24
s 2
f 11/19/25 10/17/26 4/16/27 6/35/28
s 3
f 9/18/29 12/25/30 8/14/31 2/42/32
s 1
f 14/3/3 13/2/2 9/18/22 10/17/21
s 2
f 15/31/7 14/3/6 10/17/26 11/19/25
s off
f 16/29/33 15/5/34 11/27/35 12/24/36
s 3
f 13/2/11 16/12/10 12/25/30 9/18/29
s off
f 5/6/37 15/31/38 18/32/39 17/7/40
f 15/5/41 16/29/42 19/30/43 18/8/44
f 16/12/45 7/37/46 20/38/47 19/9/48
f 7/11/49 5/39/50 17/40/51 20/10/52
f 12/24/53 11/27/54 21/28/55 22/20/56
f 11/19/57 6/35/58 23/36/59 21/21/60
f 6/15/61 8/33/62 24/34/63 23/22/64
f 8/14/65 12/25/66 22/26/67 24/23/68
s 4
f 25/45/69 26/46/70 46/47/71 45/48/72
f 26/46/70 27/49/73 47/50/74 46/47/71
f 27/49/73 28/51/75 48/52/76 47/50/74
f 28/51/75 29/53/77 49/54/78 48/52/76
f 29/53/77 30/55/79 50/56/80 49/57/78
f 30/55/79 31/58/81 51/59/82 50/56/80
f 31/58/81 32/60/83 52/61/84 51/59/82
f 32/60/83 33/62/85 53/63/86 52/61/84
f 33/62/85 34/64/87 54/65/88 53/63/86
f 34/64/87 35/66/89 55/67/90 54/68/88
f 35/66/89 36/69/91 56/70/92 55/67/90
f 36/69/91 37/71/93 57/72/94 56/70/92
f 37/71/93 38/73/95 58/74/96 57/72/94
f 38/73/95 39/75/97 59/76/98 58/74/96
f 39/75/97 40/77/99 60/78/100 59/79/98
f 40/77/99 41/80/101 61/81/102 60/78/100
f 41/80/101 42/82/103 62/83/104 61/81/102
f 42/82/103 43/84/105 63/85/106 62/83/104
f 43/84/105 44/86/107 64/87/108 63/85/106
f 44/86/107 25/45/69 45/48/72 64/88/108
s 5
f 26/46/109 25/45/110 65/89/111
f 27/49/112 26/46/109 65/89/111
f 28/51/113 27/49/112 65/89/111
f 29/53/114 28/51/113 65/89/111
f 30/55/115 29/53/114 65/89/111
f 31/58/116 30/55/115 65/89/111
f 32/60/117 31/58/116 65/89/111
f 33/62/118 32/60/117 65/89/111
f 34/64/119 33/62/118 65/89/111
f 35/66/120 34/64/119 65/89/111
f 36/69/121 35/66/120 65/89/111
f 37/71/122 36/69/121 65/89/111
f 38/73/123 37/71/122 65/89/111
f 39/75/124 38/73/123 65/89/111
f 40/77/125 39/75/124 65/89/111
f 41/80/126 40/77/125 65/89/111
f 42/82/127 41/80/126 65/89/111
f 43/84/128 42/82/127 65/89/111
f 44/86/129 43/84/128 65/89/111
f 25/45/110 44/86/129 65/89/111
s 6
f 45/90/130 46/91/131 66/92/132
f 46/91/131 47/93/133 66/92/132
f 47/93/133 48/94/134 66/92/132
f 48/94/134 49/95/135 66/92/132
f 49/95/135 50/96/136 66/92/132
f 50/96/136 51/97/137 66/92/132
f 51/97/137 52/98/138 66/92/132
f 52/98/138 53/99/139 66/92/132
f 53/99/139 54/100/140 66/92/132
f 54/100/140 55/101/141 66/92/132
f 55/101/141 56/102/142 66/92/132
f 56/102/142 57/103/143 66/92/132
f 57/103/143 58/104/144 66/92/132
f 58/104/144 59/105/145 66/92/132
f 59/105/145 60/106/146 66/92/132
f 60/106/146 61/107/147 66/92/132
f 61/107/147 62/108/148 66/92/132
f 62/108/148 63/109/149 66/92/132
f 63/109/149 64/110/150 66/92/132
f 64/110/150 45/90/130 66/92/132
s off
f 91/111/151 92/112/152 93/113/153 94/114/154
f 119/115/155 120/116/156 121/117/157 122/118/158
f 71/119/159 72/120/160 74/121/161 73/122/162
s 7
f 76/123/163 77/124/164 68/125/165 67/126/166
s 8
f 68/125/167 77/127/168 78/128/169 70/129/170
s 9
f 75/130/171 76/131/172 67/126/173 69/132/174
f 73/122/175 76/133/172 75/134/171 71/119/176
s 7
f 73/122/177 74/121/178 77/124/164 76/123/163
s 8
f 78/135/169 77/136/168 74/121/179 72/120/180
s off
f 96/137/181 95/138/182 97/139/183 98/140/184
f 67/126/185 68/125/186 80/141/187 79/142/188
f 68/125/189 70/129/190 81/143/191 80/141/192
f 70/129/193 69/132/194 82/144/195 81/143/196
f 69/132/197 67/126/198 79/142/199 82/144/200
f 79/145/201 80/146/202 84/147/203 83/148/204
f 80/149/205 81/150/206 85/151/207 84/147/208
f 81/152/209 82/153/210 86/154/211 85/151/212
f 82/155/213 79/156/214 83/148/215 86/154/216
f 83/148/217 84/147/218 88/157/219 87/158/220
f 84/147/221 85/151/222 89/159/223 88/157/224
f 85/151/225 86/154/226 90/160/227 89/159/228
f 86/154/229 83/148/230 87/158/231 90/160/232
f 87/158/233 88/157/234 92/112/235 91/111/236
f 88/157/237 89/159/238 93/113/239 92/112/240
f 89/159/241 90/160/242 94/114/243 93/113/244
f 90/160/245 87/158/246 91/111/247 94/114/248
f 75/161/249 78/162/250 99/163/251 100/164/252
s 10
f 78/162/253 72/165/254 102/166/255 99/163/256
s 11
f 72/167/257 71/168/258 101/169/259 102/170/260
s 12
f 71/171/261 75/161/262 100/164/263 101/172/264
s off
f 108/173/265 107/174/266 109/175/267 110/176/268
s 12
f 101/169/264 100/177/263 96/178/269 98/140/270
s 11
f 102/170/260 101/169/259 98/140/271 97/139/272
s 10
f 99/179/256 102/170/255 97/139/273 95/180/274
s off
f 100//275 99//276 103//277 104//278
f 99//279 95//280 105//281 103//282
f 95//283 96//284 106//285 105//286
f 96//287 100//288 104//289 106//290
f 104/181/291 103/182/292 107/174/293 108/173/294
f 103/183/295 105/184/296 109/175/297 107/185/298
f 105/184/299 106/186/300 110/176/301 109/175/302
f 106/186/303 104/187/304 108/188/305 110/176/306
f 69/132/307 70/129/308 112/189/309 111/190/310
f 70/129/311 78/191/312 113/192/313 112/189/314
f 78/191/315 75/193/316 114/194/317 113/192/318
f 75/193/319 69/132/320 111/190/321 114/194/322
f 111/190/323 112/189/324 116/195/325 115/196/326
f 112/189/327 113/192/328 117/197/329 116/195/330
f 113/192/331 114/194/332 118/198/333 117/197/334
f 114/194/335 111/190/336 115/196/337 118/198/338
f 115/199/339 116/200/340 120/116/341 119/115/342
f 116/201/343 117/202/344 121/117/345 120/116/346
f 117/203/347 118/204/348 122/118/349 121/117/350
f 118/205/351 115/206/352 119/115/353 122/118/354
s 13
f 123/207/355 124/208/356 144/209/357 143/210/358
f 124/208/356 125/211/359 145/212/360 144/209/357
f 125/211/359 126/213/361 146/214/362 145/212/360
f 126/213/361 127/215/363 147/216/364 146/214/362
f 127/215/363 128/217/365 148/218/366 147/219/364
f 128/217/365 129/220/367 149/221/368 148/218/366
f 129/220/367 130/222/369 150/223/370 149/221/368
f 130/222/369 131/224/371 151/225/372 150/223/370
f 131/224/371 132/226/373 152/227/374 151/225/372
f 132/226/373 133/228/375 153/229/376 152/230/374
f 133/228/375 134/231/377 154/232/378 153/229/376
f 134/231/377 135/233/379 155/234/380 154/232/378
f 135/233/379 136/235/381 156/236/382 155/234/380
f 136/235/381 137/237/383 157/238/384 156/236/382
f 137/237/383 138/239/385 158/240/386 157/241/384
f 138/239/385 139/242/387 159/243/388 158/240/386
f 139/242/387 140/244/389 160/245/390 159/243/388
f 140/244/389 141/246/391 161/247/392 160/245/390
f 141/246/391 142/248/393 162/249/394 161/247/392
f 142/248/393 123/207/355 143/210/358 162/250/394
s 14
f 124/208/395 123/207/396 163/251/397
f 125/211/398 124/208/395 163/251/397
f 126/213/399 125/211/398 163/251/397
f 127/215/400 126/213/399 163/251/397
f 128/217/401 127/215/400 163/251/397
f 129/220/402 128/217/401 163/251/397
f 130/222/403 129/220/402 163/251/397
f 131/224/404 130/222/403 163/251/397
f 132/226/405 131/224/404 163/251/397
f 133/228/406 132/226/405 163/251/397
f 134/231/407 133/228/406 163/251/397
f 135/233/408 134/231/407 163/251/397
f 136/235/409 135/233/408 163/251/397
f 137/237/410 136/235/409 163/251/397
f 138/239/411 137/237/410 163/251/397
f 139/242/412 138/239/411 163/251/397
f 140/244/413 139/242/412 163/251/397
f 141/246/414 140/244/413 163/251/397
f 142/248/415 141/246/414 163/251/397
f 123/207/396 142/248/415 163/251/397
s 15
f 143/252/416 144/253/417 164/254/418
f 144/253/417 145/255/419 164/254/418
f 145/255/419 146/256/420 164/254/418
f 146/256/420 147/257/421 164/254/418
f 147/257/421 148/258/422 164/254/418
f 148/258/422 149/259/423 164/254/418
f 149/259/423 150/260/424 164/254/418
f 150/260/424 151/261/425 164/254/418
f 151/261/425 152/262/426 164/254/418
f 152/262/426 153/263/427 164/254/418
f 153/263/427 154/264/428 164/254/418
f 154/264/428 155/265/429 164/254/418
f 155/265/429 156/266/430 164/254/418
f 156/266/430 157/267/431 164/254/418
f 157/267/431 158/268/432 164/254/418
f 158/268/432 159/269/433 164/254/418
f 159/269/433 160/270/434 164/254/418
f 160/270/434 161/271/435 164/254/418
f 161/271/435 162/272/436 164/254/418
f 162/272/436 143/252/416 164/254/418
s 16
f 165/273/437 166/274/438 186/275/439 185/276/440
f 166/274/438 167/277/441 187/278/442 186/275/439
f 167/277/441 168/279/443 188/280/444 187/278/442
f 168/279/443 169/281/445 189/282/446 188/280/444
f 169/281/445 170/283/447 190/284/448 189/285/446
f 170/283/447 171/286/449 191/287/450 190/284/448
f 171/286/449 172/288/451 192/289/452 191/287/450
f 172/288/451 173/290/453 193/291/454 192/289/452
f 173/290/453 174/292/455 194/293/456 193/291/454
f 174/292/455 175/294/457 195/295/458 194/296/456
f 175/294/457 176/297/459 196/298/460 195/295/458
f 176/297/459 177/299/461 197/300/462 196/298/460
f 177/299/461 178/301/463 198/302/464 197/300/462
f 178/301/463 179/303/465 199/304/466 198/302/464
f 179/303/465 180/305/467 200/306/468 199/307/466
f 180/305/467 181/308/469 201/309/470 200/306/468
f 181/308/469 182/310/471 202/311/472 201/309/470
f 182/310/471 183/312/473 203/313/474 202/311/472
f 183/312/473 184/314/475 204/315/476 203/313/474
f 184/314/475 165/273/437 185/276/440 204/316/476
s 17
f 166/274/477 165/273/478 205/317/479
f 167/277/480 166/274/477 205/317/479
f 168/279/481 167/277/480 205/317/479
f 169/281/482 168/279/481 205/317/479
f 170/283/483 169/281/482 205/317/479
f 171/286/484 170/283/483 205/317/479
f 172/288/485 171/286/484 205/317/479
f 173/290/486 172/288/485 205/317/479
f 174/292/487 173/290/486 205/317/479
f 175/294/488 174/292/487 205/317/479
f 176/297/489 175/294/488 205/317/479
f 177/299/490 176/297/489 205/317/479
f 178/301/491 177/299/490 205/317/479
f 179/303/492 178/301/491 205/317/479
f 180/305/493 179/303/492 205/317/479
f 181/308/494 180/305/493 205/317/479
f 182/310/495 181/308/494 205/317/479
f 183/312/496 182/310/495 205/317/479
f 184/314/497 183/312/496 205/317/479
f 165/273/478 184/314/497 205/317/479
s 18
f 185/318/498 186/319/499 206/320/500
f 186/319/499 187/321/501 206/320/500
f 187/321/501 188/322/502 206/320/500
f 188/322/502 189/323/503 206/320/500
f 189/323/503 190/324/504 206/320/500
f 190/324/504 191/325/505 206/320/500
f 191/325/505 192/326/506 206/320/500
f 192/326/506 193/327/507 206/320/500
f 193/327/507 194/328/508 206/320/500
f 194/328/508 195/329/509 206/320/500
f 195/329/509 196/330/510 206/320/500
f 196/330/510 197/331/511 206/320/500
f 197/331/511 198/332/512 206/320/500
f 198/332/512 199/333/513 206/320/500
f 199/333/513 200/334/514 206/320/500
f 200/334/514 201/335/515 206/320/500
f 201/335/515 202/336/516 206/320/500
f 202/336/516 203/337/517 206/320/500
f 203/337/517 204/338/518 206/320/500
f 204/338/518 185/318/498 206/320/500
s 19
f 207/339/519 208/340/520 228/341/521 227/342/522
f 208/340/520 209/343/523 229/344/524 228/341/521
f 209/343/523 210/345/525 230/346/526 229/344/524
f 210/345/525 211/347/527 231/348/528 230/346/526
f 211/347/527 212/349/529 232/350/530 231/351/528
f 212/349/529 213/352/531 233/353/532 232/350/530
f 213/352/531 214/354/533 234/355/534 233/353/532
f 214/354/533 215/356/535 235/357/536 234/355/534
f 215/356/535 216/358/537 236/359/538 235/357/536
f 216/358/537 217/360/539 237/361/540 236/362/538
f 217/360/539 218/363/541 238/364/542 237/361/540
f 218/363/541 219/365/543 239/366/544 238/364/542
f 219/365/543 220/367/545 240/368/546 239/366/544
f 220/367/545 221/369/547 241/370/548 240/368/546
f 221/369/547 222/371/549 242/372/550 241/373/548
f 222/371/549 223/374/551 243/375/552 242/372/550
f 223/374/551 224/376/553 244/377/554 243/375/552
f 224/376/553 225/378/555 245/379/556 244/377/554
f 225/378/555 226/380/557 246/381/558 245/379/556
f 226/380/557 207/339/519 227/342/522 246/382/558
s 20
f 208/340/559 207/339/560 247/383/561
f 209/343/562 208/340/559 247/383/561
f 210/345/563 209/343/562 247/383/561
f 211/347/564 210/345/563 247/383/561
f 212/349/565 211/347/564 247/383/561
f 213/352/566 212/349/565 247/383/561
f 214/354/567 213/352/566 247/383/561
f 215/356/568 214/354/567 247/383/561
f 216/358/569 215/356/568 247/383/561
f 217/360/570 216/358/569 247/383/561
f 218/363/571 217/360/570 247/383/561
f 219/365/572 218/363/571 247/383/561
f 220/367/573 219/365/572 247/383/561
f 221/369/574 220/367/573 247/383/561
f 222/371/575 221/369/574 247/383/561
f 223/374/576 222/371/575 247/383/561
f 224/376/577 223/374/576 247/383/561
f 225/378/578 224/376/577 247/383/561
f 226/380/579 225/378/578 247/383/561
f 207/339/560 226/380/579 247/383/561
s 21
f 227/384/580 228/385/581 248/386/582
f 228/385/581 229/387/583 248/386/582
f 229/387/583 230/388/584 248/386/582
f 230/388/584 231/389/585 248/386/582
f 231/389/585 232/390/586 248/386/582
f 232/390/586 233/391/587 248/386/582
f 233/391/587 234/392/588 248/386/582
f 234/392/588 235/393/589 248/386/582
f 235/393/589 236/394/590 248/386/582
f 236/394/590 237/395/591 248/386/582
f 237/395/591 238/396/592 248/386/582
f 238/396/592 239/397/593 248/386/582
f 239/397/593 240/398/594 248/386/582
f 240/398/594 241/399/595 248/386/582
f 241/399/595 242/400/596 248/386/582
f 242/400/596 243/401/597 248/386/582
f 243/401/597 244/402/598 248/386/582
f 244/402/598 245/403/599 248/386/582
f 245/403/599 246/404/600 248/386/582
f 246/404/600 227/384/580 248/386/582
