# Blender 5.2.1 LTS
# www.blender.org
mtllib KitchenStoveBlender.mtl
o Stove
v 1.838527 2.967624 -1.173035
v 1.838527 0.007895 -1.173035
v 1.838527 2.967624 1.483561
v 1.838527 0.007895 1.483561
v -1.918208 2.967624 -1.173035
v -1.918208 0.007895 -1.173035
v -1.918208 2.967624 1.483561
v -1.918208 0.007895 1.483561
v -1.918208 0.007895 -0.892074
v 1.838527 2.967624 -0.892074
v -1.918208 2.967624 -0.892074
v 1.838527 0.007895 -0.892074
v -1.918208 5.702795 -0.892074
v -1.918208 5.702795 -1.173035
v 1.838527 5.702795 -1.173035
v 1.838527 5.702795 -0.892074
v -1.918208 5.476650 -1.173035
v 1.838527 5.476650 -1.173035
v 1.838527 5.476650 -0.892074
v -1.918208 5.476650 -0.892074
v -1.918208 5.702795 0.657460
v 1.838527 5.702795 0.657460
v 1.838527 5.476650 0.657460
v -1.918208 5.476650 0.657460
v 1.509726 2.967624 1.275638
v -1.589407 2.967624 1.275638
v 1.509726 2.967624 -0.684151
v -1.589407 2.967624 -0.684151
v 1.509726 2.923764 1.275638
v -1.589407 2.923764 1.275638
v 1.509726 2.923764 -0.684151
v -1.589407 2.923764 -0.684151
v -1.454653 0.578543 1.483561
v -1.454653 2.580552 1.483561
v 1.368392 2.580552 1.483561
v 1.368392 0.578543 1.483561
v -1.918208 0.007895 1.530477
v -1.918208 2.967624 1.530477
v 1.838527 2.967624 1.530477
v 1.838527 0.007895 1.530477
v -1.454653 0.578543 1.530477
v -1.454653 2.580552 1.530477
v 1.368392 2.580552 1.530477
v 1.368392 0.578543 1.530477
vn -0.0000 1.0000 -0.0000
vn -1.0000 -0.0000 -0.0000
vn -0.0000 -1.0000 -0.0000
vn 1.0000 -0.0000 -0.0000
vn -0.0000 -0.0000 -1.0000
vn -0.0000 -0.0000 1.0000
vt 0.193920 0.542907
vt 0.011995 0.543106
vt 0.027891 0.517909
vt 0.177970 0.517745
vt 0.382327 0.501544
vt 0.383673 0.290561
vt 0.385688 0.289055
vt 0.383098 0.504202
vt 0.534199 0.473285
vt 0.438136 0.472002
vt 0.438258 0.462883
vt 0.534321 0.464166
vt 0.543440 0.464288
vt 0.545068 0.342356
vt 0.622174 0.343385
vt 0.620546 0.465317
vt 0.536071 0.333115
vt 0.440008 0.331832
vt 0.441037 0.254727
vt 0.537101 0.256009
vt 0.439886 0.340951
vt 0.535949 0.342234
vt 0.533170 0.550390
vt 0.437106 0.549108
vt 0.150864 0.826004
vt 0.150864 0.563242
vt 0.166681 0.563242
vt 0.166681 0.826004
vt 0.186333 0.563242
vt 0.186333 0.826004
vt 0.294714 0.563242
vt 0.294714 0.826004
vt 0.186333 0.841822
vt 0.166681 0.841822
vt 0.166681 0.547424
vt 0.186333 0.547424
vt 0.002837 0.563410
vt 0.003299 0.548302
vt 0.150451 0.548353
vt 0.005037 0.839930
vt 0.003673 0.826191
vt 0.152189 0.839981
vt 0.566065 0.566022
vt 0.566065 0.823225
vt 0.418913 0.826004
vt 0.418913 0.563242
vt 0.310531 0.563242
vt 0.310531 0.826004
vt 0.294714 0.841822
vt 0.294714 0.547424
vt 0.024528 0.514554
vt 0.024269 0.277224
vt 0.027628 0.277221
vt 0.027887 0.514550
vt 0.011674 0.248700
vt 0.193598 0.248501
vt 0.177703 0.273698
vt 0.027624 0.273862
vt 0.008633 0.539751
vt 0.008319 0.252062
vt 0.196961 0.251856
vt 0.197275 0.539544
vt 0.181325 0.514383
vt 0.181066 0.277053
vt 0.177707 0.277057
vt 0.177966 0.514386
vt 0.200478 0.248445
vt 0.428618 0.248562
vt 0.428616 0.252178
vt 0.200548 0.252149
vt 0.383449 0.289892
vt 0.231661 0.289953
vt 0.229196 0.288748
vt 0.231293 0.290293
vt 0.232525 0.501727
vt 0.231287 0.504396
vt 0.428181 0.539244
vt 0.200873 0.539244
vt 0.432202 0.252183
vt 0.431837 0.539338
vt 0.232722 0.502263
vt 0.381687 0.502013
vt 0.428181 0.542847
vt 0.200873 0.542847
s 0
usemtl Material
f 3/1/1 10/2/1 27/3/1 25/4/1
f 36/5/1 33/6/1 41/7/1 44/8/1
f 9/9/2 11/10/2 5/11/2 6/12/2
f 9/13/3 12/14/3 4/15/3 8/16/3
f 12/17/4 10/18/4 3/19/4 4/20/4
f 6/12/5 5/11/5 1/21/5 2/22/5
f 2/22/4 1/21/4 10/18/4 12/17/4
f 6/12/3 2/22/3 12/14/3 9/13/3
f 8/23/2 7/24/2 11/10/2 9/9/2
f 18/25/5 17/26/5 14/27/5 15/28/5
f 15/28/1 14/27/1 13/29/1 16/30/1
f 16/30/1 13/29/1 21/31/1 22/32/1
f 19/33/4 18/34/4 15/28/4 16/30/4
f 17/35/2 20/36/2 13/29/2 14/27/2
f 5/37/2 11/38/2 20/39/2 17/26/2
f 10/40/4 1/41/4 18/25/4 19/42/4
f 11/43/6 10/44/6 19/45/6 20/46/6
f 1/41/5 5/37/5 17/26/5 18/25/5
f 24/47/6 23/48/6 22/32/6 21/31/6
f 20/46/3 19/45/3 23/48/3 24/47/3
f 19/33/4 16/30/4 22/32/4 23/49/4
f 13/29/2 20/36/2 24/50/2 21/31/2
f 27/51/6 28/52/6 32/53/6 31/54/6
f 11/55/1 7/56/1 26/57/1 28/58/1
f 10/59/1 11/60/1 28/52/1 27/51/1
f 7/61/1 3/62/1 25/63/1 26/64/1
f 31/54/1 32/53/1 30/65/1 29/66/1
f 25/4/2 27/3/2 31/54/2 29/66/2
f 28/58/4 26/57/4 30/65/4 32/53/4
f 26/64/5 25/63/5 29/66/5 30/65/5
f 7/67/2 8/68/2 37/69/2 38/70/2
f 33/71/4 34/72/4 42/73/4 41/7/4
f 34/74/3 35/75/3 43/76/3 42/73/3
f 37/69/6 40/77/6 44/8/6 41/7/6
f 39/78/6 38/70/6 42/73/6 43/76/6
f 40/77/6 39/78/6 43/76/6 44/8/6
f 38/70/6 37/69/6 41/7/6 42/73/6
f 8/79/3 4/80/3 40/77/3 37/69/3
f 35/81/2 36/82/2 44/8/2 43/76/2
f 3/62/1 7/61/1 38/70/1 39/78/1
f 4/83/4 3/84/4 39/78/4 40/77/4
o Stove_Door
v -1.447287 0.584196 1.597616
v -1.447287 2.584196 1.597616
v -1.447287 0.584196 1.432960
v -1.447287 2.584196 1.432960
v 1.364497 0.584196 1.597616
v 1.364497 2.584196 1.597616
v 1.364497 0.584196 1.432960
v 1.364497 2.584196 1.432960
vn -1.0000 -0.0000 -0.0000
vn -0.0000 -0.0000 -1.0000
vn 1.0000 -0.0000 -0.0000
vn -0.0000 -0.0000 1.0000
vn -0.0000 -1.0000 -0.0000
vn -0.0000 1.0000 -0.0000
vt 0.185898 0.009893
vt 0.313790 0.009880
vt 0.313791 0.020409
vt 0.185899 0.020422
vt 0.008499 0.240856
vt 0.008477 0.028291
vt 0.307320 0.028260
vt 0.307342 0.240825
vt 0.621485 0.020376
vt 0.493593 0.020390
vt 0.493592 0.009861
vt 0.621484 0.009847
vt 0.618431 0.027536
vt 0.618453 0.243918
vt 0.314243 0.243950
vt 0.314220 0.027567
vt 0.006096 0.020441
vt 0.006095 0.009912
s 0
f 45/85/7 46/86/7 48/87/7 47/88/7
f 47/89/8 48/90/8 52/91/8 51/92/8
f 51/93/9 52/94/9 50/95/9 49/96/9
f 49/97/10 50/98/10 46/99/10 45/100/10
f 47/88/11 51/101/11 49/102/11 45/85/11
f 52/94/12 48/87/12 46/86/12 50/95/12
o Knobs
v -1.004831 2.908340 1.524896
v -1.004831 2.909707 1.548135
v -0.980432 2.906054 1.526883
v -0.980432 2.907187 1.546150
v -0.956971 2.898820 1.524900
v -0.956971 2.900187 1.548139
v -0.933157 2.886598 1.524905
v -0.933157 2.887965 1.548144
v -0.912185 2.869965 1.524912
v -0.912185 2.871333 1.548151
v -0.894861 2.849560 1.524921
v -0.894861 2.850928 1.548160
v -0.881850 2.826168 1.524931
v -0.881850 2.827535 1.548170
v -0.873654 2.800687 1.524942
v -0.873654 2.802054 1.548181
v -0.870585 2.774096 1.524953
v -0.870585 2.775463 1.548192
v -0.872764 2.747418 1.524965
v -0.872764 2.748785 1.548204
v -0.880105 2.721677 1.524976
v -0.880105 2.723044 1.548214
v -0.892327 2.697863 1.524986
v -0.892327 2.699230 1.548225
v -0.908961 2.676891 1.524994
v -0.908961 2.678258 1.548234
v -0.929365 2.659567 1.525002
v -0.929365 2.660934 1.548241
v -0.952759 2.646557 1.525007
v -0.952759 2.647924 1.548246
v -0.978240 2.638360 1.525011
v -0.978240 2.639727 1.548250
v -1.004831 2.635292 1.525012
v -1.004831 2.636659 1.548251
v -1.035982 2.638360 1.525011
v -1.035982 2.639727 1.548250
v -1.061464 2.646557 1.525007
v -1.061464 2.647924 1.548246
v -1.084857 2.659567 1.525002
v -1.084857 2.660934 1.548241
v -1.105262 2.676891 1.524994
v -1.105262 2.678258 1.548234
v -1.121895 2.697863 1.524986
v -1.121895 2.699230 1.548225
v -1.134117 2.721677 1.524976
v -1.134117 2.723044 1.548214
v -1.141458 2.747418 1.524965
v -1.141458 2.748785 1.548204
v -1.143637 2.774096 1.524953
v -1.143637 2.775463 1.548192
v -1.140569 2.800687 1.524942
v -1.140569 2.802054 1.548181
v -1.132372 2.826168 1.524931
v -1.132372 2.827535 1.548170
v -1.119361 2.849560 1.524921
v -1.119361 2.850928 1.548160
v -1.102037 2.869965 1.524912
v -1.102037 2.871333 1.548151
v -1.081065 2.886598 1.524905
v -1.081065 2.887965 1.548144
v -1.057251 2.898820 1.524900
v -1.057251 2.900187 1.548139
v -1.031510 2.906162 1.524897
v -1.031510 2.907529 1.548136
v -0.985013 2.884243 1.546493
v -1.005189 2.886326 1.548134
v -0.965613 2.878454 1.548138
v -0.945920 2.868348 1.548142
v -0.928578 2.854594 1.548148
v -0.914252 2.837720 1.548155
v -0.903493 2.818377 1.548163
v -0.896715 2.797306 1.548172
v -0.894178 2.775317 1.548182
v -0.895980 2.753256 1.548191
v -0.902050 2.731971 1.548200
v -0.912157 2.712279 1.548208
v -0.925911 2.694937 1.548216
v -0.942785 2.680611 1.548222
v -0.962129 2.669852 1.548226
v -0.983200 2.663074 1.548229
v -1.005189 2.660537 1.548230
v -1.030948 2.663074 1.548229
v -1.052019 2.669852 1.548226
v -1.071363 2.680611 1.548222
v -1.088237 2.694937 1.548216
v -1.101991 2.712279 1.548208
v -1.112098 2.731971 1.548200
v -1.118169 2.753256 1.548191
v -1.119970 2.775317 1.548182
v -1.117433 2.797306 1.548172
v -1.110655 2.818377 1.548163
v -1.099896 2.837720 1.548155
v -1.085570 2.854594 1.548148
v -1.068228 2.868348 1.548142
v -1.048536 2.878454 1.548138
v -1.027250 2.884525 1.548135
v -0.985008 2.884275 1.572609
v -1.005184 2.886359 1.574250
v -0.965608 2.878487 1.574254
v -0.945916 2.868380 1.574258
v -0.928573 2.854626 1.574264
v -0.914248 2.837753 1.574271
v -0.903489 2.818409 1.574279
v -0.896711 2.797338 1.574288
v -0.894174 2.775350 1.574297
v -0.895975 2.753289 1.574307
v -0.902046 2.732003 1.574316
v -0.912153 2.712311 1.574324
v -0.925907 2.694969 1.574332
v -0.942780 2.680643 1.574338
v -0.962125 2.669885 1.574342
v -0.983196 2.663107 1.574345
v -1.005184 2.660570 1.574346
v -1.030944 2.663107 1.574345
v -1.052015 2.669885 1.574342
v -1.071359 2.680643 1.574338
v -1.088233 2.694969 1.574332
v -1.101987 2.712311 1.574324
v -1.112094 2.732003 1.574316
v -1.118164 2.753289 1.574307
v -1.119966 2.775350 1.574297
v -1.117429 2.797338 1.574288
v -1.110651 2.818409 1.574279
v -1.099892 2.837753 1.574271
v -1.085566 2.854626 1.574264
v -1.068224 2.868380 1.574258
v -1.048531 2.878487 1.574254
v -1.027245 2.884557 1.574251
v -0.570873 2.913502 1.533946
v -0.570873 2.914869 1.557185
v -0.546474 2.911215 1.535933
v -0.546474 2.912349 1.555200
v -0.523013 2.903982 1.533950
v -0.523013 2.905349 1.557189
v -0.499199 2.891760 1.533955
v -0.499199 2.893127 1.557194
v -0.478226 2.875127 1.533962
v -0.478226 2.876494 1.557201
v -0.460902 2.854722 1.533971
v -0.460902 2.856089 1.557210
v -0.447891 2.831330 1.533981
v -0.447891 2.832697 1.557220
v -0.439695 2.805848 1.533991
v -0.439695 2.807215 1.557230
v -0.436627 2.779258 1.534003
v -0.436627 2.780625 1.557242
v -0.438805 2.752579 1.534014
v -0.438805 2.753946 1.557253
v -0.446147 2.726839 1.534025
v -0.446147 2.728206 1.557264
v -0.458369 2.703025 1.534035
v -0.458369 2.704392 1.557274
v -0.475002 2.682053 1.534044
v -0.475002 2.683420 1.557283
v -0.495407 2.664729 1.534051
v -0.495407 2.666096 1.557290
v -0.518800 2.651718 1.534057
v -0.518800 2.653085 1.557296
v -0.544282 2.643522 1.534060
v -0.544282 2.644889 1.557299
v -0.570873 2.640454 1.534062
v -0.570873 2.641821 1.557301
v -0.602024 2.643522 1.534060
v -0.602024 2.644889 1.557299
v -0.627505 2.651718 1.534057
v -0.627505 2.653085 1.557296
v -0.650898 2.664729 1.534051
v -0.650898 2.666096 1.557290
v -0.671303 2.682053 1.534044
v -0.671303 2.683420 1.557283
v -0.687937 2.703025 1.534035
v -0.687937 2.704392 1.557274
v -0.700158 2.726839 1.534025
v -0.700158 2.728206 1.557264
v -0.707500 2.752579 1.534014
v -0.707500 2.753946 1.557253
v -0.709678 2.779258 1.534003
v -0.709678 2.780625 1.557242
v -0.706610 2.805848 1.533991
v -0.706610 2.807215 1.557230
v -0.698414 2.831330 1.533981
v -0.698414 2.832697 1.557220
v -0.685403 2.854722 1.533971
v -0.685403 2.856089 1.557210
v -0.668079 2.875127 1.533962
v -0.668079 2.876494 1.557201
v -0.647106 2.891760 1.533955
v -0.647106 2.893127 1.557194
v -0.623292 2.903982 1.533950
v -0.623292 2.905349 1.557189
v -0.597551 2.911323 1.533947
v -0.597551 2.912690 1.557186
v -0.551054 2.889404 1.555542
v -0.571230 2.891488 1.557184
v -0.531654 2.883616 1.557187
v -0.511962 2.873509 1.557191
v -0.494619 2.859755 1.557197
v -0.480294 2.842882 1.557205
v -0.469535 2.823538 1.557213
v -0.462757 2.802467 1.557222
v -0.460220 2.780479 1.557231
v -0.462021 2.758418 1.557240
v -0.468092 2.737132 1.557249
v -0.478198 2.717440 1.557258
v -0.491953 2.700098 1.557265
v -0.508826 2.685772 1.557271
v -0.528170 2.675014 1.557276
v -0.549242 2.668236 1.557279
v -0.571230 2.665699 1.557280
v -0.596990 2.668236 1.557279
v -0.618061 2.675014 1.557276
v -0.637405 2.685772 1.557271
v -0.654279 2.700098 1.557265
v -0.668033 2.717440 1.557258
v -0.678139 2.737132 1.557249
v -0.684210 2.758418 1.557240
v -0.686012 2.780479 1.557231
v -0.683474 2.802467 1.557222
v -0.676697 2.823538 1.557213
v -0.665938 2.842882 1.557205
v -0.651612 2.859755 1.557197
v -0.634269 2.873509 1.557191
v -0.614577 2.883616 1.557187
v -0.593291 2.889686 1.557185
v -0.551050 2.889436 1.581658
v -0.571226 2.891520 1.583300
v -0.531650 2.883648 1.583303
v -0.511957 2.873542 1.583307
v -0.494615 2.859787 1.583313
v -0.480289 2.842914 1.583320
v -0.469530 2.823570 1.583329
v -0.462753 2.802500 1.583338
v -0.460215 2.780511 1.583347
v -0.462017 2.758450 1.583356
v -0.468087 2.737165 1.583365
v -0.478194 2.717473 1.583374
v -0.491948 2.700130 1.583381
v -0.508822 2.685805 1.583387
v -0.528166 2.675046 1.583392
v -0.549237 2.668268 1.583395
v -0.571226 2.665731 1.583396
v -0.596986 2.668268 1.583395
v -0.618057 2.675046 1.583392
v -0.637401 2.685805 1.583387
v -0.654274 2.700130 1.583381
v -0.668029 2.717473 1.583374
v -0.678135 2.737165 1.583365
v -0.684206 2.758450 1.583356
v -0.686007 2.780511 1.583347
v -0.683470 2.802500 1.583338
v -0.676692 2.823570 1.583329
v -0.665933 2.842914 1.583320
v -0.651608 2.859787 1.583313
v -0.634265 2.873542 1.583307
v -0.614573 2.883648 1.583303
v -0.593287 2.889719 1.583301
v 0.516161 2.911544 1.532125
v 0.516161 2.912911 1.555364
v 0.540560 2.909257 1.534112
v 0.540560 2.910391 1.553379
v 0.564020 2.902024 1.532129
v 0.564020 2.903391 1.555369
v 0.587835 2.889802 1.532135
v 0.587835 2.891169 1.555374
v 0.608807 2.873169 1.532142
v 0.608807 2.874536 1.555381
v 0.626131 2.852764 1.532150
v 0.626131 2.854131 1.555389
v 0.639142 2.829372 1.532160
v 0.639142 2.830739 1.555399
v 0.647339 2.803890 1.532171
v 0.647339 2.805258 1.555410
v 0.650407 2.777300 1.532182
v 0.650407 2.778667 1.555421
v 0.648228 2.750621 1.532194
v 0.648228 2.751988 1.555433
v 0.640887 2.724881 1.532205
v 0.640887 2.726248 1.555444
v 0.628665 2.701067 1.532215
v 0.628665 2.702434 1.555454
v 0.612032 2.680095 1.532224
v 0.612032 2.681462 1.555463
v 0.591626 2.662771 1.532231
v 0.591626 2.664138 1.555470
v 0.568234 2.649760 1.532237
v 0.568234 2.651128 1.555476
v 0.542752 2.641564 1.532240
v 0.542752 2.642931 1.555479
v 0.516161 2.638496 1.532241
v 0.516161 2.639863 1.555480
v 0.485010 2.641564 1.532240
v 0.485010 2.642931 1.555479
v 0.459528 2.649760 1.532237
v 0.459528 2.651128 1.555476
v 0.436136 2.662771 1.532231
v 0.436136 2.664138 1.555470
v 0.415730 2.680095 1.532224
v 0.415730 2.681462 1.555463
v 0.399097 2.701067 1.532215
v 0.399097 2.702434 1.555454
v 0.386875 2.724881 1.532205
v 0.386875 2.726248 1.555444
v 0.379534 2.750621 1.532194
v 0.379534 2.751988 1.555433
v 0.377355 2.777300 1.532182
v 0.377355 2.778667 1.555421
v 0.380423 2.803890 1.532171
v 0.380423 2.805258 1.555410
v 0.388620 2.829372 1.532160
v 0.388620 2.830739 1.555399
v 0.401631 2.852764 1.532150
v 0.401631 2.854131 1.555389
v 0.418955 2.873169 1.532142
v 0.418955 2.874536 1.555381
v 0.439927 2.889802 1.532135
v 0.439927 2.891169 1.555374
v 0.463742 2.902024 1.532129
v 0.463742 2.903391 1.555369
v 0.489483 2.909365 1.532126
v 0.489483 2.910732 1.555365
v 0.535979 2.887446 1.553722
v 0.515803 2.889530 1.555364
v 0.555380 2.881658 1.555367
v 0.575072 2.871551 1.555371
v 0.592414 2.857797 1.555377
v 0.606740 2.840924 1.555384
v 0.617499 2.821580 1.555393
v 0.624277 2.800509 1.555401
v 0.626814 2.778521 1.555411
v 0.625013 2.756460 1.555420
v 0.618942 2.735174 1.555429
v 0.608835 2.715482 1.555438
v 0.595081 2.698140 1.555445
v 0.578207 2.683815 1.555451
v 0.558863 2.673056 1.555456
v 0.537792 2.666278 1.555458
v 0.515803 2.663741 1.555459
v 0.490044 2.666278 1.555458
v 0.468972 2.673056 1.555456
v 0.449629 2.683815 1.555451
v 0.432755 2.698140 1.555445
v 0.419001 2.715482 1.555438
v 0.408894 2.735174 1.555429
v 0.402823 2.756460 1.555420
v 0.401022 2.778521 1.555411
v 0.403559 2.800509 1.555401
v 0.410337 2.821580 1.555393
v 0.421096 2.840924 1.555384
v 0.435422 2.857797 1.555377
v 0.452764 2.871551 1.555371
v 0.472457 2.881658 1.555367
v 0.493742 2.887729 1.555364
v 0.535983 2.887479 1.579838
v 0.515807 2.889563 1.581480
v 0.555384 2.881690 1.581483
v 0.575076 2.871584 1.581487
v 0.592418 2.857830 1.581493
v 0.606745 2.840956 1.581500
v 0.617503 2.821613 1.581508
v 0.624281 2.800542 1.581517
v 0.626818 2.778553 1.581527
v 0.625017 2.756492 1.581536
v 0.618946 2.735207 1.581545
v 0.608839 2.715515 1.581553
v 0.595085 2.698173 1.581561
v 0.578212 2.683847 1.581567
v 0.558868 2.673088 1.581571
v 0.537796 2.666310 1.581574
v 0.515807 2.663773 1.581575
v 0.490048 2.666310 1.581574
v 0.468977 2.673088 1.581571
v 0.449633 2.683847 1.581567
v 0.432760 2.698173 1.581561
v 0.419005 2.715515 1.581553
v 0.408899 2.735207 1.581545
v 0.402828 2.756492 1.581536
v 0.401026 2.778553 1.581527
v 0.403563 2.800542 1.581517
v 0.410342 2.821613 1.581508
v 0.421100 2.840956 1.581500
v 0.435426 2.857830 1.581493
v 0.452768 2.871584 1.581487
v 0.472461 2.881690 1.581483
v 0.493747 2.887761 1.581480
v 0.950119 2.899976 1.535452
v 0.950119 2.901343 1.558691
v 0.974518 2.897690 1.537439
v 0.974518 2.898823 1.556706
v 0.997979 2.890456 1.535456
v 0.997979 2.891823 1.558695
v 1.021793 2.878234 1.535461
v 1.021793 2.879601 1.558700
v 1.042766 2.861601 1.535468
v 1.042766 2.862968 1.558707
v 1.060090 2.841196 1.535477
v 1.060090 2.842563 1.558716
v 1.073101 2.817804 1.535487
v 1.073101 2.819171 1.558726
v 1.081297 2.792322 1.535498
v 1.081297 2.793690 1.558737
v 1.084365 2.765732 1.535509
v 1.084365 2.767099 1.558748
v 1.082187 2.739053 1.535520
v 1.082187 2.740421 1.558759
v 1.074846 2.713313 1.535531
v 1.074846 2.714680 1.558770
v 1.062624 2.689499 1.535541
v 1.062624 2.690866 1.558780
v 1.045990 2.668527 1.535550
v 1.045990 2.669894 1.558789
v 1.025585 2.651203 1.535558
v 1.025585 2.652570 1.558797
v 1.002192 2.638192 1.535563
v 1.002192 2.639560 1.558802
v 0.976711 2.629996 1.535567
v 0.976711 2.631363 1.558806
v 0.950119 2.626928 1.535568
v 0.950119 2.628295 1.558807
v 0.918969 2.629996 1.535567
v 0.918969 2.631363 1.558806
v 0.893487 2.638192 1.535563
v 0.893487 2.639560 1.558802
v 0.870094 2.651203 1.535558
v 0.870094 2.652570 1.558797
v 0.849689 2.668527 1.535550
v 0.849689 2.669894 1.558789
v 0.833056 2.689499 1.535541
v 0.833056 2.690866 1.558780
v 0.820834 2.713313 1.535531
v 0.820834 2.714680 1.558770
v 0.813492 2.739053 1.535520
v 0.813492 2.740421 1.558759
v 0.811314 2.765732 1.535509
v 0.811314 2.767099 1.558748
v 0.814382 2.792322 1.535498
v 0.814382 2.793690 1.558737
v 0.822579 2.817804 1.535487
v 0.822579 2.819171 1.558726
v 0.835589 2.841196 1.535477
v 0.835589 2.842563 1.558716
v 0.852914 2.861601 1.535468
v 0.852914 2.862968 1.558707
v 0.873886 2.878234 1.535461
v 0.873886 2.879601 1.558700
v 0.897700 2.890456 1.535456
v 0.897700 2.891823 1.558695
v 0.923441 2.897797 1.535453
v 0.923441 2.899164 1.558692
v 0.969938 2.875878 1.557049
v 0.949762 2.877962 1.558690
v 0.989338 2.870090 1.558694
v 1.009031 2.859983 1.558698
v 1.026373 2.846229 1.558704
v 1.040699 2.829356 1.558711
v 1.051457 2.810012 1.558719
v 1.058236 2.788941 1.558728
v 1.060773 2.766953 1.558737
v 1.058971 2.744892 1.558747
v 1.052901 2.723607 1.558756
v 1.042794 2.703914 1.558764
v 1.029039 2.686572 1.558771
v 1.012166 2.672246 1.558778
v 0.992822 2.661488 1.558782
v 0.971751 2.654710 1.558785
v 0.949762 2.652173 1.558786
v 0.924003 2.654710 1.558785
v 0.902931 2.661488 1.558782
v 0.883587 2.672246 1.558778
v 0.866714 2.686572 1.558771
v 0.852960 2.703914 1.558764
v 0.842853 2.723607 1.558756
v 0.836782 2.744892 1.558747
v 0.834980 2.766953 1.558737
v 0.837518 2.788941 1.558728
v 0.844296 2.810012 1.558719
v 0.855054 2.829356 1.558711
v 0.869380 2.846229 1.558704
v 0.886723 2.859983 1.558698
v 0.906415 2.870090 1.558694
v 0.927701 2.876161 1.558691
v 0.969942 2.875911 1.583165
v 0.949766 2.877995 1.584806
v 0.989343 2.870122 1.584810
v 1.009035 2.860016 1.584814
v 1.026377 2.846262 1.584820
v 1.040703 2.829388 1.584827
v 1.051462 2.810045 1.584835
v 1.058240 2.788974 1.584844
v 1.060777 2.766985 1.584853
v 1.058976 2.744925 1.584863
v 1.052905 2.723639 1.584872
v 1.042798 2.703947 1.584880
v 1.029044 2.686605 1.584887
v 1.012170 2.672279 1.584893
v 0.992826 2.661520 1.584898
v 0.971755 2.654742 1.584901
v 0.949766 2.652205 1.584902
v 0.924007 2.654742 1.584901
v 0.902936 2.661520 1.584898
v 0.883592 2.672279 1.584893
v 0.866718 2.686605 1.584887
v 0.852964 2.703947 1.584880
v 0.842857 2.723639 1.584872
v 0.836786 2.744925 1.584863
v 0.834985 2.766985 1.584853
v 0.837522 2.788974 1.584844
v 0.844300 2.810045 1.584835
v 0.855059 2.829388 1.584827
v 0.869385 2.846262 1.584820
v 0.886727 2.860016 1.584814
v 0.906420 2.870122 1.584810
v 0.927705 2.876193 1.584807
vn 0.0979 0.9935 -0.0584
vn 0.2898 0.9554 -0.0562
vn 0.4560 0.8884 -0.0523
vn 0.6207 0.7827 -0.0460
vn 0.7618 0.6467 -0.0381
vn 0.8736 0.4859 -0.0286
vn 0.9518 0.3062 -0.0180
vn 0.9934 0.1146 -0.0067
vn 0.9967 -0.0814 0.0048
vn 0.9615 -0.2742 0.0161
vn 0.8894 -0.4564 0.0268
vn 0.7830 -0.6210 0.0365
vn 0.6466 -0.7615 0.0448
vn 0.4854 -0.8728 0.0513
vn 0.3057 -0.9505 0.0559
vn 0.1144 -0.9917 0.0583
vn -0.0978 -0.9935 0.0584
vn -0.3058 -0.9505 0.0559
vn -0.4854 -0.8728 0.0513
vn -0.6466 -0.7615 0.0448
vn -0.7830 -0.6210 0.0365
vn -0.8894 -0.4564 0.0269
vn -0.9615 -0.2742 0.0161
vn -0.9967 -0.0814 0.0048
vn -0.9934 0.1146 -0.0067
vn -0.9518 0.3062 -0.0180
vn -0.8736 0.4859 -0.0286
vn -0.7618 0.6467 -0.0381
vn -0.6207 0.7827 -0.0460
vn -0.4560 0.8884 -0.0523
vn -0.0004 0.0003 1.0000
vn -0.2738 0.9601 -0.0565
vn -0.0812 0.9950 -0.0585
vn 0.0002 0.0004 -1.0000
vn -0.4860 -0.8739 0.0012
vn -0.0001 0.0009 1.0000
vn 0.0005 0.0004 1.0000
vn -0.0002 -0.0000 1.0000
vn -0.0004 0.0007 1.0000
vn 0.0004 0.0007 1.0000
vn 0.0002 -0.0000 1.0000
vn -0.0005 0.0004 1.0000
vn -0.0000 0.0009 1.0000
vn 0.0004 0.0003 1.0000
vn -0.0003 0.0001 1.0000
vn -0.0003 0.0008 1.0000
vn 0.0004 0.0006 1.0000
vn 0.0001 -0.0000 1.0000
vn -0.0005 0.0005 1.0000
vn 0.0001 0.0009 1.0000
vn 0.0004 0.0002 1.0000
vn -0.0004 0.0001 1.0000
vn -0.0002 0.0008 1.0000
vn 0.0004 0.0005 1.0000
vn 0.0810 -0.0013 0.9967
vn -0.0000 -0.0000 1.0000
vn -0.0004 0.0006 1.0000
vn 0.0002 0.0008 1.0000
vn 0.0004 0.0001 1.0000
vn -0.0004 0.0002 1.0000
vn 0.0005 0.0005 1.0000
vn -0.0756 0.0300 0.9967
vn 0.0003 0.0008 1.0000
vn 0.0003 0.0001 1.0000
vn 0.0002 0.0012 1.0000
vn 0.8739 0.4861 -0.0008
vn -0.6472 -0.7623 0.0011
vn 0.9520 0.3062 -0.0005
vn -0.7835 -0.6214 0.0009
vn 0.9934 0.1146 -0.0003
vn -0.8897 -0.4566 0.0007
vn 0.9967 -0.0814 -0.0001
vn -0.9617 -0.2743 0.0005
vn 0.9617 -0.2743 0.0002
vn -0.9967 -0.0814 0.0003
vn 0.8897 -0.4566 0.0004
vn -0.9934 0.1146 -0.0000
vn 0.7835 -0.6214 0.0006
vn -0.9520 0.3062 -0.0002
vn 0.6472 -0.7623 0.0008
vn -0.8739 0.4861 -0.0005
vn 0.4860 -0.8739 0.0010
vn 0.1026 0.9947 -0.0013
vn -0.7623 0.6472 -0.0007
vn 0.3062 -0.9520 0.0011
vn 0.2860 0.9582 -0.0012
vn -0.6214 0.7835 -0.0009
vn 0.1146 -0.9934 0.0012
vn 0.4566 0.8897 -0.0012
vn -0.4566 0.8897 -0.0010
vn -0.0980 -0.9952 0.0013
vn 0.6214 0.7835 -0.0011
vn -0.2743 0.9617 -0.0011
vn -0.3062 -0.9520 0.0012
vn 0.7623 0.6472 -0.0009
vn -0.0814 0.9967 -0.0012
vn 0.4560 0.8885 -0.0523
vn 0.7618 0.6467 -0.0380
vn 0.8894 -0.4564 0.0269
vn -0.7618 0.6467 -0.0380
vn -0.4560 0.8885 -0.0523
vn -0.0813 0.9950 -0.0585
vn -0.0004 0.0005 1.0000
vn 0.8739 0.4861 -0.0007
vn -0.3057 -0.9505 0.0559
vn -0.6208 0.7827 -0.0460
vn -0.4861 -0.8739 0.0012
vn -0.9616 -0.2743 0.0005
vn 0.4861 -0.8739 0.0010
vn 0.8893 -0.4564 0.0269
vn 0.3058 -0.9505 0.0559
vn -0.8893 -0.4564 0.0268
vn 0.9520 0.3062 -0.0006
vn 0.7835 -0.6214 0.0007
vn -0.2743 0.9617 -0.0012
vt 0.335518 0.442490
vt 0.331197 0.439146
vt 0.334751 0.434492
vt 0.338903 0.437182
vt 0.337571 0.429024
vt 0.342952 0.431891
vt 0.340569 0.422813
vt 0.346430 0.425261
vt 0.343195 0.416132
vt 0.349451 0.418132
vt 0.345400 0.409055
vt 0.351977 0.410577
vt 0.347141 0.401650
vt 0.353966 0.402671
vt 0.348378 0.393988
vt 0.355377 0.394488
vt 0.349073 0.386141
vt 0.356173 0.386109
vt 0.349193 0.378189
vt 0.356319 0.377617
vt 0.348710 0.370216
vt 0.355785 0.369102
vt 0.347604 0.362313
vt 0.354550 0.360661
vt 0.345863 0.354578
vt 0.352600 0.352396
vt 0.343485 0.347114
vt 0.349931 0.344416
vt 0.340483 0.340031
vt 0.346551 0.336836
vt 0.336884 0.333443
vt 0.342481 0.329776
vt 0.332745 0.327474
vt 0.337751 0.323364
vt 0.327307 0.321377
vt 0.331665 0.316979
vt 0.322271 0.316948
vt 0.326059 0.312291
vt 0.316946 0.313177
vt 0.320192 0.308319
vt 0.311387 0.310059
vt 0.314113 0.305027
vt 0.305627 0.307575
vt 0.307855 0.302383
vt 0.299657 0.305702
vt 0.301449 0.300349
vt 0.293312 0.304405
vt 0.294937 0.298820
vt 0.293148 0.465455
vt 0.292783 0.461102
vt 0.297611 0.460541
vt 0.298121 0.464746
vt 0.302192 0.459538
vt 0.303054 0.463686
vt 0.306660 0.458089
vt 0.307929 0.462189
vt 0.311037 0.456183
vt 0.312740 0.460227
vt 0.315322 0.453808
vt 0.317484 0.457782
vt 0.319503 0.450943
vt 0.322153 0.454825
vt 0.323563 0.447561
vt 0.326734 0.451322
vt 0.340159 0.400435
vt 0.341188 0.393251
vt 0.327475 0.443634
vt 0.331203 0.447229
vt 0.095433 0.910928
vt 0.100757 0.918627
vt 0.103916 0.927457
vt 0.105905 0.937452
vt 0.105905 0.947643
vt 0.103917 0.957639
vt 0.100017 0.967054
vt 0.094355 0.975528
vt 0.087149 0.982735
vt 0.078675 0.988396
vt 0.069260 0.992297
vt 0.059265 0.994285
vt 0.049073 0.994285
vt 0.039078 0.992297
vt 0.029662 0.988397
vt 0.021189 0.982735
vt 0.013982 0.975528
vt 0.007527 0.965510
vt 0.003944 0.955970
vt 0.002290 0.945913
vt 0.002630 0.935728
vt 0.004951 0.925805
vt 0.009163 0.916524
vt 0.015105 0.908245
vt 0.022548 0.901283
vt 0.031206 0.895907
vt 0.040746 0.892324
vt 0.050802 0.890670
vt 0.060988 0.891010
vt 0.070911 0.893331
vt 0.080191 0.897543
vt 0.088471 0.903485
vt 0.673560 0.315991
vt 0.673562 0.323437
vt 0.664776 0.323437
vt 0.664774 0.315991
vt 0.331033 0.337026
vt 0.327487 0.331485
vt 0.297021 0.456275
vt 0.301126 0.455372
vt 0.332047 0.426287
vt 0.334592 0.420379
vt 0.340349 0.363736
vt 0.338809 0.356567
vt 0.308707 0.315256
vt 0.303549 0.312956
vt 0.316623 0.447172
vt 0.320182 0.443930
vt 0.341747 0.385914
vt 0.322814 0.325854
vt 0.305153 0.454009
vt 0.336822 0.414063
vt 0.336731 0.349662
vt 0.298223 0.311278
vt 0.323566 0.440169
vt 0.341807 0.378495
vt 0.318377 0.321698
vt 0.309089 0.452194
vt 0.338691 0.407394
vt 0.334130 0.343115
vt 0.292783 0.310303
vt 0.326750 0.435856
vt 0.329607 0.431374
vt 0.341346 0.371075
vt 0.313662 0.318168
vt 0.312918 0.449920
vt 0.292860 0.456655
vt 0.115659 0.969514
vt 0.112127 0.960776
vt 0.109793 0.950794
vt 0.109451 0.940548
vt 0.111114 0.930433
vt 0.114718 0.920836
vt 0.120126 0.912127
vt 0.127128 0.904641
vt 0.135457 0.898664
vt 0.144791 0.894427
vt 0.154773 0.892092
vt 0.165018 0.891750
vt 0.175134 0.893413
vt 0.184730 0.897018
vt 0.193439 0.902426
vt 0.200926 0.909428
vt 0.206903 0.917757
vt 0.211674 0.928754
vt 0.213674 0.938808
vt 0.213674 0.949060
vt 0.211675 0.959114
vt 0.207752 0.968585
vt 0.202056 0.977109
vt 0.194808 0.984357
vt 0.186284 0.990052
vt 0.176813 0.993975
vt 0.166759 0.995975
vt 0.156508 0.995975
vt 0.146454 0.993975
vt 0.136983 0.990052
vt 0.128460 0.984357
vt 0.121211 0.977108
vt 0.673512 0.414051
vt 0.673508 0.421497
vt 0.664722 0.421497
vt 0.664727 0.414051
vt 0.673557 0.308545
vt 0.664771 0.308545
vt 0.673518 0.406605
vt 0.664733 0.406605
vt 0.673553 0.301098
vt 0.664767 0.301099
vt 0.673524 0.399159
vt 0.664738 0.399159
vt 0.673548 0.293653
vt 0.664763 0.293653
vt 0.673530 0.391713
vt 0.664745 0.391713
vt 0.673542 0.286207
vt 0.664757 0.286207
vt 0.673536 0.384267
vt 0.664751 0.384267
vt 0.673536 0.278761
vt 0.664751 0.278760
vt 0.673542 0.376821
vt 0.664757 0.376821
vt 0.673530 0.509591
vt 0.673536 0.517037
vt 0.664751 0.517037
vt 0.664744 0.509591
vt 0.673548 0.369375
vt 0.664762 0.369375
vt 0.673524 0.502145
vt 0.664738 0.502145
vt 0.673553 0.361929
vt 0.664767 0.361928
vt 0.673518 0.494699
vt 0.664732 0.494699
vt 0.673557 0.354482
vt 0.664771 0.354482
vt 0.674051 0.450646
vt 0.673499 0.457469
vt 0.664714 0.457469
vt 0.665266 0.450646
vt 0.673512 0.487253
vt 0.664727 0.487253
vt 0.673560 0.347036
vt 0.664774 0.347036
vt 0.673499 0.443835
vt 0.664714 0.443835
vt 0.673508 0.479807
vt 0.664722 0.479807
vt 0.673562 0.339590
vt 0.664776 0.339590
vt 0.673501 0.436389
vt 0.664716 0.436389
vt 0.673504 0.472361
vt 0.664718 0.472361
vt 0.673562 0.330883
vt 0.664777 0.330883
vt 0.673504 0.428943
vt 0.664718 0.428943
vt 0.673501 0.464915
vt 0.664716 0.464915
vt 0.258996 0.354429
vt 0.263499 0.357524
vt 0.260212 0.362371
vt 0.255915 0.359919
vt 0.257705 0.367989
vt 0.252171 0.365430
vt 0.255062 0.374359
vt 0.249073 0.372245
vt 0.252817 0.381178
vt 0.246458 0.379534
vt 0.251014 0.388368
vt 0.244362 0.387219
vt 0.249693 0.395859
vt 0.242822 0.395225
vt 0.248890 0.403579
vt 0.241874 0.403474
vt 0.248639 0.411452
vt 0.241552 0.411885
vt 0.248967 0.419398
vt 0.241885 0.420371
vt 0.249899 0.427332
vt 0.242897 0.428842
vt 0.251448 0.435159
vt 0.244606 0.437201
vt 0.253623 0.442784
vt 0.247019 0.445342
vt 0.256417 0.450102
vt 0.250134 0.453159
vt 0.259814 0.457005
vt 0.253936 0.460536
vt 0.263778 0.463380
vt 0.258397 0.467356
vt 0.268247 0.469105
vt 0.263481 0.473491
vt 0.274021 0.474886
vt 0.269917 0.479523
vt 0.279298 0.479024
vt 0.275779 0.483888
vt 0.284827 0.482489
vt 0.281860 0.487522
vt 0.290553 0.485289
vt 0.288115 0.490467
vt 0.296444 0.487445
vt 0.294512 0.492754
vt 0.302510 0.488978
vt 0.301022 0.494423
vt 0.308918 0.489915
vt 0.307610 0.495583
vt 0.300004 0.329112
vt 0.300613 0.333438
vt 0.295825 0.334270
vt 0.295079 0.330100
vt 0.291308 0.335529
vt 0.290213 0.331436
vt 0.286929 0.337228
vt 0.285430 0.333206
vt 0.282666 0.339377
vt 0.280737 0.335436
vt 0.278521 0.341990
vt 0.276139 0.338145
vt 0.274509 0.345087
vt 0.271645 0.341360
vt 0.270646 0.348692
vt 0.267268 0.345116
vt 0.256733 0.396679
vt 0.256110 0.403909
vt 0.266962 0.352833
vt 0.263037 0.349454
vt 0.310136 0.912158
vt 0.315460 0.919858
vt 0.318619 0.928687
vt 0.320608 0.938683
vt 0.320608 0.948874
vt 0.318620 0.958869
vt 0.314720 0.968285
vt 0.309058 0.976759
vt 0.301852 0.983965
vt 0.293379 0.989627
vt 0.283963 0.993527
vt 0.273968 0.995515
vt 0.263777 0.995515
vt 0.253781 0.993527
vt 0.244366 0.989627
vt 0.235892 0.983965
vt 0.228686 0.976759
vt 0.222231 0.966741
vt 0.218647 0.957200
vt 0.216994 0.947144
vt 0.217334 0.936958
vt 0.219654 0.927035
vt 0.223867 0.917755
vt 0.229808 0.909475
vt 0.237251 0.902513
vt 0.245909 0.897137
vt 0.255449 0.893554
vt 0.265505 0.891901
vt 0.275691 0.892241
vt 0.285614 0.894562
vt 0.294894 0.898774
vt 0.303174 0.904716
vt 0.657565 0.311069
vt 0.657567 0.318515
vt 0.648781 0.318515
vt 0.648779 0.311069
vt 0.269418 0.459473
vt 0.273271 0.464804
vt 0.296654 0.338496
vt 0.292607 0.339629
vt 0.263374 0.370410
vt 0.261167 0.376452
vt 0.258612 0.433330
vt 0.260553 0.440400
vt 0.292936 0.479949
vt 0.298215 0.481955
vt 0.277597 0.348689
vt 0.274226 0.352126
vt 0.255966 0.411266
vt 0.278254 0.470163
vt 0.288663 0.341217
vt 0.259296 0.382885
vt 0.263017 0.447178
vt 0.303627 0.483330
vt 0.271059 0.356073
vt 0.256324 0.418676
vt 0.282918 0.474062
vt 0.284836 0.343251
vt 0.257806 0.389648
vt 0.265983 0.453567
vt 0.309113 0.483997
vt 0.268124 0.360557
vt 0.265524 0.365194
vt 0.257203 0.426059
vt 0.287825 0.477321
vt 0.281141 0.345737
vt 0.300788 0.337882
vt 0.328517 0.967053
vt 0.324985 0.958315
vt 0.322651 0.948333
vt 0.322308 0.938088
vt 0.323971 0.927972
vt 0.327576 0.918376
vt 0.332983 0.909667
vt 0.339986 0.902180
vt 0.348314 0.896203
vt 0.357649 0.891966
vt 0.367631 0.889632
vt 0.377876 0.889290
vt 0.387992 0.890953
vt 0.397588 0.894557
vt 0.406297 0.899965
vt 0.413784 0.906967
vt 0.419760 0.915296
vt 0.424532 0.926293
vt 0.426532 0.936348
vt 0.426532 0.946599
vt 0.424532 0.956653
vt 0.420609 0.966124
vt 0.414914 0.974648
vt 0.407665 0.981897
vt 0.399142 0.987592
vt 0.389671 0.991515
vt 0.379617 0.993514
vt 0.369366 0.993514
vt 0.359312 0.991514
vt 0.349841 0.987591
vt 0.341317 0.981896
vt 0.334069 0.974647
vt 0.657517 0.409129
vt 0.657513 0.416575
vt 0.648727 0.416575
vt 0.648732 0.409129
vt 0.657562 0.303623
vt 0.648776 0.303623
vt 0.657523 0.401683
vt 0.648737 0.401683
vt 0.657558 0.296177
vt 0.648772 0.296177
vt 0.657529 0.394237
vt 0.648743 0.394237
vt 0.657553 0.288731
vt 0.648767 0.288731
vt 0.657535 0.386791
vt 0.648749 0.386791
vt 0.657547 0.281285
vt 0.648762 0.281285
vt 0.657541 0.379345
vt 0.648756 0.379345
vt 0.657541 0.273839
vt 0.648756 0.273839
vt 0.657547 0.371899
vt 0.648762 0.371899
vt 0.657535 0.504670
vt 0.657541 0.512116
vt 0.648756 0.512115
vt 0.648749 0.504670
vt 0.657553 0.364453
vt 0.648767 0.364453
vt 0.657529 0.497224
vt 0.648743 0.497224
vt 0.657557 0.357007
vt 0.648772 0.357007
vt 0.657523 0.489778
vt 0.648737 0.489778
vt 0.657562 0.349561
vt 0.648776 0.349561
vt 0.658056 0.445724
vt 0.657504 0.452547
vt 0.648719 0.452547
vt 0.649271 0.445724
vt 0.657517 0.482332
vt 0.648732 0.482332
vt 0.657565 0.342115
vt 0.648779 0.342115
vt 0.657504 0.438913
vt 0.648719 0.438913
vt 0.657513 0.474886
vt 0.648727 0.474886
vt 0.657566 0.334669
vt 0.648781 0.334669
vt 0.657506 0.431467
vt 0.648721 0.431467
vt 0.657509 0.467439
vt 0.648723 0.467439
vt 0.657567 0.325961
vt 0.648782 0.325961
vt 0.657509 0.424021
vt 0.648723 0.424021
vt 0.657506 0.459993
vt 0.648721 0.459993
vt 0.589208 0.847266
vt 0.585891 0.851608
vt 0.581215 0.848081
vt 0.583880 0.843913
vt 0.575730 0.845295
vt 0.578565 0.839897
vt 0.569501 0.842335
vt 0.571914 0.836460
vt 0.562804 0.839749
vt 0.564766 0.833481
vt 0.555714 0.837587
vt 0.557196 0.831001
vt 0.548299 0.835891
vt 0.549278 0.829060
vt 0.540629 0.834701
vt 0.541087 0.827699
vt 0.532778 0.834054
vt 0.532703 0.826954
vt 0.524825 0.833982
vt 0.524210 0.826860
vt 0.516856 0.834513
vt 0.515699 0.827445
vt 0.508960 0.835667
vt 0.507265 0.828731
vt 0.501235 0.837455
vt 0.499013 0.830731
vt 0.493786 0.839878
vt 0.491049 0.833449
vt 0.486721 0.842923
vt 0.483490 0.836875
vt 0.480155 0.846562
vt 0.476454 0.840988
vt 0.474212 0.850737
vt 0.470071 0.845756
vt 0.468147 0.856212
vt 0.463723 0.851880
vt 0.463750 0.861274
vt 0.459069 0.857515
vt 0.460011 0.866623
vt 0.455133 0.863406
vt 0.456926 0.872200
vt 0.451878 0.869505
vt 0.454477 0.877975
vt 0.449272 0.875778
vt 0.452641 0.883957
vt 0.447277 0.882197
vt 0.451382 0.890310
vt 0.445787 0.888718
vt 0.612430 0.889496
vt 0.608079 0.889887
vt 0.607489 0.885063
vt 0.611691 0.884527
vt 0.606458 0.880488
vt 0.610601 0.879601
vt 0.604982 0.876029
vt 0.609074 0.874735
vt 0.603050 0.871663
vt 0.607084 0.869936
vt 0.600649 0.867393
vt 0.604609 0.865207
vt 0.597758 0.863229
vt 0.601624 0.860556
vt 0.594352 0.859190
vt 0.598094 0.855997
vt 0.547126 0.842881
vt 0.539936 0.841895
vt 0.590402 0.855302
vt 0.593974 0.851552
vt 0.628192 0.911543
vt 0.633516 0.919243
vt 0.636676 0.928072
vt 0.638664 0.938067
vt 0.638664 0.948259
vt 0.636676 0.958254
vt 0.632776 0.967670
vt 0.627115 0.976143
vt 0.619908 0.983350
vt 0.611435 0.989012
vt 0.602019 0.992912
vt 0.592024 0.994900
vt 0.581833 0.994900
vt 0.571837 0.992912
vt 0.562422 0.989012
vt 0.553948 0.983350
vt 0.546742 0.976144
vt 0.540287 0.966125
vt 0.536703 0.956585
vt 0.535050 0.946529
vt 0.535390 0.936343
vt 0.537711 0.926420
vt 0.541923 0.917140
vt 0.547864 0.908860
vt 0.555307 0.901898
vt 0.563965 0.896522
vt 0.573505 0.892939
vt 0.583562 0.891285
vt 0.593747 0.891626
vt 0.603670 0.893946
vt 0.612951 0.898159
vt 0.621231 0.904100
vt 0.690785 0.314760
vt 0.690787 0.322206
vt 0.682002 0.322206
vt 0.682000 0.314760
vt 0.483773 0.852391
vt 0.478254 0.855971
vt 0.603227 0.885679
vt 0.602299 0.881579
vt 0.573027 0.850835
vt 0.567104 0.848327
vt 0.510426 0.842914
vt 0.503267 0.844496
vt 0.462140 0.874849
vt 0.459871 0.880021
vt 0.594005 0.866132
vt 0.590742 0.862593
vt 0.532595 0.841381
vt 0.472652 0.860677
vt 0.600911 0.877561
vt 0.560774 0.846135
vt 0.496374 0.846616
vt 0.458225 0.885357
vt 0.586960 0.859232
vt 0.525177 0.841366
vt 0.468523 0.865140
vt 0.599072 0.873636
vt 0.554093 0.844306
vt 0.489844 0.849257
vt 0.457283 0.890802
vt 0.582628 0.856075
vt 0.578129 0.853244
vt 0.517759 0.841872
vt 0.465021 0.869876
vt 0.596775 0.869821
vt 0.603632 0.889838
vt 0.434946 0.968283
vt 0.431414 0.959545
vt 0.429079 0.949564
vt 0.428737 0.939318
vt 0.430400 0.929203
vt 0.434005 0.919606
vt 0.439412 0.910897
vt 0.446415 0.903410
vt 0.454743 0.897434
vt 0.464078 0.893197
vt 0.474060 0.890862
vt 0.484305 0.890520
vt 0.494420 0.892183
vt 0.504017 0.895788
vt 0.512726 0.901195
vt 0.520213 0.908198
vt 0.526189 0.916527
vt 0.530961 0.927524
vt 0.532961 0.937578
vt 0.532961 0.947829
vt 0.530961 0.957884
vt 0.527038 0.967355
vt 0.521343 0.975878
vt 0.514094 0.983127
vt 0.505571 0.988822
vt 0.496100 0.992745
vt 0.486046 0.994745
vt 0.475795 0.994745
vt 0.465740 0.992745
vt 0.456270 0.988822
vt 0.447746 0.983126
vt 0.440497 0.975878
vt 0.690738 0.412820
vt 0.690733 0.420266
vt 0.681948 0.420266
vt 0.681953 0.412820
vt 0.690782 0.307314
vt 0.681997 0.307314
vt 0.690743 0.405374
vt 0.681958 0.405374
vt 0.690778 0.299868
vt 0.681993 0.299868
vt 0.690749 0.397928
vt 0.681964 0.397928
vt 0.690773 0.292422
vt 0.681988 0.292422
vt 0.690755 0.390482
vt 0.681970 0.390482
vt 0.690768 0.284976
vt 0.681983 0.284976
vt 0.690762 0.383036
vt 0.681976 0.383036
vt 0.690762 0.277530
vt 0.681977 0.277530
vt 0.690768 0.375590
vt 0.681982 0.375590
vt 0.690755 0.508361
vt 0.690762 0.515807
vt 0.681976 0.515807
vt 0.681970 0.508361
vt 0.690773 0.368144
vt 0.681988 0.368144
vt 0.690749 0.500915
vt 0.681964 0.500915
vt 0.690778 0.360698
vt 0.681993 0.360698
vt 0.690743 0.493469
vt 0.681958 0.493469
vt 0.690782 0.353252
vt 0.681997 0.353252
vt 0.691277 0.449415
vt 0.690725 0.456238
vt 0.681939 0.456239
vt 0.682491 0.449415
vt 0.690738 0.486023
vt 0.681953 0.486023
vt 0.690785 0.345806
vt 0.682000 0.345806
vt 0.690725 0.442604
vt 0.681939 0.442604
vt 0.690733 0.478577
vt 0.681948 0.478577
vt 0.690787 0.338360
vt 0.682002 0.338360
vt 0.690727 0.435158
vt 0.681941 0.435158
vt 0.690729 0.471131
vt 0.681944 0.471131
vt 0.690788 0.329652
vt 0.682002 0.329652
vt 0.690729 0.427712
vt 0.681944 0.427712
vt 0.690727 0.463684
vt 0.681941 0.463684
vt 0.423471 0.852499
vt 0.420001 0.856720
vt 0.415454 0.853029
vt 0.418266 0.848958
vt 0.410072 0.850048
vt 0.413098 0.844755
vt 0.403953 0.846869
vt 0.406573 0.841082
vt 0.397352 0.844045
vt 0.399536 0.837851
vt 0.390343 0.841632
vt 0.392060 0.835103
vt 0.382993 0.839672
vt 0.384215 0.832881
vt 0.375371 0.838210
vt 0.376078 0.831228
vt 0.367548 0.837283
vt 0.367726 0.830185
vt 0.359603 0.836928
vt 0.359242 0.829788
vt 0.351619 0.837174
vt 0.350715 0.830069
vt 0.343688 0.838045
vt 0.342241 0.831053
vt 0.335904 0.839557
vt 0.333922 0.832758
vt 0.328373 0.841713
vt 0.325867 0.835190
vt 0.321204 0.844504
vt 0.318191 0.838345
vt 0.314512 0.847906
vt 0.311013 0.842204
vt 0.308424 0.851867
vt 0.304463 0.846742
vt 0.302168 0.857123
vt 0.297902 0.852636
vt 0.297593 0.862025
vt 0.293049 0.858101
vt 0.293666 0.867236
vt 0.288906 0.863848
vt 0.290384 0.872700
vt 0.285435 0.869827
vt 0.287731 0.878384
vt 0.282607 0.876003
vt 0.285682 0.884297
vt 0.280385 0.882346
vt 0.284198 0.890600
vt 0.278663 0.888810
vt 0.445173 0.895530
vt 0.440810 0.895766
vt 0.440392 0.890924
vt 0.444611 0.890538
vt 0.439526 0.886315
vt 0.443698 0.885576
vt 0.438209 0.881806
vt 0.442345 0.880659
vt 0.436434 0.877374
vt 0.440527 0.875792
vt 0.434187 0.873021
vt 0.438223 0.870978
vt 0.431446 0.868757
vt 0.435406 0.866224
vt 0.428186 0.864599
vt 0.432040 0.861541
vt 0.381572 0.846616
vt 0.374422 0.845374
vt 0.424377 0.860573
vt 0.428081 0.856952
vt 0.669411 0.539965
vt 0.674734 0.547664
vt 0.677894 0.556494
vt 0.679882 0.566489
vt 0.679882 0.576680
vt 0.677894 0.586676
vt 0.673995 0.596091
vt 0.668333 0.604565
vt 0.661127 0.611772
vt 0.652653 0.617433
vt 0.643238 0.621334
vt 0.633242 0.623322
vt 0.623051 0.623322
vt 0.613056 0.621334
vt 0.603640 0.617434
vt 0.595166 0.611772
vt 0.587960 0.604565
vt 0.581505 0.594547
vt 0.577921 0.585007
vt 0.576268 0.574951
vt 0.576608 0.564765
vt 0.578929 0.554842
vt 0.583141 0.545561
vt 0.589082 0.537282
vt 0.596525 0.530320
vt 0.605183 0.524944
vt 0.614724 0.521361
vt 0.624780 0.519707
vt 0.634965 0.520047
vt 0.644889 0.522368
vt 0.654169 0.526581
vt 0.662449 0.532522
vt 0.644030 0.308608
vt 0.644032 0.316054
vt 0.635247 0.316054
vt 0.635245 0.308608
vt 0.317921 0.853861
vt 0.312278 0.857242
vt 0.436111 0.891387
vt 0.435330 0.887257
vt 0.407173 0.855489
vt 0.401343 0.852771
vt 0.344895 0.845340
vt 0.337684 0.846666
vt 0.295500 0.875533
vt 0.293048 0.880621
vt 0.427592 0.871524
vt 0.424457 0.867871
vt 0.367104 0.844599
vt 0.306511 0.861745
vt 0.434086 0.883191
vt 0.395095 0.850355
vt 0.330720 0.848539
vt 0.291214 0.885895
vt 0.420797 0.864377
vt 0.359691 0.844319
vt 0.302225 0.866058
vt 0.432389 0.879204
vt 0.388484 0.848289
vt 0.324099 0.850946
vt 0.290077 0.891303
vt 0.416581 0.861067
vt 0.412186 0.858078
vt 0.352260 0.844561
vt 0.298557 0.870667
vt 0.430229 0.875309
vt 0.436368 0.895558
vt 0.621965 0.892614
vt 0.618433 0.883876
vt 0.616099 0.873895
vt 0.615757 0.863649
vt 0.617420 0.853534
vt 0.621024 0.843937
vt 0.626432 0.835228
vt 0.633434 0.827741
vt 0.641763 0.821765
vt 0.651097 0.817528
vt 0.661079 0.815193
vt 0.671325 0.814851
vt 0.681440 0.816514
vt 0.691037 0.820119
vt 0.699745 0.825526
vt 0.707232 0.832529
vt 0.713209 0.840858
vt 0.717981 0.851855
vt 0.719981 0.861909
vt 0.719981 0.872160
vt 0.717981 0.882215
vt 0.714058 0.891685
vt 0.708363 0.900209
vt 0.701114 0.907458
vt 0.692590 0.913153
vt 0.683119 0.917076
vt 0.673065 0.919076
vt 0.662814 0.919076
vt 0.652760 0.917076
vt 0.643289 0.913153
vt 0.634766 0.907457
vt 0.627517 0.900209
vt 0.643983 0.406668
vt 0.643978 0.414114
vt 0.635193 0.414114
vt 0.635198 0.406668
vt 0.644027 0.301162
vt 0.635242 0.301162
vt 0.643988 0.399222
vt 0.635203 0.399222
vt 0.644023 0.293716
vt 0.635238 0.293716
vt 0.643994 0.391776
vt 0.635209 0.391776
vt 0.644019 0.286270
vt 0.635233 0.286270
vt 0.644001 0.384330
vt 0.635215 0.384330
vt 0.644013 0.278824
vt 0.635228 0.278824
vt 0.644007 0.376884
vt 0.635221 0.376884
vt 0.644007 0.271378
vt 0.635222 0.271378
vt 0.644013 0.369438
vt 0.635227 0.369438
vt 0.644001 0.502209
vt 0.644007 0.509655
vt 0.635221 0.509655
vt 0.635215 0.502209
vt 0.644018 0.361992
vt 0.635233 0.361992
vt 0.643994 0.494763
vt 0.635209 0.494763
vt 0.644023 0.354546
vt 0.635238 0.354546
vt 0.643988 0.487317
vt 0.635203 0.487317
vt 0.644027 0.347100
vt 0.635242 0.347100
vt 0.644522 0.443263
vt 0.643970 0.450087
vt 0.635185 0.450087
vt 0.635736 0.443263
vt 0.643983 0.479871
vt 0.635198 0.479871
vt 0.644030 0.339654
vt 0.635245 0.339654
vt 0.643970 0.436452
vt 0.635185 0.436452
vt 0.643978 0.472425
vt 0.635193 0.472425
vt 0.644032 0.332208
vt 0.635247 0.332208
vt 0.643972 0.429006
vt 0.635186 0.429006
vt 0.643974 0.464979
vt 0.635189 0.464979
vt 0.644033 0.323500
vt 0.635248 0.323500
vt 0.643974 0.421560
vt 0.635189 0.421560
vt 0.643972 0.457533
vt 0.635186 0.457533
s 0
f 53/103/13 54/104/13 56/105/13 55/106/13
f 55/106/14 56/105/14 58/107/14 57/108/14
f 57/108/15 58/107/15 60/109/15 59/110/15
f 59/110/16 60/109/16 62/111/16 61/112/16
f 61/112/17 62/111/17 64/113/17 63/114/17
f 63/114/18 64/113/18 66/115/18 65/116/18
f 65/116/19 66/115/19 68/117/19 67/118/19
f 67/118/20 68/117/20 70/119/20 69/120/20
f 69/120/21 70/119/21 72/121/21 71/122/21
f 71/122/22 72/121/22 74/123/22 73/124/22
f 73/124/23 74/123/23 76/125/23 75/126/23
f 75/126/24 76/125/24 78/127/24 77/128/24
f 77/128/25 78/127/25 80/129/25 79/130/25
f 79/130/26 80/129/26 82/131/26 81/132/26
f 81/132/27 82/131/27 84/133/27 83/134/27
f 83/134/28 84/133/28 86/135/28 85/136/28
f 85/136/29 86/135/29 88/137/29 87/138/29
f 87/138/30 88/137/30 90/139/30 89/140/30
f 89/140/31 90/139/31 92/141/31 91/142/31
f 91/142/32 92/141/32 94/143/32 93/144/32
f 93/144/33 94/143/33 96/145/33 95/146/33
f 95/146/34 96/145/34 98/147/34 97/148/34
f 97/148/35 98/147/35 100/149/35 99/150/35
f 99/151/36 100/152/36 102/153/36 101/154/36
f 101/154/37 102/153/37 104/155/37 103/156/37
f 103/156/38 104/155/38 106/157/38 105/158/38
f 105/158/39 106/157/39 108/159/39 107/160/39
f 107/160/40 108/159/40 110/161/40 109/162/40
f 109/162/41 110/161/41 112/163/41 111/164/41
f 111/164/42 112/163/42 114/165/42 113/166/42
f 68/117/43 66/115/43 123/167/43 124/168/43
f 113/166/44 114/165/44 116/169/44 115/170/44
f 115/170/45 116/169/45 54/104/45 53/103/45
f 53/171/46 55/172/46 57/173/46 59/174/46 61/175/46 63/176/46 65/177/46 67/178/46 69/179/46 71/180/46 73/181/46 75/182/46 77/183/46 79/184/46 81/185/46 83/186/46 85/187/46 87/188/46 89/189/46 91/190/46 93/191/46 95/192/46 97/193/46 99/194/46 101/195/46 103/196/46 105/197/46 107/198/46 109/199/46 111/200/46 113/201/46 115/202/46
f 136/203/47 135/204/47 167/205/47 168/206/47
f 86/135/48 84/133/48 132/207/48 133/208/48
f 104/155/49 102/153/49 141/209/49 142/210/49
f 60/109/50 58/107/50 119/211/50 120/212/50
f 78/127/51 76/125/51 128/213/51 129/214/51
f 96/145/52 94/143/52 137/215/52 138/216/52
f 114/165/53 112/163/53 146/217/53 147/218/53
f 70/119/54 68/117/54 124/168/54 125/219/54
f 88/137/55 86/135/55 133/208/55 134/220/55
f 106/157/56 104/155/56 142/210/56 143/221/56
f 62/111/57 60/109/57 120/212/57 121/222/57
f 80/129/58 78/127/58 129/214/58 130/223/58
f 98/147/59 96/145/59 138/216/59 139/224/59
f 116/169/60 114/165/60 147/218/60 148/225/60
f 72/121/61 70/119/61 125/219/61 126/226/61
f 90/139/62 88/137/62 134/220/62 135/227/62
f 108/159/63 106/157/63 143/221/63 144/228/63
f 64/113/64 62/111/64 121/222/64 122/229/64
f 82/131/65 80/129/65 130/223/65 131/230/65
f 100/149/66 98/147/66 139/224/66 140/231/66
f 56/105/67 54/104/67 118/232/67 117/233/67
f 54/104/68 116/169/68 148/225/68 118/232/68
f 74/123/69 72/121/69 126/226/69 127/234/69
f 92/141/70 90/139/70 135/227/70 136/235/70
f 110/161/71 108/159/71 144/228/71 145/236/71
f 66/115/72 64/113/72 122/229/72 123/167/72
f 84/133/48 82/131/48 131/230/48 132/207/48
f 102/153/73 100/152/73 140/237/73 141/209/73
f 58/107/74 56/105/74 117/233/74 119/211/74
f 76/125/69 74/123/69 127/234/69 128/213/69
f 94/143/75 92/141/75 136/235/75 137/215/75
f 112/163/76 110/161/76 145/236/76 146/217/76
f 149/238/77 150/239/77 180/240/77 179/241/77 178/242/77 177/243/77 176/244/77 175/245/77 174/246/77 173/247/77 172/248/77 171/249/77 170/250/77 169/251/77 168/252/77 167/253/77 166/254/77 165/255/77 164/256/77 163/257/77 162/258/77 161/259/77 160/260/77 159/261/77 158/262/77 157/263/77 156/264/77 155/265/77 154/266/77 153/267/77 152/268/77 151/269/77
f 123/270/78 122/271/78 154/272/78 155/273/78
f 137/274/79 136/203/79 168/206/79 169/275/79
f 124/276/80 123/270/80 155/273/80 156/277/80
f 138/278/81 137/274/81 169/275/81 170/279/81
f 125/280/82 124/276/82 156/277/82 157/281/82
f 139/282/83 138/278/83 170/279/83 171/283/83
f 126/284/84 125/280/84 157/281/84 158/285/84
f 140/286/85 139/282/85 171/283/85 172/287/85
f 127/288/86 126/284/86 158/285/86 159/289/86
f 141/290/87 140/286/87 172/287/87 173/291/87
f 128/292/88 127/288/88 159/289/88 160/293/88
f 142/294/89 141/295/89 173/296/89 174/297/89
f 129/298/90 128/292/90 160/293/90 161/299/90
f 143/300/91 142/294/91 174/297/91 175/301/91
f 130/302/92 129/298/92 161/299/92 162/303/92
f 144/304/93 143/300/93 175/301/93 176/305/93
f 131/306/94 130/302/94 162/303/94 163/307/94
f 117/308/95 118/309/95 150/310/95 149/311/95
f 145/312/96 144/304/96 176/305/96 177/313/96
f 132/314/97 131/306/97 163/307/97 164/315/97
f 119/316/98 117/308/98 149/311/98 151/317/98
f 146/318/99 145/312/99 177/313/99 178/319/99
f 133/320/100 132/314/100 164/315/100 165/321/100
f 120/322/101 119/316/101 151/317/101 152/323/101
f 147/324/102 146/318/102 178/319/102 179/325/102
f 134/326/103 133/320/103 165/321/103 166/327/103
f 121/328/104 120/322/104 152/323/104 153/329/104
f 148/330/105 147/324/105 179/325/105 180/331/105
f 135/204/106 134/326/106 166/327/106 167/205/106
f 122/271/107 121/328/107 153/329/107 154/272/107
f 118/309/108 148/330/108 180/331/108 150/310/108
f 181/332/13 182/333/13 184/334/13 183/335/13
f 183/335/14 184/334/14 186/336/14 185/337/14
f 185/337/109 186/336/109 188/338/109 187/339/109
f 187/339/16 188/338/16 190/340/16 189/341/16
f 189/341/110 190/340/110 192/342/110 191/343/110
f 191/343/18 192/342/18 194/344/18 193/345/18
f 193/345/19 194/344/19 196/346/19 195/347/19
f 195/347/20 196/346/20 198/348/20 197/349/20
f 197/349/21 198/348/21 200/350/21 199/351/21
f 199/351/22 200/350/22 202/352/22 201/353/22
f 201/353/111 202/352/111 204/354/111 203/355/111
f 203/355/24 204/354/24 206/356/24 205/357/24
f 205/357/25 206/356/25 208/358/25 207/359/25
f 207/359/26 208/358/26 210/360/26 209/361/26
f 209/361/27 210/360/27 212/362/27 211/363/27
f 211/363/28 212/362/28 214/364/28 213/365/28
f 213/365/29 214/364/29 216/366/29 215/367/29
f 215/367/30 216/366/30 218/368/30 217/369/30
f 217/369/31 218/368/31 220/370/31 219/371/31
f 219/371/32 220/370/32 222/372/32 221/373/32
f 221/373/33 222/372/33 224/374/33 223/375/33
f 223/375/34 224/374/34 226/376/34 225/377/34
f 225/377/35 226/376/35 228/378/35 227/379/35
f 227/380/36 228/381/36 230/382/36 229/383/36
f 229/383/37 230/382/37 232/384/37 231/385/37
f 231/385/38 232/384/38 234/386/38 233/387/38
f 233/387/39 234/386/39 236/388/39 235/389/39
f 235/389/112 236/388/112 238/390/112 237/391/112
f 237/391/41 238/390/41 240/392/41 239/393/41
f 239/393/113 240/392/113 242/394/113 241/395/113
f 196/346/43 194/344/43 251/396/43 252/397/43
f 241/395/44 242/394/44 244/398/44 243/399/44
f 243/399/114 244/398/114 182/333/114 181/332/114
f 181/400/46 183/401/46 185/402/46 187/403/46 189/404/46 191/405/46 193/406/46 195/407/46 197/408/46 199/409/46 201/410/46 203/411/46 205/412/46 207/413/46 209/414/46 211/415/46 213/416/46 215/417/46 217/418/46 219/419/46 221/420/46 223/421/46 225/422/46 227/423/46 229/424/46 231/425/46 233/426/46 235/427/46 237/428/46 239/429/46 241/430/46 243/431/46
f 264/432/47 263/433/47 295/434/47 296/435/47
f 214/364/48 212/362/48 260/436/48 261/437/48
f 232/384/49 230/382/49 269/438/49 270/439/49
f 188/338/50 186/336/50 247/440/50 248/441/50
f 206/356/51 204/354/51 256/442/51 257/443/51
f 224/374/52 222/372/52 265/444/52 266/445/52
f 242/394/53 240/392/53 274/446/53 275/447/53
f 198/348/54 196/346/54 252/397/54 253/448/54
f 216/366/55 214/364/55 261/437/55 262/449/55
f 234/386/56 232/384/56 270/439/56 271/450/56
f 190/340/57 188/338/57 248/441/57 249/451/57
f 208/358/58 206/356/58 257/443/58 258/452/58
f 226/376/59 224/374/59 266/445/59 267/453/59
f 244/398/60 242/394/60 275/447/60 276/454/60
f 200/350/61 198/348/61 253/448/61 254/455/61
f 218/368/62 216/366/62 262/449/62 263/456/62
f 236/388/63 234/386/63 271/450/63 272/457/63
f 192/342/64 190/340/64 249/451/64 250/458/64
f 210/360/65 208/358/65 258/452/65 259/459/65
f 228/378/66 226/376/66 267/453/66 268/460/66
f 184/334/67 182/333/67 246/461/67 245/462/67
f 182/333/68 244/398/68 276/454/68 246/461/68
f 202/352/115 200/350/115 254/455/115 255/463/115
f 220/370/70 218/368/70 263/456/70 264/464/70
f 238/390/71 236/388/71 272/457/71 273/465/71
f 194/344/72 192/342/72 250/458/72 251/396/72
f 212/362/48 210/360/48 259/459/48 260/436/48
f 230/382/73 228/381/73 268/466/73 269/438/73
f 186/336/74 184/334/74 245/462/74 247/440/74
f 204/354/69 202/352/69 255/463/69 256/442/69
f 222/372/75 220/370/75 264/464/75 265/444/75
f 240/392/76 238/390/76 273/465/76 274/446/76
f 277/467/77 278/468/77 308/469/77 307/470/77 306/471/77 305/472/77 304/473/77 303/474/77 302/475/77 301/476/77 300/477/77 299/478/77 298/479/77 297/480/77 296/481/77 295/482/77 294/483/77 293/484/77 292/485/77 291/486/77 290/487/77 289/488/77 288/489/77 287/490/77 286/491/77 285/492/77 284/493/77 283/494/77 282/495/77 281/496/77 280/497/77 279/498/77
f 251/499/116 250/500/116 282/501/116 283/502/116
f 265/503/79 264/432/79 296/435/79 297/504/79
f 252/505/80 251/499/80 283/502/80 284/506/80
f 266/507/81 265/503/81 297/504/81 298/508/81
f 253/509/82 252/505/82 284/506/82 285/510/82
f 267/511/83 266/507/83 298/508/83 299/512/83
f 254/513/84 253/509/84 285/510/84 286/514/84
f 268/515/85 267/511/85 299/512/85 300/516/85
f 255/517/86 254/513/86 286/514/86 287/518/86
f 269/519/87 268/515/87 300/516/87 301/520/87
f 256/521/88 255/517/88 287/518/88 288/522/88
f 270/523/89 269/524/89 301/525/89 302/526/89
f 257/527/90 256/521/90 288/522/90 289/528/90
f 271/529/91 270/523/91 302/526/91 303/530/91
f 258/531/92 257/527/92 289/528/92 290/532/92
f 272/533/93 271/529/93 303/530/93 304/534/93
f 259/535/94 258/531/94 290/532/94 291/536/94
f 245/537/95 246/538/95 278/539/95 277/540/95
f 273/541/96 272/533/96 304/534/96 305/542/96
f 260/543/97 259/535/97 291/536/97 292/544/97
f 247/545/98 245/537/98 277/540/98 279/546/98
f 274/547/99 273/541/99 305/542/99 306/548/99
f 261/549/100 260/543/100 292/544/100 293/550/100
f 248/551/101 247/545/101 279/546/101 280/552/101
f 275/553/102 274/547/102 306/548/102 307/554/102
f 262/555/103 261/549/103 293/550/103 294/556/103
f 249/557/104 248/551/104 280/552/104 281/558/104
f 276/559/105 275/553/105 307/554/105 308/560/105
f 263/433/106 262/555/106 294/556/106 295/434/106
f 250/500/107 249/557/107 281/558/107 282/501/107
f 246/538/108 276/559/108 308/560/108 278/539/108
f 309/561/13 310/562/13 312/563/13 311/564/13
f 311/564/14 312/563/14 314/565/14 313/566/14
f 313/566/109 314/565/109 316/567/109 315/568/109
f 315/568/16 316/567/16 318/569/16 317/570/16
f 317/570/110 318/569/110 320/571/110 319/572/110
f 319/572/18 320/571/18 322/573/18 321/574/18
f 321/574/19 322/573/19 324/575/19 323/576/19
f 323/576/20 324/575/20 326/577/20 325/578/20
f 325/578/21 326/577/21 328/579/21 327/580/21
f 327/580/22 328/579/22 330/581/22 329/582/22
f 329/582/111 330/581/111 332/583/111 331/584/111
f 331/584/24 332/583/24 334/585/24 333/586/24
f 333/586/25 334/585/25 336/587/25 335/588/25
f 335/588/26 336/587/26 338/589/26 337/590/26
f 337/590/27 338/589/27 340/591/27 339/592/27
f 339/592/28 340/591/28 342/593/28 341/594/28
f 341/594/29 342/593/29 344/595/29 343/596/29
f 343/596/117 344/595/117 346/597/117 345/598/117
f 345/598/31 346/597/31 348/599/31 347/600/31
f 347/600/32 348/599/32 350/601/32 349/602/32
f 349/602/33 350/601/33 352/603/33 351/604/33
f 351/604/34 352/603/34 354/605/34 353/606/34
f 353/606/35 354/605/35 356/607/35 355/608/35
f 355/609/36 356/610/36 358/611/36 357/612/36
f 357/612/37 358/611/37 360/613/37 359/614/37
f 359/614/38 360/613/38 362/615/38 361/616/38
f 361/616/39 362/615/39 364/617/39 363/618/39
f 363/618/112 364/617/112 366/619/112 365/620/112
f 365/620/118 366/619/118 368/621/118 367/622/118
f 367/622/113 368/621/113 370/623/113 369/624/113
f 324/575/43 322/573/43 379/625/43 380/626/43
f 369/624/44 370/623/44 372/627/44 371/628/44
f 371/628/114 372/627/114 310/562/114 309/561/114
f 309/629/46 311/630/46 313/631/46 315/632/46 317/633/46 319/634/46 321/635/46 323/636/46 325/637/46 327/638/46 329/639/46 331/640/46 333/641/46 335/642/46 337/643/46 339/644/46 341/645/46 343/646/46 345/647/46 347/648/46 349/649/46 351/650/46 353/651/46 355/652/46 357/653/46 359/654/46 361/655/46 363/656/46 365/657/46 367/658/46 369/659/46 371/660/46
f 392/661/119 391/662/119 423/663/119 424/664/119
f 342/593/48 340/591/48 388/665/48 389/666/48
f 360/613/49 358/611/49 397/667/49 398/668/49
f 316/567/50 314/565/50 375/669/50 376/670/50
f 334/585/51 332/583/51 384/671/51 385/672/51
f 352/603/52 350/601/52 393/673/52 394/674/52
f 370/623/53 368/621/53 402/675/53 403/676/53
f 326/577/54 324/575/54 380/626/54 381/677/54
f 344/595/55 342/593/55 389/666/55 390/678/55
f 362/615/56 360/613/56 398/668/56 399/679/56
f 318/569/57 316/567/57 376/670/57 377/680/57
f 336/587/58 334/585/58 385/672/58 386/681/58
f 354/605/59 352/603/59 394/674/59 395/682/59
f 372/627/60 370/623/60 403/676/60 404/683/60
f 328/579/61 326/577/61 381/677/61 382/684/61
f 346/597/62 344/595/62 390/678/62 391/685/62
f 364/617/63 362/615/63 399/679/63 400/686/63
f 320/571/64 318/569/64 377/680/64 378/687/64
f 338/589/65 336/587/65 386/681/65 387/688/65
f 356/607/66 354/605/66 395/682/66 396/689/66
f 312/563/67 310/562/67 374/690/67 373/691/67
f 310/562/68 372/627/68 404/683/68 374/690/68
f 330/581/115 328/579/115 382/684/115 383/692/115
f 348/599/70 346/597/70 391/685/70 392/693/70
f 366/619/71 364/617/71 400/686/71 401/694/71
f 322/573/72 320/571/72 378/687/72 379/625/72
f 340/591/48 338/589/48 387/688/48 388/665/48
f 358/611/73 356/610/73 396/695/73 397/667/73
f 314/565/74 312/563/74 373/691/74 375/669/74
f 332/583/69 330/581/69 383/692/69 384/671/69
f 350/601/75 348/599/75 392/693/75 393/673/75
f 368/621/76 366/619/76 401/694/76 402/675/76
f 405/696/77 406/697/77 436/698/77 435/699/77 434/700/77 433/701/77 432/702/77 431/703/77 430/704/77 429/705/77 428/706/77 427/707/77 426/708/77 425/709/77 424/710/77 423/711/77 422/712/77 421/713/77 420/714/77 419/715/77 418/716/77 417/717/77 416/718/77 415/719/77 414/720/77 413/721/77 412/722/77 411/723/77 410/724/77 409/725/77 408/726/77 407/727/77
f 379/728/116 378/729/116 410/730/116 411/731/116
f 393/732/79 392/661/79 424/664/79 425/733/79
f 380/734/80 379/728/80 411/731/80 412/735/80
f 394/736/81 393/732/81 425/733/81 426/737/81
f 381/738/82 380/734/82 412/735/82 413/739/82
f 395/740/83 394/736/83 426/737/83 427/741/83
f 382/742/84 381/738/84 413/739/84 414/743/84
f 396/744/120 395/740/120 427/741/120 428/745/120
f 383/746/86 382/742/86 414/743/86 415/747/86
f 397/748/87 396/744/87 428/745/87 429/749/87
f 384/750/88 383/746/88 415/747/88 416/751/88
f 398/752/89 397/753/89 429/754/89 430/755/89
f 385/756/90 384/750/90 416/751/90 417/757/90
f 399/758/91 398/752/91 430/755/91 431/759/91
f 386/760/92 385/756/92 417/757/92 418/761/92
f 400/762/93 399/758/93 431/759/93 432/763/93
f 387/764/121 386/760/121 418/761/121 419/765/121
f 373/766/95 374/767/95 406/768/95 405/769/95
f 401/770/96 400/762/96 432/763/96 433/771/96
f 388/772/97 387/764/97 419/765/97 420/773/97
f 375/774/98 373/766/98 405/769/98 407/775/98
f 402/776/99 401/770/99 433/771/99 434/777/99
f 389/778/100 388/772/100 420/773/100 421/779/100
f 376/780/101 375/774/101 407/775/101 408/781/101
f 403/782/102 402/776/102 434/777/102 435/783/102
f 390/784/103 389/778/103 421/779/103 422/785/103
f 377/786/104 376/780/104 408/781/104 409/787/104
f 404/788/105 403/782/105 435/783/105 436/789/105
f 391/662/106 390/784/106 422/785/106 423/663/106
f 378/729/107 377/786/107 409/787/107 410/730/107
f 374/767/108 404/788/108 436/789/108 406/768/108
f 437/790/13 438/791/13 440/792/13 439/793/13
f 439/793/14 440/792/14 442/794/14 441/795/14
f 441/795/109 442/794/109 444/796/109 443/797/109
f 443/797/16 444/796/16 446/798/16 445/799/16
f 445/799/17 446/798/17 448/800/17 447/801/17
f 447/801/18 448/800/18 450/802/18 449/803/18
f 449/803/19 450/802/19 452/804/19 451/805/19
f 451/805/20 452/804/20 454/806/20 453/807/20
f 453/807/21 454/806/21 456/808/21 455/809/21
f 455/809/22 456/808/22 458/810/22 457/811/22
f 457/811/122 458/810/122 460/812/122 459/813/122
f 459/813/24 460/812/24 462/814/24 461/815/24
f 461/815/25 462/814/25 464/816/25 463/817/25
f 463/817/26 464/816/26 466/818/26 465/819/26
f 465/819/123 466/818/123 468/820/123 467/821/123
f 467/821/28 468/820/28 470/822/28 469/823/28
f 469/823/29 470/822/29 472/824/29 471/825/29
f 471/825/30 472/824/30 474/826/30 473/827/30
f 473/827/31 474/826/31 476/828/31 475/829/31
f 475/829/32 476/828/32 478/830/32 477/831/32
f 477/831/33 478/830/33 480/832/33 479/833/33
f 479/833/124 480/832/124 482/834/124 481/835/124
f 481/835/35 482/834/35 484/836/35 483/837/35
f 483/838/36 484/839/36 486/840/36 485/841/36
f 485/841/37 486/840/37 488/842/37 487/843/37
f 487/843/38 488/842/38 490/844/38 489/845/38
f 489/845/39 490/844/39 492/846/39 491/847/39
f 491/847/112 492/846/112 494/848/112 493/849/112
f 493/849/41 494/848/41 496/850/41 495/851/41
f 495/851/113 496/850/113 498/852/113 497/853/113
f 452/804/43 450/802/43 507/854/43 508/855/43
f 497/853/44 498/852/44 500/856/44 499/857/44
f 499/857/114 500/856/114 438/791/114 437/790/114
f 437/858/46 439/859/46 441/860/46 443/861/46 445/862/46 447/863/46 449/864/46 451/865/46 453/866/46 455/867/46 457/868/46 459/869/46 461/870/46 463/871/46 465/872/46 467/873/46 469/874/46 471/875/46 473/876/46 475/877/46 477/878/46 479/879/46 481/880/46 483/881/46 485/882/46 487/883/46 489/884/46 491/885/46 493/886/46 495/887/46 497/888/46 499/889/46
f 520/890/47 519/891/47 551/892/47 552/893/47
f 470/822/48 468/820/48 516/894/48 517/895/48
f 488/842/49 486/840/49 525/896/49 526/897/49
f 444/796/50 442/794/50 503/898/50 504/899/50
f 462/814/51 460/812/51 512/900/51 513/901/51
f 480/832/52 478/830/52 521/902/52 522/903/52
f 498/852/53 496/850/53 530/904/53 531/905/53
f 454/806/54 452/804/54 508/855/54 509/906/54
f 472/824/55 470/822/55 517/895/55 518/907/55
f 490/844/56 488/842/56 526/897/56 527/908/56
f 446/798/57 444/796/57 504/899/57 505/909/57
f 464/816/58 462/814/58 513/901/58 514/910/58
f 482/834/59 480/832/59 522/903/59 523/911/59
f 500/856/60 498/852/60 531/905/60 532/912/60
f 456/808/61 454/806/61 509/906/61 510/913/61
f 474/826/62 472/824/62 518/907/62 519/914/62
f 492/846/63 490/844/63 527/908/63 528/915/63
f 448/800/64 446/798/64 505/909/64 506/916/64
f 466/818/65 464/816/65 514/910/65 515/917/65
f 484/836/66 482/834/66 523/911/66 524/918/66
f 440/792/67 438/791/67 502/919/67 501/920/67
f 438/791/68 500/856/68 532/912/68 502/919/68
f 458/810/115 456/808/115 510/913/115 511/921/115
f 476/828/70 474/826/70 519/914/70 520/922/70
f 494/848/71 492/846/71 528/915/71 529/923/71
f 450/802/72 448/800/72 506/916/72 507/854/72
f 468/820/48 466/818/48 515/917/48 516/894/48
f 486/840/73 484/839/73 524/924/73 525/896/73
f 442/794/74 440/792/74 501/920/74 503/898/74
f 460/812/69 458/810/69 511/921/69 512/900/69
f 478/830/75 476/828/75 520/922/75 521/902/75
f 496/850/76 494/848/76 529/923/76 530/904/76
f 533/925/77 534/926/77 564/927/77 563/928/77 562/929/77 561/930/77 560/931/77 559/932/77 558/933/77 557/934/77 556/935/77 555/936/77 554/937/77 553/938/77 552/939/77 551/940/77 550/941/77 549/942/77 548/943/77 547/944/77 546/945/77 545/946/77 544/947/77 543/948/77 542/949/77 541/950/77 540/951/77 539/952/77 538/953/77 537/954/77 536/955/77 535/956/77
f 507/957/116 506/958/116 538/959/116 539/960/116
f 521/961/79 520/890/79 552/893/79 553/962/79
f 508/963/125 507/957/125 539/960/125 540/964/125
f 522/965/81 521/961/81 553/962/81 554/966/81
f 509/967/82 508/963/82 540/964/82 541/968/82
f 523/969/83 522/965/83 554/966/83 555/970/83
f 510/971/84 509/967/84 541/968/84 542/972/84
f 524/973/120 523/969/120 555/970/120 556/974/120
f 511/975/86 510/971/86 542/972/86 543/976/86
f 525/977/87 524/973/87 556/974/87 557/978/87
f 512/979/88 511/975/88 543/976/88 544/980/88
f 526/981/89 525/982/89 557/983/89 558/984/89
f 513/985/126 512/979/126 544/980/126 545/986/126
f 527/987/91 526/981/91 558/984/91 559/988/91
f 514/989/92 513/985/92 545/986/92 546/990/92
f 528/991/93 527/987/93 559/988/93 560/992/93
f 515/993/94 514/989/94 546/990/94 547/994/94
f 501/995/95 502/996/95 534/997/95 533/998/95
f 529/999/96 528/991/96 560/992/96 561/1000/96
f 516/1001/97 515/993/97 547/994/97 548/1002/97
f 503/1003/98 501/995/98 533/998/98 535/1004/98
f 530/1005/99 529/999/99 561/1000/99 562/1006/99
f 517/1007/100 516/1001/100 548/1002/100 549/1008/100
f 504/1009/101 503/1003/101 535/1004/101 536/1010/101
f 531/1011/102 530/1005/102 562/1006/102 563/1012/102
f 518/1013/103 517/1007/103 549/1008/103 550/1014/103
f 505/1015/104 504/1009/104 536/1010/104 537/1016/104
f 532/1017/127 531/1011/127 563/1012/127 564/1018/127
f 519/891/106 518/1013/106 550/1014/106 551/892/106
f 506/958/107 505/1015/107 537/1016/107 538/959/107
f 502/996/108 532/1017/108 564/1018/108 534/997/108
o Handle
v -1.023887 2.441969 1.802839
v -1.023887 2.312377 1.802839
v -1.023887 2.441969 1.748305
v -1.023887 2.312377 1.748305
v 0.976113 2.441969 1.802839
v 0.976113 2.312377 1.802839
v 0.976113 2.441969 1.748305
v 0.976113 2.312377 1.748305
v 0.912711 2.441969 1.748305
v 0.912711 2.312377 1.748305
v 0.912711 2.441969 1.802839
v 0.912711 2.312377 1.802839
v -0.953790 2.441969 1.748305
v -0.953790 2.312377 1.802839
v -0.953790 2.312377 1.748305
v -0.953790 2.441969 1.802839
v -1.023887 2.312377 1.596313
v -1.023887 2.441969 1.596313
v -0.953790 2.441969 1.596313
v 0.912711 2.312377 1.596313
v 0.976113 2.312377 1.596313
v 0.976113 2.441969 1.596313
v 0.912711 2.441969 1.596313
v -0.953790 2.312377 1.596313
vn 1.0000 -0.0000 -0.0000
vn -0.0000 -1.0000 -0.0000
vn -1.0000 -0.0000 -0.0000
vn -0.0000 -0.0000 -1.0000
vn -0.0000 1.0000 -0.0000
vn -0.0000 -0.0000 1.0000
vt 0.926142 0.151827
vt 0.929602 0.246592
vt 0.891827 0.269697
vt 0.892678 0.132546
vt 0.708498 0.647235
vt 0.698254 0.581051
vt 0.856917 0.556495
vt 0.867160 0.622680
vt 0.721859 0.769732
vt 0.688809 0.754570
vt 0.677896 0.668012
vt 0.974236 0.138822
vt 0.986148 0.255298
vt 0.659320 0.619064
vt 0.635089 0.661362
vt 0.957563 0.306439
vt 0.680101 0.804200
vt 0.650454 0.768283
vt 0.946827 0.800284
vt 0.946827 0.320213
vt 0.960853 0.320213
vt 0.960853 0.800284
vt 0.913496 0.800284
vt 0.913496 0.320213
vt 0.703729 0.270129
vt 0.715340 0.118927
vt 0.946527 0.096929
vt 0.899469 0.800284
vt 0.899469 0.320213
vt 0.994185 0.320213
vt 0.994185 0.800284
vt 0.907005 0.989774
vt 0.901824 0.832906
vt 0.985828 0.833942
vt 0.983743 0.990793
vt 0.621943 0.263848
vt 0.633554 0.112646
vt 0.727791 0.994639
vt 0.723643 0.841837
vt 0.888097 0.757958
vt 0.898959 0.050760
vt 0.721621 0.037141
vt 0.892027 0.356445
vt 0.892395 0.516822
vt 0.704297 0.517254
vt 0.703928 0.356878
s 0
f 565/1019/128 566/1020/128 568/1021/128 567/1022/128
f 571/1023/129 573/1024/129 587/1025/129 586/1026/129
f 571/1023/130 572/1027/130 570/1028/130 569/1029/130
f 580/1030/131 578/1031/131 566/1020/131 565/1019/131
f 573/1032/129 571/1023/129 569/1029/129 575/1033/129
f 579/1034/132 568/1021/132 566/1020/132 578/1031/132
f 572/1027/132 574/1035/132 576/1036/132 570/1028/132
f 577/1037/129 573/1038/129 575/1039/129 580/1040/129
f 569/1029/131 570/1028/131 576/1036/131 575/1033/131
f 577/1037/133 579/1041/133 574/1042/133 573/1038/133
f 567/1022/128 568/1021/128 581/1043/128 582/1044/128
f 567/1022/129 577/1045/129 580/1030/129 565/1019/129
f 574/1042/132 579/1041/132 578/1046/132 576/1047/132
f 575/1039/131 576/1048/131 578/1049/131 580/1040/131
f 587/1050/133 584/1051/133 585/1052/133 586/1053/133
f 582/1044/133 581/1043/133 588/1054/133 583/1055/133
f 573/1056/128 574/1057/128 584/1051/128 587/1050/128
f 572/1027/130 571/1023/130 586/1026/130 585/1058/130
f 577/1059/129 567/1022/129 582/1044/129 583/1060/129
f 579/1061/130 577/1062/130 583/1063/130 588/1064/130
f 568/1021/132 579/1061/132 588/1064/132 581/1043/132
f 574/1057/132 572/1027/132 585/1058/132 584/1051/132
