# This file uses centimeters as units for non-parametric coordinates.

mtllib meatball.mtl
g default
v -0.493543 -0.378433 0.407576
v 0.413875 -0.407779 0.397617
v -0.444704 0.396026 0.402669
v 0.403245 0.383493 0.409597
v -0.433333 0.403041 -0.415247
v 0.470072 0.421977 -0.397605
v -0.405849 -0.433168 -0.455985
v 0.457815 -0.458921 -0.424856
v -0.543354 0.003783 0.490841
v -0.498731 -0.033516 -0.491198
v 0.511860 -0.080121 -0.471818
v 0.481820 -0.042297 0.467225
v -0.581784 0.462245 -0.045399
v -0.738603 -0.004944 -0.002825
v -0.492906 -0.460295 -0.009279
v 0.498022 -0.469025 -0.003250
v 0.577609 -0.020392 0.004114
v 0.463106 0.467353 0.001921
v -0.016754 -0.456347 0.447305
v -0.002244 -0.006419 0.561587
v 0.002381 0.460412 0.486612
v -0.012243 0.654884 -0.001054
v 0.027306 0.520599 -0.474700
v 0.014651 -0.019330 -0.723046
v 0.041121 -0.526731 -0.520080
v 0.010482 -0.638871 -0.007524
v 0.021943 0.278830 -0.643505
v -0.486006 0.235542 -0.470326
v 0.554035 0.241256 0.003089
v 0.447896 0.448858 0.256961
v 0.466785 0.221802 0.461127
v 0.003506 0.245300 0.563948
v -0.665535 -0.022298 -0.265672
v -0.533503 0.456189 -0.282375
v -0.468202 -0.472294 -0.294913
v 0.030893 -0.628903 -0.281052
v 0.507793 -0.487382 -0.268383
v 0.508090 -0.331559 -0.476717
v 0.582850 -0.053368 -0.248254
v 0.528459 0.231782 -0.457111
v 0.505214 0.481321 -0.249279
v 0.007794 0.637792 -0.255296
v 0.258620 -0.456503 0.444794
v 0.274782 -0.028198 0.547756
v 0.257649 0.448858 0.472253
v 0.261583 0.607549 0.004593
v 0.320527 0.511564 -0.460717
v 0.297427 -0.053644 -0.645597
v 0.310557 -0.519005 -0.498396
v 0.286091 -0.595489 -0.005693
v -0.326896 -0.436672 0.450121
v -0.012028 -0.252178 0.536844
v -0.293736 0.002522 0.564400
v -0.565734 -0.234868 0.475452
v -0.263862 0.453558 0.469655
v -0.008458 0.596349 0.272263
v -0.320080 0.602398 -0.027183
v -0.537820 0.453558 0.227884
v -0.261369 -0.022574 -0.657618
v 0.028375 -0.305695 -0.674658
v -0.238669 -0.503917 -0.524423
v -0.481090 -0.287580 -0.509344
v -0.259597 -0.591415 -0.009943
v -0.007326 -0.583299 0.250555
v -0.537453 -0.436672 0.257795
v 0.474831 -0.456503 0.252971
v 0.577067 -0.267239 0.001010
v 0.563347 -0.028198 0.264309
v 0.470771 -0.278198 0.456635
v -0.658204 -0.252687 -0.001861
v -0.694759 0.002522 0.275556
v -0.717211 0.246582 -0.027308
v -0.505715 0.250000 0.472020
v -0.253984 0.486432 -0.467333
v -0.319277 -0.239912 0.541387
v -0.295895 0.564233 0.247189
v -0.251038 -0.296135 -0.639738
v -0.297661 -0.547126 0.251819
v 0.557531 -0.268799 0.259874
v -0.661506 -0.239912 0.272084
v -0.662152 0.250000 0.249081
v -0.253197 0.260523 -0.598147
v 0.539172 0.231201 0.259472
v -0.269203 0.250000 0.557940
v -0.649586 0.236329 -0.273579
v -0.607439 -0.270837 -0.279528
v -0.240728 -0.589678 -0.291591
v 0.580048 -0.300156 -0.257441
v 0.579715 0.233822 -0.247115
v -0.291194 0.588427 -0.271184
v 0.266120 -0.268799 0.528775
v 0.268532 0.231201 0.547148
v 0.252413 0.564233 0.268373
v 0.293919 0.609034 -0.250000
v 0.312515 0.258017 -0.592867
v 0.302809 -0.325454 -0.618053
v 0.302571 -0.595884 -0.274784
v 0.268359 -0.557214 0.250402
vt 0.673797 0.367407
vt 0.720332 0.373055
vt 0.717060 0.443633
vt 0.657382 0.405497
vt 0.800050 0.393872
vt 0.792104 0.486421
vt 0.748437 0.578188
vt 0.695453 0.517438
vt 0.641941 0.464437
vt 0.584214 0.552002
vt 0.595736 0.606114
vt 0.531378 0.597396
vt 0.537619 0.524892
vt 0.604134 0.680201
vt 0.526639 0.678751
vt 0.449152 0.648503
vt 0.464016 0.565527
vt 0.477357 0.486570
vt 0.369368 0.320250
vt 0.281418 0.356777
vt 0.262778 0.275350
vt 0.372583 0.238337
vt 0.206997 0.423223
vt 0.156839 0.357974
vt 0.626088 0.024612
vt 0.490754 0.095620
vt 0.403507 0.178999
vt 0.585256 0.250955
vt 0.655736 0.215793
vt 0.704113 0.298400
vt 0.643833 0.320885
vt 0.745053 0.198592
vt 0.785747 0.298201
vt 0.932958 0.430562
vt 0.952372 0.325008
vt 0.169042 0.921464
vt 0.924412 0.539848
vt 0.930743 0.182656
vt 0.114294 0.821520
vt 0.210417 0.817550
vt 0.272142 0.902258
vt 0.315168 0.971299
vt 0.518359 0.364913
vt 0.543532 0.303897
vt 0.608501 0.360766
vt 0.583429 0.413954
vt 0.495907 0.423917
vt 0.557904 0.466969
vt 0.612370 0.519377
vt 0.382672 0.455455
vt 0.355676 0.500419
vt 0.312765 0.436974
vt 0.372358 0.399298
vt 0.324194 0.563882
vt 0.263880 0.498390
vt 0.386053 0.861668
vt 0.709783 0.793840
vt 0.305765 0.799049
vt 0.375923 0.762835
vt 0.469560 0.809949
vt 0.558038 0.827433
vt 0.652112 0.578579
vt 0.676792 0.646847
vt 0.448300 0.327645
vt 0.436575 0.401445
vt 0.422404 0.466473
vt 0.489030 0.193447
vt 0.461918 0.257210
vt 0.572791 0.141852
vt 0.686131 0.108373
vt 0.069620 0.701918
vt 0.152651 0.721575
vt 0.877602 0.062823
vt 0.832372 0.003595
vt 0.058933 0.586789
vt 0.128320 0.621742
vt 0.242370 0.725962
vt 0.307492 0.708118
vt 0.215421 0.655047
vt 0.271199 0.666699
vt 0.405907 0.536522
vt 0.384239 0.610642
vt 0.861279 0.521104
vt 0.800960 0.636009
vt 0.876386 0.416699
vt 0.692807 0.724848
vt 0.589186 0.759762
vt 0.506660 0.752671
vt 0.422302 0.718410
vt 0.352615 0.671508
vt 0.293283 0.628635
vt 0.221495 0.574544
vt 0.153059 0.514391
vt 0.085674 0.469944
vt 0.754670 0.000000
vt 0.793093 0.083896
vt 0.842273 0.191408
vt 0.872144 0.310144
vt 0.016765 0.454242
vt 0.017323 0.571295
vt 0.096497 0.299449
vt 0.088982 0.941160
vt 0.133013 1.000000
vt 0.031994 0.823762
vt 0.454870 0.909535
vt 0.856265 0.681056
vt 0.000000 0.672796
vt 0.201607 0.997572
vt 0.251810 0.198184
vn -0.498169 -0.634395 0.591076
vn -0.165019 -0.674272 0.719809
vn -0.122604 -0.232579 0.964819
vn -0.615037 -0.220823 0.756946
vn -0.013541 -0.673833 0.738760
vn 0.009429 -0.245287 0.969405
vn 0.023053 -0.045624 0.998693
vn -0.135660 -0.015030 0.990641
vn -0.596319 0.047917 0.801316
vn -0.506856 0.613246 0.605827
vn -0.198604 0.673425 0.712078
vn -0.271759 0.915269 0.297370
vn -0.630046 0.726358 0.274676
vn 0.004558 0.654943 0.755665
vn -0.011260 0.941326 0.337312
vn -0.020451 0.997137 0.072805
vn -0.313527 0.948920 0.035385
vn -0.687086 0.726503 -0.010341
vn -0.687787 0.020888 -0.725612
vn -0.361773 0.061608 -0.930229
vn -0.306033 -0.271709 -0.912424
vn -0.688019 -0.229136 -0.688569
vn 0.020213 0.061744 -0.997887
vn 0.023125 -0.318445 -0.947659
vn 0.006963 -0.774674 -0.632322
vn -0.230408 -0.740930 -0.630821
vn -0.572584 -0.635059 -0.518506
vn -0.644995 -0.763901 -0.020893
vn -0.303780 -0.951704 0.044467
vn -0.259852 -0.925943 0.274057
vn -0.649049 -0.745864 0.149738
vn -0.012848 -0.996849 0.078273
vn -0.019172 -0.941918 0.335296
vn 0.530148 -0.609835 0.589105
vn 0.694138 -0.683022 0.227273
vn 0.958918 -0.190602 0.210112
vn 0.667478 -0.217095 0.712280
vn 0.732743 -0.675173 0.085023
vn 0.983175 -0.174193 0.054988
vn 0.998160 0.032897 0.050929
vn 0.978146 0.031625 0.205501
vn 0.704132 -0.003025 0.710063
vn -0.996119 -0.074373 -0.047070
vn -0.906476 -0.417637 -0.062293
vn -0.915345 -0.337865 0.219068
vn -0.942306 0.007644 0.334667
vn -0.953974 0.297651 -0.036567
vn -0.882799 0.323436 0.340668
vn -0.584123 0.273935 0.764042
vn -0.528965 0.529864 -0.662902
vn -0.243301 0.682513 -0.689188
vn -0.318351 0.332338 -0.887809
vn -0.638646 0.216240 -0.738493
vn -0.006217 0.722230 -0.691625
vn 0.015136 0.373557 -0.927484
vn 0.955951 0.221352 0.192771
vn 0.708606 0.183581 0.681305
vn 0.974134 0.210748 0.081543
vn 0.768734 0.629156 0.114938
vn 0.742495 0.633389 0.217990
vn 0.625924 0.528820 0.573209
vn -0.158052 0.201149 0.966726
vn 0.021331 0.167410 0.985657
vn -0.911525 -0.068124 -0.405564
vn -0.874304 0.227584 -0.428716
vn -0.651336 0.679508 -0.337683
vn -0.645460 -0.743789 -0.173662
vn -0.881824 -0.363745 -0.300127
vn -0.279767 -0.943867 -0.175628
vn -0.006087 -0.982896 -0.184061
vn 0.979922 -0.163774 -0.113713
vn 0.992628 0.005204 -0.121088
vn 0.728806 -0.680777 -0.073383
vn 0.639812 -0.614833 -0.461109
vn 0.777218 -0.176452 -0.603984
vn 0.794831 0.004822 -0.606812
vn 0.985762 0.151408 -0.073133
vn 0.787441 0.614095 -0.053139
vn 0.788927 0.148186 -0.596351
vn 0.693120 0.500474 -0.518758
vn -0.284358 0.918853 -0.273587
vn -0.019417 0.969062 -0.246051
vn 0.149969 -0.233019 0.960839
vn 0.191267 -0.035407 0.980899
vn 0.144793 -0.679691 0.719066
vn 0.210348 0.155700 0.965148
vn 0.232803 0.632978 0.738337
vn 0.293205 0.905325 0.307272
vn 0.323520 0.940958 0.099665
vn 0.297144 0.939521 -0.170312
vn 0.272960 0.687879 -0.672544
vn 0.356360 0.287484 -0.889023
vn 0.399286 0.030914 -0.916305
vn 0.346974 -0.277485 -0.895886
vn 0.248543 -0.756175 -0.605331
vn 0.274729 -0.951921 -0.135540
vn 0.295000 -0.951400 0.088396
vn 0.239573 -0.923330 0.300112
s 1
g pCube1
usemtl initialShadingGroup
f 1/1/1 51/2/2 75/3/3 54/4/4
f 51/2/2 19/5/5 52/6/6 75/3/3
f 75/3/3 52/6/6 20/7/7 53/8/8
f 54/4/4 75/3/3 53/8/8 9/9/9
f 3/10/10 55/11/11 76/12/12 58/13/13
f 55/11/11 21/14/14 56/15/15 76/12/12
f 76/12/12 56/15/15 22/16/16 57/17/17
f 58/13/13 76/12/12 57/17/17 13/18/18
f 10/19/19 59/20/20 77/21/21 62/22/22
f 59/20/20 24/23/23 60/24/24 77/21/21
f 77/21/21 60/24/24 25/101/25 61/109/26
f 62/22/22 77/21/21 61/109/26 7/27/27
f 15/28/28 63/29/29 78/30/30 65/31/31
f 63/29/29 26/32/32 64/33/33 78/30/30
f 78/30/30 64/33/33 19/5/5 51/2/2
f 65/31/31 78/30/30 51/2/2 1/1/1
f 2/103/34 66/102/35 79/36/36 69/108/37
f 66/102/35 16/104/38 67/39/39 79/36/36
f 79/36/36 67/39/39 17/40/40 68/41/41
f 69/108/37 79/36/36 68/41/41 12/42/42
f 14/43/43 70/44/44 80/45/45 71/46/46
f 70/44/44 15/28/28 65/31/31 80/45/45
f 80/45/45 65/31/31 1/1/1 54/4/4
f 71/46/46 80/45/45 54/4/4 9/9/9
f 13/18/18 72/47/47 81/48/48 58/13/13
f 72/47/47 14/43/43 71/46/46 81/48/48
f 81/48/48 71/46/46 9/9/9 73/49/49
f 58/13/13 81/48/48 73/49/49 3/10/10
f 5/50/50 74/51/51 82/52/52 28/53/53
f 74/51/51 23/54/54 27/55/55 82/52/52
f 82/52/52 27/55/55 24/23/23 59/20/20
f 28/53/53 82/52/52 59/20/20 10/19/19
f 12/42/42 68/41/41 83/56/56 31/105/57
f 68/41/41 17/40/40 29/58/58 83/56/56
f 83/56/56 29/58/58 18/59/59 30/60/60
f 31/105/57 83/56/56 30/60/60 4/61/61
f 9/9/9 53/8/8 84/62/62 73/49/49
f 53/8/8 20/7/7 32/63/63 84/62/62
f 84/62/62 32/63/63 21/14/14 55/11/11
f 73/49/49 84/62/62 55/11/11 3/10/10
f 10/19/19 33/64/64 85/65/65 28/53/53
f 33/64/64 14/43/43 72/47/47 85/65/65
f 85/65/65 72/47/47 13/18/18 34/66/66
f 28/53/53 85/65/65 34/66/66 5/50/50
f 7/27/27 35/67/67 86/68/68 62/22/22
f 35/67/67 15/28/28 70/44/44 86/68/68
f 86/68/68 70/44/44 14/43/43 33/64/64
f 62/22/22 86/68/68 33/64/64 10/19/19
f 7/27/27 61/26/26 87/69/69 35/67/67
f 61/26/26 25/25/25 36/70/70 87/69/69
f 87/69/69 36/70/70 26/32/32 63/29/29
f 35/67/67 87/69/69 63/29/29 15/28/28
f 17/40/40 67/39/39 88/71/71 39/72/72
f 67/39/39 16/104/38 37/107/73 88/71/71
f 88/71/71 37/107/73 8/100/74 38/75/75
f 39/72/72 88/71/71 38/75/75 11/76/76
f 18/59/59 29/58/58 89/77/77 41/78/78
f 29/58/58 17/40/40 39/72/72 89/77/77
f 89/77/77 39/72/72 11/76/76 40/79/79
f 41/78/78 89/77/77 40/79/79 6/80/80
f 13/18/18 57/17/17 90/81/81 34/66/66
f 57/17/17 22/16/16 42/82/82 90/81/81
f 90/81/81 42/82/82 23/54/54 74/51/51
f 34/66/66 90/81/81 74/51/51 5/50/50
f 20/7/7 52/6/6 91/83/83 44/84/84
f 52/6/6 19/5/5 43/85/85 91/83/83
f 91/83/83 43/85/85 2/34/34 69/37/37
f 44/84/84 91/83/83 69/37/37 12/106/42
f 21/14/14 32/63/63 92/86/86 45/87/87
f 32/63/63 20/7/7 44/84/84 92/86/86
f 92/86/86 44/84/84 12/106/42 31/57/57
f 45/87/87 92/86/86 31/57/57 4/61/61
f 22/16/16 56/15/15 93/88/88 46/89/89
f 56/15/15 21/14/14 45/87/87 93/88/88
f 93/88/88 45/87/87 4/61/61 30/60/60
f 46/89/89 93/88/88 30/60/60 18/59/59
f 23/54/54 42/82/82 94/90/90 47/91/91
f 42/82/82 22/16/16 46/89/89 94/90/90
f 94/90/90 46/89/89 18/59/59 41/78/78
f 47/91/91 94/90/90 41/78/78 6/80/80
f 24/23/23 27/55/55 95/92/92 48/93/93
f 27/55/55 23/54/54 47/91/91 95/92/92
f 95/92/92 47/91/91 6/80/80 40/79/79
f 48/93/93 95/92/92 40/79/79 11/76/76
f 25/101/25 60/24/24 96/94/94 49/99/95
f 60/24/24 24/23/23 48/93/93 96/94/94
f 96/94/94 48/93/93 11/76/76 38/75/75
f 49/99/95 96/94/94 38/75/75 8/100/74
f 26/32/32 36/70/70 97/96/96 50/97/97
f 36/70/70 25/25/25 49/95/95 97/96/96
f 97/96/96 49/95/95 8/74/74 37/73/73
f 50/97/97 97/96/96 37/73/73 16/38/38
f 19/5/5 64/33/33 98/98/98 43/85/85
f 64/33/33 26/32/32 50/97/97 98/98/98
f 98/98/98 50/97/97 16/38/38 66/35/35
f 43/85/85 98/98/98 66/35/35 2/34/34
