# This file uses centimeters as units for non-parametric coordinates.

mtllib portalframe.mtl
g default
v 0.440789 7.665817 1.642753
v 0.500000 7.368172 0.242298
v -0.500000 8.334848 0.574123
v 0.500000 8.334848 0.574123
v -0.500000 8.334848 -0.574123
v 0.500000 8.334848 -0.574123
v -0.566945 7.368172 -0.242298
v 0.500000 7.368172 -0.242298
v -0.566945 8.048028 0.461164
v 0.440789 7.276137 -0.747583
v 0.500000 8.048028 -0.461164
v 0.500000 8.048028 0.461164
v -0.566945 4.604842 2.773932
v -0.566945 7.665817 -1.642753
v 0.440789 5.116234 2.726385
v -0.566945 4.604842 3.473932
v -0.566945 4.604842 -3.473932
v 0.440789 6.478686 -2.045338
v -0.566945 6.069496 2.355735
v -0.566945 4.604842 -2.773932
v 0.440789 6.823638 -1.664825
v 0.440789 7.322896 2.163420
v 0.440789 7.092528 1.227239
v 0.440789 5.610096 2.585375
v -0.566945 6.892434 -2.614408
v -0.566945 8.048028 -0.461164
v -0.566945 7.276137 0.747583
v -0.566945 5.116234 2.726385
v 0.440789 4.604842 -3.473932
v -0.566945 7.276137 -0.747583
v -0.566945 7.910151 1.069176
v 0.440789 4.604842 2.773932
v 0.440789 5.826711 -3.251960
v 0.440789 5.225776 -3.417989
v -0.566945 6.823638 1.664825
v -0.566945 6.478686 2.045338
v 0.440789 6.823638 1.664825
v 0.440789 6.892434 2.614408
v -0.566945 5.225776 -3.417989
v 0.440789 4.604842 3.473932
v 0.440789 6.388293 -2.981192
v 0.440789 5.116234 -2.726385
v 0.440789 8.048028 -0.461164
v -0.566945 7.092528 -1.227239
v -0.566945 7.910151 -1.069176
v 0.440789 6.069496 -2.355735
v -0.566945 5.826711 -3.251960
v 0.440789 5.225776 3.417989
v -0.566945 6.069496 -2.355735
v 0.440789 6.069496 2.355735
v -0.566945 5.116234 -2.726385
v -0.566945 5.225776 3.417989
v 0.440789 6.388293 2.981192
v 0.440789 4.604842 -2.773932
v 0.440789 5.610096 -2.585375
v -0.566945 5.826711 3.251960
v -0.566945 7.092528 1.227239
v 0.440789 6.478686 2.045338
v -0.566945 5.610096 2.585375
v -0.566945 6.388293 2.981192
v -0.566945 6.388293 -2.981192
v 0.440789 7.910151 -1.069176
v 0.440789 7.322896 -2.163420
v -0.566945 6.892434 2.614408
v 0.440789 5.826711 3.251960
v 0.440789 7.368172 -0.242298
v 0.440789 6.892434 -2.614408
v -0.566945 7.322896 2.163420
v 0.440789 7.092528 -1.227239
v -0.566945 6.478686 -2.045338
v 0.440789 7.665817 -1.642753
v -0.566945 7.665817 1.642753
v -0.566945 6.823638 -1.664825
v -0.566945 7.322896 -2.163420
v -0.566945 7.368172 0.242298
v -0.566945 5.610096 -2.585375
v 0.440789 7.368172 0.242298
v 0.440789 8.048028 0.461164
v 0.440789 7.910151 1.069176
v 0.440789 7.276137 0.747583
v 0.466819 0.000000 -2.699454
v 0.466819 0.000000 -3.548411
v -0.592975 0.000000 -2.699454
v -0.592975 0.000000 -3.548411
v 0.466819 0.000000 3.548411
v 0.466819 0.000000 2.699454
v -0.592975 0.000000 3.548411
v -0.592975 0.000000 2.699454
v 0.373844 1.278041 -2.773932
v 0.373844 1.278041 -3.473932
v -0.500000 1.278041 -3.473932
v -0.500000 1.278041 -2.773932
v 0.373844 1.278041 2.773932
v 0.373844 1.278041 3.473932
v -0.500000 1.278041 3.473932
v -0.500000 1.278041 2.773932
v 0.466819 1.192987 -2.699454
v 0.466819 1.192987 -3.548411
v -0.592975 1.192987 -3.548411
v -0.592975 1.192987 -2.699454
v 0.466819 1.192987 2.699454
v 0.466819 1.192987 3.548411
v -0.592975 1.192987 3.548411
v -0.592975 1.192987 2.699454
v 0.494222 4.535336 -2.677502
v 0.494222 4.535336 -3.570362
v -0.620378 4.535336 -3.570362
v -0.620378 4.535336 -2.677502
v 0.494222 4.535336 2.677502
v 0.494222 4.535336 3.570362
v -0.620378 4.535336 3.570362
v -0.620378 4.535336 2.677502
v 0.573844 4.604842 -2.573932
v 0.573844 4.604842 -3.673932
v 0.573844 4.525860 -2.573932
v 0.573844 4.525860 -3.673932
v -0.700000 4.604842 -2.573932
v -0.700000 4.525860 -2.573932
v -0.700000 4.604842 -3.673932
v -0.700000 4.525860 -3.673932
v 0.573844 4.604842 3.673932
v 0.573844 4.604842 2.573932
v 0.573844 4.525860 3.673932
v 0.573844 4.525860 2.573932
v -0.700000 4.604842 3.673932
v -0.700000 4.525860 3.673932
v -0.700000 4.604842 2.573932
v -0.700000 4.525860 2.573932
v 0.494222 4.447605 -2.677502
v 0.494222 4.447605 -3.570362
v -0.620378 4.447605 -3.570362
v -0.620378 4.447605 -2.677502
v 0.494222 4.447605 2.677502
v 0.494222 4.447605 3.570362
v -0.620378 4.447605 3.570362
v -0.620378 4.447605 2.677502
v 0.439440 4.418673 -2.721386
v 0.439440 4.418673 -3.526479
v -0.565596 4.418673 -3.526479
v -0.565596 4.418673 -2.721386
v 0.439440 4.418673 2.721386
v 0.439440 4.418673 3.526479
v -0.565596 4.418673 3.526479
v -0.565596 4.418673 2.721386
v 0.439440 4.390943 -2.721386
v 0.439440 4.390943 -3.526479
v -0.565596 4.390943 -3.526479
v -0.565596 4.390943 -2.721386
v 0.439440 4.390943 2.721386
v 0.439440 4.390943 3.526479
v -0.565596 4.390943 3.526479
v -0.565596 4.390943 2.721386
v 0.373844 4.356339 -2.773932
v 0.373844 4.356339 -3.473932
v -0.500000 4.356339 -3.473932
v -0.500000 4.356339 -2.773932
v 0.373844 4.356339 2.773932
v 0.373844 4.356339 3.473932
v -0.500000 4.356339 3.473932
v -0.500000 4.356339 2.773932
v 0.343844 7.971994 -1.128129
v 0.343844 7.751175 -1.646505
v -0.470000 7.751175 -1.646505
v -0.470000 7.971994 -1.128129
v 0.343844 7.028540 -1.170622
v 0.343844 7.190700 -0.747001
v -0.470000 7.190700 -0.747001
v -0.470000 7.028540 -1.170622
v 0.343844 7.994804 1.057611
v 0.343844 8.119412 0.508114
v -0.470000 8.119412 0.508114
v -0.470000 7.994804 1.057611
v 0.343844 7.716127 -1.711810
v 0.343844 7.406209 -2.182369
v -0.470000 7.406209 -2.182369
v -0.470000 7.716127 -1.711810
v 0.453844 8.012699 0.481307
v 0.453844 7.391554 0.281342
v 0.453844 7.889404 1.025014
v 0.453844 7.309661 0.730948
v 0.343844 6.796384 -1.597382
v 0.343844 7.033862 -1.210916
v -0.470000 7.033862 -1.210916
v -0.470000 6.796384 -1.597382
v -0.602178 7.391554 0.281342
v -0.602178 8.012699 0.481307
v -0.602178 7.309661 0.730948
v -0.602178 7.889404 1.025014
v 0.343844 7.360053 -2.240357
v 0.343844 6.971017 -2.647943
v -0.470000 6.971017 -2.647943
v -0.470000 7.360053 -2.240357
v 0.453844 7.391554 -0.281342
v 0.453844 8.012699 -0.481307
v 0.453844 7.309661 -0.730948
v 0.453844 7.889404 -1.025014
v 0.343844 6.439565 -1.969381
v 0.343844 6.744219 -1.633320
v -0.470000 6.744219 -1.633320
v -0.470000 6.439565 -1.969381
v -0.580000 8.012699 -0.481307
v -0.580000 7.391554 -0.281342
v -0.580000 7.889404 -1.025014
v -0.580000 7.309661 -0.730948
v 0.343844 6.915240 -2.696748
v 0.343844 6.459617 -3.028234
v -0.470000 6.459617 -3.028234
v -0.470000 6.915240 -2.696748
v -0.580000 5.091004 -2.758861
v -0.580000 5.191126 -3.390989
v -0.580000 4.634842 -3.441108
v -0.580000 4.634842 -2.801272
v 0.343844 6.029168 -2.247701
v 0.343844 6.390555 -1.973565
v -0.470000 6.390555 -1.973565
v -0.470000 6.029168 -2.247701
v 0.453844 5.191126 -3.390989
v 0.453844 5.091004 -2.758861
v 0.453844 4.634842 -2.801272
v 0.453844 4.634842 -3.441108
v 0.343844 6.396014 -3.066283
v 0.343844 5.888479 -3.310992
v -0.470000 5.888479 -3.310992
v -0.470000 6.396014 -3.066283
v -0.613999 5.590508 -2.622167
v -0.613999 5.788485 -3.231397
v -0.613999 5.250154 -3.380130
v -0.613999 5.150022 -2.747937
v 0.343844 5.601160 -2.500404
v 0.343844 6.006892 -2.297591
v -0.470000 6.006892 -2.297591
v -0.470000 5.601160 -2.500404
v 0.453844 5.788485 -3.231397
v 0.453844 5.590508 -2.622167
v 0.453844 5.150022 -2.747937
v 0.453844 5.250154 -3.380130
v 0.343844 5.275997 -3.487110
v 0.343844 5.819099 -3.337060
v -0.470000 5.275997 -3.487110
v -0.470000 5.819099 -3.337060
v -0.636082 6.056284 -2.395878
v -0.636082 6.347636 -2.967490
v -0.636082 5.844625 -3.210017
v -0.636082 5.646608 -2.600663
v 0.343844 5.549529 -2.474348
v 0.343844 5.113362 -2.598884
v -0.470000 5.549529 -2.474348
v -0.470000 5.113362 -2.598884
v 0.453844 6.347636 -2.967490
v 0.453844 6.056284 -2.395878
v 0.453844 5.646608 -2.600663
v 0.453844 5.844625 -3.210017
v 0.343844 4.641899 -3.550918
v 0.343844 5.203075 -3.500358
v -0.470000 4.641899 -3.550918
v -0.470000 5.203075 -3.500358
v -0.580000 6.472425 -2.087742
v -0.580000 6.850533 -2.607793
v -0.580000 6.399062 -2.936258
v -0.580000 6.107620 -2.364470
v 0.453844 6.850533 -2.607793
v 0.453844 6.472425 -2.087742
v 0.453844 6.107620 -2.364470
v 0.453844 6.399062 -2.936258
v 0.343844 5.078957 -2.649506
v 0.343844 4.627307 -2.691499
v -0.470000 5.078957 -2.649506
v -0.470000 4.627307 -2.691499
v -0.618755 6.824718 -1.708301
v -0.618755 7.280945 -2.163922
v -0.618755 6.895556 -2.567687
v -0.618755 6.517291 -2.047421
v 0.343844 7.994804 -1.057611
v 0.343844 8.119412 -0.508114
v -0.470000 7.994804 -1.057611
v -0.470000 8.119412 -0.508114
v 0.453844 7.280945 -2.163922
v 0.453844 6.824718 -1.708301
v 0.453844 6.517291 -2.047421
v 0.453844 6.895556 -2.567687
v 0.343844 7.284091 -0.257477
v 0.343844 7.202808 -0.703733
v -0.470000 7.284091 -0.257477
v -0.470000 7.202808 -0.703733
v -0.616289 7.101138 -1.270531
v -0.616289 7.624984 -1.650208
v -0.616289 7.318072 -2.116203
v -0.616289 6.861604 -1.660342
v 0.343844 7.190700 0.747001
v 0.343844 7.028540 1.170622
v -0.470000 7.028540 1.170622
v -0.470000 7.190700 0.747001
v 0.453844 7.624984 -1.650208
v 0.453844 7.101138 -1.270531
v 0.453844 6.861604 -1.660342
v 0.453844 7.318072 -2.116203
v 0.343844 7.751175 1.646505
v 0.343844 7.971994 1.128129
v -0.470000 7.971994 1.128129
v -0.470000 7.751175 1.646505
v -0.647574 7.871553 -1.083237
v -0.647574 7.292254 -0.789396
v -0.647574 7.652961 -1.596383
v -0.647574 7.128777 -1.216461
v 0.343844 7.008662 1.210916
v 0.343844 6.771185 1.597382
v -0.470000 6.771185 1.597382
v -0.470000 7.008662 1.210916
v 0.453844 7.292254 -0.789396
v 0.453844 7.871553 -1.083237
v 0.453844 7.128777 -1.216461
v 0.453844 7.652961 -1.596383
v 0.453844 5.091004 2.758861
v 0.453844 5.191126 3.390989
v 0.453844 4.634842 3.441108
v 0.453844 4.634842 2.801272
v 0.343844 7.406209 2.182369
v 0.343844 7.716127 1.711810
v -0.470000 7.716127 1.711810
v -0.470000 7.406209 2.182369
v -0.626613 5.191126 3.390989
v -0.626613 5.091004 2.758861
v -0.626613 4.634842 2.801272
v -0.626613 4.634842 3.441108
v 0.343844 6.772290 1.646768
v 0.343844 6.467636 1.982829
v -0.470000 6.467636 1.982829
v -0.470000 6.772290 1.646768
v 0.453844 5.590508 2.622167
v 0.453844 5.788485 3.231397
v 0.453844 5.250154 3.380130
v 0.453844 5.150022 2.747937
v 0.343844 6.971017 2.647943
v 0.343844 7.360053 2.240357
v -0.470000 7.360053 2.240357
v -0.470000 6.971017 2.647943
v -0.580000 5.788485 3.231397
v -0.580000 5.590508 2.622167
v -0.580000 5.150022 2.747937
v -0.580000 5.250154 3.380130
v 0.343844 6.406406 1.956719
v 0.343844 6.045019 2.230855
v -0.470000 6.045019 2.230855
v -0.470000 6.406406 1.956719
v 0.453844 6.056284 2.395878
v 0.453844 6.347636 2.967490
v 0.453844 5.844625 3.210017
v 0.453844 5.646608 2.600663
v 0.343844 6.459617 3.028234
v 0.343844 6.915240 2.696748
v -0.470000 6.915240 2.696748
v -0.470000 6.459617 3.028234
v -0.614840 6.347636 2.967490
v -0.614840 6.056284 2.395878
v -0.614840 5.646608 2.600663
v -0.614840 5.844625 3.210017
v 0.343844 5.601160 2.500404
v 0.343844 6.006892 2.297591
v -0.470000 5.601160 2.500404
v -0.470000 6.006892 2.297591
v 0.453844 6.472425 2.087742
v 0.453844 6.850533 2.607793
v 0.453844 6.399062 2.936258
v 0.453844 6.107620 2.364470
v 0.343844 6.396014 3.066283
v 0.343844 5.888479 3.310992
v -0.470000 6.396014 3.066283
v -0.470000 5.888479 3.310992
v -0.580000 6.850533 2.607793
v -0.580000 6.472425 2.087742
v -0.580000 6.107620 2.364470
v -0.580000 6.399062 2.936258
v 0.343844 5.123117 2.641223
v 0.343844 5.559284 2.516686
v -0.470000 5.123117 2.641223
v -0.470000 5.559284 2.516686
v 0.453844 6.824718 1.708301
v 0.453844 7.280945 2.163922
v 0.453844 6.895556 2.567687
v 0.453844 6.517291 2.047421
v 0.343844 5.819099 3.337060
v 0.343844 5.275997 3.487110
v -0.470000 5.819099 3.337060
v -0.470000 5.275997 3.487110
v -0.618755 7.280945 2.163922
v -0.618755 6.824718 1.708301
v -0.618755 6.517291 2.047421
v -0.618755 6.895556 2.567687
v 0.343844 4.627307 2.691499
v 0.343844 5.078957 2.649506
v -0.470000 4.627307 2.691499
v -0.470000 5.078957 2.649506
v 0.453844 7.101138 1.270531
v 0.453844 7.624984 1.650208
v 0.453844 7.318072 2.116203
v 0.453844 6.861604 1.660342
v -0.580000 7.624984 1.650208
v -0.580000 7.101138 1.270531
v -0.580000 6.861604 1.660342
v -0.580000 7.318072 2.116203
v 0.343844 5.203075 3.500358
v 0.343844 4.641899 3.550918
v -0.470000 5.203075 3.500358
v -0.470000 4.641899 3.550918
v 0.453844 7.871553 1.083237
v 0.453844 7.292254 0.789396
v 0.453844 7.652961 1.596383
v 0.453844 7.128777 1.216461
v 0.343844 7.202808 0.703733
v 0.343844 7.284091 0.257477
v -0.470000 7.202808 0.703733
v -0.470000 7.284091 0.257477
v -0.580000 7.292254 0.789396
v -0.580000 7.871553 1.083237
v -0.580000 7.128777 1.216461
v -0.580000 7.652961 1.596383
vt 0.625925 0.210718
vt 0.593144 0.222965
vt 0.570075 0.165396
vt 0.603514 0.151758
vt 0.708287 0.108454
vt 0.730125 0.166259
vt 0.677444 0.187598
vt 0.651555 0.131895
vt 0.633278 0.285413
vt 0.666641 0.273402
vt 0.694896 0.327707
vt 0.660036 0.340645
vt 0.675336 0.204101
vt 0.711450 0.239794
vt 0.710590 0.243750
vt 0.672807 0.201608
vt 0.745628 0.223695
vt 0.738752 0.174659
vt 0.750502 0.310852
vt 0.788062 0.292806
vt 0.706799 0.090580
vt 0.641866 0.119792
vt 0.770505 0.144249
vt 0.741335 0.158451
vt 0.714949 0.097231
vt 0.747976 0.085462
vt 0.742442 0.170004
vt 0.749824 0.224416
vt 0.585387 0.228166
vt 0.552195 0.240727
vt 0.529080 0.183724
vt 0.562225 0.170614
vt 0.752010 0.220629
vt 0.744874 0.171693
vt 0.776571 0.153831
vt 0.788806 0.203343
vt 0.590272 0.303132
vt 0.624321 0.290497
vt 0.651258 0.346097
vt 0.616837 0.359597
vt 0.707651 0.086495
vt 0.793344 0.294005
vt 0.720395 0.030579
vt 0.744226 0.072780
vt 0.544360 0.245925
vt 0.510745 0.258425
vt 0.487728 0.201664
vt 0.521233 0.188900
vt 0.672541 0.204661
vt 0.706163 0.242924
vt 0.668230 0.259301
vt 0.637387 0.218351
vt 0.547415 0.321165
vt 0.580748 0.309340
vt 0.606511 0.365029
vt 0.572610 0.377634
vt 0.634738 0.070035
vt 0.639426 0.118104
vt 0.605238 0.136613
vt 0.596730 0.085522
vt 0.502843 0.263582
vt 0.468904 0.275905
vt 0.447095 0.219332
vt 0.479979 0.206856
vt 0.338414 0.197403
vt 0.349045 0.245573
vt 0.306663 0.256500
vt 0.305710 0.205551
vt 0.504423 0.339456
vt 0.536556 0.328569
vt 0.560559 0.383133
vt 0.527411 0.395642
vt 0.381326 0.322167
vt 0.401583 0.365585
vt 0.364783 0.376521
vt 0.342067 0.335344
vt 0.460803 0.280913
vt 0.426254 0.292677
vt 0.404550 0.237029
vt 0.439108 0.224450
vt 0.377444 0.182782
vt 0.392435 0.228602
vt 0.354515 0.242861
vt 0.344720 0.196519
vt 0.459003 0.356406
vt 0.492442 0.345468
vt 0.515621 0.402459
vt 0.481865 0.413844
vt 0.425006 0.306867
vt 0.446198 0.349701
vt 0.406897 0.363829
vt 0.385713 0.320467
vt 0.417917 0.297450
vt 0.382560 0.308183
vt 0.360141 0.253321
vt 0.396079 0.241962
vt 0.419977 0.166166
vt 0.434271 0.210020
vt 0.399029 0.225407
vt 0.386121 0.180472
vt 0.416278 0.373112
vt 0.447775 0.364073
vt 0.469074 0.418861
vt 0.436078 0.430066
vt 0.467843 0.290259
vt 0.489812 0.333093
vt 0.451604 0.347634
vt 0.429382 0.305016
vt 0.374003 0.312581
vt 0.338140 0.322819
vt 0.312821 0.266178
vt 0.350896 0.257575
vt 0.461580 0.146584
vt 0.476867 0.194088
vt 0.440752 0.209947
vt 0.426796 0.161839
vt 0.060625 0.475487
vt 0.073474 0.502639
vt 0.046544 0.529846
vt -0.000000 0.504451
vt 0.509922 0.272748
vt 0.534217 0.314840
vt 0.495188 0.330895
vt 0.472138 0.288318
vt 0.371531 0.386303
vt 0.403793 0.378367
vt 0.423810 0.436833
vt 0.389758 0.447099
vt 0.502777 0.128779
vt 0.516739 0.175119
vt 0.481715 0.190700
vt 0.468296 0.144876
vt 0.665219 0.194674
vt 0.633601 0.205700
vt 0.611197 0.146553
vt 0.642169 0.131644
vt 0.551543 0.255067
vt 0.577573 0.297034
vt 0.539597 0.312728
vt 0.514334 0.270852
vt 0.676732 0.267058
vt 0.710289 0.254479
vt 0.740578 0.306965
vt 0.705442 0.321145
vt 0.544847 0.108718
vt 0.557902 0.156762
vt 0.523099 0.172744
vt 0.510348 0.125362
vt 0.801457 0.208616
vt 0.831835 0.194637
vt 0.870463 0.243126
vt 0.834566 0.260314
vt 0.592593 0.237358
vt 0.619905 0.279376
vt 0.582818 0.294940
vt 0.555908 0.253172
vt 0.808003 0.125948
vt 0.777575 0.139016
vt 0.756190 0.081007
vt 0.790309 0.069357
vt 0.589455 0.090699
vt 0.598100 0.136727
vt 0.564702 0.152757
vt 0.554333 0.106106
vt 0.840452 0.187743
vt 0.867494 0.172890
vt 0.916934 0.212971
vt 0.881304 0.235240
vt 0.633113 0.220111
vt 0.662943 0.261410
vt 0.625144 0.277280
vt 0.596926 0.235490
vt 0.926915 0.139623
vt 0.926896 0.139441
vt 0.926946 0.139527
vt 0.926974 0.139654
vt 0.846841 0.109136
vt 0.815561 0.120885
vt 0.799160 0.064913
vt 0.835920 0.053097
vt 0.927152 0.139815
vt 0.927189 0.139959
vt 0.927136 0.139881
vt 0.927101 0.139767
vt 0.872349 0.166267
vt 0.891065 0.145165
vt 0.931999 0.179827
vt 0.922809 0.205885
vt 0.926805 0.139590
vt 0.926579 0.138809
vt 0.926829 0.139269
vt 0.926682 0.139113
vt 0.896497 0.105612
vt 0.856295 0.105756
vt 1.000000 0.155378
vt 0.962721 0.117720
vt 0.927349 0.139881
vt 0.927581 0.140813
vt 0.927357 0.140289
vt 0.927215 0.139953
vt 0.897124 0.142931
vt 0.913642 0.147380
vt 0.932772 0.152659
vt 0.931716 0.173437
vt 0.915334 0.140838
vt 0.924172 0.136395
vt 0.926385 0.138190
vt 0.924960 0.139720
vt 0.921599 0.133085
vt 0.900172 0.113983
vt 0.956365 0.125217
vt 0.934074 0.134680
vt 0.931028 0.142215
vt 0.931500 0.145394
vt 0.928187 0.141588
vt 0.928252 0.140211
vt 0.917210 0.141128
vt 0.926288 0.144436
vt 0.928655 0.142345
vt 0.929059 0.145561
vt 0.888671 0.134797
vt 0.892265 0.113781
vt 0.923071 0.134643
vt 0.912636 0.139843
vt 0.926394 0.138050
vt 0.926677 0.137057
vt 0.929896 0.140909
vt 0.926700 0.137199
vt 0.963908 0.127710
vt 0.938486 0.175684
vt 0.933713 0.149207
vt 0.933063 0.141129
vt 0.926808 0.139701
vt 0.926993 0.139821
vt 0.927311 0.140315
vt 0.927389 0.140585
vt 0.864767 0.159813
vt 0.854931 0.116955
vt 0.888645 0.113361
vt 0.886316 0.137592
vt 0.926840 0.139247
vt 0.926760 0.138967
vt 0.927160 0.139619
vt 0.926942 0.139391
vt 0.990103 0.166603
vt 0.933600 0.207832
vt 0.940478 0.180010
vt 0.966455 0.131561
vt 0.926988 0.139727
vt 0.927020 0.139739
vt 0.927140 0.139917
vt 0.927157 0.139979
vt 0.831744 0.180608
vt 0.817455 0.133293
vt 0.851395 0.118263
vt 0.861178 0.162625
vt 0.927042 0.139719
vt 0.927042 0.139719
vt 0.927042 0.139719
vt 0.927042 0.139719
vt 0.793055 0.056020
vt 0.770638 0.014254
vt 0.805973 0.002871
vt 0.834940 0.041857
vt 0.926969 0.139560
vt 0.926952 0.139500
vt 0.927066 0.139693
vt 0.927055 0.139687
vt 0.793553 0.200750
vt 0.780443 0.151773
vt 0.813588 0.135214
vt 0.827401 0.183194
vt 0.759324 0.228836
vt 0.791853 0.215272
vt 0.823826 0.267413
vt 0.788881 0.282022
vt 0.749603 0.071541
vt 0.727432 0.028952
vt 0.765432 0.015777
vt 0.788275 0.057503
vt 0.327431 0.334934
vt 0.354352 0.384651
vt 0.348384 0.386020
vt 0.322083 0.336880
vt 0.375282 0.454349
vt 0.369373 0.454529
vt 0.288625 0.260050
vt 0.283413 0.263264
vt 0.927042 0.139719
vt 0.927042 0.139719
vt 0.927042 0.139719
vt 0.927042 0.139719
vt 0.098342 0.428384
vt 0.126893 0.474415
vt 0.123833 0.475493
vt 0.092760 0.429706
vt 0.121466 0.589490
vt 0.102729 0.593393
vt 0.131854 0.539275
vt 0.125462 0.542872
vt 0.927041 0.139716
vt 0.927042 0.139717
vt 0.927042 0.139719
vt 0.927042 0.139719
vt 0.927044 0.139721
vt 0.927043 0.139719
vt 0.927043 0.139721
vt 0.927042 0.139719
vt 0.316695 0.339521
vt 0.341348 0.387060
vt 0.334817 0.389070
vt 0.310868 0.342066
vt 0.376423 0.513613
vt 0.370601 0.515675
vt 0.363374 0.456769
vt 0.357069 0.458678
vt 0.927017 0.139692
vt 0.927022 0.139675
vt 0.927030 0.139692
vt 0.927026 0.139700
vt 0.927064 0.139741
vt 0.927057 0.139735
vt 0.927067 0.139768
vt 0.927057 0.139749
vt 0.338524 0.333724
vt 0.363392 0.379474
vt 0.387909 0.458757
vt 0.304025 0.259599
vt 0.926984 0.139673
vt 0.926977 0.139590
vt 0.927037 0.139707
vt 0.927034 0.139708
vt 0.927082 0.139738
vt 0.927050 0.139729
vt 0.927126 0.139873
vt 0.927048 0.139732
vt 0.331176 0.391397
vt 0.306883 0.342743
vt 0.366225 0.514907
vt 0.353081 0.459166
vt 0.927040 0.139713
vt 0.927038 0.139712
vt 0.927047 0.139725
vt 0.927045 0.139725
vt 0.329199 0.392229
vt 0.305129 0.343712
vt 0.364419 0.515604
vt 0.351188 0.460081
vt 0.927041 0.139716
vt 0.927040 0.139715
vt 0.927045 0.139723
vt 0.927044 0.139722
vt 0.325012 0.395321
vt 0.300627 0.344875
vt 0.359290 0.514594
vt 0.346563 0.461043
vt 0.927041 0.139716
vt 0.927040 0.139716
vt 0.927045 0.139722
vt 0.927044 0.139722
vt 0.633610 0.216857
vt 0.593229 0.234055
vt 0.562206 0.159525
vt 0.603710 0.140522
vt 0.623959 0.280520
vt 0.667171 0.262465
vt 0.593720 0.084036
vt 0.547518 0.103381
vt 0.777751 0.150071
vt 0.748538 0.074697
vt 0.552258 0.251757
vt 0.521237 0.177876
vt 0.791901 0.204563
vt 0.581622 0.298184
vt 0.505432 0.123428
vt 0.723584 0.027546
vt 0.510748 0.269421
vt 0.479849 0.195842
vt 0.538250 0.315980
vt 0.463188 0.142965
vt 0.468644 0.286829
vt 0.439442 0.213538
vt 0.432487 0.442619
vt 0.352005 0.247521
vt 0.493656 0.334188
vt 0.423629 0.160400
vt 0.382238 0.318802
vt 0.405254 0.367038
vt 0.425893 0.303474
vt 0.396691 0.231373
vt 0.480606 0.425213
vt 0.450085 0.350851
vt 0.830482 0.184363
vt 0.766986 0.012757
vt 0.814792 0.131648
vt 0.791810 0.058987
vt 0.863885 0.163635
vt 0.807063 0.000000
vt 0.926904 0.139629
vt 0.926884 0.139392
vt 0.852871 0.115000
vt 0.838968 0.043128
vt 0.927143 0.139754
vt 0.927248 0.140125
vt 0.888410 0.137287
vt 0.937582 0.179948
vt 0.926638 0.139545
vt 0.926549 0.138607
vt 0.890843 0.111869
vt 0.966131 0.124973
vt 0.927328 0.139724
vt 0.927664 0.141054
vt 0.914113 0.141222
vt 0.932077 0.146548
vt 0.925438 0.135759
vt 0.930935 0.141405
vt 0.890068 0.046286
vt 0.846810 0.048002
vt 0.995744 0.166273
vt 0.680779 0.047722
vt 0.833481 0.274942
vt 0.833822 0.271008
vt 0.675861 0.048344
vt 0.266743 0.286628
vt 0.052132 0.387327
vt 0.268966 0.280852
vt 0.270752 0.279696
vt 0.272689 0.274893
vt 0.388216 0.515447
vt 0.382559 0.516866
vt 0.278363 0.271199
vt 0.395905 0.503005
vt 0.040137 0.394080
vt 0.928976 0.213722
vt 0.881343 0.245802
vt 0.524613 0.407729
vt 0.380013 0.178049
vt 0.340248 0.194369
vt 0.571591 0.388924
vt 0.303229 0.203311
vt 0.704573 0.332101
vt 0.637191 0.066434
vt 0.615799 0.369793
vt 0.658979 0.351660
vn 0.000000 0.920005 -0.391906
vn 0.000000 0.920005 -0.391906
vn 0.000000 0.920005 -0.391906
vn 0.000000 0.920005 -0.391906
vn 0.000000 1.000000 0.000000
vn 0.000000 1.000000 0.000000
vn 0.000000 1.000000 0.000000
vn 0.000000 1.000000 0.000000
vn 0.000000 -0.933915 0.357496
vn 0.000000 -0.933915 0.357496
vn 0.000000 -0.933915 0.357496
vn 0.000000 -0.933915 0.357496
vn 0.000000 -0.306442 -0.951889
vn 0.000000 -0.306442 -0.951889
vn 0.000000 -0.306442 -0.951889
vn 0.000000 -0.306442 -0.951889
vn 1.000000 -0.000000 0.000000
vn 1.000000 -0.000000 0.000000
vn 1.000000 0.000000 0.000000
vn 1.000000 0.000000 0.000000
vn -1.000000 -0.000000 0.000000
vn -1.000000 -0.000000 0.000000
vn -0.993563 0.113282 0.000000
vn -0.993563 0.113282 0.000000
vn -0.973826 0.227295 0.000000
vn -0.973826 0.227295 0.000000
vn 0.000000 0.975239 0.221153
vn 0.000000 0.975239 0.221153
vn 0.000000 0.975239 0.221153
vn 0.000000 0.975239 0.221153
vn 1.000000 0.000000 0.000000
vn 1.000000 0.000000 0.000000
vn 0.000000 -0.306442 0.951889
vn 0.000000 -0.306442 0.951889
vn 0.000000 -0.306442 0.951889
vn 0.000000 -0.306442 0.951889
vn 0.000000 0.835140 -0.550038
vn 0.000000 0.835140 -0.550038
vn 0.000000 0.835140 -0.550038
vn 0.000000 0.835140 -0.550038
vn 1.000000 0.000000 0.000000
vn 1.000000 0.000000 0.000000
vn 1.000000 0.000000 0.000000
vn 1.000000 0.000000 0.000000
vn 0.000000 -0.852000 0.523542
vn 0.000000 -0.852000 0.523542
vn 0.000000 -0.852000 0.523542
vn 0.000000 -0.852000 0.523542
vn -1.000000 0.000000 0.000000
vn -1.000000 0.000000 0.000000
vn -1.000000 0.000000 0.000000
vn -1.000000 0.000000 0.000000
vn 0.000000 0.723376 -0.690454
vn 0.000000 0.723376 -0.690454
vn 0.000000 0.723376 -0.690454
vn 0.000000 0.723376 -0.690454
vn 1.000000 0.000000 0.000000
vn 1.000000 0.000000 0.000000
vn 1.000000 0.000000 0.000000
vn 1.000000 0.000000 0.000000
vn 0.000000 -0.740878 0.671640
vn 0.000000 -0.740878 0.671640
vn 0.000000 -0.740878 0.671640
vn 0.000000 -0.740878 0.671640
vn -1.000000 0.000000 0.000000
vn -1.000000 0.000000 0.000000
vn -1.000000 0.000000 0.000000
vn -1.000000 0.000000 0.000000
vn 0.000000 0.588315 -0.808632
vn 0.000000 0.588315 -0.808632
vn 0.000000 0.588315 -0.808632
vn 0.000000 0.588315 -0.808632
vn -1.000000 0.000000 0.000000
vn -1.000000 0.000000 0.000000
vn -1.000000 0.000000 0.000000
vn -1.000000 0.000000 0.000000
vn 0.000000 -0.604357 0.796714
vn 0.000000 -0.604357 0.796714
vn 0.000000 -0.604357 0.796714
vn 0.000000 -0.604357 0.796714
vn 1.000000 0.000000 0.000000
vn 1.000000 0.000000 0.000000
vn 1.000000 0.000000 0.000000
vn 1.000000 0.000000 0.000000
vn 0.000000 0.434306 -0.900766
vn 0.000000 0.434306 -0.900766
vn 0.000000 0.434306 -0.900766
vn 0.000000 0.434306 -0.900766
vn -1.000000 -0.000000 0.000000
vn -1.000000 -0.000000 0.000000
vn -1.000000 -0.000000 0.000000
vn -1.000000 -0.000000 0.000000
vn 0.000000 -0.447120 0.894474
vn 0.000000 -0.447120 0.894474
vn 0.000000 -0.447120 0.894474
vn 0.000000 -0.447120 0.894474
vn 1.000000 -0.000000 0.000000
vn 1.000000 -0.000000 0.000000
vn 1.000000 -0.000000 0.000000
vn 1.000000 -0.000000 0.000000
vn 0.000000 0.266307 -0.963888
vn 0.000000 0.266307 -0.963888
vn 0.000000 0.266307 -0.963888
vn 0.000000 0.266307 -0.963888
vn -1.000000 0.000000 0.000000
vn -1.000000 0.000000 0.000000
vn -1.000000 0.000000 0.000000
vn -1.000000 0.000000 0.000000
vn 0.000000 -0.274554 0.961572
vn 0.000000 -0.274554 0.961572
vn 0.000000 -0.274554 0.961572
vn 0.000000 -0.274554 0.961572
vn 1.000000 0.000000 0.000000
vn 1.000000 0.000000 0.000000
vn 1.000000 0.000000 0.000000
vn 1.000000 0.000000 0.000000
vn 0.000000 0.089733 -0.995966
vn 0.000000 0.089733 -0.995966
vn 0.000000 0.089733 -0.995966
vn 0.000000 0.089733 -0.995966
vn -1.000000 -0.000000 0.000000
vn -1.000000 -0.000000 0.000000
vn -1.000000 -0.000000 0.000000
vn -1.000000 -0.000000 0.000000
vn 0.000000 -1.000000 0.000000
vn 0.000000 -1.000000 0.000000
vn 0.000000 -1.000000 0.000000
vn 0.000000 -1.000000 0.000000
vn 1.000000 -0.000000 0.000000
vn 1.000000 -0.000000 0.000000
vn 1.000000 -0.000000 0.000000
vn 1.000000 -0.000000 0.000000
vn 0.000000 -0.092576 0.995706
vn 0.000000 -0.092576 0.995706
vn 0.000000 -0.092576 0.995706
vn 0.000000 -0.092576 0.995706
vn -1.000000 0.000000 0.000000
vn -1.000000 0.000000 0.000000
vn -1.000000 0.000000 0.000000
vn -1.000000 0.000000 0.000000
vn 0.000000 0.975239 -0.221153
vn 0.000000 0.975239 -0.221153
vn 0.000000 0.975239 -0.221153
vn 0.000000 0.975239 -0.221153
vn 1.000000 0.000000 0.000000
vn 1.000000 0.000000 0.000000
vn 1.000000 0.000000 0.000000
vn 1.000000 0.000000 0.000000
vn 0.000000 -0.983814 0.179195
vn 0.000000 -0.983814 0.179195
vn 0.000000 -0.983814 0.179195
vn 0.000000 -0.983814 0.179195
vn -1.000000 0.000000 0.000000
vn -1.000000 0.000000 0.000000
vn -1.000000 0.000000 0.000000
vn -1.000000 0.000000 0.000000
vn 0.000000 -0.933915 -0.357496
vn 0.000000 -0.933915 -0.357496
vn 0.000000 -0.933915 -0.357496
vn 0.000000 -0.933915 -0.357496
vn 1.000000 0.000000 0.000000
vn 1.000000 0.000000 0.000000
vn 1.000000 0.000000 0.000000
vn 1.000000 0.000000 0.000000
vn 0.000000 0.920005 0.391906
vn 0.000000 0.920005 0.391906
vn 0.000000 0.920005 0.391906
vn 0.000000 0.920005 0.391906
vn -1.000000 0.000000 0.000000
vn -1.000000 0.000000 0.000000
vn -1.000000 0.000000 0.000000
vn -1.000000 0.000000 0.000000
vn 0.000000 -0.852001 -0.523541
vn 0.000000 -0.852001 -0.523541
vn 0.000000 -0.852001 -0.523541
vn 0.000000 -0.852001 -0.523541
vn 1.000000 0.000000 0.000000
vn 1.000000 0.000000 0.000000
vn 1.000000 0.000000 0.000000
vn 1.000000 0.000000 0.000000
vn 1.000000 0.000000 0.000000
vn 1.000000 0.000000 0.000000
vn 1.000000 0.000000 0.000000
vn 1.000000 0.000000 0.000000
vn 0.000000 0.835140 0.550038
vn 0.000000 0.835140 0.550038
vn 0.000000 0.835140 0.550038
vn 0.000000 0.835140 0.550038
vn -1.000000 -0.000000 0.000000
vn -1.000000 -0.000000 0.000000
vn -1.000000 -0.000000 0.000000
vn -1.000000 -0.000000 0.000000
vn 0.000000 -0.740879 -0.671639
vn 0.000000 -0.740879 -0.671639
vn 0.000000 -0.740879 -0.671639
vn 0.000000 -0.740879 -0.671639
vn 1.000000 -0.000000 0.000000
vn 1.000000 -0.000000 0.000000
vn 1.000000 -0.000000 0.000000
vn 1.000000 -0.000000 0.000000
vn 0.000000 0.723376 0.690454
vn 0.000000 0.723376 0.690454
vn 0.000000 0.723376 0.690454
vn 0.000000 0.723376 0.690454
vn -1.000000 0.000000 0.000000
vn -1.000000 0.000000 0.000000
vn -1.000000 0.000000 0.000000
vn -1.000000 0.000000 0.000000
vn 0.000000 -0.604357 -0.796714
vn 0.000000 -0.604357 -0.796714
vn 0.000000 -0.604357 -0.796714
vn 0.000000 -0.604357 -0.796714
vn 1.000000 -0.000000 0.000000
vn 1.000000 -0.000000 0.000000
vn 1.000000 -0.000000 0.000000
vn 1.000000 -0.000000 0.000000
vn 0.000000 0.588315 0.808632
vn 0.000000 0.588315 0.808632
vn 0.000000 0.588315 0.808632
vn 0.000000 0.588315 0.808632
vn -1.000000 0.000000 0.000000
vn -1.000000 0.000000 0.000000
vn -1.000000 0.000000 0.000000
vn -1.000000 0.000000 0.000000
vn 0.000000 -0.447120 -0.894474
vn 0.000000 -0.447120 -0.894474
vn 0.000000 -0.447120 -0.894474
vn 0.000000 -0.447120 -0.894474
vn 1.000000 -0.000000 0.000000
vn 1.000000 -0.000000 0.000000
vn 1.000000 -0.000000 0.000000
vn 1.000000 -0.000000 0.000000
vn 0.000000 0.434306 0.900766
vn 0.000000 0.434306 0.900766
vn 0.000000 0.434306 0.900766
vn 0.000000 0.434306 0.900766
vn -1.000000 -0.000000 0.000000
vn -1.000000 -0.000000 0.000000
vn -1.000000 -0.000000 0.000000
vn -1.000000 -0.000000 0.000000
vn 0.000000 -0.274553 -0.961572
vn 0.000000 -0.274553 -0.961572
vn 0.000000 -0.274553 -0.961572
vn 0.000000 -0.274553 -0.961572
vn 1.000000 0.000000 0.000000
vn 1.000000 0.000000 0.000000
vn 1.000000 0.000000 0.000000
vn 1.000000 0.000000 0.000000
vn 0.000000 0.266307 0.963888
vn 0.000000 0.266307 0.963888
vn 0.000000 0.266307 0.963888
vn 0.000000 0.266307 0.963888
vn -1.000000 0.000000 0.000000
vn -1.000000 0.000000 0.000000
vn -1.000000 0.000000 0.000000
vn -1.000000 0.000000 0.000000
vn 0.000000 -0.092576 -0.995706
vn 0.000000 -0.092576 -0.995706
vn 0.000000 -0.092576 -0.995706
vn 0.000000 -0.092576 -0.995706
vn 1.000000 -0.000000 0.000000
vn 1.000000 -0.000000 0.000000
vn 1.000000 -0.000000 0.000000
vn 1.000000 -0.000000 0.000000
vn 0.000000 -1.000000 0.000000
vn 0.000000 -1.000000 0.000000
vn 0.000000 -1.000000 0.000000
vn 0.000000 -1.000000 0.000000
vn -1.000000 0.000000 0.000000
vn -1.000000 0.000000 0.000000
vn -1.000000 0.000000 0.000000
vn -1.000000 0.000000 0.000000
vn 0.000000 0.089733 0.995966
vn 0.000000 0.089733 0.995966
vn 0.000000 0.089733 0.995966
vn 0.000000 0.089733 0.995966
vn 1.000000 0.000000 0.000000
vn 1.000000 0.000000 0.000000
vn 1.000000 0.000000 0.000000
vn 1.000000 0.000000 0.000000
vn 0.000000 -0.983814 -0.179195
vn 0.000000 -0.983814 -0.179195
vn 0.000000 -0.983814 -0.179195
vn 0.000000 -0.983814 -0.179195
vn -1.000000 0.000000 0.000000
vn -1.000000 0.000000 0.000000
vn -1.000000 0.000000 0.000000
vn -1.000000 0.000000 0.000000
vn 0.000000 -0.366435 0.930443
vn 0.000000 -0.366435 0.930444
vn 0.000000 -0.366435 0.930444
vn 0.000000 -0.366435 0.930444
vn 0.000000 -0.366435 0.930444
vn 0.000000 -0.366436 -0.930443
vn 0.000000 -0.366436 -0.930443
vn 0.000000 -0.366436 -0.930443
vn 0.000000 -0.366436 -0.930443
vn 0.000000 -0.366436 -0.930443
vn 0.000000 -1.000000 0.000000
vn 0.000000 -1.000000 0.000000
vn 0.000000 -1.000000 0.000000
vn 0.000000 -1.000000 0.000000
vn 0.000000 -1.000000 0.000000
vn 0.000000 -1.000000 0.000000
vn 1.000000 0.000000 0.000000
vn 1.000000 0.000000 0.000000
vn 1.000000 0.000000 0.000000
vn 1.000000 0.000000 0.000000
vn 0.000000 0.000000 1.000000
vn 0.000000 0.000000 1.000000
vn 0.000000 0.000000 1.000000
vn 0.000000 0.000000 1.000000
vn -1.000000 0.000000 0.000000
vn -1.000000 0.000000 0.000000
vn -1.000000 0.000000 0.000000
vn -1.000000 0.000000 0.000000
vn 0.000000 0.000000 -1.000000
vn 0.000000 0.000000 -1.000000
vn 0.000000 0.000000 -1.000000
vn 0.000000 0.000000 -1.000000
vn 0.998989 0.044958 0.000000
vn 0.998989 0.044958 0.000000
vn 1.000000 0.000000 0.000000
vn 1.000000 0.000000 0.000000
vn 0.000000 0.030856 0.999524
vn 0.000000 0.030856 0.999524
vn 0.000000 0.000000 1.000000
vn 0.000000 0.000000 1.000000
vn -0.998989 0.044958 0.000000
vn -0.998989 0.044958 0.000000
vn -1.000000 0.000000 0.000000
vn -1.000000 0.000000 0.000000
vn 0.000000 0.030856 -0.999524
vn 0.000000 0.030856 -0.999524
vn 0.000000 0.000000 -1.000000
vn 0.000000 0.000000 -1.000000
vn 0.999076 0.042972 0.000000
vn 0.999076 0.042972 0.000000
vn 0.998989 0.044958 0.000000
vn 0.998989 0.044958 0.000000
vn 0.000000 0.036852 -0.999321
vn 0.000000 0.036852 -0.999321
vn 0.000000 0.030856 -0.999524
vn 0.000000 0.030856 -0.999524
vn -0.999076 0.042972 0.000000
vn -0.999076 0.042972 0.000000
vn -0.998989 0.044958 0.000000
vn -0.998989 0.044958 0.000000
vn 0.000000 0.036852 0.999321
vn 0.000000 0.036852 0.999321
vn 0.000000 0.030856 0.999524
vn 0.000000 0.030856 0.999524
vn 0.999508 -0.031355 0.000000
vn 0.999508 -0.031355 0.000000
vn 0.999076 0.042972 0.000000
vn 0.999076 0.042972 0.000000
vn 0.000000 -0.027261 0.999628
vn 0.000000 -0.027261 0.999628
vn 0.000000 0.036852 0.999321
vn 0.000000 0.036852 0.999321
vn -0.999508 -0.031355 0.000000
vn -0.999508 -0.031355 0.000000
vn -0.999076 0.042972 0.000000
vn -0.999076 0.042972 0.000000
vn 0.000000 -0.027262 -0.999628
vn 0.000000 -0.027262 -0.999628
vn 0.000000 0.036852 -0.999321
vn 0.000000 0.036852 -0.999321
vn 1.000000 0.000000 0.000000
vn 1.000000 0.000000 0.000000
vn 0.000000 0.000000 -1.000000
vn 0.000000 0.000000 -1.000000
vn -1.000000 0.000000 0.000000
vn -1.000000 0.000000 0.000000
vn 0.000000 0.000000 1.000000
vn 0.000000 0.000000 1.000000
vn 1.000000 0.000001 0.000000
vn 1.000000 0.000001 0.000000
vn 0.957020 -0.290020 0.000000
vn 0.957020 -0.290020 0.000000
vn 0.000000 0.000000 -1.000000
vn 0.000000 0.000000 -1.000000
vn 0.000000 -0.196951 -0.980413
vn 0.000000 -0.196951 -0.980413
vn -1.000000 0.000000 0.000000
vn -1.000000 0.000000 0.000000
vn -0.957020 -0.290021 0.000000
vn -0.957020 -0.290021 0.000000
vn 0.000000 0.000000 1.000000
vn 0.000000 0.000000 1.000000
vn 0.000000 -0.196951 0.980413
vn 0.000000 -0.196951 0.980413
vn 1.000000 0.000000 0.000000
vn 1.000000 0.000000 0.000000
vn 1.000000 0.000000 0.000000
vn 1.000000 0.000000 0.000000
vn 0.000000 0.000000 1.000000
vn 0.000000 0.000000 1.000000
vn 0.000000 0.000000 1.000000
vn 0.000000 0.000000 1.000000
vn -1.000000 0.000000 0.000000
vn -1.000000 0.000000 0.000000
vn -1.000000 0.000000 0.000000
vn -1.000000 0.000000 0.000000
vn 0.000000 0.000000 -1.000000
vn 0.000000 0.000000 -1.000000
vn 0.000000 0.000000 -1.000000
vn 0.000000 0.000000 -1.000000
vn 0.000000 1.000000 -0.000002
vn 0.000000 1.000000 0.000001
vn 0.000000 1.000000 0.000001
vn 0.000000 1.000000 -0.000003
vn -0.049523 -0.997357 -0.053173
vn -0.049523 -0.997357 0.053173
vn -0.037430 -0.997345 0.062469
vn -0.037430 -0.997345 -0.062469
vn 0.000000 1.000000 0.000001
vn 0.000000 1.000000 0.000001
vn 0.049523 -0.997357 -0.053173
vn 0.037430 -0.997345 -0.062469
vn 0.000000 1.000000 -0.000002
vn 0.000000 1.000000 -0.000003
vn 0.049523 -0.997357 0.053173
vn 0.037430 -0.997345 0.062469
vn 0.000000 1.000000 -0.000001
vn 0.000000 1.000000 0.000002
vn 0.000000 1.000000 0.000003
vn 0.000000 1.000000 -0.000002
vn -0.049523 -0.997357 -0.053173
vn -0.049523 -0.997357 0.053173
vn -0.037430 -0.997345 0.062469
vn -0.037430 -0.997345 -0.062469
vn 0.000000 1.000000 0.000002
vn 0.000000 1.000000 0.000003
vn 0.049523 -0.997357 -0.053173
vn 0.037430 -0.997345 -0.062469
vn 0.000000 1.000000 -0.000001
vn 0.000000 1.000000 -0.000002
vn 0.049523 -0.997357 0.053173
vn 0.037430 -0.997345 0.062469
vn 0.657606 -0.753362 0.000000
vn 0.657606 -0.753362 0.000000
vn 0.000000 -0.687829 -0.725873
vn 0.000000 -0.687829 -0.725873
vn -0.657606 -0.753362 0.000000
vn -0.657606 -0.753362 0.000000
vn 0.000000 -0.687830 0.725872
vn 0.000000 -0.687830 0.725872
vn 1.000000 0.000001 0.000000
vn 1.000000 0.000001 0.000000
vn 0.957020 -0.290020 0.000000
vn 0.957020 -0.290020 0.000000
vn 0.000000 0.000000 1.000000
vn 0.000000 0.000000 1.000000
vn 0.000000 -0.196951 0.980413
vn 0.000000 -0.196951 0.980413
vn -1.000000 0.000000 0.000000
vn -1.000000 0.000000 0.000000
vn -0.957020 -0.290021 0.000000
vn -0.957020 -0.290021 0.000000
vn 0.000000 0.000000 -1.000000
vn 0.000000 0.000000 -1.000000
vn 0.000000 -0.196951 -0.980413
vn 0.000000 -0.196951 -0.980413
vn 0.786126 -0.618067 0.000000
vn 0.786126 -0.618067 0.000000
vn 0.000000 -0.481855 -0.876251
vn 0.000000 -0.481855 -0.876251
vn -0.786125 -0.618067 0.000000
vn -0.786125 -0.618067 0.000000
vn 0.000000 -0.481854 0.876252
vn 0.000000 -0.481854 0.876252
vn 0.657606 -0.753362 0.000000
vn 0.657606 -0.753362 0.000000
vn 0.000000 -0.687830 0.725872
vn 0.000000 -0.687830 0.725872
vn -0.657606 -0.753362 0.000000
vn -0.657606 -0.753362 0.000000
vn 0.000000 -0.687829 -0.725873
vn 0.000000 -0.687829 -0.725873
vn 0.999508 -0.031355 0.000000
vn 0.999508 -0.031355 0.000000
vn 0.000000 -0.027262 -0.999628
vn 0.000000 -0.027262 -0.999628
vn -0.999508 -0.031355 0.000000
vn -0.999508 -0.031355 0.000000
vn 0.000000 -0.027261 0.999628
vn 0.000000 -0.027261 0.999628
vn 0.786126 -0.618067 0.000000
vn 0.786126 -0.618067 0.000000
vn 0.000000 -0.481854 0.876252
vn 0.000000 -0.481854 0.876252
vn -0.786125 -0.618067 0.000000
vn -0.786125 -0.618067 0.000000
vn 0.000000 -0.481855 -0.876251
vn 0.000000 -0.481855 -0.876251
vn 0.636479 0.709594 -0.302274
vn 0.636479 0.709594 -0.302274
vn 0.636479 0.709594 -0.302275
vn 0.636479 0.709594 -0.302275
vn 0.000000 -0.043918 -0.999035
vn 0.000000 -0.043918 -0.999035
vn 0.000000 -0.043918 -0.999035
vn 0.000000 -0.043918 -0.999035
vn -0.636479 0.709594 -0.302275
vn -0.636479 0.709594 -0.302275
vn -0.636479 0.709594 -0.302275
vn -0.636479 0.709594 -0.302275
vn 0.000000 0.689990 0.723819
vn 0.000000 0.689990 0.723819
vn 0.000000 0.689990 0.723819
vn 0.000000 0.689990 0.723819
vn 0.636479 -0.720323 0.275734
vn 0.636479 -0.720323 0.275734
vn 0.636479 -0.720323 0.275734
vn 0.636479 -0.720323 0.275734
vn 0.000000 0.006814 0.999977
vn 0.000000 0.006814 0.999977
vn 0.000000 0.006814 0.999977
vn 0.000000 0.006814 0.999977
vn -0.636478 -0.720324 0.275734
vn -0.636478 -0.720324 0.275734
vn -0.636478 -0.720324 0.275734
vn -0.636478 -0.720324 0.275734
vn 0.000000 -0.662652 -0.748927
vn 0.000000 -0.662652 -0.748927
vn 0.000000 -0.662652 -0.748927
vn 0.000000 -0.662652 -0.748927
vn 0.636478 0.752197 0.170574
vn 0.636478 0.752197 0.170574
vn 0.636478 0.752197 0.170574
vn 0.636478 0.752197 0.170574
vn 0.000000 0.549500 -0.835494
vn 0.000000 0.549500 -0.835494
vn 0.000000 0.549500 -0.835494
vn 0.000000 0.549500 -0.835494
vn -0.636478 0.752197 0.170574
vn -0.636478 0.752197 0.170574
vn -0.636478 0.752197 0.170574
vn -0.636478 0.752197 0.170574
vn 0.000000 0.135359 0.990797
vn 0.000000 0.135359 0.990797
vn 0.000000 0.135359 0.990797
vn 0.000000 0.135359 0.990797
vn 0.636479 0.644138 -0.424241
vn 0.636479 0.644138 -0.424241
vn 0.636479 0.644138 -0.424241
vn 0.636479 0.644138 -0.424241
vn 0.000000 -0.221779 -0.975097
vn 0.000000 -0.221779 -0.975097
vn 0.000000 -0.221779 -0.975097
vn 0.000000 -0.221779 -0.975097
vn -0.636478 0.644138 -0.424242
vn -0.636478 0.644138 -0.424242
vn -0.636478 0.644138 -0.424242
vn -0.636478 0.644138 -0.424242
vn 0.000000 0.808253 0.588836
vn 0.000000 0.808253 0.588836
vn 0.000000 0.808253 0.588836
vn 0.000000 0.808253 0.588836
vn 0.916940 0.122278 -0.379827
vn 0.916941 0.122278 -0.379827
vn 0.916941 0.122278 -0.379827
vn 0.916941 0.122278 -0.379827
vn 0.916940 0.389145 0.088245
vn 0.916940 0.389145 0.088245
vn 0.916940 0.389145 0.088245
vn 0.916940 0.389145 0.088245
vn 0.916941 -0.180506 0.355861
vn 0.916941 -0.180506 0.355861
vn 0.916941 -0.180506 0.355861
vn 0.916941 -0.180506 0.355861
vn 0.916942 -0.392562 -0.071503
vn 0.916942 -0.392562 -0.071503
vn 0.916942 -0.392562 -0.071503
vn 0.916942 -0.392562 -0.071503
vn 0.516852 -0.729376 0.448191
vn 0.516852 -0.729376 0.448191
vn 0.516852 -0.729376 0.448191
vn 0.516852 -0.729376 0.448191
vn 0.000000 0.268054 0.963404
vn 0.000000 0.268054 0.963404
vn 0.000000 0.268054 0.963404
vn 0.000000 0.268054 0.963404
vn -0.516852 -0.729375 0.448191
vn -0.516852 -0.729376 0.448191
vn -0.516852 -0.729376 0.448192
vn -0.516852 -0.729376 0.448192
vn 0.000000 -0.927156 -0.374676
vn 0.000000 -0.927156 -0.374676
vn 0.000000 -0.927156 -0.374676
vn 0.000000 -0.927156 -0.374676
vn -0.648302 0.233320 -0.724753
vn -0.648302 0.233320 -0.724753
vn -0.648302 0.233320 -0.724753
vn -0.648302 0.233320 -0.724753
vn -0.648306 -0.749056 -0.136435
vn -0.648306 -0.749056 -0.136435
vn -0.648306 -0.749056 -0.136435
vn -0.648306 -0.749056 -0.136435
vn -0.648303 -0.344425 0.679025
vn -0.648303 -0.344425 0.679024
vn -0.648303 -0.344425 0.679025
vn -0.648303 -0.344425 0.679025
vn -0.648301 0.742532 0.168382
vn -0.648301 0.742532 0.168382
vn -0.648301 0.742532 0.168382
vn -0.648301 0.742532 0.168382
vn 0.636480 0.557936 -0.532543
vn 0.636480 0.557936 -0.532542
vn 0.636480 0.557936 -0.532542
vn 0.636480 0.557936 -0.532542
vn 0.000000 -0.392496 -0.919754
vn 0.000000 -0.392496 -0.919754
vn 0.000000 -0.392496 -0.919754
vn 0.000000 -0.392496 -0.919754
vn -0.636479 0.557936 -0.532543
vn -0.636479 0.557935 -0.532543
vn -0.636479 0.557936 -0.532543
vn -0.636479 0.557936 -0.532543
vn 0.000000 0.900485 0.434886
vn 0.000000 0.900485 0.434886
vn 0.000000 0.900485 0.434886
vn 0.000000 0.900486 0.434886
vn 0.916941 0.122278 0.379827
vn 0.916941 0.122278 0.379827
vn 0.916941 0.122278 0.379827
vn 0.916941 0.122278 0.379827
vn 0.916942 -0.392562 0.071503
vn 0.916942 -0.392562 0.071503
vn 0.916942 -0.392562 0.071503
vn 0.916942 -0.392562 0.071503
vn 0.916941 -0.180505 -0.355861
vn 0.916941 -0.180505 -0.355861
vn 0.916941 -0.180505 -0.355861
vn 0.916941 -0.180505 -0.355861
vn 0.916940 0.389145 -0.088245
vn 0.916940 0.389145 -0.088245
vn 0.916940 0.389145 -0.088245
vn 0.916940 0.389145 -0.088245
vn 0.636480 -0.571434 0.518031
vn 0.636480 -0.571434 0.518031
vn 0.636480 -0.571434 0.518031
vn 0.636480 -0.571434 0.518031
vn 0.000000 0.368735 0.929535
vn 0.000000 0.368735 0.929535
vn 0.000000 0.368735 0.929535
vn 0.000000 0.368735 0.929535
vn -0.636480 -0.571435 0.518031
vn -0.636480 -0.571435 0.518031
vn -0.636480 -0.571435 0.518031
vn -0.636480 -0.571435 0.518031
vn 0.000000 -0.889014 -0.457880
vn 0.000000 -0.889014 -0.457880
vn 0.000000 -0.889014 -0.457880
vn 0.000000 -0.889014 -0.457880
vn -0.916941 0.122277 0.379825
vn -0.916941 0.122277 0.379825
vn -0.916941 0.122277 0.379825
vn -0.916941 0.122277 0.379825
vn -0.916941 0.389142 -0.088245
vn -0.916941 0.389142 -0.088245
vn -0.916941 0.389142 -0.088245
vn -0.916941 0.389142 -0.088245
vn -0.916941 -0.180505 -0.355860
vn -0.916941 -0.180505 -0.355860
vn -0.916941 -0.180505 -0.355860
vn -0.916941 -0.180505 -0.355860
vn -0.916943 -0.392560 0.071503
vn -0.916943 -0.392560 0.071503
vn -0.916943 -0.392560 0.071503
vn -0.916943 -0.392560 0.071503
vn 0.636480 0.453764 -0.623692
vn 0.636480 0.453764 -0.623692
vn 0.636480 0.453764 -0.623692
vn 0.636480 0.453764 -0.623692
vn 0.000000 -0.550578 -0.834784
vn 0.000000 -0.550578 -0.834784
vn 0.000000 -0.550578 -0.834784
vn 0.000000 -0.550578 -0.834784
vn -0.636479 0.453764 -0.623693
vn -0.636479 0.453764 -0.623693
vn -0.636479 0.453764 -0.623693
vn -0.636479 0.453764 -0.623693
vn 0.000000 0.963717 0.266926
vn 0.000000 0.963717 0.266926
vn 0.000000 0.963717 0.266926
vn 0.000000 0.963717 0.266926
vn -0.916941 0.394110 0.062423
vn -0.916941 0.394110 0.062423
vn -0.916941 0.394110 0.062423
vn -0.916941 0.394110 0.062423
vn -0.916941 0.035805 -0.397414
vn -0.916941 0.035805 -0.397414
vn -0.916941 0.035805 -0.397414
vn -0.916941 0.035805 -0.397414
vn -0.916940 -0.399026 0.000000
vn -0.916940 -0.399026 0.000000
vn -0.916940 -0.399026 0.000000
vn -0.916940 -0.399026 0.000000
vn -0.916942 -0.036940 0.397307
vn -0.916942 -0.036940 0.397307
vn -0.916942 -0.036940 0.397307
vn -0.916942 -0.036940 0.397307
vn 0.751545 -0.398684 0.525578
vn 0.751545 -0.398684 0.525578
vn 0.751545 -0.398684 0.525578
vn 0.751545 -0.398684 0.525578
vn 0.000000 0.631478 0.775394
vn 0.000000 0.631478 0.775394
vn 0.000000 0.631478 0.775394
vn 0.000000 0.631478 0.775394
vn -0.751544 -0.398684 0.525579
vn -0.751544 -0.398684 0.525579
vn -0.751544 -0.398684 0.525579
vn -0.751544 -0.398684 0.525579
vn 0.000000 -0.936856 -0.349716
vn 0.000000 -0.936856 -0.349716
vn 0.000000 -0.936856 -0.349716
vn 0.000000 -0.936856 -0.349716
vn 0.916940 0.394112 0.062423
vn 0.916940 0.394112 0.062423
vn 0.916940 0.394112 0.062423
vn 0.916940 0.394112 0.062423
vn 0.916941 -0.036940 0.397309
vn 0.916941 -0.036940 0.397309
vn 0.916941 -0.036940 0.397309
vn 0.916941 -0.036940 0.397309
vn 0.916939 -0.399027 0.000000
vn 0.916939 -0.399027 0.000000
vn 0.916939 -0.399027 0.000000
vn 0.916939 -0.399027 0.000000
vn 0.916941 0.035805 -0.397413
vn 0.916941 0.035805 -0.397413
vn 0.916941 0.035805 -0.397413
vn 0.916941 0.035805 -0.397413
vn 0.636480 0.334977 -0.694754
vn 0.636480 0.334977 -0.694755
vn 0.636480 0.334977 -0.694754
vn 0.636480 0.334977 -0.694755
vn 0.000000 -0.690919 -0.722933
vn 0.000000 -0.690919 -0.722933
vn 0.000000 -0.690919 -0.722933
vn 0.000000 -0.690919 -0.722933
vn -0.636479 0.334977 -0.694755
vn -0.636479 0.334977 -0.694755
vn -0.636479 0.334977 -0.694755
vn -0.636479 0.334977 -0.694755
vn 0.000000 0.995908 0.090368
vn 0.000000 0.995908 0.090368
vn 0.000000 0.995908 0.090368
vn 0.000000 0.995908 0.090368
vn -0.537598 0.801922 0.260595
vn -0.537598 0.801922 0.260595
vn -0.537598 0.801922 0.260595
vn -0.537598 0.801922 0.260595
vn -0.537596 0.224551 -0.812753
vn -0.537596 0.224551 -0.812753
vn -0.537596 0.224551 -0.812753
vn -0.537596 0.224551 -0.812753
vn -0.537597 -0.832821 -0.131908
vn -0.537597 -0.832821 -0.131909
vn -0.537597 -0.832821 -0.131909
vn -0.537597 -0.832821 -0.131908
vn -0.537592 -0.231505 0.810802
vn -0.537592 -0.231505 0.810802
vn -0.537592 -0.231505 0.810802
vn -0.537592 -0.231505 0.810802
vn 0.636480 -0.344861 0.689902
vn 0.636480 -0.344861 0.689902
vn 0.636480 -0.344861 0.689902
vn 0.636480 -0.344861 0.689902
vn 0.000000 0.680529 0.732722
vn 0.000000 0.680529 0.732722
vn 0.000000 0.680529 0.732722
vn 0.000000 0.680528 0.732722
vn -0.636480 -0.344861 0.689902
vn -0.636480 -0.344861 0.689902
vn -0.636480 -0.344861 0.689902
vn -0.636480 -0.344861 0.689902
vn 0.000000 -0.994517 -0.104577
vn 0.000000 -0.994517 -0.104577
vn 0.000000 -0.994517 -0.104577
vn 0.000000 -0.994517 -0.104577
vn 0.916942 0.379487 0.123320
vn 0.916942 0.379487 0.123320
vn 0.916942 0.379487 0.123320
vn 0.916942 0.379487 0.123320
vn 0.916939 -0.109554 0.383693
vn 0.916939 -0.109554 0.383693
vn 0.916939 -0.109554 0.383693
vn 0.916939 -0.109554 0.383693
vn 0.916941 -0.394110 -0.062422
vn 0.916941 -0.394110 -0.062422
vn 0.916941 -0.394110 -0.062422
vn 0.916941 -0.394110 -0.062422
vn 0.916941 0.106262 -0.384613
vn 0.916941 0.106262 -0.384613
vn 0.916941 0.106262 -0.384613
vn 0.916941 0.106262 -0.384613
vn 0.636480 0.205401 -0.743440
vn 0.636480 0.205401 -0.743440
vn 0.636480 0.205401 -0.743440
vn 0.636480 0.205401 -0.743440
vn 0.000000 -0.809009 -0.587796
vn 0.000000 -0.809009 -0.587796
vn 0.000000 -0.809009 -0.587796
vn 0.000000 -0.809009 -0.587796
vn -0.636479 0.205401 -0.743441
vn -0.636479 0.205401 -0.743441
vn -0.636479 0.205401 -0.743441
vn -0.636479 0.205401 -0.743441
vn 0.000000 0.996024 -0.089084
vn 0.000000 0.996024 -0.089084
vn 0.000000 0.996024 -0.089084
vn 0.000000 0.996024 -0.089084
vn -0.398065 0.817313 0.416586
vn -0.398065 0.817313 0.416586
vn -0.398065 0.817313 0.416586
vn -0.398065 0.817313 0.416586
vn -0.398063 0.398414 -0.826325
vn -0.398063 0.398414 -0.826325
vn -0.398063 0.398414 -0.826325
vn -0.398063 0.398414 -0.826325
vn -0.398062 -0.872449 -0.283514
vn -0.398062 -0.872449 -0.283514
vn -0.398062 -0.872449 -0.283514
vn -0.398062 -0.872448 -0.283514
vn -0.398061 -0.410170 0.820554
vn -0.398061 -0.410169 0.820554
vn -0.398061 -0.410169 0.820554
vn -0.398061 -0.410169 0.820554
vn 0.786332 -0.169620 0.594062
vn 0.786332 -0.169620 0.594062
vn 0.786333 -0.169620 0.594062
vn 0.786333 -0.169620 0.594062
vn 0.000000 0.877876 0.478888
vn 0.000000 0.877876 0.478888
vn 0.000000 0.877876 0.478888
vn 0.000000 0.877876 0.478888
vn -0.786332 -0.169620 0.594063
vn -0.786332 -0.169620 0.594063
vn -0.786332 -0.169620 0.594063
vn -0.786332 -0.169620 0.594063
vn 0.000000 -0.999746 -0.022518
vn 0.000000 -0.999747 -0.022518
vn 0.000000 -0.999747 -0.022518
vn 0.000000 -0.999747 -0.022518
vn 0.916942 0.355505 0.181202
vn 0.916942 0.355505 0.181202
vn 0.916942 0.355505 0.181202
vn 0.916942 0.355505 0.181202
vn 0.916941 -0.178411 0.356916
vn 0.916941 -0.178411 0.356916
vn 0.916941 -0.178411 0.356916
vn 0.916941 -0.178411 0.356916
vn 0.916941 -0.379490 -0.123321
vn 0.916940 -0.379490 -0.123321
vn 0.916940 -0.379490 -0.123321
vn 0.916940 -0.379490 -0.123321
vn 0.916941 0.173298 -0.359427
vn 0.916941 0.173298 -0.359427
vn 0.916941 0.173298 -0.359427
vn 0.916941 0.173298 -0.359427
vn 0.636480 0.069210 -0.768182
vn 0.636480 0.069210 -0.768182
vn 0.636480 0.069210 -0.768182
vn 0.636480 0.069210 -0.768182
vn 0.000000 -0.901049 -0.433718
vn 0.000000 -0.901049 -0.433718
vn 0.000000 -0.901049 -0.433718
vn 0.000000 -0.901049 -0.433718
vn -0.636480 0.069210 -0.768182
vn -0.636480 0.069210 -0.768182
vn -0.636480 0.069210 -0.768182
vn -0.636480 0.069210 -0.768182
vn 0.000000 0.964059 -0.265688
vn 0.000000 0.964059 -0.265688
vn 0.000000 0.964059 -0.265688
vn 0.000000 0.964059 -0.265688
vn -0.916941 0.322738 0.234649
vn -0.916941 0.322738 0.234649
vn -0.916941 0.322737 0.234649
vn -0.916941 0.322737 0.234649
vn -0.916941 0.234752 -0.322663
vn -0.916941 0.234752 -0.322663
vn -0.916941 0.234752 -0.322663
vn -0.916941 0.234752 -0.322663
vn -0.916942 -0.355505 -0.181201
vn -0.916942 -0.355505 -0.181201
vn -0.916942 -0.355505 -0.181201
vn -0.916942 -0.355505 -0.181201
vn -0.916942 -0.241152 0.317906
vn -0.916942 -0.241152 0.317906
vn -0.916942 -0.241152 0.317906
vn -0.916942 -0.241152 0.317906
vn 0.916941 0.322737 0.234649
vn 0.916941 0.322737 0.234649
vn 0.916941 0.322737 0.234649
vn 0.916941 0.322737 0.234649
vn 0.916941 -0.241153 0.317906
vn 0.916941 -0.241153 0.317907
vn 0.916941 -0.241153 0.317906
vn 0.916941 -0.241153 0.317907
vn 0.916941 -0.355506 -0.181202
vn 0.916941 -0.355506 -0.181202
vn 0.916941 -0.355506 -0.181202
vn 0.916941 -0.355506 -0.181202
vn 0.916940 0.234752 -0.322664
vn 0.916940 0.234752 -0.322664
vn 0.916940 0.234752 -0.322664
vn 0.916940 0.234752 -0.322664
vn 0.636480 -0.071403 0.767981
vn 0.636480 -0.071403 0.767981
vn 0.636480 -0.071403 0.767981
vn 0.636480 -0.071403 0.767981
vn 0.000000 0.899803 0.436296
vn 0.000000 0.899803 0.436296
vn 0.000000 0.899803 0.436296
vn 0.000000 0.899803 0.436296
vn -0.636479 -0.071403 0.767982
vn -0.636479 -0.071403 0.767982
vn -0.636479 -0.071403 0.767982
vn -0.636479 -0.071403 0.767982
vn 0.000000 -0.964815 0.262930
vn 0.000000 -0.964815 0.262930
vn 0.000000 -0.964815 0.262930
vn 0.000000 -0.964815 0.262930
vn -0.501100 0.611516 0.612330
vn -0.501100 0.611516 0.612330
vn -0.501100 0.611516 0.612330
vn -0.501100 0.611516 0.612330
vn -0.501096 0.626003 -0.597513
vn -0.501096 0.626003 -0.597513
vn -0.501096 0.626003 -0.597514
vn -0.501096 0.626003 -0.597513
vn -0.501096 -0.699945 -0.508901
vn -0.501096 -0.699945 -0.508901
vn -0.501096 -0.699945 -0.508901
vn -0.501096 -0.699945 -0.508901
vn -0.501093 -0.641152 0.581232
vn -0.501093 -0.641151 0.581232
vn -0.501093 -0.641152 0.581232
vn -0.501093 -0.641152 0.581232
vn 0.636478 0.752197 -0.170574
vn 0.636478 0.752197 -0.170574
vn 0.636478 0.752197 -0.170574
vn 0.636478 0.752197 -0.170574
vn 0.000000 0.135359 -0.990797
vn 0.000000 0.135359 -0.990797
vn 0.000000 0.135359 -0.990797
vn 0.000000 0.135359 -0.990797
vn -0.636478 0.752197 -0.170574
vn -0.636478 0.752197 -0.170574
vn -0.636478 0.752197 -0.170574
vn -0.636478 0.752197 -0.170574
vn 0.000000 0.549497 0.835496
vn 0.000000 0.549497 0.835496
vn 0.000000 0.549497 0.835496
vn 0.000000 0.549497 0.835496
vn 0.916942 0.281962 0.282338
vn 0.916942 0.281962 0.282338
vn 0.916942 0.281962 0.282338
vn 0.916942 0.281962 0.282338
vn 0.916940 -0.295630 0.268001
vn 0.916940 -0.295630 0.268001
vn 0.916940 -0.295630 0.268001
vn 0.916940 -0.295630 0.268001
vn 0.916940 -0.322738 -0.234650
vn 0.916940 -0.322738 -0.234650
vn 0.916940 -0.322738 -0.234650
vn 0.916940 -0.322738 -0.234650
vn 0.916941 0.288644 -0.275507
vn 0.916941 0.288644 -0.275507
vn 0.916941 0.288644 -0.275507
vn 0.916941 0.288644 -0.275507
vn 0.636478 -0.758810 0.138212
vn 0.636478 -0.758810 0.138212
vn 0.636478 -0.758810 0.138212
vn 0.636478 -0.758810 0.138212
vn 0.000000 -0.177655 0.984093
vn 0.000000 -0.177655 0.984093
vn 0.000000 -0.177655 0.984093
vn 0.000000 -0.177655 0.984093
vn -0.636478 -0.758810 0.138213
vn -0.636478 -0.758810 0.138213
vn -0.636478 -0.758810 0.138213
vn -0.636478 -0.758810 0.138213
vn 0.000000 -0.513227 -0.858253
vn 0.000000 -0.513227 -0.858253
vn 0.000000 -0.513227 -0.858253
vn 0.000000 -0.513227 -0.858253
vn -0.519501 0.501450 0.691857
vn -0.519501 0.501450 0.691857
vn -0.519501 0.501450 0.691857
vn -0.519501 0.501450 0.691857
vn -0.519501 0.713601 -0.469991
vn -0.519501 0.713601 -0.469991
vn -0.519501 0.713601 -0.469991
vn -0.519501 0.713601 -0.469991
vn -0.519498 -0.603801 -0.604604
vn -0.519498 -0.603801 -0.604604
vn -0.519498 -0.603801 -0.604604
vn -0.519498 -0.603801 -0.604604
vn -0.519498 -0.728010 0.447352
vn -0.519498 -0.728010 0.447352
vn -0.519498 -0.728010 0.447352
vn -0.519498 -0.728010 0.447352
vn 0.636479 -0.720323 -0.275734
vn 0.636479 -0.720323 -0.275734
vn 0.636479 -0.720323 -0.275734
vn 0.636479 -0.720323 -0.275734
vn 0.000000 -0.662653 0.748927
vn 0.000000 -0.662653 0.748927
vn 0.000000 -0.662653 0.748927
vn 0.000000 -0.662653 0.748927
vn -0.636478 -0.720324 -0.275734
vn -0.636478 -0.720324 -0.275734
vn -0.636478 -0.720324 -0.275734
vn -0.636478 -0.720324 -0.275734
vn 0.000000 0.006814 -0.999977
vn 0.000000 0.006814 -0.999977
vn 0.000000 0.006814 -0.999977
vn 0.000000 0.006814 -0.999977
vn 0.916942 0.234167 0.323084
vn 0.916942 0.234167 0.323084
vn 0.916942 0.234167 0.323084
vn 0.916942 0.234167 0.323084
vn 0.916941 -0.339968 0.208906
vn 0.916941 -0.339968 0.208906
vn 0.916941 -0.339968 0.208906
vn 0.916941 -0.339968 0.208906
vn 0.916941 -0.281965 -0.282340
vn 0.916941 -0.281965 -0.282340
vn 0.916941 -0.281965 -0.282340
vn 0.916941 -0.281965 -0.282340
vn 0.916942 0.333238 -0.219477
vn 0.916942 0.333238 -0.219477
vn 0.916942 0.333238 -0.219477
vn 0.916942 0.333238 -0.219477
vn 0.636479 0.709594 0.302274
vn 0.636479 0.709594 0.302275
vn 0.636479 0.709594 0.302275
vn 0.636479 0.709594 0.302275
vn 0.000000 0.689990 -0.723819
vn 0.000000 0.689990 -0.723819
vn 0.000000 0.689990 -0.723819
vn 0.000000 0.689990 -0.723819
vn -0.636479 0.709594 0.302275
vn -0.636479 0.709594 0.302275
vn -0.636479 0.709594 0.302275
vn -0.636479 0.709594 0.302275
vn 0.000000 -0.043918 0.999035
vn 0.000000 -0.043918 0.999035
vn 0.000000 -0.043918 0.999035
vn 0.000000 -0.043918 0.999035
vn -0.348718 0.423972 0.835849
vn -0.348718 0.423972 0.835849
vn -0.348718 0.423972 0.835849
vn -0.348718 0.423972 0.835849
vn -0.348718 0.862254 -0.367305
vn -0.348718 0.862254 -0.367305
vn -0.348719 0.862254 -0.367305
vn -0.348719 0.862254 -0.367305
vn -0.348719 -0.550017 -0.758866
vn -0.348719 -0.550017 -0.758866
vn -0.348719 -0.550017 -0.758866
vn -0.348719 -0.550017 -0.758866
vn -0.348720 -0.875290 0.335055
vn -0.348720 -0.875290 0.335055
vn -0.348720 -0.875290 0.335055
vn -0.348720 -0.875290 0.335055
vn 0.636479 -0.657143 -0.403804
vn 0.636479 -0.657143 -0.403804
vn 0.636479 -0.657143 -0.403804
vn 0.636479 -0.657143 -0.403804
vn 0.000000 -0.789366 0.613923
vn 0.000000 -0.789366 0.613923
vn 0.000000 -0.789366 0.613923
vn 0.000000 -0.789366 0.613923
vn -0.636479 -0.657143 -0.403804
vn -0.636479 -0.657143 -0.403804
vn -0.636479 -0.657143 -0.403804
vn -0.636479 -0.657143 -0.403804
vn 0.000000 0.191050 -0.981580
vn 0.000000 0.191050 -0.981580
vn 0.000000 0.191050 -0.981580
vn 0.000000 0.191050 -0.981580
vn 0.916941 0.180505 0.355861
vn 0.916941 0.180505 0.355861
vn 0.916941 0.180505 0.355861
vn 0.916941 0.180505 0.355861
vn 0.916942 -0.372652 0.142648
vn 0.916942 -0.372652 0.142648
vn 0.916942 -0.372652 0.142648
vn 0.916942 -0.372652 0.142648
vn 0.916941 -0.234168 -0.323085
vn 0.916941 -0.234168 -0.323085
vn 0.916941 -0.234168 -0.323085
vn 0.916941 -0.234168 -0.323085
vn 0.916941 0.367103 -0.156380
vn 0.916941 0.367103 -0.156380
vn 0.916941 0.367103 -0.156380
vn 0.916941 0.367103 -0.156380
vn 0.916939 0.394115 -0.062423
vn 0.916939 0.394115 -0.062423
vn 0.916939 0.394115 -0.062423
vn 0.916939 0.394115 -0.062423
vn 0.916940 0.035805 0.397414
vn 0.916941 0.035805 0.397414
vn 0.916940 0.035805 0.397414
vn 0.916940 0.035805 0.397414
vn 0.916939 -0.399027 0.000000
vn 0.916939 -0.399027 0.000000
vn 0.916939 -0.399027 0.000000
vn 0.916939 -0.399027 0.000000
vn 0.916941 -0.036940 -0.397309
vn 0.916941 -0.036940 -0.397309
vn 0.916941 -0.036940 -0.397309
vn 0.916941 -0.036940 -0.397309
vn 0.636479 0.644138 0.424241
vn 0.636479 0.644138 0.424241
vn 0.636479 0.644138 0.424241
vn 0.636479 0.644138 0.424241
vn 0.000000 0.808253 -0.588836
vn 0.000000 0.808253 -0.588836
vn 0.000000 0.808253 -0.588836
vn 0.000000 0.808253 -0.588836
vn -0.636478 0.644138 0.424242
vn -0.636479 0.644138 0.424242
vn -0.636479 0.644138 0.424242
vn -0.636478 0.644138 0.424242
vn 0.000000 -0.221779 0.975097
vn 0.000000 -0.221779 0.975097
vn 0.000000 -0.221779 0.975097
vn 0.000000 -0.221779 0.975097
vn -0.449197 0.882433 -0.139767
vn -0.449197 0.882433 -0.139767
vn -0.449197 0.882433 -0.139767
vn -0.449197 0.882433 -0.139767
vn -0.449199 -0.082710 -0.889595
vn -0.449199 -0.082710 -0.889595
vn -0.449199 -0.082710 -0.889595
vn -0.449199 -0.082710 -0.889595
vn -0.449195 -0.893434 0.000001
vn -0.449195 -0.893434 0.000001
vn -0.449195 -0.893434 0.000001
vn -0.449195 -0.893434 0.000001
vn -0.449199 0.080170 0.889828
vn -0.449199 0.080170 0.889827
vn -0.449199 0.080170 0.889828
vn -0.449199 0.080170 0.889828
vn 0.459617 -0.657987 -0.596495
vn 0.459617 -0.657987 -0.596495
vn 0.459617 -0.657987 -0.596495
vn 0.459617 -0.657987 -0.596495
vn 0.000000 -0.984732 0.174078
vn 0.000000 -0.984732 0.174078
vn 0.000000 -0.984732 0.174078
vn 0.000000 -0.984732 0.174078
vn -0.459617 -0.657987 -0.596495
vn -0.459617 -0.657987 -0.596495
vn -0.459617 -0.657987 -0.596495
vn -0.459617 -0.657987 -0.596495
vn 0.000000 0.331738 -0.943372
vn 0.000000 0.331738 -0.943372
vn 0.000000 0.331738 -0.943372
vn 0.000000 0.331738 -0.943372
vn 0.916942 0.379487 -0.123320
vn 0.916942 0.379487 -0.123320
vn 0.916942 0.379487 -0.123320
vn 0.916942 0.379487 -0.123320
vn 0.916941 0.106263 0.384614
vn 0.916941 0.106263 0.384614
vn 0.916941 0.106263 0.384614
vn 0.916941 0.106263 0.384614
vn 0.916941 -0.394110 0.062422
vn 0.916941 -0.394110 0.062422
vn 0.916941 -0.394110 0.062422
vn 0.916941 -0.394110 0.062422
vn 0.916939 -0.109554 -0.383693
vn 0.916939 -0.109554 -0.383693
vn 0.916939 -0.109554 -0.383693
vn 0.916939 -0.109554 -0.383693
vn 0.636480 0.557936 0.532542
vn 0.636480 0.557936 0.532542
vn 0.636480 0.557936 0.532542
vn 0.636480 0.557936 0.532542
vn 0.000000 0.900485 -0.434886
vn 0.000000 0.900485 -0.434886
vn 0.000000 0.900486 -0.434886
vn 0.000000 0.900485 -0.434886
vn -0.636479 0.557936 0.532543
vn -0.636479 0.557936 0.532543
vn -0.636479 0.557936 0.532543
vn -0.636479 0.557936 0.532543
vn 0.000000 -0.392497 0.919753
vn 0.000000 -0.392497 0.919753
vn 0.000000 -0.392497 0.919753
vn 0.000000 -0.392497 0.919753
vn -0.916942 0.379486 -0.123319
vn -0.916942 0.379486 -0.123319
vn -0.916942 0.379486 -0.123319
vn -0.916942 0.379486 -0.123319
vn -0.916940 -0.109553 -0.383691
vn -0.916940 -0.109553 -0.383691
vn -0.916940 -0.109553 -0.383691
vn -0.916940 -0.109553 -0.383691
vn -0.916941 -0.394109 0.062422
vn -0.916942 -0.394109 0.062422
vn -0.916942 -0.394109 0.062422
vn -0.916941 -0.394109 0.062422
vn -0.916942 0.106262 0.384611
vn -0.916942 0.106262 0.384611
vn -0.916942 0.106262 0.384611
vn -0.916942 0.106262 0.384611
vn 0.762593 -0.390946 -0.515376
vn 0.762593 -0.390946 -0.515376
vn 0.762593 -0.390946 -0.515376
vn 0.762593 -0.390946 -0.515376
vn 0.000000 -0.981328 0.192342
vn 0.000000 -0.981328 0.192342
vn 0.000000 -0.981328 0.192342
vn 0.000000 -0.981328 0.192342
vn -0.762593 -0.390946 -0.515377
vn -0.762593 -0.390946 -0.515377
vn -0.762593 -0.390946 -0.515377
vn -0.762593 -0.390946 -0.515377
vn 0.000000 0.774928 -0.632049
vn 0.000000 0.774928 -0.632050
vn 0.000000 0.774928 -0.632050
vn 0.000000 0.774928 -0.632050
vn 0.916942 0.355505 -0.181202
vn 0.916942 0.355505 -0.181202
vn 0.916942 0.355505 -0.181202
vn 0.916942 0.355505 -0.181202
vn 0.916941 0.173298 0.359427
vn 0.916941 0.173298 0.359427
vn 0.916941 0.173298 0.359427
vn 0.916941 0.173298 0.359427
vn 0.916940 -0.379490 0.123320
vn 0.916940 -0.379490 0.123320
vn 0.916940 -0.379490 0.123320
vn 0.916940 -0.379490 0.123320
vn 0.916940 -0.178412 -0.356917
vn 0.916940 -0.178412 -0.356917
vn 0.916940 -0.178412 -0.356917
vn 0.916940 -0.178412 -0.356917
vn 0.636480 0.453764 0.623692
vn 0.636480 0.453764 0.623692
vn 0.636480 0.453764 0.623692
vn 0.636480 0.453764 0.623692
vn 0.000000 0.963717 -0.266927
vn 0.000000 0.963717 -0.266927
vn 0.000000 0.963717 -0.266927
vn 0.000000 0.963717 -0.266927
vn -0.636480 0.453764 0.623693
vn -0.636479 0.453764 0.623693
vn -0.636479 0.453764 0.623693
vn -0.636480 0.453764 0.623693
vn 0.000000 -0.550579 0.834783
vn 0.000000 -0.550579 0.834783
vn 0.000000 -0.550579 0.834783
vn 0.000000 -0.550579 0.834783
vn -0.530838 0.755050 -0.384851
vn -0.530838 0.755050 -0.384851
vn -0.530838 0.755050 -0.384851
vn -0.530838 0.755050 -0.384851
vn -0.530836 -0.378923 -0.758044
vn -0.530837 -0.378923 -0.758044
vn -0.530837 -0.378923 -0.758044
vn -0.530836 -0.378923 -0.758044
vn -0.530835 -0.805986 0.261917
vn -0.530835 -0.805986 0.261917
vn -0.530835 -0.805986 0.261917
vn -0.530835 -0.805986 0.261917
vn -0.530836 0.368062 0.763376
vn -0.530836 0.368063 0.763376
vn -0.530836 0.368063 0.763376
vn -0.530836 0.368063 0.763376
vn 0.636480 -0.344861 -0.689902
vn 0.636480 -0.344861 -0.689902
vn 0.636480 -0.344861 -0.689902
vn 0.636480 -0.344861 -0.689902
vn 0.000000 -0.994516 0.104581
vn 0.000000 -0.994516 0.104581
vn 0.000000 -0.994516 0.104581
vn 0.000000 -0.994516 0.104581
vn -0.636480 -0.344861 -0.689902
vn -0.636480 -0.344861 -0.689902
vn -0.636480 -0.344861 -0.689902
vn -0.636480 -0.344861 -0.689902
vn 0.000000 0.680528 -0.732722
vn 0.000000 0.680528 -0.732722
vn 0.000000 0.680528 -0.732722
vn 0.000000 0.680528 -0.732722
vn 0.916941 0.322737 -0.234650
vn 0.916941 0.322737 -0.234650
vn 0.916941 0.322737 -0.234650
vn 0.916941 0.322737 -0.234650
vn 0.916940 0.234753 0.322664
vn 0.916940 0.234753 0.322664
vn 0.916940 0.234753 0.322664
vn 0.916940 0.234753 0.322664
vn 0.916941 -0.355506 0.181202
vn 0.916941 -0.355506 0.181202
vn 0.916941 -0.355506 0.181202
vn 0.916941 -0.355506 0.181202
vn 0.916941 -0.241153 -0.317907
vn 0.916941 -0.241153 -0.317907
vn 0.916941 -0.241153 -0.317907
vn 0.916941 -0.241153 -0.317907
vn 0.636479 0.334977 0.694755
vn 0.636479 0.334977 0.694755
vn 0.636479 0.334977 0.694755
vn 0.636479 0.334977 0.694755
vn 0.000000 0.995908 -0.090370
vn 0.000000 0.995908 -0.090370
vn 0.000000 0.995908 -0.090370
vn 0.000000 0.995908 -0.090370
vn -0.636480 0.334977 0.694755
vn -0.636480 0.334977 0.694755
vn -0.636480 0.334977 0.694755
vn -0.636480 0.334977 0.694755
vn 0.000000 -0.690916 0.722935
vn 0.000000 -0.690916 0.722935
vn 0.000000 -0.690916 0.722935
vn 0.000000 -0.690916 0.722935
vn -0.916941 0.322737 -0.234648
vn -0.916941 0.322737 -0.234648
vn -0.916941 0.322737 -0.234648
vn -0.916941 0.322737 -0.234648
vn -0.916942 -0.241152 -0.317905
vn -0.916942 -0.241152 -0.317905
vn -0.916942 -0.241152 -0.317905
vn -0.916942 -0.241152 -0.317905
vn -0.916942 -0.355504 0.181202
vn -0.916942 -0.355504 0.181201
vn -0.916942 -0.355504 0.181202
vn -0.916942 -0.355504 0.181202
vn -0.916941 0.234751 0.322663
vn -0.916941 0.234751 0.322663
vn -0.916941 0.234751 0.322663
vn -0.916941 0.234751 0.322663
vn 0.636479 -0.211761 -0.741654
vn 0.636479 -0.211761 -0.741654
vn 0.636479 -0.211761 -0.741654
vn 0.636479 -0.211761 -0.741654
vn 0.000000 -0.996750 -0.080557
vn 0.000000 -0.996750 -0.080557
vn 0.000000 -0.996750 -0.080557
vn 0.000000 -0.996750 -0.080557
vn -0.636479 -0.211761 -0.741655
vn -0.636479 -0.211761 -0.741655
vn -0.636479 -0.211761 -0.741655
vn -0.636479 -0.211761 -0.741655
vn 0.000000 0.803947 -0.594701
vn 0.000000 0.803947 -0.594701
vn 0.000000 0.803947 -0.594701
vn 0.000000 0.803947 -0.594700
vn 0.916942 0.281962 -0.282338
vn 0.916942 0.281962 -0.282338
vn 0.916942 0.281962 -0.282338
vn 0.916942 0.281962 -0.282338
vn 0.916941 0.288644 0.275508
vn 0.916941 0.288644 0.275508
vn 0.916941 0.288644 0.275508
vn 0.916941 0.288644 0.275508
vn 0.916941 -0.322738 0.234650
vn 0.916941 -0.322738 0.234650
vn 0.916941 -0.322738 0.234650
vn 0.916940 -0.322738 0.234650
vn 0.916939 -0.295630 -0.268001
vn 0.916939 -0.295630 -0.268001
vn 0.916939 -0.295630 -0.268001
vn 0.916939 -0.295630 -0.268001
vn 0.636480 0.205401 0.743441
vn 0.636480 0.205401 0.743441
vn 0.636480 0.205401 0.743441
vn 0.636480 0.205401 0.743441
vn 0.000000 0.996024 0.089083
vn 0.000000 0.996024 0.089083
vn 0.000000 0.996024 0.089083
vn 0.000000 0.996024 0.089083
vn -0.636480 0.205401 0.743441
vn -0.636480 0.205401 0.743441
vn -0.636480 0.205401 0.743441
vn -0.636480 0.205401 0.743441
vn 0.000000 -0.809008 0.587798
vn 0.000000 -0.809008 0.587798
vn 0.000000 -0.809008 0.587798
vn 0.000000 -0.809008 0.587798
vn -0.501100 0.611515 -0.612330
vn -0.501100 0.611515 -0.612330
vn -0.501100 0.611515 -0.612330
vn -0.501100 0.611515 -0.612330
vn -0.501094 -0.641151 -0.581232
vn -0.501094 -0.641151 -0.581232
vn -0.501094 -0.641151 -0.581232
vn -0.501094 -0.641151 -0.581232
vn -0.501095 -0.699945 0.508901
vn -0.501095 -0.699945 0.508901
vn -0.501095 -0.699945 0.508901
vn -0.501095 -0.699945 0.508901
vn -0.501097 0.626003 0.597513
vn -0.501097 0.626003 0.597513
vn -0.501097 0.626003 0.597513
vn -0.501097 0.626003 0.597513
vn 0.636479 -0.071403 -0.767982
vn 0.636479 -0.071403 -0.767982
vn 0.636479 -0.071403 -0.767982
vn 0.636479 -0.071403 -0.767982
vn 0.000000 -0.964814 -0.262932
vn 0.000000 -0.964814 -0.262932
vn 0.000000 -0.964814 -0.262932
vn 0.000000 -0.964814 -0.262932
vn -0.636480 -0.071403 -0.767981
vn -0.636480 -0.071403 -0.767981
vn -0.636480 -0.071403 -0.767981
vn -0.636480 -0.071403 -0.767981
vn 0.000000 0.899805 -0.436293
vn 0.000000 0.899805 -0.436293
vn 0.000000 0.899805 -0.436293
vn 0.000000 0.899805 -0.436293
vn 0.916942 0.234167 -0.323084
vn 0.916942 0.234167 -0.323084
vn 0.916942 0.234167 -0.323084
vn 0.916942 0.234167 -0.323084
vn 0.916942 0.333238 0.219477
vn 0.916942 0.333238 0.219477
vn 0.916942 0.333238 0.219477
vn 0.916942 0.333238 0.219477
vn 0.916941 -0.281965 0.282339
vn 0.916941 -0.281965 0.282339
vn 0.916941 -0.281965 0.282339
vn 0.916941 -0.281965 0.282339
vn 0.916941 -0.339968 -0.208906
vn 0.916941 -0.339968 -0.208906
vn 0.916941 -0.339968 -0.208906
vn 0.916941 -0.339968 -0.208906
vn -0.916943 0.234166 -0.323082
vn -0.916943 0.234166 -0.323082
vn -0.916943 0.234166 -0.323082
vn -0.916943 0.234166 -0.323082
vn -0.916941 -0.339967 -0.208905
vn -0.916941 -0.339967 -0.208905
vn -0.916941 -0.339967 -0.208905
vn -0.916941 -0.339967 -0.208905
vn -0.916941 -0.281965 0.282339
vn -0.916941 -0.281965 0.282339
vn -0.916941 -0.281965 0.282339
vn -0.916941 -0.281965 0.282339
vn -0.916943 0.333235 0.219476
vn -0.916943 0.333235 0.219476
vn -0.916943 0.333235 0.219476
vn -0.916943 0.333235 0.219476
vn 0.636480 0.069210 0.768181
vn 0.636480 0.069210 0.768182
vn 0.636480 0.069210 0.768182
vn 0.636480 0.069210 0.768182
vn 0.000000 0.964059 0.265687
vn 0.000000 0.964059 0.265687
vn 0.000000 0.964059 0.265687
vn 0.000000 0.964059 0.265687
vn -0.636479 0.069210 0.768182
vn -0.636479 0.069210 0.768182
vn -0.636479 0.069210 0.768182
vn -0.636479 0.069210 0.768182
vn 0.000000 -0.901049 0.433718
vn 0.000000 -0.901049 0.433718
vn 0.000000 -0.901049 0.433718
vn 0.000000 -0.901049 0.433718
vn 0.916941 0.180505 -0.355862
vn 0.916941 0.180505 -0.355862
vn 0.916941 0.180505 -0.355862
vn 0.916941 0.180505 -0.355862
vn 0.916941 0.367103 0.156380
vn 0.916941 0.367103 0.156380
vn 0.916941 0.367103 0.156380
vn 0.916941 0.367103 0.156380
vn 0.916941 -0.234169 0.323086
vn 0.916941 -0.234169 0.323086
vn 0.916941 -0.234169 0.323086
vn 0.916941 -0.234169 0.323086
vn 0.916941 -0.372652 -0.142648
vn 0.916941 -0.372652 -0.142648
vn 0.916942 -0.372652 -0.142648
vn 0.916942 -0.372652 -0.142648
vn 0.636478 -0.758810 -0.138212
vn 0.636478 -0.758810 -0.138212
vn 0.636478 -0.758810 -0.138212
vn 0.636478 -0.758810 -0.138212
vn 0.000000 -0.513227 0.858253
vn 0.000000 -0.513227 0.858253
vn 0.000000 -0.513227 0.858253
vn 0.000000 -0.513227 0.858253
vn -0.636478 -0.758810 -0.138213
vn -0.636478 -0.758810 -0.138213
vn -0.636478 -0.758810 -0.138213
vn -0.636478 -0.758810 -0.138213
vn 0.000000 -0.177655 -0.984093
vn 0.000000 -0.177655 -0.984093
vn 0.000000 -0.177655 -0.984093
vn 0.000000 -0.177655 -0.984093
vn -0.916942 0.180505 -0.355860
vn -0.916942 0.180505 -0.355860
vn -0.916942 0.180505 -0.355860
vn -0.916942 0.180505 -0.355860
vn -0.916943 -0.372650 -0.142648
vn -0.916943 -0.372650 -0.142648
vn -0.916943 -0.372650 -0.142648
vn -0.916943 -0.372650 -0.142648
vn -0.916942 -0.234168 0.323084
vn -0.916942 -0.234168 0.323084
vn -0.916942 -0.234168 0.323084
vn -0.916942 -0.234167 0.323084
vn -0.916942 0.367101 0.156379
vn -0.916942 0.367101 0.156379
vn -0.916942 0.367101 0.156379
vn -0.916942 0.367101 0.156379
s off
g pCube1
usemtl initialShadingGroup
f 161/1/1 162/2/2 163/3/3 164/4/4
f 3/5/5 4/6/6 6/7/7 5/8/8
f 165/9/9 166/10/10 167/11/11 168/12/12
f 11/13/13 8/14/14 66/15/15 43/16/16
s 1
f 2/17/17 8/14/18 11/13/19 12/18/20
s 2
f 7/442/21 75/423/22 9/21/23 26/22/24
f 26/22/24 9/21/23 3/5/25 5/8/26
s off
f 169/23/27 170/24/28 171/25/29 172/26/30
s 1
f 12/18/20 11/13/19 6/7/31 4/6/32
s off
f 2/17/33 12/18/34 78/27/35 77/28/36
f 173/29/37 174/30/38 175/31/39 176/32/40
f 178/33/41 177/34/42 179/35/43 180/36/44
f 181/37/45 182/38/46 183/39/47 184/40/48
f 186/41/49 185/420/50 187/43/51 188/44/52
f 189/45/53 190/46/54 191/47/55 192/48/56
f 194/49/57 193/50/58 195/51/59 196/52/60
f 197/53/61 198/54/62 199/55/63 200/56/64
f 202/57/65 201/58/66 203/59/67 204/60/68
f 205/61/69 206/62/70 207/63/71 208/64/72
f 209/65/73 210/66/74 211/67/75 212/68/76
f 213/69/77 214/70/78 215/71/79 216/72/80
f 217/73/81 218/74/82 219/75/83 220/76/84
f 221/77/85 222/78/86 223/79/87 224/80/88
f 225/81/89 226/82/90 227/83/91 228/84/92
f 229/85/93 230/86/94 231/87/95 232/88/96
f 233/89/97 234/90/98 235/91/99 236/92/100
f 238/93/101 237/94/102 239/95/103 240/96/104
f 241/97/105 242/98/106 243/99/107 244/100/108
f 246/101/109 245/102/110 247/103/111 248/104/112
f 249/105/113 250/106/114 251/107/115 252/108/116
f 254/109/117 253/110/118 255/111/119 256/112/120
f 257/113/121 258/114/122 259/115/123 260/116/124
f 82/117/125 81/118/126 83/119/127 84/120/128
f 261/121/129 262/122/130 263/123/131 264/124/132
f 266/125/133 265/126/134 267/127/135 268/128/136
f 269/129/137 270/130/138 271/131/139 272/132/140
f 274/133/141 273/134/142 275/135/143 276/136/144
f 277/137/145 278/138/146 279/139/147 280/140/148
f 282/141/149 281/142/150 283/143/151 284/144/152
f 285/145/153 286/146/154 287/147/155 288/148/156
f 289/149/157 290/150/158 291/151/159 292/152/160
f 293/153/161 294/154/162 295/155/163 296/156/164
f 297/157/165 298/158/166 299/159/167 300/160/168
f 302/161/169 301/162/170 303/163/171 304/164/172
f 305/165/173 306/166/174 307/167/175 308/168/176
f 310/169/177 309/170/178 311/171/179 312/172/180
f 313/173/181 314/174/182 315/175/183 316/176/184
f 317/177/185 318/178/186 319/179/187 320/180/188
f 321/181/189 322/182/190 323/183/191 324/184/192
f 325/185/193 326/186/194 327/187/195 328/188/196
f 329/189/197 330/190/198 331/191/199 332/192/200
f 333/193/201 334/194/202 335/418/203 336/417/204
f 337/197/205 338/198/206 339/199/207 340/200/208
f 341/201/209 342/202/210 343/203/211 344/204/212
f 345/205/213 346/206/214 347/207/215 348/208/216
f 349/209/217 350/210/218 351/211/219 352/212/220
f 353/213/221 354/214/222 355/215/223 356/216/224
f 358/217/225 357/218/226 359/219/227 360/220/228
f 361/221/229 362/222/230 363/223/231 364/224/232
f 366/225/233 365/226/234 367/227/235 368/228/236
f 369/229/237 370/230/238 371/231/239 372/232/240
f 374/233/241 373/234/242 375/235/243 376/236/244
f 377/237/245 378/238/246 379/239/247 380/240/248
f 382/241/249 381/242/250 383/243/251 384/244/252
f 385/245/253 386/246/254 387/247/255 388/248/256
f 390/249/257 389/250/258 391/251/259 392/252/260
f 393/253/261 394/254/262 395/255/263 396/256/264
f 86/257/265 85/258/266 87/259/267 88/260/268
f 397/261/269 398/262/270 399/263/271 400/264/272
f 402/265/273 401/266/274 403/267/275 404/268/276
f 406/269/277 405/270/278 407/271/279 408/272/280
f 410/273/281 409/274/282 411/275/283 412/276/284
f 414/277/285 413/278/286 415/279/287 416/280/288
f 9/21/289 78/27/290 12/18/291 4/6/292 3/5/293
f 5/8/294 6/7/295 11/13/296 43/16/297 26/22/298
f 7/19/299 66/15/300 8/14/301 2/17/302 77/28/303 75/20/304
f 114/281/305 113/282/306 115/283/307 116/284/308
f 113/282/309 117/285/310 118/286/311 115/283/312
f 117/285/313 119/429/314 120/430/315 118/286/316
f 119/287/317 114/281/318 116/284/319 120/288/320
s 3
f 101/289/321 102/290/322 85/258/323 86/257/324
s 4
f 102/290/325 103/291/326 87/259/327 85/258/328
s 5
f 103/291/329 104/292/330 88/260/331 87/259/332
s 6
f 104/292/333 101/289/334 86/257/335 88/260/336
s 7
f 90/293/337 89/294/338 97/295/339 98/296/340
s 8
f 91/425/341 90/293/342 98/296/343 99/433/344
s 9
f 92/299/345 91/297/346 99/298/347 100/300/348
s 10
f 89/294/349 92/299/350 100/300/351 97/295/352
s 3
f 157/301/353 158/302/354 94/303/355 93/304/356
s 4
f 158/302/357 159/305/358 95/306/359 94/303/360
s 5
f 159/305/361 160/307/362 96/308/363 95/306/364
s 6
f 160/307/365 157/301/366 93/304/367 96/308/368
s 7
f 98/296/340 97/295/339 81/118/369 82/117/370
s 8
f 99/433/344 98/296/343 82/117/371 84/120/372
s 9
f 100/300/348 99/298/347 84/120/373 83/119/374
s 10
f 97/295/352 100/300/351 83/119/375 81/118/376
s 3
f 93/304/356 94/303/355 102/290/322 101/289/321
s 4
f 94/303/360 95/306/359 103/291/326 102/290/325
s 5
f 95/306/364 96/308/363 104/292/330 103/291/329
s 6
f 96/308/368 93/304/367 101/289/334 104/292/333
s 7
f 106/309/377 105/310/378 129/311/379 130/312/380
s 8
f 107/431/381 106/309/382 130/312/383 131/428/384
s 9
f 108/315/385 107/313/386 131/314/387 132/316/388
s 10
f 105/310/389 108/315/390 132/316/391 129/311/392
s off
f 122/317/393 121/318/394 123/319/395 124/320/396
f 121/318/397 125/321/398 126/322/399 123/319/400
f 125/321/401 127/323/402 128/324/403 126/322/404
f 127/323/405 122/317/406 124/320/407 128/324/408
s 19
f 29/325/409 54/326/410 113/282/411 114/281/412
s 20
f 105/310/413 106/309/414 116/284/415 115/283/416
s 19
f 54/326/410 20/327/417 117/285/418 113/282/411
s 20
f 108/315/419 105/310/413 115/283/416 118/286/420
s 19
f 20/327/417 17/432/421 119/429/422 117/285/418
s 20
f 107/313/423 108/315/419 118/286/420 120/430/424
s 19
f 17/328/421 29/325/409 114/281/412 119/287/422
s 20
f 106/309/414 107/431/423 120/288/424 116/284/415
s 21
f 32/329/425 40/330/426 121/318/427 122/317/428
s 22
f 110/331/429 109/332/430 124/320/431 123/319/432
s 21
f 40/330/426 16/333/433 125/321/434 121/318/427
s 22
f 111/334/435 110/331/429 123/319/432 126/322/436
s 21
f 16/333/433 13/335/437 127/323/438 125/321/434
s 22
f 112/336/439 111/334/435 126/322/436 128/324/440
s 21
f 13/335/437 32/329/425 122/317/428 127/323/438
s 22
f 109/332/430 112/336/439 128/324/440 124/320/431
s 7
f 130/312/380 129/311/379 137/337/441 138/338/442
s 8
f 131/428/384 130/312/383 138/338/443 139/427/444
s 9
f 132/316/388 131/314/387 139/339/445 140/340/446
s 10
f 129/311/392 132/316/391 140/340/447 137/337/448
s 3
f 109/332/449 110/331/450 134/341/451 133/342/452
s 4
f 110/331/453 111/334/454 135/343/455 134/341/456
s 5
f 111/334/457 112/336/458 136/344/459 135/343/460
s 6
f 112/336/461 109/332/462 133/342/463 136/344/464
s 7
f 138/338/442 137/337/441 145/345/465 146/346/466
s 8
f 139/427/444 138/338/443 146/346/467 147/426/468
s 9
f 140/340/446 139/339/445 147/347/469 148/348/470
s 10
f 137/337/448 140/340/447 148/348/471 145/345/472
s 3
f 133/342/452 134/341/451 142/349/473 141/350/474
s 4
f 134/341/456 135/343/455 143/351/475 142/349/476
s 5
f 135/343/460 136/344/459 144/352/477 143/351/478
s 6
f 136/344/464 133/342/463 141/350/479 144/352/480
s 7
f 146/346/466 145/345/465 153/353/481 154/354/482
s 8
f 147/426/468 146/346/467 154/354/483 155/424/484
s 9
f 148/348/470 147/347/469 155/355/485 156/356/486
s 10
f 145/345/472 148/348/471 156/356/487 153/353/488
s 3
f 141/350/474 142/349/473 150/357/489 149/358/490
s 4
f 142/349/476 143/351/475 151/359/491 150/357/492
s 5
f 143/351/478 144/352/477 152/360/493 151/359/494
s 6
f 144/352/480 141/350/479 149/358/495 152/360/496
s 7
f 154/354/482 153/353/481 89/294/338 90/293/337
s 8
f 155/424/484 154/354/483 90/293/342 91/425/341
s 9
f 156/356/486 155/355/485 91/297/346 92/299/345
s 10
f 153/353/488 156/356/487 92/299/350 89/294/349
s 3
f 149/358/490 150/357/489 158/302/354 157/301/353
s 4
f 150/357/492 151/359/491 159/305/358 158/302/357
s 5
f 151/359/494 152/360/493 160/307/362 159/305/361
s 6
f 152/360/496 149/358/495 157/301/366 160/307/365
s off
f 62/361/497 71/362/498 162/2/499 161/1/500
f 71/362/501 14/363/502 163/3/503 162/2/504
f 14/363/505 45/364/506 164/4/507 163/3/508
f 45/364/509 62/361/510 161/1/511 164/4/512
f 69/365/513 10/366/514 166/10/515 165/9/516
f 10/366/517 30/441/518 167/11/519 166/10/520
f 30/441/521 44/444/522 168/12/523 167/11/524
f 44/444/525 69/365/526 165/9/527 168/12/528
f 79/369/529 78/27/530 170/24/531 169/23/532
f 78/27/533 9/21/534 171/25/535 170/24/536
f 9/21/537 31/370/538 172/26/539 171/25/540
f 31/370/541 79/369/542 169/23/543 172/26/544
f 71/362/545 63/371/546 174/30/547 173/29/548
f 63/371/549 74/372/550 175/31/551 174/30/552
f 74/372/553 14/363/554 176/32/555 175/31/556
f 14/363/557 71/362/558 173/29/559 176/32/560
f 77/28/561 78/27/562 177/34/563 178/33/564
f 78/27/565 79/369/566 179/35/567 177/34/568
f 79/369/569 80/373/570 180/36/571 179/35/572
f 80/373/573 77/28/574 178/33/575 180/36/576
f 21/374/577 69/365/578 182/38/579 181/37/580
f 69/365/581 44/444/582 183/39/583 182/38/584
f 44/444/585 73/443/586 184/40/587 183/39/588
f 73/443/589 21/374/590 181/37/591 184/40/592
f 9/21/593 75/423/594 185/420/595 186/41/596
f 75/20/597 27/422/598 187/421/599 185/42/600
f 27/376/601 31/370/602 188/44/603 187/43/604
f 31/370/605 9/21/606 186/41/607 188/44/608
f 63/371/609 67/377/610 190/46/611 189/45/612
f 67/377/613 25/378/614 191/47/615 190/46/616
f 25/378/617 74/372/618 192/48/619 191/47/620
f 74/372/621 63/371/622 189/45/623 192/48/624
f 43/16/625 66/15/626 193/50/627 194/49/628
f 66/15/629 10/366/630 195/51/631 193/50/632
f 10/366/633 62/361/634 196/52/635 195/51/636
f 62/361/637 43/16/638 194/49/639 196/52/640
f 18/379/641 21/374/642 198/54/643 197/53/644
f 21/374/645 73/443/646 199/55/647 198/54/648
f 73/443/649 70/439/650 200/56/651 199/55/652
f 70/439/653 18/379/654 197/53/655 200/56/656
f 7/442/657 26/22/658 201/58/659 202/57/660
f 26/22/661 45/364/662 203/59/663 201/58/664
f 45/364/665 30/367/666 204/60/667 203/59/668
f 30/367/669 7/442/670 202/57/671 204/60/672
f 67/377/673 41/381/674 206/62/675 205/61/676
f 41/381/677 61/382/678 207/63/679 206/62/680
f 61/382/681 25/378/682 208/64/683 207/63/684
f 25/378/685 67/377/686 205/61/687 208/64/688
f 51/438/689 39/384/690 210/66/691 209/65/692
f 39/384/693 17/328/694 211/67/695 210/66/696
f 17/328/697 20/440/698 212/68/699 211/67/700
f 20/440/701 51/438/702 209/65/703 212/68/704
f 46/385/705 18/379/706 214/70/707 213/69/708
f 18/379/709 70/439/710 215/71/711 214/70/712
f 70/439/713 49/436/714 216/72/715 215/71/716
f 49/436/717 46/385/718 213/69/719 216/72/720
f 34/387/721 42/388/722 218/74/723 217/73/724
f 42/388/725 54/326/726 219/75/727 218/74/728
f 54/326/729 29/325/730 220/76/731 219/75/732
f 29/325/733 34/387/734 217/73/735 220/76/736
f 41/381/737 33/389/738 222/78/739 221/77/740
f 33/389/741 47/390/742 223/79/743 222/78/744
f 47/390/745 61/382/746 224/80/747 223/79/748
f 61/382/749 41/381/750 221/77/751 224/80/752
f 76/437/753 47/390/754 226/82/755 225/81/756
f 47/390/757 39/384/758 227/83/759 226/82/760
f 39/384/761 51/438/762 228/84/763 227/83/764
f 51/438/765 76/437/766 225/81/767 228/84/768
f 55/392/769 46/385/770 230/86/771 229/85/772
f 46/385/773 49/436/774 231/87/775 230/86/776
f 49/436/777 76/391/778 232/88/779 231/87/780
f 76/391/781 55/392/782 229/85/783 232/88/784
f 33/389/785 55/392/786 234/90/787 233/89/788
f 55/392/789 42/388/790 235/91/791 234/90/792
f 42/388/793 34/387/794 236/92/795 235/91/796
f 34/387/797 33/389/798 233/89/799 236/92/800
f 33/389/801 34/387/802 237/94/803 238/93/804
f 34/387/805 39/384/806 239/95/807 237/94/808
f 39/384/809 47/390/810 240/96/811 239/95/812
f 47/390/813 33/389/814 238/93/815 240/96/816
f 49/386/817 61/382/818 242/98/819 241/97/820
f 61/382/821 47/390/822 243/99/823 242/98/824
f 47/390/825 76/437/826 244/100/827 243/99/828
f 76/437/829 49/386/830 241/97/831 244/100/832
f 42/388/833 55/392/834 245/102/835 246/101/836
f 55/392/837 76/391/838 247/103/839 245/102/840
f 76/391/841 51/383/842 248/104/843 247/103/844
f 51/383/845 42/388/846 246/101/847 248/104/848
f 41/381/849 46/385/850 250/106/851 249/105/852
f 46/385/853 55/392/854 251/107/855 250/106/856
f 55/392/857 33/389/858 252/108/859 251/107/860
f 33/389/861 41/381/862 249/105/863 252/108/864
f 34/387/865 29/325/866 253/110/867 254/109/868
f 29/325/869 17/328/870 255/111/871 253/110/872
f 17/328/873 39/384/874 256/112/875 255/111/876
f 39/384/877 34/387/878 254/109/879 256/112/880
f 70/380/881 25/378/882 258/114/883 257/113/884
f 25/378/885 61/382/886 259/115/887 258/114/888
f 61/382/889 49/386/890 260/116/891 259/115/892
f 49/386/893 70/380/894 257/113/895 260/116/896
f 67/377/897 18/379/898 262/122/899 261/121/900
f 18/379/901 46/385/902 263/123/903 262/122/904
f 46/385/905 41/381/906 264/124/907 263/123/908
f 41/381/909 67/377/910 261/121/911 264/124/912
f 54/326/913 42/388/914 265/126/915 266/125/916
f 42/388/917 51/383/918 267/127/919 265/126/920
f 51/383/921 20/327/922 268/128/923 267/127/924
f 20/327/925 54/326/926 266/125/927 268/128/928
f 73/375/929 74/372/930 270/130/931 269/129/932
f 74/372/933 25/378/934 271/131/935 270/130/936
f 25/378/937 70/380/938 272/132/939 271/131/940
f 70/380/941 73/375/942 269/129/943 272/132/944
f 43/16/945 62/361/946 273/134/947 274/133/948
f 62/361/949 45/364/950 275/135/951 273/134/952
f 45/364/953 26/22/954 276/136/955 275/135/956
f 26/22/957 43/16/958 274/133/959 276/136/960
f 63/371/961 21/374/962 278/138/963 277/137/964
f 21/374/965 18/379/966 279/139/967 278/138/968
f 18/379/969 67/377/970 280/140/971 279/139/972
f 67/377/973 63/371/974 277/137/975 280/140/976
f 10/366/977 66/15/978 281/142/979 282/141/980
f 66/15/981 7/19/982 283/143/983 281/142/984
f 7/19/985 30/441/986 284/144/987 283/143/988
f 30/441/989 10/366/990 282/141/991 284/144/992
f 44/368/993 14/363/994 286/146/995 285/145/996
f 14/363/997 74/372/998 287/147/999 286/146/1000
f 74/372/1001 73/375/1002 288/148/1003 287/147/1004
f 73/375/1005 44/368/1006 285/145/1007 288/148/1008
f 80/373/1009 23/393/1010 290/150/1011 289/149/1012
f 23/393/1013 57/435/1014 291/151/1015 290/150/1016
f 57/435/1017 27/422/1018 292/152/1019 291/151/1020
f 27/422/1021 80/373/1022 289/149/1023 292/152/1024
f 71/362/1025 69/365/1026 294/154/1027 293/153/1028
f 69/365/1029 21/374/1030 295/155/1031 294/154/1032
f 21/374/1033 63/371/1034 296/156/1035 295/155/1036
f 63/371/1037 71/362/1038 293/153/1039 296/156/1040
f 1/395/1041 79/369/1042 298/158/1043 297/157/1044
f 79/369/1045 31/370/1046 299/159/1047 298/158/1048
f 31/370/1049 72/396/1050 300/160/1051 299/159/1052
f 72/396/1053 1/395/1054 297/157/1055 300/160/1056
f 30/367/1057 45/364/1058 301/162/1059 302/161/1060
f 45/364/1061 14/363/1062 303/163/1063 301/162/1064
f 14/363/1065 44/368/1066 304/164/1067 303/163/1068
f 44/368/1069 30/367/1070 302/161/1071 304/164/1072
f 23/393/1073 37/397/1074 306/166/1075 305/165/1076
f 37/397/1077 35/434/1078 307/167/1079 306/166/1080
f 35/434/1081 57/435/1082 308/168/1083 307/167/1084
f 57/435/1085 23/393/1086 305/165/1087 308/168/1088
f 62/361/1089 10/366/1090 309/170/1091 310/169/1092
f 10/366/1093 69/365/1094 311/171/1095 309/170/1096
f 69/365/1097 71/362/1098 312/172/1099 311/171/1100
f 71/362/1101 62/361/1102 310/169/1103 312/172/1104
f 15/399/1105 48/400/1106 314/174/1107 313/173/1108
f 48/400/1109 40/330/1110 315/175/1111 314/174/1112
f 40/330/1113 32/329/1114 316/176/1115 315/175/1116
f 32/329/1117 15/399/1118 313/173/1119 316/176/1120
f 22/401/1121 1/395/1122 318/178/1123 317/177/1124
f 1/395/1125 72/396/1126 319/179/1127 318/178/1128
f 72/396/1129 68/402/1130 320/180/1131 319/179/1132
f 68/402/1133 22/401/1134 317/177/1135 320/180/1136
f 52/403/1137 28/404/1138 322/182/1139 321/181/1140
f 28/404/1141 13/335/1142 323/183/1143 322/182/1144
f 13/335/1145 16/333/1146 324/184/1147 323/183/1148
f 16/333/1149 52/403/1150 321/181/1151 324/184/1152
f 37/397/1153 58/405/1154 326/186/1155 325/185/1156
f 58/405/1157 36/406/1158 327/187/1159 326/186/1160
f 36/406/1161 35/434/1162 328/188/1163 327/187/1164
f 35/434/1165 37/397/1166 325/185/1167 328/188/1168
f 24/407/1169 65/408/1170 330/190/1171 329/189/1172
f 65/408/1173 48/400/1174 331/191/1175 330/190/1176
f 48/400/1177 15/399/1178 332/192/1179 331/191/1180
f 15/399/1181 24/407/1182 329/189/1183 332/192/1184
f 38/409/1185 22/401/1186 334/194/1187 333/193/1188
f 22/401/1189 68/402/1190 335/418/1191 334/194/1192
f 68/419/1193 64/410/1194 336/196/1195 335/195/1196
f 64/410/1197 38/409/1198 333/193/1199 336/196/1200
f 56/411/1201 59/412/1202 338/198/1203 337/197/1204
f 59/412/1205 28/404/1206 339/199/1207 338/198/1208
f 28/404/1209 52/403/1210 340/200/1211 339/199/1212
f 52/403/1213 56/411/1214 337/197/1215 340/200/1216
f 58/405/1217 50/413/1218 342/202/1219 341/201/1220
f 50/413/1221 19/414/1222 343/203/1223 342/202/1224
f 19/414/1225 36/406/1226 344/204/1227 343/203/1228
f 36/406/1229 58/405/1230 341/201/1231 344/204/1232
f 50/413/1233 53/415/1234 346/206/1235 345/205/1236
f 53/415/1237 65/408/1238 347/207/1239 346/206/1240
f 65/408/1241 24/407/1242 348/208/1243 347/207/1244
f 24/407/1245 50/413/1246 345/205/1247 348/208/1248
f 53/415/1249 38/409/1250 350/210/1251 349/209/1252
f 38/409/1253 64/410/1254 351/211/1255 350/210/1256
f 64/410/1257 60/416/1258 352/212/1259 351/211/1260
f 60/416/1261 53/415/1262 349/209/1263 352/212/1264
f 60/416/1265 19/414/1266 354/214/1267 353/213/1268
f 19/414/1269 59/412/1270 355/215/1271 354/214/1272
f 59/412/1273 56/411/1274 356/216/1275 355/215/1276
f 56/411/1277 60/416/1278 353/213/1279 356/216/1280
f 50/413/1281 24/407/1282 357/218/1283 358/217/1284
f 24/407/1285 59/412/1286 359/219/1287 357/218/1288
f 59/412/1289 19/414/1290 360/220/1291 359/219/1292
f 19/414/1293 50/413/1294 358/217/1295 360/220/1296
f 58/405/1297 38/409/1298 362/222/1299 361/221/1300
f 38/409/1301 53/415/1302 363/223/1303 362/222/1304
f 53/415/1305 50/413/1306 364/224/1307 363/223/1308
f 50/413/1309 58/405/1310 361/221/1311 364/224/1312
f 65/408/1313 53/415/1314 365/226/1315 366/225/1316
f 53/415/1317 60/416/1318 367/227/1319 365/226/1320
f 60/416/1321 56/411/1322 368/228/1323 367/227/1324
f 56/411/1325 65/408/1326 366/225/1327 368/228/1328
f 64/410/1329 36/406/1330 370/230/1331 369/229/1332
f 36/406/1333 19/414/1334 371/231/1335 370/230/1336
f 19/414/1337 60/416/1338 372/232/1339 371/231/1340
f 60/416/1341 64/410/1342 369/229/1343 372/232/1344
f 24/407/1345 15/399/1346 373/234/1347 374/233/1348
f 15/399/1349 28/404/1350 375/235/1351 373/234/1352
f 28/404/1353 59/412/1354 376/236/1355 375/235/1356
f 59/412/1357 24/407/1358 374/233/1359 376/236/1360
f 37/397/1361 22/401/1362 378/238/1363 377/237/1364
f 22/401/1365 38/409/1366 379/239/1367 378/238/1368
f 38/409/1369 58/405/1370 380/240/1371 379/239/1372
f 58/405/1373 37/397/1374 377/237/1375 380/240/1376
f 48/400/1377 65/408/1378 381/242/1379 382/241/1380
f 65/408/1381 56/411/1382 383/243/1383 381/242/1384
f 56/411/1385 52/403/1386 384/244/1387 383/243/1388
f 52/403/1389 48/400/1390 382/241/1391 384/244/1392
f 68/419/1393 35/434/1394 386/246/1395 385/245/1396
f 35/434/1397 36/406/1398 387/247/1399 386/246/1400
f 36/406/1401 64/410/1402 388/248/1403 387/247/1404
f 64/410/1405 68/419/1406 385/245/1407 388/248/1408
f 15/399/1409 32/329/1410 389/250/1411 390/249/1412
f 32/329/1413 13/335/1414 391/251/1415 389/250/1416
f 13/335/1417 28/404/1418 392/252/1419 391/251/1420
f 28/404/1421 15/399/1422 390/249/1423 392/252/1424
f 23/393/1425 1/395/1426 394/254/1427 393/253/1428
f 1/395/1429 22/401/1430 395/255/1431 394/254/1432
f 22/401/1433 37/397/1434 396/256/1435 395/255/1436
f 37/397/1437 23/393/1438 393/253/1439 396/256/1440
f 72/396/1441 57/394/1442 398/262/1443 397/261/1444
f 57/394/1445 35/398/1446 399/263/1447 398/262/1448
f 35/398/1449 68/402/1450 400/264/1451 399/263/1452
f 68/402/1453 72/396/1454 397/261/1455 400/264/1456
f 40/330/1457 48/400/1458 401/266/1459 402/265/1460
f 48/400/1461 52/403/1462 403/267/1463 401/266/1464
f 52/403/1465 16/333/1466 404/268/1467 403/267/1468
f 16/333/1469 40/330/1470 402/265/1471 404/268/1472
f 80/373/1473 79/369/1474 405/270/1475 406/269/1476
f 79/369/1477 1/395/1478 407/271/1479 405/270/1480
f 1/395/1481 23/393/1482 408/272/1483 407/271/1484
f 23/393/1485 80/373/1486 406/269/1487 408/272/1488
f 77/28/1489 80/373/1490 409/274/1491 410/273/1492
f 80/373/1493 27/422/1494 411/275/1495 409/274/1496
f 27/422/1497 75/20/1498 412/276/1499 411/275/1500
f 75/20/1501 77/28/1502 410/273/1503 412/276/1504
f 31/370/1505 27/376/1506 413/278/1507 414/277/1508
f 27/376/1509 57/394/1510 415/279/1511 413/278/1512
f 57/394/1513 72/396/1514 416/280/1515 415/279/1516
f 72/396/1517 31/370/1518 414/277/1519 416/280/1520
