# This file uses centimeters as units for non-parametric coordinates.

mtllib waterfallmesh.mtl
g default
v -0.566301 -0.000000 -0.222363
v -0.478241 -0.000000 -0.174977
v -0.300000 -0.000000 -0.077532
v -0.200000 -0.000000 -0.039264
v -0.100000 -0.000000 -0.017936
v 0.000000 -0.000000 -0.000000
v 0.100000 -0.000000 -0.017936
v 0.200000 -0.000000 -0.039264
v 0.300000 -0.000000 -0.077532
v 0.491046 -0.000000 -0.188639
v 0.574943 -0.000000 -0.243056
v -0.566301 0.100000 -0.222363
v -0.478241 0.100000 -0.174976
v -0.300000 0.100000 -0.077532
v -0.200000 0.100000 -0.039264
v -0.100000 0.100000 -0.017936
v 0.000000 0.100000 -0.000000
v 0.100000 0.100000 -0.017936
v 0.200000 0.100000 -0.039264
v 0.300000 0.100000 -0.077532
v 0.491046 0.100000 -0.188639
v 0.574943 0.100000 -0.243056
v -0.566301 0.200000 -0.222363
v -0.478241 0.200000 -0.174976
v -0.300000 0.200000 -0.077532
v -0.200000 0.200000 -0.039264
v -0.100000 0.200000 -0.017936
v 0.000000 0.200000 -0.000000
v 0.100000 0.200000 -0.017936
v 0.200000 0.200000 -0.039264
v 0.300000 0.200000 -0.077532
v 0.491046 0.200000 -0.188639
v 0.574943 0.200000 -0.243056
v -0.566301 0.300000 -0.222363
v -0.478241 0.300000 -0.174976
v -0.300000 0.300000 -0.077532
v -0.200000 0.300000 -0.039264
v -0.100000 0.300000 -0.017936
v 0.000000 0.300000 -0.000000
v 0.100000 0.300000 -0.017936
v 0.200000 0.300000 -0.039264
v 0.300000 0.300000 -0.077532
v 0.491046 0.300000 -0.188639
v 0.574943 0.300000 -0.243056
v -0.566301 0.400000 -0.222363
v -0.478241 0.400000 -0.174976
v -0.300000 0.400000 -0.077532
v -0.200000 0.400000 -0.039264
v -0.100000 0.400000 -0.017936
v 0.000000 0.400000 -0.000000
v 0.100000 0.400000 -0.017936
v 0.200000 0.400000 -0.039264
v 0.300000 0.400000 -0.077532
v 0.491046 0.400000 -0.188639
v 0.574943 0.400000 -0.243056
v -0.566301 0.500000 -0.222363
v -0.478241 0.500000 -0.174976
v -0.300000 0.500000 -0.077532
v -0.200000 0.500000 -0.039264
v -0.100000 0.500000 -0.017936
v 0.000000 0.500000 -0.000000
v 0.100000 0.500000 -0.017936
v 0.200000 0.500000 -0.039264
v 0.300000 0.500000 -0.077532
v 0.491046 0.500000 -0.188639
v 0.574943 0.500000 -0.243056
v -0.566301 0.600000 -0.222363
v -0.478241 0.600000 -0.174976
v -0.300000 0.600000 -0.077532
v -0.200000 0.600000 -0.039264
v -0.100000 0.600000 -0.017936
v 0.000000 0.600000 -0.000000
v 0.100000 0.600000 -0.017936
v 0.200000 0.600000 -0.039264
v 0.300000 0.600000 -0.077532
v 0.491046 0.600000 -0.188639
v 0.574943 0.600000 -0.243056
v -0.559818 0.793342 -0.234411
v -0.471758 0.793342 -0.187025
v -0.300000 0.793342 -0.091214
v -0.200000 0.793342 -0.052946
v -0.100000 0.793342 -0.031618
v 0.000000 0.793342 -0.013682
v 0.100000 0.793342 -0.031618
v 0.200000 0.791637 -0.052946
v 0.300000 0.793342 -0.091214
v 0.483600 0.793342 -0.200118
v 0.567497 0.793342 -0.254535
v -0.522252 0.904737 -0.304221
v -0.434192 0.904737 -0.256835
v -0.300000 0.904737 -0.170489
v -0.200000 0.904737 -0.132221
v -0.100000 0.904737 -0.110894
v 0.000000 0.904737 -0.092957
v 0.100000 0.904737 -0.110894
v 0.200000 0.904737 -0.132221
v 0.300000 0.904737 -0.170489
v 0.440461 0.904737 -0.266627
v 0.524358 0.904737 -0.321045
v -0.469144 0.949595 -0.402913
v -0.381084 0.949595 -0.355527
v -0.300000 0.950405 -0.382560
v -0.200000 0.950405 -0.344292
v -0.100000 0.950405 -0.322964
v 0.000000 0.949595 -0.205031
v 0.100000 0.950405 -0.322964
v 0.200000 0.950405 -0.344292
v 0.300000 0.950405 -0.382560
v 0.379473 0.949595 -0.360654
v 0.463370 0.949595 -0.415072
v -0.421759 0.950405 -0.490970
v 0.000000 0.950405 -0.305028
v 0.408954 0.950405 -0.498966
v -0.552583 -0.000000 -0.425516
v -0.552583 0.100000 -0.425516
v 0.555309 -0.000000 -0.456201
v 0.555309 0.100000 -0.456201
v -0.552583 0.200000 -0.425516
v 0.555309 0.200000 -0.456201
v -0.552583 0.300000 -0.425516
v 0.555309 0.300000 -0.456201
v -0.552583 0.400000 -0.425516
v 0.555309 0.400000 -0.456201
v -0.552583 0.500000 -0.425516
v 0.555309 0.500000 -0.456201
v -0.552583 0.600000 -0.425516
v 0.555309 0.600000 -0.456201
v -0.547399 0.793342 -0.437564
v 0.549356 0.793342 -0.467680
v -0.517363 0.904737 -0.507374
v 0.514863 0.904737 -0.534190
v -0.474899 0.922674 -0.606066
v 0.466099 0.922674 -0.628217
v -0.437012 0.922674 -0.613221
v 0.422591 0.922674 -0.631209
v -0.592103 -0.000000 -0.323940
v -0.592103 0.100000 -0.323940
v -0.592103 0.200000 -0.323940
v -0.592103 0.300000 -0.323940
v -0.592103 0.400000 -0.323940
v -0.592103 0.500000 -0.323940
v -0.592103 0.600000 -0.323940
v -0.585964 0.793342 -0.335988
v -0.550392 0.904737 -0.405798
v -0.500103 0.949595 -0.504490
v -0.455233 0.950405 -0.552095
v 0.597787 -0.000000 -0.349629
v 0.597787 0.100000 -0.349629
v 0.597787 0.200000 -0.349629
v 0.597787 0.300000 -0.349629
v 0.597787 0.400000 -0.349629
v 0.597787 0.500000 -0.349629
v 0.597787 0.600000 -0.349629
v 0.590737 0.793342 -0.361108
v 0.549887 0.904737 -0.427618
v 0.492136 0.949595 -0.521644
v 0.440609 0.950405 -0.565088
v -0.385304 0.937853 -0.549893
v -0.298193 0.947450 -0.518891
v -0.200000 0.947450 -0.495253
v -0.100000 0.947450 -0.466112
v 0.000000 0.947450 -0.460409
v 0.100000 0.947450 -0.466112
v 0.200000 0.947450 -0.495253
v 0.296553 0.947450 -0.518731
v 0.369935 0.937853 -0.555456
v -0.425268 0.922674 -0.732838
v -0.376563 0.922674 -0.732838
v 0.394343 0.922674 -0.732838
v 0.348523 0.922674 -0.732838
v -0.338213 0.922674 -0.732837
v -0.280451 0.922674 -0.732837
v -0.151619 0.922674 -0.732837
v -0.068288 0.922674 -0.732837
v -0.000000 0.922674 -0.732837
v 0.068288 0.922674 -0.732837
v 0.151409 0.922674 -0.732837
v 0.284355 0.922674 -0.732837
v 0.322158 0.922674 -0.732837
vt 0.181222 0.050468
vt 0.216649 0.050468
vt 0.216649 0.106122
vt 0.181222 0.106122
vt 0.307352 0.050468
vt 0.307352 0.106122
vt 0.368125 0.050468
vt 0.368125 0.106122
vt 0.428973 0.050468
vt 0.428973 0.106122
vt 0.485072 0.050468
vt 0.485072 0.106122
vt 0.541218 0.050468
vt 0.541218 0.106122
vt 0.599349 0.050468
vt 0.599349 0.106122
vt 0.659929 0.050468
vt 0.659929 0.106122
vt 0.758465 0.050468
vt 0.758465 0.106122
vt 0.805891 0.050468
vt 0.805891 0.106122
vt 0.216649 0.162148
vt 0.181222 0.162148
vt 0.307352 0.162148
vt 0.368125 0.162148
vt 0.428973 0.162148
vt 0.485072 0.162148
vt 0.541218 0.162148
vt 0.599349 0.162148
vt 0.659929 0.162148
vt 0.758465 0.162148
vt 0.805891 0.162148
vt 0.216649 0.218528
vt 0.181222 0.218528
vt 0.307352 0.218528
vt 0.368125 0.218528
vt 0.428973 0.218528
vt 0.485072 0.218528
vt 0.541218 0.218528
vt 0.599349 0.218528
vt 0.659929 0.218528
vt 0.758465 0.218528
vt 0.805891 0.218528
vt 0.216649 0.253847
vt 0.181222 0.253847
vt 0.307352 0.253847
vt 0.368125 0.253847
vt 0.428973 0.253847
vt 0.485072 0.253847
vt 0.541218 0.253847
vt 0.599349 0.253847
vt 0.659929 0.253847
vt 0.758465 0.253847
vt 0.805891 0.253847
vt 0.216649 0.305524
vt 0.181222 0.341723
vt 0.307352 0.305524
vt 0.368125 0.305524
vt 0.428973 0.305524
vt 0.485072 0.305524
vt 0.541218 0.305524
vt 0.599349 0.305524
vt 0.659929 0.305524
vt 0.758465 0.305524
vt 0.805891 0.305524
vt 0.216649 0.350167
vt 0.181222 0.394865
vt 0.307352 0.350167
vt 0.368125 0.350167
vt 0.428973 0.350167
vt 0.485072 0.350167
vt 0.541218 0.350167
vt 0.599349 0.350167
vt 0.659929 0.350167
vt 0.758465 0.350167
vt 0.805891 0.391606
vt 0.216649 0.458734
vt 0.181222 0.458734
vt 0.307352 0.458734
vt 0.368125 0.458734
vt 0.428973 0.458734
vt 0.485072 0.458734
vt 0.541218 0.458734
vt 0.599349 0.458734
vt 0.659929 0.458734
vt 0.758465 0.458734
vt 0.805891 0.491163
vt 0.216649 0.555184
vt 0.181222 0.555184
vt 0.307352 0.508503
vt 0.368125 0.508503
vt 0.428973 0.508503
vt 0.485072 0.508503
vt 0.541218 0.508503
vt 0.599349 0.508503
vt 0.659929 0.508503
vt 0.758465 0.552650
vt 0.805891 0.552650
vt 0.216649 0.618832
vt 0.181222 0.618832
vt 0.307352 0.624507
vt 0.368125 0.624507
vt 0.428973 0.624507
vt 0.485072 0.558434
vt 0.541218 0.624507
vt 0.599349 0.624507
vt 0.659929 0.624507
vt 0.758465 0.616075
vt 0.805891 0.616075
vt 0.181222 0.679251
vt 0.485072 0.624507
vt 0.805891 0.677393
vt 0.070292 0.050468
vt 0.070292 0.106122
vt 0.013486 0.106122
vt 0.013486 0.050468
vt 0.909661 0.050468
vt 0.909661 0.106122
vt 0.070292 0.162148
vt 0.013486 0.162148
vt 0.909661 0.162148
vt 0.070292 0.218528
vt 0.013486 0.218528
vt 0.909661 0.218528
vt 0.070292 0.307956
vt 0.013486 0.329909
vt 0.909661 0.303883
vt 0.070292 0.365460
vt 0.013486 0.391540
vt 0.909661 0.362481
vt 0.070292 0.422000
vt 0.013486 0.454423
vt 0.909661 0.419864
vt 0.189008 0.527108
vt 0.118773 0.573512
vt 0.823805 0.526831
vt 0.189008 0.601205
vt 0.189008 0.662778
vt 0.792518 0.601324
vt 0.189008 0.669377
vt 0.189008 0.734121
vt 0.792518 0.669795
vt 0.234950 0.704811
vt 0.234950 0.744714
vt 0.752178 0.705337
vt 0.969868 0.050468
vt 0.969868 0.106122
vt 0.969868 0.162148
vt 0.969868 0.218528
vt 0.969868 0.326434
vt 0.969868 0.389521
vt 0.969868 0.454599
vt 0.863243 0.576586
vt 0.792518 0.666845
vt 0.792518 0.738226
vt 0.752178 0.748195
vt 0.307352 0.706438
vt 0.181222 0.706438
vt 0.368125 0.706438
vt 0.428973 0.706438
vt 0.485072 0.706438
vt 0.541218 0.706438
vt 0.599349 0.706438
vt 0.659929 0.706438
vt 0.705259 0.706438
vt 0.234950 0.827917
vt 0.189008 0.827917
vt 0.743035 0.827917
vt 0.715563 0.827917
vt 0.307352 0.827917
vt 0.181222 0.827917
vt 0.368125 0.827917
vt 0.428973 0.827917
vt 0.485072 0.827917
vt 0.541218 0.827917
vt 0.599349 0.827917
vt 0.659929 0.827917
vt 0.705259 0.827917
vn -0.794489 -0.000000 0.607279
vn -0.477775 -0.000000 0.878482
vn -0.477775 -0.000000 0.878482
vn -0.794489 -0.000000 0.607279
vn -0.438385 -0.000000 0.898787
vn -0.438385 -0.000000 0.898787
vn -0.285568 -0.000000 0.958358
vn -0.285568 -0.000000 0.958358
vn -0.192643 -0.000000 0.981269
vn -0.192643 -0.000000 0.981269
vn -0.000000 -0.000000 1.000000
vn -0.000000 -0.000000 1.000000
vn 0.192643 -0.000000 0.981269
vn 0.192643 -0.000000 0.981269
vn 0.285568 -0.000000 0.958358
vn 0.285568 -0.000000 0.958358
vn 0.456609 -0.000000 0.889668
vn 0.456609 -0.000000 0.889668
vn 0.515776 -0.000000 0.856724
vn 0.515776 -0.000000 0.856724
vn 0.833445 -0.000000 0.552602
vn 0.833445 -0.000000 0.552602
vn -0.477775 -0.000000 0.878482
vn -0.794489 -0.000000 0.607279
vn -0.438385 -0.000000 0.898787
vn -0.285568 -0.000000 0.958359
vn -0.192643 -0.000000 0.981269
vn 0.000000 -0.000000 1.000000
vn 0.192643 -0.000000 0.981269
vn 0.285568 -0.000000 0.958358
vn 0.456609 -0.000000 0.889668
vn 0.515776 -0.000000 0.856724
vn 0.833445 -0.000000 0.552602
vn -0.477775 -0.000000 0.878482
vn -0.794489 -0.000000 0.607279
vn -0.438385 -0.000000 0.898787
vn -0.285568 -0.000000 0.958359
vn -0.192643 -0.000000 0.981269
vn 0.000000 -0.000000 1.000000
vn 0.192643 -0.000000 0.981269
vn 0.285568 -0.000000 0.958358
vn 0.456609 -0.000000 0.889668
vn 0.515776 -0.000000 0.856724
vn 0.833445 -0.000000 0.552602
vn -0.477775 -0.000000 0.878482
vn -0.794489 -0.000000 0.607279
vn -0.438385 -0.000000 0.898787
vn -0.285568 -0.000000 0.958359
vn -0.192643 -0.000000 0.981269
vn 0.000000 -0.000000 1.000000
vn 0.192643 -0.000000 0.981269
vn 0.285568 -0.000000 0.958358
vn 0.456609 -0.000000 0.889668
vn 0.515776 -0.000000 0.856724
vn 0.833445 -0.000000 0.552602
vn -0.477775 -0.000000 0.878482
vn -0.794489 -0.000000 0.607279
vn -0.438385 -0.000000 0.898787
vn -0.285568 -0.000000 0.958359
vn -0.192643 -0.000000 0.981269
vn 0.000000 -0.000000 1.000000
vn 0.192643 -0.000000 0.981269
vn 0.285568 -0.000000 0.958358
vn 0.456609 -0.000000 0.889668
vn 0.515776 -0.000000 0.856724
vn 0.833445 -0.000000 0.552602
vn -0.478899 0.044500 0.876742
vn -0.790547 0.042068 0.610954
vn -0.438584 0.043443 0.897640
vn -0.284658 0.044613 0.957591
vn -0.192350 0.045710 0.980261
vn -0.000000 0.046465 0.998920
vn 0.192512 0.045774 0.980226
vn 0.284656 0.044742 0.957585
vn 0.456639 0.043275 0.888599
vn 0.517011 0.044194 0.854837
vn 0.829977 0.042277 0.556193
vn -0.468320 0.270811 0.841034
vn -0.756394 0.252628 0.603363
vn -0.427276 0.256075 0.867099
vn -0.272217 0.276806 0.921562
vn -0.184285 0.285917 0.940367
vn 0.000000 0.282018 0.959409
vn 0.185298 0.287123 0.939801
vn 0.272610 0.274459 0.922147
vn 0.443955 0.253594 0.859415
vn 0.506158 0.266582 0.820206
vn 0.795821 0.253638 0.549851
vn -0.291672 0.781697 0.551251
vn -0.562062 0.709843 0.424510
vn -0.256287 0.810946 0.526008
vn -0.144492 0.864257 0.481853
vn -0.139672 0.849239 0.509200
vn -0.000000 0.821728 0.569880
vn 0.141034 0.848417 0.510194
vn 0.144854 0.863098 0.483817
vn 0.272466 0.803260 0.529656
vn 0.325750 0.773460 0.543734
vn 0.586128 0.712419 0.385894
vn -0.078420 0.975509 0.205506
vn -0.229091 0.961025 0.154753
vn -0.038185 0.993535 0.106913
vn -0.039021 0.991514 0.124005
vn -0.037757 0.993700 0.105519
vn 0.000000 0.968655 0.248408
vn 0.037757 0.993700 0.105519
vn 0.039064 0.991493 0.124161
vn 0.043321 0.992667 0.112856
vn 0.093073 0.974475 0.204294
vn 0.235961 0.961496 0.140880
vn 0.014343 0.998717 -0.048558
vn 0.000000 0.999933 -0.011541
vn -0.019671 0.998712 -0.046772
vn -0.997728 -0.000000 -0.067373
vn -0.997728 -0.000000 -0.067373
vn -0.931947 -0.000000 -0.362595
vn -0.931947 -0.000001 -0.362595
vn 0.995784 0.000000 -0.091726
vn 0.995784 0.000000 -0.091726
vn -0.997728 0.000000 -0.067373
vn -0.931947 0.000000 -0.362594
vn 0.995784 0.000000 -0.091726
vn -0.997728 0.000000 -0.067373
vn -0.931947 0.000000 -0.362594
vn 0.995784 0.000000 -0.091726
vn -0.997728 0.000000 -0.067373
vn -0.931947 0.000000 -0.362594
vn 0.995784 0.000000 -0.091726
vn -0.997728 0.000000 -0.067373
vn -0.931947 0.000000 -0.362594
vn 0.995784 0.000000 -0.091726
vn -0.998201 0.018255 -0.057102
vn -0.932930 0.003325 -0.360043
vn 0.996434 0.020358 -0.081889
vn -0.996736 0.026036 -0.076413
vn -0.933411 0.004976 -0.358774
vn 0.994602 0.029386 -0.099512
vn -0.939188 0.337568 0.063031
vn -0.967974 0.211184 -0.135749
vn -0.940880 0.069278 -0.331581
vn -0.940880 0.069278 -0.331581
vn 0.932299 0.360066 0.034224
vn 0.957311 0.248496 -0.147666
vn -0.530829 0.841062 0.104090
vn -0.519333 0.847535 -0.109443
vn -0.287725 0.927747 -0.237696
vn -0.883420 0.359260 -0.300835
vn 0.514631 0.853625 0.080493
vn 0.467614 0.876800 -0.112063
vn -0.009742 0.976990 -0.213061
vn -0.053860 0.992891 -0.106147
vn -0.018930 0.980223 -0.196990
vn 0.928929 0.000000 -0.370258
vn 0.928929 0.000000 -0.370258
vn 0.928929 0.000000 -0.370258
vn 0.928929 0.000000 -0.370258
vn 0.928929 0.000000 -0.370258
vn 0.928929 0.000000 -0.370258
vn 0.930006 0.006383 -0.367488
vn 0.930525 0.009556 -0.366104
vn 0.934983 0.116080 -0.335160
vn 0.934983 0.116080 -0.335160
vn 0.815964 0.496312 -0.296440
vn 0.264219 0.931681 -0.249316
vn 0.043595 0.991968 -0.118740
vn -0.000684 0.996337 -0.085516
vn -0.004151 0.993503 -0.113729
vn 0.010532 0.997324 -0.072346
vn 0.006841 0.998033 -0.062314
vn 0.000000 0.998086 -0.061839
vn -0.006843 0.998034 -0.062301
vn -0.010488 0.997311 -0.072528
vn -0.002367 0.996402 -0.084715
vn -0.007644 0.993075 -0.117233
vn -0.079946 0.994609 -0.066036
vn 0.000002 1.000000 0.000000
vn -0.000002 1.000000 0.000000
vn 0.078677 0.993863 -0.077757
vn -0.007210 0.994196 -0.107344
vn -0.042906 0.993332 -0.107009
vn 0.013336 0.994803 -0.100943
vn 0.008803 0.995603 -0.093259
vn -0.000000 0.995820 -0.091342
vn -0.008808 0.995604 -0.093254
vn -0.013250 0.994796 -0.101022
vn -0.011006 0.994135 -0.107580
vn 0.049714 0.992804 -0.108942
vn 0.049714 0.992804 -0.108942
vn -0.105608 0.990574 -0.087234
vn 0.097697 0.990521 -0.096554
s 1
g pPlane1
usemtl initialShadingGroup
f 1/1/1 2/2/2 13/3/3 12/4/4
f 2/2/2 3/5/5 14/6/6 13/3/3
f 3/5/5 4/7/7 15/8/8 14/6/6
f 4/7/7 5/9/9 16/10/10 15/8/8
f 5/9/9 6/11/11 17/12/12 16/10/10
f 6/11/11 7/13/13 18/14/14 17/12/12
f 7/13/13 8/15/15 19/16/16 18/14/14
f 8/15/15 9/17/17 20/18/18 19/16/16
f 9/17/17 10/19/19 21/20/20 20/18/18
f 10/19/19 11/21/21 22/22/22 21/20/20
f 12/4/4 13/3/3 24/23/23 23/24/24
f 13/3/3 14/6/6 25/25/25 24/23/23
f 14/6/6 15/8/8 26/26/26 25/25/25
f 15/8/8 16/10/10 27/27/27 26/26/26
f 16/10/10 17/12/12 28/28/28 27/27/27
f 17/12/12 18/14/14 29/29/29 28/28/28
f 18/14/14 19/16/16 30/30/30 29/29/29
f 19/16/16 20/18/18 31/31/31 30/30/30
f 20/18/18 21/20/20 32/32/32 31/31/31
f 21/20/20 22/22/22 33/33/33 32/32/32
f 23/24/24 24/23/23 35/34/34 34/35/35
f 24/23/23 25/25/25 36/36/36 35/34/34
f 25/25/25 26/26/26 37/37/37 36/36/36
f 26/26/26 27/27/27 38/38/38 37/37/37
f 27/27/27 28/28/28 39/39/39 38/38/38
f 28/28/28 29/29/29 40/40/40 39/39/39
f 29/29/29 30/30/30 41/41/41 40/40/40
f 30/30/30 31/31/31 42/42/42 41/41/41
f 31/31/31 32/32/32 43/43/43 42/42/42
f 32/32/32 33/33/33 44/44/44 43/43/43
f 34/35/35 35/34/34 46/45/45 45/46/46
f 35/34/34 36/36/36 47/47/47 46/45/45
f 36/36/36 37/37/37 48/48/48 47/47/47
f 37/37/37 38/38/38 49/49/49 48/48/48
f 38/38/38 39/39/39 50/50/50 49/49/49
f 39/39/39 40/40/40 51/51/51 50/50/50
f 40/40/40 41/41/41 52/52/52 51/51/51
f 41/41/41 42/42/42 53/53/53 52/52/52
f 42/42/42 43/43/43 54/54/54 53/53/53
f 43/43/43 44/44/44 55/55/55 54/54/54
f 45/46/46 46/45/45 57/56/56 56/57/57
f 46/45/45 47/47/47 58/58/58 57/56/56
f 47/47/47 48/48/48 59/59/59 58/58/58
f 48/48/48 49/49/49 60/60/60 59/59/59
f 49/49/49 50/50/50 61/61/61 60/60/60
f 50/50/50 51/51/51 62/62/62 61/61/61
f 51/51/51 52/52/52 63/63/63 62/62/62
f 52/52/52 53/53/53 64/64/64 63/63/63
f 53/53/53 54/54/54 65/65/65 64/64/64
f 54/54/54 55/55/55 66/66/66 65/65/65
f 56/57/57 57/56/56 68/67/67 67/68/68
f 57/56/56 58/58/58 69/69/69 68/67/67
f 58/58/58 59/59/59 70/70/70 69/69/69
f 59/59/59 60/60/60 71/71/71 70/70/70
f 60/60/60 61/61/61 72/72/72 71/71/71
f 61/61/61 62/62/62 73/73/73 72/72/72
f 62/62/62 63/63/63 74/74/74 73/73/73
f 63/63/63 64/64/64 75/75/75 74/74/74
f 64/64/64 65/65/65 76/76/76 75/75/75
f 65/65/65 66/66/66 77/77/77 76/76/76
f 67/68/68 68/67/67 79/78/78 78/79/79
f 68/67/67 69/69/69 80/80/80 79/78/78
f 69/69/69 70/70/70 81/81/81 80/80/80
f 70/70/70 71/71/71 82/82/82 81/81/81
f 71/71/71 72/72/72 83/83/83 82/82/82
f 72/72/72 73/73/73 84/84/84 83/83/83
f 73/73/73 74/74/74 85/85/85 84/84/84
f 74/74/74 75/75/75 86/86/86 85/85/85
f 75/75/75 76/76/76 87/87/87 86/86/86
f 76/76/76 77/77/77 88/88/88 87/87/87
f 78/79/79 79/78/78 90/89/89 89/90/90
f 79/78/78 80/80/80 91/91/91 90/89/89
f 80/80/80 81/81/81 92/92/92 91/91/91
f 81/81/81 82/82/82 93/93/93 92/92/92
f 82/82/82 83/83/83 94/94/94 93/93/93
f 83/83/83 84/84/84 95/95/95 94/94/94
f 84/84/84 85/85/85 96/96/96 95/95/95
f 85/85/85 86/86/86 97/97/97 96/96/96
f 86/86/86 87/87/87 98/98/98 97/97/97
f 87/87/87 88/88/88 99/99/99 98/98/98
f 89/90/90 90/89/89 101/100/100 100/101/101
f 90/89/89 91/91/91 102/102/102 101/100/100
f 91/91/91 92/92/92 103/103/103 102/102/102
f 92/92/92 93/93/93 104/104/104 103/103/103
f 93/93/93 94/94/94 105/105/105 104/104/104
f 94/94/94 95/95/95 106/106/106 105/105/105
f 95/95/95 96/96/96 107/107/107 106/106/106
f 96/96/96 97/97/97 108/108/108 107/107/107
f 97/97/97 98/98/98 109/109/109 108/108/108
f 98/98/98 99/99/99 110/110/110 109/109/109
f 100/101/101 101/100/100 102/102/102 111/111/111
f 104/104/104 105/105/105 112/112/112
f 105/105/105 106/106/106 112/112/112
f 109/109/109 110/110/110 113/113/113 108/108/108
f 136/114/114 137/115/115 115/116/116 114/117/117
f 22/22/22 11/21/21 147/118/118 148/119/119
f 137/115/115 138/120/120 118/121/121 115/116/116
f 33/33/33 22/22/22 148/119/119 149/122/122
f 138/120/120 139/123/123 120/124/124 118/121/121
f 44/44/44 33/33/33 149/122/122 150/125/125
f 139/123/123 140/126/126 122/127/127 120/124/124
f 55/55/55 44/44/44 150/125/125 151/128/128
f 140/126/126 141/129/129 124/130/130 122/127/127
f 66/66/66 55/55/55 151/128/128 152/131/131
f 141/129/129 142/132/132 126/133/133 124/130/130
f 77/77/77 66/66/66 152/131/131 153/134/134
f 142/132/132 143/135/135 128/136/136 126/133/133
f 88/88/88 77/77/77 153/134/134 154/137/137
f 143/135/138 144/138/139 130/139/140 128/136/141
f 99/99/99 88/88/88 154/137/142 155/140/143
f 144/138/144 145/141/145 132/142/146 130/139/147
f 110/110/110 99/99/99 155/140/148 156/143/149
f 145/141/145 146/144/150 134/145/151 132/142/146
f 113/113/113 110/110/110 156/143/149 157/146/152
f 1/1/1 12/4/4 137/115/115 136/114/114
f 12/4/4 23/24/24 138/120/120 137/115/115
f 23/24/24 34/35/35 139/123/123 138/120/120
f 34/35/35 45/46/46 140/126/126 139/123/123
f 45/46/46 56/57/57 141/129/129 140/126/126
f 56/57/57 67/68/68 142/132/132 141/129/129
f 67/68/68 78/79/79 143/135/135 142/132/132
f 78/79/79 89/90/90 144/138/139 143/135/138
f 89/90/90 100/101/101 145/141/145 144/138/144
f 100/101/101 111/111/111 146/144/150 145/141/145
f 148/119/119 147/118/118 116/147/153 117/148/154
f 149/122/122 148/119/119 117/148/154 119/149/155
f 150/125/125 149/122/122 119/149/155 121/150/156
f 151/128/128 150/125/125 121/150/156 123/151/157
f 152/131/131 151/128/128 123/151/157 125/152/158
f 153/134/134 152/131/131 125/152/158 127/153/159
f 154/137/137 153/134/134 127/153/159 129/154/160
f 155/140/143 154/137/142 129/154/161 131/155/162
f 156/143/149 155/140/148 131/155/163 133/156/164
f 157/146/152 156/143/149 133/156/164 135/157/165
f 111/111/111 102/102/102 159/158/166 158/159/167
f 102/102/102 103/103/103 160/160/168 159/158/166
f 103/103/103 104/104/104 161/161/169 160/160/168
f 104/104/104 112/112/112 162/162/170 161/161/169
f 112/112/112 106/106/106 163/163/171 162/162/170
f 106/106/106 107/107/107 164/164/172 163/163/171
f 107/107/107 108/108/108 165/165/173 164/164/172
f 108/108/108 113/113/113 166/166/174 165/165/173
f 146/144/150 111/111/111 158/159/167 134/145/151
f 113/113/113 157/146/152 135/157/165 166/166/174
f 132/142/146 134/145/151 168/167/175 167/168/176
f 135/157/165 133/156/164 169/169/177 170/170/178
f 158/159/167 159/158/166 172/171/179 171/172/180
f 159/158/166 160/160/168 173/173/181 172/171/179
f 160/160/168 161/161/169 174/174/182 173/173/181
f 161/161/169 162/162/170 175/175/183 174/174/182
f 162/162/170 163/163/171 176/176/184 175/175/183
f 163/163/171 164/164/172 177/177/185 176/176/184
f 164/164/172 165/165/173 178/178/186 177/177/185
f 165/165/173 166/166/174 179/179/187 178/178/188
f 134/145/151 158/159/167 171/172/189 168/167/175
f 166/166/174 135/157/165 170/170/178 179/179/190
