# This file uses centimeters as units for non-parametric coordinates.

mtllib egg.mtl
g default
v 0.161585 -0.000000 -0.052502
v 0.137453 -0.000000 -0.099865
v 0.099865 -0.000000 -0.137453
v 0.052502 -0.000000 -0.161585
v 0.000000 -0.000000 -0.169901
v -0.052502 -0.000000 -0.161585
v -0.099865 -0.000000 -0.137453
v -0.137453 -0.000000 -0.099865
v -0.161585 -0.000000 -0.052502
v -0.169901 -0.000000 0.000000
v -0.161585 -0.000000 0.052502
v -0.137453 -0.000000 0.099865
v -0.099865 -0.000000 0.137453
v -0.052502 -0.000000 0.161585
v 0.000000 -0.000000 0.169901
v 0.052502 -0.000000 0.161585
v 0.099865 -0.000000 0.137453
v 0.137453 -0.000000 0.099865
v 0.161585 -0.000000 0.052502
v 0.169901 -0.000000 0.000000
v 0.319192 0.039785 -0.103712
v 0.271521 0.039785 -0.197271
v 0.197271 0.039785 -0.271521
v 0.103712 0.039785 -0.319192
v 0.000000 0.039785 -0.335618
v -0.103712 0.039785 -0.319192
v -0.197271 0.039785 -0.271521
v -0.271521 0.039785 -0.197271
v -0.319192 0.039785 -0.103712
v -0.335618 0.039785 0.000000
v -0.319192 0.039785 0.103712
v -0.271521 0.039785 0.197271
v -0.197271 0.039785 0.271521
v -0.103712 0.039785 0.319192
v -0.000000 0.039785 0.335618
v 0.103712 0.039785 0.319192
v 0.197271 0.039785 0.271521
v 0.271521 0.039785 0.197271
v 0.319192 0.039785 0.103712
v 0.335618 0.039785 0.000000
v 0.468939 0.105005 -0.152368
v 0.398903 0.105005 -0.289820
v 0.289820 0.105005 -0.398903
v 0.152367 0.105005 -0.468939
v 0.000000 0.105005 -0.493072
v -0.152367 0.105005 -0.468939
v -0.289820 0.105005 -0.398903
v -0.398903 0.105005 -0.289820
v -0.468939 0.105005 -0.152367
v -0.493071 0.105005 0.000000
v -0.468939 0.105005 0.152367
v -0.398903 0.105005 0.289820
v -0.289820 0.105005 0.398903
v -0.152367 0.105005 0.468939
v -0.000000 0.105005 0.493071
v 0.152367 0.105005 0.468939
v 0.289820 0.105005 0.398903
v 0.398903 0.105005 0.289820
v 0.468939 0.105005 0.152367
v 0.493071 0.105005 0.000000
v 0.607139 0.194052 -0.197271
v 0.516463 0.194052 -0.375233
v 0.375233 0.194052 -0.516463
v 0.197271 0.194052 -0.607139
v 0.000000 0.194052 -0.638384
v -0.197271 0.194052 -0.607139
v -0.375233 0.194052 -0.516463
v -0.516463 0.194052 -0.375232
v -0.607139 0.194052 -0.197271
v -0.638384 0.194052 0.000000
v -0.607139 0.194052 0.197271
v -0.516463 0.194052 0.375232
v -0.375232 0.194052 0.516463
v -0.197271 0.194052 0.607139
v -0.000000 0.194052 0.638384
v 0.197271 0.194052 0.607139
v 0.375232 0.194052 0.516463
v 0.516463 0.194052 0.375232
v 0.607139 0.194052 0.197271
v 0.638383 0.194052 0.000000
v 0.730390 0.304735 -0.237318
v 0.621306 0.304735 -0.451406
v 0.451406 0.304735 -0.621306
v 0.237318 0.304735 -0.730389
v 0.000000 0.304735 -0.767977
v -0.237318 0.304735 -0.730389
v -0.451405 0.304735 -0.621306
v -0.621306 0.304735 -0.451405
v -0.730389 0.304735 -0.237318
v -0.767977 0.304735 0.000000
v -0.730389 0.304735 0.237318
v -0.621306 0.304735 0.451405
v -0.451405 0.304735 0.621306
v -0.237318 0.304735 0.730389
v -0.000000 0.304735 0.767977
v 0.237318 0.304735 0.730389
v 0.451405 0.304735 0.621306
v 0.621306 0.304735 0.451405
v 0.730389 0.304735 0.237318
v 0.767977 0.304735 0.000000
v 0.835655 0.434328 -0.271521
v 0.710851 0.434328 -0.516463
v 0.516463 0.434328 -0.710851
v 0.271521 0.434328 -0.835655
v 0.000000 0.434328 -0.878660
v -0.271521 0.434328 -0.835655
v -0.516463 0.434328 -0.710851
v -0.710851 0.434328 -0.516463
v -0.835655 0.434328 -0.271521
v -0.878660 0.434328 0.000000
v -0.835655 0.434328 0.271521
v -0.710851 0.434328 0.516463
v -0.516463 0.434328 0.710851
v -0.271521 0.434328 0.835655
v -0.000000 0.434328 0.878660
v 0.271521 0.434328 0.835655
v 0.516463 0.434328 0.710850
v 0.710850 0.434328 0.516463
v 0.835655 0.434328 0.271521
v 0.878660 0.434328 0.000000
v 0.920345 0.579640 -0.299038
v 0.782892 0.579640 -0.568804
v 0.568804 0.579640 -0.782892
v 0.299038 0.579640 -0.920344
v 0.000000 0.579640 -0.967707
v -0.299038 0.579640 -0.920344
v -0.568804 0.579640 -0.782892
v -0.782891 0.579640 -0.568804
v -0.920344 0.579640 -0.299038
v -0.967707 0.579640 0.000000
v -0.920344 0.579640 0.299038
v -0.782891 0.579640 0.568804
v -0.568804 0.579640 0.782891
v -0.299038 0.579640 0.920344
v -0.000000 0.579640 0.967707
v 0.299038 0.579640 0.920344
v 0.568804 0.579640 0.782891
v 0.782891 0.579640 0.568804
v 0.920344 0.579640 0.299038
v 0.967707 0.579640 0.000000
v 0.982372 0.737093 -0.319192
v 0.835655 0.737093 -0.607139
v 0.607139 0.737093 -0.835655
v 0.319192 0.737093 -0.982372
v 0.000000 0.737093 -1.032927
v -0.319192 0.737093 -0.982372
v -0.607139 0.737093 -0.835655
v -0.835655 0.737093 -0.607139
v -0.982371 0.737093 -0.319192
v -1.032926 0.737093 0.000000
v -0.982371 0.737093 0.319192
v -0.835655 0.737093 0.607139
v -0.607139 0.737093 0.835655
v -0.319192 0.737093 0.982371
v -0.000000 0.737093 1.032926
v 0.319192 0.737093 0.982371
v 0.607139 0.737093 0.835655
v 0.835655 0.737093 0.607139
v 0.982371 0.737093 0.319192
v 1.032926 0.737093 0.000000
v 1.020210 0.902811 -0.331486
v 0.867842 0.902811 -0.630524
v 0.630524 0.902811 -0.867842
v 0.331486 0.902811 -1.020210
v 0.000000 0.902811 -1.072712
v -0.331486 0.902811 -1.020210
v -0.630524 0.902811 -0.867842
v -0.867842 0.902811 -0.630524
v -1.020209 0.902811 -0.331486
v -1.072712 0.902811 0.000000
v -1.020209 0.902811 0.331486
v -0.867842 0.902811 0.630524
v -0.630524 0.902811 0.867842
v -0.331486 0.902811 1.020209
v -0.000000 0.902811 1.072711
v 0.331486 0.902811 1.020209
v 0.630524 0.902811 0.867842
v 0.867842 0.902811 0.630524
v 1.020209 0.902811 0.331486
v 1.072711 0.902811 0.000000
v 1.032927 1.095642 -0.335618
v 0.878660 1.095642 -0.638384
v 0.638384 1.095642 -0.878660
v 0.335618 1.095642 -1.032927
v 0.000000 1.095642 -1.086083
v -0.335618 1.095642 -1.032927
v -0.638384 1.095642 -0.878660
v -0.878660 1.095642 -0.638384
v -1.032926 1.095642 -0.335618
v -1.086083 1.095642 0.000000
v -1.032926 1.095642 0.335618
v -0.878660 1.095642 0.638384
v -0.638384 1.095642 0.878660
v -0.335618 1.095642 1.032926
v -0.000000 1.095642 1.086083
v 0.335618 1.095642 1.032926
v 0.638383 1.095642 0.878660
v 0.878660 1.095642 0.638384
v 1.032926 1.095642 0.335618
v 1.086083 1.095642 0.000000
v 1.020210 1.327431 -0.331486
v 0.867842 1.327431 -0.630524
v 0.630524 1.327431 -0.867842
v 0.331486 1.327431 -1.020210
v 0.000000 1.327431 -1.072712
v -0.331486 1.327431 -1.020210
v -0.630524 1.327431 -0.867842
v -0.867842 1.327431 -0.630524
v -1.020209 1.327431 -0.331486
v -1.072712 1.327431 0.000000
v -1.020209 1.327431 0.331486
v -0.867842 1.327431 0.630524
v -0.630524 1.327431 0.867842
v -0.331486 1.327431 1.020209
v -0.000000 1.327431 1.072711
v 0.331486 1.327431 1.020209
v 0.630524 1.327431 0.867842
v 0.867842 1.327431 0.630524
v 1.020209 1.327431 0.331486
v 1.072711 1.327431 0.000000
v 0.982372 1.553512 -0.319192
v 0.835655 1.553512 -0.607139
v 0.607139 1.553512 -0.835655
v 0.319192 1.553512 -0.982372
v 0.000000 1.553512 -1.032927
v -0.319192 1.553512 -0.982372
v -0.607139 1.553512 -0.835655
v -0.835655 1.553512 -0.607139
v -0.982371 1.553512 -0.319192
v -1.032926 1.553512 0.000000
v -0.982371 1.553512 0.319192
v -0.835655 1.553512 0.607139
v -0.607139 1.553512 0.835655
v -0.319192 1.553512 0.982371
v -0.000000 1.553512 1.032926
v 0.319192 1.553512 0.982371
v 0.607139 1.553512 0.835655
v 0.835655 1.553512 0.607139
v 0.982371 1.553512 0.319192
v 1.032926 1.553512 0.000000
v 0.920345 1.768320 -0.299038
v 0.782892 1.768320 -0.568804
v 0.568804 1.768320 -0.782892
v 0.299038 1.768320 -0.920344
v 0.000000 1.768320 -0.967707
v -0.299038 1.768320 -0.920344
v -0.568804 1.768320 -0.782892
v -0.782891 1.768320 -0.568804
v -0.920344 1.768320 -0.299038
v -0.967707 1.768320 0.000000
v -0.920344 1.768320 0.299038
v -0.782891 1.768320 0.568804
v -0.568804 1.768320 0.782891
v -0.299038 1.768320 0.920344
v -0.000000 1.768320 0.967707
v 0.299038 1.768320 0.920344
v 0.568804 1.768320 0.782891
v 0.782891 1.768320 0.568804
v 0.920344 1.768320 0.299038
v 0.967707 1.768320 0.000000
v 0.835655 1.966564 -0.271521
v 0.710851 1.966564 -0.516463
v 0.516463 1.966564 -0.710851
v 0.271521 1.966564 -0.835655
v 0.000000 1.966564 -0.878660
v -0.271521 1.966564 -0.835655
v -0.516463 1.966564 -0.710851
v -0.710851 1.966564 -0.516463
v -0.835655 1.966564 -0.271521
v -0.878660 1.966564 0.000000
v -0.835655 1.966564 0.271521
v -0.710851 1.966564 0.516463
v -0.516463 1.966564 0.710851
v -0.271521 1.966564 0.835655
v -0.000000 1.966564 0.878660
v 0.271521 1.966564 0.835655
v 0.516463 1.966564 0.710850
v 0.710850 1.966564 0.516463
v 0.835655 1.966564 0.271521
v 0.878660 1.966564 0.000000
v 0.730390 2.143363 -0.237318
v 0.621306 2.143363 -0.451406
v 0.451406 2.143363 -0.621306
v 0.237318 2.143363 -0.730389
v 0.000000 2.143363 -0.767977
v -0.237318 2.143363 -0.730389
v -0.451405 2.143363 -0.621306
v -0.621306 2.143363 -0.451405
v -0.730389 2.143363 -0.237318
v -0.767977 2.143363 0.000000
v -0.730389 2.143363 0.237318
v -0.621306 2.143363 0.451405
v -0.451405 2.143363 0.621306
v -0.237318 2.143363 0.730389
v -0.000000 2.143363 0.767977
v 0.237318 2.143363 0.730389
v 0.451405 2.143363 0.621306
v 0.621306 2.143363 0.451405
v 0.730389 2.143363 0.237318
v 0.767977 2.143363 0.000000
v 0.607139 2.294364 -0.197271
v 0.516463 2.294364 -0.375233
v 0.375233 2.294364 -0.516463
v 0.197271 2.294364 -0.607139
v 0.000000 2.294364 -0.638384
v -0.197271 2.294364 -0.607139
v -0.375233 2.294364 -0.516463
v -0.516463 2.294364 -0.375232
v -0.607139 2.294364 -0.197271
v -0.638384 2.294364 0.000000
v -0.607139 2.294364 0.197271
v -0.516463 2.294364 0.375232
v -0.375232 2.294364 0.516463
v -0.197271 2.294364 0.607139
v -0.000000 2.294364 0.638384
v 0.197271 2.294364 0.607139
v 0.375232 2.294364 0.516463
v 0.516463 2.294364 0.375232
v 0.607139 2.294364 0.197271
v 0.638383 2.294364 0.000000
v 0.468939 2.415848 -0.152368
v 0.398903 2.415848 -0.289820
v 0.289820 2.415848 -0.398903
v 0.152367 2.415848 -0.468939
v 0.000000 2.415848 -0.493072
v -0.152367 2.415848 -0.468939
v -0.289820 2.415848 -0.398903
v -0.398903 2.415848 -0.289820
v -0.468939 2.415848 -0.152367
v -0.493071 2.415848 0.000000
v -0.468939 2.415848 0.152367
v -0.398903 2.415848 0.289820
v -0.289820 2.415848 0.398903
v -0.152367 2.415848 0.468939
v -0.000000 2.415848 0.493071
v 0.152367 2.415848 0.468939
v 0.289820 2.415848 0.398903
v 0.398903 2.415848 0.289820
v 0.468939 2.415848 0.152367
v 0.493071 2.415848 0.000000
v 0.319192 2.504824 -0.103712
v 0.271521 2.504824 -0.197271
v 0.197271 2.504824 -0.271521
v 0.103712 2.504824 -0.319192
v 0.000000 2.504824 -0.335618
v -0.103712 2.504824 -0.319192
v -0.197271 2.504824 -0.271521
v -0.271521 2.504824 -0.197271
v -0.319192 2.504824 -0.103712
v -0.335618 2.504824 0.000000
v -0.319192 2.504824 0.103712
v -0.271521 2.504824 0.197271
v -0.197271 2.504824 0.271521
v -0.103712 2.504824 0.319192
v -0.000000 2.504824 0.335618
v 0.103712 2.504824 0.319192
v 0.197271 2.504824 0.271521
v 0.271521 2.504824 0.197271
v 0.319192 2.504824 0.103712
v 0.335618 2.504824 0.000000
v 0.161585 2.559101 -0.052502
v 0.137453 2.559101 -0.099865
v 0.099865 2.559101 -0.137453
v 0.052502 2.559101 -0.161585
v 0.000000 2.559101 -0.169901
v -0.052502 2.559101 -0.161585
v -0.099865 2.559101 -0.137453
v -0.137453 2.559101 -0.099865
v -0.161585 2.559101 -0.052502
v -0.169901 2.559101 0.000000
v -0.161585 2.559101 0.052502
v -0.137453 2.559101 0.099865
v -0.099865 2.559101 0.137453
v -0.052502 2.559101 0.161585
v 0.000000 2.559101 0.169901
v 0.052502 2.559101 0.161585
v 0.099865 2.559101 0.137453
v 0.137453 2.559101 0.099865
v 0.161585 2.559101 0.052502
v 0.169901 2.559101 0.000000
v 0.000000 -0.013371 0.000000
v 0.000000 2.577344 0.000000
vt 0.436634 0.500885
vt 0.432155 0.507688
vt 0.412016 0.495379
vt 0.421259 0.482354
vt 0.429644 0.515573
vt 0.406451 0.510804
vt 0.429434 0.523818
vt 0.405413 0.527360
vt 0.431649 0.531601
vt 0.409433 0.543443
vt 0.436154 0.538067
vt 0.418504 0.557157
vt 0.442519 0.542447
vt 0.431838 0.566531
vt 0.450042 0.544195
vt 0.447769 0.570049
vt 0.457855 0.543124
vt 0.464091 0.567384
vt 0.465082 0.539419
vt 0.478740 0.559246
vt 0.470973 0.533565
vt 0.490208 0.546968
vt 0.474988 0.526242
vt 0.497618 0.532114
vt 0.476821 0.518220
vt 0.500623 0.516245
vt 0.476392 0.510274
vt 0.499271 0.500809
vt 0.473813 0.503125
vt 0.493910 0.487087
vt 0.469367 0.497393
vt 0.485119 0.476155
vt 0.463470 0.493558
vt 0.473669 0.468848
vt 0.456643 0.491943
vt 0.460488 0.465718
vt 0.449477 0.492688
vt 0.446615 0.467015
vt 0.442600 0.495747
vt 0.433161 0.472681
vt 0.392774 0.481421
vt 0.406959 0.462819
vt 0.383661 0.503849
vt 0.381088 0.528548
vt 0.386299 0.553362
vt 0.399894 0.575319
vt 0.421033 0.590648
vt 0.446656 0.595867
vt 0.472307 0.590831
vt 0.494385 0.577434
vt 0.510856 0.558279
vt 0.520896 0.535886
vt 0.524404 0.512494
vt 0.521708 0.490058
vt 0.513425 0.470277
vt 0.500401 0.454583
vt 0.483698 0.444093
vt 0.464562 0.439546
vt 0.444393 0.441266
vt 0.424680 0.449174
vt 0.374498 0.465891
vt 0.393689 0.442401
vt 0.361421 0.494607
vt 0.356544 0.526977
vt 0.362074 0.560698
vt 0.379916 0.592048
vt 0.410049 0.614919
vt 0.447306 0.621554
vt 0.483143 0.613058
vt 0.512291 0.593587
vt 0.532892 0.567316
vt 0.544690 0.537589
vt 0.548066 0.507113
vt 0.543680 0.478181
vt 0.532391 0.452801
vt 0.515255 0.432703
vt 0.493555 0.419264
vt 0.468803 0.413391
vt 0.442700 0.415449
vt 0.417048 0.425300
vt 0.357242 0.448894
vt 0.381410 0.421224
vt 0.339885 0.483030
vt 0.331906 0.522254
vt 0.336543 0.564596
vt 0.357843 0.606443
vt 0.398765 0.639593
vt 0.450822 0.646925
vt 0.497445 0.633510
vt 0.532695 0.607308
vt 0.556231 0.573954
vt 0.568853 0.537286
vt 0.571509 0.500249
vt 0.565157 0.465332
vt 0.550823 0.434769
vt 0.529701 0.410564
vt 0.503234 0.394368
vt 0.473157 0.387256
vt 0.441447 0.389596
vt 0.410173 0.401144
vt 0.341061 0.430543
vt 0.370087 0.399406
vt 0.319216 0.469117
vt 0.307358 0.514027
vt 0.309505 0.563998
vt 0.332374 0.616833
vt 0.386852 0.665078
vt 0.459447 0.671470
vt 0.516266 0.651454
vt 0.555749 0.618236
vt 0.580734 0.578111
vt 0.593225 0.535052
vt 0.594636 0.492042
vt 0.586105 0.451651
vt 0.568728 0.416286
vt 0.543750 0.388225
vt 0.512723 0.369426
vt 0.477576 0.361161
vt 0.440557 0.363756
vt 0.403981 0.376793
vt 0.326004 0.410963
vt 0.359691 0.377067
vt 0.299588 0.452924
vt 0.283172 0.502057
vt 0.280887 0.557747
vt 0.301204 0.620100
vt 0.373031 0.691993
vt 0.478123 0.693352
vt 0.540696 0.666185
vt 0.581441 0.626097
vt 0.606201 0.579747
vt 0.617641 0.530966
vt 0.617353 0.482622
vt 0.606491 0.437275
vt 0.586105 0.397464
vt 0.557411 0.365752
vt 0.522012 0.344469
vt 0.482014 0.335137
vt 0.439965 0.337983
vt 0.398407 0.352335
vt 0.312118 0.390289
vt 0.350196 0.354326
vt 0.281179 0.434570
vt 0.259724 0.486306
vt 0.251032 0.544980
vt 0.260243 0.610306
vt 0.437418 0.738007
vt 0.513994 0.714487
vt 0.571088 0.677442
vt 0.609478 0.630702
vt 0.632368 0.578845
vt 0.641933 0.525112
vt 0.639573 0.472119
vt 0.626285 0.422346
vt 0.602961 0.378426
vt 0.570693 0.343220
vt 0.531087 0.319529
vt 0.486424 0.309220
vt 0.439599 0.312339
vt 0.393386 0.327864
vt 0.299444 0.368666
vt 0.341565 0.331305
vt 0.264167 0.414229
vt 0.237501 0.467019
vt 0.221458 0.526287
vt 0.217488 0.591031
vt 0.499436 0.771690
vt 0.557525 0.730744
vt 0.605662 0.684486
vt 0.639249 0.631873
vt 0.658932 0.575408
vt 0.665936 0.517578
vt 0.661217 0.460668
vt 0.645468 0.407021
vt 0.619311 0.359315
vt 0.583618 0.320718
vt 0.539934 0.294628
vt 0.490742 0.283443
vt 0.439372 0.286894
vt 0.388842 0.303479
vt 0.286553 0.343202
vt 0.332742 0.305039
vt 0.246747 0.389036
vt 0.214335 0.441329
vt 0.189909 0.498939
vt 0.172122 0.560284
vt 0.571375 0.795362
vt 0.611777 0.741078
vt 0.648091 0.686633
vt 0.674347 0.628825
vt 0.689170 0.568423
vt 0.692618 0.507090
vt 0.684983 0.446697
vt 0.666476 0.389372
vt 0.637285 0.337767
vt 0.597886 0.295373
vt 0.549657 0.266456
vt 0.495398 0.254428
vt 0.439111 0.258389
vt 0.384118 0.276088
vt 0.273004 0.311534
vt 0.323189 0.273441
vt 0.228563 0.356184
vt 0.189996 0.405864
vt 0.156599 0.458946
vt 0.125400 0.513292
vt 0.659505 0.803427
vt 0.679950 0.740611
vt 0.701296 0.680409
vt 0.717338 0.618928
vt 0.725231 0.555813
vt 0.723816 0.491984
vt 0.712527 0.428842
vt 0.690898 0.368177
vt 0.658423 0.312446
vt 0.614802 0.265367
vt 0.560918 0.232536
vt 0.500315 0.219764
vt 0.438302 0.224694
vt 0.378608 0.243692
vt 0.261364 0.279232
vt 0.314266 0.242228
vt 0.213555 0.321312
vt 0.170269 0.366665
vt 0.130041 0.413243
vt 0.089442 0.458423
vt 0.745423 0.789683
vt 0.747108 0.725977
vt 0.753966 0.664676
vt 0.759571 0.602598
vt 0.760205 0.539118
vt 0.753803 0.474762
vt 0.739052 0.410563
vt 0.714805 0.347907
vt 0.679718 0.288778
vt 0.632196 0.236610
vt 0.571690 0.198336
vt 0.503637 0.185296
vt 0.435902 0.191912
vt 0.372467 0.212254
vt 0.251202 0.246861
vt 0.305182 0.211841
vt 0.201643 0.285280
vt 0.155504 0.325110
vt 0.111058 0.364006
vt 0.065132 0.398966
vt 0.823858 0.756625
vt 0.809619 0.698249
vt 0.803671 0.640112
vt 0.799650 0.580447
vt 0.793447 0.518954
vt 0.782455 0.456098
vt 0.764833 0.392687
vt 0.738899 0.329706
vt 0.702460 0.268377
vt 0.651906 0.210784
vt 0.582053 0.163373
vt 0.503139 0.151052
vt 0.429884 0.160572
vt 0.364391 0.182227
vt 0.241961 0.214890
vt 0.294986 0.182605
vt 0.192556 0.248852
vt 0.145699 0.282445
vt 0.099818 0.313177
vt 0.052444 0.337845
vt 0.890568 0.707836
vt 0.864606 0.659354
vt 0.848522 0.607873
vt 0.836500 0.553303
vt 0.824518 0.496016
vt 0.809814 0.436676
vt 0.790349 0.376059
vt 0.764246 0.314898
vt 0.728946 0.253689
vt 0.678821 0.192052
vt 0.593930 0.126723
vt 0.491635 0.118613
vt 0.416695 0.131204
vt 0.352657 0.153927
vt 0.233039 0.183627
vt 0.282758 0.154666
vt 0.185902 0.212609
vt 0.140601 0.239670
vt 0.096053 0.262355
vt 0.050747 0.277504
vt 0.942596 0.647548
vt 0.910000 0.611656
vt 0.887163 0.569334
vt 0.869388 0.522051
vt 0.853197 0.470959
vt 0.836076 0.417085
vt 0.816180 0.361363
vt 0.792044 0.304625
vt 0.762372 0.247598
vt 0.726396 0.191124
vt 0.511656 0.063396
vt 0.452357 0.082719
vt 0.392154 0.103067
vt 0.335628 0.127343
vt 0.223900 0.153191
vt 0.267937 0.128083
vt 0.181248 0.176885
vt 0.139832 0.197469
vt 0.099265 0.212725
vt 0.059070 0.219828
vt 0.978300 0.580205
vt 0.944495 0.557613
vt 0.918722 0.525850
vt 0.897886 0.487470
vt 0.879456 0.444279
vt 0.861516 0.397693
vt 0.842744 0.348912
vt 0.822423 0.299034
vt 0.800738 0.249207
vt 0.779956 0.200970
vt 0.436085 0.023480
vt 0.401830 0.052719
vt 0.358621 0.077876
vt 0.313143 0.102779
vt 0.214084 0.123502
vt 0.250223 0.102858
vt 0.178178 0.141721
vt 0.143010 0.156154
vt 0.108922 0.165018
vt 0.076359 0.166119
vt 0.997229 0.510120
vt 0.967386 0.499512
vt 0.942672 0.478544
vt 0.921795 0.450072
vt 0.903423 0.416204
vt 0.886482 0.378609
vt 0.870340 0.338716
vt 0.854999 0.297874
vt 0.841456 0.257518
vt 0.832389 0.219376
vt 0.363273 0.003221
vt 0.346334 0.032081
vt 0.318736 0.057290
vt 0.285674 0.080688
vt 0.203116 0.094230
vt 0.229296 0.078901
vt 0.176317 0.106795
vt 0.149869 0.115619
vt 0.124655 0.119509
vt 0.101697 0.117138
vt 1.000000 0.441260
vt 0.978364 0.439320
vt 0.958639 0.428145
vt 0.941026 0.409941
vt 0.925360 0.386568
vt 0.911452 0.359631
vt 0.899325 0.330590
vt 0.889411 0.300861
vt 0.882743 0.271930
vt 0.881108 0.245463
vt 0.294187 0.000000
vt 0.288830 0.021978
vt 0.274248 0.042500
vt 0.253592 0.061520
vt 0.190294 0.064684
vt 0.204465 0.055975
vt 0.175262 0.071287
vt 0.160319 0.075233
vt 0.146391 0.075998
vt 0.134431 0.073148
vt 0.988356 0.377005
vt 0.977410 0.378712
vt 0.966209 0.374943
vt 0.955467 0.366581
vt 0.945666 0.354629
vt 0.937185 0.340140
vt 0.930400 0.324188
vt 0.925763 0.307871
vt 0.923828 0.292321
vt 0.925208 0.278721
vt 0.230902 0.011159
vt 0.231120 0.022640
vt 0.226028 0.034395
vt 0.216749 0.045700
vt 0.453064 0.518431
vt 0.174339 0.033373
vt 0.930439 0.268294
vt 0.965213 0.318806
vt 0.125469 0.066458
vt 0.886969 0.223407
vt 0.082429 0.107191
vt 0.833012 0.185598
vt 0.046277 0.156893
vt 0.767974 0.156786
vt 0.019032 0.215232
vt 0.690295 0.138000
vt 0.002873 0.281041
vt 0.000000 0.352329
vt 0.012395 0.426237
vt 0.041549 0.499055
vt 0.088202 0.566340
vt 0.152181 0.623162
vt 0.218830 0.658753
vt 0.288660 0.679816
vn 0.190555 -0.979722 -0.061915
vn 0.162096 -0.979722 -0.117769
vn 0.269870 -0.942723 -0.196072
vn 0.317252 -0.942722 -0.103081
vn 0.117769 -0.979722 -0.162096
vn 0.196072 -0.942722 -0.269870
vn 0.061915 -0.979722 -0.190555
vn 0.103081 -0.942722 -0.317252
vn -0.000000 -0.979722 -0.200361
vn -0.000000 -0.942722 -0.333578
vn -0.061915 -0.979722 -0.190556
vn -0.103081 -0.942722 -0.317252
vn -0.117770 -0.979722 -0.162096
vn -0.196072 -0.942722 -0.269870
vn -0.162096 -0.979722 -0.117768
vn -0.269870 -0.942722 -0.196072
vn -0.190555 -0.979722 -0.061915
vn -0.317252 -0.942722 -0.103081
vn -0.200361 -0.979722 0.000000
vn -0.333578 -0.942722 -0.000000
vn -0.190555 -0.979722 0.061915
vn -0.317252 -0.942722 0.103081
vn -0.162096 -0.979722 0.117770
vn -0.269870 -0.942722 0.196073
vn -0.117770 -0.979722 0.162096
vn -0.196072 -0.942722 0.269870
vn -0.061915 -0.979722 0.190555
vn -0.103081 -0.942723 0.317252
vn 0.000000 -0.979722 0.200361
vn 0.000000 -0.942722 0.333578
vn 0.061915 -0.979722 0.190555
vn 0.103081 -0.942722 0.317252
vn 0.117770 -0.979722 0.162096
vn 0.196072 -0.942722 0.269871
vn 0.162096 -0.979722 0.117770
vn 0.269870 -0.942722 0.196072
vn 0.190555 -0.979722 0.061915
vn 0.317252 -0.942722 0.103081
vn 0.200361 -0.979722 0.000000
vn 0.333578 -0.942722 0.000000
vn 0.380846 -0.882266 -0.276701
vn 0.447712 -0.882266 -0.145470
vn 0.276701 -0.882266 -0.380846
vn 0.145470 -0.882266 -0.447712
vn -0.000000 -0.882266 -0.470752
vn -0.145470 -0.882266 -0.447711
vn -0.276701 -0.882266 -0.380846
vn -0.380846 -0.882266 -0.276701
vn -0.447712 -0.882266 -0.145470
vn -0.470752 -0.882266 -0.000000
vn -0.447712 -0.882266 0.145470
vn -0.380846 -0.882266 0.276701
vn -0.276701 -0.882266 0.380846
vn -0.145470 -0.882266 0.447712
vn 0.000000 -0.882266 0.470752
vn 0.145470 -0.882266 0.447711
vn 0.276701 -0.882266 0.380846
vn 0.380846 -0.882266 0.276701
vn 0.447712 -0.882266 0.145470
vn 0.470752 -0.882266 0.000001
vn 0.485138 -0.800252 -0.352473
vn 0.570314 -0.800252 -0.185306
vn 0.352473 -0.800252 -0.485138
vn 0.185306 -0.800252 -0.570314
vn -0.000000 -0.800252 -0.599664
vn -0.185306 -0.800252 -0.570314
vn -0.352474 -0.800252 -0.485138
vn -0.485138 -0.800252 -0.352473
vn -0.570314 -0.800252 -0.185306
vn -0.599664 -0.800252 0.000000
vn -0.570314 -0.800252 0.185306
vn -0.485138 -0.800252 0.352474
vn -0.352473 -0.800252 0.485138
vn -0.185306 -0.800252 0.570314
vn 0.000000 -0.800252 0.599664
vn 0.185306 -0.800252 0.570314
vn 0.352474 -0.800252 0.485138
vn 0.485138 -0.800252 0.352474
vn 0.570314 -0.800252 0.185306
vn 0.599664 -0.800252 0.000001
vn 0.578713 -0.698789 -0.420459
vn 0.680318 -0.698789 -0.221048
vn 0.420459 -0.698789 -0.578713
vn 0.221048 -0.698789 -0.680318
vn -0.000000 -0.698789 -0.715328
vn -0.221049 -0.698789 -0.680318
vn -0.420459 -0.698789 -0.578713
vn -0.578713 -0.698789 -0.420459
vn -0.680318 -0.698789 -0.221049
vn -0.715328 -0.698789 0.000000
vn -0.680318 -0.698788 0.221049
vn -0.578713 -0.698788 0.420460
vn -0.420459 -0.698788 0.578713
vn -0.221049 -0.698789 0.680318
vn 0.000000 -0.698789 0.715328
vn 0.221049 -0.698789 0.680318
vn 0.420459 -0.698788 0.578713
vn 0.578713 -0.698788 0.420460
vn 0.680318 -0.698788 0.221049
vn 0.715328 -0.698789 0.000001
vn 0.658808 -0.580401 -0.478652
vn 0.774475 -0.580401 -0.251641
vn 0.478652 -0.580400 -0.658808
vn 0.251642 -0.580400 -0.774475
vn -0.000000 -0.580400 -0.814331
vn -0.251642 -0.580401 -0.774475
vn -0.478652 -0.580400 -0.658808
vn -0.658808 -0.580400 -0.478652
vn -0.774475 -0.580400 -0.251642
vn -0.814331 -0.580400 0.000000
vn -0.774475 -0.580400 0.251642
vn -0.658808 -0.580400 0.478652
vn -0.478652 -0.580400 0.658808
vn -0.251642 -0.580400 0.774475
vn 0.000000 -0.580400 0.814331
vn 0.251642 -0.580400 0.774475
vn 0.478652 -0.580400 0.658808
vn 0.658808 -0.580400 0.478652
vn 0.774475 -0.580400 0.251642
vn 0.814331 -0.580400 0.000001
vn 0.723291 -0.447994 -0.525502
vn 0.850280 -0.447994 -0.276272
vn 0.525501 -0.447994 -0.723291
vn 0.276272 -0.447994 -0.850279
vn -0.000000 -0.447994 -0.894037
vn -0.276273 -0.447994 -0.850279
vn -0.525502 -0.447994 -0.723291
vn -0.723291 -0.447994 -0.525501
vn -0.850279 -0.447994 -0.276273
vn -0.894037 -0.447994 0.000000
vn -0.850279 -0.447994 0.276273
vn -0.723291 -0.447994 0.525502
vn -0.525502 -0.447994 0.723291
vn -0.276273 -0.447994 0.850279
vn 0.000000 -0.447993 0.894037
vn 0.276273 -0.447993 0.850280
vn 0.525502 -0.447994 0.723291
vn 0.723291 -0.447994 0.525502
vn 0.850280 -0.447993 0.276273
vn 0.894037 -0.447994 0.000001
vn 0.770524 -0.304789 -0.559819
vn 0.905806 -0.304789 -0.294313
vn 0.559818 -0.304789 -0.770524
vn 0.294314 -0.304789 -0.905805
vn -0.000000 -0.304789 -0.952420
vn -0.294314 -0.304789 -0.905805
vn -0.559819 -0.304789 -0.770524
vn -0.770524 -0.304789 -0.559818
vn -0.905805 -0.304789 -0.294314
vn -0.952420 -0.304789 0.000000
vn -0.905805 -0.304789 0.294314
vn -0.770524 -0.304789 0.559819
vn -0.559818 -0.304789 0.770524
vn -0.294314 -0.304789 0.905805
vn 0.000000 -0.304789 0.952420
vn 0.294314 -0.304789 0.905805
vn 0.559818 -0.304789 0.770524
vn 0.770524 -0.304789 0.559818
vn 0.905805 -0.304789 0.294314
vn 0.952420 -0.304789 0.000001
vn 0.800540 -0.144384 -0.581626
vn 0.941091 -0.144384 -0.305778
vn 0.581626 -0.144384 -0.800540
vn 0.305779 -0.144384 -0.941091
vn -0.000000 -0.144384 -0.989522
vn -0.305779 -0.144384 -0.941091
vn -0.581627 -0.144384 -0.800540
vn -0.800540 -0.144384 -0.581626
vn -0.941091 -0.144384 -0.305779
vn -0.989522 -0.144384 0.000000
vn -0.941091 -0.144384 0.305779
vn -0.800540 -0.144384 0.581626
vn -0.581626 -0.144384 0.800540
vn -0.305779 -0.144384 0.941091
vn 0.000000 -0.144384 0.989522
vn 0.305779 -0.144384 0.941091
vn 0.581626 -0.144384 0.800540
vn 0.800540 -0.144384 0.581626
vn 0.941091 -0.144384 0.305779
vn 0.989522 -0.144384 0.000001
vn 0.809017 0.000037 -0.587785
vn 0.951057 0.000037 -0.309016
vn 0.587785 0.000037 -0.809017
vn 0.309017 0.000037 -0.951057
vn -0.000000 0.000037 -1.000000
vn -0.309017 0.000037 -0.951056
vn -0.587785 0.000037 -0.809017
vn -0.809017 0.000037 -0.587785
vn -0.951057 0.000037 -0.309017
vn -1.000000 0.000037 0.000000
vn -0.951057 0.000037 0.309017
vn -0.809017 0.000037 0.587785
vn -0.587785 0.000037 0.809017
vn -0.309017 0.000037 0.951057
vn -0.000000 0.000037 1.000000
vn 0.309017 0.000037 0.951057
vn 0.587785 0.000037 0.809017
vn 0.809017 0.000037 0.587785
vn 0.951057 0.000037 0.309017
vn 1.000000 0.000037 0.000001
vn 0.803749 0.113928 -0.583958
vn 0.944864 0.113928 -0.307004
vn 0.583958 0.113928 -0.803749
vn 0.307005 0.113928 -0.944864
vn -0.000000 0.113928 -0.993489
vn -0.307005 0.113928 -0.944864
vn -0.583958 0.113928 -0.803749
vn -0.803750 0.113928 -0.583958
vn -0.944864 0.113928 -0.307005
vn -0.993489 0.113928 -0.000000
vn -0.944864 0.113928 0.307005
vn -0.803749 0.113928 0.583958
vn -0.583958 0.113928 0.803750
vn -0.307005 0.113928 0.944864
vn 0.000000 0.113928 0.993489
vn 0.307005 0.113928 0.944864
vn 0.583958 0.113928 0.803750
vn 0.803750 0.113928 0.583958
vn 0.944864 0.113928 0.307005
vn 0.993489 0.113928 0.000001
vn 0.787552 0.228822 -0.572190
vn 0.925824 0.228822 -0.300817
vn 0.572190 0.228822 -0.787553
vn 0.300818 0.228822 -0.925824
vn -0.000000 0.228822 -0.973468
vn -0.300818 0.228821 -0.925823
vn -0.572191 0.228822 -0.787552
vn -0.787553 0.228822 -0.572190
vn -0.925823 0.228822 -0.300818
vn -0.973468 0.228821 0.000000
vn -0.925823 0.228822 0.300818
vn -0.787552 0.228822 0.572190
vn -0.572190 0.228821 0.787552
vn -0.300818 0.228821 0.925823
vn 0.000000 0.228821 0.973468
vn 0.300818 0.228821 0.925823
vn 0.572190 0.228822 0.787553
vn 0.787552 0.228821 0.572190
vn 0.925823 0.228822 0.300818
vn 0.973468 0.228822 0.000001
vn 0.759229 0.345391 -0.551612
vn 0.892528 0.345391 -0.289999
vn 0.551612 0.345391 -0.759229
vn 0.290000 0.345391 -0.892528
vn -0.000000 0.345391 -0.938459
vn -0.290000 0.345391 -0.892527
vn -0.551613 0.345391 -0.759229
vn -0.759229 0.345391 -0.551612
vn -0.892528 0.345391 -0.290000
vn -0.938459 0.345391 0.000000
vn -0.892527 0.345391 0.290000
vn -0.759229 0.345391 0.551613
vn -0.551612 0.345391 0.759229
vn -0.290000 0.345391 0.892528
vn 0.000000 0.345391 0.938459
vn 0.290000 0.345390 0.892528
vn 0.551612 0.345391 0.759229
vn 0.759229 0.345391 0.551612
vn 0.892528 0.345390 0.290000
vn 0.938459 0.345391 0.000001
vn 0.716763 0.463748 -0.520759
vn 0.842605 0.463748 -0.273778
vn 0.520758 0.463748 -0.716763
vn 0.273779 0.463748 -0.842605
vn -0.000000 0.463748 -0.885967
vn -0.273779 0.463748 -0.842605
vn -0.520759 0.463747 -0.716762
vn -0.716763 0.463747 -0.520758
vn -0.842605 0.463748 -0.273779
vn -0.885967 0.463748 0.000000
vn -0.842605 0.463748 0.273779
vn -0.716763 0.463747 0.520759
vn -0.520758 0.463748 0.716763
vn -0.273779 0.463747 0.842605
vn 0.000000 0.463747 0.885967
vn 0.273779 0.463747 0.842605
vn 0.520759 0.463747 0.716763
vn 0.716763 0.463747 0.520759
vn 0.842605 0.463747 0.273779
vn 0.885968 0.463747 0.000001
vn 0.657380 0.582869 -0.477614
vn 0.772796 0.582869 -0.251096
vn 0.477614 0.582869 -0.657380
vn 0.251097 0.582869 -0.772796
vn -0.000000 0.582869 -0.812566
vn -0.251097 0.582869 -0.772796
vn -0.477615 0.582869 -0.657380
vn -0.657380 0.582869 -0.477614
vn -0.772796 0.582869 -0.251097
vn -0.812566 0.582869 0.000000
vn -0.772796 0.582869 0.251097
vn -0.657380 0.582869 0.477614
vn -0.477614 0.582869 0.657380
vn -0.251097 0.582869 0.772796
vn -0.000000 0.582869 0.812566
vn 0.251097 0.582869 0.772796
vn 0.477614 0.582869 0.657380
vn 0.657380 0.582869 0.477614
vn 0.772796 0.582869 0.251097
vn 0.812566 0.582869 0.000001
vn 0.577897 0.699820 -0.419867
vn 0.679358 0.699820 -0.220736
vn 0.419866 0.699820 -0.577897
vn 0.220737 0.699820 -0.679358
vn -0.000000 0.699820 -0.714319
vn -0.220737 0.699820 -0.679358
vn -0.419867 0.699820 -0.577897
vn -0.577897 0.699820 -0.419866
vn -0.679358 0.699820 -0.220737
vn -0.714319 0.699820 0.000000
vn -0.679358 0.699820 0.220737
vn -0.577897 0.699820 0.419867
vn -0.419866 0.699820 0.577897
vn -0.220737 0.699820 0.679358
vn -0.000000 0.699820 0.714320
vn 0.220737 0.699820 0.679358
vn 0.419867 0.699820 0.577897
vn 0.577897 0.699820 0.419867
vn 0.679358 0.699820 0.220737
vn 0.714320 0.699820 0.000001
vn 0.475738 0.808829 -0.345644
vn 0.559264 0.808829 -0.181715
vn 0.345644 0.808829 -0.475738
vn 0.181716 0.808829 -0.559264
vn -0.000000 0.808829 -0.588044
vn -0.181716 0.808829 -0.559263
vn -0.345644 0.808829 -0.475738
vn -0.475738 0.808829 -0.345644
vn -0.559264 0.808829 -0.181716
vn -0.588045 0.808828 0.000000
vn -0.559264 0.808828 0.181716
vn -0.475738 0.808828 0.345644
vn -0.345644 0.808829 0.475738
vn -0.181716 0.808829 0.559264
vn 0.000000 0.808828 0.588045
vn 0.181716 0.808828 0.559264
vn 0.345644 0.808828 0.475738
vn 0.475738 0.808828 0.345644
vn 0.559264 0.808828 0.181716
vn 0.588045 0.808828 0.000001
vn 0.351472 0.900699 -0.255360
vn 0.413181 0.900699 -0.134250
vn 0.255360 0.900699 -0.351472
vn 0.134250 0.900699 -0.413181
vn -0.000000 0.900699 -0.434444
vn -0.134251 0.900699 -0.413181
vn -0.255360 0.900699 -0.351472
vn -0.351472 0.900699 -0.255360
vn -0.413181 0.900699 -0.134250
vn -0.434444 0.900699 0.000000
vn -0.413181 0.900699 0.134251
vn -0.351472 0.900699 0.255360
vn -0.255360 0.900699 0.351472
vn -0.134250 0.900699 0.413181
vn 0.000000 0.900699 0.434444
vn 0.134251 0.900699 0.413181
vn 0.255360 0.900699 0.351473
vn 0.351472 0.900699 0.255360
vn 0.413181 0.900699 0.134251
vn 0.434444 0.900699 0.000001
vn 0.217351 0.963235 -0.157915
vn 0.255511 0.963235 -0.083020
vn 0.157915 0.963235 -0.217351
vn 0.083021 0.963235 -0.255511
vn -0.000000 0.963235 -0.268660
vn -0.083021 0.963235 -0.255511
vn -0.157915 0.963235 -0.217351
vn -0.217351 0.963235 -0.157914
vn -0.255511 0.963235 -0.083020
vn -0.268661 0.963235 0.000001
vn -0.255511 0.963235 0.083022
vn -0.217351 0.963235 0.157915
vn -0.157915 0.963235 0.217351
vn -0.083021 0.963235 0.255511
vn 0.000000 0.963235 0.268660
vn 0.083021 0.963235 0.255511
vn 0.157915 0.963235 0.217351
vn 0.217351 0.963235 0.157915
vn 0.255511 0.963235 0.083020
vn 0.268661 0.963235 0.000000
vn -0.000000 -1.000000 0.000000
vn -0.000000 1.000000 0.000000
s 1
g pSphere3
usemtl initialShadingGroup
f 1/1/1 2/2/2 22/3/3 21/4/4
f 2/2/2 3/5/5 23/6/6 22/3/3
f 3/5/5 4/7/7 24/8/8 23/6/6
f 4/7/7 5/9/9 25/10/10 24/8/8
f 5/9/9 6/11/11 26/12/12 25/10/10
f 6/11/11 7/13/13 27/14/14 26/12/12
f 7/13/13 8/15/15 28/16/16 27/14/14
f 8/15/15 9/17/17 29/18/18 28/16/16
f 9/17/17 10/19/19 30/20/20 29/18/18
f 10/19/19 11/21/21 31/22/22 30/20/20
f 11/21/21 12/23/23 32/24/24 31/22/22
f 12/23/23 13/25/25 33/26/26 32/24/24
f 13/25/25 14/27/27 34/28/28 33/26/26
f 14/27/27 15/29/29 35/30/30 34/28/28
f 15/29/29 16/31/31 36/32/32 35/30/30
f 16/31/31 17/33/33 37/34/34 36/32/32
f 17/33/33 18/35/35 38/36/36 37/34/34
f 18/35/35 19/37/37 39/38/38 38/36/36
f 19/37/37 20/39/39 40/40/40 39/38/38
f 20/39/39 1/1/1 21/4/4 40/40/40
f 21/4/4 22/3/3 42/41/41 41/42/42
f 22/3/3 23/6/6 43/43/43 42/41/41
f 23/6/6 24/8/8 44/44/44 43/43/43
f 24/8/8 25/10/10 45/45/45 44/44/44
f 25/10/10 26/12/12 46/46/46 45/45/45
f 26/12/12 27/14/14 47/47/47 46/46/46
f 27/14/14 28/16/16 48/48/48 47/47/47
f 28/16/16 29/18/18 49/49/49 48/48/48
f 29/18/18 30/20/20 50/50/50 49/49/49
f 30/20/20 31/22/22 51/51/51 50/50/50
f 31/22/22 32/24/24 52/52/52 51/51/51
f 32/24/24 33/26/26 53/53/53 52/52/52
f 33/26/26 34/28/28 54/54/54 53/53/53
f 34/28/28 35/30/30 55/55/55 54/54/54
f 35/30/30 36/32/32 56/56/56 55/55/55
f 36/32/32 37/34/34 57/57/57 56/56/56
f 37/34/34 38/36/36 58/58/58 57/57/57
f 38/36/36 39/38/38 59/59/59 58/58/58
f 39/38/38 40/40/40 60/60/60 59/59/59
f 40/40/40 21/4/4 41/42/42 60/60/60
f 41/42/42 42/41/41 62/61/61 61/62/62
f 42/41/41 43/43/43 63/63/63 62/61/61
f 43/43/43 44/44/44 64/64/64 63/63/63
f 44/44/44 45/45/45 65/65/65 64/64/64
f 45/45/45 46/46/46 66/66/66 65/65/65
f 46/46/46 47/47/47 67/67/67 66/66/66
f 47/47/47 48/48/48 68/68/68 67/67/67
f 48/48/48 49/49/49 69/69/69 68/68/68
f 49/49/49 50/50/50 70/70/70 69/69/69
f 50/50/50 51/51/51 71/71/71 70/70/70
f 51/51/51 52/52/52 72/72/72 71/71/71
f 52/52/52 53/53/53 73/73/73 72/72/72
f 53/53/53 54/54/54 74/74/74 73/73/73
f 54/54/54 55/55/55 75/75/75 74/74/74
f 55/55/55 56/56/56 76/76/76 75/75/75
f 56/56/56 57/57/57 77/77/77 76/76/76
f 57/57/57 58/58/58 78/78/78 77/77/77
f 58/58/58 59/59/59 79/79/79 78/78/78
f 59/59/59 60/60/60 80/80/80 79/79/79
f 60/60/60 41/42/42 61/62/62 80/80/80
f 61/62/62 62/61/61 82/81/81 81/82/82
f 62/61/61 63/63/63 83/83/83 82/81/81
f 63/63/63 64/64/64 84/84/84 83/83/83
f 64/64/64 65/65/65 85/85/85 84/84/84
f 65/65/65 66/66/66 86/86/86 85/85/85
f 66/66/66 67/67/67 87/87/87 86/86/86
f 67/67/67 68/68/68 88/88/88 87/87/87
f 68/68/68 69/69/69 89/89/89 88/88/88
f 69/69/69 70/70/70 90/90/90 89/89/89
f 70/70/70 71/71/71 91/91/91 90/90/90
f 71/71/71 72/72/72 92/92/92 91/91/91
f 72/72/72 73/73/73 93/93/93 92/92/92
f 73/73/73 74/74/74 94/94/94 93/93/93
f 74/74/74 75/75/75 95/95/95 94/94/94
f 75/75/75 76/76/76 96/96/96 95/95/95
f 76/76/76 77/77/77 97/97/97 96/96/96
f 77/77/77 78/78/78 98/98/98 97/97/97
f 78/78/78 79/79/79 99/99/99 98/98/98
f 79/79/79 80/80/80 100/100/100 99/99/99
f 80/80/80 61/62/62 81/82/82 100/100/100
f 81/82/82 82/81/81 102/101/101 101/102/102
f 82/81/81 83/83/83 103/103/103 102/101/101
f 83/83/83 84/84/84 104/104/104 103/103/103
f 84/84/84 85/85/85 105/105/105 104/104/104
f 85/85/85 86/86/86 106/106/106 105/105/105
f 86/86/86 87/87/87 107/107/107 106/106/106
f 87/87/87 88/88/88 108/108/108 107/107/107
f 88/88/88 89/89/89 109/109/109 108/108/108
f 89/89/89 90/90/90 110/110/110 109/109/109
f 90/90/90 91/91/91 111/111/111 110/110/110
f 91/91/91 92/92/92 112/112/112 111/111/111
f 92/92/92 93/93/93 113/113/113 112/112/112
f 93/93/93 94/94/94 114/114/114 113/113/113
f 94/94/94 95/95/95 115/115/115 114/114/114
f 95/95/95 96/96/96 116/116/116 115/115/115
f 96/96/96 97/97/97 117/117/117 116/116/116
f 97/97/97 98/98/98 118/118/118 117/117/117
f 98/98/98 99/99/99 119/119/119 118/118/118
f 99/99/99 100/100/100 120/120/120 119/119/119
f 100/100/100 81/82/82 101/102/102 120/120/120
f 101/102/102 102/101/101 122/121/121 121/122/122
f 102/101/101 103/103/103 123/123/123 122/121/121
f 103/103/103 104/104/104 124/124/124 123/123/123
f 104/104/104 105/105/105 125/125/125 124/124/124
f 105/105/105 106/106/106 126/126/126 125/125/125
f 106/106/106 107/107/107 127/127/127 126/126/126
f 107/107/107 108/108/108 128/128/128 127/127/127
f 108/108/108 109/109/109 129/129/129 128/128/128
f 109/109/109 110/110/110 130/130/130 129/129/129
f 110/110/110 111/111/111 131/131/131 130/130/130
f 111/111/111 112/112/112 132/132/132 131/131/131
f 112/112/112 113/113/113 133/133/133 132/132/132
f 113/113/113 114/114/114 134/134/134 133/133/133
f 114/114/114 115/115/115 135/135/135 134/134/134
f 115/115/115 116/116/116 136/136/136 135/135/135
f 116/116/116 117/117/117 137/137/137 136/136/136
f 117/117/117 118/118/118 138/138/138 137/137/137
f 118/118/118 119/119/119 139/139/139 138/138/138
f 119/119/119 120/120/120 140/140/140 139/139/139
f 120/120/120 101/102/102 121/122/122 140/140/140
f 121/122/122 122/121/121 142/141/141 141/142/142
f 122/121/121 123/123/123 143/143/143 142/141/141
f 123/123/123 124/124/124 144/144/144 143/143/143
f 124/124/124 125/125/125 145/145/145 144/144/144
f 125/125/125 126/126/126 146/146/146 145/145/145
f 126/126/126 127/127/127 147/400/147 146/146/146
f 127/127/127 128/128/128 148/148/148 147/147/147
f 128/128/128 129/129/129 149/149/149 148/148/148
f 129/129/129 130/130/130 150/150/150 149/149/149
f 130/130/130 131/131/131 151/151/151 150/150/150
f 131/131/131 132/132/132 152/152/152 151/151/151
f 132/132/132 133/133/133 153/153/153 152/152/152
f 133/133/133 134/134/134 154/154/154 153/153/153
f 134/134/134 135/135/135 155/155/155 154/154/154
f 135/135/135 136/136/136 156/156/156 155/155/155
f 136/136/136 137/137/137 157/157/157 156/156/156
f 137/137/137 138/138/138 158/158/158 157/157/157
f 138/138/138 139/139/139 159/159/159 158/158/158
f 139/139/139 140/140/140 160/160/160 159/159/159
f 140/140/140 121/122/122 141/142/142 160/160/160
f 141/142/142 142/141/141 162/161/161 161/162/162
f 142/141/141 143/143/143 163/163/163 162/161/161
f 143/143/143 144/144/144 164/164/164 163/163/163
f 144/144/144 145/145/145 165/165/165 164/164/164
f 145/145/145 146/146/146 166/166/166 165/165/165
f 146/146/146 147/400/147 167/399/167 166/166/166
f 147/147/147 148/148/148 168/168/168 167/167/167
f 148/148/148 149/149/149 169/169/169 168/168/168
f 149/149/149 150/150/150 170/170/170 169/169/169
f 150/150/150 151/151/151 171/171/171 170/170/170
f 151/151/151 152/152/152 172/172/172 171/171/171
f 152/152/152 153/153/153 173/173/173 172/172/172
f 153/153/153 154/154/154 174/174/174 173/173/173
f 154/154/154 155/155/155 175/175/175 174/174/174
f 155/155/155 156/156/156 176/176/176 175/175/175
f 156/156/156 157/157/157 177/177/177 176/176/176
f 157/157/157 158/158/158 178/178/178 177/177/177
f 158/158/158 159/159/159 179/179/179 178/178/178
f 159/159/159 160/160/160 180/180/180 179/179/179
f 160/160/160 141/142/142 161/162/162 180/180/180
f 161/162/162 162/161/161 182/181/181 181/182/182
f 162/161/161 163/163/163 183/183/183 182/181/181
f 163/163/163 164/164/164 184/184/184 183/183/183
f 164/164/164 165/165/165 185/185/185 184/184/184
f 165/165/165 166/166/166 186/186/186 185/185/185
f 166/166/166 167/399/167 187/398/187 186/186/186
f 167/167/167 168/168/168 188/188/188 187/187/187
f 168/168/168 169/169/169 189/189/189 188/188/188
f 169/169/169 170/170/170 190/190/190 189/189/189
f 170/170/170 171/171/171 191/191/191 190/190/190
f 171/171/171 172/172/172 192/192/192 191/191/191
f 172/172/172 173/173/173 193/193/193 192/192/192
f 173/173/173 174/174/174 194/194/194 193/193/193
f 174/174/174 175/175/175 195/195/195 194/194/194
f 175/175/175 176/176/176 196/196/196 195/195/195
f 176/176/176 177/177/177 197/197/197 196/196/196
f 177/177/177 178/178/178 198/198/198 197/197/197
f 178/178/178 179/179/179 199/199/199 198/198/198
f 179/179/179 180/180/180 200/200/200 199/199/199
f 180/180/180 161/162/162 181/182/182 200/200/200
f 181/182/182 182/181/181 202/201/201 201/202/202
f 182/181/181 183/183/183 203/203/203 202/201/201
f 183/183/183 184/184/184 204/204/204 203/203/203
f 184/184/184 185/185/185 205/205/205 204/204/204
f 185/185/185 186/186/186 206/206/206 205/205/205
f 186/186/186 187/398/187 207/397/207 206/206/206
f 187/187/187 188/188/188 208/208/208 207/207/207
f 188/188/188 189/189/189 209/209/209 208/208/208
f 189/189/189 190/190/190 210/210/210 209/209/209
f 190/190/190 191/191/191 211/211/211 210/210/210
f 191/191/191 192/192/192 212/212/212 211/211/211
f 192/192/192 193/193/193 213/213/213 212/212/212
f 193/193/193 194/194/194 214/214/214 213/213/213
f 194/194/194 195/195/195 215/215/215 214/214/214
f 195/195/195 196/196/196 216/216/216 215/215/215
f 196/196/196 197/197/197 217/217/217 216/216/216
f 197/197/197 198/198/198 218/218/218 217/217/217
f 198/198/198 199/199/199 219/219/219 218/218/218
f 199/199/199 200/200/200 220/220/220 219/219/219
f 200/200/200 181/182/182 201/202/202 220/220/220
f 201/202/202 202/201/201 222/221/221 221/222/222
f 202/201/201 203/203/203 223/223/223 222/221/221
f 203/203/203 204/204/204 224/224/224 223/223/223
f 204/204/204 205/205/205 225/225/225 224/224/224
f 205/205/205 206/206/206 226/226/226 225/225/225
f 206/206/206 207/397/207 227/396/227 226/226/226
f 207/207/207 208/208/208 228/228/228 227/227/227
f 208/208/208 209/209/209 229/229/229 228/228/228
f 209/209/209 210/210/210 230/230/230 229/229/229
f 210/210/210 211/211/211 231/231/231 230/230/230
f 211/211/211 212/212/212 232/232/232 231/231/231
f 212/212/212 213/213/213 233/233/233 232/232/232
f 213/213/213 214/214/214 234/234/234 233/233/233
f 214/214/214 215/215/215 235/235/235 234/234/234
f 215/215/215 216/216/216 236/236/236 235/235/235
f 216/216/216 217/217/217 237/237/237 236/236/236
f 217/217/217 218/218/218 238/238/238 237/237/237
f 218/218/218 219/219/219 239/239/239 238/238/238
f 219/219/219 220/220/220 240/240/240 239/239/239
f 220/220/220 201/202/202 221/222/222 240/240/240
f 221/222/222 222/221/221 242/241/241 241/242/242
f 222/221/221 223/223/223 243/243/243 242/241/241
f 223/223/223 224/224/224 244/244/244 243/243/243
f 224/224/224 225/225/225 245/245/245 244/244/244
f 225/225/225 226/226/226 246/246/246 245/245/245
f 226/226/226 227/396/227 247/395/247 246/246/246
f 227/227/227 228/228/228 248/248/248 247/247/247
f 228/228/228 229/229/229 249/249/249 248/248/248
f 229/229/229 230/230/230 250/250/250 249/249/249
f 230/230/230 231/231/231 251/251/251 250/250/250
f 231/231/231 232/232/232 252/252/252 251/251/251
f 232/232/232 233/233/233 253/253/253 252/252/252
f 233/233/233 234/234/234 254/254/254 253/253/253
f 234/234/234 235/235/235 255/255/255 254/254/254
f 235/235/235 236/236/236 256/256/256 255/255/255
f 236/236/236 237/237/237 257/257/257 256/256/256
f 237/237/237 238/238/238 258/258/258 257/257/257
f 238/238/238 239/239/239 259/259/259 258/258/258
f 239/239/239 240/240/240 260/260/260 259/259/259
f 240/240/240 221/222/222 241/242/242 260/260/260
f 241/242/242 242/241/241 262/261/261 261/262/262
f 242/241/241 243/243/243 263/263/263 262/261/261
f 243/243/243 244/244/244 264/264/264 263/263/263
f 244/244/244 245/245/245 265/265/265 264/264/264
f 245/245/245 246/246/246 266/266/266 265/265/265
f 246/246/246 247/395/247 267/394/267 266/266/266
f 247/247/247 248/248/248 268/268/268 267/267/267
f 248/248/248 249/249/249 269/269/269 268/268/268
f 249/249/249 250/250/250 270/270/270 269/269/269
f 250/250/250 251/251/251 271/271/271 270/270/270
f 251/251/251 252/252/252 272/272/272 271/271/271
f 252/252/252 253/253/253 273/273/273 272/272/272
f 253/253/253 254/254/254 274/274/274 273/273/273
f 254/254/254 255/255/255 275/275/275 274/274/274
f 255/255/255 256/256/256 276/276/276 275/275/275
f 256/256/256 257/257/257 277/277/277 276/276/276
f 257/257/257 258/258/258 278/278/278 277/277/277
f 258/258/258 259/259/259 279/279/279 278/278/278
f 259/259/259 260/260/260 280/280/280 279/279/279
f 260/260/260 241/242/242 261/262/262 280/280/280
f 261/262/262 262/261/261 282/281/281 281/282/282
f 262/261/261 263/263/263 283/283/283 282/281/281
f 263/263/263 264/264/264 284/284/284 283/283/283
f 264/264/264 265/265/265 285/285/285 284/284/284
f 265/265/265 266/266/266 286/286/286 285/285/285
f 266/266/266 267/394/267 287/393/287 286/286/286
f 267/267/267 268/268/268 288/288/288 287/287/287
f 268/268/268 269/269/269 289/289/289 288/288/288
f 269/269/269 270/270/270 290/290/290 289/289/289
f 270/270/270 271/271/271 291/291/291 290/290/290
f 271/271/271 272/272/272 292/292/292 291/291/291
f 272/272/272 273/273/273 293/293/293 292/292/292
f 273/273/273 274/274/274 294/294/294 293/293/293
f 274/274/274 275/275/275 295/295/295 294/294/294
f 275/275/275 276/276/276 296/296/296 295/295/295
f 276/276/276 277/277/277 297/392/297 296/296/296
f 277/277/277 278/278/278 298/298/298 297/297/297
f 278/278/278 279/279/279 299/299/299 298/298/298
f 279/279/279 280/280/280 300/300/300 299/299/299
f 280/280/280 261/262/262 281/282/282 300/300/300
f 281/282/282 282/281/281 302/301/301 301/302/302
f 282/281/281 283/283/283 303/303/303 302/301/301
f 283/283/283 284/284/284 304/304/304 303/303/303
f 284/284/284 285/285/285 305/305/305 304/304/304
f 285/285/285 286/286/286 306/306/306 305/305/305
f 286/286/286 287/393/287 307/391/307 306/306/306
f 287/287/287 288/288/288 308/308/308 307/307/307
f 288/288/288 289/289/289 309/309/309 308/308/308
f 289/289/289 290/290/290 310/310/310 309/309/309
f 290/290/290 291/291/291 311/311/311 310/310/310
f 291/291/291 292/292/292 312/312/312 311/311/311
f 292/292/292 293/293/293 313/313/313 312/312/312
f 293/293/293 294/294/294 314/314/314 313/313/313
f 294/294/294 295/295/295 315/315/315 314/314/314
f 295/295/295 296/296/296 316/316/316 315/315/315
f 296/296/296 297/392/297 317/390/317 316/316/316
f 297/297/297 298/298/298 318/318/318 317/317/317
f 298/298/298 299/299/299 319/319/319 318/318/318
f 299/299/299 300/300/300 320/320/320 319/319/319
f 300/300/300 281/282/282 301/302/302 320/320/320
f 301/302/302 302/301/301 322/321/321 321/322/322
f 302/301/301 303/303/303 323/323/323 322/321/321
f 303/303/303 304/304/304 324/324/324 323/323/323
f 304/304/304 305/305/305 325/325/325 324/324/324
f 305/305/305 306/306/306 326/326/326 325/325/325
f 306/306/306 307/391/307 327/389/327 326/326/326
f 307/307/307 308/308/308 328/328/328 327/327/327
f 308/308/308 309/309/309 329/329/329 328/328/328
f 309/309/309 310/310/310 330/330/330 329/329/329
f 310/310/310 311/311/311 331/331/331 330/330/330
f 311/311/311 312/312/312 332/332/332 331/331/331
f 312/312/312 313/313/313 333/333/333 332/332/332
f 313/313/313 314/314/314 334/334/334 333/333/333
f 314/314/314 315/315/315 335/335/335 334/334/334
f 315/315/315 316/316/316 336/336/336 335/335/335
f 316/316/316 317/390/317 337/388/337 336/336/336
f 317/317/317 318/318/318 338/338/338 337/337/337
f 318/318/318 319/319/319 339/339/339 338/338/338
f 319/319/319 320/320/320 340/340/340 339/339/339
f 320/320/320 301/302/302 321/322/322 340/340/340
f 321/322/322 322/321/321 342/341/341 341/342/342
f 322/321/321 323/323/323 343/343/343 342/341/341
f 323/323/323 324/324/324 344/344/344 343/343/343
f 324/324/324 325/325/325 345/345/345 344/344/344
f 325/325/325 326/326/326 346/346/346 345/345/345
f 326/326/326 327/389/327 347/387/347 346/346/346
f 327/327/327 328/328/328 348/348/348 347/347/347
f 328/328/328 329/329/329 349/349/349 348/348/348
f 329/329/329 330/330/330 350/350/350 349/349/349
f 330/330/330 331/331/331 351/351/351 350/350/350
f 331/331/331 332/332/332 352/352/352 351/351/351
f 332/332/332 333/333/333 353/353/353 352/352/352
f 333/333/333 334/334/334 354/354/354 353/353/353
f 334/334/334 335/335/335 355/355/355 354/354/354
f 335/335/335 336/336/336 356/356/356 355/355/355
f 336/336/336 337/388/337 357/386/357 356/356/356
f 337/337/337 338/338/338 358/358/358 357/357/357
f 338/338/338 339/339/339 359/359/359 358/358/358
f 339/339/339 340/340/340 360/360/360 359/359/359
f 340/340/340 321/322/322 341/342/342 360/360/360
f 341/342/342 342/341/341 362/361/361 361/362/362
f 342/341/341 343/343/343 363/363/363 362/361/361
f 343/343/343 344/344/344 364/364/364 363/363/363
f 344/344/344 345/345/345 365/365/365 364/364/364
f 345/345/345 346/346/346 366/366/366 365/365/365
f 346/346/346 347/387/347 367/385/367 366/366/366
f 347/347/347 348/348/348 368/368/368 367/367/367
f 348/348/348 349/349/349 369/369/369 368/368/368
f 349/349/349 350/350/350 370/370/370 369/369/369
f 350/350/350 351/351/351 371/371/371 370/370/370
f 351/351/351 352/352/352 372/372/372 371/371/371
f 352/352/352 353/353/353 373/373/373 372/372/372
f 353/353/353 354/354/354 374/374/374 373/373/373
f 354/354/354 355/355/355 375/375/375 374/374/374
f 355/355/355 356/356/356 376/376/376 375/375/375
f 356/356/356 357/386/357 377/383/377 376/376/376
f 357/357/357 358/358/358 378/378/378 377/377/377
f 358/358/358 359/359/359 379/379/379 378/378/378
f 359/359/359 360/360/360 380/380/380 379/379/379
f 360/360/360 341/342/342 361/362/362 380/380/380
f 2/2/2 1/1/1 381/381/381
f 3/5/5 2/2/2 381/381/381
f 4/7/7 3/5/5 381/381/381
f 5/9/9 4/7/7 381/381/381
f 6/11/11 5/9/9 381/381/381
f 7/13/13 6/11/11 381/381/381
f 8/15/15 7/13/13 381/381/381
f 9/17/17 8/15/15 381/381/381
f 10/19/19 9/17/17 381/381/381
f 11/21/21 10/19/19 381/381/381
f 12/23/23 11/21/21 381/381/381
f 13/25/25 12/23/23 381/381/381
f 14/27/27 13/25/25 381/381/381
f 15/29/29 14/27/27 381/381/381
f 16/31/31 15/29/29 381/381/381
f 17/33/33 16/31/31 381/381/381
f 18/35/35 17/33/33 381/381/381
f 19/37/37 18/35/35 381/381/381
f 20/39/39 19/37/37 381/381/381
f 1/1/1 20/39/39 381/381/381
f 361/362/362 362/361/361 382/382/382
f 362/361/361 363/363/363 382/382/382
f 363/363/363 364/364/364 382/382/382
f 364/364/364 365/365/365 382/382/382
f 365/365/365 366/366/366 382/382/382
f 366/366/366 367/385/367 382/382/382
f 367/367/367 368/368/368 382/384/382
f 368/368/368 369/369/369 382/384/382
f 369/369/369 370/370/370 382/384/382
f 370/370/370 371/371/371 382/384/382
f 371/371/371 372/372/372 382/384/382
f 372/372/372 373/373/373 382/384/382
f 373/373/373 374/374/374 382/384/382
f 374/374/374 375/375/375 382/384/382
f 375/375/375 376/376/376 382/384/382
f 376/376/376 377/383/377 382/384/382
f 377/377/377 378/378/378 382/382/382
f 378/378/378 379/379/379 382/382/382
f 379/379/379 380/380/380 382/382/382
f 380/380/380 361/362/362 382/382/382
