# This file uses centimeters as units for non-parametric coordinates.

mtllib moneysignage.mtl
g default
v -0.720855 0.964345 0.055343
v -0.720855 0.964345 0.157433
v -0.720855 1.133514 0.157433
v -0.720855 1.133514 0.055343
v -0.435222 0.964345 0.153845
v -0.435222 1.133514 0.153845
v -0.572661 1.133514 0.038243
v -0.572661 0.964345 0.038243
v -0.435222 1.133514 0.038243
v -0.435222 0.964345 0.038243
v -0.126094 -0.030931 0.052670
v 0.126094 -0.030931 0.052670
v -0.126094 1.154136 0.052670
v 0.126094 1.154136 0.052670
v -0.126094 1.154136 -0.052670
v 0.126094 1.154136 -0.052670
v -0.126094 -0.030931 -0.052670
v 0.126094 -0.030931 -0.052670
v -0.681739 0.729734 0.140333
v 0.681739 0.738787 0.140333
v -0.681739 1.544352 0.140333
v 0.714846 1.560179 0.140333
v -0.681739 1.544352 0.038243
v 0.714846 1.560179 0.038243
v -0.681739 0.729734 0.038243
v 0.681739 0.738787 0.038243
v -0.681739 1.324381 0.140333
v -0.681739 1.324381 0.038243
v 0.681739 1.302682 0.038243
v 0.681739 1.302682 0.140333
v -0.681739 0.955292 0.140333
v -0.681739 0.955292 0.038243
v 0.681739 0.964345 0.038243
v 0.681739 0.964345 0.140333
v -0.681739 1.146643 0.038243
v -0.681739 1.146643 0.140333
v 0.681739 1.133514 0.140333
v 0.681739 1.133514 0.038243
v -0.681739 1.202176 0.038243
v -0.681739 1.202176 0.140333
v 0.681739 1.167347 0.140333
v 0.681739 1.167347 0.038243
v -0.681739 1.399350 0.038243
v -0.681739 1.399350 0.140333
v 0.681739 1.399350 0.140333
v 0.681739 1.399350 0.038243
v 0.409043 0.738787 0.140333
v 0.114532 0.964345 0.153845
v 0.114532 1.133514 0.153845
v 0.409043 1.167347 0.140333
v 0.409043 1.302682 0.140333
v 0.409043 1.399350 0.140333
v 0.409043 1.544352 0.140333
v 0.409043 1.544352 0.038243
v 0.409043 1.399350 0.038243
v 0.409043 1.302682 0.038243
v 0.409043 1.167347 0.038243
v 0.409043 1.133514 0.038243
v 0.409043 0.964345 0.038243
v 0.409043 0.738787 0.038243
v -0.572661 0.738787 0.140333
v -0.435222 1.133514 0.153845
v -0.572661 1.167347 0.140333
v -0.572661 1.302682 0.140333
v -0.572661 1.399350 0.140333
v -0.572661 1.544352 0.140333
v -0.572661 1.544352 0.038243
v -0.572661 1.399350 0.038243
v -0.572661 1.302682 0.038243
v -0.572661 1.167347 0.038243
v -0.572661 1.133514 0.038243
v -0.572661 0.964345 0.038243
v -0.572661 0.738787 0.038243
v 0.714846 1.415177 0.140333
v 0.714846 1.415177 0.038243
v 0.114532 0.964345 0.140333
v 0.114532 0.738787 0.140333
v 0.114532 0.738787 0.038243
v 0.114532 0.964345 0.038243
v 0.114532 1.133514 0.038243
v 0.114532 1.167347 0.038243
v 0.114532 1.302682 0.038243
v 0.114532 1.399350 0.038243
v 0.114532 1.544352 0.038243
v 0.114532 1.544352 0.140333
v 0.114532 1.399350 0.140333
v 0.114532 1.302682 0.140333
v 0.114532 1.167347 0.140333
v 0.114532 1.133514 0.140333
v -0.435222 0.738787 0.140333
v -0.435222 0.964345 0.140333
v -0.435222 1.133514 0.140333
v -0.435222 1.167347 0.140333
v -0.435222 1.302682 0.140333
v -0.435222 1.399350 0.140333
v -0.435222 1.544352 0.140333
v -0.435222 1.544352 0.038243
v -0.435222 1.399350 0.038243
v -0.435222 1.302682 0.038243
v -0.435222 1.167347 0.038243
v -0.435222 1.133514 0.038243
v -0.435222 0.964345 0.038243
v -0.435222 0.738787 0.038243
v 0.114532 1.399350 0.164113
v 0.114532 1.302682 0.164113
v 0.409043 1.302682 0.164113
v 0.409043 1.399350 0.164113
v -0.435222 0.964345 0.153845
v -0.435222 0.964345 0.153845
v -0.435222 0.964345 0.153845
v -0.435222 0.964345 0.153845
v -0.435222 0.964345 0.153845
v -0.435222 0.964345 0.153845
v -0.435222 0.964345 0.153845
v -0.435222 0.964345 0.153845
v 0.114532 0.964345 0.153845
v 0.114532 0.964345 0.153845
v 0.114532 0.964345 0.153845
v 0.114532 0.964345 0.153845
v 0.114532 0.964345 0.153845
v 0.114532 0.964345 0.153845
v 0.114532 1.133514 0.153845
v 0.114532 1.133514 0.153845
v 0.114532 1.133514 0.153845
v 0.114532 1.133514 0.153845
v 0.114532 1.133514 0.153845
v 0.114532 1.133514 0.153845
v -0.435222 1.133514 0.153845
v -0.435222 1.133514 0.153845
v -0.435222 1.133514 0.153845
v -0.435222 1.133514 0.153845
v -0.435222 1.133514 0.153845
v -0.435222 1.133514 0.153845
v 0.114532 0.964345 0.140333
v 0.114532 0.964345 0.140333
v 0.114532 0.964345 0.140333
v 0.114532 0.964345 0.140333
v 0.114532 1.133514 0.140333
v 0.114532 1.133514 0.140333
v 0.114532 1.133514 0.140333
v 0.114532 1.133514 0.140333
v -0.435222 0.964345 0.140333
v -0.435222 0.964345 0.140333
v -0.435222 0.964345 0.140333
v -0.435222 0.964345 0.140333
v -0.435222 1.133514 0.140333
v -0.435222 1.133514 0.140333
v -0.435222 1.133514 0.140333
v -0.435222 1.133514 0.140333
vt 0.626607 0.404577
vt 0.659545 0.381009
vt 0.652186 0.433294
vt 0.636667 0.430249
vt 0.676480 0.507352
vt 0.612060 0.472087
vt 0.585931 0.408419
vt 0.565993 0.490216
vt 0.540442 0.430630
vt 0.804332 0.340267
vt 0.676768 0.374239
vt 0.447738 0.021456
vt 0.563706 0.137942
vt 0.604461 0.081979
vt 0.580891 0.121127
vt 0.932525 0.205242
vt 0.854983 0.323438
vt 0.413258 0.611666
vt 0.437373 0.605513
vt 0.367926 0.647228
vt 0.157903 0.426648
vt 0.170218 0.411214
vt 0.192420 0.427431
vt 0.174284 0.436998
vt 0.351338 0.618339
vt 0.327669 0.600660
vt 0.409324 0.578802
vt 0.399691 0.598914
vt 0.889475 0.021465
vt 0.570006 0.265483
vt 0.525801 0.225253
vt 0.953750 0.445058
vt 0.171229 0.463216
vt 0.145158 0.449732
vt 0.201088 0.459328
vt 0.129873 0.421645
vt 0.160695 0.499320
vt 0.122799 0.488705
vt 0.135944 0.461781
vt 0.166876 0.476392
vt 0.203000 0.483019
vt 0.197180 0.519692
vt 0.152229 0.027169
vt 0.481151 0.191100
vt 0.457369 0.166183
vt 0.182619 0.042684
vt 0.078975 0.464310
vt 0.109444 0.437862
vt 0.488815 0.196336
vt 0.145053 0.021640
vt 0.159765 0.510034
vt 0.122894 0.506064
vt 0.169284 0.587292
vt 0.189253 0.531109
vt 0.449474 0.149308
vt 0.479185 0.126776
vt 0.802822 0.021735
vt 0.105767 0.109570
vt 0.156030 0.118466
vt 0.378954 0.122184
vt 0.292935 0.149196
vt 0.251752 0.138086
vt 0.275038 0.034105
vt 0.292329 0.056493
vt 0.377439 0.193233
vt 0.355241 0.157316
vt 0.410835 0.234689
vt 0.419026 0.244287
vt 0.462695 0.283857
vt 0.527036 0.325414
vt 0.016458 0.021767
vt 0.092413 0.212687
vt 0.139066 0.213140
vt 0.170426 0.214065
vt 0.144947 0.209794
vt 0.162413 0.120456
vt 0.192462 0.122917
vt 0.224799 0.230013
vt 0.175585 0.217251
vt 0.259212 0.242269
vt 0.303211 0.265643
vt 0.328339 0.287597
vt 0.361444 0.320362
vt 0.369648 0.328235
vt 0.413638 0.363117
vt 0.479352 0.397452
vt 0.352693 0.033805
vt 0.330897 0.052855
vt 0.779150 0.373625
vt 0.412468 0.548849
vt 0.331081 0.537508
vt 0.267506 0.496717
vt 0.275306 0.505709
vt 0.244828 0.458670
vt 0.229766 0.432500
vt 0.200852 0.399766
vt 0.172821 0.386347
vt 0.128563 0.385568
vt 0.099259 0.391561
vt 0.057713 0.400212
vt 0.047380 0.405081
vt 0.967069 0.021966
vt 0.291779 0.646217
vt 0.080843 0.212763
vt 0.999690 0.775263
vt 0.341986 0.676131
vt 0.956082 0.023075
vt 0.041298 0.676559
vt 0.969476 0.021461
vt 0.965445 0.021461
vt 0.476631 0.495455
vt 0.519821 0.595767
vt 0.436394 0.694674
vt 0.548719 0.353853
vt 0.735880 0.468745
vt 0.650360 0.495208
vt 0.016556 0.095686
vt 0.959630 0.021352
vt 0.955600 0.021352
vt 0.709730 0.093116
vt 0.774220 0.445119
vt 0.076590 0.210771
vt 0.956600 0.502241
vt 0.650472 0.549191
vt 0.960630 0.502241
vt 0.056752 0.179027
vt 0.774332 0.498891
vt 0.475952 0.549214
vt 0.043386 0.407297
vt 0.967692 0.162779
vt 0.963661 0.162779
vt 0.000000 0.775391
vt 0.016458 0.432703
vt 0.953361 0.444868
vt 0.016612 0.095888
vt 0.960113 0.023075
vt 0.342080 0.676466
vt 0.081125 0.211311
vt 0.961112 0.502397
vt 0.957081 0.502397
vt 1.000000 0.775364
vt 0.519529 0.591209
vt 0.971100 0.021966
vt 0.778251 0.445117
vt 0.042367 0.676891
vt 0.046637 0.397952
vt 0.969329 0.162825
vt 0.965298 0.162825
vt 0.003568 0.775492
vt 0.449223 0.559644
vt 0.511920 0.409247
vt 0.953211 0.373082
vt 0.558511 0.338735
vt 0.113352 0.021465
vt 0.199070 0.120547
vt 0.378696 0.121947
vt 0.230556 0.021459
vt 0.325245 0.021526
vt 0.213058 0.045147
vt 0.456712 0.135872
vt 0.600546 0.265602
vt 0.509631 0.170628
vt 0.487639 0.149926
vt 0.516460 0.175331
vt 0.954683 0.498886
vt 0.554771 0.204404
vt 0.890716 0.093053
vt 0.699979 0.424841
vt 0.955191 0.161437
vn -1.000000 0.000000 0.000000
vn -1.000000 0.000000 0.000000
vn -1.000000 0.000000 0.000000
vn -1.000000 0.000000 0.000000
vn 0.012561 0.000000 0.999921
vn 0.012561 0.000000 0.999921
vn 0.012561 0.000000 0.999921
vn 0.012561 0.000000 0.999921
vn -0.114630 0.000000 -0.993408
vn -0.059761 0.000000 -0.998213
vn -0.059761 0.000000 -0.998213
vn -0.114630 0.000000 -0.993408
vn 0.000000 0.000000 -1.000000
vn 0.000000 0.000000 -1.000000
vn 0.000000 0.000000 1.000000
vn 0.000000 0.000000 1.000000
vn 0.000000 0.000000 1.000000
vn 0.000000 0.000000 1.000000
vn 0.000000 1.000000 0.000000
vn 0.000000 1.000000 0.000000
vn 0.000000 1.000000 0.000000
vn 0.000000 1.000000 0.000000
vn 0.000000 0.000000 -1.000000
vn 0.000000 0.000000 -1.000000
vn 0.000000 0.000000 -1.000000
vn 0.000000 0.000000 -1.000000
vn 0.000000 -1.000000 0.000000
vn 0.000000 -1.000000 0.000000
vn 0.000000 -1.000000 0.000000
vn 0.000000 -1.000000 0.000000
vn 1.000000 0.000000 0.000000
vn 1.000000 0.000000 0.000000
vn 1.000000 0.000000 0.000000
vn 1.000000 0.000000 0.000000
vn -1.000000 0.000000 0.000000
vn -1.000000 0.000000 0.000000
vn -1.000000 0.000000 0.000000
vn -1.000000 0.000000 0.000000
vn -0.037016 -0.018649 0.999141
vn -0.037016 -0.018649 0.999141
vn -0.037016 -0.018649 0.999141
vn -0.037016 -0.018649 0.999141
vn 0.000000 1.000000 0.000000
vn -0.000000 1.000000 0.000000
vn -0.000000 1.000000 0.000000
vn 0.000000 1.000000 0.000000
vn 0.000000 0.000000 -1.000000
vn 0.000000 0.000000 -1.000000
vn 0.000000 0.000000 -1.000000
vn 0.000000 0.000000 -1.000000
vn 0.082708 -0.996574 0.000000
vn 0.036698 -0.999326 0.000000
vn 0.036698 -0.999326 0.000000
vn 0.082708 -0.996574 0.000000
vn 1.000000 0.000000 0.000000
vn 1.000000 0.000000 0.000000
vn 1.000000 0.000000 0.000000
vn 1.000000 0.000000 0.000000
vn -1.000000 0.000000 0.000000
vn -1.000000 0.000000 0.000000
vn -1.000000 0.000000 0.000000
vn -1.000000 0.000000 0.000000
vn -1.000000 0.000000 0.000000
vn -1.000000 0.000000 0.000000
vn -1.000000 0.000000 0.000000
vn -1.000000 0.000000 0.000000
vn 0.000000 0.000000 -1.000000
vn 0.000000 0.000000 -1.000000
vn 0.000000 0.000000 -1.000000
vn 0.000000 0.000000 -1.000000
vn 0.000000 0.000000 1.000000
vn -0.000000 0.000000 1.000000
vn -0.000000 0.000000 1.000000
vn 0.000000 0.000000 1.000000
vn -1.000000 0.000000 0.000000
vn -1.000000 0.000000 0.000000
vn -1.000000 0.000000 0.000000
vn -1.000000 0.000000 0.000000
vn 0.000000 0.000000 -1.000000
vn 0.000000 0.000000 -1.000000
vn 0.000000 0.000000 -1.000000
vn 0.000000 0.000000 -1.000000
vn 1.000000 0.000000 0.000000
vn 1.000000 0.000000 0.000000
vn 1.000000 0.000000 0.000000
vn 1.000000 0.000000 0.000000
vn -0.005136 0.027059 0.999621
vn -0.005461 0.037063 0.999298
vn 0.000000 0.000000 1.000000
vn 0.000000 0.000000 1.000000
vn 1.000000 0.000000 0.000000
vn 1.000000 0.000000 0.000000
vn -1.000000 0.000000 0.000000
vn -1.000000 0.000000 0.000000
vn -0.022058 0.116211 0.992980
vn -0.022058 0.116211 0.992980
vn 0.000000 0.000000 -1.000000
vn 0.000000 0.000000 -1.000000
vn 1.000000 0.000000 0.000000
vn 1.000000 0.000000 0.000000
vn 0.016082 -0.019443 0.999682
vn 0.016082 -0.019443 0.999682
vn 0.016082 -0.019443 0.999682
vn 0.016082 -0.019443 0.999682
vn 0.023815 0.000000 0.999716
vn 0.023815 0.000000 0.999716
vn 0.023815 0.000000 0.999716
vn 0.023815 0.000000 0.999716
vn 0.004031 0.035363 0.999366
vn 0.015952 0.128571 0.991572
vn 0.015952 0.128571 0.991572
vn 0.004469 0.036020 0.999341
vn 0.000000 0.000000 1.000000
vn 0.000000 0.000000 1.000000
vn 0.000000 0.000000 1.000000
vn 0.000000 0.000000 1.000000
vn -0.026356 0.999653 0.000000
vn -0.026356 0.999653 0.000000
vn -0.051687 0.998663 0.000000
vn -0.051687 0.998663 0.000000
vn 0.000000 0.000000 -1.000000
vn 0.000000 0.000000 -1.000000
vn 0.000000 0.000000 -1.000000
vn 0.000000 0.000000 -1.000000
vn 0.000000 0.000000 -1.000000
vn 0.000000 0.000000 -1.000000
vn -0.000000 0.000000 -1.000000
vn 0.000000 0.000000 -1.000000
vn 0.000000 0.000000 -1.000000
vn 0.000000 0.000000 -1.000000
vn 0.000000 0.000000 -1.000000
vn 0.000000 0.000000 -1.000000
vn 0.000000 -1.000000 0.000000
vn 0.000000 -1.000000 0.000000
vn 0.000000 -1.000000 0.000000
vn 0.000000 -1.000000 0.000000
vn -0.045749 -0.059735 0.997165
vn -0.045749 -0.059735 0.997165
vn -0.045749 -0.059735 0.997165
vn -0.045749 -0.059735 0.997165
vn -1.000000 0.000000 0.000001
vn -1.000000 0.000000 0.000001
vn -1.000000 0.000000 0.000001
vn -1.000000 0.000000 0.000001
vn -0.001658 0.014433 0.999894
vn -0.042569 0.370545 0.927839
vn -0.042569 0.370545 0.927839
vn 0.000000 0.000000 1.000000
vn 0.000000 0.000000 1.000000
vn 0.000000 0.000000 1.000000
vn 0.000000 0.000000 1.000000
vn 0.000000 0.000000 1.000000
vn 0.000000 0.000000 1.000000
vn 0.000000 0.000000 1.000000
vn 0.000000 0.000000 1.000000
vn 0.000000 0.000000 1.000000
vn 0.000000 1.000000 0.000000
vn 0.000000 1.000000 0.000000
vn 0.000000 0.000000 -1.000000
vn 0.000000 0.000000 -1.000000
vn 0.000000 0.000000 -1.000000
vn 0.000000 0.000000 -1.000000
vn 0.000000 0.000000 -1.000000
vn 0.000000 0.000000 -1.000000
vn 0.000000 0.000000 -1.000000
vn 0.000000 0.000000 -1.000000
vn 0.000000 -1.000000 0.000000
vn 0.000000 -1.000000 0.000000
vn 0.000000 0.000000 1.000000
vn 0.000000 0.000000 1.000000
vn 0.000000 0.000000 1.000000
vn 0.000000 0.000000 1.000000
vn 0.000000 0.000000 -1.000000
vn 0.000000 0.000000 -1.000000
vn 0.000000 0.000000 -1.000000
vn 0.000000 0.000000 -1.000000
vn 1.000000 0.000000 0.000000
vn 1.000000 0.000000 0.000000
vn 1.000000 0.000000 0.000000
vn 1.000000 0.000000 0.000000
vn 0.000000 1.000000 0.000000
vn 0.000000 1.000000 0.000000
vn 0.000000 1.000000 0.000000
vn 0.000000 1.000000 0.000000
vn 0.051687 -0.998663 0.000000
vn 0.051687 -0.998663 0.000000
vn 0.051687 -0.998663 0.000000
vn 0.051687 -0.998663 0.000000
vn 0.097668 -0.059512 0.993438
vn 0.097668 -0.059512 0.993438
vn 0.097668 -0.059512 0.993438
vn 0.097668 -0.059512 0.993438
vn 0.000000 -1.000000 0.000000
vn 0.000000 -1.000000 0.000000
vn -0.000000 0.000000 -1.000000
vn -0.000000 0.000000 -1.000000
vn 0.000000 0.000000 -1.000000
vn 0.000000 0.000000 -1.000000
vn 0.000000 0.000000 -1.000000
vn 0.000000 0.000000 -1.000000
vn 0.000000 0.000000 -1.000000
vn -0.000000 1.000000 0.000000
vn -0.000000 1.000000 0.000000
vn 0.000000 0.000000 1.000000
vn 0.000000 0.000000 1.000000
vn 0.000000 0.000000 1.000000
vn 0.002006 0.008150 0.999965
vn 0.090923 0.369345 0.924834
vn 0.090923 0.369345 0.924834
vn 1.000000 0.000000 -0.000001
vn 1.000000 0.000000 -0.000001
vn 1.000000 0.000000 -0.000001
vn 1.000000 0.000000 -0.000001
vn 0.000000 0.000000 1.000000
vn 0.000000 0.000000 1.000000
vn 0.000000 0.000000 1.000000
vn 0.000000 0.000000 1.000000
vn 0.000000 0.000000 1.000000
vn 0.000000 0.000000 1.000000
vn 0.000000 0.000000 1.000000
vn 0.000000 0.000000 1.000000
vn 0.000000 0.000000 1.000000
vn 0.000000 0.000000 1.000000
vn -1.000000 -0.000000 0.000001
vn -1.000000 -0.000000 0.000001
vn -1.000000 -0.000000 0.000001
vn -1.000000 -0.000000 0.000001
vn 0.000000 -1.000000 0.000004
vn 0.000000 -1.000000 0.000004
vn 0.000000 -1.000000 0.000004
vn 0.000000 -1.000000 0.000004
vn 1.000000 0.000000 -0.000001
vn 1.000000 0.000000 -0.000001
vn 1.000000 0.000000 -0.000001
vn 1.000000 0.000000 -0.000001
vn 0.000000 1.000000 0.000001
vn 0.000000 1.000000 0.000001
vn 0.000000 1.000000 0.000001
vn 0.000000 1.000000 0.000001
vn 0.000000 1.000000 -0.000001
vn 0.000000 1.000000 -0.000001
vn 0.000000 1.000000 -0.000001
vn 0.000000 1.000000 -0.000001
vn -1.000000 0.000000 0.000000
vn -1.000000 0.000000 0.000000
vn -1.000000 0.000000 0.000000
vn -1.000000 0.000000 0.000000
vn 0.000000 -1.000000 0.000000
vn 0.000000 -1.000000 0.000000
vn 0.000000 -1.000000 0.000000
vn 0.000000 -1.000000 0.000000
vn 1.000000 0.000000 0.000000
vn 1.000000 0.000000 0.000000
vn 1.000000 0.000000 0.000000
vn 1.000000 0.000000 0.000000
vn 0.000000 1.000000 0.000000
vn 0.000000 1.000000 0.000000
vn 0.000000 1.000000 0.000000
vn 0.000000 1.000000 0.000000
vn -0.075358 -0.996021 0.047576
vn -0.075358 -0.996021 0.047576
vn -0.075358 -0.996021 0.047576
vn -0.075358 -0.996021 0.047576
vn -0.000000 -1.000000 0.000001
vn -0.000000 -1.000000 0.000001
vn -0.000000 -1.000000 0.000001
vn -0.000000 -1.000000 0.000001
vn -0.052068 0.998102 0.032873
vn -0.052068 0.998102 0.032873
vn -0.052068 0.998102 0.032873
vn -0.052068 0.998102 0.032873
s off
g pCube4
usemtl initialShadingGroup
f 1/1/1 2/2/2 3/3/3 4/4/4
f 2/2/5 115/115/6 6/5/7 3/3/8
s 1
f 4/4/9 7/6/10 8/7/11 1/1/12
f 8/7/11 7/6/10 9/8/13 10/9/14
s off
f 11/10/15 12/11/16 14/12/17 13/13/18
f 13/13/19 14/12/20 16/14/21 15/15/22
f 15/15/23 16/14/24 18/16/25 17/17/26
f 17/17/27 18/168/28 12/11/29 11/10/30
f 12/169/31 18/16/32 16/14/33 14/12/34
f 17/17/35 11/10/36 13/13/37 15/15/38
f 19/18/39 61/19/40 114/113/41 31/20/42
s 2
f 21/21/43 66/22/44 67/23/45 23/24/46
s 3
f 32/25/47 72/26/48 73/27/49 25/28/50
s 4
f 25/28/51 73/27/52 61/19/53 19/18/54
s 5
f 20/161/55 26/30/56 33/31/57 34/166/58
s off
f 25/28/59 19/18/60 31/20/61 32/25/62
s 6
f 43/33/63 44/34/64 21/21/65 23/24/66
s 3
f 23/24/67 67/23/68 68/35/69 43/33/70
s 8
f 44/34/71 65/36/72 66/22/73 21/21/74
s 6
f 39/37/75 40/38/76 27/39/77 28/40/78
s 3
f 28/40/79 69/41/80 70/42/81 39/37/82
s 5
f 41/162/83 42/44/84 29/45/85 30/163/86
s 8
f 40/38/87 63/47/88 64/48/89 27/39/90
s 5
f 34/166/58 33/31/57 38/49/91 37/164/92
s 6
f 35/51/93 36/52/94 40/38/76 39/37/75
s 8
f 36/52/95 130/133/96 63/47/88 40/38/87
s 5
f 37/164/92 38/49/91 42/44/84 41/162/83
s 3
f 39/37/82 70/42/81 71/54/97 35/51/98
s 6
f 28/40/78 27/39/77 44/34/64 43/33/63
s 8
f 27/39/90 64/48/89 65/36/72 44/34/71
s 5
f 30/163/86 29/45/85 46/55/99 45/56/100
s 3
f 43/33/70 68/35/69 69/41/80 28/40/79
s off
f 121/120/101 47/57/102 20/29/103 34/167/104
f 127/127/105 118/121/106 34/32/107 37/165/108
s 8
f 50/58/109 126/126/110 37/50/111 41/43/112
f 51/59/113 50/58/109 41/43/112 30/46/114
f 52/155/115 51/59/113 30/46/114 45/159/116
s 2
f 54/61/117 53/62/118 22/63/119 24/64/120
s 3
f 56/65/121 55/66/122 46/55/123 29/45/124
f 57/67/125 56/65/121 29/45/124 42/44/126
f 58/68/127 57/67/125 42/44/126 38/49/128
f 59/69/129 58/68/127 38/49/128 33/31/130
f 60/70/131 59/69/129 33/31/130 26/30/132
s 4
f 47/153/133 60/70/134 26/30/135 20/161/136
s off
f 135/135/137 77/71/138 47/154/139 120/117/140
f 139/140/141 76/107/142 117/119/143 125/123/144
s 8
f 88/72/145 141/138/146 123/122/147 50/58/109
f 87/73/148 88/72/145 50/58/109 51/59/113
s off
f 104/74/149 105/75/150 106/76/151 107/77/152
s 8
f 85/78/153 86/79/154 52/155/155 53/62/156
s 2
f 84/80/157 85/78/158 53/62/118 54/61/117
s 3
f 83/81/159 84/80/160 54/61/161 55/66/122
f 82/82/162 83/81/159 55/66/122 56/65/121
f 81/83/163 82/82/162 56/65/121 57/67/125
f 80/84/164 81/83/163 57/67/125 58/68/127
f 79/85/165 80/84/164 58/68/127 59/69/129
f 78/86/166 79/85/165 59/69/129 60/70/131
s 4
f 77/151/167 78/86/168 60/70/134 47/153/133
s off
f 53/62/169 52/155/170 74/157/171 22/63/172
f 55/66/173 54/61/174 24/64/175 75/88/176
f 74/158/177 75/88/178 24/64/179 22/63/180
f 45/160/181 46/55/182 55/66/183 52/60/184
f 75/88/185 74/87/186 52/156/187 55/66/188
f 111/112/189 61/19/190 90/150/191 143/142/192
s 4
f 61/19/53 73/27/52 103/90/193 90/150/194
s 3
f 73/27/49 72/26/48 102/91/195 103/90/196
f 71/54/97 70/42/81 100/92/197 101/93/198
f 70/42/81 69/41/80 99/94/199 100/92/197
f 69/41/80 68/35/69 98/95/200 99/94/199
f 68/35/69 67/23/68 97/96/201 98/95/200
s 2
f 67/23/45 66/22/44 96/97/202 97/96/203
s 8
f 66/22/73 65/36/72 95/98/204 96/97/205
f 65/36/72 64/48/89 94/99/206 95/98/204
f 64/48/89 63/47/88 93/100/207 94/99/206
f 63/47/88 131/129/208 92/101/209 93/100/207
s off
f 133/131/210 113/110/211 91/102/212 147/148/213
f 144/144/214 90/89/215 77/152/216 136/134/217
f 129/128/218 110/111/219 116/116/220 122/124/221
s 8
f 93/100/207 146/146/222 89/104/223 88/72/145
f 94/99/206 93/100/207 88/72/145 87/73/148
f 95/98/204 94/99/206 87/73/148 86/79/154
f 96/97/205 95/98/204 86/79/154 85/78/153
s 2
f 97/96/203 96/97/202 85/78/158 84/80/157
s 3
f 98/95/200 97/96/201 84/80/160 83/81/159
f 99/94/199 98/95/200 83/81/159 82/82/162
f 100/92/197 99/94/199 82/82/162 81/83/163
f 101/93/198 100/92/197 81/83/163 80/84/164
f 102/91/195 101/93/198 80/84/164 79/85/165
f 103/90/196 102/91/195 79/85/165 78/86/166
s 4
f 90/150/194 103/90/193 78/86/168 77/151/167
s off
f 148/147/224 142/143/225 112/109/226 132/130/227
f 145/145/228 137/137/229 48/106/230 109/108/231
f 134/136/232 140/139/233 124/125/234 119/118/235
f 138/141/236 149/149/237 128/132/238 49/105/239
f 4/4/240 3/3/241 6/5/242 7/6/243
f 86/79/244 87/73/245 105/75/246 104/74/247
f 87/73/248 51/59/249 106/76/250 105/75/251
f 51/59/252 52/155/253 107/77/254 106/76/255
f 52/155/256 86/79/257 104/74/258 107/77/259
f 62/53/260 36/52/261 35/51/262 71/54/263
f 108/114/264 2/2/265 1/1/266 8/7/267
f 72/26/268 32/25/269 31/20/270 5/103/271
