# This file uses centimeters as units for non-parametric coordinates.

mtllib SandwichTop.mtl
g default
v 0.334692 -0.049758 -0.219951
v 0.393454 -0.049758 -0.115635
v 0.243168 -0.049758 -0.302737
v 0.413702 -0.049758 -0.000000
v 0.318583 -0.094646 -0.209365
v 0.374516 -0.094646 -0.110070
v 0.127841 -0.049758 -0.355889
v 0.231464 -0.094646 -0.288166
v 0.393454 -0.049758 0.115635
v 0.393790 -0.094646 -0.000000
v 0.293492 -0.130269 -0.192876
v 0.345020 -0.130269 -0.101401
v 0.000000 -0.049758 -0.374204
v 0.121688 -0.094646 -0.338759
v 0.213234 -0.130269 -0.265471
v 0.334692 -0.049758 0.219951
v 0.374516 -0.094646 0.110069
v 0.362776 -0.130269 -0.000000
v 0.261875 -0.153140 -0.172098
v 0.307853 -0.153140 -0.090477
v -0.127841 -0.049758 -0.355889
v 0.000000 -0.094646 -0.356193
v 0.112104 -0.130269 -0.312079
v 0.190264 -0.153140 -0.236873
v 0.243168 -0.049758 0.302737
v 0.318582 -0.094646 0.209365
v 0.345020 -0.130269 0.101401
v 0.323696 -0.153140 -0.000000
v 0.226828 -0.163652 -0.149066
v 0.266653 -0.163652 -0.078369
v -0.243168 -0.049758 -0.302737
v -0.121688 -0.094646 -0.338759
v 0.000000 -0.130269 -0.328140
v 0.100027 -0.153140 -0.278461
v 0.164800 -0.163652 -0.205172
v 0.127841 -0.049758 0.355889
v 0.231464 -0.094646 0.288166
v 0.293492 -0.130269 0.192876
v 0.307853 -0.153140 0.090477
v 0.280375 -0.163652 0.000000
v 0.188093 -0.161599 -0.123951
v 0.221273 -0.161599 -0.065165
v -0.334692 -0.049758 -0.219951
v -0.231464 -0.094646 -0.288166
v -0.112104 -0.130269 -0.312079
v 0.000000 -0.153140 -0.292791
v 0.086641 -0.163652 -0.241194
v 0.136415 -0.161599 -0.170603
v -0.000000 -0.049758 0.374203
v 0.121688 -0.094646 0.338759
v 0.213234 -0.130269 0.265470
v 0.261875 -0.153140 0.172098
v 0.266653 -0.163652 0.078369
v 0.232706 -0.161599 0.000000
v -0.393454 -0.049758 -0.115635
v -0.318583 -0.094646 -0.209365
v -0.213234 -0.130269 -0.265470
v -0.100027 -0.153140 -0.278461
v 0.000000 -0.163652 -0.253606
v 0.071296 -0.161599 -0.200557
v -0.127841 -0.049758 0.355889
v -0.000000 -0.094646 0.356192
v 0.112104 -0.130269 0.312079
v 0.190264 -0.153140 0.236873
v 0.226828 -0.163652 0.149066
v 0.221273 -0.161599 0.065165
v -0.413702 -0.049758 -0.000000
v -0.374516 -0.094646 -0.110070
v -0.293492 -0.130269 -0.192876
v -0.190264 -0.153140 -0.236873
v -0.086641 -0.163652 -0.241194
v 0.000000 -0.161599 -0.210878
v -0.243168 -0.049758 0.302737
v -0.121688 -0.094646 0.338759
v -0.000000 -0.130269 0.328139
v 0.100027 -0.153140 0.278461
v 0.164800 -0.163652 0.205172
v 0.188093 -0.161599 0.123951
v -0.393454 -0.049758 0.115635
v -0.393790 -0.094646 -0.000000
v -0.345020 -0.130269 -0.101401
v -0.261875 -0.153140 -0.172098
v -0.164800 -0.163652 -0.205172
v -0.071296 -0.161599 -0.200557
v -0.334692 -0.049758 0.219951
v -0.231464 -0.094646 0.288166
v -0.112104 -0.130269 0.312079
v -0.000000 -0.153140 0.292791
v 0.086641 -0.163652 0.241194
v 0.136415 -0.161599 0.170603
v -0.374516 -0.094646 0.110070
v -0.362776 -0.130269 -0.000000
v -0.307853 -0.153140 -0.090477
v -0.226828 -0.163652 -0.149066
v -0.136415 -0.161599 -0.170603
v -0.318582 -0.094646 0.209365
v -0.213234 -0.130269 0.265470
v -0.100027 -0.153140 0.278461
v -0.000000 -0.163652 0.253606
v 0.071296 -0.161599 0.200557
v -0.345020 -0.130269 0.101401
v -0.323696 -0.153140 -0.000000
v -0.266653 -0.163652 -0.078369
v -0.188093 -0.161599 -0.123951
v -0.293492 -0.130269 0.192876
v -0.190264 -0.153140 0.236873
v -0.086641 -0.163652 0.241194
v -0.000000 -0.161599 0.210878
v -0.307853 -0.153140 0.090477
v -0.280375 -0.163652 0.000000
v -0.221273 -0.161599 -0.065165
v -0.261875 -0.153140 0.172098
v -0.164801 -0.163652 0.205172
v -0.071296 -0.161599 0.200557
v -0.266653 -0.163652 0.078369
v -0.232706 -0.161599 0.000000
v -0.226828 -0.163652 0.149066
v -0.136415 -0.161599 0.170603
v -0.221273 -0.161599 0.065165
v -0.188093 -0.161599 0.123951
v 0.000000 -0.001042 -0.253477
v 0.086596 -0.001042 -0.241070
v 0.164716 -0.001042 -0.205067
v 0.226712 -0.001042 -0.148990
v 0.266516 -0.001042 -0.078329
v 0.280232 -0.001042 0.000000
v 0.266516 -0.001042 0.078329
v 0.226712 -0.001042 0.148990
v 0.164716 -0.001042 0.205067
v 0.086596 -0.001042 0.241070
v -0.000000 -0.001042 0.253476
v -0.086596 -0.001042 0.241070
v -0.164716 -0.001042 0.205067
v -0.226712 -0.001042 0.148990
v -0.266516 -0.001042 0.078329
v -0.280232 -0.001042 0.000000
v -0.266516 -0.001042 -0.078329
v -0.226712 -0.001042 -0.148990
v -0.164716 -0.001042 -0.205067
v -0.086596 -0.001042 -0.241070
v 0.336820 -0.030269 -0.221350
v 0.332657 -0.009895 -0.218614
v 0.318925 -0.001042 -0.209590
v 0.395955 -0.030269 -0.116370
v 0.391062 -0.009895 -0.114932
v 0.374919 -0.001042 -0.110188
v 0.244714 -0.030269 -0.304662
v 0.241690 -0.009895 -0.300897
v 0.231713 -0.001042 -0.288476
v 0.416332 -0.030269 -0.000000
v 0.411187 -0.009895 -0.000000
v 0.394213 -0.001042 -0.000000
v 0.128654 -0.030269 -0.358151
v 0.127064 -0.009895 -0.353725
v 0.121819 -0.001042 -0.339123
v 0.395955 -0.030269 0.116370
v 0.391062 -0.009895 0.114932
v 0.374919 -0.001042 0.110188
v 0.000000 -0.030269 -0.376582
v 0.000000 -0.009895 -0.371929
v 0.000000 -0.001042 -0.356576
v 0.336819 -0.030269 0.221350
v 0.332657 -0.009895 0.218614
v 0.318925 -0.001042 0.209590
v -0.128654 -0.030269 -0.358151
v -0.127064 -0.009895 -0.353725
v -0.121819 -0.001042 -0.339123
v 0.244714 -0.030269 0.304661
v 0.241689 -0.009895 0.300896
v 0.231713 -0.001042 0.288476
v -0.244714 -0.030269 -0.304662
v -0.241690 -0.009895 -0.300896
v -0.231713 -0.001042 -0.288476
v 0.128654 -0.030269 0.358151
v 0.127064 -0.009895 0.353725
v 0.121818 -0.001042 0.339123
v -0.336819 -0.030269 -0.221350
v -0.332657 -0.009895 -0.218614
v -0.318925 -0.001042 -0.209590
v -0.000000 -0.030269 0.376582
v -0.000000 -0.009895 0.371928
v -0.000000 -0.001042 0.356575
v -0.395955 -0.030269 -0.116370
v -0.391062 -0.009895 -0.114932
v -0.374919 -0.001042 -0.110188
v -0.128654 -0.030269 0.358151
v -0.127064 -0.009895 0.353725
v -0.121819 -0.001042 0.339123
v -0.416332 -0.030269 -0.000000
v -0.411187 -0.009895 -0.000000
v -0.394213 -0.001042 -0.000000
v -0.244714 -0.030269 0.304662
v -0.241689 -0.009895 0.300896
v -0.231713 -0.001042 0.288476
v -0.395955 -0.030269 0.116370
v -0.391062 -0.009895 0.114932
v -0.374919 -0.001042 0.110188
v -0.336819 -0.030269 0.221350
v -0.332657 -0.009895 0.218614
v -0.318925 -0.001042 0.209590
vt 0.616047 0.224540
vt 0.648646 0.302612
vt 0.620674 0.315615
vt 0.584033 0.246303
vt 0.505458 0.203458
vt 0.511026 0.157274
vt 0.665297 0.379527
vt 0.640479 0.388599
vt 0.597020 0.333631
vt 0.560845 0.275706
vt 0.412784 0.246530
vt 0.388532 0.215163
vt 0.499451 0.246792
vt 0.678441 0.453879
vt 0.654623 0.461928
vt 0.618229 0.400433
vt 0.577220 0.354968
vt 0.543577 0.307666
vt 0.366484 0.322471
vt 0.341062 0.302373
vt 0.429056 0.280199
vt 0.494532 0.287622
vt 0.689704 0.529714
vt 0.665191 0.536426
vt 0.632709 0.470320
vt 0.598582 0.414323
vt 0.560415 0.379128
vt 0.529989 0.341412
vt 0.341910 0.406425
vt 0.318257 0.394928
vt 0.387328 0.345332
vt 0.440472 0.314038
vt 0.490560 0.327419
vt 0.697794 0.608082
vt 0.671194 0.612857
vt 0.642194 0.541806
vt 0.612832 0.479008
vt 0.581069 0.430123
vt 0.545377 0.407906
vt 0.517897 0.379391
vt 0.322751 0.487160
vt 0.299385 0.479279
vt 0.362933 0.420189
vt 0.404365 0.369248
vt 0.449204 0.348270
vt 0.486414 0.370081
vt 0.699237 0.690559
vt 0.669380 0.691797
vt 0.645996 0.614720
vt 0.620990 0.546099
vt 0.594467 0.488073
vt 0.564519 0.449030
vt 0.306416 0.563525
vt 0.282198 0.557735
vt 0.344284 0.495243
vt 0.381384 0.435094
vt 0.419059 0.394239
vt 0.456797 0.386026
vt 0.685353 0.779317
vt 0.650852 0.772360
vt 0.641495 0.688550
vt 0.622649 0.614323
vt 0.600989 0.549387
vt 0.576161 0.498131
vt 0.296423 0.636998
vt 0.270321 0.632753
vt 0.329160 0.567722
vt 0.363865 0.503331
vt 0.398102 0.451110
vt 0.433472 0.422093
vt 0.629003 0.862541
vt 0.595390 0.845806
vt 0.621154 0.760720
vt 0.616148 0.682177
vt 0.600496 0.611907
vt 0.580434 0.551583
vt 0.296770 0.708873
vt 0.268418 0.706059
vt 0.321257 0.638035
vt 0.350157 0.570508
vt 0.382167 0.511857
vt 0.414751 0.468898
vt 0.473555 0.923216
vt 0.476467 0.889798
vt 0.570937 0.823835
vt 0.595881 0.746182
vt 0.592535 0.673278
vt 0.577559 0.607189
vt 0.314643 0.779796
vt 0.280886 0.783233
vt 0.324229 0.706317
vt 0.344453 0.636311
vt 0.369925 0.572255
vt 0.400803 0.522138
vt 0.330598 0.858070
vt 0.366861 0.847073
vt 0.479959 0.857085
vt 0.552539 0.799549
vt 0.573459 0.729355
vt 0.568434 0.661793
vt 0.344793 0.770638
vt 0.349874 0.699544
vt 0.366441 0.632087
vt 0.390132 0.573137
vt 0.394307 0.827575
vt 0.482901 0.825208
vt 0.537600 0.773615
vt 0.551380 0.709398
vt 0.371300 0.756961
vt 0.373874 0.689060
vt 0.388882 0.624535
vt 0.415603 0.804097
vt 0.485243 0.793404
vt 0.523909 0.743955
vt 0.394966 0.739311
vt 0.397799 0.673772
vt 0.432985 0.777832
vt 0.487766 0.758843
vt 0.417699 0.716289
vt 0.448952 0.747165
vt 0.631840 0.219162
vt 0.660837 0.299181
vt 0.512922 0.138647
vt 0.675569 0.376883
vt 0.372989 0.207232
vt 0.688324 0.451059
vt 0.329561 0.296630
vt 0.699678 0.526810
vt 0.308264 0.391248
vt 0.708439 0.605187
vt 0.289828 0.476155
vt 0.711208 0.688177
vt 0.272470 0.554763
vt 0.700017 0.779292
vt 0.259927 0.629816
vt 0.646025 0.865981
vt 0.257424 0.703105
vt 0.472294 0.936540
vt 0.266920 0.783833
vt 0.313008 0.859040
vt 0.728117 0.773564
vt 0.734008 0.681552
vt 0.830370 0.584437
vt 0.869395 0.620703
vt 0.729018 0.599118
vt 0.803776 0.539305
vt 0.719479 0.521666
vt 0.792219 0.489726
vt 0.708423 0.446713
vt 0.796828 0.440551
vt 0.696710 0.372809
vt 0.817153 0.396596
vt 0.686487 0.294920
vt 0.851204 0.362162
vt 0.668027 0.213410
vt 0.797320 0.241198
vt 0.420080 0.119592
vt 0.946135 0.334078
vt 0.336357 0.198374
vt 0.215628 0.225478
vt 0.304879 0.290511
vt 0.136752 0.363368
vt 0.288428 0.384962
vt 0.171533 0.401991
vt 0.271376 0.468975
vt 0.193465 0.448151
vt 0.253781 0.546793
vt 0.200400 0.497332
vt 0.239691 0.621344
vt 0.191661 0.544717
vt 0.235408 0.694342
vt 0.168101 0.585670
vt 0.239027 0.772510
vt 0.132029 0.616181
vt 0.274099 0.854980
vt 0.086973 0.633264
vt 0.580842 0.944572
vt 0.968621 0.653652
vt 0.686251 0.864552
vt 0.917034 0.644553
vt 0.650503 0.215074
vt 0.674265 0.296360
vt 0.686637 0.374330
vt 0.464203 0.125839
vt 0.698977 0.448482
vt 0.354054 0.201297
vt 0.710313 0.523856
vt 0.316326 0.292633
vt 0.719665 0.601899
vt 0.297524 0.387657
vt 0.723786 0.684942
vt 0.279764 0.472535
vt 0.715387 0.776954
vt 0.262300 0.550955
vt 0.666979 0.866585
vt 0.249036 0.625835
vt 0.411074 0.939891
vt 0.245692 0.699215
vt 0.292642 0.858073
vt 0.251869 0.778424
vt 0.101226 0.835064
vt 0.043184 0.322752
vt 0.358750 0.939626
vt 0.612322 0.124250
vt 0.530059 0.943490
vt 0.566118 0.129449
vt 0.236778 0.377056
vt 0.234399 0.304005
vt 0.228989 0.448048
vt 0.214286 0.517344
vt 0.195421 0.586049
vt 0.174752 0.654942
vt 0.158591 0.726233
vt 0.141524 0.794335
vt 0.037346 0.635246
vt 0.765619 0.503204
vt 0.758760 0.435271
vt 0.758209 0.368995
vt 0.767801 0.304689
vt 0.895648 0.340619
vt 0.167637 0.147300
vt 0.861062 0.185266
vt 0.092526 0.336064
vt 0.843888 0.874631
vt 0.811765 0.804689
vt 0.795604 0.726596
vt 0.786061 0.648581
vt 0.775459 0.574151
vn 0.741202 -0.315350 -0.592599
vn 0.891266 -0.322666 -0.318641
vn 0.804465 -0.519123 -0.288700
vn 0.671061 -0.509608 -0.538495
vn 0.476415 -0.498520 -0.724228
vn 0.524346 -0.306910 -0.794272
vn 0.945512 -0.325586 0.000001
vn 0.852397 -0.522896 0.000001
vn 0.621844 -0.750487 -0.223783
vn 0.522090 -0.742255 -0.420095
vn 0.246021 -0.490046 -0.836259
vn 0.270040 -0.300521 -0.914749
vn 0.373460 -0.732463 -0.569233
vn 0.891265 -0.322666 0.318642
vn 0.804465 -0.519122 0.288701
vn 0.657208 -0.753709 0.000001
vn 0.377117 -0.916079 -0.136319
vn 0.318326 -0.912398 -0.257289
vn -0.000000 -0.486918 -0.873448
vn -0.000000 -0.298177 -0.954511
vn 0.193971 -0.724831 -0.661057
vn 0.229166 -0.907945 -0.350882
vn 0.741202 -0.315350 0.592599
vn 0.671061 -0.509607 0.538496
vn 0.621845 -0.750487 0.223783
vn 0.397728 -0.917503 0.000000
vn 0.112773 -0.992756 -0.041459
vn 0.094716 -0.992453 -0.077889
vn -0.246021 -0.490046 -0.836258
vn -0.270040 -0.300521 -0.914749
vn -0.000000 -0.721980 -0.691914
vn 0.119622 -0.904417 -0.409537
vn 0.067800 -0.992086 -0.105682
vn 0.524346 -0.306910 0.794272
vn 0.476415 -0.498520 0.724228
vn 0.522090 -0.742254 0.420096
vn 0.377117 -0.916079 0.136319
vn 0.119175 -0.992873 0.000000
vn -0.040838 -0.999054 0.014959
vn -0.034574 -0.999000 0.028333
vn -0.476415 -0.498520 -0.724228
vn -0.524346 -0.306910 -0.794272
vn -0.193971 -0.724831 -0.661057
vn -0.000000 -0.903086 -0.429459
vn 0.035293 -0.991756 -0.123182
vn -0.024978 -0.998934 0.038822
vn 0.270040 -0.300521 0.914749
vn 0.246021 -0.490046 0.836259
vn 0.373460 -0.732462 0.569233
vn 0.318326 -0.912398 0.257290
vn 0.112773 -0.992755 0.041459
vn -0.043020 -0.999074 -0.000000
vn -0.671061 -0.509607 -0.538495
vn -0.741203 -0.315350 -0.592599
vn -0.373460 -0.732463 -0.569233
vn -0.119622 -0.904417 -0.409537
vn -0.000000 -0.991603 -0.129323
vn -0.013112 -0.998875 0.045568
vn 0.000000 -0.298177 0.954511
vn 0.000000 -0.486918 0.873448
vn 0.193971 -0.724830 0.661057
vn 0.229167 -0.907945 0.350882
vn 0.094717 -0.992453 0.077889
vn -0.040838 -0.999054 -0.014959
vn -0.804465 -0.519122 -0.288701
vn -0.891266 -0.322665 -0.318642
vn -0.522090 -0.742255 -0.420095
vn -0.229167 -0.907945 -0.350882
vn -0.035293 -0.991756 -0.123181
vn 0.000000 -0.998851 0.047930
vn -0.270040 -0.300522 0.914749
vn -0.246021 -0.490046 0.836259
vn 0.000000 -0.721980 0.691914
vn 0.119622 -0.904417 0.409537
vn 0.067800 -0.992086 0.105682
vn -0.034574 -0.999000 -0.028333
vn -0.852397 -0.522895 0.000000
vn -0.945513 -0.325585 -0.000000
vn -0.621844 -0.750487 -0.223783
vn -0.318326 -0.912398 -0.257289
vn -0.067800 -0.992086 -0.105682
vn 0.013112 -0.998875 0.045568
vn -0.524346 -0.306910 0.794272
vn -0.476415 -0.498520 0.724228
vn -0.193971 -0.724830 0.661057
vn 0.000000 -0.903086 0.429459
vn 0.035293 -0.991756 0.123182
vn -0.024978 -0.998934 -0.038822
vn -0.804465 -0.519122 0.288701
vn -0.891266 -0.322665 0.318642
vn -0.657208 -0.753709 -0.000000
vn -0.377117 -0.916079 -0.136319
vn -0.094717 -0.992453 -0.077889
vn 0.024978 -0.998934 0.038822
vn -0.741202 -0.315350 0.592599
vn -0.671061 -0.509607 0.538496
vn -0.373460 -0.732462 0.569233
vn -0.119622 -0.904417 0.409537
vn 0.000000 -0.991603 0.129323
vn -0.013112 -0.998875 -0.045568
vn -0.621844 -0.750487 0.223783
vn -0.397728 -0.917503 -0.000000
vn -0.112773 -0.992756 -0.041459
vn 0.034574 -0.999000 0.028333
vn -0.522090 -0.742255 0.420096
vn -0.229167 -0.907945 0.350882
vn -0.035293 -0.991756 0.123182
vn -0.000000 -0.998851 -0.047930
vn -0.377117 -0.916079 0.136319
vn -0.119175 -0.992873 -0.000000
vn 0.040838 -0.999054 0.014959
vn -0.318326 -0.912398 0.257290
vn -0.067800 -0.992086 0.105682
vn 0.013112 -0.998875 -0.045568
vn -0.112773 -0.992756 0.041459
vn 0.043020 -0.999074 -0.000000
vn -0.094717 -0.992453 0.077889
vn 0.024978 -0.998934 -0.038822
vn 0.040838 -0.999054 -0.014959
vn 0.034574 -0.999000 -0.028333
vn 0.779377 0.059380 -0.623736
vn 0.939778 0.060877 -0.336321
vn 0.549644 0.057664 -0.833406
vn 0.998109 0.061477 0.000001
vn 0.282426 0.056373 -0.957631
vn 0.939777 0.060877 0.336322
vn -0.000000 0.055902 -0.998436
vn 0.779377 0.059380 0.623736
vn -0.282427 0.056374 -0.957631
vn 0.549644 0.057664 0.833406
vn -0.549645 0.057664 -0.833406
vn 0.282427 0.056373 0.957631
vn -0.779377 0.059379 -0.623736
vn -0.000000 0.055901 0.998436
vn -0.939777 0.060876 -0.336322
vn -0.282426 0.056373 0.957631
vn -0.998109 0.061475 0.000000
vn -0.549644 0.057664 0.833406
vn -0.939778 0.060876 0.336322
vn -0.779376 0.059380 0.623736
vn -0.000000 0.994996 0.099917
vn 0.027600 0.995054 0.095426
vn 0.000000 1.000000 -0.000000
vn 0.000000 1.000000 -0.000000
vn 0.053107 0.995208 0.082106
vn 0.000000 1.000000 -0.000000
vn 0.074212 0.995402 0.060559
vn 0.000000 1.000000 0.000000
vn 0.088400 0.995563 0.032258
vn -0.000000 1.000000 0.000000
vn 0.093441 0.995625 0.000000
vn -0.000000 1.000000 -0.000000
vn 0.088400 0.995563 -0.032258
vn -0.000000 1.000000 -0.000000
vn 0.074212 0.995402 -0.060559
vn -0.000000 1.000000 -0.000000
vn 0.053106 0.995208 -0.082106
vn 0.000000 1.000000 -0.000000
vn 0.027600 0.995054 -0.095426
vn 0.000000 1.000000 0.000000
vn -0.000000 0.994996 -0.099917
vn 0.000000 1.000000 0.000000
vn -0.027600 0.995054 -0.095426
vn -0.000000 1.000000 0.000000
vn -0.000000 1.000000 0.000000
vn -0.053106 0.995208 -0.082106
vn 0.000000 1.000000 -0.000000
vn -0.074212 0.995402 -0.060559
vn 0.000000 1.000000 -0.000000
vn -0.088400 0.995563 -0.032258
vn 0.000000 1.000000 -0.000000
vn -0.093441 0.995625 0.000000
vn 0.000000 1.000000 -0.000000
vn -0.088400 0.995563 0.032258
vn 0.000000 1.000000 -0.000000
vn -0.074212 0.995402 0.060559
vn 0.000000 1.000000 0.000000
vn -0.053106 0.995208 0.082106
vn 0.000000 1.000000 0.000000
vn -0.027600 0.995054 0.095426
vn 0.000000 1.000000 0.000000
vn 0.000000 1.000000 0.000000
vn 0.756198 0.236415 -0.610141
vn 0.912571 0.242420 -0.329314
vn 0.373595 0.879626 -0.294423
vn 0.439652 0.884709 -0.154906
vn 0.969562 0.244846 0.000001
vn 0.462445 0.886648 0.000000
vn 0.271028 0.873335 -0.404759
vn 0.532881 0.229607 -0.814444
vn 0.912570 0.242421 0.329315
vn 0.439654 0.884708 0.154907
vn 0.142299 0.868244 -0.475292
vn 0.273679 0.224533 -0.935246
vn 0.756198 0.236415 0.610141
vn 0.373597 0.879625 0.294425
vn -0.000000 0.866300 -0.499524
vn 0.000000 0.222687 -0.974890
vn 0.532881 0.229606 0.814444
vn 0.271029 0.873334 0.404761
vn -0.142299 0.868244 -0.475292
vn -0.273679 0.224533 -0.935246
vn 0.273679 0.224533 0.935246
vn 0.142299 0.868244 0.475293
vn -0.271028 0.873335 -0.404759
vn -0.532881 0.229607 -0.814444
vn -0.000000 0.222687 0.974890
vn -0.000000 0.866300 0.499524
vn -0.373596 0.879625 -0.294424
vn -0.756198 0.236415 -0.610141
vn -0.273679 0.224533 0.935246
vn -0.142299 0.868244 0.475293
vn -0.439652 0.884709 -0.154907
vn -0.912570 0.242419 -0.329315
vn -0.532881 0.229607 0.814444
vn -0.271029 0.873334 0.404760
vn -0.462444 0.886648 0.000000
vn -0.969563 0.244843 0.000000
vn -0.756198 0.236415 0.610141
vn -0.373597 0.879625 0.294424
vn -0.439653 0.884709 0.154907
vn -0.912571 0.242418 0.329315
vn 0.000000 -1.000000 0.000001
vn 0.000000 -1.000000 0.000000
vn 0.000000 -1.000000 0.000000
vn 0.000000 -1.000000 0.000000
vn 0.000000 -1.000000 0.000000
vn 0.000000 -1.000000 0.000000
vn 0.000000 -1.000000 0.000000
vn 0.000000 -1.000000 -0.000000
vn 0.000000 -1.000000 -0.000000
vn 0.000000 -1.000000 -0.000000
vn 0.000000 -1.000000 -0.000000
vn 0.000000 -1.000000 -0.000000
vn 0.000000 -1.000000 -0.000000
vn 0.000000 -1.000000 0.000000
vn 0.000000 -1.000000 -0.000000
vn 0.000000 -1.000000 -0.000000
vn 0.000000 -1.000000 -0.000000
vn 0.000000 -1.000000 0.000000
vn 0.000000 -1.000000 0.000000
vn 0.000000 -1.000000 0.000001
vn 0.000000 1.000000 0.000000
vn 0.000000 1.000000 0.000000
vn -0.000000 1.000000 -0.000000
vn 0.000000 1.000000 0.000000
vn 0.000000 1.000000 0.000000
vn 0.000000 1.000000 0.000000
vn -0.000000 1.000000 -0.000000
vn -0.000000 1.000000 -0.000000
vn 0.000000 1.000000 -0.000000
vn 0.000000 1.000000 0.000000
vn 0.000000 1.000000 0.000000
vn 0.000000 1.000000 -0.000000
vn 0.000000 1.000000 -0.000000
vn -0.000000 1.000000 -0.000000
vn -0.000000 1.000000 -0.000000
vn -0.000000 1.000000 -0.000000
vn -0.000000 1.000000 -0.000000
vn 0.000000 1.000000 -0.000000
vn 0.000000 1.000000 -0.000000
vn 0.000000 1.000000 0.000000
s 1
g polySurface4
usemtl initialShadingGroup
f 1/1/1 2/2/2 6/3/3 5/4/4
f 1/1/1 5/4/4 8/5/5 3/6/6
f 2/2/2 4/7/7 10/8/8 6/3/3
f 5/4/4 6/3/3 12/9/9 11/10/10
f 3/6/6 8/5/5 14/11/11 7/12/12
f 5/4/4 11/10/10 15/13/13 8/5/5
f 4/7/7 9/14/14 17/15/15 10/8/8
f 6/3/3 10/8/8 18/16/16 12/9/9
f 11/10/10 12/9/9 20/17/17 19/18/18
f 7/12/12 14/11/11 22/19/19 13/20/20
f 8/5/5 15/13/13 23/21/21 14/11/11
f 11/10/10 19/18/18 24/22/22 15/13/13
f 9/14/14 16/23/23 26/24/24 17/15/15
f 10/8/8 17/15/15 27/25/25 18/16/16
f 12/9/9 18/16/16 28/26/26 20/17/17
f 19/18/18 20/17/17 30/27/27 29/28/28
f 13/20/20 22/19/19 32/29/29 21/30/30
f 14/11/11 23/21/21 33/31/31 22/19/19
f 15/13/13 24/22/22 34/32/32 23/21/21
f 19/18/18 29/28/28 35/33/33 24/22/22
f 16/23/23 25/34/34 37/35/35 26/24/24
f 17/15/15 26/24/24 38/36/36 27/25/25
f 18/16/16 27/25/25 39/37/37 28/26/26
f 20/17/17 28/26/26 40/38/38 30/27/27
f 29/28/28 30/27/27 42/39/39 41/40/40
f 21/30/30 32/29/29 44/41/41 31/42/42
f 22/19/19 33/31/31 45/43/43 32/29/29
f 23/21/21 34/32/32 46/44/44 33/31/31
f 24/22/22 35/33/33 47/45/45 34/32/32
f 29/28/28 41/40/40 48/46/46 35/33/33
f 25/34/34 36/47/47 50/48/48 37/35/35
f 26/24/24 37/35/35 51/49/49 38/36/36
f 27/25/25 38/36/36 52/50/50 39/37/37
f 28/26/26 39/37/37 53/51/51 40/38/38
f 30/27/27 40/38/38 54/52/52 42/39/39
f 31/42/42 44/41/41 56/53/53 43/54/54
f 32/29/29 45/43/43 57/55/55 44/41/41
f 33/31/31 46/44/44 58/56/56 45/43/43
f 34/32/32 47/45/45 59/57/57 46/44/44
f 35/33/33 48/46/46 60/58/58 47/45/45
f 36/47/47 49/59/59 62/60/60 50/48/48
f 37/35/35 50/48/48 63/61/61 51/49/49
f 38/36/36 51/49/49 64/62/62 52/50/50
f 39/37/37 52/50/50 65/63/63 53/51/51
f 40/38/38 53/51/51 66/64/64 54/52/52
f 43/54/54 56/53/53 68/65/65 55/66/66
f 44/41/41 57/55/55 69/67/67 56/53/53
f 45/43/43 58/56/56 70/68/68 57/55/55
f 46/44/44 59/57/57 71/69/69 58/56/56
f 47/45/45 60/58/58 72/70/70 59/57/57
f 49/59/59 61/71/71 74/72/72 62/60/60
f 50/48/48 62/60/60 75/73/73 63/61/61
f 51/49/49 63/61/61 76/74/74 64/62/62
f 52/50/50 64/62/62 77/75/75 65/63/63
f 53/51/51 65/63/63 78/76/76 66/64/64
f 55/66/66 68/65/65 80/77/77 67/78/78
f 56/53/53 69/67/67 81/79/79 68/65/65
f 57/55/55 70/68/68 82/80/80 69/67/67
f 58/56/56 71/69/69 83/81/81 70/68/68
f 59/57/57 72/70/70 84/82/82 71/69/69
f 61/71/71 73/83/83 86/84/84 74/72/72
f 62/60/60 74/72/72 87/85/85 75/73/73
f 63/61/61 75/73/73 88/86/86 76/74/74
f 64/62/62 76/74/74 89/87/87 77/75/75
f 65/63/63 77/75/75 90/88/88 78/76/76
f 67/78/78 80/77/77 91/89/89 79/90/90
f 68/65/65 81/79/79 92/91/91 80/77/77
f 69/67/67 82/80/80 93/92/92 81/79/79
f 70/68/68 83/81/81 94/93/93 82/80/80
f 71/69/69 84/82/82 95/94/94 83/81/81
f 73/83/83 85/95/95 96/96/96 86/84/84
f 74/72/72 86/84/84 97/97/97 87/85/85
f 75/73/73 87/85/85 98/98/98 88/86/86
f 76/74/74 88/86/86 99/99/99 89/87/87
f 77/75/75 89/87/87 100/100/100 90/88/88
f 79/90/90 91/89/89 96/96/96 85/95/95
f 80/77/77 92/91/91 101/101/101 91/89/89
f 81/79/79 93/92/92 102/102/102 92/91/91
f 82/80/80 94/93/93 103/103/103 93/92/92
f 83/81/81 95/94/94 104/104/104 94/93/93
f 86/84/84 96/96/96 105/105/105 97/97/97
f 87/85/85 97/97/97 106/106/106 98/98/98
f 88/86/86 98/98/98 107/107/107 99/99/99
f 89/87/87 99/99/99 108/108/108 100/100/100
f 91/89/89 101/101/101 105/105/105 96/96/96
f 92/91/91 102/102/102 109/109/109 101/101/101
f 93/92/92 103/103/103 110/110/110 102/102/102
f 94/93/93 104/104/104 111/111/111 103/103/103
f 97/97/97 105/105/105 112/112/112 106/106/106
f 98/98/98 106/106/106 113/113/113 107/107/107
f 99/99/99 107/107/107 114/114/114 108/108/108
f 101/101/101 109/109/109 112/112/112 105/105/105
f 102/102/102 110/110/110 115/115/115 109/109/109
f 103/103/103 111/111/111 116/116/116 110/110/110
f 106/106/106 112/112/112 117/117/117 113/113/113
f 107/107/107 113/113/113 118/118/118 114/114/114
f 109/109/109 115/115/115 117/117/117 112/112/112
f 110/110/110 116/116/116 119/119/119 115/115/115
f 113/113/113 117/117/117 120/120/120 118/118/118
f 115/115/115 119/119/119 120/120/120 117/117/117
f 141/121/121 144/122/122 2/2/2 1/1/1
f 141/121/121 1/1/1 3/6/6 147/123/123
f 144/122/122 150/124/124 4/7/7 2/2/2
f 147/123/123 3/6/6 7/12/12 153/125/125
f 150/124/124 156/126/126 9/14/14 4/7/7
f 153/125/125 7/12/12 13/20/20 159/127/127
f 156/126/126 162/128/128 16/23/23 9/14/14
f 159/127/127 13/20/20 21/30/30 165/129/129
f 162/128/128 168/130/130 25/34/34 16/23/23
f 165/129/129 21/30/30 31/42/42 171/131/131
f 168/130/130 174/132/132 36/47/47 25/34/34
f 171/131/131 31/42/42 43/54/54 177/133/133
f 174/132/132 180/134/134 49/59/59 36/47/47
f 177/133/133 43/54/54 55/66/66 183/135/135
f 180/134/134 186/136/136 61/71/71 49/59/59
f 183/135/135 55/66/66 67/78/78 189/137/137
f 186/136/136 192/138/138 73/83/83 61/71/71
f 189/137/137 67/78/78 79/90/90 195/139/139
f 192/138/138 198/140/140 85/95/95 73/83/83
f 195/139/139 79/90/90 85/95/95 198/140/140
s 2
f 182/141/141 176/142/142 130/227/143 131/226/144
f 176/142/142 170/145/145 129/228/146 130/227/143
f 170/145/145 164/147/147 128/216/148 129/228/146
f 164/147/147 158/149/149 127/217/150 128/216/148
f 158/149/149 152/151/151 126/218/152 127/217/150
f 152/151/151 146/153/153 125/219/154 126/218/152
f 146/153/153 143/155/155 124/156/156 125/219/154
f 143/155/155 149/204/157 123/222/158 124/156/156
f 149/157/157 155/159/159 122/160/160 123/221/158
f 155/159/159 161/161/161 121/208/162 122/160/160
f 161/161/161 167/163/163 140/207/164 121/208/165
f 167/163/163 173/165/166 139/209/167 140/207/164
f 173/165/166 179/167/168 138/210/169 139/209/167
f 179/167/168 185/169/170 137/211/171 138/210/169
f 185/169/170 191/171/172 136/212/173 137/211/171
f 191/171/172 197/173/174 135/213/175 136/212/173
f 197/173/174 200/175/176 134/214/177 135/213/175
f 200/175/176 194/203/178 133/201/179 134/214/177
f 194/177/178 188/179/180 132/225/181 133/224/179
f 188/179/180 182/141/141 131/226/182 132/225/181
s 1
f 141/121/121 142/181/183 145/182/184 144/122/122
s 2
f 142/181/185 143/155/155 146/153/153 145/182/186
s 1
f 144/122/122 145/182/184 151/183/187 150/124/124
s 2
f 145/182/186 146/153/153 152/151/151 151/183/188
f 143/155/155 142/181/185 148/206/189 149/204/157
s 1
f 142/181/183 141/121/121 147/123/123 148/206/190
f 150/124/124 151/183/187 157/185/191 156/126/126
s 2
f 151/183/188 152/151/151 158/149/149 157/185/192
f 149/157/157 148/184/189 154/186/193 155/159/159
s 1
f 148/184/190 147/123/123 153/125/125 154/186/194
f 156/126/126 157/185/191 163/187/195 162/128/128
s 2
f 157/185/192 158/149/149 164/147/147 163/187/196
f 155/159/159 154/186/193 160/188/197 161/161/161
s 1
f 154/186/194 153/125/125 159/127/127 160/188/198
f 162/128/128 163/187/195 169/189/199 168/130/130
s 2
f 163/187/196 164/147/147 170/145/145 169/189/200
f 161/161/161 160/188/197 166/190/201 167/163/163
s 1
f 160/188/198 159/127/127 165/129/129 166/190/202
f 168/130/130 169/189/199 175/191/203 174/132/132
s 2
f 169/189/200 170/145/145 176/142/142 175/191/204
f 167/163/163 166/190/201 172/192/205 173/165/166
s 1
f 166/190/202 165/129/129 171/131/131 172/192/206
f 174/132/132 175/191/203 181/193/207 180/134/134
s 2
f 175/191/204 176/142/142 182/141/141 181/193/208
f 173/165/166 172/192/205 178/194/209 179/167/168
s 1
f 172/192/206 171/131/131 177/133/133 178/194/210
f 180/134/134 181/193/207 187/195/211 186/136/136
s 2
f 181/193/208 182/141/141 188/179/180 187/195/212
f 179/167/168 178/194/209 184/196/213 185/169/170
s 1
f 178/194/210 177/133/133 183/135/135 184/196/214
f 186/136/136 187/195/211 193/205/215 192/138/138
s 2
f 187/195/212 188/179/180 194/177/178 193/205/216
f 185/169/170 184/196/213 190/198/217 191/171/172
s 1
f 184/196/214 183/135/135 189/137/137 190/198/218
f 192/138/138 193/197/215 199/199/219 198/140/140
s 2
f 193/197/216 194/203/178 200/175/176 199/199/220
f 191/171/172 190/198/217 196/200/221 197/173/174
s 1
f 190/198/218 189/137/137 195/139/139 196/200/222
s 2
f 197/173/174 196/200/221 199/199/220 200/175/176
s 1
f 196/200/222 195/139/139 198/140/140 199/199/219
s 4
f 42/39/223 54/52/224 41/40/225
f 54/52/224 66/64/226 41/40/225
f 66/64/226 78/76/227 41/40/225
f 78/76/227 90/88/228 41/40/225
f 41/40/225 90/88/228 48/46/229
f 90/88/228 100/100/230 48/46/229
f 48/46/229 100/100/230 60/58/231
f 100/100/230 108/108/232 60/58/231
f 60/58/231 108/108/232 72/70/233
f 108/108/232 114/114/234 72/70/233
f 114/114/234 118/118/235 72/70/233
f 72/70/233 118/118/235 84/82/236
f 84/82/236 118/118/235 95/94/237
f 118/118/235 120/120/238 95/94/237
f 120/120/238 119/119/239 95/94/237
f 119/119/239 116/116/240 95/94/237
f 116/116/240 111/111/241 95/94/237
f 111/111/241 104/104/242 95/94/237
s 5
f 122/223/243 121/162/244 123/202/245
f 121/162/244 140/164/246 123/202/245
f 140/164/246 139/166/247 123/202/245
f 139/166/247 138/168/248 123/202/245
f 138/168/248 137/170/249 123/202/245
f 137/170/249 136/172/250 123/202/245
f 136/172/250 135/174/251 123/202/245
f 135/174/251 134/176/252 123/202/245
f 134/176/252 133/215/253 123/202/245
f 133/178/253 132/180/254 123/158/245
f 132/180/254 131/144/255 123/158/245
f 131/144/255 130/143/256 123/158/245
f 130/143/256 129/146/257 123/158/245
f 129/146/257 128/148/258 123/158/245
f 128/148/258 127/150/259 123/158/245
f 127/150/259 126/152/260 123/158/245
f 126/152/260 125/154/261 123/158/245
f 125/154/261 124/220/262 123/158/245
