# This file uses centimeters as units for non-parametric coordinates.

mtllib sandwichassemblystationmesh.mtl
g default
v 0.765287 0.000000 0.606169
v 0.765287 0.000000 -0.606169
v -0.765287 0.000000 0.606169
v -0.765287 0.000000 -0.606169
v 0.765287 1.000000 0.000000
v 0.000000 1.000000 0.000000
v -0.765287 1.000000 0.000000
v -0.956608 0.000000 -0.484935
v -0.765287 1.000000 -0.484941
v 0.000000 1.000000 -0.484941
v 0.765287 1.000000 -0.484941
v 0.956608 0.000000 -0.484935
v 0.765287 0.000000 -0.484935
v -0.765287 0.000000 -0.484935
v -0.956608 0.000000 0.484935
v -0.765287 0.000000 0.484935
v 0.765287 0.000000 0.484935
v 0.956608 0.000000 0.484935
v 0.765287 1.000000 0.484941
v 0.000000 1.000000 0.484941
v -0.765287 1.000000 0.484941
v -0.956608 0.200000 0.484935
v -0.956608 0.200000 0.000000
v -0.956608 0.200000 -0.484935
v -0.765287 0.200000 -0.606169
v 0.000000 0.200000 -0.606169
v 0.765287 0.200000 -0.606169
v 0.956608 0.200000 -0.484935
v 0.956608 0.200000 0.000000
v 0.956608 0.200000 0.484935
v 0.765287 0.200000 0.606169
v 0.000000 0.200000 0.606169
v -0.765287 0.200000 0.606169
v 0.765287 0.206248 -0.484935
v -0.765287 0.206248 -0.484935
v -0.765287 0.206248 0.484935
v 0.765287 0.206248 0.484935
v -0.835387 1.000000 0.484941
v -0.921103 0.964495 0.570664
v -0.765287 0.964495 0.570664
v -0.765287 0.878778 0.606169
v -0.835387 1.000000 -0.484941
v -0.921103 0.964495 -0.570664
v -0.765287 0.878778 -0.606169
v -0.765287 0.964495 -0.570664
v -0.956608 0.878778 0.484935
v -0.921103 0.964495 0.484935
v 0.835387 1.000000 0.484941
v 0.921103 0.964495 0.570664
v 0.921103 0.964495 0.484935
v 0.956608 0.878778 0.484935
v 0.000000 0.964495 0.570664
v 0.000000 0.878778 0.606169
v 0.765287 0.964495 0.570664
v 0.765287 0.878778 0.606169
v 0.000000 0.878778 -0.606169
v 0.000000 0.964495 -0.570664
v 0.765287 0.878778 -0.606169
v 0.765287 0.964495 -0.570664
v 0.921103 0.964495 -0.570664
v 0.835387 1.000000 -0.484941
v -0.835387 1.000000 0.000000
v -0.921103 0.964495 0.000000
v -0.956608 0.878778 0.000000
v -0.921103 0.964495 -0.484935
v -0.956608 0.878778 -0.484935
v 0.835387 1.000000 0.000000
v 0.921103 0.964495 0.000000
v 0.956608 0.878778 0.000000
v 0.921103 0.964495 -0.484935
v 0.956608 0.878778 -0.484935
v -0.956608 0.000000 0.545558
v -0.895998 0.000000 0.606169
v -0.956608 0.200000 0.545558
v -0.895998 0.200000 0.606169
v 0.956608 0.000000 0.545558
v 0.895998 0.000000 0.606169
v 0.895998 0.200000 0.606169
v 0.956608 0.200000 0.545558
v -0.895998 0.000000 -0.606169
v -0.956608 0.000000 -0.545558
v -0.895998 0.200000 -0.606169
v -0.956608 0.200000 -0.545558
v 0.956608 0.000000 -0.545558
v 0.895998 0.000000 -0.606169
v 0.956608 0.200000 -0.545558
v 0.895998 0.200000 -0.606169
v -0.895998 0.878778 0.606169
v -0.941290 0.915759 0.590851
v -0.956608 0.878778 0.545558
v -0.956608 0.878778 -0.545558
v -0.941290 0.915759 -0.590851
v -0.895998 0.878778 -0.606169
v 0.895998 0.878778 -0.606169
v 0.941290 0.915759 -0.590851
v 0.956608 0.878778 -0.545558
v 0.956608 0.878778 0.545558
v 0.941290 0.915759 0.590851
v 0.895998 0.878778 0.606169
v 0.000000 0.408346 0.606169
v 0.000000 0.378744 0.606169
v 0.137445 0.445874 0.606169
v 0.132475 0.417798 0.606169
v -0.163468 0.413627 0.606169
v -0.159049 0.449747 0.606169
v 0.000000 0.446275 0.606169
v 0.000000 0.429426 0.606169
v 0.177735 0.482885 0.606169
v 0.155189 0.467365 0.606169
v -0.160944 0.461133 0.606169
v -0.187912 0.483829 0.606169
v 0.000000 0.539145 0.606169
v 0.000000 0.463642 0.606169
v 0.035070 0.522517 0.606169
v 0.095599 0.540198 0.606169
v 0.140976 0.534208 0.606169
v 0.133257 0.490173 0.606169
v -0.184268 0.492130 0.606169
v -0.213265 0.527664 0.606169
v -0.176778 0.527605 0.606169
v -0.109470 0.539296 0.606169
v -0.051586 0.519115 0.606169
v 0.000000 0.559698 0.606169
v 0.000000 0.548696 0.606169
v 0.091684 0.562254 0.606169
v 0.116778 0.551228 0.606169
v 0.086687 0.552080 0.606169
v 0.035395 0.535950 0.606169
v -0.045871 0.536842 0.606169
v -0.057126 0.539513 0.606169
v -0.101991 0.551246 0.606169
v -0.202956 0.538611 0.606169
v -0.118840 0.564727 0.606169
v -0.083235 0.564738 0.606169
v -0.000000 0.668369 0.583460
v 0.000000 0.573582 0.606169
v 0.063962 0.650764 0.606169
v 0.127554 0.613098 0.606169
v 0.144624 0.560266 0.606169
v 0.098715 0.572998 0.606169
v -0.041570 0.567282 0.606169
v -0.072000 0.575302 0.606169
v -0.118374 0.577582 0.606169
v -0.202902 0.553065 0.606169
v -0.148145 0.621623 0.606169
v -0.075134 0.652529 0.606169
v 0.012733 0.664864 0.606169
v 0.000000 0.742824 0.606169
v -0.011939 0.665852 0.606169
v 0.010315 0.739016 0.606169
v -0.010461 0.736196 0.606169
v 0.011929 0.689527 0.606169
v 0.010819 0.723555 0.606169
v 0.114767 0.706017 0.606169
v -0.057126 0.539513 0.583461
v -0.083235 0.564738 0.583461
v -0.118840 0.564727 0.583461
v -0.202956 0.538611 0.583461
v -0.101991 0.551246 0.583461
v -0.000000 0.742824 0.583460
v -0.010461 0.736196 0.583461
v -0.011939 0.665852 0.583460
v 0.011929 0.689527 0.583460
v 0.114767 0.706017 0.583461
v 0.010819 0.723555 0.583461
v 0.012733 0.664864 0.583460
v 0.010315 0.739016 0.583461
v -0.000000 0.573582 0.583460
v 0.098715 0.572998 0.583461
v 0.144624 0.560266 0.583461
v 0.127554 0.613098 0.583461
v 0.063962 0.650764 0.583461
v -0.075134 0.652529 0.583461
v -0.148145 0.621623 0.583461
v -0.202902 0.553065 0.583461
v -0.118374 0.577582 0.583461
v -0.072000 0.575302 0.583461
v -0.041570 0.567282 0.583461
v -0.000000 0.378744 0.583460
v 0.132475 0.417798 0.583461
v 0.137445 0.445874 0.583461
v -0.000000 0.408346 0.583460
v -0.159049 0.449747 0.583461
v -0.163468 0.413627 0.583461
v -0.000000 0.429426 0.583460
v 0.155189 0.467365 0.583461
v 0.177735 0.482885 0.583461
v -0.000000 0.446275 0.583460
v -0.187912 0.483829 0.583461
v -0.160944 0.461133 0.583461
v -0.000000 0.559698 0.583460
v -0.057126 0.539513 0.583461
v -0.045871 0.536842 0.583461
v -0.000000 0.548696 0.583460
v 0.035395 0.535950 0.583461
v 0.086687 0.552080 0.583461
v 0.116778 0.551228 0.583461
v 0.091684 0.562254 0.583461
v -0.000000 0.463642 0.583460
v 0.133257 0.490173 0.583461
v 0.140976 0.534208 0.583461
v 0.095599 0.540198 0.583461
v 0.035070 0.522517 0.583461
v -0.000000 0.539145 0.583460
v -0.051586 0.519115 0.583461
v -0.109470 0.539296 0.583461
v -0.176778 0.527605 0.583461
v -0.213265 0.527664 0.583461
v -0.184268 0.492130 0.583461
vt 0.179537 0.736438
vt 0.207341 0.729167
vt 0.169735 0.745761
vt 0.186855 0.750820
vt 0.204040 0.743047
vt 0.628758 0.829476
vt 0.631560 0.815792
vt 0.640559 0.843382
vt 0.653308 0.835200
vt 0.658291 0.847790
vt 0.722998 0.546393
vt 0.695493 0.554251
vt 0.732862 0.536915
vt 0.715914 0.532263
vt 0.698837 0.540420
vt 0.377116 0.013027
vt 0.024288 0.678629
vt 0.226439 0.936023
vt 0.200542 0.915748
vt 0.228969 0.914482
vt 0.061605 0.431087
vt 0.322154 0.276388
vt 0.059804 0.450410
vt 0.081614 0.440111
vt 0.080885 0.453829
vt 0.840102 0.849521
vt 0.785602 0.091757
vt 0.841764 0.830195
vt 0.820019 0.840628
vt 0.820627 0.826912
vt 0.718047 0.353934
vt 0.876408 0.602176
vt 0.684757 0.354614
vt 0.709375 0.374121
vt 0.680925 0.375779
vt 0.270680 0.451962
vt 0.267627 0.465560
vt 0.259406 0.437521
vt 0.246729 0.445621
vt 0.241973 0.432716
vt 0.020679 0.652671
vt 0.036229 0.671007
vt 0.041489 0.658324
vt 0.358897 0.281355
vt 0.328522 0.289204
vt 0.354044 0.301506
vt 0.880174 0.628097
vt 0.864529 0.609886
vt 0.859357 0.622606
vt 0.538862 0.995900
vt 0.569893 0.987128
vt 0.544287 0.975063
vt 0.368960 0.855744
vt 0.381580 0.862098
vt 0.378616 0.863760
vt 0.387462 0.863997
vt 0.384039 0.865061
vt 0.523248 0.307941
vt 0.363252 0.260935
vt 0.383579 0.152161
vt 0.548071 0.195559
vt 0.689286 0.333587
vt 0.714719 0.226138
vt 0.572504 0.084559
vt 0.738937 0.117140
vt 0.407135 0.042656
vt 0.667509 0.561768
vt 0.668232 0.527605
vt 0.302906 0.453734
vt 0.290108 0.484580
vt 0.715736 0.582424
vt 0.238364 0.480434
vt 0.234729 0.721961
vt 0.235017 0.756823
vt 0.595763 0.829133
vt 0.609261 0.797798
vt 0.186038 0.700302
vt 0.661781 0.801114
vt 0.038557 0.447189
vt 0.026727 0.548740
vt 0.900882 0.633666
vt 0.874473 0.731898
vt 0.754888 0.120173
vt 0.000000 0.646954
vt 0.069175 0.557764
vt 0.222932 0.591989
vt 0.480448 0.505615
vt 0.514067 0.351403
vt 0.831958 0.723183
vt 0.677793 0.690545
vt 0.394969 0.909704
vt 0.393714 0.908585
vt 0.394813 0.893820
vt 0.397259 0.894536
vt 0.384463 0.965669
vt 0.388326 0.944511
vt 0.518665 0.329673
vt 0.853286 0.727562
vt 0.047882 0.553225
vt 0.203630 0.770260
vt 0.175387 0.710285
vt 0.667184 0.814700
vt 0.619185 0.853801
vt 0.233159 0.466748
vt 0.280497 0.427376
vt 0.699688 0.513437
vt 0.726311 0.572336
vt 0.411597 0.818157
vt 0.433029 0.832604
vt 0.432462 0.836343
vt 0.410517 0.823530
vt 0.379284 0.826322
vt 0.379676 0.821207
vt 0.408429 0.834350
vt 0.435063 0.847652
vt 0.437018 0.849343
vt 0.407907 0.837201
vt 0.373378 0.836028
vt 0.377395 0.834114
vt 0.401551 0.867934
vt 0.394920 0.863659
vt 0.395863 0.863362
vt 0.401982 0.866104
vt 0.391004 0.863069
vt 0.384990 0.868087
vt 0.377598 0.866708
vt 0.364429 0.853369
vt 0.381790 0.858654
vt 0.394161 0.913608
vt 0.391260 0.911839
vt 0.391097 0.896275
vt 0.402083 0.898418
vt 0.417282 0.908606
vt 0.412678 0.907485
vt 0.398699 0.899551
vt 0.398654 0.910800
vt 0.396968 0.906727
vt 0.403936 0.895492
vt 0.400052 0.893857
vt 0.396915 0.913361
vt 0.396448 0.909509
vt 0.400003 0.873401
vt 0.419482 0.874001
vt 0.418884 0.877369
vt 0.399516 0.877297
vt 0.430514 0.871964
vt 0.427352 0.875350
vt 0.426248 0.886270
vt 0.423188 0.884117
vt 0.412386 0.894753
vt 0.410739 0.890896
vt 0.380200 0.889960
vt 0.382465 0.887310
vt 0.366757 0.878806
vt 0.369682 0.877272
vt 0.363182 0.857315
vt 0.365571 0.861616
vt 0.377642 0.868605
vt 0.377012 0.872410
vt 0.386675 0.870450
vt 0.386213 0.874333
vt 0.392493 0.870547
vt 0.391948 0.874637
vt 0.412570 0.814273
vt 0.436436 0.832200
vt 0.435147 0.839620
vt 0.409829 0.827367
vt 0.376538 0.828952
vt 0.376339 0.819532
vt 0.409212 0.830659
vt 0.437890 0.845941
vt 0.440822 0.851949
vt 0.407172 0.840934
vt 0.369634 0.837855
vt 0.375489 0.831501
vt 0.400118 0.871139
vt 0.393568 0.861216
vt 0.402444 0.862211
vt 0.409406 0.862075
vt 0.408785 0.865135
vt 0.418805 0.866079
vt 0.417033 0.868313
vt 0.424360 0.868912
vt 0.420606 0.869763
vt 0.418243 0.872649
vt 0.417328 0.869840
vt 0.406652 0.843568
vt 0.431375 0.852034
vt 0.428183 0.854172
vt 0.405839 0.847051
vt 0.430812 0.864762
vt 0.428082 0.861934
vt 0.420860 0.865285
vt 0.421055 0.861433
vt 0.409804 0.860294
vt 0.410222 0.857002
vt 0.402613 0.860848
vt 0.403095 0.857520
vt 0.392747 0.858771
vt 0.393829 0.854360
vt 0.381345 0.856931
vt 0.381964 0.853603
vt 0.370068 0.853041
vt 0.371596 0.849843
vt 0.363006 0.849621
vt 0.366689 0.848006
vt 0.370242 0.839504
vt 0.371948 0.843188
vt 0.420596 0.775981
vt 0.743240 0.096010
vt 0.827895 0.852448
vt 0.575656 1.000000
vt 0.375515 0.000000
vt 0.190374 0.925466
vt 0.412151 0.021725
vt 0.728808 0.372783
vt 0.719946 0.508400
vt 0.264434 0.415043
vt 0.310943 0.280225
vt 0.635805 0.865199
vt 0.587934 0.995259
vt 0.181008 0.916411
vt 0.183303 0.774579
vt 0.704850 0.335201
vt 0.886385 0.609705
vt 0.778657 0.102895
vt 0.863042 0.833273
vt 0.577166 0.063481
vt 0.391368 0.038718
vt 0.014352 0.671026
vt 0.367901 0.147976
vt 0.730707 0.228815
vt 0.348443 0.255953
vt 0.328730 0.267321
vt 0.720321 0.364901
vt 0.073830 0.428241
vn 0.000000 -1.000000 0.000000
vn 0.000000 -1.000000 0.000000
vn 0.000000 -1.000000 0.000000
vn 0.000000 -1.000000 0.000000
vn 0.000000 -1.000000 0.000000
vn 0.000000 -1.000000 0.000000
vn 0.000000 -1.000000 0.000000
vn 0.000000 -1.000000 0.000000
vn 0.000000 -1.000000 0.000000
vn 0.000000 -1.000000 0.000000
vn 0.000000 -1.000000 0.000000
vn 0.000000 -1.000000 0.000000
vn 0.000000 -1.000000 0.000000
vn 0.000000 -1.000000 0.000000
vn 0.000000 -1.000000 0.000000
vn 0.000000 0.382683 0.923880
vn -0.000000 0.382683 0.923880
vn -0.000000 0.382684 0.923880
vn -0.000000 0.031064 0.999518
vn -0.000000 0.100508 0.994936
vn -0.923880 0.382682 0.000000
vn -0.923880 0.382682 0.000000
vn -0.923880 0.382683 0.000000
vn -0.999194 0.040147 0.000000
vn -0.999027 0.044094 0.000000
vn 0.923880 0.382682 0.000000
vn 0.923880 0.382682 0.000000
vn 0.923880 0.382683 0.000000
vn 0.999194 0.040147 0.000000
vn 0.999027 0.044094 0.000000
vn 0.000000 0.382683 -0.923880
vn 0.000000 0.382683 -0.923880
vn 0.000000 0.382684 -0.923880
vn 0.000000 0.031064 -0.999518
vn 0.000000 0.043369 -0.999059
vn 0.000000 -1.000000 0.000000
vn 0.000000 -1.000000 0.000000
vn 0.000000 -1.000000 0.000000
vn 0.000000 -1.000000 0.000000
vn 0.000000 -1.000000 0.000000
vn -0.923880 0.382682 0.000000
vn -0.923880 0.382683 -0.000000
vn -0.923880 0.382683 -0.000000
vn -0.999194 0.040147 -0.000000
vn -0.999027 0.044094 0.000000
vn 0.000000 0.382684 -0.923880
vn -0.000000 0.382684 -0.923880
vn -0.000000 0.382683 -0.923880
vn -0.000000 0.031063 -0.999518
vn 0.000000 0.043369 -0.999059
vn 0.923880 0.382682 0.000000
vn 0.923880 0.382683 0.000000
vn 0.923880 0.382683 0.000000
vn 0.999194 0.040147 0.000000
vn 0.999027 0.044094 0.000000
vn 0.000000 0.382684 0.923880
vn 0.000000 0.382684 0.923880
vn 0.000000 0.382683 0.923880
vn 0.000000 0.031063 0.999518
vn 0.000000 0.099169 0.995071
vn 0.000000 0.000000 1.000000
vn 0.000000 0.000000 1.000000
vn 0.000000 0.000000 1.000000
vn 0.000000 0.000000 1.000000
vn 0.000000 0.000000 1.000000
vn 0.000000 0.998070 -0.062097
vn 0.000000 0.997900 -0.064772
vn 0.000000 1.000000 0.000000
vn 0.000000 1.000000 0.000000
vn 0.000000 0.997900 -0.064772
vn 0.000000 1.000000 0.000000
vn 0.000000 0.998070 0.062097
vn 0.000000 0.997900 0.064772
vn 0.000000 0.997900 0.064772
vn -1.000000 0.000000 0.000000
vn -1.000000 0.000000 0.000000
vn -1.000000 0.000000 0.000000
vn -1.000000 0.000000 0.000000
vn 1.000000 0.000000 0.000000
vn 1.000000 0.000000 0.000000
vn 1.000000 0.000000 0.000000
vn 1.000000 0.000000 0.000000
vn 0.000000 0.000000 1.000000
vn 0.000000 0.000000 1.000000
vn 0.000000 0.000000 1.000000
vn 0.000000 0.000000 1.000000
vn -0.000000 0.000000 1.000000
vn -0.000000 0.000000 1.000000
vn -0.000000 0.000000 1.000000
vn -0.000000 0.000000 1.000000
vn 1.000000 0.000000 0.000000
vn 1.000000 0.000000 0.000000
vn 1.000000 0.000000 0.000000
vn 1.000000 0.000000 0.000000
vn -1.000000 0.000000 0.000000
vn -1.000000 0.000000 0.000000
vn -1.000000 0.000000 0.000000
vn -1.000000 0.000000 0.000000
vn 0.000000 0.000000 -1.000000
vn 0.000000 0.000000 -1.000000
vn 0.000000 0.000000 -1.000000
vn 0.000000 0.000000 -1.000000
vn 0.000000 0.000000 -1.000000
vn 0.000000 0.000000 -1.000000
vn 0.000000 0.000000 -1.000000
vn 0.000000 0.000000 -1.000000
vn -0.108475 0.952106 -0.285880
vn -0.191842 0.979385 -0.063251
vn 0.000000 0.923889 -0.382660
vn -0.222169 0.975008 0.000000
vn 0.191842 0.979385 -0.063251
vn 0.222169 0.975008 0.000000
vn 0.191842 0.979385 0.063251
vn -0.191842 0.979385 0.063251
vn -0.998923 0.046392 0.000000
vn -1.000000 0.000000 0.000000
vn -1.000000 0.000000 0.000000
vn -1.000000 0.000000 0.000000
vn 0.000000 0.000000 -1.000000
vn 0.000000 0.000000 -1.000000
vn 0.000000 0.046392 -0.998923
vn 0.000000 0.000000 -1.000000
vn 0.998923 0.046392 0.000000
vn 1.000000 0.000000 0.000000
vn 1.000000 0.000000 0.000000
vn 1.000000 0.000000 0.000000
vn -0.000002 -0.000001 1.000000
vn 0.000018 -0.000002 1.000000
vn 0.000007 -0.000000 1.000000
vn 0.000006 -0.000001 1.000000
vn -0.108474 0.952106 0.285880
vn 0.000000 0.923889 0.382660
vn 0.000000 0.923889 0.382660
vn 0.000000 0.225084 0.974339
vn 0.000000 0.382684 0.923880
vn 0.000000 0.382684 -0.923880
vn 0.000000 0.923889 -0.382660
vn 0.382684 0.923879 0.000000
vn 0.382684 0.923880 0.000000
vn 0.923880 0.382683 0.000000
vn 0.000000 0.923889 0.382660
vn 0.108475 0.952106 0.285880
vn 0.000000 0.923889 -0.382660
vn 0.108474 0.952106 -0.285880
vn -0.923880 0.382683 0.000000
vn -0.382684 0.923880 0.000000
vn -0.382684 0.923880 0.000000
vn -0.382684 0.923880 0.000000
vn 0.382684 0.923880 0.000000
vn -0.707107 0.000000 0.707107
vn -0.707107 0.000000 0.707107
vn -0.707107 0.000000 0.707107
vn -0.707107 0.000000 0.707107
vn -0.707086 -0.007675 0.707086
vn -0.707086 -0.007675 0.707086
vn 0.707107 0.000000 0.707107
vn 0.707107 0.000000 0.707107
vn 0.707107 0.000000 0.707107
vn 0.707107 0.000000 0.707107
vn 0.707086 -0.007675 0.707086
vn 0.707086 -0.007675 0.707086
vn -0.707107 0.000000 -0.707107
vn -0.707107 0.000000 -0.707107
vn -0.707107 0.000000 -0.707107
vn -0.707107 0.000000 -0.707107
vn -0.707086 -0.007675 -0.707086
vn -0.707086 -0.007675 -0.707086
vn 0.707107 0.000000 -0.707107
vn 0.707107 0.000000 -0.707107
vn 0.707107 0.000000 -0.707107
vn 0.707107 0.000000 -0.707107
vn 0.707086 -0.007675 -0.707086
vn 0.707086 -0.007675 -0.707086
vn 0.000000 0.000000 1.000000
vn 0.000000 0.000000 1.000000
vn 0.000000 0.000000 1.000000
vn -0.000000 -0.000000 1.000000
vn 0.000000 0.000000 -1.000000
vn 0.000000 0.000000 -1.000000
vn 0.000000 0.000000 -1.000000
vn 1.000000 0.000000 0.000000
vn 1.000000 0.000000 0.000000
vn 1.000000 0.000000 0.000000
vn -1.000000 0.000000 0.000000
vn -1.000000 0.000000 0.000000
vn -1.000000 0.000000 0.000000
vn 0.000000 0.000000 1.000000
vn 0.000000 -0.000000 1.000000
vn 0.000000 0.000000 1.000000
vn 0.000000 0.000000 1.000000
vn 0.000000 0.000000 -1.000000
vn 0.000000 0.000000 -1.000000
vn 0.000000 0.000000 -1.000000
vn -1.000000 0.000000 0.000000
vn -1.000000 0.000000 0.000000
vn -1.000000 0.000000 0.000000
vn 1.000000 0.000000 0.000000
vn 1.000000 0.000000 0.000000
vn 1.000000 0.000000 0.000000
vn 0.000000 0.000000 1.000000
vn -0.000002 0.000000 1.000000
vn -0.000002 0.000000 1.000000
vn 0.000000 0.000000 1.000000
vn 0.000002 -0.000000 1.000000
vn 0.000002 -0.000000 1.000000
vn 0.000000 0.000001 1.000000
vn -0.000002 0.000001 1.000000
vn -0.000002 0.000001 1.000000
vn 0.000000 0.000001 1.000000
vn 0.000002 0.000001 1.000000
vn 0.000002 0.000001 1.000000
vn -0.000000 0.000002 1.000000
vn 0.000006 0.000004 1.000000
vn 0.000006 0.000004 1.000000
vn 0.000001 0.000003 1.000000
vn -0.694834 -0.719170 0.000000
vn -0.694834 -0.719170 0.000000
vn -0.694834 -0.719170 0.000000
vn -0.694834 -0.719170 0.000000
vn 0.000308 -1.000000 -0.000000
vn 0.000308 -1.000000 -0.000000
vn 0.000308 -1.000000 -0.000000
vn 0.000308 -1.000000 -0.000000
vn 0.296514 -0.955029 -0.000000
vn 0.296514 -0.955029 -0.000000
vn 0.296514 -0.955029 -0.000000
vn 0.296514 -0.955029 -0.000000
vn -0.124174 0.992261 0.000000
vn -0.124174 0.992261 0.000000
vn -0.124174 0.992261 0.000000
vn -0.124174 0.992261 0.000000
vn 0.253015 0.967462 -0.000000
vn 0.253015 0.967462 -0.000000
vn 0.253015 0.967462 -0.000000
vn 0.253015 0.967462 -0.000000
vn 0.535220 -0.844712 0.000000
vn 0.535220 -0.844712 0.000000
vn 0.535220 -0.844712 0.000000
vn 0.535220 -0.844712 0.000000
vn 0.999779 -0.021010 -0.000000
vn 0.999779 -0.021010 -0.000000
vn 0.999779 -0.021010 -0.000000
vn 0.999779 -0.021010 -0.000000
vn -0.158328 0.987387 0.000000
vn -0.158328 0.987387 0.000000
vn -0.158328 0.987387 0.000000
vn -0.158328 0.987387 0.000000
vn -0.166364 -0.986064 0.000000
vn -0.166364 -0.986064 0.000000
vn -0.166364 -0.986064 0.000000
vn -0.166364 -0.986064 0.000000
vn -0.999469 -0.032594 0.000000
vn -0.999469 -0.032594 0.000000
vn -0.999469 -0.032594 0.000000
vn -0.999469 -0.032594 0.000000
vn -0.999469 -0.032594 0.000000
vn -0.999469 -0.032594 0.000000
vn -0.999469 -0.032594 0.000000
vn -0.999469 -0.032594 0.000000
vn -0.346341 -0.938109 0.000000
vn -0.346341 -0.938109 0.000000
vn -0.346341 -0.938109 0.000000
vn -0.346341 -0.938109 0.000000
vn 0.005915 0.999983 -0.000000
vn 0.005915 0.999983 -0.000000
vn 0.005915 0.999983 -0.000000
vn 0.005915 0.999983 -0.000000
vn 0.267244 0.963629 -0.000000
vn 0.267244 0.963629 -0.000000
vn 0.267244 0.963629 -0.000000
vn 0.267244 0.963629 -0.000000
vn -0.951564 -0.307450 0.000001
vn -0.951564 -0.307450 0.000001
vn -0.951564 -0.307450 0.000001
vn -0.951564 -0.307450 0.000001
vn -0.509620 -0.860400 0.000000
vn -0.509620 -0.860400 0.000000
vn -0.509620 -0.860400 0.000000
vn -0.509620 -0.860400 0.000000
vn -0.265371 -0.964147 -0.000000
vn -0.265371 -0.964146 -0.000000
vn -0.265371 -0.964147 -0.000000
vn -0.265371 -0.964146 -0.000000
vn 0.206287 -0.978492 -0.000000
vn 0.206287 -0.978492 -0.000000
vn 0.206287 -0.978492 -0.000000
vn 0.206287 -0.978492 -0.000000
vn 0.389820 -0.920891 -0.000000
vn 0.389820 -0.920891 -0.000000
vn 0.389820 -0.920891 -0.000000
vn 0.389820 -0.920891 -0.000000
vn 0.781365 -0.624074 -0.000000
vn 0.781365 -0.624074 -0.000000
vn 0.781365 -0.624074 -0.000000
vn 0.781365 -0.624074 -0.000000
vn -0.278565 0.960417 0.000000
vn -0.278565 0.960417 0.000000
vn -0.278565 0.960417 0.000000
vn -0.278565 0.960417 0.000000
vn 0.049106 0.998794 -0.000000
vn 0.049106 0.998794 -0.000000
vn 0.049106 0.998794 -0.000000
vn 0.049106 0.998794 -0.000000
vn 0.254853 0.966980 -0.000000
vn 0.254853 0.966980 -0.000000
vn 0.254853 0.966980 -0.000000
vn 0.254853 0.966980 -0.000000
vn -0.149839 0.988711 0.000000
vn -0.149839 0.988711 0.000000
vn -0.149839 0.988711 0.000000
vn -0.149839 0.988711 0.000000
vn -0.282770 0.959188 0.000000
vn -0.282770 0.959188 0.000000
vn -0.282770 0.959188 0.000000
vn -0.282770 0.959188 0.000000
vn -0.984691 0.174310 0.000001
vn -0.984691 0.174310 0.000001
vn -0.984691 0.174310 0.000001
vn -0.984691 0.174310 0.000001
vn 0.263401 -0.964686 -0.000000
vn 0.263401 -0.964686 -0.000000
vn 0.263401 -0.964686 -0.000000
vn 0.263401 -0.964686 -0.000000
vn -0.251911 -0.967750 -0.000000
vn -0.251911 -0.967750 -0.000000
vn -0.251911 -0.967750 -0.000000
vn -0.251911 -0.967750 -0.000000
vn 0.992599 -0.121437 -0.000001
vn 0.992599 -0.121437 -0.000001
vn 0.992599 -0.121437 -0.000001
vn 0.992599 -0.121437 -0.000001
vn 0.208694 0.977981 -0.000000
vn 0.208694 0.977981 -0.000000
vn 0.208694 0.977981 -0.000000
vn 0.208694 0.977981 -0.000000
vn -0.237478 0.971393 -0.000000
vn -0.237478 0.971393 -0.000000
vn -0.237478 0.971393 -0.000000
vn -0.237478 0.971393 -0.000000
vn -0.567015 0.823707 0.000000
vn -0.567015 0.823707 0.000000
vn -0.567015 0.823707 0.000000
vn -0.567015 0.823707 0.000000
vn 0.201745 -0.979438 -0.000000
vn 0.201745 -0.979438 -0.000000
vn 0.201745 -0.979438 -0.000000
vn 0.201745 -0.979438 -0.000000
vn -0.195973 -0.980609 -0.000000
vn -0.195973 -0.980609 -0.000000
vn -0.195973 -0.980609 -0.000000
vn -0.195973 -0.980609 -0.000000
vn 0.643905 0.765105 -0.000000
vn 0.643905 0.765105 -0.000000
vn 0.643905 0.765105 -0.000000
vn 0.643905 0.765105 -0.000000
vn 0.193293 0.981141 -0.000000
vn 0.193293 0.981141 -0.000000
vn 0.193293 0.981141 -0.000000
vn 0.193293 0.981141 -0.000000
vn 0.333160 -0.942870 -0.000000
vn 0.333160 -0.942870 -0.000000
vn 0.333160 -0.942870 -0.000000
vn 0.333160 -0.942870 -0.000000
vn 0.230879 0.972982 -0.000000
vn 0.230879 0.972982 -0.000000
vn 0.230879 0.972982 -0.000000
vn 0.230879 0.972982 -0.000000
vn -0.250209 0.968192 0.000000
vn -0.250209 0.968192 0.000000
vn -0.250209 0.968192 0.000000
vn -0.250209 0.968192 0.000000
vn 0.338818 0.940852 -0.000000
vn 0.338818 0.940852 -0.000000
vn 0.338818 0.940852 -0.000000
vn 0.338818 0.940852 -0.000000
vn -0.299990 0.953942 0.000000
vn -0.299990 0.953942 0.000000
vn -0.299990 0.953942 0.000000
vn -0.299990 0.953942 0.000000
vn 0.028302 0.999599 -0.000000
vn 0.028302 0.999599 -0.000000
vn 0.028302 0.999599 -0.000000
vn 0.028302 0.999599 -0.000000
vn -0.402269 -0.915521 0.000000
vn -0.402269 -0.915521 0.000000
vn -0.402269 -0.915521 0.000000
vn -0.402269 -0.915521 0.000000
vn 0.027867 -0.999612 0.000000
vn 0.027867 -0.999612 0.000000
vn 0.027867 -0.999612 0.000000
vn 0.027867 -0.999612 0.000000
vn -0.195268 0.980750 0.000000
vn -0.195268 0.980750 0.000000
vn -0.195268 0.980750 0.000000
vn -0.195268 0.980750 0.000000
vn -0.984982 0.172659 0.000001
vn -0.984982 0.172659 0.000001
vn -0.984982 0.172659 0.000001
vn -0.984982 0.172659 0.000001
vn -0.130869 -0.991400 0.000000
vn -0.130869 -0.991400 0.000000
vn -0.130869 -0.991400 0.000000
vn -0.130869 -0.991400 0.000000
vn 0.280389 -0.959886 -0.000000
vn 0.280389 -0.959886 -0.000000
vn 0.280389 -0.959886 -0.000000
vn 0.280389 -0.959886 -0.000000
vn -0.428418 -0.903581 0.000000
vn -0.428418 -0.903581 0.000000
vn -0.428418 -0.903581 0.000000
vn -0.428418 -0.903581 0.000000
vn 0.361955 -0.932196 -0.000000
vn 0.361955 -0.932196 -0.000000
vn 0.361955 -0.932196 -0.000000
vn 0.361955 -0.932196 -0.000000
vn -0.329212 -0.944256 0.000000
vn -0.329211 -0.944256 0.000000
vn -0.329212 -0.944256 0.000000
vn -0.329211 -0.944256 0.000000
vn 0.171132 -0.985248 -0.000000
vn 0.171132 -0.985248 -0.000000
vn 0.171132 -0.985248 -0.000000
vn 0.171132 -0.985248 -0.000000
vn -0.001617 -0.999999 0.000000
vn -0.001617 -0.999999 0.000000
vn -0.001617 -0.999999 0.000000
vn -0.001617 -0.999999 0.000000
vn 0.774772 0.632241 -0.000001
vn 0.774772 0.632241 -0.000001
vn 0.774772 0.632241 -0.000001
vn 0.774772 0.632241 -0.000001
vn 0.152788 0.988259 -0.000000
vn 0.152788 0.988259 -0.000000
vn 0.152788 0.988259 -0.000000
vn 0.152788 0.988259 -0.000000
vn 0.032641 -0.999467 0.000000
vn -0.004463 -0.999972 -0.005970
vn 0.005007 -0.999974 0.005155
vn 0.000000 -0.998675 0.051470
vn 0.002644 -0.999996 0.000625
vn 0.000000 -0.998675 0.051470
vn 0.000592 -1.000000 0.000463
vn -0.032641 -0.999467 0.000000
vn -0.005007 -0.999974 -0.005155
vn -0.032641 -0.999467 0.000000
vn 0.004463 -0.999972 0.005970
vn 0.000000 -0.998675 -0.051470
vn -0.002644 -0.999996 -0.000625
vn 0.000000 -0.998675 -0.051470
vn -0.000592 -1.000000 -0.000463
vn 0.032641 -0.999467 0.000000
vn 0.000000 0.000000 1.000000
vn 0.000000 -0.000000 1.000000
vn -0.000002 0.000000 1.000000
vn -0.000002 0.000000 1.000000
vn -0.000000 0.000000 1.000000
vn -0.000000 0.000000 1.000000
vn -0.000000 0.000000 1.000000
vn 0.000000 0.000000 1.000000
vn 0.000000 0.000000 1.000000
vn 0.000000 0.000000 1.000000
vn -0.000000 0.000000 1.000000
vn 0.000000 -0.000000 1.000000
vn -0.000000 0.000000 1.000000
vn 0.000000 -0.000000 1.000000
vn -0.000000 -0.000000 1.000000
vn -0.000001 -0.000004 1.000000
vn 0.000000 0.000000 1.000000
vn 0.000001 0.000000 1.000000
vn -0.000002 0.000001 1.000000
vn -0.000003 0.000002 1.000000
vn 0.000001 0.000000 1.000000
vn 0.000000 0.000000 1.000000
vn -0.000000 -0.000001 1.000000
vn -0.000001 -0.000003 1.000000
vn 0.000000 -0.000005 1.000000
vn -0.000002 -0.000001 1.000000
vn 0.000000 0.000000 1.000000
vn -0.000003 0.000002 1.000000
vn 0.000000 0.000000 1.000000
vn 0.000000 -0.000004 1.000000
vn -0.000004 0.000018 1.000000
vn 0.000000 0.000001 1.000000
vn -0.613484 -0.497268 0.613483
vn -0.613484 -0.497268 -0.613483
vn 0.613484 -0.497268 -0.613483
vn 0.613484 -0.497268 0.613483
vn -0.000004 -0.000002 1.000000
vn -0.000001 -0.000002 1.000000
vn 0.000001 -0.000002 1.000000
vn -0.000037 -0.000000 1.000000
vn -0.000004 -0.000001 1.000000
vn 0.000001 0.000000 1.000000
vn 0.000000 -0.000003 1.000000
vn -0.000003 -0.000003 1.000000
vn -0.000001 -0.000002 1.000000
vn 0.000000 0.000000 1.000000
vn 0.000000 0.000000 1.000000
vn 0.000000 0.000000 1.000000
vn -0.000002 0.000001 1.000000
vn -0.000003 0.000003 1.000000
vn -0.000003 0.000012 1.000000
vn -0.000000 0.000000 1.000000
vn 0.000000 -0.000002 1.000000
vn -0.000000 0.000000 1.000000
vn 0.000002 -0.000003 1.000000
vn 0.000000 0.000000 1.000000
vn 0.000001 0.000000 1.000000
vn 0.000000 0.000000 1.000000
vn -0.000001 -0.000000 1.000000
vn -0.000000 0.000000 1.000000
vn -0.000004 -0.000002 1.000000
vn 0.000002 0.000000 1.000000
vn 0.000001 0.000000 1.000000
vn 0.000000 0.000000 1.000000
vn 0.000002 0.000000 1.000000
vn 0.000001 0.000000 1.000000
vn 0.000004 0.000002 1.000000
vn -0.000001 0.000000 1.000000
vn 0.000000 -0.000000 1.000000
vn 0.000004 -0.000002 1.000000
vn 0.000002 -0.000001 1.000000
vn 0.000000 -0.000000 1.000000
vn 0.000000 -0.000001 1.000000
vn 0.000002 -0.000023 1.000000
vn 0.000000 0.000000 1.000000
vn 0.000000 0.000000 1.000000
vn 0.000000 0.000000 1.000000
vn -0.000000 0.000000 1.000000
vn -0.000000 0.000000 1.000000
vn -0.000000 -0.000000 1.000000
vn 0.000001 -0.000003 1.000000
vn 0.000005 -0.000003 1.000000
vn 0.000001 0.000006 1.000000
vn -0.000000 0.000000 1.000000
vn 0.000003 0.000004 1.000000
vn 0.000001 0.000001 1.000000
vn -0.000001 0.000000 1.000000
vn -0.000000 0.000000 1.000000
vn -0.000000 0.000000 1.000000
vn 0.000000 0.000000 1.000000
vn -0.000000 0.000000 1.000000
s 1
g pCube1
usemtl initialShadingGroup
f 15/1/1 16/2/2 72/3/3
f 72/3/3 16/2/2 73/4/4
f 16/2/2 3/5/5 73/4/4
s 2
f 1/6/6 17/7/7 77/8/8
f 18/9/9 76/10/10 17/7/7
f 17/7/7 76/10/10 77/8/8
s 3
f 12/11/11 13/12/12 84/13/13
f 84/13/13 13/12/12 85/14/14
f 13/12/12 2/15/15 85/14/14
s 4
f 39/16/16 89/213/17 40/215/18
f 89/214/17 88/19/19 40/18/18
f 88/19/19 41/20/20 40/18/18
s 5
f 43/21/21 92/236/22 65/23/23
f 92/236/22 91/24/24 65/23/23
f 91/24/24 66/25/25 65/23/23
s 6
f 49/26/26 98/211/27 50/28/28
f 98/211/27 97/29/29 50/28/28
f 97/29/29 51/30/30 50/28/28
s 7
f 60/31/31 95/235/32 59/33/33
f 95/235/32 94/34/34 59/33/33
f 58/35/35 59/33/33 94/34/34
s 8
f 4/36/36 14/37/37 80/38/38
f 8/39/39 81/40/40 14/37/37
f 81/40/40 80/38/38 14/37/37
s 5
f 39/230/41 47/41/42 89/17/43
f 89/17/43 47/41/42 90/42/44
f 90/42/44 47/41/42 46/43/45
s 7
f 43/234/46 45/44/47 92/22/48
f 92/22/48 45/44/47 93/45/49
f 93/45/49 45/44/47 44/46/50
s 6
f 60/225/51 70/47/52 95/32/53
f 95/32/53 70/47/52 96/48/54
f 96/48/54 70/47/52 71/49/55
s 4
f 49/226/56 54/210/57 98/27/58
f 98/212/58 54/50/57 99/51/59
f 99/51/59 54/50/57 55/52/60
s 13
f 158/53/61 159/54/62 157/55/63
f 155/56/64 156/57/65 159/54/62
f 156/57/65 157/55/63 159/54/62
s 14
f 10/58/66 9/59/67 7/60/68 6/61/69
f 11/62/70 10/58/66 6/61/69 5/63/71
f 5/63/71 6/61/69 20/64/72 19/65/73
f 6/61/69 7/60/68 21/66/74 20/64/72
s off
f 2/15/75 13/12/76 34/67/77 27/68/78
f 14/37/79 4/36/80 25/69/81 35/70/82
f 13/12/83 12/11/84 28/71/85 34/67/86
f 8/39/87 14/37/88 35/70/89 24/72/90
f 3/5/91 16/2/92 36/73/93 33/74/94
f 17/7/95 1/6/96 31/75/97 37/76/98
f 16/2/99 15/1/100 22/77/101 36/73/102
f 18/9/103 17/7/104 37/76/105 30/78/106
s 14
f 43/234/107 42/233/108 9/59/67 45/44/109
f 62/231/110 7/60/68 9/59/67 42/233/108
f 61/224/111 11/62/70 5/63/71 67/232/112
f 67/232/112 5/63/71 19/65/73 48/83/113
f 38/229/114 21/66/74 7/60/68 62/231/110
s 5
f 64/85/115 23/86/116 22/77/117 46/43/45
f 66/25/25 24/72/118 23/86/116 64/85/115
s 7
f 26/87/119 25/69/120 44/46/50 56/88/121
f 27/68/122 26/87/119 56/88/121 58/35/35
s 6
f 69/89/123 29/90/124 28/71/125 71/49/55
f 51/30/30 30/78/126 29/90/124 69/89/123
s 18
f 160/91/127 161/92/128 162/93/129 135/94/130
s 14
f 38/229/114 39/16/131 40/215/132 21/66/74
f 21/66/74 40/215/132 52/228/133 20/64/72
s 4
f 40/18/18 41/20/20 53/96/134 52/95/135
s 7
f 44/46/50 45/44/47 57/97/136 56/88/121
s 14
f 45/44/109 9/59/67 10/58/66 57/97/137
f 48/227/113 50/28/138 68/98/139 67/82/112
s 6
f 50/28/28 51/30/30 69/89/123 68/98/140
s 14
f 20/64/72 52/228/133 54/210/141 19/65/73
s 4
f 52/95/135 53/96/134 55/52/60 54/50/57
s 14
f 49/226/142 48/83/113 19/65/73 54/210/141
s 7
f 56/88/121 57/97/136 59/33/33 58/35/35
s 14
f 57/97/137 10/58/66 11/62/70 59/33/143
f 59/33/143 11/62/70 61/224/111 60/31/144
s 5
f 46/43/45 47/41/42 63/99/145 64/85/115
s 14
f 47/41/146 38/84/114 62/80/110 63/99/147
s 5
f 64/85/115 63/99/145 65/23/23 66/25/25
s 14
f 63/99/147 62/80/110 42/79/108 65/23/148
f 67/82/112 68/98/139 70/47/149 61/81/111
s 6
f 68/98/140 69/89/123 71/49/55 70/47/52
s 19
f 72/3/150 73/4/151 75/100/152 74/223/153
f 74/223/153 75/100/152 88/19/154 90/222/155
s 20
f 77/8/156 76/10/157 79/220/158 78/103/159
f 78/103/159 79/220/158 97/221/160 99/51/161
s 21
f 80/38/162 81/40/163 83/218/164 82/105/165
f 82/105/165 83/218/164 91/219/166 93/45/167
s 22
f 84/13/168 85/14/169 87/106/170 86/217/171
f 86/217/171 87/106/170 94/34/172 96/216/173
s 4
f 75/100/174 73/4/175 3/5/176 33/74/177
s 7
f 82/105/178 25/69/120 4/36/179 80/38/180
s 6
f 79/102/181 76/10/182 18/9/183 30/78/126
s 5
f 74/101/184 22/77/117 15/1/185 72/3/186
s 4
f 78/103/187 31/75/188 1/6/189 77/8/190
s 7
f 2/15/191 27/68/122 87/106/192 85/14/193
s 5
f 83/104/194 81/40/195 8/39/196 24/72/118
s 6
f 86/107/197 28/71/125 12/11/198 84/13/199
s 5
f 46/43/45 22/77/117 74/101/184 90/42/44
f 83/104/194 24/72/118 66/25/25 91/24/24
s 7
f 82/105/178 93/45/49 44/46/50 25/69/120
f 87/106/192 27/68/122 58/35/35 94/34/34
s 6
f 71/49/55 28/71/125 86/107/197 96/48/54
f 79/102/181 30/78/126 51/30/30 97/29/29
s 4
f 55/52/60 31/75/188 78/103/187 99/51/59
f 75/100/174 33/74/177 41/20/20 88/19/19
s 23
f 179/108/200 180/109/201 181/110/202 182/111/203
f 182/111/203 183/112/204 184/113/205 179/108/200
s 24
f 185/114/206 186/115/207 187/116/208 188/117/209
f 188/117/209 189/118/210 190/119/211 185/114/206
s 25
f 191/120/212 192/121/213 193/122/214 194/123/215
s off
f 130/124/216 134/125/217 156/57/218 155/56/219
f 134/125/220 133/126/221 157/55/222 156/57/223
f 133/126/224 132/127/225 158/53/226 157/55/227
f 132/127/228 131/128/229 159/54/230 158/53/231
f 131/128/232 130/124/233 155/56/234 159/54/235
f 148/129/236 151/130/237 161/92/238 160/91/239
f 151/130/240 149/131/241 162/93/242 161/92/243
f 152/132/244 154/133/245 164/134/246 163/135/247
f 154/133/248 153/136/249 165/137/250 164/134/251
f 147/138/252 152/132/253 163/135/254 166/139/255
f 153/136/256 150/140/257 167/141/258 165/137/259
f 150/140/260 148/129/261 160/91/262 167/141/263
f 136/142/264 140/143/265 169/144/266 168/145/267
f 140/143/268 139/146/269 170/147/270 169/144/271
f 139/146/272 138/148/273 171/149/274 170/147/275
f 138/148/276 137/150/277 172/151/278 171/149/279
f 137/150/280 147/138/281 166/139/282 172/151/283
f 149/131/284 146/152/285 173/153/286 162/93/287
f 146/152/288 145/154/289 174/155/290 173/153/291
f 145/154/292 144/156/293 175/157/294 174/155/295
f 144/156/296 143/158/297 176/159/298 175/157/299
f 143/158/300 142/160/301 177/161/302 176/159/303
f 142/160/304 141/162/305 178/163/306 177/161/307
f 141/162/308 136/142/309 168/145/310 178/163/311
f 101/164/312 103/165/313 180/109/314 179/108/315
f 103/165/316 102/166/317 181/110/318 180/109/319
f 102/166/320 100/167/321 182/111/322 181/110/323
f 100/167/324 105/168/325 183/112/326 182/111/327
f 105/168/328 104/169/329 184/113/330 183/112/331
f 104/169/332 101/164/333 179/108/334 184/113/335
f 107/170/336 109/171/337 186/115/338 185/114/339
f 109/171/340 108/172/341 187/116/342 186/115/343
f 108/172/344 106/173/345 188/117/346 187/116/347
f 106/173/348 111/174/349 189/118/350 188/117/351
f 111/174/352 110/175/353 190/119/354 189/118/355
f 110/175/356 107/170/357 185/114/358 190/119/359
f 123/176/360 130/124/361 192/121/362 191/120/363
f 130/124/364 129/177/365 193/122/366 192/121/367
f 129/177/368 124/178/369 194/123/370 193/122/371
f 124/178/372 128/179/373 195/180/374 194/123/375
f 128/179/376 127/181/377 196/182/378 195/180/379
f 127/181/380 126/183/381 197/184/382 196/182/383
f 126/183/384 125/185/385 198/186/386 197/184/387
f 125/185/388 123/176/389 191/120/390 198/186/391
f 113/187/392 117/188/393 200/189/394 199/190/395
f 117/188/396 116/191/397 201/192/398 200/189/399
f 116/191/400 115/193/401 202/194/402 201/192/403
f 115/193/404 114/195/405 203/196/406 202/194/407
f 114/195/408 112/197/409 204/198/410 203/196/411
f 112/197/412 122/199/413 205/200/414 204/198/415
f 122/199/416 121/201/417 206/202/418 205/200/419
f 121/201/420 120/203/421 207/204/422 206/202/423
f 120/203/424 119/205/425 208/206/426 207/204/427
f 119/205/428 118/207/429 209/208/430 208/206/431
f 118/207/432 113/187/433 199/190/434 209/208/435
s 26
f 24/72/436 35/70/437 23/86/438
f 25/69/439 26/87/440 35/70/437
f 27/68/441 34/67/442 26/87/440
f 28/71/443 29/90/444 34/67/442
f 30/78/445 37/76/446 29/90/444
f 31/75/447 32/209/448 37/76/446
f 33/74/449 36/73/450 32/209/448
f 22/77/451 23/86/438 36/73/450
f 35/70/437 26/87/440 23/86/438
f 23/86/438 26/87/440 36/73/450
f 36/73/450 26/87/440 32/209/448
f 26/87/440 34/67/442 32/209/448
f 34/67/442 29/90/444 32/209/448
f 29/90/444 37/76/446 32/209/448
s 4
f 124/178/452 112/197/453 128/179/454
f 112/197/453 114/195/455 128/179/454
f 114/195/455 115/193/456 128/179/454
f 128/179/454 115/193/456 127/181/457
f 127/181/457 115/193/456 126/183/458
f 115/193/456 116/191/459 126/183/458
f 100/167/460 102/166/461 107/170/462
f 107/170/462 102/166/461 109/171/463
f 106/173/464 108/172/465 113/187/466
f 113/187/466 108/172/465 117/188/467
f 136/142/468 123/176/469 140/143/470
f 123/176/469 125/185/471 140/143/470
f 125/185/471 126/183/458 140/143/470
f 140/143/470 126/183/458 139/146/472
f 126/183/458 116/191/459 139/146/472
f 117/188/467 108/172/465 116/191/459
f 32/209/473 31/75/188 101/164/474
f 101/164/474 31/75/188 103/165/475
f 152/132/476 147/138/477 154/133/478
f 147/138/477 137/150/479 154/133/478
f 137/150/479 138/148/480 154/133/478
f 103/165/475 31/75/188 102/166/461
f 102/166/461 31/75/188 109/171/463
f 109/171/463 31/75/188 108/172/465
f 153/136/481 154/133/478 150/140/482
f 31/75/188 55/52/60 108/172/465
f 53/96/134 148/129/483 55/52/60
f 148/129/483 150/140/482 55/52/60
f 150/140/482 154/133/478 55/52/60
f 108/172/465 55/52/60 116/191/459
f 116/191/459 55/52/60 139/146/472
f 139/146/472 55/52/60 138/148/480
f 154/133/478 138/148/480 55/52/60
s 14
f 39/230/131 38/84/114 47/41/146
f 42/79/108 43/21/107 65/23/148
f 48/227/113 49/26/142 50/28/138
f 60/225/144 61/81/111 70/47/149
s 19
f 88/19/154 89/214/484 90/222/155
s 21
f 91/219/166 92/22/485 93/45/167
s 22
f 94/34/172 95/235/486 96/216/173
s 20
f 97/221/160 98/212/487 99/51/161
s 18
f 163/135/488 164/134/489 165/137/490
f 160/91/127 135/94/130 167/141/491
f 167/141/491 135/94/130 165/137/490
f 165/137/490 135/94/130 163/135/488
f 166/139/492 163/135/488 135/94/130
s 40
f 204/198/493 199/190/494 203/196/495
f 199/190/494 200/189/496 203/196/495
f 203/196/495 200/189/496 202/194/497
f 200/189/496 201/192/498 202/194/497
s 25
f 197/184/499 198/186/500 196/182/501
f 198/186/500 191/120/212 196/182/501
f 191/120/212 194/123/215 196/182/501
f 194/123/215 195/180/502 196/182/501
s 40
f 208/206/503 209/208/504 207/204/505
f 204/198/493 205/200/506 199/190/494
f 199/190/494 205/200/506 209/208/504
f 205/200/506 206/202/507 209/208/504
f 206/202/507 207/204/505 209/208/504
s 18
f 170/147/508 171/149/509 169/144/510
f 135/94/130 168/145/511 166/139/492
f 168/145/511 169/144/510 166/139/492
f 166/139/492 169/144/510 172/151/512
f 169/144/510 171/149/509 172/151/512
f 175/157/513 176/159/514 174/155/515
f 135/94/130 162/93/129 168/145/511
f 174/155/515 176/159/514 173/153/516
f 176/159/514 177/161/517 173/153/516
f 162/93/129 173/153/516 168/145/511
f 168/145/511 173/153/516 178/163/518
f 173/153/516 177/161/517 178/163/518
s 4
f 100/167/460 107/170/462 105/168/519
f 107/170/462 110/175/520 105/168/519
f 124/178/452 129/177/521 112/197/453
f 112/197/453 129/177/521 122/199/522
f 106/173/464 113/187/466 111/174/523
f 113/187/466 118/207/524 111/174/523
f 136/142/468 141/162/525 123/176/469
f 129/177/521 130/124/526 122/199/522
f 122/199/522 130/124/526 121/201/527
f 130/124/526 131/128/528 121/201/527
f 131/128/528 132/127/529 121/201/527
f 121/201/527 132/127/529 120/203/530
f 120/203/530 132/127/529 119/205/531
f 32/209/473 101/164/474 33/74/177
f 101/164/474 104/169/532 33/74/177
f 149/131/533 151/130/534 146/152/535
f 104/169/532 105/168/519 33/74/177
f 105/168/519 110/175/520 33/74/177
f 110/175/520 111/174/523 33/74/177
f 118/207/524 119/205/531 111/174/523
f 111/174/523 119/205/531 33/74/177
f 130/124/536 123/176/469 134/125/537
f 123/176/469 141/162/525 134/125/537
f 141/162/525 142/160/538 134/125/537
f 142/160/538 143/158/539 134/125/537
f 134/125/537 143/158/539 133/126/540
f 143/158/539 144/156/541 133/126/540
f 133/126/540 144/156/541 132/127/529
f 33/74/177 119/205/531 41/20/20
f 53/96/134 41/20/20 148/129/483
f 148/129/483 41/20/20 151/130/534
f 151/130/534 41/20/20 146/152/535
f 146/152/535 41/20/20 145/154/542
f 119/205/531 132/127/529 41/20/20
f 132/127/529 144/156/541 41/20/20
f 41/20/20 144/156/541 145/154/542
g default
v -0.366721 0.994152 0.396271
v 0.476091 0.994152 0.254660
v -0.476091 0.994152 -0.254660
v 0.366721 0.994152 -0.396271
v -0.366721 1.039384 0.396271
v -0.364004 1.047379 0.392456
v -0.357445 1.050691 0.383247
v 0.463068 1.050691 0.245383
v 0.472277 1.047379 0.251943
v 0.476091 1.039384 0.254660
v -0.463068 1.050691 -0.245383
v -0.472277 1.047379 -0.251943
v -0.476091 1.039384 -0.254660
v 0.357445 1.050691 -0.383247
v 0.364004 1.047379 -0.392456
v 0.366721 1.039384 -0.396271
vt -0.000000 0.165617
vt 0.171819 0.224272
vt 0.307572 0.210583
vt 0.073606 0.389519
vt 0.119097 0.009285
vt 0.118472 0.005454
vt 0.317072 0.201217
vt 0.313512 0.198848
vt 0.117855 0.002452
vt 0.319674 0.203243
vt 0.173760 0.216512
vt 0.016212 0.151743
vt 0.010421 0.155582
vt 0.171091 0.217665
vt 0.172927 0.217320
vt 0.012978 0.153703
vt 0.082102 0.400996
vt 0.103532 0.000008
vn 0.000000 -1.000000 0.000000
vn 0.000000 -1.000000 0.000000
vn 0.000000 -1.000000 0.000000
vn 0.000000 -1.000000 0.000000
vn -0.004433 0.999955 0.008338
vn 0.063410 0.923880 0.377393
vn 0.063410 0.923880 0.377393
vn 0.006915 0.999955 0.006431
vn 0.153085 0.382683 0.911109
vn 0.165497 0.049241 0.984980
vn 0.165497 0.049241 0.984980
vn 0.153085 0.382683 0.911109
vn 0.165698 0.000000 0.986177
vn 0.165698 0.000000 0.986177
vn 0.004433 0.999955 -0.008338
vn -0.006915 0.999955 -0.006431
vn -0.165497 0.049241 -0.984980
vn -0.165497 0.049241 -0.984980
vn -0.165698 0.000000 -0.986177
vn -0.165698 0.000000 -0.986177
vn 0.986176 0.000000 -0.165698
vn 0.986176 0.000000 -0.165698
vn 0.984983 0.049192 -0.165498
vn 0.984983 0.049192 -0.165498
vn -0.986176 0.000000 0.165698
vn -0.986176 0.000000 0.165698
vn -0.984983 0.049192 0.165498
vn -0.984983 0.049192 0.165498
vn 0.377396 0.923878 -0.063411
vn 0.377396 0.923878 -0.063411
vn 0.911106 0.382690 -0.153085
vn 0.911106 0.382690 -0.153085
vn -0.911106 0.382690 0.153085
vn -0.911106 0.382690 0.153085
vn -0.377396 0.923878 0.063410
vn -0.377396 0.923878 0.063410
vn -0.153085 0.382683 -0.911109
vn -0.153085 0.382683 -0.911109
vn -0.063410 0.923880 -0.377393
vn -0.063410 0.923880 -0.377393
s off
g pCube2
usemtl initialShadingGroup
f 212/237/543 213/238/544 211/239/545 210/240/546
s 1
f 216/241/547 215/242/548 218/243/549 217/244/550
s 2
f 215/242/551 214/245/552 219/246/553 218/243/554
f 210/240/555 211/239/556 219/246/553 214/253/552
s 1
f 216/241/547 217/244/550 223/247/557 220/248/558
s 3
f 222/249/559 225/250/560 213/238/561 212/237/562
s 4
f 211/239/563 213/238/564 225/250/565 219/246/566
s 5
f 212/237/567 210/254/568 214/245/569 222/249/570
s 1
f 217/244/550 218/243/571 224/251/572 223/247/557
s 4
f 218/243/573 219/246/566 225/250/565 224/251/574
s 5
f 214/245/569 215/242/575 221/252/576 222/249/570
s 1
f 215/242/577 216/241/547 220/248/558 221/252/578
s 3
f 222/249/559 221/252/579 224/251/580 225/250/560
s 1
f 221/252/581 220/248/558 223/247/557 224/251/582
g default
v 0.590121 0.994072 0.330843
v 0.618898 0.994072 0.333668
v 0.590121 1.018030 0.330843
v 0.618898 1.018030 0.333668
v 0.583932 1.004646 -0.381204
v 0.703628 1.004646 -0.529404
v 0.622739 1.018030 -0.001413
v 0.622739 0.994072 -0.001413
v 0.651516 0.994072 0.001413
v 0.651516 1.018030 0.001413
v 0.552595 1.004478 -0.062009
v 0.656618 1.018030 -0.050556
v 0.656618 0.994072 -0.050556
v 0.665494 0.994072 0.002785
v 0.632876 0.994072 0.335041
v 0.665494 1.018030 0.002785
v 0.632876 1.018030 0.335041
v 0.590361 1.018030 0.328394
v 0.590361 0.994072 0.328394
v 0.619139 0.994072 0.331219
v 0.633116 0.994072 0.332591
v 0.633116 1.018030 0.332591
v 0.619139 1.018030 0.331219
v 0.590621 0.994072 0.325750
v 0.590621 1.018030 0.325750
v 0.619398 1.018030 0.328575
v 0.633376 1.018030 0.329947
v 0.633376 0.994072 0.329947
v 0.619398 0.994072 0.328575
v 0.591630 0.994072 0.330992
v 0.591630 1.018030 0.330992
v 0.591871 1.018030 0.328542
v 0.592130 1.018030 0.325898
v 0.624249 1.018030 -0.001264
v 0.558053 1.005735 -0.061408
v 0.593137 1.004646 -0.418784
v 0.558053 1.004478 -0.061408
v 0.624249 0.994072 -0.001264
v 0.592130 0.994072 0.325898
v 0.591871 0.994072 0.328542
v 0.626470 1.018030 -0.001046
v 0.594351 1.018030 0.326116
v 0.594092 1.018030 0.328760
v 0.593851 1.018030 0.331210
v 0.593851 0.994072 0.331210
v 0.594092 0.994072 0.328760
v 0.594351 0.994072 0.326116
v 0.626470 0.994072 -0.001046
v 0.566081 1.004478 -0.060524
v 0.603545 1.004646 -0.442142
v 0.566081 1.007584 -0.060524
v 0.664620 0.994072 0.002699
v 0.632502 0.994072 0.329861
v 0.632242 0.994072 0.332505
v 0.632002 0.994072 0.334955
v 0.632002 1.018030 0.334955
v 0.632242 1.018030 0.332505
v 0.632502 1.018030 0.329861
v 0.664620 1.018030 0.002699
v 0.663363 0.994072 0.002576
v 0.631245 0.994072 0.329738
v 0.630986 0.994072 0.332382
v 0.630745 0.994072 0.334831
v 0.630745 1.018030 0.334831
v 0.630985 1.018030 0.332382
v 0.631245 1.018030 0.329738
v 0.663363 1.018030 0.002576
v 0.664643 1.018030 -0.002332
v 0.664643 0.994072 -0.002332
v 0.656618 0.995985 -0.050556
v 0.664643 0.995985 -0.002332
v 0.665494 0.995985 0.002785
v 0.633376 0.995985 0.329947
v 0.633116 0.995985 0.332591
v 0.632876 0.995985 0.335041
v 0.632002 0.995985 0.334955
v 0.630745 0.995985 0.334831
v 0.618898 0.995985 0.333668
v 0.593851 0.995985 0.331210
v 0.591630 0.995985 0.330992
v 0.590121 0.995985 0.330843
v 0.590361 0.995985 0.328394
v 0.590621 0.995985 0.325750
v 0.622739 0.995985 -0.001413
v 0.630745 0.994157 0.334831
v 0.618898 0.994157 0.333668
v 0.593851 0.994157 0.331210
v 0.591630 0.994157 0.330992
v 0.590121 0.994157 0.330843
v 0.590361 0.994157 0.328394
v 0.590621 0.994157 0.325750
v 0.622739 0.994157 -0.001413
v 0.619611 0.994072 -0.004115
v 0.621297 0.994072 -0.003946
v 0.623777 0.994072 -0.003699
v 0.651744 0.994072 -0.000905
v 0.663420 0.994072 0.002357
v 0.664659 0.994072 0.002703
v 0.632541 0.994072 0.329865
v 0.632281 0.994072 0.332509
v 0.632041 0.994072 0.334959
v 0.632041 0.995985 0.334959
v 0.632002 0.996968 0.334955
v 0.630745 0.996968 0.334831
v 0.618898 0.996968 0.333668
v 0.593851 0.996968 0.331210
v 0.591630 0.996968 0.330992
v 0.590121 0.996968 0.330843
v 0.590361 0.996968 0.328394
v 0.590621 0.996968 0.325750
v 0.590621 1.016425 0.325750
v 0.590361 1.016425 0.328394
v 0.590121 1.016425 0.330843
v 0.591630 1.016425 0.330992
v 0.593851 1.016425 0.331210
v 0.618898 1.016425 0.333668
v 0.630745 1.016425 0.334831
v 0.632002 1.016425 0.334955
v 0.632002 1.015776 0.334955
v 0.630745 1.015776 0.334831
v 0.618898 1.015776 0.333668
v 0.593851 1.015776 0.331210
v 0.591630 1.015776 0.330992
v 0.590121 1.015776 0.330843
v 0.590361 1.015776 0.328394
v 0.590621 1.015776 0.325750
v 0.633984 1.018030 -0.000309
v 0.601865 1.018030 0.326853
v 0.601606 1.018030 0.329498
v 0.601365 1.018030 0.331947
v 0.601365 1.016425 0.331947
v 0.601365 1.015776 0.331947
v 0.601365 0.996968 0.331947
v 0.601365 0.995985 0.331947
v 0.601365 0.994157 0.331947
v 0.601365 0.994072 0.331947
v 0.601606 0.994072 0.329498
v 0.601865 0.994072 0.326853
v 0.633984 0.994072 -0.000309
v 0.632167 0.994072 -0.002860
v 0.593242 0.994072 -0.057534
v 0.635606 1.004646 -0.489061
v 0.593242 1.011922 -0.057534
v 0.639243 1.018030 0.000208
v 0.607125 1.018030 0.327370
v 0.606866 1.018030 0.330014
v 0.606625 1.018030 0.332464
v 0.606625 1.016425 0.332464
v 0.606625 1.015776 0.332464
v 0.606625 0.996968 0.332464
v 0.606625 0.995985 0.332464
v 0.606625 0.994157 0.332464
v 0.606625 0.994072 0.332464
v 0.606866 0.994072 0.330014
v 0.607125 0.994072 0.327370
v 0.639243 0.994072 0.000208
v 0.638040 0.994072 -0.002274
v 0.612255 0.994072 -0.055441
v 0.656505 1.004646 -0.506177
v 0.612255 1.016301 -0.055441
v 0.645380 1.018030 0.000810
v 0.613262 1.018030 0.327972
v 0.613002 1.018030 0.330617
v 0.612762 1.018030 0.333066
v 0.612762 1.016425 0.333066
v 0.612762 1.015776 0.333066
v 0.612762 0.996968 0.333066
v 0.612762 0.995985 0.333066
v 0.612762 0.994157 0.333066
v 0.612762 0.994072 0.333066
v 0.613002 0.994072 0.330617
v 0.613262 0.994072 0.327972
v 0.645380 0.994072 0.000810
v 0.644892 0.994072 -0.001589
v 0.634437 0.994072 -0.052998
v 0.680311 1.004646 -0.520287
v 0.634437 1.020035 -0.052998
vt 0.290154 0.008231
vt 0.326439 0.005082
vt 0.300866 0.000245
vt 0.290178 0.008232
vt 0.297074 0.007650
vt 0.297522 0.007491
vt 0.297409 0.008373
vt 0.296978 0.008408
vt 0.290151 0.008924
vt 0.326357 0.005744
vt 0.313941 0.005904
vt 0.314409 0.006661
vt 0.313885 0.006834
vt 0.313367 0.006084
vt 0.290175 0.008925
vt 0.319890 0.169283
vt 0.322501 0.177146
vt 0.301413 0.115180
vt 0.302886 0.114827
vt 0.331065 0.111262
vt 0.336923 0.112662
vt 0.337437 0.112795
vt 0.337835 0.222487
vt 0.304360 0.114131
vt 0.299473 0.102399
vt 0.296338 0.104532
vt 0.299449 0.102400
vt 0.307053 0.101189
vt 0.307528 0.101084
vt 0.327470 0.099780
vt 0.327989 0.099678
vt 0.295676 0.104688
vt 0.338342 0.095211
vt 0.309000 0.002766
vt 0.318638 0.006246
vt 0.315069 0.006557
vt 0.313227 0.005031
vt 0.308018 0.008026
vt 0.307908 0.008464
vt 0.304940 0.008423
vt 0.305178 0.007783
vt 0.313213 0.005051
vt 0.308990 0.002787
vt 0.331090 0.097828
vt 0.331512 0.098366
vt 0.328028 0.099194
vt 0.327891 0.098913
vt 0.316046 0.099797
vt 0.319627 0.099299
vt 0.320905 0.100232
vt 0.290165 0.009728
vt 0.326722 0.006391
vt 0.326298 0.006410
vt 0.315422 0.007402
vt 0.318686 0.007018
vt 0.326699 0.098883
vt 0.314353 0.007657
vt 0.314849 0.007501
vt 0.327248 0.098854
vt 0.304769 0.009107
vt 0.307964 0.008917
vt 0.296838 0.009270
vt 0.297259 0.009291
vt 0.306881 0.002094
vt 0.320417 0.005400
vt 0.303304 0.008424
vt 0.303537 0.007740
vt 0.303099 0.009168
vt 0.314165 0.100028
vt 0.325108 0.110864
vt 0.335547 0.214999
vt 0.282781 0.124714
vt 0.332754 0.097304
vt 0.286075 0.107331
vt 0.320387 0.006848
vt 0.320396 0.006092
vt 0.297878 0.009268
vt 0.308228 0.100938
vt 0.298035 0.008339
vt 0.298181 0.007472
vt 0.301370 0.000532
vt 0.301382 0.000511
vt 0.325731 0.005737
vt 0.325674 0.006454
vt 0.337770 0.095463
vt 0.294685 0.104939
vt 0.324567 0.183358
vt 0.299249 0.115580
vt 0.306516 0.113310
vt 0.327488 0.098852
vt 0.315075 0.007472
vt 0.315085 0.007468
vt 0.327504 0.098863
vt 0.314656 0.006595
vt 0.314667 0.006592
vt 0.313998 0.005666
vt 0.314025 0.005689
vt 0.313221 0.005797
vt 0.313211 0.005785
vt 0.308386 0.008442
vt 0.308186 0.008453
vt 0.308190 0.008029
vt 0.308287 0.008062
vt 0.308535 0.008841
vt 0.308301 0.008871
vt 0.320003 0.099249
vt 0.320264 0.099218
vt 0.312822 0.005388
vt 0.312938 0.005909
vt 0.312596 0.005553
vt 0.308629 0.003477
vt 0.308759 0.003238
vt 0.306596 0.002825
vt 0.306702 0.002572
vt 0.300991 0.001235
vt 0.300451 0.000941
vt 0.300599 0.000694
vt 0.301129 0.000989
vt 0.290677 0.008235
vt 0.290941 0.008220
vt 0.290964 0.008919
vt 0.290688 0.008933
vt 0.290952 0.009681
vt 0.290678 0.009709
vt 0.299989 0.102362
vt 0.296212 0.009284
vt 0.296392 0.009270
vt 0.308476 0.007847
vt 0.308625 0.007789
vt 0.308266 0.007786
vt 0.305393 0.007375
vt 0.303720 0.007303
vt 0.297545 0.006822
vt 0.298318 0.006919
vt 0.296695 0.007555
vt 0.296508 0.008421
vt 0.296314 0.008460
vt 0.296389 0.007717
vt 0.297746 0.006529
vt 0.298385 0.006699
vt 0.305462 0.007206
vt 0.303791 0.007125
vt 0.308367 0.007693
vt 0.299964 0.009233
vt 0.310606 0.100528
vt 0.300147 0.008407
vt 0.300343 0.007658
vt 0.300495 0.007182
vt 0.300567 0.006995
vt 0.303068 0.001906
vt 0.303186 0.001656
vt 0.303386 0.001184
vt 0.323669 0.005165
vt 0.323616 0.005852
vt 0.323565 0.006592
vt 0.335796 0.096227
vt 0.291144 0.105898
vt 0.291760 0.118348
vt 0.330051 0.198706
vt 0.313899 0.111430
vt 0.301416 0.009207
vt 0.312257 0.100280
vt 0.301618 0.008432
vt 0.301835 0.007725
vt 0.302000 0.007275
vt 0.302075 0.007096
vt 0.304639 0.002304
vt 0.304749 0.002055
vt 0.304925 0.001576
vt 0.322174 0.005265
vt 0.322132 0.005954
vt 0.322095 0.006703
vt 0.334397 0.096733
vt 0.288735 0.106576
vt 0.287467 0.121022
vt 0.332807 0.206688
vt 0.319097 0.110918
vt 0.333374 0.097739
vt 0.283794 0.107972
vt 0.306888 0.002072
vt 0.318623 0.005552
vt 0.335221 0.097088
vt 0.304933 0.001553
vt 0.336784 0.096509
vt 0.303395 0.001162
vt 0.297399 0.006280
vt 0.297267 0.006421
vt 0.279599 0.108444
vt 0.338941 0.095616
vt 0.339504 0.095250
vt 0.339914 0.094967
vt 0.300083 0.000732
vt 0.338726 0.095027
vt 0.300507 0.000029
vt 0.300238 0.000478
vt 0.280072 0.109462
vt 0.314819 0.005820
vt 0.314052 0.005694
vt 0.325795 0.005058
vt 0.300879 0.000225
vt 0.290142 0.009728
vt 0.326778 0.005784
vt 0.300519 0.000008
vt 0.326863 0.005138
vt 0.278343 0.128850
vn -0.097703 0.000000 0.995216
vn -0.097703 0.000000 0.995216
vn -0.097703 0.000000 0.995216
vn -0.097703 0.000000 0.995216
vn 0.000000 1.000000 -0.000000
vn 0.000000 1.000000 -0.000000
vn 0.000000 1.000000 -0.000000
vn -0.000000 1.000000 0.000000
vn 0.000000 -1.000000 -0.000000
vn -0.000000 -1.000000 0.000000
vn 0.000000 -1.000000 -0.000000
vn 0.000000 -1.000000 -0.000000
vn 0.995214 0.000000 0.097719
vn 0.995216 0.000000 0.097703
vn 0.995215 -0.000000 0.097706
vn 0.995214 0.000000 0.097719
vn -0.995214 0.000000 -0.097719
vn -0.995216 0.000000 -0.097703
vn -0.995216 0.000000 -0.097703
vn -0.995214 0.000000 -0.097719
vn -0.001660 -0.999998 -0.000658
vn -0.000659 -1.000000 -0.000519
vn 0.000721 -0.999872 -0.015980
vn -0.000800 -0.999967 -0.008066
vn 0.995216 -0.000002 0.097702
vn 0.995216 -0.000002 0.097702
vn 0.995216 -0.000002 0.097702
vn 0.995216 -0.000002 0.097702
vn -0.119798 0.992715 -0.012857
vn -0.123894 0.992182 -0.015032
vn -0.120482 0.992568 -0.017114
vn -0.117658 0.992970 -0.012904
vn -0.862728 0.000000 0.505668
vn -0.653730 0.000001 0.756728
vn -0.995703 0.000000 -0.092608
vn -0.066506 0.997776 -0.004374
vn -0.052500 0.998621 -0.000293
vn 0.986437 -0.000001 -0.164140
vn 0.986437 -0.000001 -0.164140
vn 0.986437 0.000001 -0.164140
vn 0.986437 0.000001 -0.164140
vn 0.021556 -0.979525 -0.200167
vn 0.021329 -0.979958 -0.198059
vn 0.000000 -1.000000 -0.000000
vn -0.000000 -1.000000 0.000000
vn -0.000000 -1.000000 0.000000
vn -0.000000 -1.000000 0.000000
vn 0.000000 -1.000000 -0.000000
vn -0.000000 -1.000000 0.000000
vn 0.000000 1.000000 0.000000
vn 0.000000 1.000000 0.000000
vn 0.000000 1.000000 0.000000
vn 0.000000 1.000000 0.000000
vn -0.097703 0.000000 0.995216
vn -0.097703 0.000000 0.995216
vn -0.097703 0.000000 0.995216
vn -0.097703 0.000000 0.995216
vn 0.000000 -1.000000 0.000000
vn 0.000000 -1.000000 -0.000000
vn 0.000000 -1.000000 -0.000000
vn 0.000000 -1.000000 0.000000
vn 0.041846 0.998846 -0.023549
vn 0.007310 0.999972 0.001599
vn -0.000000 1.000000 0.000000
vn 0.000000 1.000000 0.000000
vn -0.995216 0.000000 -0.097703
vn -0.995216 0.000000 -0.097703
vn -0.000000 -1.000000 0.000000
vn 0.000000 -1.000000 -0.000000
vn 0.000000 -1.000000 -0.000000
vn 0.000000 -1.000000 0.000000
vn 0.995602 -0.000001 0.093684
vn 0.995216 -0.000001 0.097702
vn 0.995216 0.000000 0.097702
vn 0.995602 0.000000 0.093684
vn -0.000000 1.000000 0.000000
vn -0.000000 1.000000 0.000000
vn 0.000000 1.000000 -0.000000
vn -0.000000 1.000000 0.000000
vn -0.097703 0.000000 0.995216
vn -0.097703 0.000000 0.995216
vn -0.000000 1.000000 0.000000
vn 0.000000 1.000000 0.000000
vn -0.000000 1.000000 0.000000
vn -0.003906 0.999961 0.007878
vn -0.025847 0.999281 -0.027724
vn -0.000253 0.999546 -0.030129
vn 0.040146 0.998844 -0.026435
vn -0.004327 -0.999757 -0.021625
vn -0.004148 -0.999728 -0.022964
vn -0.003326 -0.999737 -0.022673
vn -0.003094 -0.999773 -0.021086
vn 0.000000 -1.000000 0.000000
vn 0.000000 -1.000000 -0.000000
vn 0.000000 -1.000000 0.000000
vn 0.000000 -1.000000 -0.000000
vn -0.000000 -1.000000 0.000000
vn 0.000000 1.000000 -0.000000
vn -0.040875 0.999103 -0.011042
vn -0.000000 1.000000 0.000000
vn -0.000000 1.000000 0.000000
vn -0.097703 0.000000 0.995216
vn -0.097703 0.000000 0.995216
vn 0.000000 -1.000000 -0.000000
vn 0.000000 -1.000000 -0.000000
vn -0.000000 -1.000000 0.000000
vn -0.000000 -1.000000 0.000000
vn -0.269655 -0.952872 0.138999
vn -0.190142 -0.981260 -0.031233
vn -0.155381 -0.987527 -0.025436
vn -0.098391 0.994943 -0.020193
vn -0.089698 0.995746 -0.021090
vn 0.000000 -1.000000 -0.000000
vn 0.000000 -1.000000 -0.000000
vn 0.000000 -1.000000 -0.000000
vn 0.000000 -1.000000 0.000000
vn 0.000000 -1.000000 -0.000000
vn -0.000000 -1.000000 0.000000
vn -0.000000 -1.000000 0.000001
vn 0.000000 -1.000000 0.000000
vn -0.097703 0.000000 0.995216
vn -0.097703 0.000000 0.995216
vn -0.097703 0.000000 0.995216
vn -0.097703 0.000000 0.995216
vn -0.000000 1.000000 0.000000
vn -0.000000 1.000000 0.000000
vn -0.000000 1.000000 0.000000
vn -0.000000 1.000000 0.000000
vn 0.000000 1.000000 0.000000
vn 0.000000 1.000000 0.000000
vn 0.000000 1.000000 0.000000
vn 0.000000 1.000000 0.000000
vn -0.097703 0.000000 0.995216
vn 0.986437 -0.000001 -0.164140
vn 0.986437 -0.000001 -0.164140
vn 0.995602 -0.000001 0.093684
vn 0.995216 -0.000001 0.097702
vn 0.995215 -0.000000 0.097706
vn 0.995214 0.000000 0.097719
vn -0.097703 0.000000 0.995216
vn -0.097703 0.000000 0.995216
vn -0.097703 0.000000 0.995216
vn -0.097703 0.000000 0.995216
vn -0.097703 0.000000 0.995216
vn -0.097703 0.000000 0.995216
vn -0.097703 0.000000 0.995216
vn -0.097703 0.000000 0.995216
vn -0.097703 0.000000 0.995216
vn -0.097703 0.000000 0.995216
vn -0.097703 0.000000 0.995216
vn -0.097703 0.000000 0.995216
vn -0.995214 0.000000 -0.097719
vn -0.995216 0.000000 -0.097703
vn -0.995216 0.000000 -0.097703
vn -0.995214 0.000000 -0.097719
vn -0.995216 0.000000 -0.097703
vn -0.995216 0.000000 -0.097703
vn -0.999961 0.000000 0.008779
vn -0.994855 0.000000 0.101310
vn -0.995216 0.000000 -0.097703
vn -0.995216 0.000000 -0.097703
vn -0.995216 0.000000 -0.097703
vn -0.653730 0.000001 0.756728
vn 0.000000 -1.000000 -0.000000
vn 0.000000 -1.000000 -0.000000
vn 0.000000 -1.000000 -0.000000
vn 0.000000 -1.000000 -0.000000
vn 0.000000 -1.000000 0.000000
vn -0.097703 0.000000 0.995216
vn -0.097703 0.000000 0.995216
vn -0.097703 0.000000 0.995216
vn -0.097703 0.000000 0.995216
vn -0.097703 0.000000 0.995216
vn -0.097703 0.000000 0.995216
vn -0.097703 0.000000 0.995216
vn -0.097703 0.000000 0.995216
vn -0.097703 0.000000 0.995216
vn -0.097703 0.000000 0.995216
vn -0.097703 0.000000 0.995216
vn -0.097703 0.000000 0.995216
vn -0.097703 0.000000 0.995216
vn -0.097703 0.000000 0.995216
vn -0.097703 0.000000 0.995216
vn -0.097703 0.000000 0.995216
vn -0.097703 0.000000 0.995216
vn -0.097703 0.000000 0.995216
vn -0.995216 0.000000 -0.097703
vn -0.995216 0.000000 -0.097703
vn -0.995214 0.000000 -0.097719
vn -0.995214 0.000000 -0.097719
vn -0.995216 0.000000 -0.097703
vn -0.995214 0.000000 -0.097719
vn -0.097703 0.000000 0.995216
vn -0.097703 0.000000 0.995216
vn -0.097703 0.000000 0.995216
vn -0.097703 0.000000 0.995216
vn -0.097703 0.000000 0.995216
vn -0.097703 0.000000 0.995216
vn -0.000000 1.000000 0.000000
vn -0.041175 0.999146 0.003573
vn -0.000000 1.000000 0.000000
vn -0.000000 1.000000 0.000000
vn -0.097703 0.000000 0.995216
vn -0.097703 0.000000 0.995216
vn -0.097703 0.000000 0.995216
vn -0.097703 0.000000 0.995216
vn -0.097703 0.000000 0.995216
vn -0.097703 0.000000 0.995216
vn -0.097703 0.000000 0.995216
vn 0.000000 -1.000000 0.000000
vn 0.000000 -1.000000 0.000000
vn 0.000000 -1.000000 0.000000
vn 0.000000 -1.000000 -0.000000
vn -0.105029 -0.992683 0.059572
vn -0.125744 -0.991929 -0.016292
vn -0.051094 -0.998340 -0.026591
vn -0.105359 0.994094 -0.026004
vn -0.114218 0.992985 -0.030585
vn -0.000000 1.000000 0.000000
vn -0.041446 0.999056 0.013043
vn -0.000000 1.000000 0.000000
vn 0.000000 1.000000 0.000000
vn -0.097703 0.000000 0.995216
vn -0.097703 0.000000 0.995216
vn -0.097703 0.000000 0.995216
vn -0.097703 0.000000 0.995216
vn -0.097703 0.000000 0.995216
vn -0.097703 0.000000 0.995216
vn -0.097703 0.000000 0.995216
vn 0.000000 -1.000000 -0.000000
vn 0.000000 -1.000000 -0.000000
vn 0.000000 -1.000000 0.000000
vn 0.000000 -1.000000 -0.000000
vn 0.000000 -1.000000 -0.000000
vn -0.007010 -0.999720 -0.022595
vn -0.006759 -0.999691 -0.023905
vn -0.108458 0.993630 -0.030588
vn -0.097530 0.994542 -0.037064
s 1
g pCube3
usemtl initialShadingGroup
f 226/457/583 255/454/584 313/257/585 314/448/586
s 2
f 228/259/587 256/260/588 257/261/589 243/262/590
s 3
f 244/456/591 265/264/592 255/256/593 226/458/594
s 4
f 240/265/595 246/266/596 299/267/597 300/268/598
s 5
f 314/258/599 315/269/600 244/263/601 226/255/602
s 3
f 230/270/603 261/271/604 262/272/605 236/273/606
s off
f 237/274/607 295/275/608 238/276/609 231/277/610
s 2
f 236/273/611 260/278/612 261/271/613 230/270/614
s 5
f 317/279/615 318/280/616 233/281/617
s 2
f 232/282/618 259/283/619 260/278/612 236/273/611
s 4
f 295/275/620 296/284/621 294/285/622 238/276/623
s 3
f 318/445/624 319/444/625 263/287/626 233/447/627
f 227/435/628 245/289/629 287/290/630 288/451/631
s 2
f 289/292/632 290/293/633 248/294/634 229/295/635
s 1
f 310/296/636 311/297/637 227/288/638 288/291/639
s 3
f 234/298/640 321/299/641 322/300/642 285/301/643
s 2
f 237/274/644 235/302/645 292/303/646 293/304/647
s 5
f 316/305/648 317/279/615 233/281/617 249/455/649
s 3
f 233/447/627 263/287/626 264/307/650 249/306/651
f 285/301/643 286/308/652 254/309/653 234/298/640
s 4
f 297/310/654 298/311/655 253/312/656 239/313/657
s 2
f 235/302/645 251/314/658 291/315/659 292/303/646
f 250/316/660 258/317/661 259/283/619 232/282/618
s 5
f 315/269/600 316/305/648 249/455/649 244/263/601
s 2
f 243/262/590 257/261/589 258/317/661 250/316/660
f 290/293/633 291/315/659 251/314/658 248/294/634
s 4
f 298/311/655 299/267/597 246/266/596 253/312/656
s 3
f 286/308/652 287/290/630 245/289/629 254/309/653
f 249/306/651 264/307/650 265/264/592 244/456/591
s 1
f 311/297/637 394/318/662 395/434/663 227/288/638
s 2
f 388/320/664 389/321/665 229/295/635 248/294/634
f 387/322/666 388/320/664 248/294/634 251/314/658
f 386/323/667 387/322/666 251/314/658 235/302/645
f 402/324/668 386/323/667 235/302/645 237/274/644
f 401/325/669 402/324/668 237/274/644 231/277/670
s 3
f 400/326/671 401/325/672 231/277/673 238/459/674
f 398/327/675 399/432/676 321/299/641 234/298/640
f 397/329/677 398/327/675 234/298/640 254/309/653
f 396/330/678 397/329/677 254/309/653 245/289/629
f 395/319/679 396/330/678 245/289/629 227/435/628
s 2
f 259/283/619 258/317/661 267/331/680 266/332/681
f 258/317/661 257/261/589 268/333/682 267/331/680
f 257/261/589 256/260/588 269/334/683 268/333/682
s 1
f 312/335/684 313/257/585 255/454/584 270/336/685
s 3
f 255/256/593 265/264/592 271/337/686 270/453/687
f 265/264/592 264/307/650 272/338/688 271/337/686
f 264/307/650 263/287/626 273/339/689 272/338/688
f 263/287/626 319/444/625 320/443/690 273/339/689
f 262/272/605 261/271/604 275/341/691 274/342/692
s 2
f 261/271/613 260/278/612 276/343/693 275/341/694
f 260/278/612 259/283/619 266/332/681 276/343/693
s 3
f 323/344/695 324/345/696 278/346/697 277/347/698
f 324/345/696 325/348/699 279/349/700 278/346/697
f 280/452/701 279/349/700 325/348/699 326/351/702
s 1
f 326/351/703 327/352/704 301/353/705 280/350/706
s 2
f 247/354/707 282/355/708 281/356/709 242/357/710
f 252/358/711 283/359/712 282/355/708 247/354/707
f 284/360/713 283/359/712 252/358/711 241/361/714
s 3
f 277/347/698 278/346/697 286/308/652 285/301/643
f 278/346/697 279/349/700 287/290/630 286/308/652
f 288/451/631 287/290/630 279/349/700 280/452/701
s 1
f 301/353/705 302/362/715 310/296/636 288/291/639 280/350/706
s 2
f 281/356/709 282/355/708 290/293/633 289/292/632
f 282/355/708 283/359/712 291/315/659 290/293/633
f 292/303/646 291/315/659 283/359/712 284/360/713
f 293/304/647 292/303/646 284/360/713 241/361/714
s 4
f 296/284/621 297/310/654 239/313/657 294/285/622
s 3
f 285/301/643 322/300/642 323/344/695 277/347/698
s 4
f 293/304/716 296/284/621 295/275/620 237/274/717
f 241/361/718 297/310/654 296/284/621 293/304/716
f 252/358/719 298/311/655 297/310/654 241/361/718
f 247/354/720 299/267/597 298/311/655 252/358/719
f 300/268/598 299/267/597 247/354/720 242/357/721
s 1
f 327/352/704 328/363/722 301/353/705
f 328/363/722 329/364/723 302/362/715 301/353/705
f 329/364/723 330/365/724 303/366/725 302/362/715
f 330/365/724 392/367/726 393/368/727 303/366/725
f 331/369/728 332/370/729 305/371/730 304/372/731
f 306/449/732 305/371/730 332/370/729 333/446/733
s 5
f 333/374/734 334/375/735 307/376/736 306/373/737
f 334/375/735 335/377/738 308/378/739 307/376/736
f 232/282/740 309/379/741 308/378/739 335/377/738 351/380/742 336/381/743 250/316/744
s 1
f 302/362/715 303/366/725 311/297/637 310/296/636
f 303/366/725 393/368/727 394/318/662 311/297/637
f 304/372/731 305/371/730 313/257/585 312/335/684
f 314/448/586 313/257/585 305/371/730 306/449/732
s 5
f 306/373/737 307/376/736 315/269/600 314/258/599
f 307/376/736 308/378/739 316/305/648 315/269/600
f 308/378/739 309/379/741 317/279/615 316/305/648
f 236/273/745 318/280/616 317/279/615 309/379/741 232/282/740
s 3
f 236/273/606 262/272/605 319/286/625 318/280/624
f 320/340/690 319/286/625 262/272/605 274/342/692
f 321/433/641 399/328/676 400/326/671 238/459/674
f 322/442/642 321/433/641 238/459/674 294/450/746
f 323/344/695 322/300/642 294/285/746 239/313/747
f 253/312/748 324/345/696 323/344/695 239/313/747
f 246/266/749 325/348/699 324/345/696 253/312/748
f 326/351/702 325/348/699 246/266/749 240/265/750
s 1
f 300/268/751 327/352/704 326/351/703 240/265/752
f 281/356/753 343/382/754 344/383/755 328/363/722 327/352/704 300/268/751 242/357/756
f 289/292/757 342/384/758 343/382/754 281/356/753
f 229/295/759 341/385/760 342/384/758 289/292/757
f 389/321/761 390/386/762 341/385/760 229/295/759
f 256/260/763 339/387/764 340/388/765 269/334/766
f 338/389/767 339/387/764 256/260/763 228/259/768
s 5
f 243/262/769 337/390/770 338/389/771 228/259/772
f 250/316/744 336/381/743 337/390/770 243/262/769
f 350/391/773 351/380/742 335/377/738 334/375/735
f 349/392/774 350/391/773 334/375/735 333/374/734
s 1
f 333/446/733 332/370/729 348/393/775 349/440/776
f 347/394/777 348/393/775 332/370/729 331/369/728
f 346/395/778 391/396/779 392/367/726 330/365/724
f 345/397/780 346/395/778 330/365/724 329/364/723
f 344/383/755 345/397/780 329/364/723 328/363/722
f 343/382/754 342/384/758 345/397/780 344/383/755
f 342/384/758 341/385/760 346/395/778 345/397/780
f 341/385/760 390/386/762 391/396/779 346/395/778
f 340/388/765 339/387/764 348/393/775 347/394/777
f 349/440/776 348/393/775 339/387/764 338/441/767
s 5
f 338/389/771 337/390/770 350/391/773 349/392/774
f 337/390/770 336/381/743 351/380/742 350/391/773
s 2
f 266/332/681 267/331/680 353/398/781 352/399/782
f 267/331/680 268/333/682 354/400/783 353/398/781
f 268/333/682 269/334/683 355/401/784 354/400/783
s 1
f 269/334/766 340/388/765 356/402/785 355/401/786
f 357/403/787 356/402/785 340/388/765 347/394/777
f 358/404/788 357/403/787 347/394/777 331/369/728
f 359/405/789 358/404/788 331/369/728 304/372/731
f 360/406/790 359/405/789 304/372/731 312/335/684
f 361/439/791 360/406/790 312/335/684 270/336/685
s 3
f 270/453/687 271/337/686 362/408/792 361/407/793
f 271/337/686 272/338/688 363/409/794 362/408/792
f 272/338/688 273/339/689 364/410/795 363/409/794
f 273/339/689 320/443/690 365/438/796 364/410/795
f 366/412/797 365/411/796 320/340/690 274/342/692
f 274/342/692 275/341/691 367/413/798 366/412/797
s 2
f 275/341/694 276/343/693 368/414/799 367/413/800
f 276/343/693 266/332/681 352/399/782 368/414/799
f 352/399/782 353/398/781 370/415/801 369/416/802
f 353/398/781 354/400/783 371/417/803 370/415/801
f 354/400/783 355/401/784 372/418/804 371/417/803
s 1
f 355/401/786 356/402/785 373/419/805 372/418/806
f 374/420/807 373/419/805 356/402/785 357/403/787
f 375/421/808 374/420/807 357/403/787 358/404/788
f 376/422/809 375/421/808 358/404/788 359/405/789
f 377/423/810 376/422/809 359/405/789 360/406/790
f 378/437/811 377/423/810 360/406/790 361/439/791
s 3
f 361/407/793 362/408/792 379/425/812 378/424/813
f 362/408/792 363/409/794 380/426/814 379/425/812
f 363/409/794 364/410/795 381/427/815 380/426/814
f 364/410/795 365/438/796 382/436/816 381/427/815
f 383/429/817 382/428/816 365/411/796 366/412/797
f 366/412/797 367/413/798 384/430/818 383/429/817
s 2
f 367/413/800 368/414/799 385/431/819 384/430/820
f 368/414/799 352/399/782 369/416/802 385/431/819
f 369/416/802 370/415/801 387/322/666 386/323/667
f 370/415/801 371/417/803 388/320/664 387/322/666
f 371/417/803 372/418/804 389/321/665 388/320/664
s 1
f 372/418/806 373/419/805 390/386/762 389/321/761
f 391/396/779 390/386/762 373/419/805 374/420/807
f 392/367/726 391/396/779 374/420/807 375/421/808
f 393/368/727 392/367/726 375/421/808 376/422/809
f 394/318/662 393/368/727 376/422/809 377/423/810
f 395/434/663 394/318/662 377/423/810 378/437/811
s 3
f 378/424/813 379/425/812 396/330/678 395/319/679
f 379/425/812 380/426/814 397/329/677 396/330/678
f 380/426/814 381/427/815 398/327/675 397/329/677
f 381/427/815 382/436/816 399/432/676 398/327/675
f 400/326/671 399/328/676 382/428/816 383/429/817
f 383/429/817 384/430/818 401/325/672 400/326/671
s 2
f 384/430/820 385/431/819 402/324/668 401/325/669
f 385/431/819 369/416/802 386/323/667 402/324/668
